<?xml version="1.0" encoding="UTF-8"?>
<svg id="Layer_1" data-name="Layer 1" xmlns="http://www.w3.org/2000/svg" viewBox="0 0 41.65 506.95">
  <defs>
    <style>
      .cls-1 {
        fill: #fff;
        stroke-width: 0px;
      }
    </style>
  </defs>
  <g id="roll">
    <path id="Path_13828" data-name="Path 13828" class="cls-1" d="m20.83,1.25C9.34,1.25,0,6.33,0,12.58v483.04c0,6.25,9.34,11.33,20.83,11.33s20.83-5.08,20.83-11.33V12.58c0-6.25-9.34-11.33-20.83-11.33m19.89,494.37c0,5.73-8.92,10.4-19.89,10.4s-19.89-4.67-19.89-10.4v-135.74c2.64,4.61,10.56,7.97,19.89,7.97s17.25-3.36,19.89-7.97v135.74Zm0-139.1c0,5.73-8.92,10.4-19.89,10.4s-19.89-4.66-19.89-10.4V15.94c2.64,4.61,10.56,7.97,19.89,7.97s17.25-3.36,19.89-7.97v340.58ZM20.83,22.98C9.86,22.98.94,18.31.94,12.58S9.86,2.18,20.83,2.18s19.89,4.66,19.89,10.4-8.92,10.4-19.89,10.4"/>
  </g>
</svg>