<?xml version="1.0" encoding="UTF-8"?>
<svg id="Layer_1" data-name="Layer 1" xmlns="http://www.w3.org/2000/svg" viewBox="0 0 41.65 506.95">
  <defs>
    <style>
      .cls-1 {
        fill: #fff;
        stroke-width: 0px;
      }
    </style>
  </defs>
  <g id="roll">
    <path id="Path_13826" data-name="Path 13826" class="cls-1" d="m20.83,193.69c-11.48,0-20.83,5.08-20.83,11.33v290.6c0,6.25,9.34,11.33,20.83,11.33s20.83-5.08,20.83-11.33V205.02c0-6.25-9.34-11.33-20.83-11.33m19.89,301.93c0,5.73-8.92,10.4-19.89,10.4s-19.89-4.67-19.89-10.4v-135.74c2.64,4.61,10.56,7.97,19.89,7.97s17.25-3.36,19.89-7.97v135.74Zm0-139.1c0,5.73-8.92,10.4-19.89,10.4s-19.89-4.66-19.89-10.4v-148.14c2.64,4.61,10.56,7.97,19.89,7.97s17.25-3.36,19.89-7.97v148.14Zm-19.89-141.1c-10.97,0-19.89-4.66-19.89-10.4s8.92-10.39,19.89-10.39,19.89,4.66,19.89,10.4-8.92,10.4-19.89,10.4"/>
  </g>
</svg>