<?xml version="1.0" encoding="utf-8"?>
<!-- Generator: Adobe Illustrator 28.0.0, SVG Export Plug-In . SVG Version: 6.00 Build 0)  -->
<svg version="1.1" id="Layer_1" xmlns="http://www.w3.org/2000/svg" xmlns:xlink="http://www.w3.org/1999/xlink" x="0px" y="0px"
	 viewBox="0 0 58 490" style="enable-background:new 0 0 58 490;" xml:space="preserve">
<style type="text/css">
	.st0{fill:#FFFFFF;}
</style>
<g id="Roll">
	<path class="st0" d="M2.6,140.2c0-0.3-0.1-0.5-0.1-0.8c0-0.7,0.4-1.4,1-1.8c0.3-0.6,0.6-1.3,0.7-1.9c0.1-0.2,0.2-0.5,0.4-0.7
		c0.1-0.6,0.5-1.1,1.2-1.4c0.4-0.3,1-0.4,1.5-0.5c0,0,0-0.1,0.1-0.1l0.3,0.1c0.5,0,1,0.1,1.4,0.3c0.4,0.1,0.7,0.3,1,0.5
		c0.1,0.1,0.2,0.1,0.2,0.2c0.2,0.1,0.4,0.2,0.7,0.3c0.5,0.2,1,0.4,1.5,0.6c1,0.4,1.9,0.7,2.9,1.1c0.5,0.2,1,0.4,1.5,0.6
		c0.1,0,0.2,0.1,0.2,0.1c0.1,0,0.1,0,0.2,0.1c0.3,0.1,0.6,0.2,0.9,0.2c0.5,0.1,0.9,0.2,1.4,0.3c-3.2-1.9-6.3-3.7-8.3-5.8
		c-3.1-3.2,3.3-5.4,6.1-8.6l9.8,12.2l1.5-0.2c-2.1-4.9-9.4-9.2-8.9-14.9l13.8,8.3c-2.2-4.1-11.4-6.8-10.9-11.8
		c5.9,3.8,11.2,7.2,16.5,10.6c-3.8-4.7-12.8-8.4-13.7-13.9c10.6,5,20,11.9,27.4,20.2c0.3,0.3,0.5,0.7,0.5,1.1
		c0.1,0.1,0.1,0.2,0.2,0.2c0.1,0.2,0.2,0.4,0.2,0.7c0.1,0.1,0.1,0.3,0.2,0.5c0,0.2,0.1,0.4,0.1,0.6c0.1,0.1,0.2,0.2,0.3,0.3
		c0.2,0.3,0.4,0.6,0.5,1c0.1,0.2,0.1,0.3,0.2,0.5c0.1,0.3,0.1,0.6,0.2,0.9c0.2,0.2,0.3,0.4,0.3,0.6c0,0.2,0.1,0.4,0.1,0.6
		c0,0,0,0,0,0.1c0,0,0,0,0,0l-0.1,2.6c0.3,0,0.7,0,1,0l0.2-4.1c0,0,0-0.1,0.1-0.1v0l0,0c0-0.1,0-0.2,0-0.3v-0.1l0-1.1
		c0-0.1,0-0.1,0-0.2v0c-0.1-0.4-0.2-0.9-0.3-1.3c0,0,0,0,0,0c-0.2-0.6-0.4-1.2-0.7-1.8c-0.3-0.7-0.7-1.3-1-2
		c-0.4-0.5-0.9-0.9-1.3-1.4c-1-1-2.2-1.9-3.4-2.7c-0.5-0.4-0.8-0.9-0.8-1.5c0-0.1,0-0.1,0-0.1c-4.1-3-8.4-6.1-12.8-9.3h0
		c-0.1,0-0.1-0.1-0.2-0.1h-0.1v0l-9.3-6.6l-3.1-15.1l-1-2.2h-1.3v9.6l-0.8,13.4c-2,2.6-4.3,5.1-6.9,7.4c-2.6,2.6-7,4.8-6.4,7.9
		c0,0.2-0.3,0.3-0.5,0.5c-2.1,1.2-3.7,2.9-4.6,4.9c-0.1,0.5-0.3,0.9-0.5,1.3v0.1c0,0,0,0.1,0,0.1c0,0,0,0,0,0.1l0.2,4
		c0.3,0,0.7,0,1,0L2.6,140.2z"/>
	<path class="st0" d="M55.3,143L47,352.1v0c-0.1,0.2-0.2,0.3-0.3,0.5c-0.2,0.6-0.5,1.2-0.9,1.7c0,0,0,0,0,0c-1,1.6-2.4,2.9-4,3.9
		c-3.9,2.2-8.3,3.3-12.7,3.3c-8.3,0-15.2-3.3-17.2-7.9c-0.2-0.3-0.4-0.6-0.5-0.9c-0.1-0.1-0.2-0.3-0.3-0.4L2.6,142c-0.3,0-0.6,0-1,0
		L10,352.3l3.5,124.1c0,5,6.9,8.9,15.6,8.9h0.1c3.8,0.1,7.6-0.8,11-2.6c3-1.7,4.6-3.9,4.7-6.3L48,352.8L56.3,143
		C56,143,55.6,143,55.3,143z M43.7,476.2L43.7,476.2c0,2-1.5,3.9-4.1,5.4c-3.2,1.7-6.8,2.5-10.4,2.4h-0.1c-7.9,0-14.4-3.4-14.4-7.7
		h-0.6l0.6,0l-3.5-121.2c2.8,4.4,9.6,7.5,17.7,7.5H29c4.7,0.1,9.3-1.1,13.4-3.4c1.8-1,3.2-2.4,4.4-4.1L43.7,476.2z"/>
</g>
</svg>
