<?xml version="1.0" encoding="utf-8"?>
<!-- Generator: Adobe Illustrator 28.0.0, SVG Export Plug-In . SVG Version: 6.00 Build 0)  -->
<svg version="1.1" id="Layer_1" xmlns="http://www.w3.org/2000/svg" xmlns:xlink="http://www.w3.org/1999/xlink" x="0px" y="0px"
	 viewBox="0 0 58 490" style="enable-background:new 0 0 58 490;" xml:space="preserve">
<style type="text/css">
	.st0{fill:#FFFFFF;}
</style>
<path id="Roll" class="st0" d="M52.1,212.7c-0.1-0.4-0.2-0.7-0.3-1.1l0,0c-0.1-0.5-0.3-1-0.6-1.5c-0.3-0.5-0.6-1.1-0.8-1.6
	c-0.4-0.4-0.7-0.8-1.1-1.1c-0.8-0.8-1.8-1.5-2.8-2.1c-0.4-0.3-0.7-0.7-0.7-1.2c0,0,0-0.1,0-0.1c-3.3-2.4-6.8-4.7-10.4-7.2l-0.1-0.1
	l-0.2-0.2h0l-0.1,0L27,191l-2.7-12.8l-0.9-1.9h-1.2v8.1l-0.7,11.2c-1.7,2.1-3.6,4-5.6,5.8c-2.2,2.1-5.9,3.8-5.4,6.4
	c0,0.1-0.2,0.3-0.4,0.4c-1.7,1-3.1,2.4-3.9,4c-0.1,0.4-0.3,0.7-0.4,1.1v0.1c0,0,0,0,0,0.1c0,0,0,0,0,0l0.1,3.6c0,0,0,0,0,0
	l3.9,133.6v0.1l3.5,125.6c0,5,6.9,8.9,15.6,8.9h0.1c3.8,0.1,7.6-0.8,11-2.6c3-1.7,4.6-3.9,4.7-6.3l3.1-124v0l4-134.4l0.1-3.9v0l0,0
	v0l0-1.2C52.1,212.8,52.1,212.7,52.1,212.7z M43.7,476.2L43.7,476.2c0,2-1.5,3.9-4.1,5.4c-3.2,1.7-6.8,2.5-10.4,2.4h-0.1
	c-7.9,0-14.4-3.4-14.4-7.7h-0.6l0.6,0l-3.4-121.2c2.8,4.4,9.6,7.5,17.7,7.5H29c4.7,0.1,9.3-1.1,13.4-3.4c1.8-1,3.2-2.4,4.4-4.1
	L43.7,476.2z M50.9,218l-4,134l0,0c-0.1,0.2-0.2,0.3-0.3,0.5c-0.2,0.6-0.5,1.2-0.9,1.7v0c-1,1.6-2.4,2.9-4,3.9
	c-3.9,2.2-8.3,3.3-12.7,3.3c-8.3,0-15.2-3.3-17.2-7.9c-0.2-0.3-0.4-0.6-0.5-0.9c-0.1-0.1-0.2-0.3-0.3-0.4L7,217c0,0,0,0,0,0l0-1.1
	c0-0.1-0.1-0.3-0.1-0.4c0,0,0,0,0,0c0,0,0,0,0,0c0-0.2,0.1-0.4,0.1-0.6c0-0.1,0-0.1,0-0.2c0-0.1,0.1-0.2,0.2-0.3
	c0-0.2,0.1-0.4,0.2-0.6c0,0,0-0.1,0.1-0.1c0,0,0,0,0,0c0.2-0.7,0.6-1.4,0.8-2.1c0.1-0.2,0.2-0.4,0.3-0.5c0.1-0.5,0.5-0.9,1-1.2
	c0.4-0.2,0.8-0.4,1.3-0.4c0,0,0-0.1,0-0.1l0.2,0.1c0.4,0,0.8,0.1,1.2,0.2c0.3,0.1,0.6,0.2,0.9,0.4c0.1,0,0.1,0.1,0.2,0.1
	c0.2,0.1,0.4,0.2,0.6,0.3c0.4,0.2,0.8,0.3,1.2,0.5c0.8,0.3,1.6,0.6,2.4,0.9c0.4,0.2,0.8,0.3,1.2,0.5c0.1,0,0.1,0.1,0.1,0.1
	c0.1,0,0.1,0,0.2,0c0.2,0.1,0.5,0.1,0.7,0.2c0.4,0.1,0.8,0.2,1.2,0.3c-2.7-1.6-5.3-3-7-4.7c-2.6-2.6,2.8-4.4,5.1-6.9l8.2,9.9
	l1.2-0.2c-1.8-3.9-7.9-7.4-7.5-12l11.5,6.7c-1.9-3.3-9.6-5.5-9.1-9.5l13.9,8.6c-3.2-3.8-10.7-6.8-11.5-11.2c8.9,4,16.7,9.6,23,16.2
	c0.2,0.2,0.3,0.5,0.4,0.8c1.3,1.1,1.7,2.8,1.9,4.3C51.2,215.8,51.2,216.9,50.9,218C50.9,218,50.9,218,50.9,218z"/>
</svg>
