<?xml version="1.0" encoding="utf-8"?>
<!-- Generator: Adobe Illustrator 28.0.0, SVG Export Plug-In . SVG Version: 6.00 Build 0)  -->
<svg version="1.1" id="Layer_1" xmlns="http://www.w3.org/2000/svg" xmlns:xlink="http://www.w3.org/1999/xlink" x="0px" y="0px"
	 viewBox="0 0 58 490" style="enable-background:new 0 0 58 490;" xml:space="preserve">
<style type="text/css">
	.st0{fill:#FFFFFF;}
</style>
<g id="Roll">
	<path class="st0" d="M2.5,60.8C2.5,60.8,2.5,60.8,2.5,60.8c0-0.2,0-0.3,0-0.4c0,0,0,0,0,0l0-0.1c0,0,0,0,0,0c0-0.1,0-0.2,0-0.3
		c0-0.1,0-0.2,0.1-0.3c0-0.1,0-0.1,0-0.2c0-0.1,0-0.1,0.1-0.2C2.8,59.2,2.9,59,3,58.8c0.1-0.1,0.2-0.3,0.4-0.4
		c0.3-0.6,0.6-1.3,0.8-1.9c0.1-0.2,0.2-0.4,0.4-0.6c0.1-0.5,0.5-1,1.2-1.3c0.4-0.3,1-0.4,1.5-0.4c0,0,0-0.1,0-0.1l0.3,0.1
		c0.5,0,1,0.1,1.4,0.3c0.4,0.1,0.7,0.2,1,0.4c0.1,0,0.2,0.1,0.2,0.1c0.2,0.1,0.4,0.2,0.7,0.3c0.5,0.2,1,0.4,1.5,0.5
		c1,0.3,1.9,0.7,2.9,1c0.5,0.2,1,0.4,1.5,0.6c0.1,0,0.2,0.1,0.2,0.1l0.2,0c0.3,0.1,0.6,0.1,0.9,0.2c0.5,0.1,0.9,0.2,1.4,0.3
		c-3.2-1.8-6.3-3.4-8.3-5.2c-3.1-2.9,3.3-4.9,6.1-7.8L26.9,56l1.5-0.2c-2.1-4.4-9.4-8.3-8.9-13.5l13.8,7.5
		c-2.2-3.7-11.4-6.2-10.9-10.7l16.6,9.6c-3.8-4.3-12.8-7.6-13.7-12.6c10.6,4.5,20,10.8,27.4,18.3c0.1,0.1,0.2,0.3,0.3,0.4
		c0.2,0.1,0.4,0.3,0.5,0.5c0.7,0.8,1.2,1.7,1.6,2.6c0.2,0.6,0.4,1.1,0.5,1.7c0.1,0.4,0.1,0.8,0,1.2c0,0.2,0,0.4-0.1,0.6L55.4,63
		c0.3,0,0.7,0,1,0l0.1-3.7v0c0-0.1,0-0.2,0-0.3c0-0.4,0-0.7,0-1v-0.3c-0.1-0.4-0.2-0.8-0.3-1.2c0,0,0,0,0,0
		c-0.2-0.6-0.4-1.1-0.7-1.7c-0.3-0.6-0.7-1.2-1-1.8c-0.4-0.4-0.9-0.8-1.3-1.3c-1-0.9-2.2-1.7-3.4-2.4c-0.5-0.3-0.8-0.8-0.8-1.4
		c0,0,0-0.1,0-0.1c-4-2.7-8.2-5.4-12.5-8.2l0.1-0.2l-9.8-6.4l-3.2-14.5l-1.1-2.1H21v9.2l-0.9,12.9c-2,2.3-4.2,4.5-6.7,6.5
		c-2.6,2.3-7,4.3-6.4,7.1c0,0.1-0.3,0.3-0.5,0.4c-2.1,1.1-3.7,2.7-4.6,4.5c-0.2,0.4-0.3,0.8-0.5,1.2v0.1c0,0,0,0,0,0.1v0l0.1,3.6
		c0.3,0,0.7,0,1,0L2.5,60.8z"/>
	<path class="st0" d="M55.4,63L47,352.1l0,0c-0.1,0.2-0.2,0.3-0.3,0.5c-0.2,0.6-0.5,1.2-0.9,1.7c0,0,0,0,0,0c-1,1.6-2.4,2.9-4,3.9
		c-3.9,2.2-8.3,3.3-12.7,3.3c-8.3,0-15.2-3.3-17.2-7.9c-0.2-0.3-0.4-0.6-0.5-0.9c-0.1-0.1-0.2-0.3-0.3-0.4L2.6,62c-0.3,0-0.7,0-1,0
		L10,350.7c0,0,0,0,0,0v0.1l3.5,125.6c0,5,6.9,8.9,15.6,8.9h0.1c3.8,0.1,7.6-0.8,10.9-2.6c3-1.7,4.6-3.9,4.7-6.3L48,352.5L56.4,63
		C56.1,63,55.7,63,55.4,63z M43.7,476.2L43.7,476.2c0,2-1.5,3.9-4.1,5.4c-3.2,1.6-6.8,2.5-10.4,2.4h-0.1c-7.9,0-14.4-3.4-14.4-7.7
		h-0.6l0.6,0l-3.4-121.2c2.8,4.4,9.6,7.5,17.7,7.5H29c4.7,0.1,9.3-1.1,13.4-3.4c1.8-1,3.2-2.4,4.4-4.1L43.7,476.2z"/>
</g>
</svg>
