<?xml version="1.0" encoding="UTF-8"?>
<svg id="Layer_1" data-name="Layer 1" xmlns="http://www.w3.org/2000/svg" viewBox="0 0 58 490">
  <defs>
    <style>
      .cls-1 {
        fill: #fff;
        stroke-width: 0px;
      }
    </style>
  </defs>
  <path id="Path_14064" data-name="Path 14064" class="cls-1" d="m28.5,221.79c-.93,0-1.87-.06-2.8-.13-.26.25-.58.44-.92.57.11.44.11.9,0,1.34.79.08,1.58.16,2.37.19.06-.05.13-.1.19-.14.47-.23.95-.42,1.44-.59.19-.07.39-.14.58-.21.02,0,.04-.02.06-.03.04-.15.06-.3.08-.44-.24-.1-.48-.2-.71-.32-.11-.07-.21-.15-.31-.24"/>
  <path id="Path_14065" data-name="Path 14065" class="cls-1" d="m52.1,213.35h0v-.04l.04-1.38c0-.09-.03-.17-.07-.24h0c-.1-.43-.19-.86-.26-1.3l-.02.03c-.14-.6-.34-1.19-.58-1.76-.26-.64-.55-1.27-.84-1.9-.37-.44-.74-.89-1.12-1.33-.85-.95-1.8-1.8-2.84-2.54-.44-.35-.7-.88-.7-1.44,0-.05,0-.09.01-.14-3.31-2.82-6.81-5.61-10.42-8.58l-.11-.09-.23-.19h.01s-.06-.04-.06-.04l-7.86-6.38-2.71-15.23-.89-2.23h-1.18v9.65l-.7,13.31c-1.69,2.45-3.57,4.76-5.62,6.91-2.17,2.45-5.9,4.54-5.37,7.53.03.15-.22.33-.41.47-1.73,1.15-3.09,2.79-3.89,4.72-.12.44-.26.87-.42,1.29,0,.04,0,.08,0,.12,0,.02,0,.05-.01.07s.01.03.02.05l4.05,138.04h0v.07h0s3.55,125.57,3.55,125.57c.03,4.99,6.87,8.87,15.61,8.87h.11c3.81.06,7.57-.82,10.95-2.56,2.98-1.67,4.64-3.9,4.7-6.3h0l3.13-123.96v-.02l4.1-139.03h0v-.03h0Zm-8.43,262.9h0c0,2-1.45,3.92-4.09,5.4-3.21,1.65-6.77,2.47-10.37,2.41h-.1c-7.94,0-14.4-3.44-14.42-7.7h-.6l.6-.02-3.44-121.25c2.77,4.4,9.64,7.51,17.67,7.51h.12c4.68.08,9.29-1.11,13.35-3.44,1.75-1.03,3.25-2.44,4.36-4.14l-3.06,121.22Zm3.33-124.2c-.1.16-.2.32-.3.48-.18.63-.49,1.21-.92,1.71v.02c-1.02,1.6-2.4,2.94-4.04,3.89-3.87,2.21-8.27,3.34-12.73,3.26-8.29.02-15.22-3.34-17.25-7.91-.2-.28-.37-.58-.5-.9-.1-.13-.19-.27-.29-.41l-4.03-137.41s.05.09.08.14c.72.85,1.4,1.73,2.02,2.65,2.2,1.98,4.8,3.45,7.62,4.32.36-.08.72-.19,1.08-.29.24-.06.5-.09.75-.07-.3-.32-.6-.63-.87-.98-.19-.24-.39-.49-.56-.76-.81-.28-1.63-.59-2.44-.94-1.92-.86-3.66-2.06-5.16-3.53-.36-.35-.68-.73-.96-1.14-.43-.43-.81-.91-1.14-1.42.22-.83.61-1.62.81-2.46.06-.24.18-.46.34-.65.1-.58.46-1.08.97-1.37.37-.27.81-.43,1.27-.45.02-.04.03-.08.05-.13l.23.11c.4,0,.8.09,1.17.27.31.09.61.24.87.44.07.05.13.1.2.15.18.11.37.22.56.31.4.21.81.4,1.22.58.8.36,1.62.69,2.4,1.08.41.2.84.39,1.25.6.09.04.13.06.15.06.05.02.1.03.15.05.24.08.48.15.72.22.39.11.79.21,1.19.3-2.68-1.85-5.32-3.58-6.97-5.53-2.63-3.08,2.8-5.2,5.09-8.21l8.2,11.7,1.23-.2c-1.76-4.64-7.88-8.74-7.49-14.23l11.54,7.9c-1.86-3.88-9.58-6.5-9.14-11.27l13.89,10.16c-3.15-4.51-10.72-8.04-11.47-13.3,8.91,4.78,16.74,11.34,23.02,19.26.25.31.39.7.41,1.09.05.07.09.15.13.24.12.19.18.42.19.64.05.15.11.29.14.43.06.28.1.56.14.85.05.14.11.28.15.43.13.43.22.87.25,1.31-.02.02-.03.04-.05.06-.1.69-.3,1.36-.61,1.99-.2.37-.51.67-.89.86-.1.09-.21.17-.33.24-.32.27-.62.56-.94.84-.33.29-.68.56-1.04.8-.4.24-.82.44-1.26.6-.31.08-.64.09-.96.04-1.22.59-2.5,1.08-3.81,1.45-.98.29-1.97.52-2.95.73-.02.03-.04.07-.07.1-.11.16-.24.3-.39.42-.09.08-.17.16-.24.25.88.26,1.75.57,2.6.92,1.08-.29,2.15-.63,3.22-1.03,2.43-.86,4.65-2.21,6.53-3.97.18-.29.39-.55.62-.79.5-.5.95-1.04,1.36-1.61,0-.02,0-.04,0-.06l.02-.03v.05h0s-4.04,137.01-4.04,137.01Z"/>
</svg>