<?xml version="1.0" encoding="UTF-8"?>
<svg id="Layer_1" data-name="Layer 1" xmlns="http://www.w3.org/2000/svg" viewBox="0 0 41.65 508.2">
  <defs>
    <style>
      .cls-1 {
        fill: #fff;
        stroke-width: 0px;
      }
    </style>
  </defs>
  <path id="Path_5591" data-name="Path 5591" class="cls-1" d="m20.83,137.96c-11.48,0-20.83,5.08-20.83,11.33v347.58c0,6.25,9.34,11.33,20.83,11.33s20.83-5.08,20.83-11.33V149.29c0-6.25-9.34-11.33-20.83-11.33m19.89,358.91c0,5.73-8.92,10.4-19.89,10.4s-19.89-4.67-19.89-10.4v-135.74c2.64,4.61,10.56,7.97,19.89,7.97s17.25-3.36,19.89-7.97v135.74Zm0-139.1c0,5.73-8.92,10.4-19.89,10.4s-19.89-4.66-19.89-10.4v-205.12c2.64,4.61,10.56,7.97,19.89,7.97s17.25-3.36,19.89-7.97v205.12Zm-19.89-198.08c-10.97,0-19.89-4.66-19.89-10.4s8.92-10.39,19.89-10.39,19.89,4.66,19.89,10.4-8.92,10.4-19.89,10.4"/>
</svg>