<?xml version="1.0" encoding="UTF-8"?>
<svg id="Layer_1" data-name="Layer 1" xmlns="http://www.w3.org/2000/svg" viewBox="0 0 49.06 523.74">
  <defs>
    <style>
      .cls-1 {
        fill: #fff;
        stroke-width: 0px;
      }
    </style>
  </defs>
  <path id="Path_3154" data-name="Path 3154" class="cls-1" d="m22.55,233.35c.07-.05.13-.1.21-.15.5-.24,1.01-.45,1.53-.62.21-.07.41-.15.62-.22.02-.01.05-.02.07-.03.04-.15.06-.31.09-.47-.26-.1-.51-.22-.75-.34-.11-.07-.22-.16-.33-.25-.99,0-1.98-.06-2.97-.14-.07.07-.15.14-.23.2-.21.19-.46.32-.74.4.12.47.12.95,0,1.42.84.09,1.68.17,2.51.2"/>
  <path id="Path_3155" data-name="Path 3155" class="cls-1" d="m49.06,220.76c0-.14-.05-.27-.14-.37-.09-.4-.18-.79-.24-1.2,0,.01-.01.02-.02.04-.15-.64-.36-1.26-.62-1.86-.28-.68-.58-1.34-.9-2.01-.39-.47-.78-.94-1.19-1.41-.9-1-1.91-1.91-3.01-2.69-.46-.37-.73-.93-.74-1.53,0-.05,0-.1.01-.15-3.62-3.08-7.44-6.12-11.39-9.38h.01c-.06-.04-.13-.07-.19-.11-.56,0-1.1-.22-1.51-.59-4.12-2.48-8.02-4.99-8.99-8.64-.19-.26-.38-.53-.55-.81-.23-.38-.34-.82-.34-1.26.01-.08.02-.17.03-.25-.6-.56-1.19-1.14-1.78-1.72-.03.63-.06,1.25-.06,1.88.15,1.37.4,2.73.75,4.06.24.88.3,1.8.17,2.71-1.05,3.98-4.53,7.52-7.68,11.09-2.29,2.6-6.25,4.81-5.68,7.98.03.16-.23.35-.43.49-1.84,1.22-3.27,2.96-4.12,5-.13.46-.28.92-.45,1.36,0,.04,0,.08,0,.12,0,.03,0,.05-.01.08,0,0,0,.02.01.03l5.44,170.76c0,.08.03.17.08.24l3.46,122.26c.03,4.99,6.87,8.87,15.61,8.87h.11c3.8.06,7.57-.82,10.95-2.56,2.98-1.67,4.64-3.9,4.7-6.3h0l3.13-124,5.56-170.12Zm-36.59,9.22c-.2-.26-.41-.52-.6-.8-.86-.3-1.72-.63-2.58-1-2.03-.91-3.88-2.18-5.47-3.73-.38-.37-.72-.77-1.02-1.21-.45-.46-.85-.96-1.2-1.5.24-.88.64-1.72.86-2.61.06-.25.19-.49.36-.68.11-.61.48-1.15,1.03-1.45.39-.29.86-.45,1.35-.48.02-.05.03-.09.05-.13l.25.12c.43,0,.85.1,1.24.28.33.1.65.26.92.47.07.05.14.11.21.16.19.11.39.23.59.33.42.22.85.42,1.29.61.85.38,1.71.74,2.54,1.14.44.21.89.41,1.32.63.1.04.14.06.16.07.05.02.1.04.16.05.25.08.51.16.76.23.42.12.84.22,1.26.32-2.84-1.97-5.63-3.8-7.39-5.85-2.78-3.26,2.97-5.51,5.39-8.7,3.13,4.46,5.91,8.43,8.69,12.4l1.31-.22c-1.87-4.92-8.35-9.26-7.94-15.07l12.23,8.37c-1.98-4.11-10.15-6.89-9.68-11.94l14.71,10.76c-3.34-4.78-11.35-8.52-12.15-14.09,9.44,5.07,17.74,12.01,24.39,20.4.26.33.41.74.44,1.16.05.08.1.16.14.25.12.21.19.44.2.68.05.15.11.3.15.46.06.3.11.6.15.9.05.15.11.3.16.45.14.45.23.92.26,1.39-.02.02-.03.04-.05.06-.1.73-.31,1.44-.64,2.1-.21.4-.54.71-.95.91-.11.1-.22.18-.35.25-.34.29-.66.6-1,.89-.35.31-.72.59-1.11.85-.42.25-.87.47-1.34.63-.33.08-.68.1-1.02.04-1.3.63-2.65,1.14-4.03,1.54-1.04.31-2.08.55-3.13.77-.03.03-.04.07-.07.1-.11.17-.25.32-.42.44-.09.08-.18.17-.26.26.93.28,1.85.6,2.75.97,1.14-.31,2.28-.67,3.41-1.1,2.57-.91,4.92-2.34,6.92-4.2.19-.3.41-.58.66-.83.53-.53,1.01-1.1,1.44-1.71,0-.02,0-.04,0-.06l.02-.03v.06c.04-.05.07-.11.1-.17l-5.44,166.59c-.1.16-.19.32-.3.47-.18.63-.49,1.21-.92,1.71,0,0,0,.01-.01.02-1.01,1.6-2.39,2.94-4.03,3.89-3.87,2.21-8.27,3.34-12.73,3.26-8.29.02-15.22-3.34-17.25-7.91-.2-.28-.37-.58-.5-.9-.13-.18-.25-.36-.38-.53L1.08,223.72c.05.1.11.18.15.28.76.9,1.48,1.83,2.14,2.81,2.33,2.1,5.08,3.66,8.08,4.59.39-.08.76-.2,1.14-.31.26-.07.53-.09.79-.07-.31-.34-.63-.67-.92-1.03m26.71,284.75h0c0,2-1.45,3.92-4.09,5.4-3.21,1.65-6.77,2.47-10.37,2.41h-.1c-7.94,0-14.4-3.44-14.42-7.7h-.6l.6-.02-3.43-121.25c2.77,4.4,9.64,7.51,17.67,7.51h.12c4.68.08,9.29-1.11,13.35-3.44,1.75-1.03,3.25-2.44,4.36-4.14l-3.06,121.23Z"/>
</svg>