<?xml version="1.0" encoding="UTF-8"?>
<svg id="Layer_1" data-name="Layer 1" xmlns="http://www.w3.org/2000/svg" viewBox="0 0 380.41 368.84">
  <defs>
    <style>
      .cls-1, .cls-2, .cls-3, .cls-4 {
        fill: none;
        stroke: #fff;
        stroke-miterlimit: 10;
      }

      .cls-5 {
        fill: #fff;
        stroke-width: 0px;
      }

      .cls-2 {
        stroke-dasharray: 0 0 11.91 11.91;
      }

      .cls-2, .cls-3, .cls-4 {
        stroke-linecap: square;
      }

      .cls-3 {
        stroke-dasharray: 0 0 13.96 13.96;
      }

      .cls-6 {
        opacity: .3;
      }
    </style>
  </defs>
  <g id="blunt_paper">
    <g id="dash_2">
      <line id="Line_244" data-name="Line 244" class="cls-4" x1="227.5" y1="362.79" x2="233.5" y2="362.79"/>
      <line id="Line_245" data-name="Line 245" class="cls-2" x1="245.42" y1="362.79" x2="310.92" y2="362.79"/>
      <line id="Line_246" data-name="Line 246" class="cls-4" x1="316.88" y1="362.79" x2="322.88" y2="362.79"/>
    </g>
    <g id="dash_1">
      <line id="Line_247" data-name="Line 247" class="cls-4" x1="234.29" y1="24.17" x2="240.29" y2="24.17"/>
      <line id="Line_248" data-name="Line 248" class="cls-3" x1="254.25" y1="24.17" x2="303.11" y2="24.17"/>
      <line id="Line_249" data-name="Line 249" class="cls-4" x1="310.09" y1="24.17" x2="316.09" y2="24.17"/>
    </g>
    <g id="roll">
      <path id="Path_6421" data-name="Path 6421" class="cls-5" d="m379.41,37.09c-.09.38-.27.72-.54,1-.08.08-.17.15-.27.22-.09.27-.25.52-.45.72-.32.48-.75.87-1.25,1.14-2.47,1.29-5.16,2.11-7.94,2.4-7.92,1.28-16.02,1.09-23.87-.56-1.66-.37-3.27-.93-4.8-1.67-.46-.22-.89-.5-1.27-.85h-.06c-.5-.15-.93-.48-1.19-.92-.24-.46-.31-1-.2-1.51-.41.59-.62,1.29-.61,2.01v.44c1.03.55,2.01,1.18,2.94,1.89,3.35,1.41,6.91,2.26,10.54,2.52,6.84.79,13.76.56,20.53-.69,2.26-.38,4.45-1.08,6.5-2.1.76-.56,1.55-1.08,2.38-1.54v-.88c.01-.57-.14-1.13-.43-1.61"/>
      <path id="Path_6422" data-name="Path 6422" class="cls-5" d="m369.3,365.6c.37-.54.77-1.05,1.21-1.54v-.88c.09-1.11-.3-2.21-1.08-3.02-.8-.77-1.71-1.42-2.69-1.93-3.65-1.61-7.73-1.94-11.59-.94-1.78.34-3.44,1.13-4.83,2.3-1.12.99-1.72,2.44-1.62,3.94v.44c.55.59,1.05,1.22,1.5,1.89,1.52,1.32,3.37,2.2,5.36,2.52,3.47.79,7.1.55,10.44-.69,1.25-.44,2.38-1.16,3.31-2.1m-4.33,1.44c-3.98,1.28-8.3,1.08-12.14-.56-.91-.41-1.73-.98-2.44-1.67-1.12-.94-1.27-2.6-.33-3.72.1-.12.2-.22.32-.32,1.17-1.2,2.68-2.02,4.33-2.35,1.63-.38,3.29-.57,4.15-.71,3.29.1,5.76.39,8.09,1.67.76.42,1.45.95,2.05,1.59,1.02,1,1.03,2.64.03,3.66,0,0-.01.01-.02.02-1.08,1.18-2.48,2.02-4.04,2.4"/>
      <path id="Path_6423" data-name="Path 6423" class="cls-1" d="m337.08,37.04c-1.05-2.1,2.77-3.69,2.86-6.04.05-1.34-1.11-2.84-.25-3.86.27-.28.6-.48.97-.61,2.79-1.2,5.77-2.42,8.76-1.92-.28-.89.06-1.85.82-2.38.76-.5,1.65-.75,2.56-.72,2.58.11,5.11.75,7.43,1.87.95-1.85,3.31-2.37,5.36-2.69,1.37-.31,2.8-.33,4.18-.06,1.41.3,2.49,1.44,2.71,2.86.07,1.04-.48,2.19.08,3.08.73,1.15,2.46.71,3.79.95,1.58.42,2.8,1.66,3.19,3.24.36,1.56.44,3.17.23,4.75"/>
      <path id="Path_6424" data-name="Path 6424" class="cls-1" d="m349.63,24.58c2.15.5,4.33.83,6.53.99,1.92.2,2.8.93,4.59,1.65.87.28,1.79.37,2.7.26l9.77-.49"/>
      <line id="Line_250" data-name="Line 250" class="cls-1" x1="337.07" y1="36.82" x2="349.08" y2="363.44"/>
      <line id="Line_251" data-name="Line 251" class="cls-1" x1="379.82" y1="35.13" x2="370.06" y2="363.75"/>
      <path id="Path_6425" data-name="Path 6425" class="cls-1" d="m376.27,139.23c-3.33,22.54-6.67,45.12-11.81,67.31-4.96,21.42-11.59,42.4-18.21,63.36"/>
      <g class="cls-6">
        <path id="Path_6426" data-name="Path 6426" class="cls-1" d="m372.45,27.51c-3.33,22.54-6.67,45.12-11.81,67.31-4.96,21.42-11.59,42.4-18.21,63.36"/>
      </g>
      <path id="Path_6427" data-name="Path 6427" class="cls-1" d="m357.73,233.63c.9,2.97,3.7,4.95,5.16,7.69.94,2.11,1.54,4.36,1.76,6.66,1.36,8.17,3.99,16.07,7.8,23.42"/>
    </g>
    <path id="paper" class="cls-4" d="m184.8,360.23c-50.58-16.05-104.92-15.8-155.34.73C19.64,248.35,10,136.36.53,24.99,68.63-7.38,147.63-7.67,215.98,24.17c-10.18,111.3-20.57,223.32-31.18,336.06Z"/>
  </g>
</svg>