<?xml version="1.0" encoding="UTF-8"?>
<svg id="Layer_1" data-name="Layer 1" xmlns="http://www.w3.org/2000/svg" xmlns:xlink="http://www.w3.org/1999/xlink" viewBox="0 0 327.38 528.21">
  <defs>
    <style>
      .cls-1, .cls-2 {
        stroke-width: 0px;
      }

      .cls-1, .cls-3, .cls-4, .cls-5 {
        fill: none;
      }

      .cls-2 {
        fill: #fff;
      }

      .cls-3 {
        stroke-dasharray: 0 0 11.91 11.91;
      }

      .cls-3, .cls-4, .cls-5 {
        stroke: #fff;
        stroke-linecap: square;
        stroke-miterlimit: 10;
      }

      .cls-4 {
        stroke-dasharray: 0 0 13.96 13.96;
      }

      .cls-6 {
        clip-path: url(#clippath);
      }
    </style>
    <clipPath id="clippath">
      <rect class="cls-1" x="282.85" y="354.68" width="44.53" height="172.96"/>
    </clipPath>
  </defs>
  <line id="Line_238" data-name="Line 238" class="cls-5" x1="161.24" y1="297.48" x2="167.24" y2="297.48"/>
  <line id="Line_239" data-name="Line 239" class="cls-3" x1="179.15" y1="297.48" x2="244.65" y2="297.48"/>
  <line id="Line_240" data-name="Line 240" class="cls-5" x1="250.61" y1="297.48" x2="256.61" y2="297.48"/>
  <line id="Line_241" data-name="Line 241" class="cls-5" x1="168.02" y1="23.2" x2="174.02" y2="23.2"/>
  <line id="Line_242" data-name="Line 242" class="cls-4" x1="187.98" y1="23.2" x2="236.84" y2="23.2"/>
  <line id="Line_243" data-name="Line 243" class="cls-5" x1="243.82" y1="23.2" x2="249.82" y2="23.2"/>
  <g>
    <path id="Path_5616" data-name="Path 5616" class="cls-5" d="m.5,297.2c40.14-27.28,92.88-27.28,133.02,0V28.87C93.38,1.59,40.64,1.59.5,28.87v268.33Z"/>
    <g class="cls-6">
      <path id="Path_5617" data-name="Path 5617" class="cls-2" d="m305.11,354.68c-12.28,0-22.27,5.44-22.27,12.12v148.73c0,6.68,9.99,12.11,22.27,12.11s22.27-5.43,22.27-12.11v-148.73c0-6.68-9.99-12.12-22.27-12.12m0,1c11.73,0,21.27,4.99,21.27,11.12s-9.54,11.11-21.27,11.11-21.27-4.99-21.27-11.12,9.54-11.12,21.27-11.12m21.27,159.85c0,6.13-9.54,11.11-21.27,11.11s-21.27-4.99-21.27-11.11v-145.14c2.82,4.93,11.29,8.52,21.27,8.52s18.45-3.59,21.27-8.52v145.14Z"/>
    </g>
    <path id="Path_5618" data-name="Path 5618" class="cls-2" d="m303.31,23.2c-12.28,0-22.27,5.44-22.27,12.12v252.97c0,6.68,9.99,12.12,22.27,12.12s22.27-5.43,22.27-12.12V35.31c0-6.68-9.99-12.12-22.27-12.12m0,1c11.73,0,21.27,4.99,21.27,11.12s-9.54,11.12-21.27,11.12-21.27-4.99-21.27-11.12,9.54-11.12,21.27-11.12m21.27,264.09c0,6.13-9.54,11.12-21.27,11.12s-21.27-4.99-21.27-11.12V38.91c2.82,4.93,11.29,8.52,21.27,8.52s18.45-3.59,21.27-8.52v249.37Z"/>
  </g>
</svg>