<?xml version="1.0" encoding="UTF-8"?>
<svg id="Layer_1" data-name="Layer 1" xmlns="http://www.w3.org/2000/svg" viewBox="0 0 327.38 519.73">
  <defs>
    <style>
      .cls-1 {
        fill: #fff;
        stroke-width: 0px;
      }

      .cls-2 {
        stroke-dasharray: 0 0 11.91 11.91;
      }

      .cls-2, .cls-3, .cls-4 {
        fill: none;
        stroke: #fff;
        stroke-linecap: square;
        stroke-miterlimit: 10;
      }

      .cls-3 {
        stroke-dasharray: 0 0 13.96 13.96;
      }
    </style>
  </defs>
  <g id="cigarette_paper">
    <g id="dash_2">
      <line id="Line_238" data-name="Line 238" class="cls-4" x1="161.24" y1="289.57" x2="167.24" y2="289.57"/>
      <line id="Line_239" data-name="Line 239" class="cls-2" x1="179.15" y1="289.57" x2="244.65" y2="289.57"/>
      <line id="Line_240" data-name="Line 240" class="cls-4" x1="250.61" y1="289.57" x2="256.61" y2="289.57"/>
    </g>
    <g id="dash_1">
      <line id="Line_241" data-name="Line 241" class="cls-4" x1="168.02" y1="15.29" x2="174.02" y2="15.29"/>
      <line id="Line_242" data-name="Line 242" class="cls-3" x1="187.98" y1="15.29" x2="236.84" y2="15.29"/>
      <line id="Line_243" data-name="Line 243" class="cls-4" x1="243.82" y1="15.29" x2="249.82" y2="15.29"/>
    </g>
    <path id="paper" class="cls-4" d="m.5,289.29c40.14-27.28,92.88-27.28,133.02,0V20.96C93.38-6.32,40.64-6.32.5,20.96v268.33Z"/>
    <g id="filter">
      <path id="Path_5617" data-name="Path 5617" class="cls-1" d="m305.11,346.77c-12.28,0-22.27,5.44-22.27,12.12v148.73c0,6.68,9.99,12.11,22.27,12.11s22.27-5.43,22.27-12.11v-148.73c0-6.68-9.99-12.12-22.27-12.12m0,1c11.73,0,21.27,4.99,21.27,11.12s-9.54,11.11-21.27,11.11-21.27-4.99-21.27-11.12,9.54-11.12,21.27-11.12m21.27,159.85c0,6.13-9.54,11.11-21.27,11.11s-21.27-4.99-21.27-11.11v-145.14c2.82,4.93,11.29,8.52,21.27,8.52s18.45-3.59,21.27-8.52v145.14Z"/>
    </g>
    <path id="roll" class="cls-1" d="m303.31,15.29c-12.28,0-22.27,5.44-22.27,12.12v252.97c0,6.68,9.99,12.12,22.27,12.12s22.27-5.43,22.27-12.12V27.4c0-6.68-9.99-12.12-22.27-12.12m0,1c11.73,0,21.27,4.99,21.27,11.12s-9.54,11.12-21.27,11.12-21.27-4.99-21.27-11.12,9.54-11.12,21.27-11.12m21.27,264.09c0,6.13-9.54,11.12-21.27,11.12s-21.27-4.99-21.27-11.12V31c2.82,4.93,11.29,8.52,21.27,8.52s18.45-3.59,21.27-8.52v249.37Z"/>
  </g>
</svg>