<?xml version="1.0" encoding="UTF-8"?>
<svg id="Layer_1" data-name="Layer 1" xmlns="http://www.w3.org/2000/svg" viewBox="0 0 124.98 108.23">
  <defs>
    <style>
      .cls-1 {
        fill: #fff;
        stroke-width: 0px;
      }
    </style>
  </defs>
  <path id="Path_6250" data-name="Path 6250" class="cls-1" d="m124.98,51.85c.05-.92-.9-1.88-1.39-2.82.02.01.04.03.05.05-.68-2.04-1.3-4.11-2.08-6.11-.32-.53-.82-.94-1.41-1.14-1.32-.56-3.18-.59-3.95-1.53-1.82-2.26-3.04-4.99-4.67-7.41-1.02-1.38-2.14-2.67-3.37-3.86-.4-.33-.85-.6-1.33-.81h-.48s-9.33.01-9.33.01c-.55-2.97-3.37-4.41-5.7-6.4-1.13-.96-1.63-2.63-2.48-3.94-1.56-2.41-1.58-2.4-4.28-1.44-.41.17-.86.17-1.27,0,.67-.42,1.31-.88,2.01-1.24.76-.39,1.57-.68,2.36-1.02-.95.22-1.89.47-2.86.62-.13.02-.34-.46-.52-.7-.58.48-1.37.84-1.7,1.45-.52,1.32-2.01,1.97-3.33,1.45-.03-.01-.05-.02-.08-.03.67-4.07,5.62-6.92,10.18-6.03l-4.55,2.58,6.12-2.24.23.52-1.83,1.95c1.14-.84,2.28-1.68,3.55-2.61.35,1.74.75,3.55,1.08,5.36.49,2.63,2.18,4.88,4.56,6.1l.07-.08c-2.86-2.23-4.57-5.63-4.67-9.25-.04-.69-.31-1.36-.34-2.04.07-.94-.64-1.76-1.58-1.83-.05,0-.11,0-.16,0-2.24-.06-4.48,0-6.71.18-3.14.28-6.37.86-9.14-1.07-2.61-1.82-4.88-1.4-7.25.29-.69.43-1.41.81-2.16,1.14l.22-.67c-.92-1.05-1.65-2.5-2.81-3.05-1.95-.86-3.62-2.26-4.82-4.03-1.75-2.62-1.89-2.61-4.72-1.31-1.8.95-3.88,1.19-5.85.67-2.44-.71-3.24-.44-4.86,1.65-2.92,1.16-3.64,3.77-4,6.58-2.51-1.31-2.79-1.15-3.24,1.32-.21.58-.45,1.15-.73,1.7-.46,1.25-.82,2.54-1.07,3.86-.02,1.14.07,2.28.28,3.41-1.51-1.62-2.73-2.87-3.89-4.16q-3.87-4.34-9.21-2.11c-.93.39-1.83.84-2.77,1.19-.66.2-1.32.36-2,.48-.62.14-1.24.28-1.87.42.17.69.41,1.35.74,1.98,1.26,1.87.99,3.34-.94,4.6-.67.43-1.34.85-1.73,1.1l2.54,7.93c-2.26,1.08-3.97,2.03-5.77,2.74-1.68.62-3.4,1.15-5.14,1.57-1.23.19-2.44.45-3.64.78-1.64.65-1.64,1.35-.47,2.62,2.78,2.95,4.57,6.68,5.14,10.69.14,1.06.35,2.11.63,3.14.97,3.47,3.16,5.67,6.82,6.17,3.05.51,5.85,2.01,7.96,4.27-2.48-.3-4.83-.36-6.85,1.35l.11.14c3.47-1.68,6.87-1.04,10.39.04,1.83.4,3.7.58,5.57.53,1.49.08,2.98.01,4.68.01l-1.04.93c1.06-.11,2.11-.26,3.17-.33,1.41-.26,2.86.19,3.87,1.21.92.95,2.55,1.22,3.87,1.76,1.54.63,3.09,1.24,4.77,1.9-.5.63-.78,1-1.07,1.36l.86-.3c.07.09.14.18.22.27l-4.4,4.34,4.15-3.33c-1.22,5.12-3.01,6.49-7.39,5.65l3.02-2.1c-2.02,1.36-4.55,1.72-6.86.96l3.07-1.23-7.89-.1-.73.59c3.09.98,6.22,1.79,9.39,2.44,2.99.36,6.01.56,9.02.58l5.53,7.47.35-.23-4.78-6.42c5.68.59,9.83,3.55,10.22,10.28.66-1.82.1-3.79-1.44-6.36-.64-1.28-1.17-2.62-1.58-4l.57-.25,1.39,2.08c-.14-.48-.29-.95-.4-1.43-.03-.16.08-.35.16-.69.49.26,1.08.37,1.31.72,2.2,3.35,5.35,6.3,4.53,10.95-.02,1,.12,1.99.42,2.94.09.3.2.59.35.87.64,1.62.26,4.9-.85,5.44-1.67.82-3.08-.19-4.43-1.08-1.56-.9-3.17-1.72-4.67-2.71-4.64-3.08-9.44-3.55-14.47-1.06-3.16,1.57-5.67.98-7.82-1.87-.17-.18-.36-.34-.57-.48l-.19.19c.27.49.43,1.13.84,1.45,1.61,1.26,1.6,2.89,1.13,4.59-.7,2.55-1.42,5.1-2.14,7.64.25-.04.5-.07.75-.09.9-3.42,1.8-6.83,2.7-10.23l5.31.62c-2.52,2.78-3.61,6.15-4.47,9.63.29.03.58.08.86.13,1.07-3.02,2.6-5.86,4.54-8.41,3.91-5.1,7.22-5.12,12.68-1.98,1.14.66,2.15,1.55,3.29,2.19,1.4.83,2.87,1.53,4.4,2.1,2.25.77,3.23.29,3.66-2.06.14-1.58.06-3.17-.24-4.73-.1-.92-.74-1.9-.55-2.72.8-3.6-.85-6.35-2.77-9.06-.32-.44-.6-.91-.9-1.36l.44-.33c1.36,1.28,2.69,2.6,4.1,3.84,1.5,1.32,3.06,2.56,4.59,3.84l.16-.18c-1.91-1.81-3.84-3.61-5.74-5.45-2.1-2.04-4.29-3.83-7.31-4.43-1.08-.21-2.39-.68-2.38-2.29-2.02.29-3.53-1.1-5.38-5.43l10.39-.75.21.6-1.26,1.57c3.71-2.4,6.6-.4,9.4,1.36,2.28,1.43,4.35,3.2,6.54,4.78.42.25.87.45,1.35.58-1.47-1.13-2.96-2.25-4.41-3.41-.75-.6-1.43-1.3-2-2.08,3.01.53,5.41-.76,7.86-2.04,1.92-1.01,3.6.4,5.36.92l-2.07-1.49c1.44-.73,3.39-.65,5.72.49,2.01.99,3.94,2.15,5.9,3.23l.1-.13c-3.16-2.8-7.16-4.48-11.37-4.77,2.36-3.8,7.85-6.65,13.06-4.18.4.16.82.29,1.24.39l.1-.13c-3.12-2.12-7.17-2.28-10.44-.41l1.26-1.71c2.17-1.24,4.32-2.51,6.52-3.7,3.14-1.7,3.63-1.51,5.64,1.41.74,1.01,1.59,1.94,2.55,2.75.42.29.95.36,1.43.2,1.12-.5,2.15-1.18,3.24-1.81l-5.24-7.2.38-.67c.74-.05,1.48,0,2.2.16,2.43.86,4.81,1.83,7.2,2.79,2.93,1.18,5.89,2.19,9.32,1.55-.2.59-.33.97-.46,1.36l1.78-2.25s-.04.01-.06.02c.48-2.44.83-4.9,1.05-7.37m-4.46-9.3c.3.1.45.9.51,1.4.11,1.97,1.03,3.81,2.55,5.08.33.65.58,1.33.74,2.04.01.77-.06,1.54-.21,2.29-.73-.12-1.46-.22-2.19-.35-.23-.07-.46-.16-.68-.27l.02.04-5.71-3.78c.64-.26,1.31-.5,1.52-.96.29-.63-.24-1.63-.33-2.47-.14-1.33-.21-2.66-.31-3.99,1.37.31,2.77.54,4.09.97m1.51,11.56c-.06.15-.13.29-.19.44-1.94-.63-4.19-.83-5.75-1.98-3.4-2.49-6.99-2.85-10.93-2.19,2.05-.95,4.32-1.33,6.56-1.08,3.4.43,6.66,1.61,9.54,3.48l.76,1.33m-6.69-12.8c.46,2.14.81,4.3,1.24,6.69-.7.08-1.41.22-2.12.24-3.85.06-7.65.29-11.21,2.06-.66.12-1.34-.05-1.86-.46-.66-.62-1.24-1.31-1.75-2.06,6.02.29,10.47-1.65,13.04-7.09.29-.61,1.16-.95,1.76-1.42.36.65.66,1.33.89,2.04m-2.12-3.94c.25.28.46.59.53.67-.92,1.47-1.79,2.81-2.62,4.19-2.54,4.04-7.5,5.83-12.03,4.35,5.96-1.71,12.18-2.32,13.54-9.61.21.12.4.25.58.41m-2.75,1.18c-3.19,4.5-8.49,7.03-14,6.67,3.19-2.53,5.71-5.63,10.12-5.42.83.04,1.69-.62,2.54-.95-.02.02-.04.04-.05.06.46-.12.93-.24,1.4-.36m1.07.35c-1.04,2.79-3.49,4.31-6.23,5.34l6.23-5.34m.11-4.23c.22,2.24-1.56,2.96-2.53,4.17l-9.12,1.82c-.53-1.58-.1-2.38,1.8-2.58.69-.07,1.38-.06,2.07,0,2.35.19,4.68-.63,6.39-2.25.41-.35.82-.7,1.39-1.17m-11.86,3.04c.92-2.75,3.89-4.23,6.63-3.32.14.05.28.1.42.16-2.72-.14-5.34,1.03-7.05,3.16m9.96-2.42c-2.63,2.28-3.38,2.46-8.38,2.1.93-1.95,2.36-2.31,8.38-2.1m-.62-3.86c-3.02-1.04-5.86-1.53-8.61.14,1.16-.22,2.3-.53,3.47-.65,1.87-.31,3.78.23,5.21,1.48h-9.93l1.31-.89c-2.11.84-2.07-1.02-2.68-2.08,3.12-2.08,8.48-1.19,11.24,1.99m-11.57-1.05c1.6,1.47.16,2.83-.52,4.24-.45.4-.9.81-1.36,1.22l.79.41c-.05-.1-.1-.21-.15-.31l.75-1.32c2.97-1.43,6.02-2.46,9.38-1.87,1.14.2,2.25.56,3.37.85l-.1.61c-.79-.05-1.58-.17-2.35-.36-2.6-.89-4.73-.12-6.89,1.4-1.13.59-2.35,1-3.6,1.21l1.83.95c1.19,3.9.93,4.69-2.95,7.29l-6.86-6.58c2.09-1.15,3.96-1.81,5.31-3.04,1.38-1.26,2.24-3.07,3.36-4.7m-6.2-7.37c4.31,1.9,5.66,4.74,3.69,7.52.12.36.44.82.32,1.06-.99,1.78-2.69,3.05-4.67,3.49-.11-.17-.19-.35-.26-.54-.25.05-.63.22-.71.12-.83-.96-1.07-3.82-.25-4.71,1.88-1.78,2.61-4.46,1.88-6.94m-2.29-1.81l-1,5.52-.81-.14c.34-1.83.68-3.65,1.03-5.48l.78.1Zm-5.75,3.92c2.37.21,3.54,3.83,1.29,8.33-1.52-.42-.97-1.56-.69-2.39.83-1.95.6-4.19-.6-5.94m-.42-3.28l.72-.33,1.48,3.15c-1.54-.56-2.55-1.37-2.2-2.82m3.75,7.67c2.38,2.98,2.8,4.98,1.49,6.64-3.34-2.64-3.05-1.37-1.49-6.64m-3.03-11.27l2.87-1.55c1.72,2.62,1.73,3.29.21,9.02l-3.96-6.06.9-1.41-3.58,3.98c-.11-2.08,1.49-3.86,3.57-3.97m-1.77,4.84c1.99,2.88,2.68,5.96,1.02,9.35l-7.52-2.19c.28-4.01,2.82-6.06,6.5-7.16m-22.54,5.57l3.49-4.89c.49,1.24.91,2.51,1.24,3.8-.05.57-.39,1.07-.9,1.32-3.49.88-7,1.64-10.67,2.48.19-1.06.53-2.09,1.02-3.05,1.67-2.51,3.55-4.89,5.35-7.31,3.09-.42,5.52-2.13,7.94-3.94,1.46-.94,3-1.77,4.59-2.48l.48.74c-1.43,1.43-2.97,2.74-4.61,3.94-3.15,2.09-5.8,4.85-7.76,8.09-.23.39-.3.86-.18,1.31m12.43-12.17c.54,4.44-.38,6.49-2.59,6.8.85-2.22,1.72-4.51,2.59-6.8m-3.16,5.2c.36-1.18.73-2.36,1.09-3.53l.77.28-1.14,3.48-.72-.23m-.11-1.7c-.35,1.3-.71,2.6-1.06,3.91l-.54-.15c-.05-1.42-.56-2.97,1.59-3.75m1.37,3.91c2.13-.47,4.28-.87,6.42-1.3l.37.32c-2.01,2.19-4.01,4.4-6.05,6.56-.27.24-.62.36-.98.32-1.59-.23-3.16-.53-5.06-.86,1.46-2.34,2.65-4.46,5.3-5.05m6.83-.36l.44.35-3.58,4.45-.39-.32,3.54-4.48m-1.22-14.63c3.22,2,6.6,1.52,10.06.98,1.99-.21,3.99-.32,5.99-.33.01.26.03.52.04.78-.68.04-1.37.03-2.06-.02-4.11-.56-7.69.59-9.81,4.16-1.63,2.75-4.25,3.41-6.68,4.65l-.72-.33c.6-1.75,1.2-3.5,1.79-5.23l-5.03,1.2c.89-1.79,1.58-3.37,2.44-4.85,1.14-1.97,2.07-2.22,3.98-1.03m-5.17,1.63q-.2,2.01-6.54,6.66c.84-1.21,1.7-2.4,2.5-3.63.47-.73.82-1.53,1.23-2.3l2.81-.72m-4.87.42c.64-.59,1.56-1.12,2.01.32h.02c-1.6,1.78-3.24,3.52-4.77,5.35-.63.87-1.19,1.79-1.68,2.74l-.59-.25c.37-1.38.73-2.76,1.1-4.15-.46.9-.96,1.78-1.36,2.71-.48,1.09-.88,2.21-1.31,3.32-3.08,2.02-4.81,5.14-6.64,8.29-1.78-4.33-3.34-8.59-.18-12.91.32-.53.78-.95,1.33-1.22,3.3-1.12,6.63-2.15,9.83-3.17-.54.95-1.14,2.01-1.74,3.07,1.32-1.37,2.59-2.8,3.98-4.09m-17.47,23.52c-.17.36-.98.82-1.21.69-2.2-1.03-3.15-3.65-2.12-5.85.2-.42.46-.8.77-1.14l2.41,4.9c-.39-1.17-.76-2.34-1.18-3.49-.59-1.45-.14-3.12,1.1-4.08-1.01,3.16,3.14,5.46,1.35,8.94l-1.33-1.42c.08.49.37,1.07.2,1.45m1.28-18.19c.1,2.34-.41,4.67-1.46,6.76l-.66-.03c0-3.77-.19-7.55.07-11.3.26-2.28,1.49-4.35,3.39-5.65-.47,1.07-.83,2.19-1.06,3.33-.26,2.29-.35,4.59-.27,6.89m-.58,11.76c-.2-1.69-.06-3.39.39-5.03,2.09,2.99,2.22,6.33,2.31,9.67,0,.21-.53.42-.78.61-.79-1.69-1.44-3.44-1.92-5.24m12.35-16.23c.64-1.82,1.14-3.24,1.75-4.97,1.02,2.34-.51,3.38-1.75,4.97m.57-5.57c.95,1.81-.29,4.77-3.09,6.63,1.02-2.18,2.1-4.5,3.09-6.63m-2.48-2.7c1.85,1.71,1.89,4.15,0,6.65V3.52Zm-3.78,10.07c-.18.09-.58-.27-.89-.43,2.8-1.54,4.27-5.08,3.58-8.67-.2-1.02-.41-2.04-.67-3.36,2.79,3.35,1.46,10.67-2.01,12.45m1.68-9.81c1.13,2.38.77,5.19-.92,7.21-.56.74-1.15,1.47-1.73,2.21l-1.2,1.3-.51-.23c2.24-3.19,4.37-6.43,4.36-10.49m-.82-2.33c.43,4.21-.42,7.89-3.31,10.96,2.13-3.31-.24-7.93,3.31-10.96m-5.61,16.86l-.66-.12c-.87-5.53-.74-10.8,3.6-14.95l.81.21-3.75,14.87m-9.85-7.15c.14-1.65.21-3.31.4-4.95.04-.37.47-.71.75-1.03.6-.66,1.21-1.3,1.83-1.95,1.8-1.28,3.58-1.89,5.88-.97,1.06.42,2.53-.15,3.81-.26l.45.56c-.48.27-.99.51-1.44.83-5.31,3.7-6.89,8.82-5.86,15.04.45,2.72.71,5.52-1.28,8.07-2.12-5.01-5.01-9.66-4.53-15.32m-4.8,2.36c.41-.81.75-1.66,1.02-2.53.32-1.54.92-1.89,2.1-.82.64.56,1.06,1.34,1.17,2.19.11,3.79,1.15,7.49,3.02,10.79,1.09,1.91,1.02,3.96.69,6.2-.37,2.53.15,5.2.29,7.8-1.29.4-2.6.81-4.26,1.33-.1-1.32-.27-2.53-.26-3.73.05-4.48-1-8.9-3.05-12.88-.8-1.89-1.3-3.89-1.5-5.93-.12-.75.47-1.62.78-2.42m2.9,20.18c-.42-1.09-.86-2.17-1.25-3.26-1.24-3.63-4.08-6.48-7.7-7.73-3.79-1.44-7.44-3.26-11.15-4.91.03-.07.07-.15.1-.22,3.36.56,6.84.74,10.05,1.78,5.22,1.69,8.88,5.13,9.64,10.94.07.56.2,1.11.3,1.67.15.57.15,1.16.01,1.73m-12.46-20.66c.67-.14,1.37.05,1.89.5,2.72,2.95,5.35,5.99,8,9.01.22.31.4.64.54.98l-.14.18c-1.13-.97-2.22-1.99-3.39-2.91-2.48-1.95-5.45-2.4-8.46-2.81-2.28-.31-4.53-.91-6.8-1.38l-.11-.62c2.82-1,5.62-2.06,8.47-2.95m-12.3,10.72c1.6-.79,3.23-1.93,3.42-4.23l.83.1c-.2-.51-.39-1.03-.68-1.78,1.76.86,3.31,1.66,4.9,2.36,2.41,1.06,4.84,2.06,7.27,3.07,2.26.94,4.36,2.08,5.49,4.48-3.84-3.22-8.43-4.72-13.12-6.07-.31-.09-.61-.21-.9-.35.91.52,1.83,1.03,2.78,1.49,3.03,1.48,6.28,2.57,9.16,4.29,3.27,2.15,5.24,5.8,5.24,9.71-4.43-3.76-9.53-4.12-14.94-3.16-1.18.21-2.38.25-3.57.13-2.37-.26-3.28-1.32-3.88-3.67-.54-2.1-1.28-4.15-1.99-6.38m24.54,15.29c-5.95-.54-11.37-3.38-17.29-4.17,8.46-2.39,16.05-.44,17.29,4.17m-20.86-5.11c2.67,1.26,5.69,1.8,8.56,2.62.92.26,1.86.42,2.79.63-.04.24-.08.49-.11.73-3.17-.36-6.37-.57-9.51-1.11-3.11-.53-6.16-1.38-9.09-2.06,2.01-2.02,4.38-2.22,7.37-.82m4.4,7.44c-6.33,1.89-11.28-1.33-16.56-4.37,6.32-.9,10.82,4.07,16.56,4.37m-15.65,7.69c-1.27-4.04-2.64-7.95-5.94-11.02,2.19-1.08,4.14-.54,6.04.34,2.27,1.06,4.47,2.3,6.78,3.25,2.72,1.04,5.68,1.28,8.54.69,2.24-.4,2.78.29,2.38,2.72-.36,2.19-.62,4.4-.93,6.68-1.95.28-3.91.47-5.88.55-2.75.08-5.51-.11-8.23-.55-1.27-.43-2.29-1.4-2.76-2.66m8.45,6.82c-2.38-.8-4.62-1.99-6.93-3l.27-.39c3.86,0,7.73.09,11.59-.03,2.66-.08,5.14-.03,6.81,2.78-4,.24-7.81,1.98-11.74.65m11.87.06c1.32-.06,2.68.79,4.02,1.23-5.24.5-10.41,1.68-14.84-.16,3.25-.34,7.03-.89,10.82-1.07m4.61,8.05c-1.67,1.08-3.75,1.32-5.63.65-1.67-.55-3.24-1.37-4.64-2.43-2.41-1.94-5.28-3.22-8.34-3.73-2.9-.39-5.13-2.73-5.39-5.65.34.18.66.38.97.61,5.33,4.71,11.68,5.42,18.42,4.9,1.81-.03,3.61.16,5.37.56,1.64.3,2.93,1.56,3.28,3.19-1.51.7-2.84,1.18-4.04,1.89m10.66,3.09c-2.35-1.78-5.1-3.32-6.65-6.28-.94-1.78-3.12-2.93-4.84-4.24-1.34-1.02-2.91-1.74-4.22-2.79-2.08-1.5-2.89-4.21-1.98-6.61.99-2.67.36-5.67-1.61-7.73l-.66,1.49-13.11-4.7c5.41-1.52,9.64,1.64,14.26,2.07-.17.39-.32.74-.49,1.12,1.02-.26,2.06-.45,3.1-.56,2.89-.08,5.79-.21,8.67-.07,3.14.15,4.09,1.06,4.67,4.14.8,4.2,1.4,8.44,2.26,12.62.97,4.73,2.17,9.36,6.8,12.11,1.07.78,1.93,1.81,2.51,3-2.94-1.14-6.3-1.75-8.72-3.58m-.99-20.18c.06-2.4,1.53-3.56,3.32-4.8-1.16,1.68-2.17,3.14-3.32,4.8m7.14,32.21c.8-2.03,1.55-3.91,2.29-5.79-.06,2.2-.12,4.39-2.29,5.79m6.16.05l-2.01-3.71c.19.45.33.92.43,1.39.1.8.38,1.77.04,2.37-.22.39-1.38.33-2.12.35-.41-.05-.81-.18-1.18-.36l1.8-4.39,1.02.48-.41-1.57c1.38,1.6,3.69,2.83,2.44,5.44m35.06-14.56s.02-.03.04-.05l-3.48,2.77c-1.96,1.57-3.85,3.24-5.91,4.67-2.35,1.63-4.96,2.47-7.91,1.42l1.47-.61-4.28-.34c4.14,0,8.16-1.44,11.35-4.09-3.68,2.14-7.51,3.72-11.87,3.2l7.82-2.54-7.04,1.67.61-.91-3.09.51,4.96-3.53c-.14-.18-.43-.42-.38-.52.23-.47.48-.93.77-1.37-.44.44-.92.85-1.33,1.32-2.91,3.31-6.6,4.56-10.94,4.44-1.93-.04-3.86.15-5.74.57-1.34.47-2.81-.2-3.34-1.52l5.85-1.8-5.03,1.03-.12-.46,1.74-1.72c-.19.01-.37.05-.54.11q-3.11,1.59-5.86-.95c.8-4.58,1.62-9.22,2.34-13.36-2.48,2.84-1.32,7.2-2.83,10.99-.34-1.34-.56-2.71-.67-4.09.04-5.31,1.73-9.94,5.97-13.42-1.08.88-2.44,1.57-3.2,2.68-3.02,4.22-4.01,9.55-2.71,14.57.15.6.27,1.2.44,1.94-1.42-.98-2.28-6.46-1.92-10.02.28-3.55,1.9-6.86,4.53-9.26-2.23,1.09-3.81,3.18-4.25,5.63-.6,2.98-.78,6.04-1.17,9.38-1.01-3.51-1.16-6.74.27-9.97.33-.74.65-1.48.98-2.22-2.02,1.99-2.44,4.53-2.52,7.33-.7-5.79-1.08-6.98,5.94-13.11l-2.9,5.19c1.95-1.86,3.3-4.26,3.87-6.9l4.34,1.15c-1.48,1.14-2.92,2.26-4.37,3.38l5.39-2.79.32.57-3.09,2.51,2.61-1.19c-.09.42-.16.72-.22,1.03,1.79-2.54,3.96-1.89,6.32-1.13,1.48.31,2.98.47,4.49.46l-.72,1.31,3.76-2.42c-.19.88-.28,1.32-.37,1.75.57-.4,1.11-.83,1.62-1.29,1.86-1.9,3.77-1.36,5.72-.19.7.42,1.4.85,2.12,1.24,2.08,1.11,3.29.67,3.96-1.61.45-1.55.63-3.17.93-4.78,2.07.64,2.85,2.6,1.98,4.82-1.39,3.52-.71,4.9,2.96,6.22.88.36,1.74.77,2.58,1.23l-7.5,3.35,2.29-.33,4.49-1.84c.05.14.11.27.16.41l-1.36,1.88c.79-.61,1.61-1.17,2.46-1.68.49-.16,1.03-.01,1.37.37l-1.45,1.03,1,.61,1.17-.9,4.08,3.36-4.43,2.46c1.5-.94,3.29-1.31,5.05-1.02l-7.56,5.37m17.98-1.42l-2.54,1.76c-.86-.63-1.63-1.39-2.28-2.24-1.23-2.28-3.27-3.58-5.24-5.06-1.9-1.43-3.53-3.22-5.39-4.7-1.5-1.19-3.15-2.19-4.76-3.24-.83-.42-1.64-.89-2.42-1.4-1.04-.71-1.31-2.13-.6-3.18.03-.05.07-.1.1-.14,1.64-2.73.55-5.55-2.61-6.74-.3,1.68-.57,3.32-.89,4.96-.47,2.47-1.61,3.1-3.64,1.62-3.59-2.61-7.18-2.44-11.06-.84-3.74,1.54-7.13-.13-10.75-1.58l3.86-1.67-.1-.3-4.06,1.26-.28-.39c1.15-1.76,2.29-3.52,3.44-5.27-1.02,1-1.93,2.11-2.7,3.3-.55,1.49-2.17,2.3-3.69,1.84-3.28-.86-6.48-.5-9.74.02-.62.1-1.35-.45-2.03-.69.35-.64.79-1.22,1.31-1.74.91-.6,1.86-1.13,2.85-1.6v.02c2.1-.89,4.14-1.9,6.13-3.03,3.55-2.26,7.2-4.28,11.44-4.56,2.53,0,5.05.18,7.55.54l-9.14,3.83,11.35-3.46c.07.2.14.41.22.61l-1.01.79c.22.02.36.07.46.03,3.68-1.42,7.19-.57,10.62.86,2.87,1.31,5.36,3.32,7.25,5.85,1.98,2.36,4.18,4.52,6.58,6.46,3.57,2.96,6.41,6.21,7.71,10.88.69,2.49,2.57,4.66,4.04,7.21m5.66-5.19c-2.9-1.12-5.9-1.94-8.81-3.04-.57-.22-.9-1.09-1.41-1.75,1.69-1.09,3.77-1.41,5.71-.87,1.76.45,3.51.9,5.27,1.35-1.92-1.39-5.18-2.15-8.92-2.08.95-.97,3.73-1.52,5.82-.94,1.19.37,2.33.88,3.4,1.53,2.67,1.67,5.67,2.71,8.8,3.05-.84.28-1.72.42-2.6.4-1.57-.42-3.11-.92-4.63-1.5-.63-.21-1.29-.35-1.93-.52,3.1,1.78,6.22,3.47,10.13,1.72v3.88c-3.81,1.33-7.3.12-10.83-1.24"/>
  <path id="Path_6251" data-name="Path 6251" class="cls-1" d="m98.63,66.72c2.3.95,4.66,1.75,7.06,2.42,3.88.86,7.35.15,9.69-3.53.51-.63,1.1-1.19,1.74-1.68-2.41,3.36-4.31,7.13-9.1,8.01-2.65.49-5.12,1.93-7.67,3.27.92.11,2.09-.08,2.69.42.46.38.2,1.62-.05,2.56,5.8,5.37,10.95,11.24,11.74,19.69-.27.14-.39.25-.49.24-3.64-.59-7.29-1.17-10.92-1.81-1.24-.18-2.47-.49-3.65-.92-4.77-2.01-9.92-2.98-15.1-2.84-3.66.26-7.32-.54-10.55-2.31-.31-.2-.61-.43-.89-.67.06-.06.11-.12.16-.18,4.71,2.74,9.85,2.92,15.19,2.54l-.57-.95,2.68.71c.98.32,1.95.66,2.94.94.08.02.27-.34.41-.52l2.21.78c-.27-.65-.48-1.17-.7-1.69,2.15,1.43,4.13,3.47,6.5,4.14,3.46.99,7.21.99,10.8,1.41l-2.02-1.7,1.6.37c-.23-.75-.43-1.44-.64-2.13l.37.94.79-.64c-1.37-2.55-2.74-5.09-4.11-7.64l.25-.21-6.29-6.61-2.25,1.79,4.83,2.26-5.34-1.5c-.03.13-.06.26-.09.39l5.75,3.36c-2.69-.99-5.15-2.6-7.91-3.39l-.21.53,3.24,1.73-9.56-1.94c.5.88.7,1.25.91,1.61-1.89-1.28-3.75-2.68-6.31-1.89l.81.77-.72.91-1.06-.87-.45.19c.29,1.68.57,3.36.86,5.03-.48-1.19-.83-2.43-1.05-3.7-.11-1.58-.59-2.53-2.2-2.98-.95-.38-1.85-.86-2.68-1.45l-.03.04c2.82.49,5.64,1,8.47,1.46,1.55.25,3.13.32,4.67.65,4.24.85,8.51-1.38,10.24-5.34-1.49.52-3.03.88-4.6,1.07-1.67-.11-3.33-.39-4.95-.82,2.22.56,4.44.95,6.49-.11l-4.08-1.4.1-.13,5.06,1.02.07-.33-1.98-.78c4.33-2.65,8.98-3.43,12.92-5.76-4.83.99-9.12-.22-13.15-2.72l.1-.14Z"/>
  <path id="Path_6252" data-name="Path 6252" class="cls-1" d="m34.94,94.5c-1.08-.48-2.14-1.04-3.25-1.42-3.95-1.37-6.73-3.89-7.69-8.03-.96-4.04-3.05-7.73-6.01-10.65-1.7-1.92-3.18-4.03-4.41-6.28-.72-.93-.55-2.26.38-2.98.18-.14.37-.24.58-.32l.11.13c-.86.8-.7,1.48.25,2.04.79.46,1.59.9,2.39,1.35l-3.32-.9-.35.38c1.9,2.45,3.63,5.07,5.74,7.32,2.49,2.5,4.23,5.66,5.02,9.1.71,4.06,3.71,7.34,7.69,8.41,1.07.46,2.09,1.01,3.06,1.65l-.18.19"/>
  <path id="Path_6253" data-name="Path 6253" class="cls-1" d="m106.84,28.21h-.48s-7.83-5.62-7.83-5.62l.07-.08,8.25,5.7"/>
  <path id="Path_6254" data-name="Path 6254" class="cls-1" d="m61.48,82.64c3.4,2.64,4.76,7.14,3.38,11.22-.77,2.2-1.49,4.41-2.24,6.62-.11-1.71-.21-3.43-.32-5.14l.45-.05c.12.31.24.62.35.94,2.51-4.31,2.32-7.97-.57-11.9-.4-.54-.71-1.13-1.07-1.7"/>
  <path id="Path_6255" data-name="Path 6255" class="cls-1" d="m17.2,68.28c1.35.26,2.69.56,4.05.78,3.32.41,6.68-.14,9.7-1.58,1.08-.46,2.24-.73,3.36-1.09-4.87,2.55-9.87,4.39-15.47,2.65-.57-.22-1.11-.47-1.65-.76"/>
  <path id="Path_6256" data-name="Path 6256" class="cls-1" d="m62.63,62.08c1.19-4.59,2.36-9.18,3.6-13.76.25-.64.57-1.24.96-1.8l-4.56,15.56"/>
  <path id="Path_6257" data-name="Path 6257" class="cls-1" d="m58.11,60.14c-.21,2.89-1.96,5.45-4.59,6.68l4.59-6.68"/>
  <path id="Path_6258" data-name="Path 6258" class="cls-1" d="m80.87,70.18l-7.3,2.68,7.3-2.68"/>
</svg>