<?xml version="1.0" encoding="UTF-8"?>
<svg id="Layer_1" data-name="Layer 1" xmlns="http://www.w3.org/2000/svg" xmlns:xlink="http://www.w3.org/1999/xlink" viewBox="0 0 105 105">
  <defs>
    <style>
      .cls-1 {
        fill: none;
      }

      .cls-1, .cls-2 {
        stroke-width: 0px;
      }

      .cls-2 {
        fill: #fff;
      }

      .cls-3 {
        clip-path: url(#clippath);
      }
    </style>
    <clipPath id="clippath">
      <rect class="cls-1" x="8.95" y="9.43" width="87.11" height="86.12"/>
    </clipPath>
  </defs>
  <g id="Group_872" data-name="Group 872">
    <g class="cls-3">
      <g id="Group_297" data-name="Group 297">
        <path id="Path_2228" data-name="Path 2228" class="cls-2" d="m11.4,69.19c.05-.59.11-1.18.13-1.77,0-.13-.11-.36-.21-.39-1.04-.32-1.76-1.27-1.78-2.36-.2-1.29-.27-2.59-.5-3.87-.24-1.13-.09-2.3.41-3.33.06-.21.04-.43-.06-.63-.23-.47-.24-1.02-.02-1.49.2-.43.28-.91.23-1.38-.1-1.17.13-2.35.68-3.4.41-.71.34-1.59-.19-2.22-.61-.7-.65-1.73-.11-2.48.94-1.68,1.46-3.57,1.52-5.5.04-.68.13-1.36.22-2.04.1-.75.47-1.44,1.05-1.94.71-.67,1.09-1.62,1.02-2.59,0-.48.05-.97.13-1.45.14-.59.42-1.14.83-1.59.24-.29.42-.62.52-.99.35-1.68,1.28-3.18,2.62-4.24.49-.42.95-.87,1.37-1.36.47-.54,1.1-.92,1.8-1.06.98-.14,1.75-.9,1.89-1.88.23-1.17,1.03-2.15,2.12-2.61.91-.45,1.83-.85,2.76-1.26,1.07-.47,2.08-1.07,3-1.8.47-.39,1.06-.61,1.67-.61,1.94,0,3.79-.82,5.08-2.26.74-.85,1.89-1.22,2.99-.97,1.51.21,3.05-.08,4.38-.82.26-.12.52-.26.77-.39.69-.39,1.51-.45,2.25-.17,1.07.37,2.23.33,3.27-.11.51-.18,1-.39,1.51-.57.55-.19,1.15-.2,1.7-.04,1.68.53,3.48.53,5.15,0,1.03-.34,2.15-.21,3.08.34.63.32,1.24.68,1.83,1.08.62.4,1.34.64,2.07.69.67.05,1.32.25,1.91.58.78.41,1.61.71,2.47.89.66.21,1.3.46,1.92.77.59.28,1.19.53,1.81.74.69.16,1.33.5,1.85.99.22.25.46.47.73.65.32.22.68.37,1.06.45.55.08,1.06.33,1.45.73,1.1,1.02,2.37,1.84,3.76,2.41.93.4,1.74,1.02,2.37,1.81.72.9,1.49,1.76,2.31,2.58.75.78,1.37,1.66,1.86,2.63.25.49.55.96.88,1.4,1.36,1.67,2.31,3.63,2.79,5.73.08.56.12,1.12.13,1.69-.03.45.2.88.59,1.11.59.37,1,.96,1.17,1.63.08.28.15.56.24.83.16.53.19,1.09.07,1.63-.27,1.55-.51,3.11-.71,4.67-.11.91-.12,1.83-.18,2.74-.05.79-.12,1.57-.16,2.36-.06.61-.07,1.23-.03,1.85.08,1.1-.08,2.21-.47,3.25-.38,1.08-.67,2.19-1.09,3.25-.31.66-.67,1.3-1.08,1.9-.11.17-.23.32-.38.46-1.23,1.27-1.97,2.94-2.07,4.7-.09,1.23-.54,2.4-1.28,3.38-.67.98-1.22,2.03-1.64,3.13-.57,1.29-1.27,2.51-2.08,3.66-.39.61-.71,1.25-.97,1.93-.55,1.21-1.1,2.41-1.6,3.64-.31.78-.53,1.59-.79,2.39-.14.43-.24.86-.39,1.28-.24.72-.72,1.33-1.36,1.74-1.2.82-2.29,1.78-3.25,2.86-.33.35-.59.77-.77,1.22-.35,1.01-1.34,1.65-2.4,1.56-.59.01-1.18-.04-1.77-.08-.79-.06-1.56.25-2.07.85-.6.62-1.5.86-2.33.62-.79-.17-1.57-.42-2.35-.66-1.05-.42-2.25-.2-3.09.57-.83.72-1.98.93-3.01.57-.59-.17-1.17-.4-1.76-.58-.32-.11-.66-.18-1-.21-.49-.03-.95.2-1.22.61-.5.75-1.42,1.08-2.28.82-1.17-.18-2.29-.63-3.26-1.32-.26-.22-.64-.24-.93-.06-.18.08-.34.19-.49.33-.55.58-1.4.78-2.14.48-.5-.15-.99-.35-1.45-.59-.42-.25-.93-.31-1.4-.17-.62.16-1.28.16-1.9-.02-1.62-.39-3.25-.74-4.88-1.09-.35-.07-.71-.09-1.06-.06-.58.03-1.16-.08-1.68-.32-.8-.36-1.65-.62-2.51-.78-1.05-.23-1.98-.85-2.61-1.73-.12-.19-.27-.36-.44-.5-.21-.14-.47-.2-.72-.17-.53.17-1.11.03-1.5-.36-1.69-1.44-3.27-3.01-4.73-4.69-.86-1.01-1.61-2.11-2.23-3.29-.35-.6-.8-1.13-1.32-1.59-.53-.46-.95-1.02-1.23-1.66-.29-.67-.68-1.3-1.16-1.85-.74-.77-1.3-1.69-1.65-2.7-.16-.53-.43-1.02-.8-1.43-.65-.76-.98-1.74-.93-2.73m68.57,11.43c.04-.15.09-.3.14-.44.18-.45.4-.88.65-1.29.43-.58.75-1.24.94-1.94.34-1.45.89-2.84,1.62-4.13,1.23-2.08,2.33-4.24,3.29-6.46.81-1.8,1.67-3.58,2.35-5.42.52-1.67,1.18-3.29,1.98-4.84.34-.62.5-1.31.46-2.02-.04-2.06-.1-4.13-.12-6.19.01-.56.07-1.13.18-1.68.3-1.83.66-3.64.93-5.48.13-.94-.12-1.89-.7-2.64-1-1.63-1.81-3.38-2.39-5.21-.27-.65-.39-1.36-.65-2.02-.12-.56-.41-1.06-.83-1.44-.66-.48-1.18-1.14-1.5-1.89-.19-.46-.47-.88-.83-1.22-1.07-.97-2.24-1.84-3.48-2.58-.79-.43-1.51-.99-2.27-1.49-.5-.34-1.01-.66-1.54-.94-.9-.43-1.73-1-2.46-1.69-.38-.36-.79-.69-1.23-.97-.68-.42-1.39-.8-2.1-1.18-1.82-.98-3.6-2.04-5.47-2.89-2.05-.95-4.38-1.12-6.54-.48-.62.15-1.27.18-1.9.09-1.08-.14-2.14-.43-3.22-.59-.97-.14-1.97-.16-2.94-.3-.73-.14-1.48-.04-2.15.27-.81.46-1.76.61-2.67.44-.59-.14-1.21-.04-1.73.27-.4.2-.8.41-1.21.59-.69.3-1.45.4-2.19.31-.54-.05-1.08-.07-1.61-.04-.66.03-1.28.35-1.7.86-.86,1.13-2.18,1.81-3.6,1.87-1.07.02-2.1.39-2.94,1.05-.82.6-1.68,1.12-2.59,1.57-.91.39-1.69,1.03-2.23,1.86-.57.93-1.46,1.61-2.5,1.94-1,.32-1.83,1.04-2.3,1.98-.47.92-1.13,1.72-1.95,2.35-.65.5-1.14,1.18-1.39,1.97-.36,1.04-.88,2.03-1.55,2.92-.34.51-.65,1.05-.93,1.6-.49.93-.99,1.85-1.43,2.81-.3.58-.52,1.2-.63,1.84-.18,1.64-.26,3.3-.35,4.95,0,.98-.25,1.94-.71,2.8-.26.44-.45.92-.68,1.38-.33.69-.45,1.47-.32,2.23.11.53.14,1.07.08,1.6-.12.73-.05,1.47.19,2.17.69,2.24.7,1.49.03,3.76-.28.83-.28,1.73,0,2.56.44,1.17.68,2.41.69,3.66-.02.67.19,1.32.59,1.85.5.66.86,1.42,1.06,2.22.12.48.36.93.69,1.3.64.68,1.13,1.49,1.46,2.36.29.59.61,1.15.97,1.7.29.42.54.87.75,1.33.3.84.74,1.62,1.3,2.32,1.4,1.65,2.7,3.39,4.07,5.08.35.39.73.74,1.15,1.06.44.31.86.65,1.24,1.02.52.61,1.28.96,2.09.93.96-.06,1.86.5,2.22,1.39.31.64.88,1.11,1.57,1.29.28.12.61.09.86-.09.61-.42,1.39-.49,2.07-.19.45.14.91.26,1.37.36.65.16,1.3.3,1.94.47.58.22,1.17.38,1.78.49.93.1,1.84.31,2.71.65.53.22,1.1.33,1.67.34.96-.04,1.92.04,2.86.22.95.16,1.92.22,2.89.31.22.02.44-.02.39-.34-.04-.28.12-.62-.39-.7-.78-.12-1.53-.36-2.3-.5-.58-.11-1.16-.15-1.75-.2-.48,0-.96-.04-1.44-.1-.81-.17-1.59-.47-2.4-.61-1.03-.18-2.09-.21-3.12-.38-1.58-.31-3.09-.87-4.49-1.66-.05-.02-.1-.04-.13-.06q.39-.55.92-.32c.4.18.79.36,1.19.52.98.49,2.04.78,3.14.86,1.57.06,3.12.35,4.6.85.49.16,1,.22,1.51.19.9-.08,1.82.05,2.66.37.65.19,1.32.33,1.99.44,0-.37.01-.63,0-.89-.02-.1-.09-.18-.18-.21-.78-.18-1.56-.36-2.35-.49-.75-.13-1.51-.17-2.26-.31-.76-.15-1.49-.42-2.25-.57-.53-.13-1.08-.17-1.63-.11-.63.12-1.29.02-1.86-.29-.5-.27-1.02-.47-1.53-.72-.72-.35-1.44-.7-2.13-1.09-.47-.27-.45-.45-.03-.77.61.34,1.19.7,1.8,1,.79.38,1.6.74,2.41,1.07.27.14.57.19.87.15.95-.17,1.92-.09,2.83.23,1.16.28,2.33.49,3.5.72.72.14,1.44.23,2.17.35.13.05.27.09.42.11.11-.02.21-.09.26-.19.16-.82-.08-1.19-.89-1.41-.06-.02-.13-.03-.19-.04-1.5-.31-3.01-.59-4.51-.95-.8-.19-1.56-.63-2.36-.74-1.55-.21-3.05-.71-4.41-1.49-.16-.08-.33-.16-.5-.22-.61-.26-.61-.27-.2-.88.67.32,1.35.67,2.04.98.51.27,1.05.47,1.61.61,1.22.24,2.42.56,3.6.94,1.84.52,3.73.86,5.69,1.29v-2.88h.18c.24,2.75.48,5.5.72,8.25h2.74c-.02-.16-.03-.34-.06-.55l-1.96-.09c-.6-.03-.64-.08-.52-.71.12,0,.25,0,.38,0l1.65.09c.2,0,.44.04.39-.28-.04-.24.15-.6-.36-.62-.62-.03-1.23-.15-1.84-.19-.35-.02-.35-.23-.35-.48,0-.31.22-.24.39-.22.51.05,1.02.12,1.53.18.17.02.35,0,.55,0-.03-.35-.07-.65-.08-.95s-.14-.4-.45-.39c-.5.03-1,.01-1.49-.04-.53-.05-.6-.2-.5-.71h2.24c-.04-.46-.08-.91-.12-1.36.28.63.5,1.28.63,1.95.22,1.25.38,2.52.57,3.78.13.85.22.92,1.09.86.13,0,.26-.02.39-.06,1.18-.27,2.41-.31,3.61-.13.8.12,1.61-.07,2.29-.52.67-.45,1.47-.67,2.28-.62.41.02.81.03,1.22.04,1.07.1,2.14-.16,3.05-.73.23-.17.5-.29.79-.35.76-.17,1.44-.62,1.9-1.25.84-1.06,2.06-1.73,3.4-1.87,1.01-.14,1.88-.77,2.33-1.69.05-.08.05-.18.01-.27-.41-.49-.84-.96-1.3-1.48-.15.19-.29.39-.41.6-.31.57-.79,1.03-1.39,1.3-.32.16-.61.36-.88.59-1.87,1.61-4.04,2.82-6.39,3.57-.39.12-.76.3-1.15.42-1.43.42-2.85.92-4.31,1.21-1.33.21-2.68.34-4.03.38-.61.04-1.23-.06-1.85-.06-.26,0-.42,0-.43-.33s.13-.37.4-.37c1.11.12,2.23.08,3.33-.12.07,0,.13,0,.2,0,1.3.08,2.61-.15,3.81-.67.28-.11.58-.18.87-.22.51-.12,1.03-.21,1.53-.37.59-.18,1.16-.43,1.74-.62,2.07-.71,3.99-1.79,5.67-3.19.46-.37.98-.65,1.46-.99.23-.15.44-.33.61-.54.26-.34.48-.72.74-1.12-.35-.32-.72-.64-.9-.81-.68.58-1.31,1.1-1.91,1.65-.61.59-1.31,1.09-2.08,1.48-.84.39-1.66.85-2.43,1.37-.71.5-1.47.92-2.28,1.24-.49.18-.96.43-1.46.59-.6.2-1.21.34-1.82.49-.58.14-1.18.25-1.76.38-.26.08-.53.15-.8.2-1.54.16-3.08.3-4.63.46-.21.02-.38.03-.42-.26s.07-.39.32-.43.52-.07.78-.1c1.17-.1,2.34-.16,3.49-.32.75-.1,1.47-.45,2.22-.51,1.73-.27,3.39-.83,4.93-1.65.35-.19.68-.4,1-.63.71-.47,1.44-.9,2.2-1.28.92-.4,1.75-.97,2.45-1.68.47-.5.93-1,1.39-1.51.07-.06.11-.14.14-.23.01-.31-.78-.8-1.04-.62-.56.39-1.1.8-1.62,1.24-.62.51-1.17,1.1-1.81,1.57-1.09.9-2.34,1.58-3.69,1.99-1.47.35-2.91.81-4.31,1.38-2.09.86-4.33.59-6.5.86-.11-.01-.2-.08-.25-.18-.16-.35-.09-.5.29-.53.97-.07,1.94-.12,2.91-.18,1.04-.03,2.07-.21,3.05-.55,1.55-.59,3.12-1.09,4.72-1.52,1.65-.56,3.16-1.47,4.43-2.67.82-.68,1.4-1.66,2.51-2.03l-.54-.59s.05-.05.08-.08c2.18,1.31,3.78,3.25,5.55,5.14.39-.74.76-1.41,1.1-2.1.02-.13-.02-.27-.12-.36-.38-.22-.79-.4-1.21-.6-.26.43-.51.84-.76,1.26q-.54-.41-.24-.91c.11-.15.2-.31.27-.48.04-.11.05-.32-.01-.36-.3-.21-.61-.41-.93-.58-.02-.01-.12.13-.18.19-.16.17-.31.34-.46.51-.54-.39-.56-.41-.15-.83.28-.28.34-.53.1-.73l3.95,2.05"/>
        <path id="Path_2229" data-name="Path 2229" class="cls-2" d="m25.94,40.2c.14-.93.3-1.86.4-2.79.1-.86.13-1.73.22-2.59.14-1.18.51-2.32,1.08-3.35.67-1.27,1.28-2.57,1.92-3.85.12-.23.27-.44.41-.67.47.42.45.5.21.99-.86,1.73-1.75,3.44-2.52,5.21-.3.74-.46,1.54-.48,2.34-.05,1.54-.25,3.07-.6,4.57-.08.33,0,.47.32.57.62.18,1.24.39,1.97.62,0-.56-.01-1.06,0-1.57-.02-1.22.04-2.44.17-3.66.42-2.24,1.53-4.3,3.18-5.88.39-.4.42-.38.87.08-.07.07-.13.14-.2.21-1.51,1.39-2.57,3.2-3.07,5.19-.18,1.1-.26,2.22-.25,3.33-.04.71-.02,1.42-.07,2.13-.02.4.07.67.49.76.06.01.11.07.13.18-1.12-.27-2.25-.5-3.36-.82-1.05-.3-2.07-.68-3.1-1.03-.34-.11-.66-.25-1-.36-1.86-.6-3.73-1.19-5.59-1.78-.07-.02-.14-.06-.22-.09,0-.04,0-.07.01-.11.34.03.68.05,1.01.1.8.14.8.14,1.05-.63.42-1.26.84-2.52,1.27-3.77.09-.27.22-.54.36-.78.69-1.15,1.41-2.28,2.09-3.43.8-1.35,1.81-2.56,2.98-3.59,1.11-.98,2.17-2.03,3.2-3.1,1.79-1.79,3.96-3.16,6.35-3.99,1.4-.53,2.77-1.13,4.18-1.64.92-.34,1.87-.61,2.83-.82,1.53-.34,3.06-.65,4.6-.86,1.27-.18,2.58-.14,3.85-.32,1.63-.19,3.28-.16,4.91.1.92.12,1.87.06,2.79.16,2.24.24,4.47.51,6.7.79.39.05.77.15,1.13.31.88.38,1.73.81,2.6,1.22-.13.6-.21.64-.77.4-.1-.03-.2-.07-.29-.12-1.66-.93-3.53-1.42-5.43-1.41-1.37-.09-2.74-.35-4.1-.51-.51-.06-1.02-.06-1.53-.09-.61,0-1.21-.04-1.81-.12-1.51-.23-3.05-.22-4.56.03-.39.06-.78.1-1.18.11-2.67-.01-5.22.78-7.82,1.22-.59.13-1.16.33-1.71.58-1.36.53-2.7,1.09-4.06,1.61-2.4.84-4.58,2.21-6.37,4.02-1.08,1.15-2.28,2.17-3.4,3.28-1.3,1.23-2.39,2.67-3.22,4.26-.39.8-.9,1.54-1.35,2.31-.16.27-.3.55-.41.85-.45,1.3-.89,2.61-1.33,3.92-.07.2-.13.35.18.43.77.2,1.54.45,2.3.67.06,0,.12,0,.18,0,.77-2.46,1.57-4.89,2.27-7.35.84-2.87,2.44-5.45,4.63-7.49,1.21-1.15,2.57-2.14,4.04-2.94.61-.36,1.2-.75,1.76-1.19.77-.59,1.67-1,2.62-1.2.91-.2,1.81-.46,2.68-.79,1.12-.3,2.26-.5,3.41-.59.74-.1,1.47-.26,2.19-.48,1.39-.44,2.84-.68,4.3-.7.72-.02,1.45-.09,2.17-.07,1.51.03,3.02.1,4.53.17,1.39.07,2.79.11,4.16.28,2.44.34,4.79,1.17,6.92,2.42.03.02.06.05.08.07-.28.6-.3.6-.85.28-2.05-1.14-4.31-1.87-6.64-2.14-1.23-.16-2.5-.09-3.73-.24-2.62-.24-5.26-.24-7.88,0-.88.08-1.74.26-2.58.52-1.17.36-2.37.59-3.59.68-1.23.14-2.43.43-3.59.87-.6.19-1.24.27-1.83.49-.6.22-1.18.49-1.73.81-.99.59-1.95,1.23-2.92,1.87-2.44,1.51-4.49,3.56-5.99,5.99-.68,1.15-1.2,2.39-1.56,3.68-.12.5-.3.98-.54,1.43-.69,1.47-1.16,3.02-1.42,4.62-.07.31-.14.61-.19.93-.01.09.05.25.11.27.9.33,1.8.65,2.71.96.09.01.18.02.27.02"/>
        <path id="Path_2230" data-name="Path 2230" class="cls-2" d="m28.81,42.32c.6.01.64.04.62.58-.03,1.03-.12,2.05-.09,3.07.03.85.14,1.7.33,2.53.24,1.36.23,2.76-.03,4.11-.05.34-.07.68-.06,1.02.02,1.95.2,3.89.55,5.8.53,2.34.91,4.73,1.56,7.04,1.89,6.75,6.38,10.96,13.05,12.9,1.39.38,2.76.86,4.09,1.43,1.86.73,3.87.97,5.84.7,1.12-.08,2.22-.3,3.28-.63,1.08-.3,2.2-.41,3.32-.32.51.01,1.03.03,1.54.03.17-.01.33-.03.49-.07-.02-.1-.05-.19-.08-.29-.37-.81-.75-1.62-1.12-2.43-.08-.2-.28-.32-.49-.3-.8.01-1.61-.05-2.4.01-.54.03-1.06.17-1.55.41-1.14.58-2.45.7-3.68.34-1.21-.3-2.4-.69-3.63-.92-.97-.16-1.95-.24-2.94-.24-.75.02-1.49-.13-2.19-.42-2.34-1.03-4.47-2.49-6.28-4.3-.55-.52-1.17-.97-1.85-1.31-.55-.28-1.03-.69-1.38-1.2-1.42-2.12-2.41-4.51-2.91-7.02-.14-1.03-.2-2.06-.19-3.1,0-.96-.14-1.92-.42-2.84-.53-1.73-.88-3.5-1.05-5.29-.13-1.04-.08-2.1.15-3.13.45-2.14.58-4.34.38-6.51-.21-2.68.42-5.36,1.8-7.67.49-.82,1.11-1.55,1.67-2.32.55.41.57.45.16.95-1.39,1.61-2.34,3.55-2.77,5.64-.24,1.42-.29,2.86-.16,4.29.13,1.96-.02,3.92-.46,5.83-.18.96-.22,1.93-.12,2.9.2,1.93.58,3.84,1.16,5.7.22.95.33,1.92.31,2.89.05,3.2,1.03,6.32,2.8,8.98.38.6.92,1.08,1.56,1.4.7.37,1.33.84,1.88,1.4,1.75,1.75,3.83,3.15,6.11,4.12.53.22,1.11.33,1.68.3,1.5-.04,3,.16,4.44.59,1.05.3,2.12.53,3.18.75.73.16,1.49.06,2.14-.3.97-.49,2.05-.71,3.13-.63.47.01.94,0,1.51,0-.2-.42-.36-.79-.54-1.14-.14-.2-.27-.42-.37-.64-.1-.41-.51-.66-.92-.56,0,0,0,0-.01,0-.94.09-1.88.21-2.82.27-.56.09-1.12.07-1.67-.07-1.66-.64-3.42-.97-5.2-.98-.68-.06-1.35-.18-2.01-.37-.57-.13-.58-.18-.41-.79.68.15,1.35.35,2.03.44.81.1,1.63.05,2.44.17.77.1,1.52.28,2.25.54,1,.4,2.11.5,3.17.28.74-.11,1.49-.16,2.23-.18.13,0,.26,0,.45,0-.21-.67-.4-1.3-.59-1.93l.09-.04c.13.24.27.49.4.73.63,1.2,1.28,2.38,1.89,3.59.22.43.33.91.53,1.36.79,1.76,1.59,3.52,2.38,5.28.08.17.14.34.2.51l-.1.05c-.08-.08-.15-.17-.21-.25-.38-.55-.75-1.11-1.14-1.66-.06-.09-.16-.15-.28-.17-1.3.01-2.6,0-3.9.07-.55.04-1.09.15-1.62.31-2.52.73-5.18.87-7.76.41-.31-.05-.61-.14-.9-.27-1.99-.83-4.03-1.53-6.11-2.1-3.59-1.1-6.73-3.34-8.95-6.36-1.67-2.17-2.83-4.68-3.41-7.35-.58-2.81-1.17-5.61-1.66-8.43-.32-2.09-.32-4.21-.02-6.3.1-.81.06-1.63-.13-2.43-.34-1.49-.45-3.02-.32-4.55.06-.63.07-1.26.11-1.91"/>
        <path id="Path_2231" data-name="Path 2231" class="cls-2" d="m65.51,59.82c-.62-.2-.63-.2-.42-.76.36-1.08.54-2.2.55-3.33.06-1.22.12-2.44.19-3.66.06-.61-.05-1.22-.31-1.76-.92-1.37-1.59-2.9-1.98-4.5-.34.2-.62.35-.88.52-.09.07-.13.18-.13.29.07,1.25.16,2.49.24,3.74.08,1.01.35,2,.81,2.9.85,1.79.97,3.84.33,5.72-.05.17-.07.4-.38.33-.27-.06-.39-.16-.29-.45.65-1.86.5-3.91-.42-5.66-.5-1.11-.76-2.31-.76-3.52-.04-.72-.06-1.45-.1-2.17-.01-.22-.05-.44-.08-.7-.31.18-.6.38-.89.59-.08.12-.11.27-.08.42.28,2.05.62,4.08.82,6.13.04.89-.01,1.79-.16,2.67-.12,1.09-.31,2.18-.46,3.28-.06,1-.61,1.91-1.46,2.43-.45.3-.83.69-1.12,1.14-1.01,1.49-2.63,2.46-4.42,2.66-.78.09-1.56-.12-2.19-.6-.68-.47-1.37-.93-2.01-1.45-.15-.12-.12-.45-.17-.69l.11-.07c.23.1.46.22.67.35.55.38,1.1.77,1.63,1.18.68.55,1.6.73,2.44.48,1.37-.27,2.57-1.08,3.35-2.24.42-.64.98-1.18,1.64-1.57.52-.38.84-.97.85-1.62.2-1.35.38-2.7.58-4.06.13-1.11.08-2.24-.15-3.33-.23-1.39-.38-2.79-.57-4.18-.03-.18-.07-.36-.12-.65-.39.24-.74.46-1.11.69.09.19.19.37.31.54.45.59.6,1.35.42,2.06-.29,1.46-.37,2.95-.24,4.43.15,1.43.06,2.87-.27,4.27-.18.7-.51,1.36-.96,1.92-.44.56-1.11.88-1.82.87-.37,0-.74-.07-1.1-.05-.58,0-1.15.06-1.71.17-1.3.38-2.7-.02-3.61-1.02-.31-.32-.59-.67-.93-.96-.56-.5-1.15-.96-1.77-1.37-.57-.33-1.03-.83-1.29-1.44-.6-1.48-1.22-2.97-1.76-4.47-.43-1.44-.37-2.98.17-4.38.26-.73.21-1.54-.14-2.24-.46-1.05-.15-2.27.74-2.98.61-.56,1.35-.95,2.16-1.13.23-.06.45-.15.65-.27.91-.52,2.02-.55,2.96-.08.81.38,1.57.86,2.35,1.29.26.15.53.29.8.42.41.21.9.25,1.34.1.82-.32,1.75-.02,2.21.73.59.78.97,1.69,1.13,2.66.07.39-.19.5-.55.62-.05-.21-.11-.4-.14-.6-.13-.92-.54-1.77-1.16-2.45-.24-.33-.67-.47-1.06-.33-.94.31-1.97.14-2.77-.45-.7-.42-1.4-.84-2.12-1.21-.86-.5-1.92-.5-2.79-.02-.4.19-.82.34-1.26.45-.79.21-1.45.73-1.83,1.45-.29.49-.31,1.09-.05,1.59.43.78.49,1.71.19,2.55-.42,1.14-.53,2.38-.33,3.58.11.49.26.96.46,1.42.51,1.26,1.03,2.53,1.59,3.77.16.32.4.58.71.75.9.52,1.71,1.18,2.4,1.96.3.32.61.62.94.9.63.57,1.5.78,2.32.56.93-.23,1.9-.29,2.86-.17.82.13,1.64-.29,1.99-1.05.61-1.19.89-2.51.84-3.85,0-.84-.07-1.68-.13-2.52-.03-1.24.09-2.47.34-3.68.09-.64-.13-1.28-.58-1.74-.1-.09-.24-.12-.37-.1-.24.07-.47.15-.69.25-.03-.03-.06-.07-.09-.1.13-.1.25-.2.39-.29.68-.42,1.36-.83,2.05-1.24.92-.54,1.85-1.06,2.75-1.62.57-.35,1.08-.8,1.67-1.11.9-.48,1.84-.88,2.77-1.31.05-.02.12,0,.29.02-.21.16-.33.27-.46.35-.82.52-1.64,1.04-2.47,1.54-.18.09-.27.3-.19.49.27,1.06.7,2.07,1.27,3,.49.69.84,1.47,1.01,2.3.03.46.03.92-.01,1.37-.08,1.56-.15,3.13-.25,4.69-.08.91-.32,1.81-.71,2.64"/>
        <path id="Path_2232" data-name="Path 2232" class="cls-2" d="m35.85,30.72c.44-.38.89-.75,1.32-1.14,1.18-1.08,2.6-1.86,4.14-2.27,2.1-.57,4.21-1.15,6.31-1.72,1.73-.4,3.52-.52,5.29-.35.15,0,.4-.05.35.23-.03.23-.07.48-.42.45-.49-.03-.97-.05-1.46-.06-1.49-.02-2.97.18-4.4.6-1.86.51-3.72,1.02-5.59,1.54-1.88.52-3.55,1.61-4.78,3.11-.18.22-.19.35,0,.56.45.48.88.97,1.32,1.47.21.24.38.23.56-.04.5-.69,1.21-1.19,2.02-1.43,1.97-.74,3.86-1.68,5.64-2.8,1.74-1.05,3.79-1.46,5.8-1.15.17.02.34.04.51.06.23,0,.42.19.42.43,0,.06-.02.12-.04.18-.03.07-.21.11-.32.11-.71-.05-1.41-.15-2.12-.17-1.29,0-2.56.35-3.67,1.01-1.59.9-3.22,1.72-4.84,2.57-.27.14-.55.25-.85.32-.94.25-1.76.83-2.31,1.65l1.07,1.25-.1.09c-.2-.2-.4-.4-.6-.61-.25-.29-.51-.56-.79-.82-1.9-1.54-3.82-3.06-5.71-4.61-1.17-.96-2.16-2.13-2.94-3.43-.1-.15-.15-.31-.16-.49l.79.98c.08-.08.15-.16.22-.25,1.75-2.75,4.55-4.64,7.75-5.24,1.29-.31,2.56-.69,3.81-1.13,1.42-.48,2.89-.79,4.38-.91,1.17-.11,2.35-.28,3.51-.51,1.14-.22,2.3-.24,3.45-.09,2.19.28,4.39.5,6.57.81,2.26.38,4.46,1.04,6.56,1.97.04.02.09.05.13.08-.18.55-.27.61-.78.4-2.74-1.13-5.63-1.85-8.58-2.14-1.7-.17-3.4-.39-5.1-.52-.67-.01-1.34.04-2,.16-1.41.18-2.81.42-4.21.58-1.22.1-2.42.37-3.57.8-1.64.58-3.3,1.06-4.99,1.44-2.65.67-4.93,2.34-6.37,4.66-.15.25-.16.4.07.59.7.61,1.4,1.24,2.08,1.88.19.23.52.26.75.07,0,0,.02-.01.02-.02.45-.33.92-.66,1.34-1.03.6-.53,1.18-1.09,1.75-1.65,2.12-2.18,4.84-3.69,7.82-4.33.23-.04.46-.1.69-.17,1.14-.29,2.32-.45,3.5-.48,1.41-.16,2.84-.1,4.23.18.35.06.7.05,1.05.07,0,.6-.1.72-.66.67-.51-.03-1.02-.1-1.52-.21-1.12-.13-2.25-.13-3.37,0-1.76.09-3.5.42-5.17.98-1.92.58-3.69,1.59-5.17,2.94-.21.18-.42.36-.62.55-1.1,1.21-2.35,2.27-3.72,3.16l1.71,1.16"/>
        <path id="Path_2233" data-name="Path 2233" class="cls-2" d="m46.85,72.08c.25-.93.49-1.81.73-2.7.08-.23-.03-.49-.25-.6-.76-.58-1.68-.91-2.63-.94-1.05-.04-2.04-.5-2.75-1.28-1.54-1.55-2.86-3.31-3.91-5.23-.78-1.47-1.13-3.14-.99-4.81.07-.93-.01-1.87-.24-2.78-.08-.37-.14-.75-.18-1.13.46.02.66.15.77.58.27,1.19.38,2.42.32,3.64-.09,2.06.57,4.08,1.86,5.69.77.97,1.49,1.97,2.25,2.94.23.26.47.5.73.72.57.6,1.36.94,2.18.96.99.02,1.96.35,2.76.94.06.04.13.07.19.09.11-.46.23-.88.3-1.32-.01-.15-.09-.28-.21-.36-.65-.43-1.4-.68-2.18-.72-.97-.06-1.86-.57-2.4-1.39-.41-.61-.92-1.15-1.49-1.62-1.32-1.03-2.08-2.61-2.08-4.28-.07-.93-.3-1.84-.67-2.7-.3-.75-.49-1.54-.73-2.32-.01-.1-.01-.2,0-.31.48-.06.57.03.7.47.2.69.43,1.38.71,2.04.39.91.61,1.88.66,2.86.01,1.46.69,2.83,1.85,3.72.6.51,1.13,1.09,1.59,1.74.42.62,1.09,1.01,1.84,1.08.94.06,1.86.36,2.64.89.22-.67.41-1.29.62-1.91.1-.28.02-.42-.29-.44-.7-.09-1.34-.43-1.79-.97-.37-.36-.43-.92-.17-1.36.34.41.64.84,1,1.21.43.33.95.51,1.49.52.05-.31.1-.59.15-.88.13,1.65-.06,3.31-.56,4.89-.2.76-.34,1.53-.52,2.3-.09.57-.25,1.12-.46,1.65-.26.69-.4,1.41-.44,2.15-.1.63-.24,1.26-.38,1.89-.05.16-.13.32-.21.47l-.1-.03c.01-.15.01-.29.03-.44.08-.55.15-1.09.25-1.64.1-.3-.06-.62-.36-.72-.02,0-.05-.01-.07-.02-1.7-.62-3.39-1.29-5.1-1.88-1.47-.46-2.74-1.4-3.62-2.65-.69-1.01-1.39-2.01-1.99-3.07-.54-1.05-.82-2.21-.81-3.38-.07-1.39-.17-2.78-.25-4.17-.01-.17-.04-.34-.07-.51-.36-1.83-.8-3.65-1.05-5.49-.2-1.49-.39-2.97-.74-4.43-.15-.62-.05-1.28.28-1.83.57-1.19.95-2.46,1.12-3.76.25-1.61.7-3.19,1.33-4.69.41-.9.99-1.71,1.71-2.4.45-.42.47-.42.93.05-.07.09-.15.17-.24.24-.68.53-1.22,1.21-1.58,1.99-.72,1.5-1.21,3.09-1.47,4.72-.18,1.5-.61,2.97-1.28,4.32-.17.34-.22.73-.13,1.1.45,1.76.58,3.58.86,5.37.13,1.07.32,2.13.57,3.18.46,2.21.7,4.47.71,6.73.08,1.03.37,2.02.85,2.93.71,1.35,1.62,2.59,2.68,3.69.38.4.85.71,1.35.92,2.1.85,4.23,1.64,6.37,2.46"/>
        <path id="Path_2234" data-name="Path 2234" class="cls-2" d="m21.73,72.86c.32-.28.59-.53.88-.75.72-.56,1.46-1.1,2.18-1.67.12-.1.2-.24.2-.4-.3-1.64-.57-3.29-.95-4.91-.3-1.29-.74-2.55-1.08-3.83-.52-2.23-.75-4.52-.68-6.81,0-.85.03-1.71.03-2.56,0-.52.03-.56.66-.54v.61c-.13,2.47-.03,4.94.29,7.39.11.82.3,1.63.55,2.42.69,2.13,1.19,4.31,1.51,6.52.08.46.19.92.29,1.4.82-.63,1.59-1.21,2.35-1.81.3-.24.47-.61.43-.99,0-1.38.03-2.76.12-4.14.09-.97-.08-1.95-.49-2.84-1.29-2.93-1.96-6.1-1.98-9.31-.07-1.36.07-2.73.04-4.09-.03-1.26-.16-2.51-.25-3.77-.03-.38-.04-.76-.07-1.13.48-.02.65.09.69.49.12,1.17.23,2.33.33,3.5.02.24.01.47-.03.71-.22,1.12-.25,2.28-.08,3.41.18,1.64.3,3.3.47,4.94.11,1.25.43,2.47.97,3.6.97,1.98,1.31,4.22.98,6.4-.05.74-.05,1.49-.01,2.24l1.23-.81s.06.09.09.13c-2.96,3.08-6.32,5.74-9.98,7.92l-.14-.14c.11-.16.24-.31.38-.44.47-.39.48-.39.19-.92-.81-1.58-1.34-3.29-1.59-5.05-.42-2.33-.86-4.65-1.35-6.97-.21-1-.62-1.96-.84-2.95-.23-1.38-.25-2.78-.07-4.16.03-.39.05-.79.05-1.18,0-.22.06-.32.29-.31.21.01.41.01.4.31-.03.56-.07,1.13-.1,1.69-.2,1.5-.09,3.03.32,4.49.77,2.65,1.36,5.35,1.77,8.07.24,1.18.47,2.38.81,3.53.28.82.62,1.62,1,2.4.06.11.14.22.22.32"/>
        <path id="Path_2235" data-name="Path 2235" class="cls-2" d="m51.99,39.48c0-.07-.01-.14-.02-.21.08-2.31.34-4.62.77-6.89.29-1.22.44-2.46.47-3.71.1-1.82.48-3.62,1.13-5.32.18-.63.36-1.26.58-1.88.13-.33.28-.66.45-.97l.13.05c-.03.27-.06.55-.1.84.4,0,.77.01,1.13,0,.83-.05,1.66.14,2.39.54,1.1.48,2.26.78,3.45.9.91.18,1.8.46,2.68.69-.12.65-.22.67-.71.55-1.21-.3-2.44-.52-3.65-.82-.69-.15-1.36-.38-2-.69-1.02-.46-2.16-.61-3.27-.42-.11.02-.21.09-.26.19-.29.98-.57,1.96-.87,2.99.61.06,1.13.14,1.65.17.88.05,1.76.1,2.64.11.62,0,1.23.2,1.72.58.58.44,1.11.93,1.69,1.37,1.78,1.38,3.46,2.88,5.03,4.49.5.44,1.04.85,1.59,1.22.29.22.57.46.85.68-.34.57-.34.53-.84.2-1.53-1.13-2.97-2.39-4.3-3.76-1.04-.96-2.2-1.8-3.3-2.69-.38-.34-.78-.67-1.19-.97-.31-.21-.67-.34-1.04-.39-1.43-.12-2.86-.18-4.29-.28-.3-.02-.44.07-.47.36-.06.47-.15.93-.22,1.4-.04.26.08.41.34.48,1.01.29,2.01.6,3.02.88,1.57.35,2.93,1.33,3.76,2.71.47.71.99,1.38,1.56,2.01l-.37.42c-.66-.48-1.21-1.1-1.61-1.81-.69-1.31-1.91-2.26-3.35-2.59-1.01-.29-2.01-.61-3.02-.91-.07-.02-.15-.03-.22-.03-.08.62-.13,1.23-.23,1.83-.18,1.05-.38,2.1-.58,3.14-.08.2.02.42.22.5.03.01.06.02.08.02.86.29,1.7.62,2.56.91.68.22,1.3.58,1.83,1.05.49.43.99.86,1.53,1.32l-.36.49c-.88-.73-1.8-1.4-2.77-2-1.05-.48-2.12-.89-3.22-1.23-.13.81-.26,1.55-.39,2.34.2.02.35.05.5.06,1.1.06,2.14.55,2.9,1.35.98,1.07,2.08,2.02,3.28,2.82.54.33,1.01.76,1.4,1.26.53.71,1.01,1.47,1.43,2.25.26.47.16.59-.41.81-.17-.36-.35-.72-.52-1.08-.53-1.2-1.43-2.2-2.56-2.87-1.12-.74-2.14-1.63-3.02-2.64-.65-.7-1.54-1.13-2.49-1.22-.62-.05-.66-.05-.79.56-.06.29-.14.58-.22.87l-.11-.02"/>
        <path id="Path_2236" data-name="Path 2236" class="cls-2" d="m74.39,47.37l-1.08.21c1.25-.74,2.42-1.5,3.64-2.13,1.3-.72,2.71-1.22,4.17-1.49.47-.12.92-.29,1.36-.5.46-.17.93-.32,1.4-.47.12-.02.23-.05.34-.09.52-.25,1.12-.3,1.67-.14-.35.15-.69.33-1.05.46-.22.08-.31.16-.26.42.27,1.78.68,3.54,1.21,5.26.19.57.29,1.18.28,1.78-.03,1.4-.15,2.81-.24,4.21,0,.15-.08.29-.19.39-.13.06-.28.05-.4-.02-.07-.04-.08-.23-.07-.34.08-1.37.21-2.73.23-4.09-.03-.68-.14-1.35-.32-2.01-.35-1.6-.73-3.2-1.1-4.8-.03-.13-.07-.25-.11-.44-.51.2-1,.38-1.46.6-.08.03-.11.26-.09.38.11.87.28,1.74.36,2.62.24,2.53.46,5.05.67,7.58.02.19.12.47-.24.52-.27.03-.4-.03-.43-.34-.29-3.14-.59-6.28-.9-9.42-.03-.27-.08-.55-.13-.82-.02-.08-.05-.15-.08-.22-.75.18-1.48.36-2.22.55-.16.02-.29.16-.27.33,0,.04.02.08.04.12.57,1.97.83,4.03.75,6.08.02,1.02-.04,2.05-.05,3.07,0,.26-.04.42-.37.4-.31-.02-.3-.17-.31-.41-.03-2.22-.04-4.44-.15-6.66-.11-.84-.28-1.66-.53-2.47-.38.13-.68.21-.96.34-.68.31-1.34.66-2.02.98-.31.12-.47.46-.38.78.09.58.19,1.17.28,1.75.14,1.53.03,3.08-.31,4.58-.59,3.54-1.14,7.08-1.75,10.62-.24,1.38-.59,2.75-.95,4.11-.23.78-.66,1.49-1.25,2.07-.51.59-.96,1.24-1.32,1.94-.4.83-.96,1.57-1.65,2.18-.48.36-.52.36-.91-.16.03-.05.07-.09.12-.13.75-.47,1.35-1.16,1.71-1.97.47-1.03,1.13-1.96,1.95-2.75.45-.47.74-1.07.83-1.72.45-2.19.93-4.37,1.32-6.57.56-3.17,1.04-6.36,1.56-9.53.16-1.18.12-2.37-.14-3.53-.07-.35-.11-.7-.17-1.09"/>
        <path id="Path_2237" data-name="Path 2237" class="cls-2" d="m82.69,66.47c-.56-.28-.58-.29-.3-.81,1.35-2.58,2.16-5.41,2.38-8.32.03-.35.1-.7.15-1.05,0-.02-.02-.04-.04-.1-.44.03-.9.04-1.35.1-.07,0-.18.18-.18.27-.09,3.08-1.2,5.91-2.13,8.78-.01.02-.03.04-.05.06-.54-.07-.59-.16-.44-.68.57-1.98,1.17-3.95,1.69-5.95.13-.74.21-1.48.24-2.23.03-.3-.08-.4-.39-.41-.75-.02-1.5-.08-2.24-.15-.28-.03-.35.07-.41.32-.61,2.35-1.24,4.7-1.86,7.05-.02.07-.05.14-.08.21-.55-.11-.63-.19-.48-.71.42-1.53.88-3.06,1.29-4.59.18-.67.3-1.36.47-2.03.06-.26-.03-.34-.26-.41-.5-.15-.99-.34-1.48-.51.01-.05.02-.09.03-.14.36.04.73.07,1.09.12,2.5.32,5.02.49,7.54.49.91.05,1.82.16,2.72.31v.12c-.1.04-.2.07-.3.08-.36,0-.53.11-.58.51-.43,3.23-1.23,6.4-2.4,9.44-.96,2.58-2.14,5.06-3.09,7.63-.46,1.19-1.07,2.31-1.82,3.34-.48.67-.88,1.4-1.32,2.1-.13.2-.23.39-.52.21-.15-.06-.23-.23-.17-.39.01-.04.03-.07.06-.1.54-.84,1.03-1.71,1.6-2.53.63-.86,1.13-1.8,1.5-2.8.35-1,.85-1.95,1.24-2.94.73-1.83,1.39-3.69,2.14-5.5,1.05-2.72,1.76-5.57,2.11-8.46.08-.58.07-.58-.49-.7-.09-.02-.18-.03-.27-.04-.63-.05-.64-.04-.74.6-.23,1.49-.41,3-.72,4.47-.46,1.84-1.15,3.61-2.06,5.27-.02.03-.06.05-.08.08"/>
        <path id="Path_2238" data-name="Path 2238" class="cls-2" d="m79.3,26.7l-.86,1.03c.54.75,1.16,1.61,1.79,2.47-.4.46-.51.46-.87-.03-.47-.65-.95-1.29-1.4-1.96-.18-.26-.32-.25-.53-.06-.27.25-.55.49-.84.72-.16.1-.21.31-.11.47.28.75.55,1.5.81,2.26.19.55.18.55-.4.84-.33-.96-.66-1.91-.99-2.85-.62.39-1.18.7-1.69,1.08-.33.26-.63.55-.89.88-.05.06-.01.26.05.36.37.56.77,1.1,1.14,1.66.32.49.31.5-.26.79-.49-.7-.97-1.41-1.49-2.15l-2.53,2.32c.5.52.96,1.04,1.46,1.52.28.27.07.4-.1.56-.21.22-.31.02-.44-.11-.44-.45-.88-.9-1.32-1.35-.19-.19-.37-.23-.57-.03-.3.31-.63.58-.99.83.32-.36.63-.74.96-1.09.41-.44.84-.87,1.26-1.3.72-.73,1.41-1.49,2.16-2.18.79-.73,1.62-1.41,2.45-2.1.55-.46,1.11-.92,1.68-1.36.28-.21.62-.35.88-.57.71-.61,1.38-1.25,2.08-1.87.25-.22.53-.38.8-.57l.13.14-.97,1.12c.27.25.53.51.8.75,1.33,1.23,2.48,2.65,3.41,4.22.59.92,1.22,1.8,1.9,2.66,1.96,2.47,3.07,5.51,3.18,8.66.07,2.59-.08,5.18-.45,7.75-.14,1.08-.12,2.18-.22,3.26-.06.61-.22,1.22-.31,1.83-.05.33-.24.26-.46.24-.25-.02-.26-.15-.22-.35.3-1.59.48-3.2.53-4.81.05-1.45.36-2.9.41-4.35.26-2.24.11-4.51-.42-6.7-.58-2.05-1.6-3.96-2.97-5.59-.63-.75-1.18-1.55-1.65-2.4-1.06-1.72-2.38-3.27-3.92-4.59"/>
        <path id="Path_2239" data-name="Path 2239" class="cls-2" d="m77.49,64.59c-.07.39-.13.79-.21,1.19-.22,1.1-.4,2.2-.68,3.28-.23.75-.5,1.49-.83,2.21-.25.6-.59,1.18-.82,1.79-.52,1.42-1.42,2.66-2.6,3.6-.77.62-1.55,1.22-2.33,1.82-.75.56-1.59.99-2.49,1.25-.65.24-1.29.52-1.91.83-.28.13-.57.24-.85.36-.35-.51-.33-.6.17-.81,1.15-.48,2.3-.96,3.45-1.44.11-.04.22-.09.32-.15,1.72-1.03,3.26-2.32,4.6-3.81.17-.2.31-.42.42-.66,1.25-2.58,2.53-5.15,2.83-8.06.07-.49.16-.99.28-1.47.06-.22-.03-.45-.23-.57-.49-.37-.95-.78-1.43-1.18-.05-.06-.1-.13-.14-.2.06,0,.08,0,.1,0,1.01.75,2.11,1.38,3.27,1.88,1.62.69,3.12,1.64,4.44,2.82.12.11.22.26.27.42l-.69-.35c-.07.16-.14.31-.2.47-.58,1.63-1.05,3.32-1.76,4.89-.86,1.91-1.92,3.74-2.93,5.58-.29.53-.45.53-.88.17l2.09-3.66c1.1-2.17,2-4.43,2.7-6.76.06-.23.14-.45.24-.67.14-.29.03-.43-.23-.54-.2-.09-.4-.2-.62-.32-.05.07-.1.15-.14.23-1.27,2.73-2.38,5.53-3.33,8.38-.5,1.3-1.22,2.51-2.14,3.57-.35.47-.47.45-.91,0,.05-.07.1-.14.15-.21,1.2-1.3,2.09-2.85,2.6-4.55.73-2.28,1.62-4.5,2.67-6.65.13-.29.25-.58.35-.88.03-.09.02-.27-.04-.3-.81-.51-1.62-1-2.44-1.5-.04,0-.09,0-.13,0"/>
        <path id="Path_2240" data-name="Path 2240" class="cls-2" d="m70.31,46.7l-2.24,1.15-.09-.07c.04-.1.05-.23.13-.28.25-.22.52-.39.82-.53.73-.3,1.39-.75,1.93-1.33.57-.56,1.22-1.04,1.92-1.42.97-.55,1.88-1.19,2.83-1.78.4-.25.83-.44,1.24-.69.48-.3.92-.64,1.4-.93.42-.26.89-.45,1.31-.72.4-.25.76-.54,1.14-.82.18-.16.36-.3.56-.44,1.15-.64,2.3-1.27,3.46-1.9.06-.04.14-.04.2,0-.24.17-.48.35-.73.5-.21.11-.33.35-.28.59.15,1.33.29,2.67.42,4,.02.12,0,.25-.08.35-.12.1-.27.14-.42.13-.08-.02-.14-.23-.15-.37-.11-1.1-.21-2.2-.32-3.3-.02-.18-.06-.36-.1-.62-.86.45-1.65,1.01-2.36,1.66-.07.07.01.31.07.45.32.79.69,1.56.98,2.36.2.53.15.55-.49.75-.23-1.11-.68-2.17-1.31-3.12-.72.45-1.42.89-2.1,1.35-.08.11-.11.24-.07.37.17.55.36,1.1.54,1.65s.19.54-.44.81c-.26-.77-.52-1.54-.82-2.42-.56.34-1.06.67-1.58.97-.59.34-.92.74-.65,1.48.08.36.11.73.08,1.1.03.55-.05.66-.64.84-.04-.77-.08-1.53-.12-2.36-1.2.46-2.31,1.12-3.28,1.97-.09.14-.11.31-.06.47.77,2.97,1.05,6.05.83,9.11-.03,1.28-.31,2.54-.84,3.71-1.34,2.9-2.3,5.95-2.88,9.09-.18.81-.41,1.6-.71,2.38-.39.88-.95,1.67-1.65,2.33l-.47-.44c.08-.12.17-.24.26-.35,1-1.07,1.66-2.43,1.87-3.88.61-3.31,1.63-6.53,3.05-9.59.46-1.1.69-2.27.7-3.46.17-2.68-.04-5.37-.6-8-.07-.25-.15-.49-.24-.72"/>
        <path id="Path_2241" data-name="Path 2241" class="cls-2" d="m68.72,19.56c.61.28,1.2.52,1.75.81.97.5,1.92,1.01,2.86,1.57.33.24.64.5.92.8.38.34.75.68,1.12,1.03.17.14.33.3.47.47.56.81,1.09,1.63,1.64,2.45-.35.46-.46.47-.8.01-.33-.44-.63-.9-.92-1.37-.27-.53-.69-.97-1.2-1.27-.15-.08-.28-.2-.38-.34-.86-1.07-1.98-1.91-3.26-2.42-.83-.38-1.68-.74-2.54-1.11l-.75,1.22c3.13,1.7,5.57,4.23,8.09,6.67-.35.49-.48.5-.83.15-1.63-1.72-3.4-3.3-5.29-4.73-.68-.49-1.41-.91-2.11-1.37-.21-.14-.35-.12-.47.1-.32.57-.67,1.13-.98,1.71-.03.11-.02.23.04.34.1.18.27.33.35.52.7,1.41,1.73,2.63,3.01,3.54.88.71,1.76,1.42,2.62,2.16.47.4.46.42-.09.86-1.55-1.33-3.13-2.63-4.63-4.02-.47-.53-.88-1.1-1.22-1.72-.2-.3-.37-.62-.63-1.06-.46.72-.84,1.33-1.23,1.94h-.03c.03-.15.07-.28.12-.41.6-1.15,1.15-2.33,1.82-3.44,1.06-1.78,2.2-3.52,3.31-5.27.18-.29.39-.56.58-.84l.12.07-.55,1.19c.19.08.35.14.5.2,2.62.9,4.9,2.56,6.56,4.78.7.94,1.5,1.8,2.26,2.7-.3.49-.42.51-.81.06-.82-.96-1.63-1.93-2.43-2.9-1.56-1.91-3.64-3.32-5.99-4.07-.3-.1-.45-.06-.58.23-.1.24-.25.46-.42.76"/>
        <path id="Path_2242" data-name="Path 2242" class="cls-2" d="m60.08,46.94c-.08-.84-.38-1.64-.87-2.32-.34-.52-.83-.92-1.41-1.14-1.78-.73-3.53-1.51-5.32-2.2-.7-.21-1.42-.37-2.15-.45-.49-.09-.99-.14-1.48-.24-.97-.12-1.95-.06-2.89.17-.98.17-1.85.71-2.44,1.51-.92,1.06-1.43,2.43-1.42,3.84-.06,1.8-.3,3.59-.71,5.35-.02.09-.03.18-.04.27,0,.31-.11.69.03.93.11.19.51.22.78.33.09.03.16.09.22.16-2.71.08-5.19-.86-7.71-1.64l.02-.13c.19.03.39.04.58.08s.39.08.58.13c.85.2.85.21,1-.64.11-.61.21-1.21.31-1.82.54.09.64.2.57.68-.07.53-.16,1.07-.28,1.59-.11.41.01.59.41.63.1,0,.2.04.33.07.11-.76.23-1.51.34-2.26.66.2.65.2.56.79-.08.47-.12.94-.18,1.41-.04.27.07.38.33.41.37.04.73.1,1.09.16.21.04.34-.02.35-.24.06-1.94.77-3.78.75-5.74.04-.88.15-1.75.32-2.62.02-.21.08-.41.17-.6,1-1.58,2.03-3.06,4.12-3.4,1.47-.15,2.96-.11,4.42.13,2.15.22,3.97,1.32,5.92,2.07.33.16.67.3,1.02.42,1.63.44,2.87,1.76,3.19,3.42.17.54.1.64-.52.91"/>
        <path id="Path_2243" data-name="Path 2243" class="cls-2" d="m40.23,49.72c-1.05-.09-5.92-2.65-6.3-3.26l3.29,1.63c.04-.28.07-.44.09-.59.13-1.17.26-2.35.4-3.52.03-.18.08-.36.17-.52.74-1.54,1.47-3.08,2.23-4.61.35-.7.78-1.36,1.18-2.04.32-.55.81-.99,1.4-1.23,1.46-.59,2.93-1.17,4.4-1.75.26-.1.53-.17.8-.22.18-.04.38-.05.41.22.06.19-.05.39-.24.44,0,0-.01,0-.02,0-1.59.58-3.17,1.2-4.76,1.79-.66.24-1.22.71-1.56,1.32-.9,1.45-1.68,2.98-2.32,4.57-.1.29-.23.56-.39.81-.62,1-.95,2.15-.96,3.33-.03.5-.05,1-.08,1.5q-.03.68.7.97c.05-.49.1-.96.15-1.44.1-1.48.39-2.95.88-4.35.25-.59.54-1.17.88-1.71.38-.63.8-1.23,1.22-1.84,1.08-1.47,2.72-2.44,4.53-2.68.54-.09,1.1-.13,1.65-.14.54-.02.63.12.48.57-1.03.17-2.03.26-2.99.51-1.44.36-2.67,1.28-3.41,2.57-.09.16-.19.32-.3.46-1.35,1.79-2.12,3.94-2.23,6.17-.07.65-.1,1.31-.18,1.96-.05.23.06.47.27.59.21.14.41.31.61.46"/>
        <path id="Path_2244" data-name="Path 2244" class="cls-2" d="m48.65,68.9c.47.28.9.54,1.34.81.43.28.96.32,1.43.11,1.13-.47,2.38-.54,3.55-.2.89.31,1.85.35,2.76.1.26-.07.5-.22.67-.43.72-1.02,1.72-1.8,2.87-2.26.78-.32,1.38-.97,1.62-1.78.12-.33.25-.66.38-.99.1-.18.04-.4-.14-.5,0,0,0,0,0,0-.44-.29-.85-.61-1.33-.96-.24.37-.52.75-.75,1.15-.31.54-.58,1.09-.87,1.64-.42.82-1.09,1.47-1.91,1.87-.67.36-1.38.64-2.11.85-.54.1-1.09.09-1.62-.01-.58-.11-1.15-.26-1.71-.45-.6-.18-1.25-.21-1.87-.09-.65.07-1.3-.1-1.83-.48-.05-.03-.08-.18-.05-.26.06-.15.13-.29.22-.42.13.09.27.16.42.22.43.1.86.17,1.29.22.64.06,1.28.08,1.91.13.17.03.33.07.49.13,2.52.69,2.01.63,4.57-.47.7-.33,1.27-.88,1.61-1.57.32-.58.61-1.17.92-1.74.13-.24.28-.47.44-.7.37-.53.38-.53.02-1.05-.02-.06-.04-.13-.05-.2.14.07.27.15.39.23.39.3.75.63,1.15.9.53.35,1.1.66,1.65.98.29.14.57.32.83.52.61.58,1.17,1.2,1.75,1.81.06.08.11.16.15.25l-.08.09c-.46-.33-.93-.65-1.38-.99s-.9-.68-1.41-1.07c-.1.19-.18.39-.25.6-.3,1.44-1.35,2.6-2.74,3.06-.69.25-1.28.72-1.67,1.33-.72,1.07-2.04,1.57-3.29,1.25-.72-.08-1.42-.26-2.13-.37-.72-.12-1.46-.02-2.12.28-.71.32-1.53.26-2.18-.17-.18-.1-.37-.21-.55-.32-.56-.34-.57-.36-.38-1.06"/>
        <path id="Path_2245" data-name="Path 2245" class="cls-2" d="m50.9,45.33c.84.14,1.67.35,2.48.63,1.2.53,2.07,1.62,2.33,2.91.23,1.05.68,2.05,1.31,2.92.76.95.92,2.25.42,3.35-.28.72-.55,1.45-.8,2.18-.06.2-.1.41-.12.62-.16,1.16-.72,1.82-2.26,1.97-.9.05-1.79-.24-2.5-.8-.4-.32-.9-.49-1.41-.49-.28-.03-.54-.18-.72-.4-1.43-1.73-2.46-3.75-3.03-5.92-.4-1.7-.13-3.48.75-4.99.31-.53.72-1,1.19-1.4.6-.53,1.4-.46,2.38-.59m-3.94,5.49l.1.03c.01.2.02.39.04.59,0,.13.03.26.06.39.54,2.13,1.53,4.13,2.9,5.86.13.15.31.24.5.25.52,0,1.02.17,1.42.5.66.53,1.49.81,2.35.79.75.05,1.4-.49,1.49-1.24.17-.9.45-1.78.83-2.62.15-.38.27-.77.36-1.17.18-.61.05-1.26-.35-1.75-.76-1.01-1.29-2.17-1.58-3.4-.25-1.26-1.19-2.28-2.42-2.62-.47-.13-.95-.23-1.43-.29-.76-.2-1.57-.07-2.24.35-.55.44-.99,1.01-1.28,1.66-.31.87-.55,1.77-.73,2.68"/>
        <path id="Path_2246" data-name="Path 2246" class="cls-2" d="m77.22,33.62l-1.92,1.23c.13.3.28.62.4.94.55,1.53,1.1,3.07,1.64,4.6.14.4.12.43-.43.71-.06-.13-.12-.25-.17-.38-.56-1.58-1.12-3.17-1.68-4.76-.28-.78-.32-.77-.94-.24-.51.44-1.08.82-1.58,1.19.42.86.93,1.73,1.28,2.66.3.92.56,1.86.76,2.81.09.36-.22.42-.51.58-.07-.23-.14-.42-.19-.61-.22-1.35-.65-2.66-1.27-3.88-.23-.39-.48-.77-.75-1.21l-1.4,1.13-.08-.08c.37-.41.76-.81,1.17-1.18,1.15-.94,2.32-1.86,3.5-2.76.98-.74,1.97-1.49,3.01-2.15,1.11-.7,2.28-1.31,3.42-1.94.14-.06.28-.11.43-.14.03.04.05.08.07.12l-1.01.68c.49.78.98,1.53,1.43,2.3.6.97,1.05,2.04,1.33,3.15.13.59.1.61-.54.88-.02-.3-.07-.59-.15-.88-.21-.66-.47-1.31-.78-1.93-.49-.93-1.07-1.81-1.6-2.71-.16-.27-.29-.31-.58-.09-.62.45-1.27.87-1.94,1.26-.27.16-.35.31-.25.6.54,1.8,1.25,3.55,2.11,5.22.06.12.13.29.09.39-.08.13-.21.23-.36.28-.06.02-.2-.14-.26-.24-.85-1.56-1.54-3.2-2.05-4.9-.07-.2-.13-.4-.21-.62"/>
        <path id="Path_2247" data-name="Path 2247" class="cls-2" d="m31.88,85.99l.61-1.21c-1.67-1.49-3.3-2.95-4.94-4.41-.59-.53-1.18-1.05-1.78-1.56-.23-.19-.29-.33-.08-.57s.36-.1.52.04c1.66,1.49,3.32,2.99,4.99,4.48.44.39.92.74,1.38,1.11.21.17.38.18.53-.09.25-.43.54-.83.84-1.28-.85-.86-1.64-1.76-2.53-2.54-.94-.82-1.82-1.71-2.61-2.68-.3-.37-.64-.7-.96-1.05-.12-.13-.26-.24-.09-.43.16-.18.33-.23.51-.08.25.21.49.44.7.69.94,1.19,1.99,2.28,3.15,3.26.59.5,1.08,1.11,1.62,1.67.21.21.43.41.68.65.28-.39.53-.75.78-1.1.18-.25.14-.42-.09-.63-1.28-1.12-2.38-2.43-3.25-3.89-.53-.92-1.05-1.85-1.59-2.76-.25-.42.1-.54.34-.78,1.53,2.49,2.68,5.21,5.12,7l1.52-1.83.08.04c-.06.18-.11.36-.18.53-.5,1.16-1.18,2.24-2.01,3.19-.58.71-1.18,1.42-1.73,2.16-.41.56-.76,1.16-1.13,1.75-.09.14-.18.27-.27.41l-.13-.08"/>
        <path id="Path_2248" data-name="Path 2248" class="cls-2" d="m19.02,39.15c-.25.93-.49,1.84-.75,2.75-.3,1.05-.58,2.1-.93,3.13-.39,1.28-.43,2.63-.12,3.93.1.54.21,1.08.29,1.63.05.31.18.41.48.35.54-.12,1.07-.26,1.62-.34.78-.11,1.56-.2,2.35-.24.37-.02.48-.14.53-.5.16-1.55.01-3.11-.42-4.6-.36-1.55-.43-3.16-.2-4.74.02-.11.05-.23.09-.34.34.05.63.1.57.51-.22,1.83-.08,3.69.43,5.47.29,1.22.35,2.48.19,3.72-.01.09,0,.18,0,.35.86-.16,1.74-.12,2.57.13v.11c-.11.03-.22.06-.34.08-1.97.23-3.94.46-5.91.68-.1,0-.21.03-.31.06-1.47.54-2.96.16-4.45.19-.01-.04-.02-.08-.03-.13.13-.05.26-.1.39-.13.48-.07.97-.13,1.45-.17.32-.02.4-.13.34-.45-.17-.9-.33-1.81-.47-2.72-.13-.85-.07-1.71.18-2.53.57-1.96,1.11-3.92,1.68-5.88.17-.58.18-.58.78-.34"/>
        <path id="Path_2249" data-name="Path 2249" class="cls-2" d="m65.4,31.94l-1.79,2.63c.44.4.96.89,1.48,1.36.59.58,1.07,1.26,1.44,2.01.69,1.26,1.44,2.5,2.14,3.76.59,1.06,1.15,2.13,1.73,3.19.22.41-.17.5-.36.78-.18-.35-.32-.64-.49-.92-.79-1.38-1.6-2.74-2.38-4.13-.4-.71-.77-1.44-1.11-2.18-.68-1.31-1.67-2.44-2.87-3.3-.22-.17-.31-.05-.44.1-.6.68-1.2,1.36-1.82,2.02-.29.31-.65.57-1.01.89.17.15.3.26.43.36.46.35.92.71,1.38,1.06.89.68,1.5,1.65,1.73,2.74.12.51.19,1.04.35,1.54.15.47-.05.71-.48.96-.06-.26-.12-.5-.17-.73-.12-.54-.24-1.08-.35-1.62-.19-.92-.71-1.75-1.45-2.34-.59-.48-1.21-.92-1.83-1.39l-1.22,1.37-.1-.07c.04-.12.1-.24.17-.35.62-.82,1.23-1.64,1.86-2.44.61-.77,1.23-1.54,1.89-2.27.93-1.02,1.91-2,2.87-2.99.09-.07.18-.13.28-.17l.13.12"/>
        <path id="Path_2250" data-name="Path 2250" class="cls-2" d="m25.33,77.49c.38-.62.8-1.23,1.26-1.8.37-.34.42-.91.11-1.31-.41-.82-.78-1.66-1.11-2.52-.2-.49-.15-.56.36-.82l1.57,3.66c.44-.49.79-.88,1.14-1.27.23-.3.48-.59.74-.87.23-.18.31-.5.18-.76-.28-.82-.54-1.65-.78-2.48-.19-.63-.17-.63.39-1.04.34,1.12.68,2.23,1.03,3.38l1.26-.98.11.11c-.07.12-.15.24-.24.35-.9,1.06-1.8,2.12-2.7,3.18-.14.19-.3.37-.48.52-1.29,1.06-2.4,2.32-3.31,3.73-.09.12-.19.24-.28.36l-.13-.06c.05-.18.13-.35.23-.5.25-.28.15-.45-.06-.69-.85-.95-1.69-1.91-2.52-2.88-.2-.23-.36-.48-.53-.72.44-.42.51-.42.85-.02.95,1.12,1.91,2.24,2.91,3.41"/>
        <path id="Path_2251" data-name="Path 2251" class="cls-2" d="m68.1,77.47c-.33-.42-.65-.84-.98-1.26-.39-.5-.37-.47-.93-.17-.86.47-1.73.94-2.63,1.33-.5.22-.62.08-.73-.55,1.25-.27,2.42-.83,3.41-1.64-.4-.41-.78-.8-1.18-1.17-.09-.05-.21-.06-.31-.02-.95.33-1.95.47-2.95.41-.18,0-.37-.31-.53-.54,1.09-.23,2.21-.05,3.2-.52l-1.57-3.09.12-.08c.06.05.11.11.15.17.96,1.8,2.22,3.42,3.73,4.8.62.63,1.06,1.4,1.3,2.25l-.09.08"/>
        <path id="Path_2252" data-name="Path 2252" class="cls-2" d="m46.7,59.4c-.64,1.68-.7,3.57-1.78,5.09l-.13-.03c0-.14.02-.28.06-.41.35-.82.57-1.69.66-2.58.05-.22-.05-.44-.24-.56-2.6-1.66-3.68-4.28-4.45-7.09-.01-.09-.02-.18-.02-.27.51-.1.63-.02.76.45.49,2.21,1.63,4.22,3.28,5.77.05.04.1.09.15.13q.78.62,1.31-.22c.09-.13.2-.25.31-.37l.12.07"/>
        <path id="Path_2253" data-name="Path 2253" class="cls-2" d="m49.24,29.42v2.28c0,.52.03,1.05.02,1.57,0,.22.07.31.28.34.74.13,1.47.29,2.21.41.24.04.32.13.27.36-.04.21-.05.4-.35.34-.69-.14-1.4-.25-2.09-.41-.3-.07-.42,0-.41.3,0,.51,0,1.03,0,1.54-.04.23.12.44.35.47.01,0,.03,0,.04,0,.59.13,1.17.31,1.75.48.51.16.55.25.34.82l-2.49-.71-.27,1.65h-.13c-.02-.13-.03-.26-.03-.39.16-1.25.16-2.52,0-3.78-.07-.59.06-1.21.02-1.81,0-1.13.11-2.26.34-3.37.01-.05.03-.09.04-.13h.11"/>
        <path id="Path_2254" data-name="Path 2254" class="cls-2" d="m61.83,58.85c.31.18.62.33.95.47.44.16.9.26,1.35.38.27.07.53.15.79.24,1.26.52,2.52,1.05,3.78,1.58.14.07.26.18.34.31-.67.05-1.34-.04-1.98-.24-.63-.23-1.23-.53-1.91-.82-.12.31-.24.65-.36.99-.14.4-.26.8-.39,1.2-.06.2-.12.37-.41.26-.24-.09-.34-.19-.24-.47.25-.68.46-1.37.72-2.05.13-.35.04-.5-.31-.58-.68-.15-.68-.16-1,.45-.28.52-.57,1.03-.85,1.54-.62-.27-.62-.29-.33-.79.3-.52.58-1.06.88-1.6l-1.12-.78s.06-.08.09-.11"/>
        <path id="Path_2255" data-name="Path 2255" class="cls-2" d="m33.2,84.93c.31-.57.35-.59.83-.22.43.33.85.66,1.33,1.04l.81-1.39c-.47-.36-.89-.69-1.32-1-.27-.19-.16-.36-.01-.56.17-.23.31-.08.46.03.31.24.63.47.95.7.18.13.31.07.42-.1.21-.33.42-.67.65-.99.15-.22.09-.35-.11-.48-.34-.22-.66-.46-1.02-.71l.43-.53,1.04.71.99-1.68.09.05c-.67,2.47-1.9,4.75-3.59,6.66l-1.94-1.54"/>
        <path id="Path_2256" data-name="Path 2256" class="cls-2" d="m50.65,47.49c.63.1,1.25.25,1.86.44,1.03.39,1.71,1.37,1.71,2.47.1,1,.26,2,.47,2.99.16.63.16,1.28,0,1.91-.31,1.05-1.26,1.36-2.03.59-.42-.47-1-.77-1.63-.85-.82-.13-1.44-.8-1.52-1.62-.08-.59-.35-1.13-.77-1.55-.63-.65-.84-1.6-.55-2.46.21-1.15,1.27-1.95,2.44-1.83,0-.03.01-.07.02-.1m-1.9,2.6l-.1.04c.11.42.29.82.53,1.19.55.57.91,1.29,1.01,2.07.12.62.68,1.06,1.32,1.01.48-.07.95.15,1.21.56.16.21.35.39.56.54.28.19.51.11.67-.21.21-.41.26-.89.14-1.34-.33-1.27-.53-2.57-.6-3.88-.03-.38-.21-.74-.49-.99-.9-.9-2.02-.82-3.14-.75-.09.02-.18.06-.24.12-.53.39-.85.99-.88,1.65"/>
        <path id="Path_2257" data-name="Path 2257" class="cls-2" d="m50.17,51.21c-.05-.72.49-1.34,1.2-1.4.54.01.96.45.95.99,0,.02,0,.04,0,.06,0,.83-.49,1.4-1.18,1.38-.52,0-.95-.41-.96-.93,0-.03,0-.06,0-.09m1.46-.46c-.06-.05-.18-.2-.31-.22-.24-.03-.49.32-.48.62,0,.21.06.39.33.39s.47-.29.46-.79"/>
      </g>
    </g>
  </g>
</svg>