<?xml version="1.0" encoding="UTF-8"?>
<svg id="Layer_1" data-name="Layer 1" xmlns="http://www.w3.org/2000/svg" xmlns:xlink="http://www.w3.org/1999/xlink" viewBox="0 0 105 105">
  <defs>
    <style>
      .cls-1 {
        fill: none;
      }

      .cls-1, .cls-2 {
        stroke-width: 0px;
      }

      .cls-2 {
        fill: #fff;
      }

      .cls-3 {
        clip-path: url(#clippath);
      }
    </style>
    <clipPath id="clippath">
      <rect class="cls-1" x="7.74" y="10.1" width="89.52" height="84.81"/>
    </clipPath>
  </defs>
  <g id="Group_876" data-name="Group 876">
    <g class="cls-3">
      <g id="Group_359" data-name="Group 359">
        <path id="Path_3137" data-name="Path 3137" class="cls-2" d="m54.39,94.92c-20.26-.01-36.56-10.51-43.26-26.84-5.04-12.31-4.59-24.53,2.25-36.06,7.12-12.01,18.06-19.31,32.51-21.37,8.09-1.24,16.37-.42,24.06,2.39,7.09,2.59,13.28,7.18,17.82,13.21,6.02,7.88,9.55,16.62,9.49,26.47.06,10.59-4.11,20.77-11.59,28.27-8.14,8.65-19.41,13.66-31.29,13.92m27.36-55.85c3.98.13,7.54-2.44,8.67-6.26.1-.4.06-.83-.13-1.2-1.79-3.13-3.98-6.01-6.53-8.56-.31-.29-.71-.48-1.13-.53-4.93-.48-9.46,3.1-9.7,7.64-.19,4.73,3.49,8.71,8.22,8.9.2,0,.4,0,.6,0m-29.31,6.02c-5.02-.02-9.02,3.61-9.03,8.19.14,4.76,4.11,8.51,8.87,8.39,4.87,0,8.9-3.68,8.92-8.18.03-4.74-3.78-8.39-8.77-8.4m2.84-26c-.06-3.43-2.18-6.48-5.38-7.74-.34-.14-.71-.2-1.07-.17-2.37.34-4.74.7-7.1,1.1-.45.09-.88.29-1.24.57-3.01,2.35-3.88,6.53-2.05,9.88,1.99,3.56,6.12,5.36,10.08,4.38,3.85-.78,6.65-4.11,6.76-8.03m31.32,38.15c-3.21.06-6.1,1.96-7.43,4.88-1.54,2.94-.95,6.54,1.44,8.83,2.5,2.7,5.7,3.42,9.32,2.47.36-.1.68-.33.89-.64,1.95-3.21,3.4-6.71,4.29-10.36.07-.38,0-.78-.19-1.11-1.67-2.76-4.22-4.08-8.32-4.08m-62.94,10.27c-3.71-.11-7.1,2.11-8.48,5.56-.11.35-.07.72.11,1.04,2.28,3.61,5.11,6.84,8.38,9.58.29.23.66.35,1.04.34,4.56-.29,8.02-4.23,7.73-8.79-.29-4.56-4.23-8.02-8.79-7.73m2.14-27.13c0-5.59-5.65-9.61-11.29-8.01-.29.09-.54.29-.7.55-2.02,3.58-3.45,7.46-4.23,11.5-.05.29.02.59.19.83,2.37,2.93,6.29,4.12,9.89,2.99,3.55-.99,6.05-4.17,6.15-7.86m34.28,38.3c-5.19-.03-8.67,2.26-9.84,5.66-1.16,3.47.16,7.28,3.21,9.29.38.25.83.37,1.29.37,3.49-.12,6.95-.68,10.3-1.65.39-.12.73-.35.97-.67,1.93-2.44,2.16-5.81.59-8.49-1.6-2.99-4.2-4.47-6.52-4.5m-26.85-32.68c.68-1.2,1.33-2.31,1.96-3.43.07-.15.12-.31.14-.47.33-2.2.22-4.45-.32-6.61-.62-2.4-1.47-4.71-3.86-6.14l-6.48,5.39c1.8,2.23,2.45,5.18,1.74,7.96-.03.13.2.39.38.47.62.3,1.27.54,1.9.81,1.53.67,3.05,1.35,4.55,2.02m19.43-10.96c-5.54-.06-10.26,1.42-14.19,5.12l6.71,6.8c.09-.03.17-.08.26-.13,1.71-1.55,3.89-2.46,6.19-2.6.24-.08.42-.27.49-.51.12-.89.2-1.78.25-2.67.11-1.97.2-3.94.3-6.02m-34.61,14.43c.2,1.94.4,3.81.59,5.65.11.03.22.05.32.06,1.95.1,3.9.21,5.85.29.31.02.63-.06.9-.22,1.23-.74,2.42-1.55,3.55-2.43,1.71-1.44,3.31-2.98,3.63-5.33.07-.5,0-.71-.48-.91-1.72-.74-3.41-1.51-5.12-2.26-.42-.18-.85-.34-1.29-.51-1.49,3.13-4.5,5.27-7.95,5.65m41.56-2.26l6.9-5.42c-3.1-4.04-7.84-6.48-12.92-6.68-.18,3.08-.35,6.08-.53,9.14,2.5.06,4.86,1.13,6.55,2.97M14.75,31.37c3.61-.51,6.78.07,9.35,2.66l6.51-5.42c-.55-.66-1.05-1.38-1.48-2.12-.67-1.25-1.75-2.22-3.05-2.77-.94-.47-1.94-.84-2.9-1.27-.4-.21-.89-.1-1.17.25-2.57,2.37-4.85,5.03-6.81,7.92-.14.21-.27.43-.46.74m34.09,55.77c0-.22.03-.45.07-.67.31-1.18.57-2.38.97-3.53.17-.35.12-.77-.12-1.08-1.53-2.12-3.03-4.26-4.54-6.39-.25-.35-.49-.7-.77-1.1-3.72,2.72-6.2,6.81-6.89,11.37l11.27,1.4m20.77-30.22c1.7-3.49.24-11.45-2.59-14.28-2.33,1.52-4.52,3.24-6.55,5.14.56,1.57,1.46,2.94,1.45,4.31-.02,1.96,1.04,2.59,2.64,3.06.54.16,1.06.41,1.59.59,1.16.4,2.32.78,3.47,1.17m-55.46,15.57l.27-.05c.88-1.92,2.35-3.52,4.19-4.55.18-.18.26-.44.21-.69-.5-2.43-1.03-4.85-1.56-7.27-.25-1.17-.52-2.33-.79-3.55-2.42.45-4.73,1.39-6.78,2.77-.16.18-.22.43-.16.67.63,2.28,1.17,4.58,1.98,6.8.73,2.01,1.75,3.92,2.64,5.88m11.97-5.61c.63-3.16,1.24-6.22,1.81-9.28.03-.16-.26-.5-.46-.54-1.61-.37-3.22-.78-4.85-.99-1.75-.22-3.51-.17-5.24.16l2.42,11.1c2.03-.71,4.21-.87,6.32-.45m11.91-2.74c3.03,3.09,7.03,5.03,11.33,5.49,1.1.13,1.12.11,1.42-.94.57-2.02,1.13-4.04,1.72-6.16-2.77.04-5.44-1.03-7.41-2.98l-7.06,4.59m6.62-16.49l-6.74-6.83c-.12.05-.17.06-.2.09-2.48,2.52-4.06,5.78-4.49,9.28-.06.45.11.61.54.73,2.71.75,5.41,1.53,8.11,2.29.18.05.37.09.63.15.02-2.09.78-4.11,2.15-5.7m-11.56,3.89c-.13,4.39,1.42,8.66,4.34,11.94l7.09-4.6c-.97-1.24-1.62-2.71-1.9-4.26-.05-.17-.18-.31-.35-.38-3-.9-6-1.77-9.17-2.7m49.03,21.91c-.1-.14-.13-.22-.19-.25-1.58-.99-2.85-2.42-3.66-4.1-.18-.19-.44-.28-.7-.25-1.55.19-3.09.43-4.63.65-1.26.17-2.53.33-3.86.5.83,3.62,2.74,6.91,5.47,9.42l7.57-5.98m-7.56-48.84l-7.79-4.81c-2.11,2.89-3.24,6.37-3.24,9.94l8.5.43c.15-2.1,1.05-4.07,2.53-5.56m-37.24,61.98c.09,1.53.17,2.95.24,4.38,0,.44.32.82.76.89,4.37,1.39,8.92,2.13,13.5,2.18.13,0,.27-.02.4-.05-.74-.82-1.41-1.7-2.02-2.62-.46-.98-.86-1.99-1.2-3.02-.14-.2-.36-.34-.6-.37-1.98-.28-3.97-.55-5.96-.8-1.64-.21-3.28-.38-5.14-.59m18.08-16.13c-3.66.16-7.2,1.34-10.22,3.4,1.84,2.6,3.65,5.16,5.49,7.77,1.18-1.46,2.72-2.58,4.47-3.25.19-.14.31-.37.31-.61,0-1.27-.03-2.55-.05-3.82,0-1.13,0-2.26,0-3.49m30.41-31.2c-.93.25-1.87.44-2.81.58-.93.09-1.88-.04-2.81,0-.26.04-.48.19-.62.41-.59,1.12-1.12,2.26-1.68,3.39-.53,1.08-1.06,2.17-1.62,3.34,3.73,1.21,7.72,1.3,11.5.27-.67-2.73-1.31-5.36-1.95-7.98m-21.05-20.06c.06-.2.1-.41.14-.62.19-1.9.08-3.83-.31-5.7-.11-.51-.38-.68-.87-.78-3.76-.76-7.59-1.12-11.43-1.09-.21,0-.42.03-.65.05.04.1.05.16.08.18,2.12,1.36,3.65,3.48,4.27,5.93.1.22.3.39.53.45,2.71.54,5.43,1.04,8.23,1.57m10.43,60.79c1.75,1.46,3.74,2.6,5.88,3.37.38.18.83.09,1.11-.22,2.73-2.38,5.15-5.09,7.2-8.07.12-.18.23-.37.43-.69-2.04.51-4.19.38-6.16-.36-.39-.2-.87-.12-1.18.19-1.89,1.55-3.82,3.07-5.74,4.6-.49.39-1,.75-1.54,1.17m2.18-28.7l4.74,6.44c1.58-.87,3.34-1.34,5.14-1.38.15,0,.37-.32.4-.51.12-.74.17-1.5.27-2.25.23-1.68.48-3.35.74-5.14-3.96-.19-7.89.8-11.29,2.84m4.85-29.73c-2.91-2.67-6.22-4.88-9.81-6.52-.27-.07-.55-.01-.78.15-.9.67-1.78,1.35-2.62,2.09-.62.55-1.15,1.2-1.74,1.83,2.6,1.61,5.08,3.16,7.59,4.68.25.08.52.04.74-.1,1.24-.94,2.68-1.57,4.21-1.84.75-.13,1.51-.18,2.42-.28M9.31,46.14c-.07.21-.12.42-.16.64-.1,2.7-.26,5.41-.26,8.11,0,1.4-.11,1.1,1.22,1.56.57.28,1.2.41,1.84.38,1.92-.49,3.8-1.15,5.78-1.78-.18-1.73-.37-3.61-.57-5.55-2.98.07-5.84-1.16-7.85-3.36m82.16-12.73l-.27.06c-.77,2.18-2.3,4.01-4.31,5.15-.15.16-.21.38-.17.59.19.88.43,1.74.64,2.62.42,1.69.83,3.39,1.25,5.15,2.35-.74,4.53-1.94,6.41-3.55.12-.19.15-.42.08-.63-.26-.99-.56-1.96-.92-2.91-.87-2.17-1.81-4.32-2.72-6.48m-54.7,31.4c-1.83-3.16-4.59-5.68-7.9-7.22-.63,3.17-1.24,6.19-1.82,9.22,0,.15.07.3.19.39,1.23.72,2.47,1.42,3.81,2.18l5.72-4.57m1.97-51.72c-.24.07-.49.13-.74.21-3.15,1.03-6.17,2.43-9.01,4.16-1.97,1.2-2,1.21-1.4,3.39.31,1.1.74,2.17,1.16,3.38,2.66-1.11,5.16-2.13,7.64-3.2.2-.16.31-.4.29-.66-.24-1.55-.05-3.14.54-4.59.42-.92.99-1.77,1.51-2.69m30.67,44.73l-7.45-2.74c-.46,2.1-1.64,3.97-3.32,5.3,1.45,2,2.85,3.92,4.28,5.9,3-2.07,5.27-5.03,6.5-8.46m-9.66-28.78c2.49-2.44,4.2-5.58,4.91-9l-8.5-1.6c.14,2.07-.45,4.12-1.67,5.79l5.27,4.81m35.73,31.45c.06-.09.1-.19.14-.29.63-3.17.85-6.42.66-9.65-.06-.26-.24-.48-.49-.59-1.03-.39-2.09-.73-3.16-1.01-.97-.24-1.97-.33-3.08-.51-.37,2.74-.73,5.34-1.09,7.96,2.84.21,5.43,1.72,7.02,4.09m-25.52-.8c-1.23,3-1.58,6.28-1.03,9.47l8.88-1.21c-.4-1.5-.43-3.08-.1-4.6,0-.19-.09-.38-.25-.48-2.45-1.06-4.92-2.09-7.5-3.18m3.98-23.46l-6.56,4.58c2.1,2.64,4.87,4.66,8.02,5.86,1.18-2.41,2.31-4.73,3.49-7.13-1.94-.57-3.67-1.73-4.94-3.31m-.71-.58c-.43-1.43-.87-2.64-1.13-3.87-.12-.57-.26-.79-.89-.82-2.33-.08-4.65-.22-6.97-.33-.21-.01-.42,0-.71,0,.17,3.41,1.33,6.7,3.32,9.46l6.38-4.44m7.99,22.34l-4.61-6.26c-2.67,1.84-4.84,4.31-6.31,7.2l7.6,3.11,3.32-4.05m-40.56-31.5l-3.55,6.07c3.42,1.71,7.27,2.36,11.07,1.88-.3-2.05-.57-3.99-.88-5.92-.02-.14-.33-.33-.5-.33-2.17.07-4.31-.53-6.13-1.72m-4.33,5.64l3.48-5.96-3-4.32-7.6,3.09c1.66,3.01,4.13,5.5,7.12,7.19m17.59-7.22c-1.53,1.65-3.56,2.75-5.77,3.14.31,2.09.61,4.13.93,6.29,3.73-.55,7.22-2.18,10.03-4.7l-5.18-4.74m4.05,36.07c-.89.48-1.84.84-2.83,1.08-1.54.17-2.02.95-2.28,2.27-.35,1.8-.94,3.55-1.45,5.42,3.8.07,7.53-.98,10.74-3l-4.18-5.77m7.71,11.55c-.65,2.08-1.29,4.06-1.87,6.06-.05.17.17.5.36.63,1.24.81,2.27,1.9,3,3.18.33.58.61,1.18.92,1.8l5.14-3.86c-1.67-3.31-4.31-6.03-7.56-7.81m-2.82,6c.65-2.07,1.29-4.05,1.87-6.04.04-.15-.21-.51-.4-.58-1.08-.42-2.18-.76-3.31-1.01-1.53-.28-3.1-.39-4.64-.57v7.68c2.17-.41,4.41-.23,6.48.53m-29.26-3.57c1.6-.12,3.35-.29,5.1-.38.63-.03.77-.27.76-.83-.06-2.71-.76-5.37-2.04-7.76-.08-.13-.18-.25-.28-.37l-5.58,4.46c.69,1.65,1.33,3.19,2.03,4.87m33.58,16.59c.15.02.2.05.24.03,2.53-1.13,5.06-2.25,7.57-3.41.2-.17.31-.43.29-.7-.04-.82-.14-1.64-.32-2.45-.33-1.28-.79-2.54-1.24-3.97-1.85,1.42-3.51,2.68-5.15,3.96-.13.12-.2.3-.19.48.35,2.09-.07,4.24-1.19,6.05m3.75-35.53c2.38-3.25,5.63-5.76,9.38-7.25-4.12-.48-8.01-2.13-11.22-4.75,1.98,3.67,2.63,7.91,1.84,12m-39.5,25.27l5.1,2.17c1.55-2.03,3.04-6.47,2.7-8.07l-5.84.46c-.04,1.98-.73,3.89-1.96,5.45m7.04-15.41c1.71,3.55,2.28,7.54,1.64,11.42,2.49-3.05,5.77-5.38,9.48-6.71-4.09-.45-7.95-2.09-11.12-4.71m15.14-31.74c4.06.27,7.93,1.78,11.09,4.34-1.81-3.55-2.49-7.57-1.95-11.52-2.32,3.19-5.49,5.68-9.14,7.18m15.79,39.72c-1.62-3.59-2.07-7.6-1.27-11.46-2.47,3.32-5.89,5.81-9.81,7.15,6.93,1.45,5.64.87,11.08,4.3m-33.39,10.42c-.08-.08-.17-.14-.27-.2-1.51-.65-3.02-1.31-4.55-1.91-.29-.04-.58.04-.8.23-1.17,1.02-2.54,1.76-4.03,2.18-.36.1-.74.18-1.1.27l-.09.24c1.92,1.2,3.83,2.4,5.76,3.58.18.06.37.04.53-.05,1.76-1.17,3.3-2.64,4.56-4.34m8.01-48.78c-3.2-.37-6.29-1.41-9.06-3.06,1.08,2.67,1.58,5.53,1.46,8.41,2.14-2.28,4.72-4.11,7.59-5.35m-17.28,20.42c2.57.75,4.95,2.02,7,3.73-1.13-2.58-1.66-5.38-1.56-8.2l-5.44,4.47m39.12-36.69l5.07-4.93-5.46-1.82c.14,1.32.31,2.44.37,3.57.06,1.15.01,2.3.01,3.19m14.86,65.17l-6.02-3.44,1.72,6.47,4.31-3.02m15.49-35.4c-.23-1.52-.47-3.06-.7-4.55l-5.48,3.11,6.18,1.44m-59.64,42.32v-5.59l-4.02,3.83,4.02,1.76M27.39,23.37l-1.15-4.11-2.87,2.26,4.02,1.85M10.59,57.54l-1.51-.5c.07.48.12.83.19,1.28l1.32-.78"/>
        <path id="Path_3138" data-name="Path 3138" class="cls-2" d="m82.88,28.2c-.26,1.91-1.71,3.45-3.6,3.84-1.08.11-2.13-.39-2.71-1.3-.54-.77-.51-1.79.06-2.53.61-1.06,1.59-1.86,2.75-2.26,1.28-.54,2.76.06,3.3,1.35.12.29.19.6.2.91m-.9-.01c-.04-.91-.81-1.62-1.72-1.58-.23,0-.46.07-.67.17-.91.35-1.68,1-2.18,1.84-.41.46-.44,1.15-.09,1.65.41.63,1.14.98,1.89.91,1.42-.37,2.5-1.54,2.76-2.99"/>
        <path id="Path_3139" data-name="Path 3139" class="cls-2" d="m84.67,32.39c0-1.11.84-2.03,1.94-2.11.8.03,1.42.7,1.39,1.5,0,.01,0,.02,0,.04,0,1.07-.78,2.06-1.61,2.05-.86.09-1.62-.54-1.71-1.39,0-.03,0-.06,0-.08m2.42-.81c-.12-.09-.34-.37-.6-.41-.43-.06-1.01.67-.89,1.18.14.29.4.51.71.6.34.1.8-.62.78-1.38"/>
        <path id="Path_3140" data-name="Path 3140" class="cls-2" d="m53.46,51.93c0,1.58-.58,3.11-1.64,4.29-1.15,1.37-3.18,1.54-4.55.4-.47-.39-.82-.91-1-1.5-.37-1.04-.33-2.18.13-3.19.3-.7.68-1.36,1.13-1.98.96-1.41,2.89-1.77,4.3-.8.34.23.63.53.85.87.34.6.6,1.24.78,1.91m-6.56,2.02c.1.46.25.91.44,1.34.52,1.09,1.82,1.55,2.91,1.03.14-.07.27-.15.39-.24,1.42-1.01,2.11-2.75,1.78-4.46-.16-.62-.5-1.17-.97-1.6-.73-.73-1.9-.77-2.69-.11-1.12,1.05-1.79,2.5-1.86,4.04"/>
        <path id="Path_3141" data-name="Path 3141" class="cls-2" d="m55.57,58.74c-.81.02-1.49-.62-1.52-1.44,0-.02,0-.04,0-.06.14-1.08.99-1.93,2.07-2.08.87.1,1.53.85,1.5,1.73-.1,1.05-1,1.86-2.06,1.85m1.16-2.1l-.65-.62c-.39.39-.75.8-1.09,1.23-.04.06.35.54.6.6.5.11,1.13-.49,1.14-1.22"/>
        <path id="Path_3142" data-name="Path 3142" class="cls-2" d="m46.52,19.17c.2-.87.46-1.72.81-2.55.66-1.22,2.03-1.89,3.4-1.66,1.24.17,2.23,1.11,2.45,2.34.47,1.36.31,2.86-.42,4.11-.45.71-1.06,1.29-1.78,1.71-1.16.75-2.71.41-3.46-.75-.09-.14-.17-.29-.23-.45-.33-.9-.58-1.82-.77-2.76m.91.07c.19.84.45,1.67.75,2.47.32.78,1.21,1.15,1.99.83.07-.03.13-.06.19-.09.56-.27,1.06-.67,1.43-1.16.75-1.1.94-2.48.52-3.74-.14-.92-.87-1.64-1.79-1.75-1-.13-1.98.39-2.44,1.29-.27.7-.49,1.42-.65,2.16"/>
        <path id="Path_3143" data-name="Path 3143" class="cls-2" d="m43.81,13.76c1.18-.02,1.87.81,1.57,1.77-.3.93-.99,1.69-1.9,2.06-.67.3-1.45.17-1.99-.33-.48-.53-.55-1.31-.17-1.91.56-.87,1.47-1.45,2.5-1.59m-1.07,3.12c.66-.01,1.81-1.05,1.77-1.69-.09-.26-.3-.46-.57-.53-.78.08-1.49.52-1.89,1.2-.19.33-.06.76.27.94.13.07.27.1.42.08"/>
        <path id="Path_3144" data-name="Path 3144" class="cls-2" d="m87.96,62.71c-.11.57-.31,1.13-.59,1.64-.68.92-1.46,1.77-2.32,2.54-.79.69-1.95.77-2.83.19-.9-.48-1.36-1.51-1.13-2.5.48-1.99,1.96-3.58,3.91-4.2,1.42-.53,2.83.69,2.95,2.33m-.86.05c-.06-.61-.41-1.16-.93-1.48-.49-.28-1.1-.2-1.52.18-.72.56-1.39,1.18-2,1.85-.33.43-.56.93-.65,1.47-.16.63.13,1.28.71,1.58.58.37,1.34.31,1.85-.16.61-.5,1.17-1.07,1.66-1.69.35-.55.64-1.14.88-1.74"/>
        <path id="Path_3145" data-name="Path 3145" class="cls-2" d="m91.04,64.84c-.96.07-1.79-.65-1.86-1.6,0-.03,0-.07,0-.1.12-1.2,1.11-2.13,2.32-2.17.83-.05,1.55.58,1.6,1.41,0,.03,0,.07,0,.1.06,1.22-.85,2.26-2.06,2.37m1.15-2.33c.01-.47-.26-.69-.73-.7-.72.08-1.29.64-1.38,1.35.01.47.4.83.86.82.02,0,.04,0,.07,0,.61.02,1.18-.69,1.19-1.47"/>
        <path id="Path_3146" data-name="Path 3146" class="cls-2" d="m29.55,74.28c.03,1.14-.87,2.09-2.01,2.13-.3,0-.61-.05-.89-.17-1.66-.72-2.81-2.26-3.03-4.05.02-1.13.95-2.02,2.07-2.01.17,0,.34.03.5.07,1.78.62,3.07,2.18,3.36,4.04m-.89-.01c-.3-1.42-1.28-2.61-2.61-3.18-.6-.19-1.25.14-1.45.74-.05.14-.06.29-.05.43.26,1.36,1.13,2.52,2.35,3.15.59.31,1.32.08,1.63-.51.1-.2.15-.42.14-.64"/>
        <path id="Path_3147" data-name="Path 3147" class="cls-2" d="m27.23,80.46c.05.78-.55,1.45-1.33,1.49-.06,0-.11,0-.17,0-1.15-.08-2.06-1-2.12-2.16-.02-.86.64-1.58,1.5-1.63,1.16.17,2.05,1.12,2.12,2.29m-2.73-.89c0,.82.7,1.61,1.24,1.51.27-.09.47-.31.55-.58.1-.59-.67-1.52-1.17-1.42-.28.06-.5.39-.62.5"/>
        <path id="Path_3148" data-name="Path 3148" class="cls-2" d="m22.72,38.89c-.08,1.15-.5,2.25-1.2,3.17-.63.92-1.79,1.33-2.85,1-1.01-.42-1.59-1.5-1.39-2.58.2-1.07.52-2.11.94-3.11.53-1.05,1.71-1.59,2.85-1.29,1.09.26,1.69,1.21,1.66,2.8m-.9.02c.03-1.2-.3-1.81-.97-1.99-.69-.21-1.42.09-1.76.73-.4,1.03-.71,2.09-.91,3.17-.13.62.23,1.24.84,1.43.63.2,1.32-.05,1.69-.6.64-.78,1.03-1.74,1.12-2.75"/>
        <path id="Path_3149" data-name="Path 3149" class="cls-2" d="m13.89,43.24c1.01-.02,1.85.77,1.9,1.78-.04.96-.85,1.71-1.81,1.68-.96.06-1.78-.67-1.83-1.63-.06-.96.67-1.78,1.63-1.83.04,0,.08,0,.11,0m.14,2.61c.45.02.82-.33.84-.78,0-.02,0-.04,0-.06.01-.49-.37-.89-.86-.9-.02,0-.05,0-.07,0-.46-.04-.86.31-.89.76,0,.03,0,.06,0,.08,0,.5.41.91.91.9.02,0,.05,0,.07,0"/>
        <path id="Path_3150" data-name="Path 3150" class="cls-2" d="m57.9,81.95c.74.03,1.47.14,2.19.33.78.26,1.49.69,2.1,1.24.93.9.96,2.39.06,3.32-.25.26-.56.46-.9.58-1.71.78-3.69.76-5.38-.06-.62-.32-1.15-.79-1.54-1.37-.74-1.09-.45-2.57.64-3.31.2-.13.42-.24.65-.31.72-.2,1.45-.34,2.19-.43m.19.86c-.64.06-1.28.16-1.91.31-.87.2-1.42,1.06-1.22,1.93.06.26.18.49.35.69.23.31.52.57.86.76,1.53.81,3.36.84,4.92.09.74-.28,1.11-1.1.84-1.84-.05-.14-.12-.27-.22-.38-.37-.5-.88-.89-1.45-1.13-.71-.21-1.43-.36-2.16-.43"/>
        <path id="Path_3151" data-name="Path 3151" class="cls-2" d="m55.55,92.38c-1.63-.02-2.79-1.03-2.68-2.25,0-.64.52-1.16,1.15-1.18.92-.12,1.84.17,2.53.79.64.51.74,1.45.23,2.09-.3.37-.76.58-1.24.56m-.17-.74c.3-.17.64-.26.71-.44.09-.26.05-.54-.11-.76-.42-.28-.88-.49-1.37-.62-.23-.06-.69.06-.75.21-.1.28-.05.59.13.83.44.3.91.56,1.4.78"/>
      </g>
    </g>
  </g>
</svg>