<?xml version="1.0" encoding="UTF-8"?>
<svg id="Layer_1" data-name="Layer 1" xmlns="http://www.w3.org/2000/svg" viewBox="0 0 325.41 524.78">
  <defs>
    <style>
      .cls-1 {
        stroke-dasharray: 0 0 11.25 11.25;
      }

      .cls-1, .cls-2, .cls-3 {
        fill: none;
        stroke: #fff;
        stroke-linecap: square;
        stroke-miterlimit: 10;
      }

      .cls-4 {
        fill: #fff;
        stroke-width: 0px;
      }

      .cls-2 {
        stroke-dasharray: 0 0 13.17 13.17;
      }
    </style>
  </defs>
  <g id="traditional_paper">
    <path id="paper" class="cls-3" d="m.5,354.54c47.52-32.3,109.94-32.3,157.46,0V36.91C110.44,4.62,48.02,4.62.5,36.91v317.63Z"/>
    <g id="filter">
      <path id="Path_14055" data-name="Path 14055" class="cls-4" d="m316.12,397.85h0v-.02c-.01-3.05-1.93-5.88-5.4-7.98-3.81-2.15-8.13-3.24-12.5-3.15h-.11c-4.41-.07-8.76,1.05-12.59,3.25-3.45,2.13-5.35,4.98-5.34,8.02h0s3.35,118.44,3.35,118.44h0c.03,4.7,6.48,8.37,14.72,8.37h.1c3.59.06,7.14-.77,10.33-2.42,2.81-1.57,4.38-3.68,4.43-5.94h0l2.99-118.57Zm-30.01-6.95c3.65-2.09,7.8-3.15,12-3.07h.11c4.17-.09,8.28.94,11.92,2.99,3.12,1.89,4.85,4.39,4.86,7.03s-1.7,5.15-4.8,7.06c-3.65,2.09-7.8,3.15-12,3.07-9.3.03-16.85-4.45-16.88-10h0c0-2.65,1.7-5.16,4.8-7.07m22.03,130.48c-3.02,1.55-6.39,2.33-9.78,2.27h-.09c-7.49,0-13.59-3.25-13.6-7.26h-.56.56s-3.24-114.37-3.24-114.37c2.62,4.15,9.09,7.08,16.66,7.08h.11c4.41.07,8.76-1.05,12.59-3.25,1.65-.97,3.06-2.3,4.11-3.9l-2.89,114.33h0c0,1.89-1.36,3.7-3.86,5.09"/>
    </g>
    <g id="roll">
      <path id="Path_14056" data-name="Path 14056" class="cls-4" d="m299.38,58.02c-1.03,0-2.06-.06-3.09-.15-.08.07-.16.14-.24.2-.22.2-.48.34-.77.42.12.48.12.99,0,1.48.87.09,1.75.17,2.62.21.07-.05.14-.11.21-.15.52-.25,1.05-.47,1.59-.65.21-.07.43-.15.64-.23.02,0,.05-.02.07-.03.04-.16.07-.33.09-.49-.27-.11-.53-.22-.79-.35-.12-.08-.23-.16-.34-.26"/>
      <path id="Path_14057" data-name="Path 14057" class="cls-4" d="m325.39,48.72h0c-.01-.11-.02-.22-.03-.33-.02-.41-.01-.81,0-1.22v-.3c-.11-.47-.21-.94-.28-1.42,0,.01-.01.03-.02.04-.16-.66-.37-1.31-.64-1.94-.29-.7-.61-1.4-.93-2.09-.41-.49-.81-.98-1.23-1.46-.94-1.04-1.99-1.98-3.13-2.8-.48-.39-.76-.97-.77-1.59,0-.05.01-.1.01-.15-3.77-3.21-7.74-6.38-11.85-9.76h.01s-.2-.11-.2-.11h0l-8.46-6.86-2.92-16.33-.96-2.39h-1.26v10.34l-.08,1.43-.02-.02c-.02.27-.01.54-.02.82l-.62,11.72c-1.91,2.85-4.06,5.53-6.45,8-2.38,2.7-6.51,5.01-5.91,8.3.03.17-.24.36-.45.51-1.91,1.27-3.4,3.08-4.29,5.2-.13.48-.29.95-.46,1.42,0,.04,0,.08,0,.13-.24,1.22-.31,2.47-.2,3.71-.01.22-.03.45-.05.72-.13,1.53,0,3.06.35,4.55l5.83,286.59c-.03,6.12,7.91,11.15,17.72,11.23,7.71.06,14.32-2.96,16.82-7.22.68-1.13,1.05-2.42,1.08-3.74,0-.19,0-.37-.02-.55h0l9.42-294.04c.02-.06.02-.12.03-.18h0c0-.07-.01-.14-.02-.2m-10.51,293.41c-.01.08-.02.16-.04.23,0,.17-.02.34-.03.51.04.27.06.54.06.81-.02,1.15-.34,2.27-.93,3.25-2.29,3.9-8.54,6.67-15.84,6.61-9.21-.07-16.66-4.61-16.62-10.12,0-.09.01-.17.02-.26-.01-.1-.02-.21-.03-.31l-5.87-288.6c.03-.31.09-.61.15-.91.02-.09.05-.19.08-.28-.18-.29-.27-.63-.27-.97.02-.56.07-1.11.12-1.67.8.94,1.55,1.92,2.25,2.94,2.42,2.18,5.29,3.81,8.4,4.77.4-.08.79-.21,1.19-.32.27-.07.55-.09.82-.08-.33-.35-.66-.7-.95-1.08-.21-.27-.43-.54-.62-.83-.9-.31-1.79-.65-2.69-1.04-2.11-.95-4.04-2.27-5.7-3.89-.4-.38-.75-.8-1.06-1.26-.47-.48-.89-1-1.25-1.56.25-.92.67-1.79.89-2.71.07-.26.19-.51.37-.71.11-.64.5-1.19,1.07-1.51.41-.3.89-.47,1.4-.5.02-.05.04-.09.05-.14l.26.12c.45,0,.89.1,1.29.29.35.1.67.27.96.49.07.06.15.11.22.17.2.12.4.24.61.35.44.23.89.44,1.35.64.89.39,1.78.76,2.65,1.19.46.22.93.43,1.38.66.1.04.15.06.17.07l.17.06c.26.09.53.16.79.24.43.12.87.23,1.31.33-2.96-2.05-5.86-3.95-7.69-6.09-2.9-3.4,3.09-5.74,5.61-9.06,3.25,4.65,6.15,8.77,9.04,12.9l1.36-.23c-1.94-5.11-8.69-9.64-8.25-15.69l12.72,8.71c-2.06-4.28-10.56-7.17-10.08-12.43l15.31,11.2c-3.47-4.98-11.82-8.86-12.65-14.67,9.82,5.27,18.46,12.5,25.39,21.24.27.34.43.77.45,1.21.06.08.1.17.14.26.13.22.2.46.21.71.05.16.12.32.15.48.07.31.12.62.16.93.05.16.12.31.16.47.14.47.24.96.27,1.45-.02.02-.03.04-.05.07-.11.76-.33,1.5-.67,2.19-.22.41-.56.74-.99.94-.11.1-.23.19-.36.26-.36.3-.69.62-1.04.93-.36.32-.75.62-1.15.89-.44.27-.91.49-1.39.66-.35.09-.71.1-1.06.04-1.35.65-2.76,1.19-4.2,1.6-1.08.32-2.17.57-3.25.81-.03.03-.05.07-.08.11-.12.18-.26.33-.43.46-.1.09-.18.18-.27.28.97.29,1.93.63,2.86,1.01,1.19-.32,2.37-.7,3.55-1.14,2.91-1.02,5.54-2.68,7.71-4.87.19-.28.4-.55.61-.82l.42-.04c.15-.3.36-.56.63-.76-.02-.2-.01-.4.02-.59l.02-.03-9.33,291.61Z"/>
    </g>
    <g id="dash_1">
      <g>
        <line class="cls-3" x1="170.52" y1="36.91" x2="176.52" y2="36.91"/>
        <line class="cls-2" x1="189.69" y1="36.91" x2="235.77" y2="36.91"/>
        <line class="cls-3" x1="242.36" y1="36.91" x2="248.36" y2="36.91"/>
      </g>
    </g>
    <g id="dash_2">
      <g>
        <line class="cls-3" x1="170.52" y1="354.54" x2="176.52" y2="354.54"/>
        <line class="cls-1" x1="187.77" y1="354.54" x2="249.64" y2="354.54"/>
        <line class="cls-3" x1="255.27" y1="354.54" x2="261.27" y2="354.54"/>
      </g>
    </g>
  </g>
</svg>