<?xml version="1.0" encoding="utf-8"?>
<!-- Generator: Adobe Illustrator 28.0.0, SVG Export Plug-In . SVG Version: 6.00 Build 0)  -->
<svg version="1.1" id="Layer_1" xmlns="http://www.w3.org/2000/svg" xmlns:xlink="http://www.w3.org/1999/xlink" x="0px" y="0px"
	 viewBox="0 0 325.4 524.8" style="enable-background:new 0 0 325.4 524.8;" xml:space="preserve">
<style type="text/css">
	.st0{fill:none;stroke:#FFFFFF;stroke-linecap:square;stroke-miterlimit:10;}
	.st1{fill:#FFFFFF;}
	.st2{fill:none;stroke:#FFFFFF;stroke-linecap:square;stroke-miterlimit:10;stroke-dasharray:0,0,13.17,13.17;}
	.st3{fill:none;stroke:#FFFFFF;stroke-linecap:square;stroke-miterlimit:10;stroke-dasharray:0,0,11.25,11.25;}
</style>
<g id="traditional_paper">
	<path id="paper" class="st0" d="M0.5,354.5c47.5-32.3,109.9-32.3,157.5,0V36.9C110.4,4.6,48,4.6,0.5,36.9V354.5z"/>
	<g id="filter">
		<path id="Path_14055" class="st1" d="M316.1,397.9L316.1,397.9L316.1,397.9c0-3.1-1.9-5.9-5.4-8c-3.8-2.1-8.1-3.2-12.5-3.1h-0.1
			c-4.4-0.1-8.8,1-12.6,3.2c-3.5,2.1-5.4,5-5.3,8l0,0l3.4,118.4l0,0c0,4.7,6.5,8.4,14.7,8.4h0.1c3.6,0.1,7.1-0.8,10.3-2.4
			c2.8-1.6,4.4-3.7,4.4-5.9l0,0L316.1,397.9L316.1,397.9z M286.1,390.9c3.6-2.1,7.8-3.1,12-3.1h0.1c4.2-0.1,8.3,0.9,11.9,3
			c3.1,1.9,4.9,4.4,4.9,7s-1.7,5.1-4.8,7.1c-3.6,2.1-7.8,3.1-12,3.1c-9.3,0-16.9-4.5-16.9-10l0,0C281.3,395.3,283,392.8,286.1,390.9
			 M308.1,521.4c-3,1.5-6.4,2.3-9.8,2.3h-0.1c-7.5,0-13.6-3.2-13.6-7.3h-0.6h0.6L281.4,402c2.6,4.1,9.1,7.1,16.7,7.1h0.1
			c4.4,0.1,8.8-1,12.6-3.2c1.6-1,3.1-2.3,4.1-3.9L312,516.3l0,0C312,518.2,310.7,520,308.1,521.4"/>
	</g>
	<g id="roll">
		<path class="st1" d="M275.6,55.4c-0.1-0.4-0.1-0.7-0.2-1.1c0-0.6,0-1.3,0.1-1.9c0.1-0.7,0.2-1.3,0.6-2c0.3-0.7,0.7-1.3,0.9-2
			c0.1-0.2,0.2-0.4,0.4-0.6c0.1-0.5,0.5-0.9,1.1-1.2c0.4-0.2,0.9-0.4,1.4-0.4c0,0,0-0.1,0-0.1l0.3,0.1c0.5,0,0.9,0.1,1.3,0.2
			c0.4,0.1,0.7,0.2,1,0.4c0.1,0,0.1,0.1,0.2,0.1c0.2,0.1,0.4,0.2,0.6,0.3c0.4,0.2,0.9,0.3,1.4,0.5c0.9,0.3,1.8,0.6,2.6,0.9
			c0.5,0.2,0.9,0.3,1.4,0.5c0.1,0,0.2,0,0.2,0.1l0.2,0c0.3,0.1,0.5,0.1,0.8,0.2c0.4,0.1,0.9,0.2,1.3,0.3c-3-1.6-5.9-3.1-7.7-4.7
			c-2.9-2.6,3.1-4.5,5.6-7c3.2,3.6,6.1,6.8,9,10l1.4-0.2c-1.9-4-8.7-7.5-8.2-12.2l12.7,6.8c-2.1-3.3-10.6-5.6-10.1-9.6l15.3,8.7
			c-3.5-3.9-11.8-6.9-12.6-11.4c9.8,4.1,18.5,9.7,25.4,16.5c0.1,0.1,0.1,0.1,0.1,0.2c0.3,0.2,0.5,0.3,0.6,0.5c0.3,0.6,0.7,1.2,1,1.9
			c0.2,0.5,0.3,1.1,0.5,1.6c0.3,0.7,0.6,1.6,0.2,2.4c0,0,0,0.1-0.1,0.1l-0.2,5.6c0.4,0,0.8,0,1.1,0l0.3-7.5c0,0,0-0.1,0-0.1
			c0-0.1,0-0.1,0-0.2l0,0c0-0.1,0-0.2,0-0.3c0-0.3,0-0.6,0-0.9v-0.2c-0.1-0.4-0.2-0.7-0.3-1.1c0,0,0,0,0,0c-0.2-0.5-0.4-1-0.6-1.5
			c-0.3-0.5-0.6-1.1-0.9-1.6c-0.4-0.4-0.8-0.8-1.2-1.1c-0.9-0.8-2-1.5-3.1-2.2c-0.5-0.3-0.8-0.8-0.8-1.2c0,0,0-0.1,0-0.1
			c-3.8-2.5-7.7-5-11.9-7.6h0l-0.2-0.1l-8.5-5.3L295,15l-1-1.9h-1.3v8l-0.1,1.1l0,0c0,0.2,0,0.4,0,0.6L292,32
			c-1.9,2.2-4.1,4.3-6.5,6.2c-2.4,2.1-6.5,3.9-5.9,6.4c0,0.1-0.2,0.3-0.5,0.4c-1.9,1-3.4,2.4-4.3,4c-0.1,0.4-0.3,0.7-0.5,1.1v0.1
			c-0.2,0.9-0.3,1.9-0.2,2.9c0,0.2,0,0.3,0,0.6c-0.1,1.2,0,2.4,0.3,3.5l0,1.5c0.4,0,0.7,0,1.1,0L275.6,55.4z"/>
		<path class="st1" d="M325.1,58.8c-0.4,0-0.8,0-1.1,0l-9.1,283.3l0,0c0,0.1,0,0.2,0,0.2c0,0.2,0,0.3,0,0.5c0,0.3,0.1,0.5,0.1,0.8
			c0,1.2-0.3,2.3-0.9,3.2c-2.3,3.9-8.5,6.7-15.8,6.6c-9.2-0.1-16.7-4.6-16.6-10.1c0-0.1,0-0.2,0-0.3c0-0.1,0-0.2,0-0.3l-5.8-284.1
			c-0.4,0-0.7,0-1.1,0l5.8,284.6c0,6.1,7.9,11.1,17.7,11.2c7.7,0.1,14.3-3,16.8-7.2c0.7-1.1,1-2.4,1.1-3.7c0-0.2,0-0.4,0-0.5
			L325.1,58.8z"/>
	</g>
	<g id="dash_1">
		<g>
			<line class="st0" x1="170.5" y1="36.9" x2="176.5" y2="36.9"/>
			<line class="st2" x1="189.7" y1="36.9" x2="235.8" y2="36.9"/>
			<line class="st0" x1="242.4" y1="36.9" x2="248.4" y2="36.9"/>
		</g>
	</g>
	<g id="dash_2">
		<g>
			<line class="st0" x1="170.5" y1="354.5" x2="176.5" y2="354.5"/>
			<line class="st3" x1="187.8" y1="354.5" x2="249.6" y2="354.5"/>
			<line class="st0" x1="255.3" y1="354.5" x2="261.3" y2="354.5"/>
		</g>
	</g>
</g>
</svg>
