<svg xmlns="http://www.w3.org/2000/svg" xmlns:xlink="http://www.w3.org/1999/xlink" width="957.375" height="850" viewBox="0 0 957.375 850">
  <defs>
    <clipPath id="clip-path">
      <rect id="Rectangle_907" data-name="Rectangle 907" width="348.344" height="527.951" fill="none"/>
    </clipPath>
    <clipPath id="clip-path-2">
      <path id="Path_5586" data-name="Path 5586" d="M205.88,275.67a42.374,42.374,0,0,0-4.769-80.981Z" transform="translate(-201.111 -194.689)" fill="none"/>
    </clipPath>
  </defs>
  <g id="infused" transform="translate(-303.313 -237)">
    <g id="solid_box" transform="translate(303.313 509.75)" fill="rgba(255,255,255,0.05)" stroke="#ec0719" stroke-width="1">
      <rect width="291.75" height="250.659" stroke="none"/>
      <rect x="0.5" y="0.5" width="290.75" height="249.659" fill="none"/>
    </g>
    <g id="fluid_box" transform="translate(303.313 777.079)" fill="rgba(255,255,255,0.05)" stroke="#ec0719" stroke-width="1">
      <rect width="291.75" height="203" stroke="none"/>
      <rect x="0.5" y="0.5" width="290.75" height="202" fill="none"/>
    </g>
    <g id="paper_box" transform="translate(306.688 237)" fill="rgba(255,255,255,0.05)" stroke="#ec0719" stroke-width="1">
      <rect width="255" height="256" stroke="none"/>
      <rect x="0.5" y="0.5" width="254" height="255" fill="none"/>
    </g>
    <text id="solid_body" transform="translate(362.313 585.75)" fill="#fff" font-size="16" font-family="Acumin VF" font-weight="500"><tspan x="0" y="17">i. Shatter</tspan><tspan x="0" y="43">ii. Hash</tspan><tspan x="0" y="69">iii. Kief</tspan><tspan x="0" y="95">iv. Diamonds</tspan><tspan x="0" y="121">v. Isolate</tspan><tspan x="0" y="147"></tspan></text>
    <text id="fluid_body" transform="translate(362.313 853.079)" fill="#fff" font-size="16" font-family="Acumin VF" font-weight="500"><tspan x="0" y="17">i. Distillate</tspan><tspan x="0" y="43">ii. HTSFE</tspan><tspan x="0" y="69">iii. Live Rosin</tspan><tspan x="0" y="95">iv. FSO</tspan></text>
    <text id="solid_title" transform="translate(362.313 568.75)" fill="#ec0719" font-size="34" font-family="Acumin VF"><tspan x="0" y="0">Solid Concentrates</tspan></text>
    <text id="fluid_title" transform="translate(362.313 836.079)" fill="#ec0719" font-size="34" font-family="Acumin VF"><tspan x="0" y="0">Fluid Concentrates</tspan></text>
    <line id="solid_line" x2="143.438" transform="translate(595.063 541.75)" fill="none" stroke="#ec0719" stroke-width="1"/>
    <g id="sizes_box" transform="translate(960.688 278.5)" fill="rgba(255,255,255,0.05)" stroke="#ec0719" stroke-width="1">
      <rect width="255" height="135" stroke="none"/>
      <rect x="0.5" y="0.5" width="254" height="134" fill="none"/>
    </g>
    <text id="sizes_body" transform="translate(1019.688 350.5)" fill="#fff" font-size="16" font-family="Acumin VF" font-weight="500"><tspan x="0" y="17">0.35g - 1.5g</tspan></text>
    <text id="sizes_title" transform="translate(1019.688 333.5)" fill="#ec0719" font-size="34" font-family="Acumin VF"><tspan x="0" y="0">Sizes</tspan></text>
    <line id="sizes_line" x2="62.313" transform="translate(898.875 343.5)" fill="none" stroke="#ec0719" stroke-width="1"/>
    <path id="compaction_brace" d="M1827.348-3593.5h64.839v543.172h-64.839" transform="translate(-993.313 3842.328)" fill="none" stroke="#ec0719" stroke-width="1"/>
    <g id="roll" transform="translate(550.531 256.774)">
      <g id="Group_535" data-name="Group 535">
        <g id="Group_534" data-name="Group 534" clip-path="url(#clip-path)">
          <circle id="Ellipse_28" data-name="Ellipse 28" cx="42.358" cy="42.358" r="42.358" transform="matrix(0.978, -0.208, 0.208, 0.978, 179.091, 240.384)" fill="none" stroke="#fff" stroke-miterlimit="10" stroke-width="1" stroke-dasharray="12.416 12.416"/>
        </g>
      </g>
      <g id="Group_537" data-name="Group 537" transform="translate(239.431 231.786)">
        <g id="Group_536" data-name="Group 536" clip-path="url(#clip-path-2)">
          <path id="Path_5280" data-name="Path 5280" d="M238.923,277.407c-.964-2.248-2.237-.464-3.234-.564-.065,1.021.148,2.093-.264,2.8a2.5,2.5,0,0,1-2.145,1c-.736-.177-1.36-1.085-1.883-1.786-.294-.4-.14-1.33-.449-1.479-1.649-.793-2.308-1.972-1.279-3.518,1.089-1.635,2.52-.975,3.838-.033,1.26-1.5,2.6-2.214,4.272-.621a1.085,1.085,0,0,0,.929.04c1.411-.562,2.7-.545,3.287,1.058.664,1.816-.442,2.723-2.057,3.189,1.344,2.081,1.333,3.609-.108,4.249a2.08,2.08,0,0,1-3-.944c-.726-1.419-.033-2.542,2.094-3.388" transform="translate(-195.763 -179.901)" fill="#fff"/>
          <path id="Path_5281" data-name="Path 5281" d="M214.586,286.64c.549,1.636.5,3.176-1.36,3.576a2.919,2.919,0,0,1-2.46-1.2c-.951-1.733.391-2.641,1.958-3.385-.414-2.187-.535-4.484-1.342-6.506a7.827,7.827,0,0,0-3.2-3.474c-1.15-.68-2.13-1.268-1.793-2.568.193-.744,1.314-1.9,1.754-1.793a7.266,7.266,0,0,1,2.53,1.823c.174.149.141.537.21.848,2.075.139,3.238,1,2.8,3.256-.049.254.307.723.593.882a2.311,2.311,0,0,1,1.213,3.134,1.417,1.417,0,0,0,.281,1.079c1.542,2.116,1.35,2.981-1.182,4.325" transform="translate(-200.118 -180.094)" fill="#fff"/>
          <path id="Path_5282" data-name="Path 5282" d="M202.427,288.812c.165-1.027.348-2.052.492-3.082a9.088,9.088,0,0,1,.229-2,3.941,3.941,0,0,1,1.332-2.032,2.419,2.419,0,0,1,2.177.327,2.585,2.585,0,0,1,.761,2.083,46.651,46.651,0,0,1-1.37,4.865,22.418,22.418,0,0,1,4.528-.286c.451.057.738,1.419,1.23,2.458,1.261.238,3.1.59,2.524,2.791a2.9,2.9,0,0,1-2.135,1.692c-1.752.056-2.23-1.344-2.177-3.07-.662.058-1.458-.113-1.85.208-1.075.882-2.291,1.536-3.3.451-.694-.75-.721-2.118-.618-3.369l-1.883-1.092Z" transform="translate(-200.871 -178.137)" fill="#fff"/>
          <path id="Path_5283" data-name="Path 5283" d="M172.1,280.3c-2.254-.423-2.6-1.027-1.881-3.724.145-.546-.335-1.249-.217-1.816a3.9,3.9,0,0,1,1.007-2.214,2.4,2.4,0,0,1,2.2-.058,2.694,2.694,0,0,1,1.05,1.967,35.743,35.743,0,0,1-.332,4.37l3.231,1.339c.007-.168.013-.336.019-.5a12.706,12.706,0,0,1,3.755.437c.355.146.349,2.6,0,2.742a10.063,10.063,0,0,1-3.817.314c-1.066.093-2.306.56-3.145.168-.755-.352-1.07-1.647-1.867-3.023" transform="translate(-207.06 -179.911)" fill="#fff"/>
          <path id="Path_5284" data-name="Path 5284" d="M155.828,290.282c-2.144.555-3.588.288-3.8-2.12a1.4,1.4,0,0,0-.78-1c-1.5-.456-2.155-1.543-1.613-2.842a2.966,2.966,0,0,1,2.289-1.479c1.617.058,2.107,1.344,1.9,2.862l.72-.871,3.551,1.885-1.362,1.668c1.576-.63,3.1-.619,3.564,1.23a2.876,2.876,0,0,1-1.083,2.489c-1.676.951-2.718-.188-3.393-1.823" transform="translate(-210.955 -177.892)" fill="#fff"/>
          <path id="Path_5285" data-name="Path 5285" d="M230.139,272.194c-1.116.1-2.324.488-3.309.175a2.5,2.5,0,0,1-.933-2.294c.488-.911,1.627-1.471,2.72-2.362.521-.639,1.117-1.888,2.085-2.348.526-.249,2.449.873,2.432,1.325-.071,1.869,3.18,3.8.141,5.485-.788.436-2.126-.125-3.211-.227l.075.246" transform="translate(-196.4 -181.229)" fill="#fff"/>
          <path id="Path_5286" data-name="Path 5286" d="M155.957,254.363c1.187,1.356,1.612,2.8.126,3.716a3.122,3.122,0,0,1-3-.385c-1.26-1.4-.312-2.68,1.173-3.642-.994-1.38-1.669-2.936.16-3.9a3,3,0,0,1,2.828.539c1.237,1.462.263,2.691-1.291,3.676" transform="translate(-210.373 -184.152)" fill="#fff"/>
          <path id="Path_5287" data-name="Path 5287" d="M201.941,260.394c-1.41.112-3.067.31-3.357-1.5-.154-.957.637-2.067,1.1-3.382-1.27-1.329-1.517-2.687-.269-3.7a2.048,2.048,0,0,1,3.107.26q1.589,1.772-1.3,3.8c2.018,1.285,1.962,2.873.646,4.6Z" transform="translate(-201.596 -183.918)" fill="#fff"/>
          <path id="Path_5288" data-name="Path 5288" d="M214.139,272.093c-1.8,0-3.281-.6-2.854-2.606a2.976,2.976,0,0,1,2.243-1.749c1.769-.025,2.188,1.374,1.977,3.059,1.575.263,3.416.575,2.96,2.745-.155.738-1.829,1.9-2.193,1.712a12.083,12.083,0,0,1-2.663-2.626l.53-.535" transform="translate(-199.187 -180.77)" fill="#fff"/>
          <path id="Path_5289" data-name="Path 5289" d="M225.94,250c1.861-.236,3.284.07,3.462,2a1.969,1.969,0,0,1-2.117,2.289c-2.054.035-2.31-1.435-2.264-3.213-1.745.114-3.514-.127-3.284-2.338a2.949,2.949,0,0,1,2.078-1.972c1.866-.093,2.467,1.274,2.125,3.232" transform="translate(-197.185 -184.767)" fill="#fff"/>
          <path id="Path_5290" data-name="Path 5290" d="M233.463,239.98c1.527-.82,3.162-1.286,3.874.654a3.057,3.057,0,0,1-1.088,2.774c-1.635.86-2.743-.152-3.149-2-1.589.749-3.292,1.343-4.025-.733a2.945,2.945,0,0,1,1.012-2.667c1.764-.967,2.8.241,3.376,1.969" transform="translate(-195.794 -186.5)" fill="#fff"/>
          <path id="Path_5291" data-name="Path 5291" d="M170.477,262.788c-.889,1.625-2.137,2.535-3.586,1.367a3.091,3.091,0,0,1-.53-2.957c.957-1.65,2.451-1.082,3.828,0,.942-1.483,2.186-2.682,3.8-1.223a2.966,2.966,0,0,1,.364,2.839c-.991,1.617-2.46,1.107-3.872-.029" transform="translate(-207.767 -182.375)" fill="#fff"/>
          <path id="Path_5292" data-name="Path 5292" d="M200.894,266.685c-1.516.177-3.063.054-3.145-1.77a3.058,3.058,0,0,1,1.527-2.425c1.819-.626,2.575.782,2.95,2.4,1.594-.087,3.228.039,3.2,2.038a2.914,2.914,0,0,1-1.594,2.192c-1.876.6-2.532-.882-2.938-2.436" transform="translate(-201.752 -181.799)" fill="#fff"/>
          <path id="Path_5293" data-name="Path 5293" d="M167.706,230.988c.864,1.592,1.276,3.129-.546,3.85a3.005,3.005,0,0,1-2.757-.817c-1.162-1.726.2-2.76,1.652-3.557-.866-1.4-1.379-2.935.374-3.743a3.107,3.107,0,0,1,2.9.771c1.119,1.577-.086,2.667-1.622,3.5" transform="translate(-208.189 -188.607)" fill="#fff"/>
          <path id="Path_5294" data-name="Path 5294" d="M162.312,289.851c-1.876-.412-3.032-1.4-2.323-3.119a3,3,0,0,1,2.541-1.326c1.763.282,1.887,1.761,1.4,3.392,1.493.527,3.1,1.269,2.293,3.183a3.038,3.038,0,0,1-2.55,1.322c-1.781-.255-1.892-1.744-1.364-3.451" transform="translate(-208.987 -177.406)" fill="#fff"/>
          <path id="Path_5295" data-name="Path 5295" d="M197.167,209.807c-1.082,1.312-2.413,1.942-3.6.655a3,3,0,0,1-.226-2.874c1.2-1.7,2.66-.939,3.868.361,1.176-1.3,2.55-2.051,3.78-.633a3.015,3.015,0,0,1,.086,2.888c-1.273,1.707-2.7.6-3.906-.4" transform="translate(-202.643 -192.429)" fill="#fff"/>
          <path id="Path_5296" data-name="Path 5296" d="M162.728,262.337c-.39,1.8-1.146,3.18-2.969,2.5a3.013,3.013,0,0,1-1.508-2.436c.219-1.935,1.848-1.913,3.462-1.608.567-1.46,1.2-3.151,3.145-2.372a3,3,0,0,1,1.429,2.476c-.264,1.911-1.833,1.952-3.559,1.439" transform="translate(-209.279 -182.583)" fill="#fff"/>
          <path id="Path_5297" data-name="Path 5297" d="M226.93,278.415c.151,1.849-.221,3.364-2.188,3.175a3.005,3.005,0,0,1-2.091-1.958c-.267-1.9,1.288-2.353,3-2.476-.154-1.652.268-3.2,2.143-3.05a3.139,3.139,0,0,1,2.145,2.137c.187,1.733-1.214,2.3-3.006,2.173" transform="translate(-197.012 -179.559)" fill="#fff"/>
          <path id="Path_5298" data-name="Path 5298" d="M166.056,270.99c-1.906-1.977-3.982-1.582-5.813-2.1a1.7,1.7,0,0,1-.658-2.881c.655-.624,2.392-1.057,2.938-.644a3.3,3.3,0,0,0,3.014.62,1.767,1.767,0,0,1,2.156,2.089c-.111.891-.917,1.693-1.637,2.919" transform="translate(-209.129 -181.254)" fill="#fff"/>
          <path id="Path_5299" data-name="Path 5299" d="M153.921,260.44c1.423-.819,2.949-1.442,3.823.315a3,3,0,0,1-.564,2.809c-1.481,1.241-2.682.232-3.6-1.223-1.4.916-2.958,1.5-3.912-.324a2.857,2.857,0,0,1,.487-2.687c1.523-1.291,2.825-.374,3.766,1.11" transform="translate(-210.942 -182.489)" fill="#fff"/>
          <path id="Path_5300" data-name="Path 5300" d="M167.3,281.06c-.5,1.6-1.46,2.784-3.179,2.023a2.877,2.877,0,0,1-1.314-2.38c.277-1.863,1.754-2.091,3.135-2.2a13.2,13.2,0,0,1,3.516-1.456c.367-.046,1.438,1.667,1.338,2.469-.246,1.989-1.96,1.737-3.5,1.539" transform="translate(-208.411 -178.996)" fill="#fff"/>
          <path id="Path_5301" data-name="Path 5301" d="M207.293,255.254c1.816.367,3.292,1.161,2.551,3.082a3.083,3.083,0,0,1-2.716,1.332c-1.92-.562-1.8-2.185-.864-3.782-1.838-.393-3.334-1.166-2.562-3.1a3.075,3.075,0,0,1,2.712-1.307c1.941.557,1.769,2.176.879,3.77" transform="translate(-200.657 -183.874)" fill="#fff"/>
          <path id="Path_5302" data-name="Path 5302" d="M158.131,282.834c.531-1.521,1.2-3.187,3.132-2.332a3.1,3.1,0,0,1,1.325,2.685c-.445,1.894-2.045,1.706-3.611,1.094-.424,1.583-1.017,3.045-3.059,2.5a1.987,1.987,0,0,1-1.466-2.742c.606-1.85,2.112-1.686,3.678-1.206" transform="translate(-210.028 -178.382)" fill="#fff"/>
          <path id="Path_5303" data-name="Path 5303" d="M193.811,250.764c-.23.176-.462.5-.691.5a7.039,7.039,0,0,1-3.1-.3,2.616,2.616,0,0,1-.176-2.453,5.756,5.756,0,0,1,3.354-.841c.826-1.2,1.529-3.056,3.681-1.923a2.944,2.944,0,0,1,1.018,2.676c-.66,1.867-2.237,1.769-3.863.72-.124.717-.208,1.208-.293,1.7Z" transform="translate(-203.302 -185.026)" fill="#fff"/>
          <path id="Path_5304" data-name="Path 5304" d="M215.824,206c.844-.967,1.392-2.156,2.1-2.256.827-.118,1.838.629,2.676,1.15a7.149,7.149,0,0,1,1.6,1.536c.6.72,1.582,1.538,1.542,2.266a2.693,2.693,0,0,1-1.817,1.916c-.716.09-1.589-.835-2.345-1.381-.558-.4-1.032-.919-1.555-1.373-.617-.535-1.247-1.057-2.194-1.857" transform="translate(-198.308 -192.965)" fill="#fff"/>
          <path id="Path_5305" data-name="Path 5305" d="M241.264,235.266c.052-1.647.424-3.206,2.368-2.972a2.928,2.928,0,0,1,2.027,1.81c.4,1.9-1.117,2.426-2.729,2.672,0,1.658-.49,3.132-2.36,2.974a2.92,2.92,0,0,1-2.025-1.838c-.4-1.886,1.079-2.453,2.718-2.645" transform="translate(-193.991 -187.528)" fill="#fff"/>
          <path id="Path_5306" data-name="Path 5306" d="M249.5,276.907a2.13,2.13,0,0,1,2.039,3.158,3.111,3.111,0,0,0-.318,2.732,2.659,2.659,0,0,1-1.049,2.287,2.612,2.612,0,0,1-2.469-.362c-.5-.512-.424-1.67-.446-2.55-.02-.814.317-1.651.22-2.445a2.293,2.293,0,0,1,2.023-2.82" transform="translate(-192.318 -179.023)" fill="#fff"/>
          <path id="Path_5307" data-name="Path 5307" d="M158.666,276.178c1.281-.93,2.733-1.7,3.822-.133a3.034,3.034,0,0,1-.189,2.878c-1.266,1.455-2.6.556-3.7-.62-1.287.966-2.729,1.73-3.819.171a3.022,3.022,0,0,1,.155-2.869c1.262-1.46,2.608-.58,3.728.574" transform="translate(-209.994 -179.417)" fill="#fff"/>
          <path id="Path_5308" data-name="Path 5308" d="M170.217,270.254a6.642,6.642,0,0,1,.785-1.9,32.329,32.329,0,0,1,4.162-3.779c.271-.194,1.825.7,2.072,1.364a2.673,2.673,0,0,1-.7,2.438,4.589,4.589,0,0,0-1.972,2.293,2.687,2.687,0,0,1-2.256,1.155c-.725-.063-1.374-.993-2.087-1.567" transform="translate(-206.998 -181.379)" fill="#fff"/>
          <path id="Path_5309" data-name="Path 5309" d="M186.058,226.142c.819-.907,1.292-1.885,2-2.111,1.042-.331,1.875-.465,2.447-1.643a2.567,2.567,0,0,1,2.4-.686,2.642,2.642,0,0,1,1.339,2.119c-.044.69-.983,1.375-1.623,1.962a9.157,9.157,0,0,1-2.018,1.447,4.705,4.705,0,0,1-2.479.781c-.66-.1-1.189-1.026-2.073-1.869" transform="translate(-203.979 -189.556)" fill="#fff"/>
          <path id="Path_5310" data-name="Path 5310" d="M247.806,278.091a68.468,68.468,0,0,1-5.8-4.124c-.26-.223.3-2.094.927-2.466a2.759,2.759,0,0,1,2.655.387,3.876,3.876,0,0,0,2.368,1.468,2.784,2.784,0,0,1,1.519,2.2c0,.761-.958,1.526-1.67,2.537" transform="translate(-193.331 -180.089)" fill="#fff"/>
          <path id="Path_5311" data-name="Path 5311" d="M217.674,264.611a14.076,14.076,0,0,1-2.749,1.345,2.992,2.992,0,0,1-2.392-.238,2.878,2.878,0,0,1-.607-2.467,2.4,2.4,0,0,1,1.95-1.3,3.264,3.264,0,0,0,2.645-.826,2.779,2.779,0,0,1,2.531.086,2.6,2.6,0,0,1,.693,2.258c-.148.685-1.011,1.216-1.558,1.814l-.513-.673" transform="translate(-199.065 -182.081)" fill="#fff"/>
          <path id="Path_5312" data-name="Path 5312" d="M152.8,238.51c.55-.665.968-1.642,1.616-1.83.755-.22,2.2-.027,2.481.47a5.6,5.6,0,0,0,2.639,2.2,1.82,1.82,0,0,1,.336,3.125c-.671.531-2.5.656-2.972.162a8.859,8.859,0,0,0-3.006-2.474c-.427-.174-.624-.911-1.094-1.658" transform="translate(-210.315 -186.705)" fill="#fff"/>
          <path id="Path_5313" data-name="Path 5313" d="M234.89,280.7c.794.645,1.831,1.081,2.047,1.774a3.9,3.9,0,0,1-.614,2.517,7.691,7.691,0,0,1-1.732,2.185,3.554,3.554,0,0,1-2.138,1.124,2.542,2.542,0,0,1-1.811-1.487,3.623,3.623,0,0,1,.66-2.314,11.845,11.845,0,0,1,1.706-2.219,20.459,20.459,0,0,1,1.883-1.579" transform="translate(-195.493 -178.299)" fill="#fff"/>
          <path id="Path_5314" data-name="Path 5314" d="M233.044,263.362c-2.424-.251-4.151-.146-5.624-.71a3.111,3.111,0,0,1-1.172-2.767c.325-1.4,1.632-1.635,3.039-1.094a5.657,5.657,0,0,0,2.283.341c1.493-.083,2.628.475,2.586,1.967-.026.917-.874,1.811-1.113,2.263" transform="translate(-196.328 -182.526)" fill="#fff"/>
          <path id="Path_5315" data-name="Path 5315" d="M197.846,241.766c.643-.907.954-1.772,1.548-2.068a3.5,3.5,0,0,1,2.245-.006,10.2,10.2,0,0,1,2.767,1.177c.683.426,1.545,1.058,1.683,1.732a2.57,2.57,0,0,1-.893,2.189,3.556,3.556,0,0,1-2.425.006A10.071,10.071,0,0,1,200,243.656a16.409,16.409,0,0,1-2.154-1.889" transform="translate(-201.733 -186.149)" fill="#fff"/>
          <path id="Path_5316" data-name="Path 5316" d="M184.877,267.17a16.037,16.037,0,0,1,.67,3.125,3.088,3.088,0,0,1-.771,2.274,2.588,2.588,0,0,1-2.372.125c-.589-.348-.868-1.375-1.083-2.158a8.769,8.769,0,0,1-.333-2.718,3.849,3.849,0,0,1,.674-2.335,2.438,2.438,0,0,1,2.173-.379c.679.26,1.125,1.121,1.674,1.721l-.631.344" transform="translate(-204.947 -181.292)" fill="#fff"/>
          <path id="Path_5317" data-name="Path 5317" d="M192.831,284.409c.971,1.391,1.171,2.744-.5,3.712-1.357.789-2.483-.021-3.26-2.038-.215-.56-.914-.944-1.093-1.5a3.565,3.565,0,0,1-.2-2.392,2.587,2.587,0,0,1,2.088-1.12c.668.071,1.31.925,1.845,1.539a14.18,14.18,0,0,1,1.192,1.872l-.081-.069" transform="translate(-203.678 -178.231)" fill="#fff"/>
          <path id="Path_5318" data-name="Path 5318" d="M186.483,216.75c-.662-.8-1.867-1.616-1.838-2.387a3.01,3.01,0,0,1,1.923-2.257c.72-.079,2.074,1.085,2.249,1.9.163.755-.86,1.767-1.36,2.666l-.974.082" transform="translate(-204.249 -191.371)" fill="#fff"/>
          <path id="Path_5319" data-name="Path 5319" d="M196.018,88.03c.787-.67,1.583-1.879,2.357-1.864.831.017,1.639,1.181,2.458,1.845-.663.814-1.212,2.111-2.023,2.3-.751.179-1.783-.823-2.692-1.3-.033-.326-.068-.652-.1-.98" transform="translate(-202.081 -215.367)" fill="#fff"/>
          <path id="Path_5320" data-name="Path 5320" d="M237.973,221.219c-.644-.8-1.82-1.632-1.788-2.41.035-.83,1.175-2.212,1.894-2.253a3.015,3.015,0,0,1,2.275,1.911c.157.76-.894,1.769-1.413,2.669Z" transform="translate(-194.428 -190.522)" fill="#fff"/>
          <path id="Path_5321" data-name="Path 5321" d="M162.048,275.79c.824-.627,1.681-1.786,2.463-1.737.824.05,1.577,1.254,2.361,1.954-.7.782-1.316,2.063-2.129,2.2-.773.133-1.751-.925-2.639-1.46-.019-.32-.037-.642-.056-.962" transform="translate(-208.554 -179.567)" fill="#fff"/>
          <path id="Path_5322" data-name="Path 5322" d="M192.058,284.536l.081.069a15.906,15.906,0,0,1-.41-1.692c-.2-1.5.571-2.639,1.969-2.51a3.261,3.261,0,0,1,2.293,1.989c.33,1.37-.717,2.276-2.2,2.325a12.043,12.043,0,0,1-1.73-.182" transform="translate(-202.905 -178.359)" fill="#fff"/>
          <path id="Path_5323" data-name="Path 5323" d="M185.871,285.182c.686.776,1.908,1.551,1.91,2.329a2.1,2.1,0,0,1-4.162.506c-.189-.75.814-1.8,1.293-2.719l.96-.115" transform="translate(-204.449 -177.446)" fill="#fff"/>
          <path id="Path_5324" data-name="Path 5324" d="M192.629,156.084c.811-.645,1.649-1.827,2.426-1.789a3,3,0,0,1,2.242,1.932,3,3,0,0,1-1.933,2.245c-.766.15-1.764-.9-2.662-1.43-.024-.319-.049-.639-.073-.958" transform="translate(-202.727 -202.386)" fill="#fff"/>
          <path id="Path_5325" data-name="Path 5325" d="M177.44,284.838c.612.827,1.748,1.693,1.692,2.473-.06.829-1.248,1.576-1.944,2.36-.781-.708-2.06-1.332-2.2-2.151-.131-.768.942-1.743,1.483-2.626l.97-.055" transform="translate(-206.091 -177.512)" fill="#fff"/>
          <path id="Path_5326" data-name="Path 5326" d="M199.875,115.311c.786-.666,1.58-1.864,2.354-1.851.832.013,1.645,1.164,2.468,1.819-.661.823-1.2,2.133-2.014,2.324-.755.177-1.791-.835-2.7-1.323-.035-.324-.07-.646-.1-.969" transform="translate(-201.346 -210.167)" fill="#fff"/>
          <path id="Path_5327" data-name="Path 5327" d="M190.91,255.54c.775-.677,1.552-1.892,2.323-1.887.832,0,1.657,1.15,2.485,1.8-.65.825-1.176,2.123-1.986,2.335-.743.194-1.792-.785-2.706-1.246-.038-.333-.077-.665-.115-1" transform="translate(-203.055 -183.454)" fill="#fff"/>
          <path id="Path_5328" data-name="Path 5328" d="M197.778,173.744c.675.777,1.879,1.555,1.881,2.333a2.966,2.966,0,0,1-1.8,2.312,3,3,0,0,1-2.336-1.808c-.186-.755.816-1.8,1.294-2.719l.962-.118" transform="translate(-202.18 -198.68)" fill="#fff"/>
          <path id="Path_5329" data-name="Path 5329" d="M222.3,265.051a7.141,7.141,0,0,1-1.183-.939,2.082,2.082,0,0,1,.206-3.264,2.016,2.016,0,0,1,3.209.525,2.056,2.056,0,0,1-.873,3.142,7.28,7.28,0,0,1-1.444.475Z" transform="translate(-197.431 -182.192)" fill="#fff"/>
          <path id="Path_5330" data-name="Path 5330" d="M250.491,261.2c-.675-.788-1.885-1.581-1.879-2.363.007-.826,1.174-1.643,1.835-2.463.823.662,2.142,1.212,2.323,2.018.171.764-.85,1.8-1.348,2.71Z" transform="translate(-192.06 -182.936)" fill="#fff"/>
          <path id="Path_5331" data-name="Path 5331" d="M226.522,233.056c.785-.68,1.57-1.9,2.355-1.894a2.093,2.093,0,0,1,.473,4.16c-.763.177-1.8-.837-2.723-1.327-.035-.312-.07-.625-.1-.938" transform="translate(-196.269 -187.739)" fill="#fff"/>
          <path id="Path_5332" data-name="Path 5332" d="M169.687,140.121c.811-.616,1.668-1.767,2.422-1.7.841.071,1.587,1.247,2.375,1.942-.7.786-1.3,2.051-2.13,2.216-.743.149-1.726-.908-2.6-1.435-.021-.34-.042-.68-.063-1.02" transform="translate(-207.099 -205.411)" fill="#fff"/>
          <path id="Path_5333" data-name="Path 5333" d="M223.5,233.356c-.677-.776-1.883-1.549-1.889-2.331-.007-.829,1.124-1.668,1.757-2.5.833.648,2.158,1.171,2.358,1.976.189.758-.8,1.812-1.277,2.737l-.949.121" transform="translate(-197.204 -188.243)" fill="#fff"/>
          <path id="Path_5334" data-name="Path 5334" d="M219.881,165.192c.824-.629,1.68-1.788,2.463-1.741a2.973,2.973,0,0,1,2.175,1.976c.051.721-1.151,2.032-1.957,2.168-.774.131-1.745-.914-2.63-1.443-.017-.32-.035-.641-.051-.961" transform="translate(-197.534 -200.641)" fill="#fff"/>
          <path id="Path_5335" data-name="Path 5335" d="M245.291,173.78c.618.819,1.766,1.677,1.708,2.447-.062.831-1.25,1.577-1.948,2.361-.785-.7-2.058-1.318-2.211-2.139-.139-.754.93-1.731,1.467-2.611Z" transform="translate(-193.162 -198.673)" fill="#fff"/>
          <path id="Path_5336" data-name="Path 5336" d="M193.818,192.976c.82-.61,1.635-1.677,2.468-1.691a3.03,3.03,0,0,1,2.2,1.786,1.769,1.769,0,0,1-1.852,2.369c-.926-.042-1.819-.9-2.725-1.386Z" transform="translate(-202.501 -195.338)" fill="#fff"/>
          <path id="Path_5337" data-name="Path 5337" d="M224,176.916c.649.8,1.639,1.519,1.864,2.426a1.772,1.772,0,0,1-1.983,2.264,3.026,3.026,0,0,1-2.169-1.837c-.142-.818.763-1.818,1.212-2.738l1.076-.115" transform="translate(-197.188 -198.076)" fill="#fff"/>
          <path id="Path_5338" data-name="Path 5338" d="M214.646,175.3c.789-.656,1.547-1.773,2.379-1.832a3.043,3.043,0,0,1,2.287,1.683,1.75,1.75,0,0,1-1.727,2.45c-.935,0-1.866-.8-2.8-1.235-.046-.356-.094-.711-.14-1.067" transform="translate(-198.532 -198.734)" fill="#fff"/>
          <path id="Path_5339" data-name="Path 5339" d="M240.422,166.37c.652.8,1.83,1.6,1.812,2.383-.019.832-1.169,1.637-1.826,2.454-.816-.671-2.122-1.231-2.3-2.044-.171-.761.849-1.788,1.345-2.7l.973-.1" transform="translate(-194.066 -200.085)" fill="#fff"/>
          <path id="Path_5340" data-name="Path 5340" d="M247.588,165.185c.649.8,1.652,1.527,1.861,2.433a1.764,1.764,0,0,1-2,2.241,3.033,3.033,0,0,1-2.153-1.836c-.135-.825.768-1.819,1.219-2.739l1.076-.1" transform="translate(-192.695 -200.311)" fill="#fff"/>
          <path id="Path_5341" data-name="Path 5341" d="M213.538,161.943c.679.8,1.819,1.549,1.9,2.4a3.056,3.056,0,0,1-1.732,2.27,1.781,1.781,0,0,1-2.464-1.739c0-.937.852-1.874,1.325-2.811l.976-.118" transform="translate(-199.182 -200.929)" fill="#fff"/>
          <path id="Path_5342" data-name="Path 5342" d="M236.719,150.912c.818-.613,1.563-1.569,2.469-1.758A1.768,1.768,0,0,1,241.4,151.2a3.289,3.289,0,0,1-1.913,2.156c-1.325.419-2.149-.554-2.763-2.441" transform="translate(-194.326 -203.374)" fill="#fff"/>
          <path id="Path_5343" data-name="Path 5343" d="M241.9,217.137c.78-.682,1.557-1.9,2.342-1.9a2.1,2.1,0,0,1,.486,4.168c-.761.179-1.8-.827-2.717-1.313Z" transform="translate(-193.34 -190.774)" fill="#fff"/>
          <path id="Path_5344" data-name="Path 5344" d="M245.963,132.461c.829-.6,1.654-1.666,2.489-1.674a3.025,3.025,0,0,1,2.169,1.817,1.766,1.766,0,0,1-1.875,2.347c-.93-.057-1.81-.916-2.712-1.416l-.071-1.074" transform="translate(-192.565 -206.865)" fill="#fff"/>
          <path id="Path_5345" data-name="Path 5345" d="M245.343,223.762c.793-.661,1.5-1.661,2.4-1.9a1.745,1.745,0,0,1,2.285,1.936,3.04,3.04,0,0,1-1.78,2.207c-.825.149-1.838-.744-2.769-1.185-.045-.352-.089-.7-.135-1.057" transform="translate(-192.683 -189.526)" fill="#fff"/>
          <path id="Path_5346" data-name="Path 5346" d="M224.455,123.128c-.611-.819-1.756-1.688-1.687-2.445.076-.831,1.251-2.145,1.986-2.172a3.011,3.011,0,0,1,2.188,1.983c.137.745-.938,1.713-1.48,2.582l-1.007.051" transform="translate(-196.985 -209.204)" fill="#fff"/>
          <path id="Path_5347" data-name="Path 5347" d="M193.376,229.136c.588.833,1.648,1.677,1.627,2.5-.019.775-1.248,2.189-1.807,2.125a3.2,3.2,0,0,1-2.3-1.925c-.169-.735.871-1.747,1.377-2.637l1.1-.058" transform="translate(-203.06 -188.125)" fill="#fff"/>
          <path id="Path_5348" data-name="Path 5348" d="M201.676,231.875c.826-.612,1.649-1.692,2.481-1.7A3.046,3.046,0,0,1,206.348,232a1.754,1.754,0,0,1-1.88,2.338c-.932-.063-1.812-.893-2.714-1.38-.026-.362-.051-.724-.077-1.086" transform="translate(-201.003 -187.927)" fill="#fff"/>
          <path id="Path_5349" data-name="Path 5349" d="M197.821,273.28c.791-.646,1.551-1.752,2.379-1.8a3.035,3.035,0,0,1,2.291,1.672,1.776,1.776,0,0,1-1.737,2.461c-.931.006-1.868-.81-2.8-1.258-.043-.357-.087-.713-.13-1.07" transform="translate(-201.738 -180.058)" fill="#fff"/>
          <path id="Path_5350" data-name="Path 5350" d="M193.493,270.6c.636.812,1.729,1.6,1.773,2.442a3.027,3.027,0,0,1-1.748,2.229,1.743,1.743,0,0,1-2.4-1.792c.036-.938.852-1.848,1.319-2.769Z" transform="translate(-203.015 -180.224)" fill="#fff"/>
          <path id="Path_5351" data-name="Path 5351" d="M240.871,247.565c.851-.612,1.76-1.769,2.538-1.688a3.191,3.191,0,0,1,2.122,2.136c.115.551-1.2,1.933-1.945,2-.848.071-1.785-.918-2.682-1.445l-.032-1" transform="translate(-193.535 -184.936)" fill="#fff"/>
          <path id="Path_5352" data-name="Path 5352" d="M220.88,243.063c-.6-.832-1.662-1.67-1.652-2.5a3.045,3.045,0,0,1,1.854-2.168,1.761,1.761,0,0,1,2.314,1.914c-.075.929-.925,1.794-1.43,2.688l-1.086.061" transform="translate(-197.659 -186.377)" fill="#fff"/>
          <path id="Path_5353" data-name="Path 5353" d="M213.756,241.76c.8-.657,1.562-1.775,2.4-1.835a3.026,3.026,0,0,1,2.269,1.711,1.745,1.745,0,0,1-1.754,2.426c-.941-.025-1.861-.811-2.789-1.255-.043-.35-.085-.7-.127-1.048" transform="translate(-198.702 -186.07)" fill="#fff"/>
          <path id="Path_5354" data-name="Path 5354" d="M174.787,251.041c.8-.644,1.611-1.811,2.393-1.791.825.02,1.622,1.173,2.43,1.831-.671.8-1.239,2.1-2.047,2.272-.764.163-1.78-.85-2.685-1.346-.031-.321-.061-.644-.092-.966" transform="translate(-206.127 -184.293)" fill="#fff"/>
          <path id="Path_5355" data-name="Path 5355" d="M225.164,247.447c-.614-.835-1.592-1.6-1.757-2.52a1.77,1.77,0,0,1,2.106-2.149,3.039,3.039,0,0,1,2.066,1.937c.1.826-.852,1.776-1.345,2.673l-1.069.06" transform="translate(-196.869 -185.534)" fill="#fff"/>
          <path id="Path_5356" data-name="Path 5356" d="M173.6,245.394c.577.841,1.62,1.7,1.6,2.518-.024.767-1.269,2.166-1.823,2.094a3.192,3.192,0,0,1-2.285-1.938c-.157-.743.9-1.743,1.427-2.63l1.085-.044" transform="translate(-206.835 -185.027)" fill="#fff"/>
          <path id="Path_5357" data-name="Path 5357" d="M185.371,245.635c.812-.627,1.543-1.581,2.453-1.8a1.729,1.729,0,0,1,2.228,1.987,3.04,3.04,0,0,1-1.847,2.161c-.826.127-1.813-.8-2.731-1.266-.033-.36-.068-.718-.1-1.077" transform="translate(-204.11 -185.338)" fill="#fff"/>
          <path id="Path_5358" data-name="Path 5358" d="M165.053,247.443c.825-.623,1.579-1.6,2.493-1.783a1.758,1.758,0,0,1,2.179,2.063,3.024,3.024,0,0,1-1.9,2.1c-.83.107-1.794-.83-2.7-1.313l-.075-1.066" transform="translate(-207.982 -184.985)" fill="#fff"/>
          <path id="Path_5359" data-name="Path 5359" d="M159.39,272.087c.824-.619,1.636-1.7,2.476-1.719a3.03,3.03,0,0,1,2.186,1.8,1.736,1.736,0,0,1-1.841,2.356c-.943-.061-1.835-.893-2.749-1.381-.024-.352-.049-.706-.073-1.058" transform="translate(-209.061 -180.269)" fill="#fff"/>
          <path id="Path_5360" data-name="Path 5360" d="M207.858,241.423c.61.831,1.676,1.655,1.691,2.5a3.031,3.031,0,0,1-1.829,2.16,1.754,1.754,0,0,1-2.343-1.869c.062-.935.93-1.816,1.438-2.719l1.043-.068" transform="translate(-200.299 -185.784)" fill="#fff"/>
          <path id="Path_5361" data-name="Path 5361" d="M217.239,248.528c.787-.657,1.6-1.86,2.355-1.829a3.208,3.208,0,0,1,2.332,1.9c.165.54-1.013,2.026-1.77,2.176-.818.163-1.847-.737-2.783-1.173-.044-.357-.089-.716-.133-1.073" transform="translate(-198.038 -184.779)" fill="#fff"/>
          <path id="Path_5362" data-name="Path 5362" d="M193.11,250.049c.4-.158.82-.491,1.192-.442.87.115,2.054.154,2.478.708a2.692,2.692,0,0,1,.061,2.549,2.653,2.653,0,0,1-2.426.739c-.668-.245-1.106-1.35-1.444-2.161-.165-.4.126-.98.212-1.48l-.071.086" transform="translate(-202.672 -184.225)" fill="#fff"/>
          <path id="Path_5363" data-name="Path 5363" d="M194.243,270.521c.811-.625,1.606-1.711,2.436-1.738a3.038,3.038,0,0,1,2.242,1.747,1.764,1.764,0,0,1-1.8,2.4c-.937-.035-1.844-.867-2.766-1.343-.036-.356-.073-.713-.11-1.069" transform="translate(-202.42 -180.571)" fill="#fff"/>
          <path id="Path_5364" data-name="Path 5364" d="M193.764,239.249c.619.823,1.583,1.574,1.776,2.487a1.761,1.761,0,0,1-2.043,2.2,3.037,3.037,0,0,1-2.11-1.906c-.115-.824.823-1.794,1.3-2.7l1.075-.08" transform="translate(-202.966 -186.198)" fill="#fff"/>
          <path id="Path_5365" data-name="Path 5365" d="M246.738,236.063c.836-.588,1.685-1.649,2.5-1.626a3.064,3.064,0,0,1,2.158,1.881,1.763,1.763,0,0,1-1.949,2.288c-.921-.081-1.775-.93-2.66-1.435-.018-.369-.035-.739-.052-1.108" transform="translate(-192.417 -187.115)" fill="#fff"/>
          <path id="Path_5366" data-name="Path 5366" d="M219.058,83.848c.773-.683,1.541-1.9,2.319-1.906a2.966,2.966,0,0,1,2.3,1.812,2.958,2.958,0,0,1-1.77,2.333c-.761.185-1.807-.806-2.728-1.281-.043-.319-.085-.639-.126-.958" transform="translate(-197.691 -216.172)" fill="#fff"/>
          <path id="Path_5367" data-name="Path 5367" d="M210.852,241.311c-.639-.806-1.623-1.532-1.835-2.438a1.755,1.755,0,0,1,1.992-2.242,3.044,3.044,0,0,1,2.158,1.845c.137.818-.775,1.81-1.23,2.726l-1.086.108" transform="translate(-199.616 -186.702)" fill="#fff"/>
          <path id="Path_5368" data-name="Path 5368" d="M205.012,268.923c.611.838,1.682,1.67,1.693,2.516a3.028,3.028,0,0,1-1.86,2.148,1.741,1.741,0,0,1-2.317-1.894c.085-.941.944-1.811,1.457-2.712l1.026-.057" transform="translate(-200.843 -180.544)" fill="#fff"/>
          <path id="Path_5369" data-name="Path 5369" d="M183.98,237.829c.835-.6,1.6-1.538,2.52-1.736a1.737,1.737,0,0,1,2.158,2.07,3.038,3.038,0,0,1-1.92,2.1c-.837.093-1.792-.875-2.7-1.382-.021-.352-.042-.7-.063-1.057" transform="translate(-204.375 -186.809)" fill="#fff"/>
          <path id="Path_5370" data-name="Path 5370" d="M166.292,237.517c.811-.617,1.613-1.7,2.433-1.714a3.041,3.041,0,0,1,2.239,1.763,1.785,1.785,0,0,1-1.843,2.387c-.926-.035-1.823-.867-2.732-1.343-.032-.364-.065-.729-.1-1.093" transform="translate(-207.746 -186.855)" fill="#fff"/>
          <path id="Path_5371" data-name="Path 5371" d="M187.448,235.321c.817-.621,1.619-1.7,2.454-1.726a3.026,3.026,0,0,1,2.216,1.769,1.769,1.769,0,0,1-1.826,2.392c-.933-.038-1.833-.882-2.749-1.367-.031-.356-.063-.712-.094-1.068" transform="translate(-203.714 -187.276)" fill="#fff"/>
          <path id="Path_5372" data-name="Path 5372" d="M245.845,232.882c-.632-.813-1.789-1.65-1.754-2.432a3.2,3.2,0,0,1,1.938-2.267,1.737,1.737,0,0,1,2.233,1.948c-.1.936-.936,1.793-1.443,2.685l-.975.067" transform="translate(-192.922 -188.322)" fill="#fff"/>
          <path id="Path_5373" data-name="Path 5373" d="M184.612,254.266c.811-.617,1.657-1.758,2.423-1.706a3.23,3.23,0,0,1,2.247,1.951,1.716,1.716,0,0,1-1.95,2.211c-.921-.094-1.77-.907-2.653-1.4-.023-.352-.044-.7-.067-1.056" transform="translate(-204.255 -183.662)" fill="#fff"/>
          <path id="Path_5374" data-name="Path 5374" d="M207.571,253.533c.311-1.98,1.091-2.973,2.429-2.735.844.15,2.2,1.3,2.129,1.844a3.222,3.222,0,0,1-1.929,2.307c-.733.165-1.742-.9-2.629-1.417" transform="translate(-199.88 -184.004)" fill="#fff"/>
          <path id="Path_5375" data-name="Path 5375" d="M238.569,232c-.688-.774-1.907-1.541-1.918-2.324-.011-.825,1.133-1.666,1.773-2.5.818.645,2.113,1.17,2.316,1.97.192.762-.76,1.811-1.208,2.733l-.962.12" transform="translate(-194.339 -188.498)" fill="#fff"/>
          <path id="Path_5376" data-name="Path 5376" d="M191.422,275.65c-.773.687-1.532,1.9-2.319,1.916a2.093,2.093,0,0,1-.54-4.15c.766-.185,1.813.808,2.737,1.285q.063.475.123.95" transform="translate(-203.836 -179.692)" fill="#fff"/>
          <path id="Path_5377" data-name="Path 5377" d="M233.261,225.6c.848-.585,1.7-1.625,2.543-1.617a3.03,3.03,0,0,1,2.119,1.874,1.755,1.755,0,0,1-1.931,2.3c-.936-.085-1.8-.979-2.694-1.51-.012-.349-.025-.7-.037-1.044" transform="translate(-194.985 -189.107)" fill="#fff"/>
          <path id="Path_5378" data-name="Path 5378" d="M178.313,233.713c-.588-.842-1.645-1.7-1.625-2.523a3.046,3.046,0,0,1,1.888-2.15A1.764,1.764,0,0,1,180.857,231c-.093.93-.95,1.783-1.466,2.67l-1.079.045" transform="translate(-205.765 -188.158)" fill="#fff"/>
          <path id="Path_5379" data-name="Path 5379" d="M160.173,122.148c.6.829,1.664,1.654,1.673,2.488a3.025,3.025,0,0,1-1.818,2.164,1.75,1.75,0,0,1-2.337-1.873c.06-.932.917-1.813,1.417-2.717l1.066-.063" transform="translate(-209.385 -208.511)" fill="#fff"/>
          <path id="Path_5380" data-name="Path 5380" d="M229.352,223.727c.641.8,1.749,1.569,1.786,2.392.035.767-1.112,2.26-1.663,2.226a3.227,3.227,0,0,1-2.437-1.769c-.213-.726.78-1.806,1.241-2.73l1.074-.119" transform="translate(-196.176 -189.156)" fill="#fff"/>
          <path id="Path_5381" data-name="Path 5381" d="M207.987,227.556c.806-.629,1.6-1.72,2.423-1.75.761-.027,2.23,1.131,2.194,1.691a3.192,3.192,0,0,1-1.782,2.408c-.737.2-1.8-.8-2.723-1.264-.038-.362-.075-.723-.112-1.085" transform="translate(-199.801 -188.76)" fill="#fff"/>
          <path id="Path_5382" data-name="Path 5382" d="M172.162,233.69c-.668-.773-1.858-1.542-1.862-2.317,0-.832,1.107-1.67,1.732-2.506.826.643,2.13,1.161,2.338,1.963.2.752-.768,1.806-1.221,2.728l-.987.132" transform="translate(-206.982 -188.177)" fill="#fff"/>
          <path id="Path_5383" data-name="Path 5383" d="M161.78,229.178c.593.837,1.7,1.718,1.637,2.5-.07.823-1.263,1.551-1.966,2.32-.766-.718-2.027-1.358-2.155-2.175-.119-.771.952-1.729,1.5-2.6l.982-.039" transform="translate(-209.08 -188.117)" fill="#fff"/>
          <path id="Path_5384" data-name="Path 5384" d="M189.006,132.727c.83-.623,1.585-1.585,2.507-1.788a1.735,1.735,0,0,1,2.163,2.06,3.012,3.012,0,0,1-1.889,2.1c-.841.1-1.8-.843-2.711-1.332-.024-.346-.046-.692-.07-1.037" transform="translate(-203.418 -206.846)" fill="#fff"/>
          <path id="Path_5385" data-name="Path 5385" d="M156.553,140.712c.788-.662,1.582-1.85,2.363-1.842A2.964,2.964,0,0,1,161.2,140.7a2.99,2.99,0,0,1-1.833,2.313c-.761.173-1.791-.848-2.7-1.344-.037-.319-.073-.639-.108-.958" transform="translate(-209.601 -205.325)" fill="#fff"/>
          <path id="Path_5386" data-name="Path 5386" d="M191.733,143.447c.845-.575,1.7-1.61,2.531-1.589a3.042,3.042,0,0,1,2.126,1.874,1.773,1.773,0,0,1-1.945,2.3c-.924-.076-1.781-.97-2.668-1.5-.014-.361-.03-.721-.044-1.082" transform="translate(-202.898 -204.756)" fill="#fff"/>
          <path id="Path_5387" data-name="Path 5387" d="M156.839,225.994c.791-.661,1.591-1.851,2.367-1.836a2.089,2.089,0,0,1,.417,4.156c-.758.168-1.777-.844-2.682-1.337q-.052-.493-.1-.983" transform="translate(-209.547 -189.074)" fill="#fff"/>
          <path id="Path_5388" data-name="Path 5388" d="M160.05,148.665c.632.827,1.623,1.582,1.812,2.5a1.767,1.767,0,0,1-2.073,2.179,3.016,3.016,0,0,1-2.1-1.9c-.1-.844.841-1.808,1.329-2.72l1.03-.063" transform="translate(-209.386 -203.459)" fill="#fff"/>
          <path id="Path_5389" data-name="Path 5389" d="M162.587,150.59c.844-.6,1.622-1.529,2.548-1.712a1.737,1.737,0,0,1,2.132,2.1,3.038,3.038,0,0,1-1.954,2.073c-.841.081-1.786-.894-2.685-1.41l-.042-1.046" transform="translate(-208.451 -203.426)" fill="#fff"/>
          <path id="Path_5390" data-name="Path 5390" d="M229.88,146.526c.811-.62,1.655-1.766,2.424-1.718.83.051,1.591,1.22,2.38,1.9-.689.8-1.281,2.093-2.1,2.253-.757.148-1.751-.913-2.641-1.442l-.068-.994" transform="translate(-195.629 -204.194)" fill="#fff"/>
          <path id="Path_5391" data-name="Path 5391" d="M176.827,264.39c.824-.611,1.7-1.757,2.458-1.688.83.075,2.145,1.261,2.168,1.994a3.014,3.014,0,0,1-1.993,2.189c-.749.135-1.717-.944-2.588-1.488-.015-.336-.03-.671-.045-1.007" transform="translate(-205.738 -181.73)" fill="#fff"/>
          <path id="Path_5392" data-name="Path 5392" d="M224.684,252.975c.664.792,1.785,1.544,1.855,2.386a3.017,3.017,0,0,1-1.679,2.281,1.752,1.752,0,0,1-2.458-1.718c.01-.944.812-1.881,1.261-2.82l1.022-.129" transform="translate(-197.054 -183.583)" fill="#fff"/>
          <path id="Path_5393" data-name="Path 5393" d="M218.976,220.1c-.619-.818-1.708-1.63-1.719-2.455a3.056,3.056,0,0,1,1.812-2.21,1.752,1.752,0,0,1,2.351,1.86c-.056.93-.874,1.813-1.351,2.718l-1.093.087" transform="translate(-198.034 -190.756)" fill="#fff"/>
          <path id="Path_5394" data-name="Path 5394" d="M160.949,221.986c.811-.625,1.606-1.71,2.438-1.738a3.03,3.03,0,0,1,2.22,1.756,1.764,1.764,0,0,1-1.81,2.4c-.932-.03-1.838-.869-2.757-1.346l-.092-1.068" transform="translate(-208.764 -189.819)" fill="#fff"/>
          <path id="Path_5395" data-name="Path 5395" d="M180.022,217.681c.619.812,1.7,1.613,1.72,2.438a3.04,3.04,0,0,1-1.763,2.23,1.769,1.769,0,0,1-2.389-1.825c.035-.929.869-1.829,1.345-2.742Z" transform="translate(-205.593 -190.308)" fill="#fff"/>
          <path id="Path_5396" data-name="Path 5396" d="M244.717,160.494c-.612-.823-1.7-1.648-1.7-2.469a3.055,3.055,0,0,1,1.838-2.2,1.757,1.757,0,0,1,2.324,1.9c-.073.93-.887,1.8-1.369,2.7l-1.1.077" transform="translate(-193.126 -202.112)" fill="#fff"/>
          <path id="Path_5397" data-name="Path 5397" d="M202.477,163.436c.631.8,1.73,1.581,1.758,2.4a3.033,3.033,0,0,1-1.723,2.268,1.783,1.783,0,0,1-2.418-1.8c.021-.927.832-1.837,1.291-2.755l1.092-.113" transform="translate(-201.305 -200.644)" fill="#fff"/>
          <path id="Path_5398" data-name="Path 5398" d="M169.128,285.029c.83-.613,1.652-1.687,2.492-1.7a3.04,3.04,0,0,1,2.17,1.83,1.732,1.732,0,0,1-1.867,2.33c-.938-.07-1.818-.911-2.723-1.407-.025-.35-.049-.7-.073-1.051" transform="translate(-207.205 -177.799)" fill="#fff"/>
          <path id="Path_5399" data-name="Path 5399" d="M177.319,169.8c.614.818,1.562,1.562,1.766,2.473a1.748,1.748,0,0,1-2.022,2.207,3.04,3.04,0,0,1-2.132-1.889c-.119-.824.821-1.8,1.3-2.708l1.087-.082" transform="translate(-206.101 -199.43)" fill="#fff"/>
          <path id="Path_5400" data-name="Path 5400" d="M196.441,169.119c.591.835,1.7,1.716,1.63,2.489-.074.829-1.262,1.556-1.963,2.327-.77-.718-2.036-1.358-2.164-2.178-.121-.767.961-1.724,1.513-2.6l.985-.042" transform="translate(-202.479 -199.561)" fill="#fff"/>
          <path id="Path_5401" data-name="Path 5401" d="M241.887,278.732c.836-.6,1.743-1.748,2.487-1.65a3.229,3.229,0,0,1,2.133,2.123c.12.538-1.117,1.8-1.947,2.038-1.351.392-2.144-.6-2.674-2.511" transform="translate(-193.341 -178.991)" fill="#fff"/>
          <path id="Path_5402" data-name="Path 5402" d="M200.342,285.927c-.677-.781-1.9-1.577-1.885-2.339a3.221,3.221,0,0,1,1.922-2.308c.517-.17,2,.992,2.149,1.738.165.813-.7,1.837-1.124,2.768l-1.062.142" transform="translate(-201.617 -178.193)" fill="#fff"/>
          <path id="Path_5403" data-name="Path 5403" d="M233.526,168.216c.613.811,1.693,1.616,1.7,2.436.012.769-1.169,2.23-1.713,2.18A3.233,3.233,0,0,1,231.131,171c-.194-.727.823-1.78,1.3-2.689l1.091-.1" transform="translate(-195.395 -199.733)" fill="#fff"/>
          <path id="Path_5404" data-name="Path 5404" d="M176.642,214.913c.763-.677,1.525-1.887,2.292-1.889a3.232,3.232,0,0,1,2.387,1.793,1.728,1.728,0,0,1-1.794,2.35c-.93-.035-1.832-.786-2.748-1.216-.045-.346-.092-.692-.137-1.038" transform="translate(-205.773 -191.195)" fill="#fff"/>
          <path id="Path_5405" data-name="Path 5405" d="M162.314,218.716c-.655-.783-1.637-1.475-1.888-2.373a1.747,1.747,0,0,1,1.9-2.311,3.042,3.042,0,0,1,2.231,1.776c.16.813-.736,1.833-1.172,2.764l-1.075.143" transform="translate(-208.879 -191.005)" fill="#fff"/>
          <path id="Path_5406" data-name="Path 5406" d="M212.272,261.232c-.65-.814-1.648-1.545-1.863-2.461a1.752,1.752,0,0,1,2.02-2.216,3.009,3.009,0,0,1,2.136,1.839c.118.838-.8,1.82-1.261,2.741l-1.032.1" transform="translate(-199.351 -182.905)" fill="#fff"/>
          <path id="Path_5407" data-name="Path 5407" d="M177.923,182.467c.8-.624,1.593-1.71,2.418-1.738a3.022,3.022,0,0,1,2.25,1.722,1.779,1.779,0,0,1-1.8,2.418c-.929-.021-1.838-.846-2.757-1.312-.038-.363-.075-.726-.113-1.089" transform="translate(-205.529 -197.349)" fill="#fff"/>
          <path id="Path_5408" data-name="Path 5408" d="M188.984,185.148c-.656-.8-1.867-1.633-1.82-2.389a3.184,3.184,0,0,1,1.986-2.263c.566-.149,2.013,1.054,2.144,1.812.142.812-.8,1.812-1.262,2.731l-1.048.11" transform="translate(-203.769 -197.396)" fill="#fff"/>
          <path id="Path_5409" data-name="Path 5409" d="M250.22,183.424c-.652-.8-1.648-1.5-1.877-2.408a1.751,1.751,0,0,1,1.957-2.266,3.044,3.044,0,0,1,2.191,1.807c.144.818-.758,1.822-1.206,2.744l-1.064.123" transform="translate(-192.124 -197.73)" fill="#fff"/>
          <path id="Path_5410" data-name="Path 5410" d="M192.4,186.65c.777-.669,1.579-1.891,2.328-1.86a3.243,3.243,0,0,1,2.322,1.914c.17.511-1,1.993-1.752,2.15-.807.168-1.831-.707-2.761-1.127l-.136-1.077" transform="translate(-202.772 -196.575)" fill="#fff"/>
          <path id="Path_5411" data-name="Path 5411" d="M237.234,257.013c.794-.682,1.606-1.922,2.375-1.894a3.245,3.245,0,0,1,2.314,1.964c.165.525-1.033,2.012-1.789,2.152-.823.152-1.842-.754-2.775-1.2l-.125-1.024" transform="translate(-194.228 -183.175)" fill="#fff"/>
          <path id="Path_5412" data-name="Path 5412" d="M232.068,204.623c.831-.6,1.6-1.551,2.51-1.731a1.777,1.777,0,0,1,2.174,2.086,3.044,3.044,0,0,1-1.958,2.079c-.812.111-1.768-.845-2.661-1.336l-.064-1.1" transform="translate(-195.212 -193.134)" fill="#fff"/>
          <path id="Path_5413" data-name="Path 5413" d="M154.751,190.207c.818-.621,1.564-1.6,2.47-1.78a1.786,1.786,0,0,1,2.212,2.048,3.048,3.048,0,0,1-1.913,2.113c-.811.123-1.782-.813-2.684-1.286l-.086-1.1" transform="translate(-209.945 -195.89)" fill="#fff"/>
          <path id="Path_5414" data-name="Path 5414" d="M226.308,184.481c.8-.661,1.513-1.679,2.419-1.9a1.752,1.752,0,0,1,2.253,1.975,3.025,3.025,0,0,1-1.8,2.173c-.835.133-1.835-.766-2.762-1.216-.036-.345-.073-.689-.108-1.035" transform="translate(-196.31 -197.008)" fill="#fff"/>
          <path id="Path_5415" data-name="Path 5415" d="M173.909,212.031c-.62-.819-1.572-1.561-1.782-2.474a1.729,1.729,0,0,1,2.024-2.192,3.039,3.039,0,0,1,2.133,1.868c.114.827-.822,1.8-1.3,2.711l-1.074.087" transform="translate(-206.645 -192.279)" fill="#fff"/>
          <path id="Path_5416" data-name="Path 5416" d="M233.084,186.463c.827-.59,1.66-1.644,2.481-1.636.769.008,2.2,1.226,2.136,1.762a3.237,3.237,0,0,1-1.889,2.341c-.735.175-1.761-.87-2.657-1.376-.024-.363-.046-.727-.07-1.091" transform="translate(-195.019 -196.568)" fill="#fff"/>
          <path id="Path_5417" data-name="Path 5417" d="M182.527,198.653c-.643-.8-1.624-1.514-1.848-2.418a1.757,1.757,0,0,1,1.973-2.26,3.037,3.037,0,0,1,2.183,1.822c.14.818-.771,1.817-1.224,2.737l-1.085.119" transform="translate(-205.017 -194.829)" fill="#fff"/>
          <path id="Path_5418" data-name="Path 5418" d="M245.787,189.148c.613.812,1.7,1.622,1.7,2.438.006.774-1.17,2.223-1.735,2.179a3.18,3.18,0,0,1-2.361-1.837c-.192-.732.818-1.777,1.3-2.685l1.1-.1" transform="translate(-193.059 -195.745)" fill="#fff"/>
          <path id="Path_5419" data-name="Path 5419" d="M169.726,202.692c-.637-.813-1.73-1.6-1.773-2.445a3.023,3.023,0,0,1,1.757-2.219,1.747,1.747,0,0,1,2.392,1.8c-.038.938-.868,1.844-1.344,2.766Z" transform="translate(-207.429 -194.076)" fill="#fff"/>
          <path id="Path_5420" data-name="Path 5420" d="M155.577,202.715c.806-.643,1.585-1.741,2.426-1.791a3.033,3.033,0,0,1,2.249,1.72,1.772,1.772,0,0,1-1.77,2.433c-.935-.012-1.86-.855-2.788-1.327q-.057-.518-.117-1.036" transform="translate(-209.787 -193.501)" fill="#fff"/>
          <path id="Path_5421" data-name="Path 5421" d="M218.939,199.79c.8-.632,1.582-1.732,2.4-1.76.771-.026,2.26,1.125,2.222,1.674a3.228,3.228,0,0,1-1.789,2.418c-.723.211-1.8-.779-2.714-1.239-.039-.364-.08-.729-.119-1.093" transform="translate(-197.714 -194.052)" fill="#fff"/>
          <path id="Path_5422" data-name="Path 5422" d="M154.842,267.17c.807-.623,1.644-1.77,2.412-1.726.841.049,1.618,1.2,2.424,1.868-.691.8-1.276,2.082-2.1,2.261-.75.161-1.76-.876-2.654-1.385l-.082-1.018" transform="translate(-209.927 -181.207)" fill="#fff"/>
          <path id="Path_5423" data-name="Path 5423" d="M181.049,290.876c-.631-.807-1.729-1.6-1.755-2.425a3.047,3.047,0,0,1,1.756-2.244,1.783,1.783,0,0,1,2.413,1.811c-.023.929-.864,1.836-1.339,2.753l-1.075.106" transform="translate(-205.268 -177.273)" fill="#fff"/>
          <path id="Path_5424" data-name="Path 5424" d="M223.693,287.109c-.635-.808-1.6-1.533-1.825-2.443a1.716,1.716,0,0,1,1.968-2.232,3.062,3.062,0,0,1,2.2,1.817c.126.833-.806,1.826-1.277,2.75l-1.061.108" transform="translate(-197.169 -177.974)" fill="#fff"/>
          <path id="Path_5425" data-name="Path 5425" d="M184.766,199.991c.839-.591,1.682-1.641,2.519-1.636a3.032,3.032,0,0,1,2.143,1.852,1.774,1.774,0,0,1-1.918,2.32c-.927-.063-1.8-.955-2.7-1.476-.017-.354-.032-.707-.049-1.061" transform="translate(-204.225 -193.99)" fill="#fff"/>
          <path id="Path_5426" data-name="Path 5426" d="M161.331,201.682c.794-.632,1.62-1.8,2.375-1.756.838.05,1.612,1.2,2.413,1.876-.675.8-1.242,2.077-2.055,2.261-.744.168-1.754-.849-2.647-1.343-.029-.346-.058-.692-.087-1.038" transform="translate(-208.691 -193.691)" fill="#fff"/>
          <path id="Path_5427" data-name="Path 5427" d="M201.391,259.064c.338-.144.731-.479,1-.4.9.262,2.1.445,2.544,1.1a2.087,2.087,0,0,1-2.894,2.793c-.629-.463-.755-1.67-.979-2.583-.069-.282.255-.661.4-.994l-.075.088" transform="translate(-201.121 -182.501)" fill="#fff"/>
          <path id="Path_5428" data-name="Path 5428" d="M236.816,193c.624.813,1.7,1.608,1.736,2.444a3.034,3.034,0,0,1-1.749,2.222,1.769,1.769,0,0,1-2.406-1.8c.02-.93.877-1.842,1.361-2.761l1.058-.1" transform="translate(-194.769 -195.01)" fill="#fff"/>
          <path id="Path_5429" data-name="Path 5429" d="M226.79,195.276c.825-.6,1.654-1.664,2.475-1.66.768,0,2.2,1.21,2.141,1.769a3.18,3.18,0,0,1-1.874,2.33c-.739.176-1.766-.852-2.666-1.349-.026-.363-.051-.727-.076-1.091" transform="translate(-196.218 -194.893)" fill="#fff"/>
          <path id="Path_5430" data-name="Path 5430" d="M178.139,202.069c.612.83,1.776,1.724,1.691,2.474a3.22,3.22,0,0,1-2.1,2.167c-.548.127-1.943-1.149-2.033-1.906-.1-.824.873-1.776,1.377-2.672l1.061-.063" transform="translate(-205.954 -193.283)" fill="#fff"/>
          <path id="Path_5431" data-name="Path 5431" d="M194.526,260.645C195.344,260,196.083,259,197,258.8a1.756,1.756,0,0,1,2.206,2.033,3.025,3.025,0,0,1-1.855,2.124c-.836.115-1.813-.8-2.73-1.27l-.093-1.042" transform="translate(-202.366 -182.482)" fill="#fff"/>
          <path id="Path_5432" data-name="Path 5432" d="M201.753,193.651c.613.817,1.754,1.674,1.7,2.441-.063.831-1.242,1.579-1.933,2.363-.774-.7-2.029-1.313-2.181-2.131-.142-.758.892-1.737,1.407-2.619l1.011-.054" transform="translate(-201.452 -194.887)" fill="#fff"/>
          <path id="Path_5433" data-name="Path 5433" d="M184.032,258.9c.692.767,1.919,1.527,1.929,2.3.011.829-1.127,1.672-1.764,2.509-.82-.641-2.11-1.155-2.325-1.957-.2-.749.739-1.8,1.177-2.724l.983-.13" transform="translate(-204.782 -182.455)" fill="#fff"/>
          <path id="Path_5434" data-name="Path 5434" d="M197.024,204.189c.8-.662,1.506-1.679,2.411-1.9a1.773,1.773,0,0,1,2.279,1.968,3.035,3.035,0,0,1-1.814,2.182c-.819.146-1.825-.748-2.75-1.189l-.125-1.061" transform="translate(-201.89 -193.253)" fill="#fff"/>
          <path id="Path_5435" data-name="Path 5435" d="M234.762,200.53c.817-.63,1.619-1.725,2.454-1.75a3.059,3.059,0,0,1,2.2,1.8,1.772,1.772,0,0,1-1.825,2.4c-.929-.033-1.829-.9-2.742-1.392-.03-.352-.061-.706-.09-1.058" transform="translate(-194.699 -193.91)" fill="#fff"/>
          <path id="Path_5436" data-name="Path 5436" d="M217.1,195.616c-.586-.841-1.507-1.619-1.677-2.536a1.755,1.755,0,0,1,2.106-2.136,3.041,3.041,0,0,1,2.058,1.972c.088.825-.889,1.764-1.4,2.654l-1.085.046" transform="translate(-198.392 -195.41)" fill="#fff"/>
          <path id="Path_5437" data-name="Path 5437" d="M228.472,190.956c.852-.592,1.708-1.642,2.557-1.637a3.032,3.032,0,0,1,2.142,1.879,1.787,1.787,0,0,1-1.957,2.3c-.937-.083-1.8-1-2.7-1.538q-.023-.5-.044-1" transform="translate(-195.898 -195.712)" fill="#fff"/>
          <path id="Path_5438" data-name="Path 5438" d="M189.934,262.646c.829-.6,1.587-1.517,2.5-1.713,1.332-.288,2.185.649,2.242,2.026s-.738,2.379-2.072,2.2c-.932-.121-1.766-1-2.644-1.536l-.029-.982" transform="translate(-203.241 -182.077)" fill="#fff"/>
          <path id="Path_5439" data-name="Path 5439" d="M243.922,252.863c.594.846,1.53,1.63,1.7,2.555a1.736,1.736,0,0,1-2.114,2.112,3.03,3.03,0,0,1-2.056-1.956c-.068-.846.918-1.776,1.447-2.67l1.021-.04" transform="translate(-193.424 -183.604)" fill="#fff"/>
          <path id="Path_5440" data-name="Path 5440" d="M161.455,193.018c.7.763,1.927,1.518,1.939,2.292.013.831-1.12,1.681-1.752,2.522-.827-.635-2.126-1.141-2.347-1.942-.2-.749.735-1.812,1.17-2.736Z" transform="translate(-209.084 -195.007)" fill="#fff"/>
          <path id="Path_5441" data-name="Path 5441" d="M176.5,195.321c-.6-.845-1.545-1.624-1.726-2.551a1.738,1.738,0,0,1,2.108-2.118,3.015,3.015,0,0,1,2.056,1.948c.071.849-.9,1.786-1.423,2.685l-1.016.037" transform="translate(-206.137 -195.466)" fill="#fff"/>
          <path id="Path_5442" data-name="Path 5442" d="M155.8,212.161c-.637-.816-1.825-1.676-1.762-2.432a3.2,3.2,0,0,1,2.042-2.208c.554-.138,1.974,1.091,2.086,1.844.123.819-.82,1.8-1.3,2.706l-1.068.09" transform="translate(-210.082 -192.246)" fill="#fff"/>
          <path id="Path_5443" data-name="Path 5443" d="M209.51,207.825c-.641-.807-1.814-1.641-1.775-2.413a3.258,3.258,0,0,1,1.968-2.249,1.735,1.735,0,0,1,2.248,1.929c-.074.924-.932,1.785-1.439,2.675l-1,.058" transform="translate(-199.849 -193.092)" fill="#fff"/>
          <path id="Path_5444" data-name="Path 5444" d="M229.684,255.9c.813-.624,1.655-1.772,2.43-1.729.829.046,1.594,1.217,2.387,1.9-.691.781-1.289,2.048-2.1,2.2-.769.146-1.76-.874-2.653-1.381-.021-.33-.044-.658-.065-.988" transform="translate(-195.667 -183.355)" fill="#fff"/>
          <path id="Path_5445" data-name="Path 5445" d="M242.9,200.189c.6.832,1.686,1.67,1.675,2.494a3.06,3.06,0,0,1-1.875,2.178,1.774,1.774,0,0,1-2.31-1.93c.076-.927.926-1.791,1.43-2.681Z" transform="translate(-193.628 -193.641)" fill="#fff"/>
          <path id="Path_5446" data-name="Path 5446" d="M214.293,189.982c-.657-.792-1.656-1.494-1.893-2.4a1.771,1.771,0,0,1,1.95-2.292,3.047,3.047,0,0,1,2.2,1.825c.16.8-.739,1.816-1.175,2.737l-1.081.126" transform="translate(-198.973 -196.482)" fill="#fff"/>
          <path id="Path_5447" data-name="Path 5447" d="M181.229,189.526c.807-.655,1.648-1.862,2.412-1.816a3.15,3.15,0,0,1,2.217,2.018c.139.583-1.054,2.022-1.8,2.136-.825.126-1.814-.817-2.731-1.294-.035-.349-.068-.7-.1-1.044" transform="translate(-204.899 -196.019)" fill="#fff"/>
          <path id="Path_5448" data-name="Path 5448" d="M186.676,207.619c.791-.658,1.593-1.849,2.37-1.831.831.018,1.635,1.175,2.45,1.836-.667.8-1.226,2.082-2.032,2.263-.764.171-1.786-.813-2.694-1.289-.031-.326-.063-.652-.094-.979" transform="translate(-203.861 -192.574)" fill="#fff"/>
          <path id="Path_5449" data-name="Path 5449" d="M218.027,281.9c.643.8,1.745,1.573,1.793,2.407a3.03,3.03,0,0,1-1.711,2.258,1.769,1.769,0,0,1-2.439-1.76c.011-.936.839-1.862,1.3-2.792l1.055-.114" transform="translate(-198.337 -178.072)" fill="#fff"/>
          <path id="Path_5450" data-name="Path 5450" d="M241.3,183.87c-.638-.81-1.829-1.666-1.766-2.417a3.225,3.225,0,0,1,2.03-2.22c.531-.145,1.855,1.037,2.118,1.851.417,1.294-.464,2.2-2.382,2.786" transform="translate(-193.79 -197.636)" fill="#fff"/>
          <path id="Path_5451" data-name="Path 5451" d="M178.224,257.576c.814-.636,1.554-1.627,2.463-1.822a1.767,1.767,0,0,1,2.21,2.036,3.028,3.028,0,0,1-1.875,2.117c-.82.124-1.8-.793-2.707-1.256-.03-.358-.061-.717-.09-1.075" transform="translate(-205.472 -183.063)" fill="#fff"/>
          <path id="Path_5452" data-name="Path 5452" d="M244.179,250.87c.823-.6,1.686-1.731,2.457-1.672.833.065,1.58,1.239,2.364,1.929-.71.773-1.331,2.026-2.154,2.176-.758.138-1.733-.908-2.613-1.432Z" transform="translate(-192.905 -184.303)" fill="#fff"/>
          <path id="Path_5453" data-name="Path 5453" d="M227.811,209.17c.82-.626,1.67-1.776,2.454-1.733a3.2,3.2,0,0,1,2.254,1.961,1.74,1.74,0,0,1-1.974,2.212c-.939-.112-1.791-.955-2.68-1.472l-.054-.968" transform="translate(-196.023 -192.26)" fill="#fff"/>
          <path id="Path_5454" data-name="Path 5454" d="M234.158,174.466c.781-.682,1.574-1.913,2.341-1.9a3.208,3.208,0,0,1,2.33,1.9c.171.525-.993,2.018-1.744,2.172-.816.168-1.847-.713-2.784-1.137l-.143-1.042" transform="translate(-194.814 -198.904)" fill="#fff"/>
          <path id="Path_5455" data-name="Path 5455" d="M166.471,253.988c.677.79,1.816,1.539,1.893,2.386a3.048,3.048,0,0,1-1.716,2.273,1.73,1.73,0,0,1-2.442-1.719c.014-.941.8-1.87,1.248-2.8l1.017-.135" transform="translate(-208.143 -183.39)" fill="#fff"/>
          <path id="Path_5456" data-name="Path 5456" d="M238.5,208.447c.848-.6,1.63-1.524,2.558-1.706a1.73,1.73,0,0,1,2.112,2.108,3.031,3.031,0,0,1-1.956,2.06c-.842.074-1.776-.91-2.67-1.432-.014-.343-.03-.687-.044-1.03" transform="translate(-193.987 -192.401)" fill="#fff"/>
          <path id="Path_5457" data-name="Path 5457" d="M205.676,209.631c.616.841,1.585,1.613,1.763,2.538a1.764,1.764,0,0,1-2.1,2.148,3.037,3.037,0,0,1-2.073-1.955c-.083-.841.889-1.787,1.4-2.687l1.008-.044" transform="translate(-200.702 -191.842)" fill="#fff"/>
          <path id="Path_5458" data-name="Path 5458" d="M181.075,176.539c.8-.635,1.623-1.8,2.385-1.761.839.045,1.619,1.2,2.425,1.868-.683.8-1.258,2.083-2.082,2.269-.739.168-1.751-.864-2.643-1.368Z" transform="translate(-204.929 -198.483)" fill="#fff"/>
          <path id="Path_5459" data-name="Path 5459" d="M161.908,179.535a6.332,6.332,0,0,1-1.469.38,2.053,2.053,0,0,1-2.379-2.211,1.971,1.971,0,0,1,2.391-2.15,2.059,2.059,0,0,1,1.932,2.617,6.754,6.754,0,0,1-.527,1.42Z" transform="translate(-209.314 -198.338)" fill="#fff"/>
          <path id="Path_5460" data-name="Path 5460" d="M166.375,175.831c.775-.667,1.549-1.857,2.324-1.857.831,0,1.663,1.118,2.494,1.749-.646.821-1.171,2.122-1.975,2.326-.755.193-1.8-.775-2.723-1.231-.04-.33-.08-.658-.12-.987" transform="translate(-207.73 -198.636)" fill="#fff"/>
          <path id="Path_5461" data-name="Path 5461" d="M168.778,219.254c-.6-.826-1.67-1.655-1.667-2.478,0-.771,1.214-2.21,1.768-2.151a3.216,3.216,0,0,1,2.348,1.882c.177.738-.864,1.768-1.369,2.67l-1.08.076" transform="translate(-207.589 -190.891)" fill="#fff"/>
          <path id="Path_5462" data-name="Path 5462" d="M236.038,248.654c.814-.632,1.548-1.6,2.462-1.819a1.727,1.727,0,0,1,2.216,2A3.048,3.048,0,0,1,238.867,251c-.833.118-1.817-.823-2.735-1.3-.031-.348-.063-.7-.094-1.044" transform="translate(-194.456 -184.765)" fill="#fff"/>
          <path id="Path_5463" data-name="Path 5463" d="M232.57,252.182c-.685-.76-1.908-1.52-1.907-2.279a2.086,2.086,0,0,1,4.134-.569c.207.731-.76,1.8-1.21,2.712l-1.017.136" transform="translate(-195.48 -184.617)" fill="#fff"/>
          <path id="Path_5464" data-name="Path 5464" d="M168.032,254.444c.768-.687,1.529-1.9,2.306-1.916.829-.011,1.673,1.119,2.511,1.751-.641.821-1.156,2.118-1.957,2.329-.756.2-1.812-.744-2.737-1.186-.04-.326-.082-.652-.123-.979" transform="translate(-207.414 -183.668)" fill="#fff"/>
          <path id="Path_5465" data-name="Path 5465" d="M186.829,168.483c.627.818,1.723,1.624,1.744,2.458a3.027,3.027,0,0,1-1.782,2.237,1.775,1.775,0,0,1-2.372-1.86c.057-.938.877-1.831,1.356-2.744l1.054-.092" transform="translate(-204.292 -199.682)" fill="#fff"/>
          <path id="Path_5466" data-name="Path 5466" d="M215.5,212.794c.808-.629,1.642-1.781,2.418-1.743.827.042,1.6,1.206,2.4,1.88-.686.792-1.274,2.069-2.087,2.233-.761.155-1.76-.871-2.654-1.377-.025-.331-.049-.662-.074-.993" transform="translate(-198.37 -191.571)" fill="#fff"/>
          <path id="Path_5467" data-name="Path 5467" d="M156.327,221.755c-.617-.819-1.572-1.563-1.77-2.474a1.73,1.73,0,0,1,1.981-2.2,3.233,3.233,0,0,1,2.233,1.979c.133.773-.921,1.749-1.456,2.635l-.988.058" transform="translate(-209.991 -190.428)" fill="#fff"/>
          <path id="Path_5468" data-name="Path 5468" d="M164.331,170.779c.821-.639,1.569-1.643,2.483-1.83a1.779,1.779,0,0,1,2.2,2.057,3.022,3.022,0,0,1-1.885,2.114c-.837.11-1.81-.821-2.724-1.3l-.079-1.041" transform="translate(-208.119 -199.602)" fill="#fff"/>
          <path id="Path_5469" data-name="Path 5469" d="M179.678,252.715c.788-.664,1.587-1.86,2.363-1.845a3.248,3.248,0,0,1,2.308,1.893,1.74,1.74,0,0,1-1.86,2.308c-.929-.048-1.816-.887-2.722-1.373Z" transform="translate(-205.195 -183.984)" fill="#fff"/>
          <path id="Path_5470" data-name="Path 5470" d="M173.516,221.03c-.673-.791-1.811-1.543-1.879-2.382a3.061,3.061,0,0,1,1.72-2.281,1.77,1.77,0,0,1,2.468,1.726c0,.933-.819,1.868-1.273,2.8l-1.037.135" transform="translate(-206.727 -190.585)" fill="#fff"/>
          <path id="Path_5471" data-name="Path 5471" d="M245.168,211.992c.846-.594,1.627-1.524,2.554-1.7a1.729,1.729,0,0,1,2.114,2.107,3.032,3.032,0,0,1-1.954,2.056c-.845.073-1.781-.9-2.679-1.424l-.036-1.036" transform="translate(-192.716 -191.724)" fill="#fff"/>
          <path id="Path_5472" data-name="Path 5472" d="M209.33,268.741c-.6-.832-1.663-1.672-1.648-2.492a3.046,3.046,0,0,1,1.852-2.186,1.783,1.783,0,0,1,2.32,1.925c-.081.931-.938,1.794-1.448,2.688l-1.077.064" transform="translate(-199.859 -181.485)" fill="#fff"/>
          <path id="Path_5473" data-name="Path 5473" d="M208.135,251.31c-.666-.792-1.885-1.611-1.848-2.368a3.224,3.224,0,0,1,1.957-2.3c.535-.163,2.011,1.027,2.149,1.779.15.819-.757,1.832-1.2,2.761l-1.055.126" transform="translate(-200.125 -184.792)" fill="#fff"/>
          <path id="Path_5474" data-name="Path 5474" d="M178.549,165.114c-.655-.793-1.856-1.612-1.819-2.372a3.187,3.187,0,0,1,1.941-2.279c.539-.157,1.994,1.025,2.137,1.779.154.811-.744,1.82-1.183,2.744l-1.075.127" transform="translate(-205.757 -201.213)" fill="#fff"/>
          <path id="Path_5475" data-name="Path 5475" d="M156.033,160.695c.627.82,1.72,1.625,1.745,2.463.024.763-1.173,2.239-1.722,2.189a3.2,3.2,0,0,1-2.369-1.847c-.185-.755.83-1.8,1.316-2.722l1.03-.085" transform="translate(-210.151 -201.166)" fill="#fff"/>
          <path id="Path_5476" data-name="Path 5476" d="M210.243,214.937c.636.8,1.61,1.529,1.827,2.434a1.776,1.776,0,0,1-1.991,2.258,3.039,3.039,0,0,1-2.164-1.866c-.138-.814.786-1.808,1.246-2.724l1.081-.1" transform="translate(-199.817 -190.831)" fill="#fff"/>
          <path id="Path_5477" data-name="Path 5477" d="M230.562,159.013c-.644-.811-1.639-1.542-1.848-2.453a1.754,1.754,0,0,1,2.006-2.23,3.033,3.033,0,0,1,2.143,1.847c.127.827-.783,1.814-1.242,2.732l-1.06.1" transform="translate(-195.862 -202.384)" fill="#fff"/>
          <path id="Path_5478" data-name="Path 5478" d="M205.261,158.445c-.6-.832-1.712-1.706-1.65-2.487.064-.819,1.255-1.551,1.955-2.32.764.712,2.023,1.344,2.155,2.16.124.769-.936,1.73-1.473,2.607l-.987.04" transform="translate(-200.635 -202.511)" fill="#fff"/>
          <path id="Path_5479" data-name="Path 5479" d="M166.033,249.193c.606.839,1.669,1.674,1.68,2.522a3.025,3.025,0,0,1-1.849,2.149,1.753,1.753,0,0,1-2.317-1.9c.076-.937.95-1.808,1.467-2.71l1.019-.057" transform="translate(-208.27 -184.304)" fill="#fff"/>
          <path id="Path_5480" data-name="Path 5480" d="M204.569,222.829c-.668-.777-1.874-1.566-1.86-2.329a2.087,2.087,0,0,1,4.148-.469c.186.742-.8,1.777-1.271,2.683l-1.017.114" transform="translate(-200.807 -190.207)" fill="#fff"/>
          <path id="Path_5481" data-name="Path 5481" d="M250.415,245.276c-.6-.838-1.655-1.682-1.647-2.514.007-.756,1.249-2.162,1.817-2.1a3.177,3.177,0,0,1,2.314,1.906c.161.75-.9,1.761-1.422,2.657l-1.063.05" transform="translate(-192.03 -185.929)" fill="#fff"/>
          <path id="Path_5482" data-name="Path 5482" d="M209.717,152.523c.808-.633,1.6-1.723,2.432-1.764a3.024,3.024,0,0,1,2.231,1.737,1.762,1.762,0,0,1-1.783,2.418c-.935-.025-1.848-.861-2.77-1.335-.037-.351-.073-.7-.11-1.056" transform="translate(-199.471 -203.06)" fill="#fff"/>
          <path id="Path_5483" data-name="Path 5483" d="M181.043,152.987c.636.8,1.6,1.506,1.833,2.406a1.773,1.773,0,0,1-1.956,2.286,3.058,3.058,0,0,1-2.2-1.854c-.152-.8.77-1.8,1.224-2.72Z" transform="translate(-205.38 -202.635)" fill="#fff"/>
          <path id="Path_5484" data-name="Path 5484" d="M246.094,245.628c-.645-.8-1.632-1.512-1.856-2.414a1.737,1.737,0,0,1,1.925-2.251,3.247,3.247,0,0,1,2.3,1.91c.158.76-.873,1.768-1.381,2.667l-.989.089" transform="translate(-192.905 -185.876)" fill="#fff"/>
          <path id="Path_5485" data-name="Path 5485" d="M238.447,242.782c.786-.668,1.574-1.864,2.355-1.86a3.246,3.246,0,0,1,2.316,1.875,1.742,1.742,0,0,1-1.837,2.33c-.925-.036-1.82-.874-2.73-1.354l-.1-.992" transform="translate(-193.997 -185.88)" fill="#fff"/>
          <path id="Path_5486" data-name="Path 5486" d="M226.327,217.159c.6.855,1.533,1.645,1.707,2.58a1.765,1.765,0,0,1-2.132,2.122,3.029,3.029,0,0,1-2.055-2c-.061-.851.946-1.779,1.491-2.673l.989-.033" transform="translate(-196.779 -190.407)" fill="#fff"/>
          <path id="Path_5487" data-name="Path 5487" d="M223.043,148.349c-.627-.826-1.717-1.638-1.744-2.485-.024-.745,1.2-2.191,1.764-2.142a3.177,3.177,0,0,1,2.368,1.847c.17.761-.876,1.794-1.388,2.707l-1,.073" transform="translate(-197.264 -204.401)" fill="#fff"/>
          <path id="Path_5488" data-name="Path 5488" d="M173.575,151.3c-.638-.812-1.632-1.547-1.829-2.454a1.763,1.763,0,0,1,2.024-2.217,3.04,3.04,0,0,1,2.136,1.857c.124.823-.8,1.8-1.263,2.714l-1.068.1" transform="translate(-206.716 -203.851)" fill="#fff"/>
          <path id="Path_5489" data-name="Path 5489" d="M232.744,217.341c.669.779,1.862,1.555,1.863,2.335,0,.825-1.13,1.652-1.767,2.48-.818-.649-2.118-1.179-2.316-1.98-.187-.76.782-1.8,1.243-2.723l.976-.112" transform="translate(-195.511 -190.373)" fill="#fff"/>
          <path id="Path_5490" data-name="Path 5490" d="M247.323,218.327c.823-.632,1.7-1.817,2.455-1.748A3.257,3.257,0,0,1,252,218.637c.142.524-1.127,1.947-1.894,2.057-.82.119-1.8-.829-2.7-1.311l-.082-1.056" transform="translate(-192.306 -190.518)" fill="#fff"/>
          <path id="Path_5491" data-name="Path 5491" d="M222.425,264.241c.24.274.669.536.686.823.055.944.281,2.124-.179,2.775a2.086,2.086,0,0,1-3.6-1.768c.226-.75,1.313-1.279,2.1-1.8.245-.163.714.01,1.081.03l-.086-.061" transform="translate(-197.645 -181.444)" fill="#fff"/>
          <path id="Path_5492" data-name="Path 5492" d="M215.248,224.482c-.657-.776-1.641-1.458-1.894-2.349a1.731,1.731,0,0,1,1.833-2.323,3.25,3.25,0,0,1,2.354,1.844c.185.751-.808,1.792-1.285,2.706Z" transform="translate(-198.794 -189.905)" fill="#fff"/>
          <path id="Path_5493" data-name="Path 5493" d="M205.548,144.611c-.6-.829-1.71-1.7-1.649-2.475.065-.825,1.244-1.563,1.936-2.338.773.71,2.033,1.336,2.175,2.156.132.762-.929,1.731-1.463,2.608l-1,.049" transform="translate(-200.58 -205.148)" fill="#fff"/>
          <path id="Path_5494" data-name="Path 5494" d="M178.776,225.881c.794-.652,1.5-1.657,2.4-1.873a1.772,1.772,0,0,1,2.275,1.972,3.046,3.046,0,0,1-1.82,2.182c-.811.148-1.814-.752-2.733-1.2q-.061-.541-.124-1.085" transform="translate(-205.367 -189.114)" fill="#fff"/>
          <path id="Path_5495" data-name="Path 5495" d="M200.867,277.728c.788-.685,1.531-1.83,2.379-1.913a3.047,3.047,0,0,1,2.287,1.7,1.715,1.715,0,0,1-1.708,2.439c-.948-.02-1.88-.782-2.818-1.212l-.139-1.019" transform="translate(-201.157 -179.232)" fill="#fff"/>
          <path id="Path_5496" data-name="Path 5496" d="M213.138,139.991c.811-.644,1.6-1.749,2.441-1.792a3.031,3.031,0,0,1,2.224,1.77,1.722,1.722,0,0,1-1.8,2.376c-.943-.052-1.844-.855-2.764-1.322q-.054-.518-.1-1.033" transform="translate(-198.819 -205.453)" fill="#fff"/>
          <path id="Path_5497" data-name="Path 5497" d="M157.878,247.037c.814-.61,1.676-1.753,2.429-1.685.832.075,2.147,1.236,2.177,1.968a3,3,0,0,1-1.956,2.2c-.743.144-1.719-.919-2.593-1.45l-.057-1.037" transform="translate(-209.349 -185.036)" fill="#fff"/>
          <path id="Path_5498" data-name="Path 5498" d="M217.079,275.425c.82-.617,1.677-1.763,2.448-1.7a2.082,2.082,0,0,1,.218,4.159c-.768.132-1.737-.918-2.618-1.448q-.025-.5-.048-1.006" transform="translate(-198.068 -179.63)" fill="#fff"/>
          <path id="Path_5499" data-name="Path 5499" d="M235.735,133.464c.61.829,1.676,1.648,1.693,2.488a3.023,3.023,0,0,1-1.806,2.179,1.761,1.761,0,0,1-2.356-1.862c.054-.935.917-1.823,1.417-2.731l1.052-.074" transform="translate(-194.985 -206.355)" fill="#fff"/>
          <path id="Path_5500" data-name="Path 5500" d="M197.969,227.464c-.648-.786-1.618-1.482-1.864-2.379a1.724,1.724,0,0,1,1.856-2.3,3.245,3.245,0,0,1,2.328,1.873c.176.754-.824,1.783-1.306,2.692l-1.013.112" transform="translate(-202.08 -189.338)" fill="#fff"/>
          <path id="Path_5501" data-name="Path 5501" d="M164.777,272.177c.8-.657,1.5-1.666,2.406-1.889a1.8,1.8,0,0,1,2.3,1.968,3.028,3.028,0,0,1-1.841,2.172c-.814.149-1.82-.75-2.742-1.192-.04-.352-.08-.706-.12-1.058" transform="translate(-208.034 -180.296)" fill="#fff"/>
          <path id="Path_5502" data-name="Path 5502" d="M153.955,229.722c.824-.613,1.688-1.756,2.46-1.7.83.064,1.57,1.258,2.35,1.96-.708.767-1.333,2.017-2.15,2.158-.766.132-1.733-.911-2.612-1.436-.015-.329-.032-.657-.048-.986" transform="translate(-210.096 -188.337)" fill="#fff"/>
          <path id="Path_5503" data-name="Path 5503" d="M183.7,281.749c-.682-.763-1.9-1.526-1.9-2.288a2.084,2.084,0,0,1,4.13-.555c.2.732-.757,1.792-1.206,2.707l-1.021.136" transform="translate(-204.792 -178.983)" fill="#fff"/>
          <path id="Path_5504" data-name="Path 5504" d="M238.857,222.9c.838-.583,1.687-1.635,2.51-1.614.766.019,2.166,1.258,2.1,1.819a3.189,3.189,0,0,1-1.924,2.3c-.739.161-1.744-.9-2.632-1.416-.018-.361-.035-.723-.052-1.085" transform="translate(-193.919 -189.622)" fill="#fff"/>
          <path id="Path_5505" data-name="Path 5505" d="M177.092,90.7c-.623-.806-1.714-1.6-1.733-2.423-.017-.77,1.149-2.238,1.706-2.2a3.2,3.2,0,0,1,2.387,1.813c.2.729-.8,1.787-1.266,2.7l-1.094.106" transform="translate(-206.018 -215.384)" fill="#fff"/>
          <path id="Path_5506" data-name="Path 5506" d="M238.658,82.4c.8-.662,1.523-1.676,2.435-1.9a1.755,1.755,0,0,1,2.257,1.978,3.046,3.046,0,0,1-1.814,2.189c-.836.132-1.836-.783-2.766-1.243-.037-.34-.075-.681-.112-1.021" transform="translate(-193.957 -216.459)" fill="#fff"/>
          <path id="Path_5507" data-name="Path 5507" d="M175.808,131.124c.827-.616,1.645-1.693,2.485-1.708a3.042,3.042,0,0,1,2.177,1.823,1.766,1.766,0,0,1-1.861,2.362c-.933-.054-1.82-.93-2.728-1.438-.025-.346-.049-.692-.074-1.038" transform="translate(-205.932 -207.126)" fill="#fff"/>
          <path id="Path_5508" data-name="Path 5508" d="M236.742,124.441c.817-.632,1.611-1.719,2.456-1.76a3.024,3.024,0,0,1,2.212,1.76,1.747,1.747,0,0,1-1.8,2.391c-.942-.039-1.849-.88-2.773-1.362-.03-.343-.061-.686-.09-1.029" transform="translate(-194.322 -208.41)" fill="#fff"/>
          <path id="Path_5509" data-name="Path 5509" d="M181.349,229.324c.845-.583,1.7-1.631,2.532-1.613.751.015,2.129,1.274,2.061,1.848a3.164,3.164,0,0,1-1.924,2.289c-.75.149-1.744-.926-2.631-1.463q-.018-.53-.038-1.061" transform="translate(-204.876 -188.397)" fill="#fff"/>
          <path id="Path_5510" data-name="Path 5510" d="M202.478,236.432c.817-.636,1.558-1.624,2.469-1.822a1.756,1.756,0,0,1,2.212,2.027,3.039,3.039,0,0,1-1.869,2.131c-.835.114-1.813-.814-2.729-1.289-.027-.349-.056-.7-.083-1.048" transform="translate(-200.851 -187.092)" fill="#fff"/>
          <path id="Path_5511" data-name="Path 5511" d="M173.536,238.663c.8-.623,1.632-1.773,2.391-1.725.83.051,2.185,1.175,2.223,1.891a3,3,0,0,1-1.9,2.249c-.739.163-1.743-.869-2.63-1.375-.027-.346-.056-.693-.083-1.039" transform="translate(-206.365 -186.639)" fill="#fff"/>
          <path id="Path_5512" data-name="Path 5512" d="M173.914,103.394c.846-.6,1.7-1.667,2.537-1.657a3.031,3.031,0,0,1,2.168,1.879,1.783,1.783,0,0,1-1.962,2.293c-.939-.1-1.8-.961-2.7-1.481-.015-.344-.032-.689-.048-1.033" transform="translate(-206.293 -212.4)" fill="#fff"/>
          <path id="Path_5513" data-name="Path 5513" d="M219.426,270.5c.763-.688,1.519-1.911,2.289-1.919.836-.01,1.683,1.112,2.525,1.742-.636.823-1.144,2.112-1.948,2.335-.746.207-1.807-.723-2.731-1.151l-.136-1.006" transform="translate(-197.621 -180.61)" fill="#fff"/>
          <path id="Path_5514" data-name="Path 5514" d="M214.365,115.625c.623.824,1.7,1.632,1.731,2.476a3.02,3.02,0,0,1-1.8,2.181,1.753,1.753,0,0,1-2.361-1.844c.054-.937.912-1.826,1.411-2.737Z" transform="translate(-199.049 -209.754)" fill="#fff"/>
          <path id="Path_5515" data-name="Path 5515" d="M247.646,268.02c.808-.63,1.6-1.725,2.43-1.754a3.044,3.044,0,0,1,2.238,1.757,1.8,1.8,0,0,1-1.819,2.419c-.923-.014-1.831-.871-2.745-1.351l-.1-1.072" transform="translate(-192.244 -181.051)" fill="#fff"/>
          <path id="Path_5516" data-name="Path 5516" d="M191.259,107.715c.823-.642,1.569-1.652,2.485-1.837a1.769,1.769,0,0,1,2.2,2.058,3.058,3.058,0,0,1-1.869,2.147c-.841.1-1.811-.849-2.725-1.343l-.086-1.025" transform="translate(-202.988 -211.62)" fill="#fff"/>
          <path id="Path_5517" data-name="Path 5517" d="M235.969,110.765c.8-.656,1.558-1.768,2.4-1.833a3.026,3.026,0,0,1,2.278,1.683,1.77,1.77,0,0,1-1.741,2.454c-.939,0-1.876-.837-2.816-1.3-.04-.333-.082-.668-.123-1" transform="translate(-194.469 -211.03)" fill="#fff"/>
          <path id="Path_5518" data-name="Path 5518" d="M185.013,114.735c.791-.652,1.614-1.856,2.364-1.812a3.171,3.171,0,0,1,2.281,1.948c.152.574-1.023,2.032-1.776,2.172-.812.15-1.823-.776-2.748-1.232l-.121-1.075" transform="translate(-204.178 -210.269)" fill="#fff"/>
          <path id="Path_5519" data-name="Path 5519" d="M196.658,236.145c-.661-.8-1.779-1.56-1.843-2.4a3.029,3.029,0,0,1,1.713-2.263,1.73,1.73,0,0,1,2.423,1.744c-.026.944-.817,1.866-1.266,2.8l-1.027.125" transform="translate(-202.311 -187.705)" fill="#fff"/>
          <path id="Path_5520" data-name="Path 5520" d="M214.479,234.959c-.63-.817-1.8-1.669-1.744-2.438a3.264,3.264,0,0,1,2.012-2.22,1.743,1.743,0,0,1,2.224,1.961c-.087.921-.966,1.768-1.492,2.647l-1,.051" transform="translate(-198.896 -187.919)" fill="#fff"/>
          <path id="Path_5521" data-name="Path 5521" d="M228.47,283.475c-.61-.825-1.685-1.644-1.693-2.475-.008-.763,1.2-2.213,1.749-2.156a3.212,3.212,0,0,1,2.358,1.866c.179.743-.856,1.779-1.356,2.686l-1.058.08" transform="translate(-196.22 -178.654)" fill="#fff"/>
          <path id="Path_5522" data-name="Path 5522" d="M160.64,237.48c.794-.661,1.613-1.872,2.374-1.835a3.2,3.2,0,0,1,2.276,1.957c.157.539-1.032,2-1.782,2.135-.816.149-1.823-.757-2.747-1.2l-.121-1.054" transform="translate(-208.822 -186.885)" fill="#fff"/>
          <path id="Path_5523" data-name="Path 5523" d="M167.514,115.033c-.646-.8-1.832-1.625-1.793-2.389a2.091,2.091,0,0,1,4.168-.335c.163.744-.868,1.752-1.373,2.644l-1,.08" transform="translate(-207.854 -210.75)" fill="#fff"/>
          <path id="Path_5524" data-name="Path 5524" d="M237.756,269.612c.813-.618,1.618-1.7,2.444-1.718a3.053,3.053,0,0,1,2.22,1.775,1.777,1.777,0,0,1-1.832,2.391c-.925-.027-1.825-.88-2.737-1.364-.031-.361-.063-.723-.1-1.083" transform="translate(-194.129 -180.74)" fill="#fff"/>
          <path id="Path_5525" data-name="Path 5525" d="M191.779,216.382c-.666-.8-1.682-1.514-1.912-2.425a1.754,1.754,0,0,1,1.977-2.258,3.069,3.069,0,0,1,2.224,1.808c.124.842-.819,1.841-1.3,2.772l-.991.1" transform="translate(-203.266 -191.452)" fill="#fff"/>
          <path id="Path_5526" data-name="Path 5526" d="M247.457,101.754c.789-.66,1.588-1.848,2.367-1.835a3.225,3.225,0,0,1,2.3,1.887,1.736,1.736,0,0,1-1.862,2.3c-.929-.055-1.811-.886-2.713-1.37l-.093-.985" transform="translate(-192.28 -212.747)" fill="#fff"/>
          <path id="Path_5527" data-name="Path 5527" d="M225.225,101.387c.65.8,1.85,1.636,1.8,2.391a3.227,3.227,0,0,1-1.985,2.261c-.526.154-1.976-1.061-2.1-1.814-.139-.816.777-1.811,1.235-2.728l1.052-.11" transform="translate(-196.955 -212.467)" fill="#fff"/>
          <path id="Path_5528" data-name="Path 5528" d="M191.478,198.817c.83-.62,1.645-1.7,2.492-1.725a3.009,3.009,0,0,1,2.2,1.8,1.772,1.772,0,0,1-1.87,2.361c-.944-.065-1.833-.926-2.747-1.431-.026-.333-.051-.667-.077-1" transform="translate(-202.947 -194.231)" fill="#fff"/>
          <path id="Path_5529" data-name="Path 5529" d="M169.873,123.142c.787-.682,1.531-1.829,2.374-1.906a3.073,3.073,0,0,1,2.282,1.718,1.759,1.759,0,0,1-1.714,2.469c-.933,0-1.872-.812-2.807-1.261-.044-.34-.089-.68-.135-1.02" transform="translate(-207.063 -208.686)" fill="#fff"/>
          <path id="Path_5530" data-name="Path 5530" d="M203.321,227.682c.835-.62,1.6-1.586,2.52-1.78a1.768,1.768,0,0,1,2.174,2.076,3,3,0,0,1-1.932,2.079c-.842.09-1.8-.867-2.7-1.368l-.061-1.007" transform="translate(-200.69 -188.75)" fill="#fff"/>
          <path id="Path_5531" data-name="Path 5531" d="M177.274,276.509c-.612-.838-1.566-1.606-1.756-2.531a1.762,1.762,0,0,1,2.087-2.162,3.018,3.018,0,0,1,2.077,1.945c.086.842-.885,1.789-1.4,2.692l-1.013.056" transform="translate(-205.996 -179.999)" fill="#fff"/>
          <path id="Path_5532" data-name="Path 5532" d="M245.514,199.6c.8-.666,1.511-1.692,2.417-1.91a1.771,1.771,0,0,1,2.261,1.985,3.028,3.028,0,0,1-1.814,2.175c-.824.139-1.824-.763-2.748-1.212-.038-.345-.077-.692-.115-1.038" transform="translate(-192.65 -194.129)" fill="#fff"/>
          <path id="Path_5533" data-name="Path 5533" d="M207.7,194.194c.826-.591,1.707-1.707,2.466-1.63.829.085,2.141,1.268,2.148,1.982a3,3,0,0,1-1.992,2.18c-.75.13-1.711-.951-2.58-1.5-.013-.344-.027-.689-.042-1.033" transform="translate(-199.856 -195.094)" fill="#fff"/>
          <path id="Path_5534" data-name="Path 5534" d="M199.592,102.6c-.657-.8-1.87-1.63-1.824-2.385a3.245,3.245,0,0,1,1.986-2.275c.52-.157,1.979,1.056,2.112,1.813.143.814-.77,1.814-1.223,2.733l-1.051.113" transform="translate(-201.748 -213.126)" fill="#fff"/>
          <path id="Path_5535" data-name="Path 5535" d="M209.215,178.709c-.611-.842-1.681-1.679-1.692-2.529a3.039,3.039,0,0,1,1.868-2.143,1.761,1.761,0,0,1,2.323,1.9c-.073.937-.963,1.811-1.488,2.712l-1.011.055" transform="translate(-199.889 -198.642)" fill="#fff"/>
          <path id="Path_5536" data-name="Path 5536" d="M163.136,100.651c.857-.575,1.783-1.679,2.554-1.58a3.273,3.273,0,0,1,2.089,2.143,1.732,1.732,0,0,1-2.1,2.088c-.92-.145-1.716-1.081-2.567-1.666.006-.329.013-.657.019-.986" transform="translate(-208.35 -212.91)" fill="#fff"/>
          <path id="Path_5537" data-name="Path 5537" d="M161.348,178.951c1.06.117,2.279-.036,3.114.46.426.254.479,1.835.119,2.5a2.706,2.706,0,0,1-2.214.891c-1.77-.149-2.147-1.864-.968-3.909l-.051.056" transform="translate(-208.807 -197.698)" fill="#fff"/>
          <path id="Path_5538" data-name="Path 5538" d="M223.595,281.4c-.816.635-1.608,1.725-2.455,1.768a3.008,3.008,0,0,1-2.218-1.754,1.754,1.754,0,0,1,1.808-2.393c.943.046,1.847.888,2.768,1.375l.1,1" transform="translate(-197.739 -178.621)" fill="#fff"/>
          <path id="Path_5539" data-name="Path 5539" d="M195.19,128.894c-.649-.816-1.661-1.552-1.86-2.466a1.774,1.774,0,0,1,2.041-2.213,3.036,3.036,0,0,1,2.141,1.867c.117.831-.817,1.81-1.293,2.724l-1.029.088" transform="translate(-202.603 -208.122)" fill="#fff"/>
          <path id="Path_5540" data-name="Path 5540" d="M215.432,250.161c.594.846,1.644,1.692,1.645,2.539a3.016,3.016,0,0,1-1.863,2.13,1.769,1.769,0,0,1-2.307-1.925c.08-.937.987-1.8,1.525-2.7l1-.044" transform="translate(-198.865 -184.119)" fill="#fff"/>
          <path id="Path_5541" data-name="Path 5541" d="M159.1,241.975c.851-.6,1.642-1.562,2.57-1.72a1.765,1.765,0,0,1,2.1,2.142,3.018,3.018,0,0,1-1.98,2.03c-.844.065-1.77-.919-2.66-1.448-.012-.335-.023-.669-.035-1" transform="translate(-209.117 -186.013)" fill="#fff"/>
          <path id="Path_5542" data-name="Path 5542" d="M156.638,132.971c.8-.66,1.573-1.781,2.418-1.841a3.02,3.02,0,0,1,2.286,1.711,1.779,1.779,0,0,1-1.776,2.435c-.95-.026-1.877-.842-2.814-1.3-.038-.333-.075-.667-.113-1" transform="translate(-209.585 -206.8)" fill="#fff"/>
          <path id="Path_5543" data-name="Path 5543" d="M180.932,243.611c-.642-.81-1.833-1.66-1.776-2.416a3.214,3.214,0,0,1,2.014-2.237c.537-.148,1.969,1.077,2.093,1.836.133.814-.793,1.8-1.257,2.716l-1.074.1" transform="translate(-205.295 -186.256)" fill="#fff"/>
          <path id="Path_5544" data-name="Path 5544" d="M170.214,244.849c-.593-.835-1.658-1.679-1.642-2.5.015-.766,1.252-2.168,1.825-2.107a3.192,3.192,0,0,1,2.316,1.916c.164.737-.9,1.748-1.419,2.638l-1.08.054" transform="translate(-207.311 -186.01)" fill="#fff"/>
          <path id="Path_5545" data-name="Path 5545" d="M153.042,170.826c.8-.632,1.574-1.73,2.392-1.761.769-.029,2.253,1.113,2.218,1.664a3.215,3.215,0,0,1-1.766,2.431c-.725.211-1.8-.785-2.722-1.248-.04-.362-.082-.725-.123-1.087" transform="translate(-210.27 -199.572)" fill="#fff"/>
          <path id="Path_5546" data-name="Path 5546" d="M219.145,254.713c.6.833,1.725,1.7,1.666,2.489-.061.818-1.26,1.55-1.961,2.32-.771-.712-2.044-1.345-2.172-2.158-.121-.773.952-1.733,1.5-2.612l.966-.039" transform="translate(-198.147 -183.252)" fill="#fff"/>
          <path id="Path_5547" data-name="Path 5547" d="M221.384,190.26c-.575-.856-1.606-1.723-1.586-2.567a3.016,3.016,0,0,1,1.9-2.1,1.759,1.759,0,0,1,2.266,1.967c-.1.936-1.006,1.785-1.552,2.672l-1.024.031" transform="translate(-197.55 -196.437)" fill="#fff"/>
          <path id="Path_5548" data-name="Path 5548" d="M204.784,261.447c.8-.645,1.616-1.811,2.4-1.792.818.02,1.607,1.183,2.408,1.847-.674.8-1.248,2.1-2.051,2.258-.77.156-1.777-.864-2.681-1.368-.025-.314-.051-.63-.076-.945" transform="translate(-200.411 -182.31)" fill="#fff"/>
          <path id="Path_5549" data-name="Path 5549" d="M206.363,135.334c-.642-.814-1.741-1.6-1.788-2.453a3.011,3.011,0,0,1,1.751-2.229,1.781,1.781,0,0,1,2.408,1.812c-.031.939-.9,1.852-1.387,2.776l-.985.093" transform="translate(-200.451 -206.912)" fill="#fff"/>
          <path id="Path_5550" data-name="Path 5550" d="M231.576,212.922c.814-.629,1.548-1.587,2.461-1.807a1.774,1.774,0,0,1,2.243,2.008,3.02,3.02,0,0,1-1.893,2.138c-.818.127-1.8-.8-2.714-1.275l-.1-1.064" transform="translate(-195.306 -191.571)" fill="#fff"/>
          <path id="Path_5551" data-name="Path 5551" d="M163.659,209.135c.856-.574,1.777-1.672,2.551-1.576a2.085,2.085,0,0,1-.038,4.169c-.775.086-1.682-1.026-2.531-1.613l.018-.98" transform="translate(-208.251 -192.238)" fill="#fff"/>
          <path id="Path_5552" data-name="Path 5552" d="M158.563,253.4c.837-.611,1.6-1.564,2.528-1.751a1.733,1.733,0,0,1,2.143,2.081,3.06,3.06,0,0,1-1.923,2.107c-.844.081-1.789-.9-2.691-1.424l-.057-1.013" transform="translate(-209.218 -183.843)" fill="#fff"/>
          <path id="Path_5553" data-name="Path 5553" d="M174.054,244.537c.8-.638,1.635-1.814,2.392-1.768a2.085,2.085,0,0,1,.31,4.159c-.742.161-1.741-.861-2.625-1.362-.025-.343-.051-.686-.076-1.029" transform="translate(-206.267 -185.528)" fill="#fff"/>
          <path id="Path_5554" data-name="Path 5554" d="M200.1,186.6c.825-.631,1.574-1.607,2.493-1.81a1.76,1.76,0,0,1,2.2,2.043,3.02,3.02,0,0,1-1.9,2.118c-.839.1-1.807-.846-2.718-1.338-.026-.338-.054-.675-.08-1.013" transform="translate(-201.303 -196.586)" fill="#fff"/>
          <path id="Path_5555" data-name="Path 5555" d="M192.682,277.689c.8-.667,1.567-1.8,2.411-1.861a3.083,3.083,0,0,1,2.249,1.764,1.772,1.772,0,0,1-1.76,2.447c-.932,0-1.86-.866-2.789-1.345l-.111-1" transform="translate(-202.717 -179.229)" fill="#fff"/>
          <path id="Path_5556" data-name="Path 5556" d="M182.468,286.405c-.588-.829-1.7-1.708-1.623-2.47.082-.836,1.261-1.562,1.961-2.337.766.72,2.006,1.356,2.154,2.185.133.75-.929,1.712-1.464,2.581l-1.027.042" transform="translate(-204.973 -178.129)" fill="#fff"/>
          <path id="Path_5557" data-name="Path 5557" d="M246.884,261.679c.645.8,1.76,1.575,1.8,2.4.037.766-1.117,2.261-1.675,2.228a3.218,3.218,0,0,1-2.429-1.78c-.211-.73.783-1.807,1.245-2.731l1.06-.119" transform="translate(-192.834 -181.924)" fill="#fff"/>
          <path id="Path_5558" data-name="Path 5558" d="M174.571,226.3c.783-.68,1.58-1.911,2.345-1.892a3.182,3.182,0,0,1,2.3,1.924c.165.542-1,2.018-1.747,2.167-.813.162-1.836-.73-2.767-1.161-.045-.346-.089-.692-.135-1.038" transform="translate(-206.168 -189.027)" fill="#fff"/>
          <path id="Path_5559" data-name="Path 5559" d="M170.04,179.488c.668.8,1.8,1.569,1.863,2.418a3.061,3.061,0,0,1-1.761,2.245,1.748,1.748,0,0,1-2.428-1.758c.021-.939.855-1.861,1.326-2.791l1-.114" transform="translate(-207.474 -197.585)" fill="#fff"/>
          <path id="Path_5560" data-name="Path 5560" d="M152.961,272.01c.829-.612,1.718-1.773,2.469-1.691a3.182,3.182,0,0,1,2.15,2.088c.124.561-1.132,1.937-1.893,2.039-.813.108-1.769-.85-2.662-1.343l-.064-1.094" transform="translate(-210.286 -180.279)" fill="#fff"/>
          <path id="Path_5561" data-name="Path 5561" d="M202.238,179.117c.8-.658,1.629-1.866,2.392-1.825a3.177,3.177,0,0,1,2.256,1.977c.151.555-1.039,2-1.791,2.135-.818.144-1.822-.769-2.744-1.22-.038-.356-.075-.711-.113-1.067" transform="translate(-200.896 -198.004)" fill="#fff"/>
          <path id="Path_5562" data-name="Path 5562" d="M212.911,199.047c.829-.6,1.657-1.679,2.485-1.676.766,0,2.193,1.22,2.137,1.786a3.192,3.192,0,0,1-1.885,2.339c-.741.173-1.766-.873-2.666-1.381l-.071-1.068" transform="translate(-198.863 -194.178)" fill="#fff"/>
          <path id="Path_5563" data-name="Path 5563" d="M225.43,211.729c-.6-.823-1.732-1.7-1.66-2.455.08-.83,1.251-2.136,1.983-2.161a2.987,2.987,0,0,1,2.176,1.98c.131.754-.939,1.717-1.481,2.588l-1.019.048" transform="translate(-196.794 -192.322)" fill="#fff"/>
          <path id="Path_5564" data-name="Path 5564" d="M203.424,146.4c.646.82,1.662,1.566,1.85,2.48a1.78,1.78,0,0,1-2.06,2.2,3.044,3.044,0,0,1-2.13-1.887c-.1-.836.848-1.8,1.341-2.713l1-.079" transform="translate(-201.118 -203.89)" fill="#fff"/>
          <path id="Path_5565" data-name="Path 5565" d="M186.2,265.558c.787-.681,1.587-1.912,2.356-1.893a3.192,3.192,0,0,1,2.293,1.938c.165.536-1,2.011-1.747,2.154-.819.158-1.838-.729-2.77-1.16l-.132-1.039" transform="translate(-203.953 -181.546)" fill="#fff"/>
          <path id="Path_5566" data-name="Path 5566" d="M231.133,182.44c-.633-.82-1.633-1.567-1.812-2.476a1.767,1.767,0,0,1,2.057-2.192,3.048,3.048,0,0,1,2.119,1.883c.112.826-.825,1.8-1.306,2.7l-1.058.083" transform="translate(-195.744 -197.919)" fill="#fff"/>
          <path id="Path_5567" data-name="Path 5567" d="M158.55,157.549c.827-.611,1.655-1.694,2.485-1.7.769,0,2.222,1.231,2.158,1.777a3.259,3.259,0,0,1-1.9,2.361c-.735.176-1.767-.881-2.668-1.394-.024-.35-.046-.7-.07-1.049" transform="translate(-209.221 -202.089)" fill="#fff"/>
          <path id="Path_5568" data-name="Path 5568" d="M176.085,261.077c-.594-.833-1.652-1.673-1.644-2.5a3.054,3.054,0,0,1,1.854-2.16,1.781,1.781,0,0,1,2.323,1.92c-.056.92-.942,1.791-1.457,2.684l-1.075.056" transform="translate(-206.193 -182.945)" fill="#fff"/>
          <path id="Path_5569" data-name="Path 5569" d="M168.735,269.3c-.618-.818-1.7-1.627-1.717-2.455-.012-.769,1.183-2.236,1.731-2.183a3.225,3.225,0,0,1,2.372,1.857c.188.735-.832,1.781-1.319,2.691l-1.067.09" transform="translate(-207.607 -181.356)" fill="#fff"/>
          <path id="Path_5570" data-name="Path 5570" d="M178.725,210.984c.81-.657,1.535-1.672,2.448-1.885a1.776,1.776,0,0,1,2.248,2,3.037,3.037,0,0,1-1.854,2.163c-.832.125-1.822-.8-2.744-1.27-.032-.337-.065-.674-.1-1.011" transform="translate(-205.376 -191.954)" fill="#fff"/>
          <path id="Path_5571" data-name="Path 5571" d="M198.746,221.4c-.627-.835-1.724-1.66-1.739-2.5-.014-.737,1.066-1.887,1.891-2.156a1.764,1.764,0,0,1,2.341,1.888c-.058.93-.957,1.808-1.481,2.71l-1.011.063" transform="translate(-201.893 -190.507)" fill="#fff"/>
          <path id="Path_5572" data-name="Path 5572" d="M166.632,160.638c.831-.6,1.592-1.537,2.508-1.731a1.771,1.771,0,0,1,2.191,2.064,3.055,3.055,0,0,1-1.951,2.119c-.824.1-1.782-.885-2.681-1.4Z" transform="translate(-207.681 -201.516)" fill="#fff"/>
          <path id="Path_5573" data-name="Path 5573" d="M224.9,264.465c.819-.612,1.636-1.692,2.46-1.7.771-.006,2.23,1.2,2.174,1.742a3.22,3.22,0,0,1-1.869,2.36c-.737.183-1.776-.846-2.682-1.342l-.082-1.062" transform="translate(-196.578 -181.717)" fill="#fff"/>
          <path id="Path_5574" data-name="Path 5574" d="M241.248,265.044c-.612-.839-1.77-1.738-1.687-2.5a3.178,3.178,0,0,1,2.125-2.11c.555-.118,1.922,1.154,2,1.9.092.825-.871,1.767-1.375,2.659l-1.067.048" transform="translate(-193.785 -182.163)" fill="#fff"/>
          <path id="Path_5575" data-name="Path 5575" d="M174.794,185.83c-.631-.83-1.629-1.589-1.806-2.507a1.764,1.764,0,0,1,2.086-2.168,3.066,3.066,0,0,1,2.128,1.9c.092.843-.877,1.8-1.385,2.708l-1.023.069" transform="translate(-206.477 -197.275)" fill="#fff"/>
          <path id="Path_5576" data-name="Path 5576" d="M184.9,154.906c.806-.651,1.532-1.668,2.437-1.867a1.785,1.785,0,0,1,2.248,2.013,3.051,3.051,0,0,1-1.848,2.164c-.824.131-1.813-.792-2.731-1.256-.036-.351-.07-.7-.106-1.055" transform="translate(-204.201 -202.635)" fill="#fff"/>
          <path id="Path_5577" data-name="Path 5577" d="M169.814,223.76c.83-.61,1.691-1.732,2.479-1.685a3.174,3.174,0,0,1,2.226,1.961,1.763,1.763,0,0,1-2,2.208c-.936-.114-1.78-.987-2.666-1.52l-.043-.964" transform="translate(-207.074 -189.471)" fill="#fff"/>
          <path id="Path_5578" data-name="Path 5578" d="M169.54,285.029c-.775.683-1.543,1.892-2.328,1.9a3.225,3.225,0,0,1-2.35-1.829,1.744,1.744,0,0,1,1.794-2.363c.933.026,1.845.849,2.767,1.316Z" transform="translate(-208.041 -177.911)" fill="#fff"/>
          <path id="Path_5579" data-name="Path 5579" d="M168.588,187.365c.835-.6,1.676-1.67,2.5-1.661a3.037,3.037,0,0,1,2.188,1.852,1.784,1.784,0,0,1-1.944,2.307c-.932-.083-1.8-.925-2.692-1.427q-.027-.536-.056-1.071" transform="translate(-207.308 -196.401)" fill="#fff"/>
          <path id="Path_5580" data-name="Path 5580" d="M234.162,230.165c.616.83,1.576,1.588,1.764,2.506a1.742,1.742,0,0,1-2.06,2.17,3.062,3.062,0,0,1-2.127-1.907c-.093-.841.88-1.8,1.389-2.707l1.033-.062" transform="translate(-195.276 -187.929)" fill="#fff"/>
          <path id="Path_5581" data-name="Path 5581" d="M189.461,262.609c-.643-.8-1.623-1.506-1.85-2.406a1.764,1.764,0,0,1,1.95-2.286,3.076,3.076,0,0,1,2.22,1.825c.149.812-.777,1.82-1.235,2.743l-1.086.124" transform="translate(-203.696 -182.644)" fill="#fff"/>
          <path id="Path_5582" data-name="Path 5582" d="M222.452,237.283c.807-.644,1.639-1.824,2.413-1.786.829.04,1.6,1.226,2.4,1.913-.688.786-1.279,2.054-2.092,2.218-.758.154-1.754-.866-2.645-1.368-.025-.326-.049-.652-.074-.977" transform="translate(-197.045 -186.913)" fill="#fff"/>
          <path id="Path_5583" data-name="Path 5583" d="M183.394,276.936c-.6-.826-1.733-1.71-1.654-2.463.09-.852,1.273-1.589,1.98-2.376.773.726,2.016,1.363,2.176,2.206.14.743-.927,1.716-1.462,2.588l-1.041.045" transform="translate(-204.803 -179.94)" fill="#fff"/>
          <path id="Path_5584" data-name="Path 5584" d="M165.869,193.367c.843-.583,1.7-1.636,2.524-1.614.764.02,2.162,1.273,2.093,1.836a3.2,3.2,0,0,1-1.935,2.3c-.746.155-1.748-.921-2.636-1.456l-.046-1.068" transform="translate(-207.826 -195.248)" fill="#fff"/>
          <path id="Path_5585" data-name="Path 5585" d="M238.77,262.655c-.808.658-1.535,1.682-2.445,1.886a1.771,1.771,0,0,1-2.239-2.012,3.081,3.081,0,0,1,1.835-2.2c.841-.118,1.831.831,2.756,1.317q.048.507.094,1.012" transform="translate(-194.833 -182.184)" fill="#fff"/>
        </g>
      </g>
      <g id="Group_539" data-name="Group 539">
        <g id="Group_538" data-name="Group 538" clip-path="url(#clip-path)">
          <path id="Path_5587" data-name="Path 5587" d="M258.851,58.476v-.008c-.014-.13-.03-.258-.036-.388-.021-.486-.017-.967,0-1.445,0-.119,0-.24,0-.358-.131-.556-.252-1.116-.336-1.687-.006.015-.014.03-.02.046a14.122,14.122,0,0,0-.764-2.307c-.344-.836-.721-1.661-1.107-2.483-.486-.582-.966-1.169-1.468-1.741a23.023,23.023,0,0,0-3.719-3.331,2.437,2.437,0,0,1-.912-1.892,1.56,1.56,0,0,1,.018-.182c-4.479-3.811-9.2-7.578-14.092-11.6l.015-.007-.142-.073-10.176-8.256L222.568,2.909,221.406,0h-1.535V12.576l-.911,17.19c-1.956,3.169-4.809,6.171-7.466,9.183-2.832,3.213-7.734,5.952-7.03,9.868.036.2-.282.431-.532.61a13.785,13.785,0,0,0-5.1,6.184c-.158.57-.342,1.135-.551,1.686,0,.044,0,.083-.006.124a.455.455,0,0,0-.015.088v.019l0,.017,0,.007,9.36,322.479c0-.007-.012-.014-.017-.023,0,.025,0,.051,0,.077v.016h0l3.907,138.094h0c.035,5.486,7.559,9.759,17.166,9.759h.12a25.353,25.353,0,0,0,12.042-2.816c3.28-1.831,5.106-4.287,5.166-6.929h.012l3.439-136.2,9.387-323.5.007-.01,0-.024M244.712,518.054H244.7c.008,2.2-1.589,4.312-4.5,5.937a24.043,24.043,0,0,1-11.409,2.65h-.113c-8.737,0-15.843-3.787-15.86-8.468l-.655,0,.655-.019-3.772-133.349c3.048,4.837,10.6,8.262,19.427,8.262h.127a28.542,28.542,0,0,0,14.679-3.785,14.493,14.493,0,0,0,4.8-4.553Zm3.662-136.587c-.111.173-.213.349-.326.52a4.825,4.825,0,0,1-1.01,1.879.228.228,0,0,1-.014.023,12.849,12.849,0,0,1-4.429,4.28,27.226,27.226,0,0,1-14,3.591c-9.117.027-16.743-3.675-18.969-8.7a4.829,4.829,0,0,1-.552-.987c-.1-.141-.2-.286-.3-.427l-9.34-321.775a4.892,4.892,0,0,1,.345.671,39.1,39.1,0,0,1,2.649,3.472,26.71,26.71,0,0,0,9.992,5.674c.477-.1.944-.249,1.414-.377a3.148,3.148,0,0,1,.98-.09c-.387-.419-.781-.831-1.135-1.279-.252-.32-.507-.648-.738-.989-1.066-.369-2.13-.775-3.193-1.232a23.33,23.33,0,0,1-6.773-4.624,9.676,9.676,0,0,1-1.264-1.494,12.1,12.1,0,0,1-1.487-1.856c.294-1.089.793-2.129,1.062-3.226a2.048,2.048,0,0,1,.443-.845,2.561,2.561,0,0,1,1.27-1.8,3.1,3.1,0,0,1,1.67-.591c.021-.056.042-.111.061-.167l.3.144a3.412,3.412,0,0,1,1.529.351,3.7,3.7,0,0,1,1.145.577c.085.067.173.132.261.2.242.139.481.282.729.413.519.275,1.057.523,1.6.762,1.052.466,2.117.91,3.147,1.412.543.263,1.1.511,1.639.783.119.05.175.075.2.087l.2.067c.312.1.626.2.943.285.514.145,1.036.271,1.556.4-3.517-2.431-6.968-4.7-9.136-7.241-3.442-4.038,3.675-6.819,6.668-10.764l10.746,15.337,1.618-.269c-2.308-6.078-10.328-11.455-9.812-18.646l15.126,10.355c-2.444-5.087-12.553-8.52-11.978-14.775l18.2,13.311c-4.128-5.917-14.045-10.54-15.033-17.436a97.176,97.176,0,0,1,30.177,25.244,2.5,2.5,0,0,1,.539,1.432,1.813,1.813,0,0,1,.169.308,1.782,1.782,0,0,1,.25.844,5.915,5.915,0,0,1,.179.568c.077.367.139.738.186,1.111.065.186.139.371.194.561a8.06,8.06,0,0,1,.327,1.724c-.021.025-.04.054-.063.079a8.638,8.638,0,0,1-.794,2.606,2.6,2.6,0,0,1-1.173,1.123,2.484,2.484,0,0,1-.429.308c-.423.355-.817.739-1.232,1.1a12.345,12.345,0,0,1-1.37,1.052,9.115,9.115,0,0,1-1.657.78,3.119,3.119,0,0,1-1.258.054,30.574,30.574,0,0,1-4.988,1.9c-1.289.379-2.579.682-3.867.958-.033.04-.055.087-.089.126a2.351,2.351,0,0,1-.514.544,3.427,3.427,0,0,0-.317.327,34.394,34.394,0,0,1,3.4,1.2c1.41-.386,2.818-.832,4.222-1.356a24.545,24.545,0,0,0,8.556-5.2,5.357,5.357,0,0,1,.82-1.03,16.888,16.888,0,0,0,1.777-2.113c0-.026,0-.052.008-.079.01-.011.018-.023.027-.032l0,.063c.086-.119.155-.251.238-.373Z" transform="translate(37.778 0)" fill="#fff"/>
          <path id="Path_5588" data-name="Path 5588" d="M223.962,58.428c-1.226-.007-2.449-.074-3.672-.176a3.679,3.679,0,0,1-1.2.744,3.532,3.532,0,0,1,0,1.755c1.039.11,2.076.2,3.112.252a2.634,2.634,0,0,1,.255-.18,16.132,16.132,0,0,1,1.894-.769c.256-.087.51-.183.763-.275.029-.013.056-.031.083-.044.048-.192.077-.387.107-.582q-.479-.191-.936-.416a3.209,3.209,0,0,1-.4-.31" transform="translate(41.745 11.1)" fill="#fff"/>
        </g>
      </g>
    </g>
    <text id="paper_title" transform="translate(363.688 298)" fill="#ec0719" font-size="34" font-family="Acumin VF"><tspan x="0" y="0">Paper Type</tspan></text>
    <text id="paper_body" transform="translate(363.688 319)" fill="#fff" font-size="16" font-family="Acumin VF" font-weight="500"><tspan x="0" y="17">i. Wood (white)</tspan><tspan x="0" y="43">ii. Wood (brown)</tspan><tspan x="0" y="69">iii. Hemp (organic)</tspan><tspan x="0" y="95">iv. Bamboo (organic)</tspan><tspan x="0" y="121">v. Cellulose</tspan></text>
    <rect id="paper_dot" width="10" height="10" transform="translate(796.688 346)" fill="#ec0719"/>
    <g id="filter_box" transform="translate(1005.688 645)" fill="rgba(255,255,255,0.05)" stroke="#ec0719" stroke-width="1">
      <rect width="255" height="244" stroke="none"/>
      <rect x="0.5" y="0.5" width="254" height="243" fill="none"/>
    </g>
    <text id="filter_body" transform="translate(1064.688 720)" fill="#fff" font-size="16" font-family="Acumin VF" font-weight="500"><tspan x="0" y="17">i. Wood W</tspan><tspan x="0" y="43">ii. Bamboo W</tspan><tspan x="0" y="69">iii. Glass</tspan><tspan x="0" y="95">iv. Aluminum</tspan><tspan x="0" y="121">v. Ceramic</tspan></text>
    <text id="filter_title" transform="translate(1064.688 705)" fill="#ec0719" font-size="34" font-family="Acumin VF"><tspan x="0" y="0">Filter Type</tspan></text>
    <path id="filter_line" d="M1763.927-3014v62.841h190.434" transform="translate(-948.313 3809)" fill="none" stroke="#ec0719" stroke-width="1"/>
    <rect id="filter_dot" width="10" height="10" transform="translate(811.688 782)" fill="#ec0719"/>
    <line id="paper_line" x2="239.5" y2="1" transform="translate(562.688 350.5)" fill="none" stroke="#ec0719" stroke-width="1"/>
    <rect id="fluid_dot" width="10" height="10" transform="translate(733.188 536.75)" fill="#ec0719"/>
    <line id="terpenes_line" y2="334" transform="translate(738.5 541.5)" fill="none" stroke="#ec0719" stroke-width="1"/>
    <g id="terpenes_box" transform="translate(618.688 875)" fill="rgba(255,255,255,0.05)" stroke="#ec0719" stroke-width="1">
      <rect width="255" height="212" stroke="none"/>
      <rect x="0.5" y="0.5" width="254" height="211" fill="none"/>
    </g>
    <text id="terpenes_body" transform="translate(677.688 950)" fill="#fff" font-size="16" font-family="Acumin VF" font-weight="500"><tspan x="0" y="17">i. Botanical</tspan><tspan x="0" y="43">ii. Live Resin</tspan><tspan x="0" y="69">iii. Live Infusion</tspan><tspan x="0" y="95">iv. Cure Infusion</tspan></text>
    <text id="terpenes_title" transform="translate(677.688 935)" fill="#ec0719" font-size="34" font-family="Acumin VF"><tspan x="0" y="0">Terpenes</tspan></text>
    <g id="compaction_box" transform="translate(960.687 453.25)" fill="rgba(255,255,255,0.05)" stroke="#ec0719" stroke-width="1">
      <rect width="255" height="135" stroke="none"/>
      <rect x="0.5" y="0.5" width="254" height="134" fill="none"/>
    </g>
    <text id="compaction_body" transform="translate(1019.687 525.25)" fill="#fff" font-size="16" font-family="Acumin VF" font-weight="500"><tspan x="0" y="17">Low, Medium, High</tspan></text>
    <text id="compaction_title" transform="translate(1019.687 508.25)" fill="#ec0719" font-size="34" font-family="Acumin VF"><tspan x="0" y="0">Compaction</tspan></text>
    <line id="compaction_line" x2="62.313" transform="translate(898.874 518.25)" fill="none" stroke="#ec0719" stroke-width="1"/>
    <rect id="solid_dot" width="10" height="10" transform="translate(733.188 536.75)" fill="#ec0719"/>
    <rect id="terpenes_dot" width="10" height="10" transform="translate(733.188 536.75)" fill="#ec0719"/>
    <path id="sizes_brace" d="M1827.348-3593.5h64.839v543.172h-64.839" transform="translate(-993.313 3842.328)" fill="none" stroke="#ec0719" stroke-width="1"/>
    <path id="fluid_line" d="M6751.769,6280h143.766V5980.764" transform="translate(-6157.035 -5440)" fill="none" stroke="#ec0719" stroke-width="1"/>
  </g>
</svg>
