<?xml version="1.0" encoding="UTF-8"?>
<svg id="Layer_1" data-name="Layer 1" xmlns="http://www.w3.org/2000/svg" viewBox="0 0 115.65 65.98">
  <defs>
    <style>
      .cls-1 {
        fill: #bababa;
        stroke-width: 0px;
      }
    </style>
  </defs>
  <path id="Path_3330" data-name="Path 3330" class="cls-1" d="m114.43,52.91c.15.76-.68,1.49-2.02,1.53-.07.47-.14.94-.21,1.35l-1.74.23.42,1.04c-1.35,1.73-3.32.9-5.05,1.17.39,1,.13,1.6-.9,1.78-.7.09-1.4.12-2.1.1-1.3.01-2.61,0-3.93,0-.33,1.02-.88,1.41-2.22,1.46-.99-.11-2-.02-2.96.26-.51.16-1.03.29-1.55.39-.2.07-.36.22-.44.42-.18.63-.77,1.07-1.43,1.05-1.56.3-3.17.11-4.62-.52-.38-.2-.96.02-1.45.04-1.23.05-2.47.05-3.69.19-.36.04-.67.48-1.01.73-.22.17-.43.47-.65.47-1.19.01-2.39-.04-3.58-.1-.75-.04-1.5-.14-2.25-.18-.33-.01-.67.12-.99.09-.8-.07-1.58-.27-2.21.51-.14.18-.61.1-.93.11-1.63.06-3.25.17-4.88.15-1.33-.01-2.67-.22-4-.24-.93-.13-1.86.11-2.61.67-.94.78-3.64.17-4.77-.3-1.14-.46-2.39-.55-3.58-.26-1.37.42-2.83.46-4.22.12-.28-.07-.46-.55-.67-1.17-.69.19-1.39.37-2.08.57-1.23.34-2.4.53-3.44-.54-.21-.22-.76-.15-1.15-.14-.7.03-1.4.1-2.1.2-.92.09-1.83.23-2.72.43-1.49.38-2.54-.01-2.91-.98-2.33-.46-4.5-.93-6.68-1.28-.86-.06-1.72-.05-2.58.03-1,0-2,0-3-.07-.81-.05-1.31-.47-1.2-1.33l-6.64-1.07c.7-.78.67-1.17-.17-1.24-1.01-.08-2.03-.14-3.03-.26-.8-.1-1.74-.13-1.42-1.44-.62-.15-1.22-.23-1.78-.42-.76-.26-.77-.81-.31-1.49-.53.01-1.06-.03-1.59-.12-.51-.15-1.35-.43-1.37-.71-.05-.62.18-1.22.64-1.63,1.24-.69,2.31-1.64,3.13-2.8.61-.52,1.35-.86,2.14-1,1.53-.35,2.78-1.47,3.3-2.96.51-1.52,1.62-2.76,3.07-3.42,1-.41,1.83-1.15,2.34-2.1.02-.03.04-.06.06-.08,1.28-1.3,2.43-2.73,3.42-4.27.42-.57,1-1,1.65-1.26,1.03-.49,1.87-1.32,2.36-2.35.47-.71,1.01-1.38,1.61-2,.24-.22.46-.47.64-.75.67-1.4,1.74-2.57,3.07-3.37.78-.46,1.53-.97,2.24-1.53.75-.59,1.39-1.3,1.91-2.1.58-1.33,1.68-2.38,3.04-2.89.29-.08.56-.24.77-.45.95-1.27,2.19-2.28,3.62-2.94.39-.17.6-.85.8-1.34.69-1.53,1.89-2.78,3.4-3.52,1.65-.78,2.99-2.08,3.83-3.7.45-.95,1.25-1.69,2.24-2.05.5-.23.92-.6,1.22-1.07,1.7-2.82,4.42-3.98,7.46-4.52.77-.08,1.54.09,2.2.49,2.49,1.28,4.63,3.15,6.23,5.43.41.56.96.99,1.6,1.27,1.18.56,2.19,1.43,2.93,2.51.56.78,1.29,1.43,2.13,1.91,1.79.85,3.3,2.22,4.33,3.92,1.1,1.82,2.69,3.28,4.6,4.21,1.07.61,1.99,1.46,2.7,2.47.99,1.3,2.12,2.48,3.39,3.51,1.12.85,2.01,1.97,2.59,3.25.29.5.67.94,1.13,1.3.88.85,1.78,1.67,2.66,2.51.58.63,1.21,1.21,1.89,1.74.93.6,1.69,1.43,2.22,2.4.44.65.95,1.24,1.53,1.77.75.7,1.43,1.47,2.04,2.3.48.96,1.26,1.74,2.21,2.23,1.53.67,2.71,1.94,3.27,3.51.38,1.11,1.37,1.89,2.54,1.99,1.09.08,2.07.7,2.61,1.65.31.66,1.01,1.04,1.73.96.54-.06,1.21-.06,1.18.64-.01.29-.7.55-1.23.94m-22.73,8.06l.26-.33c-.36-.72-.7-1.44-1.08-2.15-1.32-2.45-2.68-4.88-3.97-7.34-.11-.4-.14-.81-.09-1.22.3.26.61.52.9.79.09.1.16.21.22.34,1.66,2.83,3.33,5.66,4.99,8.49.19.32.41.62.62.94l.32-.13c-.06-.39-.17-.77-.32-1.13-.74-1.31-1.55-2.58-2.29-3.89-.13-.22-.02-.58-.03-.88.22.07.43.16.64.27.16.11.3.24.43.39.08-.27.04-.57-.11-.81-2.21-3.48-4.43-6.95-6.63-10.44-.13-.33-.19-.68-.2-1.04.32.17.64.33.95.52.1.06.16.21.23.33,2.76,4.24,5.52,8.48,8.29,12.72.22.34.5.65.75.97l.28-.13c-.05-.32-.14-.62-.26-.92-.62-1.08-1.29-2.12-1.91-3.19-.13-.32-.23-.66-.28-1.01l.44-.23,4.76,6.58.37-.19c0-.29-.05-.58-.15-.86-1.02-1.73-2.01-3.49-3.13-5.15-1.33-1.97-2.79-3.86-4.16-5.81-.14-.2-.03-.56-.04-.85.26.07.51.17.74.3.2.18.37.39.51.62,2.25,3.04,4.51,6.08,6.77,9.12.25.33.52.64.78.97l.28-.15c-.05-.29-.13-.57-.25-.84-1.05-1.75-2.03-3.56-3.21-5.22-1.68-2.34-3.52-4.55-5.28-6.83-.15-.2-.24-.44-.26-.69,0-.09.34-.32.44-.28.27.12.52.29.72.51.7.69,1.38,1.39,2.07,2.09l.38-.29c-.18-.34-.38-.66-.62-.96-3.08-3-5.84-6.3-8.25-9.86-.45-.66-.96-1.29-1.52-1.87-1.57-1.69-3.17-3.35-4.74-5.05-.17-.27-.29-.56-.37-.87l.28-.22c.33.18.63.39.91.63.86.9,1.67,1.84,2.51,2.75.23.22.48.43.74.62.14-.28.15-.43.08-.51-2.63-2.99-5.25-5.99-7.91-8.95-.31-.23-.65-.42-1.02-.54l-.54,1.27c-.2-.11-.38-.24-.55-.39-1.76-2.11-3.51-4.23-5.23-6.37-.18-.22-.12-.64-.17-.96.32.09.62.23.89.43,1.39,1.54,2.73,3.13,4.12,4.68.28.25.58.48.91.67l.31-.31c-.49-.73-.93-1.5-1.47-2.19-1.33-1.98-3.03-3.68-5.01-5.02-.37-.22-1.03-.46-1.28-.29-.65.44-.92.06-1.24-.33-1.15-1.39-2.31-2.79-3.43-4.21-.13-.27-.2-.57-.22-.87.31.1.71.11.9.32,1,1.08,1.95,2.22,2.92,3.32.22.25.48.46.72.69l.25-.17c-.1-.33-.22-.64-.36-.95-1.51-2.85-3.66-5.32-6.29-7.19-1.78-1.25-2.73-1.37-4.6-.28-.31.2-.64.37-.99.48-1.6.49-2.89,1.66-3.53,3.2-.22.48-.61.85-1.09,1.06-1.16.3-1.66,1.2-2.38,2-1.21,1.46-2.61,2.74-4.17,3.81-1.11.61-2.01,1.54-2.58,2.66-.13.42-.33.8-.61,1.14-1.64,1.59-3.4,3.06-5.26,4.39-1.08.63-1.99,1.52-2.65,2.59-.5.89-1.19,1.66-2.02,2.27-1.94,1.33-3.98,2.49-5.14,4.67-.24.32-.5.63-.79.91-.49.59-.93,1.21-1.34,1.85-.57,1.11-1.48,2-2.61,2.53-.79.28-1.46.81-1.9,1.52-.8,1.99-2.52,3.19-3.77,4.77-.61.66-1.33,1.21-2.12,1.63-1.01.47-1.82,1.29-2.29,2.3-.81,2.22-2.7,3.87-5.02,4.36-.47.15-.89.42-1.21.8-.75.91-1.38,1.91-2.68,2.12-.13.02-.24.19-.37.31,1.31.66,2.87.54,4.07-.31.85-.76,1.66-1.56,2.52-2.31.16-.14.52-.05.79-.07,0,.24-.05.48-.15.71-.22.3-.47.57-.76.8-1.2,1.08-2.41,2.14-3.62,3.21,1.78.7,3.06-.77,4.67-1.42-.06,1.11-1.64,1.89-.06,2.83.72-.75,1.42-1.53,2.18-2.22.33-.19.69-.32,1.07-.37-.09.38-.25.73-.46,1.06-.58.63-1.25,1.17-1.89,1.76.05.09.1.18.15.26.32.05.66.05.98-.02,1.51-.62,2.25-.35,2.83,1.11.61,1.16,2.05,1.6,3.21.98.08-.04.17-.09.24-.15,1.72-1.43,3.06-1.2,4.19.7.18.3.39.7.68.81.86.28,1.73.51,2.61.69.74.3,1.58-.05,1.88-.79,0-.01.01-.03.02-.04.3-.87,1.18-1.4,2.09-1.28.98.21,1.33-.33,1.8-.89.16-.25.34-.5.53-.72.23-.15.48-.26.74-.34,0,.27.11.59,0,.79-.28.49-.72.9-.96,1.41-.12.24.06.63.1.95.34-.05.81.03.99-.17.65-.72,1.19-1.53,1.81-2.28.24-.24.51-.45.8-.62l.38.33-2.24,3.52c.7,1.15,2,1.78,3.33,1.61,1.14-.1,2.29-.66,3.45-.03.1.06.37-.11.52-.23.68-.6,1.69-.63,2.4-.06,1.03.62,2.36.47,3.21-.38.64-.73,1.74-.81,2.47-.17.07.06.14.13.2.21.97,1.28,2.3,1.4,3.66,1.43.54-.04,1.04-.27,1.42-.65.58-.77,1.56-1.11,2.5-.89.25.06.52.04.76-.06,1.4-.64,1.94-.46,2.88.77.36.4.83.67,1.36.77,1.08.22,2.19.26,3.28.42,1.56.23,2.19-.06,2.92-1.43.28-.79,1.16-1.21,1.95-.92.3.11.56.31.74.57,1.44,1.36,3.71,1.31,5.07-.13.07-.07.13-.14.19-.21.48-.9,1.55-1.3,2.51-.94.26.03.52.03.78,0-.29-.32-.55-.66-.78-1.02-.08-.26-.13-.53-.13-.8.29,0,.58.04.86.13.31.17.57.7.82.67,1.05-.13,2.06.43,2.51,1.39.68-.5,1.27-1.25,1.92-1.31.68-.06,1.42.54,2.24.9-.04-.24-.12-.47-.22-.68-.34-.46-.75-.85-1.08-1.31-.12-.24-.2-.51-.23-.78.3,0,.67-.13.89,0,.31.25.6.53.84.85.23.24.47.47.71.7l.27-.17c-.09-.31-.2-.61-.34-.9-.52-.9-1.1-1.77-1.59-2.68-.12-.22,0-.58.02-.87.25.14.59.21.74.42.64.9,1.2,1.86,1.85,2.76.18.26.56.38.98.66-.09-1.43-1.56-2.05-1.14-3.62.33.32.64.66.92,1.02.94,1.34,1.85,2.71,2.8,4.05.21.23.46.43.72.6m-13.51-41.21l.3-.22c-.14-.27-.3-.53-.47-.78-.76-1.01-1.62-1.95-2.29-3.02-.71-1.11-1.72-1.98-2.92-2.51-.27-.09-.56-.13-.84-.13,2.08,2.32,3.83,4.81,6.22,6.66m14.43,16.92l7.12,8.44c.12-1.54-5.72-8.41-7.12-8.44m-2.22,25.87l.19-.45c-.29-.47-.57-.94-.87-1.39-.44-.66-1.17-1.04-1.79-.64-.58.52-1.05,1.14-1.4,1.83-.04.05.22.44.36.45,1.16.09,2.33.14,3.5.19m-4.71-33.11c.15-1.42-4.38-6.77-5.61-6.76l5.61,6.76m8.89,13.05c.3-1.06-4.02-5.72-5.17-5.61l5.17,5.61m7.9,8.72c.09-1.03-2.67-4.83-3.69-5.41-.13-.07-.36.02-.72.06l4.41,5.35m-81.79,9.84c-.48-.94-.86-1.61-1.78-1.54-.84.06-1.23.63-1.42,1.54h3.2Zm82.64-4.98c.04-.81-2.39-4.05-3.36-4.47-.04.7,2.49,4.08,3.36,4.47m2.95.75h2.89c-.25-.97-.74-1.56-1.63-1.47-.78.07-1.16.67-1.25,1.47m-49.64,7.81c-.39-.87-.82-1.46-1.66-1.47s-1.07.65-1.33,1.47h2.98Zm-29.64-3.06l.24.31h2.64c-.21-.97-.76-1.47-1.52-1.31-.5.1-.9.65-1.35,1.01m51.38,1.78c-.15-.83-.9-1.41-1.74-1.34-.71.03-1.05.54-1.17,1.34h2.91Zm19.15-3.22c-.11-.96-.47-1.57-1.3-1.55s-1.09.69-1.17,1.55h2.47Zm-52.06,3.71l.16.47,2.3-.12c.04-.15.09-.31.13-.46-.42-.29-.87-.85-1.26-.81-.47.04-.89.59-1.33.92m56.84-5.43l.25.36h2.15c-.21-.81-.54-1.43-1.26-1.32-.41.06-.75.62-1.12.96m8.83-3.68c-.32-.52-.43-.9-.68-1.04-.32-.18-.69-.22-1.05-.13-.24.08-.37.49-.54.76.29.17.6.3.92.4.45.04.9.05,1.36.01m-23.06-22.28l-.17.33c.65.61,1.29,1.23,1.96,1.81.13.12.39.09.58.12-.04-.2-.02-.46-.14-.58-.53-.54-1.1-1.06-1.68-1.55-.13-.11-.37-.09-.56-.13m16.56,16.56l.28-.27c-.48-.87-1.15-1.61-1.97-2.16-.06-.04-.27.02-.33.1-.07.1-.08.23-.03.35.67.67,1.36,1.33,2.05,1.98m4.33,2.93c.04-1.19-.83-2.22-2.02-2.39l2.02,2.39m-12.13-5.13l-.36.32c.47.8,1.09,1.5,1.83,2.06l.32-.28-1.79-2.1m16.11,6.34c-.14-.96-.39-1.45-1.08-1.35-.21.03-.36.46-.53.71l1.62.65m-8.92-.35l-.43.26,1.38,1.96.31-.2c0-.94-.85-1.34-1.27-2.02m-73.28,10.22l.16.31h1.62l.15-.24c-.33-.24-.65-.63-.99-.66-.3-.02-.62.38-.94.59m58.48-31.32l.38-.36-1.44-1.44-.33.32,1.4,1.48m-20.22,32.03l.14-.26c-.3-.27-.65-.5-1.02-.65-.13-.03-.41.51-.7.91h1.58Zm11.08-1.39c.14-.82-.07-1.24-.72-1.15-.15.02-.26.34-.39.52l1.11.63m2.44-.42h1.58c-.17-.43-.43-.79-.74-.83-.19-.03-.44.42-.84.83m-24.29,2.04l.29-.53-1.1-.65c-.11.17-.2.35-.29.54.35.24.73.44,1.1.64"/>
  <path id="Path_3332" data-name="Path 3332" class="cls-1" d="m65.02,17.5c.22.27.41.57.56.89,1.54,4.31,3.07,8.63,4.57,12.95.1.3-.1.7-.15,1.06-.24-.27-.59-.49-.71-.81-1.52-4.21-3.02-8.43-4.5-12.65-.11-.43-.18-.87-.21-1.31l.44-.12"/>
  <path id="Path_3333" data-name="Path 3333" class="cls-1" d="m79.73,42.71c-.35-.58-.73-1.16-1.05-1.76-1.41-2.63-2.81-5.26-4.18-7.9-.08-.32-.1-.66-.05-.99.28.17.69.26.83.51,1.63,3,3.23,6.02,4.8,9.05.14.26.02.66.02.99l-.37.09"/>
  <path id="Path_3334" data-name="Path 3334" class="cls-1" d="m67.41,51.24l-.38.51c-.19-.15-.49-.28-.55-.47-.23-.77-.4-1.56-.57-2.34-.48-2.19-.97-4.38-1.42-6.58-.06-.27.14-.6.22-.9.22.16.58.29.63.49.71,3.07,1.38,6.14,2.07,9.28"/>
  <path id="Path_3335" data-name="Path 3335" class="cls-1" d="m77.78,27.18c.1.25.22.49.35.73,1.36,2.22,2.73,4.43,4.1,6.64.13.16.21.34.24.54-.03.3-.09.59-.18.88-.22-.16-.53-.26-.66-.48-1.45-2.36-2.88-4.73-4.28-7.12-.09-.3-.13-.61-.1-.91l.53-.29"/>
  <path id="Path_3336" data-name="Path 3336" class="cls-1" d="m31.48,31.86c-.14-.13-.35-.23-.35-.33-.02-.25.03-.5.15-.72.67-.92,1.38-1.81,2.09-2.7.75-.94,1.49-1.9,2.28-2.8.17-.2.55-.21.83-.31-.03.3.05.68-.1.88-1.44,1.89-2.91,3.75-4.39,5.61-.15.14-.32.27-.51.37"/>
  <path id="Path_3337" data-name="Path 3337" class="cls-1" d="m78.39,51.44c.27.22.51.48.71.77,1.03,2.02,2.05,4.05,3.01,6.11.13.27-.08.7-.14,1.05-.25-.21-.59-.38-.72-.64-.99-1.97-1.96-3.95-2.9-5.94-.14-.37-.24-.76-.31-1.15l.35-.2"/>
  <path id="Path_3338" data-name="Path 3338" class="cls-1" d="m71.22,49.73c.23.26.44.54.62.84.88,2.2,1.74,4.4,2.57,6.61.08.21-.11.52-.18.78-.23-.15-.58-.25-.66-.46-.9-2.22-1.77-4.46-2.61-6.7-.08-.22.12-.54.26-1.07"/>
  <path id="Path_3339" data-name="Path 3339" class="cls-1" d="m66.57,40.3l.37-.49c.19.15.49.27.56.47.31.85.56,1.71.81,2.58.37,1.28.76,2.56,1.07,3.86.07.29-.13.65-.21.97-.23-.23-.58-.42-.67-.7-.64-2.04-1.23-4.09-1.83-6.14-.04-.13-.06-.26-.12-.54"/>
  <path id="Path_3340" data-name="Path 3340" class="cls-1" d="m83.18,32.57c.25.25.49.52.71.79,1.2,1.69,2.4,3.39,3.56,5.11.16.24.09.64.13.97-.29-.14-.68-.19-.85-.42-1.26-1.73-2.5-3.49-3.7-5.26-.15-.33-.25-.69-.28-1.06l.43-.14"/>
  <path id="Path_3341" data-name="Path 3341" class="cls-1" d="m18.08,42.88c-.09-.35-.27-.65-.2-.85.16-.36.39-.7.66-.99,1.05-1.21,2.11-2.41,3.2-3.58.16-.17.51-.15.77-.22.01.26.15.63.02.78-1.29,1.53-2.63,3.02-3.96,4.52-.16.13-.33.24-.51.33"/>
  <path id="Path_3342" data-name="Path 3342" class="cls-1" d="m45.3,17.47c-.09.2-.2.39-.31.57-1.08,1.48-2.15,2.97-3.27,4.43-.17.22-.57.25-.86.37.03-.29-.04-.65.1-.86,1.07-1.53,2.17-3.04,3.3-4.54.2-.2.45-.33.73-.39.06-.02.21.27.32.43"/>
  <path id="Path_3343" data-name="Path 3343" class="cls-1" d="m69.12,16.83c.23.16.44.34.63.53,1.11,1.38,2.23,2.76,3.3,4.18.13.17.03.51.04.77-.25-.08-.61-.07-.75-.24-1.17-1.46-2.32-2.95-3.45-4.45-.09-.17-.13-.36-.1-.55,0-.08.18-.15.32-.25"/>
  <path id="Path_3344" data-name="Path 3344" class="cls-1" d="m66.3,59.58c-.15.2-.28.37-.41.54-.22-.21-.57-.38-.65-.63-.51-1.7-.96-3.42-1.43-5.13-.04-.13-.1-.29-.06-.39.1-.19.21-.38.35-.54.15.11.4.19.44.33.6,1.92,1.17,3.84,1.76,5.81"/>
  <path id="Path_3345" data-name="Path 3345" class="cls-1" d="m46.19,38.54c.56-1.87,1.07-3.63,1.62-5.38.05-.16.4-.24.61-.35.09.26.3.55.24.77-.33,1.26-.72,2.5-1.08,3.75-.1.46-.23.9-.38,1.34-.09.2-.36.33-.55.49l-.45-.63"/>
  <path id="Path_3346" data-name="Path 3346" class="cls-1" d="m84.82,51.98c-.16.18-.31.49-.43.48-.25-.03-.47-.17-.61-.37-.7-1.21-1.36-2.45-2.04-3.68-.22-.34-.41-.69-.57-1.06-.04-.22.03-.44.17-.6.17-.08.36-.06.52.03.99,1.7,1.95,3.42,2.96,5.2"/>
  <path id="Path_3347" data-name="Path 3347" class="cls-1" d="m63.72,62.92c-.23-.27-.58-.51-.66-.82-.39-1.41-.73-2.84-1.02-4.28-.06-.32.16-.69.25-1.04.23.27.59.51.68.82.44,1.67.81,3.35,1.21,5.03l-.44.29"/>
  <path id="Path_3348" data-name="Path 3348" class="cls-1" d="m38.68,49.83c-.11.32-.17.54-.26.76-.53,1.26-1.05,2.54-1.63,3.78-.13.27-.5.43-.76.64-.05-.33-.24-.71-.13-.97.55-1.4,1.16-2.78,1.79-4.15.1-.23.42-.36.64-.53l.36.48"/>
  <path id="Path_3349" data-name="Path 3349" class="cls-1" d="m29.62,45.73c-.07.17-.14.34-.23.5-.79,1.15-1.58,2.31-2.41,3.43-.13.18-.49.19-.74.28,0-.29-.13-.65,0-.85.76-1.17,1.57-2.31,2.4-3.44.18-.18.41-.3.66-.33.08-.01.22.26.33.4"/>
  <path id="Path_3350" data-name="Path 3350" class="cls-1" d="m72.99,61.4l-.42.63c-.2-.15-.5-.25-.58-.44-.56-1.36-1.1-2.73-1.59-4.12-.07-.2.14-.5.23-.76.2.08.51.11.57.25.61,1.44,1.19,2.91,1.8,4.43"/>
  <path id="Path_3351" data-name="Path 3351" class="cls-1" d="m90.43,45.79c-.07.09-.14.31-.25.33-.18.03-.37-.02-.51-.15-.98-1.36-1.94-2.73-2.88-4.12-.09-.13.05-.41.08-.61.18.03.46,0,.54.12,1,1.38,1.98,2.78,2.96,4.18.03.08.06.17.07.26"/>
  <path id="Path_3352" data-name="Path 3352" class="cls-1" d="m43.51,51.01c-.48,1.6-.92,3.11-1.4,4.6-.12.17-.33.26-.54.25-.18-.11-.3-.31-.3-.52.42-1.51.87-3.01,1.36-4.5.12-.18.32-.28.54-.27.16.04.25.32.35.46"/>
  <path id="Path_3353" data-name="Path 3353" class="cls-1" d="m13.88,45.89c-.12.22-.26.43-.41.63-.9.99-1.79,1.98-2.72,2.93-.16.16-.51.13-.77.19.02-.26-.05-.62.09-.78.94-1.08,1.93-2.12,2.92-3.15.18-.13.4-.19.62-.16.09,0,.18.22.27.35"/>
  <path id="Path_3354" data-name="Path 3354" class="cls-1" d="m55.16,38.15c-.07.93-.1,1.87-.22,2.79-.03.24-.31.44-.48.66-.15-.23-.44-.47-.44-.69.06-1.43.17-2.86.31-4.29.02-.2.3-.37.46-.55.13.19.35.38.37.58.03.5.04,1,.02,1.5h-.03"/>
  <path id="Path_3355" data-name="Path 3355" class="cls-1" d="m78.84,47.27c-.17.29-.25.58-.36.58-.21.01-.42-.07-.57-.24-.63-1.32-1.23-2.66-1.8-4.01-.07-.15.06-.44.19-.61.17-.05.36-.01.5.1.7,1.39,1.38,2.8,2.04,4.17"/>
  <path id="Path_3356" data-name="Path 3356" class="cls-1" d="m58.59,41.37c0-.63-.04-1.27.02-1.89.02-.24.27-.45.42-.67.15.19.41.37.43.58.12,1.36.21,2.72.25,4.08,0,.19-.33.4-.51.59-.14-.2-.39-.39-.41-.59-.05-.69-.02-1.4-.02-2.09h-.18"/>
  <path id="Path_3357" data-name="Path 3357" class="cls-1" d="m56.67,13.35c-.17,1.58-.34,3.16-.54,4.73-.08.2-.26.34-.47.38-.16-.01-.45-.29-.43-.42.17-1.49.37-2.98.61-4.46.02-.15.32-.25.49-.37l.34.14"/>
  <path id="Path_3358" data-name="Path 3358" class="cls-1" d="m17.32,53.14c-.06.2-.15.39-.25.57-.85.98-1.7,1.96-2.59,2.91-.18.11-.4.12-.59.03-.12-.17-.15-.4-.06-.59.86-1.02,1.74-2.01,2.66-2.98.11-.11.49.03.82.07"/>
  <path id="Path_3359" data-name="Path 3359" class="cls-1" d="m34.32,47.39c-.16.3-.3.56-.45.82-.52.9-1.02,1.81-1.58,2.68-.12.18-.46.22-.7.33-.05-.24-.22-.54-.13-.71.62-1.15,1.28-2.27,1.97-3.38.16-.15.38-.23.6-.2.11.01.19.29.3.46"/>
  <path id="Path_3360" data-name="Path 3360" class="cls-1" d="m64.38,24.46c-.1.14-.23.48-.33.47-.21-.03-.53-.19-.58-.36-.34-1.15-.64-2.31-.9-3.48-.04-.2.16-.45.25-.67.2.13.53.22.58.39.35,1.18.64,2.38.98,3.66"/>
  <path id="Path_3361" data-name="Path 3361" class="cls-1" d="m51.67,50.42c.11-1.14.15-1.94.28-2.74.04-.24.31-.44.48-.67.15.25.43.5.43.76,0,.77-.05,1.54-.18,2.3-.14.42-.33.83-.58,1.2l-.43-.85"/>
  <path id="Path_3362" data-name="Path 3362" class="cls-1" d="m37.42,34.19c-.21.35-.38.67-.59.97-.24.4-.52.77-.84,1.12-.31.25-.65.48-1.01.66.02-.42.11-.83.26-1.22.37-.63.8-1.23,1.27-1.79.16-.15.37-.22.59-.2.12.02.2.29.32.47"/>
  <path id="Path_3363" data-name="Path 3363" class="cls-1" d="m64.72,36.66l-.42.57c-.18-.16-.47-.28-.53-.48-.26-.86-.47-1.73-.64-2.6-.04-.2.18-.44.28-.66.2.13.51.22.56.4.28.88.49,1.79.75,2.77"/>
  <path id="Path_3364" data-name="Path 3364" class="cls-1" d="m57.33,27.21c.03.43.02.87-.02,1.3-.04.22-.28.4-.42.6-.17-.17-.48-.34-.49-.52-.04-.9-.03-1.8.03-2.7.01-.17.32-.33.5-.49.13.17.35.33.37.52.03.43.04.87.02,1.3h.02"/>
  <path id="Path_3365" data-name="Path 3365" class="cls-1" d="m55.02,4.95c-.04.15-.09.29-.16.42-.52.78-1.03,1.56-1.58,2.31-.11.15-.39.17-.59.25-.07-.23-.26-.54-.18-.68.51-.85,1.08-1.68,1.66-2.48.15-.12.35-.16.54-.13.12.01.21.2.31.3"/>
  <path id="Path_3366" data-name="Path 3366" class="cls-1" d="m60.24,13.28c.11.2.2.42.27.64.23.9.49,1.8.64,2.72.04.24-.24.54-.37.81-.18-.2-.47-.38-.52-.62-.24-1.07-.42-2.15-.61-3.23l.59-.31"/>
  <path id="Path_3367" data-name="Path 3367" class="cls-1" d="m59.75,52.4c.03.12.02.24-.01.36-.12.25-.26.48-.41.71-.19-.23-.5-.44-.54-.69-.11-.76-.16-1.53-.14-2.31,0-.24.27-.48.41-.71.18.23.46.44.51.7.09.64.16,1.29.18,1.94"/>
  <path id="Path_3368" data-name="Path 3368" class="cls-1" d="m36.79,40.57c.03.26.17.59.06.77-.47.76-.97,1.49-1.52,2.2-.17.18-.46.18-.64,0-.15-.14-.18-.37-.08-.54.57-.87,1.19-1.71,1.8-2.56l.38.12"/>
  <path id="Path_3369" data-name="Path 3369" class="cls-1" d="m78.02,31.76c-.15.22-.23.49-.35.5-.21.02-.42-.06-.56-.21-.52-.77-1.02-1.55-1.47-2.36-.06-.23-.04-.48.06-.69.02-.05.44-.07.51.02.62.89,1.21,1.81,1.82,2.74"/>
  <path id="Path_3370" data-name="Path 3370" class="cls-1" d="m51.12,24.01c-.22.9-.39,1.68-.62,2.44-.06.19-.33.31-.51.46-.12-.22-.36-.45-.33-.64.11-.79.28-1.57.51-2.33.06-.21.4-.33.62-.49l.34.57"/>
  <path id="Path_3371" data-name="Path 3371" class="cls-1" d="m47.49,46.26c-.25.91-.44,1.69-.7,2.45-.05.16-.32.26-.49.38-.13-.21-.4-.44-.37-.61.19-.81.43-1.61.71-2.39.06-.16.33-.25.51-.37l.34.54"/>
  <path id="Path_3372" data-name="Path 3372" class="cls-1" d="m38.8,59.5c-.62.7-1.22,1.42-1.86,2.1-.05.06-.37-.01-.43-.11-.1-.16-.12-.36-.05-.53.46-.65.96-1.27,1.49-1.85.1-.11.48.03.73.06.04.11.08.22.12.34"/>
  <path id="Path_3373" data-name="Path 3373" class="cls-1" d="m64.08,12.63c-.66-.86-1.27-1.63-1.85-2.42-.06-.15-.05-.32.03-.45.12-.1.28-.14.43-.11.85.66,1.45,1.59,1.68,2.64,0,.05-.08.1-.3.35"/>
  <path id="Path_3374" data-name="Path 3374" class="cls-1" d="m22.13,55.56l-1.59,1.8c-.19-.16-.38-.34-.55-.53.41-.56.86-1.1,1.34-1.6.06-.06.42.17.8.33"/>
  <path id="Path_3375" data-name="Path 3375" class="cls-1" d="m20.18,47.6c-.61.76-1.06,1.33-1.54,1.87-.05.06-.34,0-.43-.09-.1-.12-.14-.29-.1-.44.37-.55.78-1.07,1.23-1.56.07-.08.42.1.85.21"/>
  <path id="Path_3376" data-name="Path 3376" class="cls-1" d="m42.17,29.55l1.26-1.77c.19.18.56.44.53.51-.24.54-.53,1.06-.87,1.55-.08.11-.36.15-.52.11-.12-.02-.21-.21-.39-.41"/>
  <path id="Path_3377" data-name="Path 3377" class="cls-1" d="m14.16,47.34c.57-.4,1.13-.81,1.72-1.19.02-.01.45.46.41.52-.31.47-.67.92-1.06,1.33-.09.1-.37.06-.55.01-.09-.02-.14-.2-.21-.3l-.31-.38"/>
  <path id="Path_3378" data-name="Path 3378" class="cls-1" d="m86.81,49.25c-.46-.94-1.42-1.42-1.25-2.58,1.04.33,1.62,1.45,1.29,2.49-.01.03-.02.06-.03.09"/>
  <path id="Path_3379" data-name="Path 3379" class="cls-1" d="m39.05,38.24l-1.38,1.49c-.13-.12-.39-.33-.38-.36.34-.53.71-1.05,1.1-1.55.01-.01.32.2.65.42"/>
  <path id="Path_3380" data-name="Path 3380" class="cls-1" d="m75.78,52.75c-.3-.4-.58-.81-.83-1.24-.07-.14.09-.4.14-.61.2.06.5.07.59.21.3.45.88.9.1,1.64"/>
  <path id="Path_3381" data-name="Path 3381" class="cls-1" d="m56.55,58.39l-.62.85c-.18-.26-.31-.56-.38-.87.05-.33.16-.64.33-.93l.67.95"/>
  <path id="Path_3382" data-name="Path 3382" class="cls-1" d="m51.11,17.7l-.94,1.05c-.11-.14-.34-.33-.31-.4.2-.38.41-.75.65-1.11l.6.47"/>
  <path id="Path_3383" data-name="Path 3383" class="cls-1" d="m39.95,60.67l1.06-.74c.03.29.18.69.05.84-.18.21-.58.24-.88.35l-.23-.45"/>
  <path id="Path_3384" data-name="Path 3384" class="cls-1" d="m32.04,37.64l-1.05.84c-.11-.17-.35-.43-.31-.49.22-.3.49-.58.78-.81.03-.03.29.22.58.45"/>
</svg>