<?xml version="1.0" encoding="UTF-8"?>
<svg id="Layer_1" data-name="Layer 1" xmlns="http://www.w3.org/2000/svg" viewBox="0 0 129.29 77.26">
  <defs>
    <style>
      .cls-1 {
        fill: #bababa;
        stroke-width: 0px;
      }
    </style>
  </defs>
  <path id="Path_3329" data-name="Path 3329" class="cls-1" d="m121.85,53.94c1.62.95,3.3,1.84,4.88,2.89,2.37,1.59,2.55,4.16,2.57,6.66,0,.51-.87,1.33-1.46,1.47-1.77.4-3.56.68-5.37.82-1.23.12-2.49.02-3.79.02-.07.34-.14.6-.19.87-.51,2.76-1.7,3.78-4.47,3.76-.96,0-1.91-.08-2.86-.23-1.94-.33-2.62-1.03-2.91-3-.03-.45.09-.9.35-1.27.62-.77,1.15-1.6,1.6-2.48l-3,.26c.1.62.13,1.04.23,1.45.28.9-.07,1.88-.86,2.4-1.88,1.41-3.61,3.1-5.68,4.13-2.26,1.05-4.65,1.8-7.1,2.22-2.74.45-5.51.75-8.28.9-3.54.29-7.02-1.12-9.36-3.79-.41-.36-.85-.66-1.33-.92.22,1.53-1.05,2.67-2.38,3.63s-2.75,2.13-4.28,2.4c-2.83.49-5.71.63-8.58.44-1.67-.11-3.37-1.78-4.9-1.58-1.67.23-3.33.8-5.03.42-1.9-.43-3.73-1.11-5.61-1.64-.47-.15-.98-.17-1.46-.07-4.11,1.12-8.19,2.35-12.31,3.4-1.18.2-2.38.22-3.56.06-3.58-.22-7.16-.6-10.74-.74-3.07-.12-5.24-1.89-7.43-3.65-.33-.26-.32-.95-.44-1.45-.02-.29-.06-.57-.12-.85-1.04-2.42-1.1-4.72.79-6.87-1.01.4-2.05.71-3.11.93-1.17.18-2.37.17-3.54-.05-1.75-.37-2.24-1.56-2.1-3.3.28-3.36,2.57-5.26,4.99-6.95.95-.66,2.41-.59,3.68-.86,1.6-5.31,4.56-10.1,8.6-13.9,1.95-1.81,4.39-3,7.02-3.4,3.96-.65,7.92-1.34,12.05-2.04-.11-1.59-.21-3.25-.35-4.9-.45-5.13,1.08-7.59,6-9.2,2.13-.7,3.89-1.41,4.67-3.91.59-1.91,1.94-3.61,3.01-5.36,3.28-5.34,8.52-7.9,14.1-10.05,2.01-.82,4.26-.81,6.26.03,4.05,1.59,8.11,3.16,12.15,4.78,1.77.75,3.31,1.95,4.47,3.48,1.44,1.6,2.97,3.11,4.57,4.54.44.37.8.83,1.03,1.36.42,1.58,1.92,2.62,3.55,2.46,7.23.11,11.94,4.6,16.36,9.51.65.93,1.09,2,1.28,3.12.33,1.2.4,2.46.66,3.67.11.55.34,1.06.68,1.5,1.17,1.39,2.46,2.68,3.62,4.08.73.76,1.3,1.65,1.68,2.63.85,2.93,1.59,5.91,2.14,8.91.03,1.1-.11,2.2-.41,3.25m-27.25-24.21c.72-2.82.35-5.8-1.05-8.36-1.25-2.73-2.28-5.59-4.55-7.73l-4.62-4.34c-2.52,4.63-5.09,9.31-7.61,14.01-.15.39-.13.83.05,1.22,1.74,3.51,3.51,6.99,5.29,10.49,1.67-.55,3.36-1.02,5.08-1.4,1.25-.26,2.43-.8,3.43-1.6,1.29-.83,2.62-1.6,3.98-2.29m-36.99,28.21c-1.3-2.25-2.68-4.65-4.09-7.03-.32-.74-.81-1.41-1.42-1.94-3.92-2.44-7.92-4.78-11.86-7.12-2.42,3.24-2.52,6.84-2.94,10.32,3.4,1.06,6.36,3.2,8.44,6.1,1.99,2.89,4.24,5.65,3.24,9.43l2.29.83c.24-2.15-.5-4.5,1.22-6.2,1.55-1.53,3.3-2.85,5.12-4.39m.64-13.76c-2.93-2.84-5.3-6.22-6.96-9.96-1.26-2.64-3.26-4.38-5.28-6.27-2.33-2.18-5.06-2.61-8.26-2.32-.04.79-.04,1.59.01,2.38.36,2.93.76,5.86,1.18,8.78.22,1.84,1.4,3.43,3.11,4.16,1.9,1.01,3.86,1.89,5.88,2.61,3.31.99,6.72,1.94,10.31.62m32.99-10.29c1.86,1.56,3.75,3.09,5.56,4.71.6.54,1.07,1.21,1.37,1.97.72,1.96,1.26,3.99,1.94,5.97.19.37.5.67.88.85,2.27,1.33,4.61,2.54,7,3.63,1.1.44,2.34.39,3.39-.15,1.24-.91,2-2.46,3.09-3.91-2.33-.62-3.2-2.44-4.22-4.11-2.38-4.01-5.61-7.45-9.47-10.08-3.08-1.74-6.94-1.29-9.54,1.11m-8.07,22.47c.97-.18,1.95-.3,2.93-.35,1.94.03,3.25-.96,4.54-2.28,2.23-2.29,4.6-4.45,6.94-6.64.61-.41.81-1.22.47-1.88-.57-1.31-.92-2.73-1.56-4-.34-.57-.91-.96-1.57-1.06-2.14-.16-4.31-.04-6.46-.18-3.61-.24-6.22,1.65-8.47,3.5,1.65,4.26,4.01,8.03,3.17,12.9m-23.91.59c1.84-1.22,3.65-1.48,5.35-.29,1.68,1.15,3.23,2.48,4.62,3.96,1.73,1.89,3.19,4.02,4.86,6.17,1.13-3.85,3.38-7.28,6.46-9.85-1.58-2.53-3.19-5.12-4.84-7.68-.22-.28-.55-.45-.91-.45-4.78.63-9.56,1.3-14.45,1.98-.37,2.08-.73,4.12-1.09,6.17m13.33-21.76c-1.97-.95-3.63-2.22-5.46-2.51-2.14-.17-4.19-.95-5.89-2.26-.59-.56-1.24-1.05-1.94-1.47-.46-.25-1.01-.29-1.51-.11-2.06,1.2-4.06,2.52-6.2,3.88.79,1.54,1.65,3.03,2.59,4.48,1.52,2.13,3.19,4.16,4.88,6.15.41.35.97.49,1.49.37,2.43-.71,4.83-1.53,7.23-2.33.22-.08.42-.23.56-.42,1.34-1.8,2.65-3.61,4.24-5.78m1.29-1.9l.29.07c.35-2.41.66-4.82,1.05-7.23.26-1.66-.13-3.37-1.09-4.75-1.13-1.77-2.06-3.67-3.18-5.45-.4-.69-.98-1.26-1.68-1.65-4.16-1.95-8.34-3.85-12.56-5.66-2.95-1.27-2.24-1.1-3.97.96-2.14,2.59-3.88,5.5-5.13,8.62,2.06-.53,3.9-1.03,5.75-1.46,8.12-1.88,7.68-2.5,15.77,3.08,1.63,1.03,2.74,2.71,3.05,4.61.5,2.97,1.13,5.91,1.71,8.86m-32.84-11.34c1.47,1.51,2.6,2.78,3.86,3.93,1.9,1.74,3.94,3.33,5.81,5.09.65.61,1.05.41,1.6.06,1.77-1.13,3.55-2.25,5.32-3.39.25-.12.47-.31.63-.55,1.43-3.11,1.88-6.58,1.27-9.94-1.92.43-3.78.81-5.62,1.31-.51.14-.92.67-1.38,1.03-.23-.19-.49-.34-.78-.43-.12-.03-.36.51-.48.69-.29-.11-.68-.43-.97-.35-2.98.79-5.95,1.64-9.25,2.56m64.52,43.93c.1-2.84-1.22-4.17-3.45-4.83-2.98-.88-6-1.66-8.9-2.76-3.89-1.47-7.64-.52-11.41.28-.41.09-1.02.49-1.05.8-.18,1.08-.16,2.19.06,3.27.12.45,1.15.67,1.77.97,2.37,1.25,5.01,1.88,7.68,1.84,3.05-.09,6.11.3,9.17.41,2.04.07,4.07.01,6.13.01M69.35,2.02l-.36.41c.21,1.12.39,2.23.62,3.35.61,2.94.89,6.01,1.94,8.78s2.87,5.24,4.41,7.94c2.64-4.82,5.2-9.49,7.96-14.52l-14.57-5.95M29.8,75.61c-1.18-2.81-2.17-5.28-3.27-7.7-.13-.29-.76-.45-1.18-.49-2.28-.25-4.62-.23-6.85-.7-3.15-.81-6.5-.32-9.28,1.36.23,1.06.44,2.14.7,3.2.08.31.25.59.5.8,2.03,1.46,4.06,2.81,6.79,2.56,1.63-.05,3.26.04,4.87.26,2.46.2,4.91.45,7.72.71m-18.82-11.7c4.98,1.92,9.86,2.15,14.72,2.47.37.04.75-.06,1.05-.28,2.08-2.01,4.11-4.07,6.25-6.21-2.25-1.51-4.37-2.97-6.54-4.35-.4-.21-.86-.23-1.27-.05-4.65,2.72-9.28,5.49-14.21,8.42m12.57-9.59c-.01-.18-.04-.36-.07-.53-.59-1.94-.98-3.76.08-5.8.38-.72-.24-2.42-.94-3.16-1.43-1.31-2.96-2.5-4.59-3.57-3.81,3.5-7.76,10.76-7.14,13.16,2.88-.28,5.36.42,6.79,3.29l5.87-3.39m48.63-20.47c-.67-3.39-1.21-6.54-1.95-9.63-.25-.95-.79-1.8-1.56-2.41-1.94-1.45-4.04-2.7-6.1-3.99-.61-.29-1.25-.52-1.91-.68.54,3.52.03,7.13-1.46,10.37.97.81,1.98,1.57,3.03,2.26,1.06.77,2.28,1.31,3.57,1.58,1.87.07,3.67.7,5.16,1.82.39.25.8.48,1.22.68m33.21,26.43c.64-2.39,1.36-4.95,1.97-7.55.07-.31-.35-.93-.71-1.12-2.38-1.3-4.8-2.53-7.79-4.09-2.29,2.75-4.73,5.67-7.04,8.43l13.57,4.32m-55.62-14.16c1.49.98,2.88,2.49,4.51,2.83,2.72.52,5.5.67,8.26.42,3.95-.3,7.85-1.1,11.8-1.57,1.81-.22,2.88-1.41,4.25-2.48l-8.17-3.78c-.58.57-1.24,1.06-1.95,1.45-2.42.88-4.86,1.71-7.34,2.42-3.7,1.07-7.45,1.69-11.35.7m6.05,27.49c1.34.54,2.72.94,4.14,1.22,1.79.2,3.63-.08,5.44-.04,2.93.07,5.07-1.35,7-3.35.73-.74.84-1.9.26-2.76-.42-.52-1.03-.85-1.69-.94-2.19-.45-4.4-.81-6.61-1.15-1.23-.19-2.46-.3-3.7-.35-.39.02-.75.21-.99.52-1.26,2.15-2.44,4.34-3.84,6.85M22.96,38c.57,3.19,1.08,6.07,1.61,9.04,2.12-1.23,3.85-2.76,5.85-3.26,1.97-.5,4.21.03,6.61.13.35-.69.89-1.74,1.4-2.81.14-.24.18-.52.13-.79-.62-1.4-1.3-2.77-2.11-4.45l-13.49,2.15m11.28,22.54c2.14,4.16,4.16,8.09,6.16,11.97,1.35-.19,2.56-.93,3.33-2.05.65-.82,1.51-1.44,2.5-1.79.84-.36,1.25-.74,1.12-1.66-.04-.48-.04-.96-.02-1.43.13-2.22-1.57-4.13-3.79-4.26-.03,0-.07,0-.1,0-2.95-.3-5.91-.5-9.2-.78m-.92.5c-1.04,1.24-2.18,2.39-3.4,3.44-2.19,1.6-2.76,3.26-1.27,5.7.84,1.63,1.56,3.32,2.14,5.06,1.66-1.03,3.8-.37,4.97-2.01l.49.71.56-1.49c.14.46.22.74.33,1.07l2.27-.59-6.09-11.89m50.23,12.17c7.3-.83,14.68-.36,20.43-6.2-5.79-.19-11.41-.39-17.03-.54-.35.06-.64.29-.8.6-.85,1.92-1.64,3.86-2.6,6.15M55.54,6.85c4.93,2.22,9.74,4.38,14.76,6.63-.82-3.85-1.57-7.49-2.43-11.09-.32-.46-.86-.71-1.42-.68-3.92,1.01-7.62,2.75-10.9,5.14m40.85,22.81l.21.32,14.53-1.81c-2.7-3.21-5.95-5.92-9.6-8-.38.52-.65.91-.93,1.29-.32.42-.55,1.03-.98,1.22-2.26.81-3.56,3.17-3.05,5.52.02.1.05.2.09.3l.76-.04c-.35.41-.69.82-1.03,1.22m-24.94,37.23c.03-.14.06-.28.08-.42-1.37-2.01-2.85-3.95-4.43-5.8-1.24-1.11-2.62-2.05-4.1-2.8-.38-.19-.82-.21-1.21-.04-2.2,1.3-4.36,2.68-6.66,4.11,2.5,1.75,4.64,3.65,7.78,3.34.76.03,1.52.16,2.25.39,2.1.4,4.19.8,6.29,1.21m-44.38-12.29c2.01,1.35,3.99,2.75,6.04,4.04.71.46,1.51.75,2.34.87,3.16.37,6.34.63,9.54.93-1.39-2.91-3.93-5.11-7-6.09-3.51-1.06-7.23-.52-10.92.25m85.19-12.15c.38-4.43.73-8.81-.88-13.12l-10.47.95c4.53,3.28,8.39,7.42,11.35,12.17m-23.84-7.35c-.85.2-1.5.35-2.14.5-2.82.65-5.65,1.3-8.48,1.96-1.76.41-3.53.82-5.27,1.31-.46.13-.83.58-1.42,1.02,2.42,1.12,4.52,2.13,6.67,3.04.47.11.97.02,1.37-.24,1.55-.92,2.94-2.25,4.6-2.83,2.39-.84,3.34-2.75,4.67-4.77m-8.15,28.72c-.89,1.81-1.77,3.5-2.53,5.25-.13.47,0,.97.32,1.33,1.35.93,2.79,1.74,4.35,2.68l3.04-7.17-5.18-2.09m-26.24-1.26c-.38,1.11-.67,2.24-.89,3.39-.14,1.23.05,2.49-.05,3.73-.1,1.35.48,2.15,2,2.85,1.34-2.19,2.69-4.39,4.05-6.61-1.78-1.17-3.22-2.12-5.11-3.36m65.11-16.94c.19-4.17-3.13-6.13-5.42-8.81-.18,2.37-.19,4.7-.17,7.02,0,.32.12.63.35.86,1.65.97,3.32,1.99,5.24.93m-7.5,6.71q-2.85-.22-3.6,2.1c-.12.36-.31.71-.39,1.08-.46,2.1-.9,4.21-1.36,6.36,3.31.14,3.62-.09,4.15-2.83.14-.7.33-1.39.45-2.1.26-1.53.5-3.06.75-4.61m-37.01-15.95l4.21-1.09c.31.49.54.51,2.21-.07-1.52-2.97-3.03-5.93-4.68-9.14-.61,3.6-1.15,6.8-1.74,10.3m49.56,27.46c4.04-.35,3.76-.46,2.74-3.63-1.9,0-3.81-.02-5.71.02-.41,0-.81.14-1.11.42-.74.97-1.37,2.03-2.06,3.09,2.42.59,3.54.36,5.12-1.2-.35.67-.52,1-.69,1.33.09.09.18.17.27.26.46-.36.93-.72,1.44-1.12v.82Zm-8.07-5.68c3.36,1.03,6.9,1.37,10.39.98-1.69-1.94-5.8-4.08-7.15-3.57-1.25.47-2.81.78-3.24,2.58m-90.88-9.13c4.1.62,7.71.23,10.29-3.22-4.28-1.86-7.15.84-10.29,3.22m51.27-.73l4.74,7.72c1.29-3.74-1.23-6.51-1.77-9.96l-2.97,2.24m36.31,3.62c-.49,2.8-.94,5.41-1.42,8.15,2.62-2.01,4.39-4.33,4.4-7.78l-2.98-.37m-78.29-.03c-1.31-1.43-2.67-2.43-4.77-1.68-.8.15-1.62.16-2.43.05h-2.84c.25,1.14.45,2.05.56,2.51l9.48-.88m83.26,2.25c2.25-.67,2.79-1.07,2.73-2.86-.14-1.54-.37-3.07-.69-4.58l-2.49.48c.16,2.47.32,4.75.46,6.96m-5.85,8.31l5.18.77c.56-.87,1.26-1.97,1.99-3.11-5.07-1.37-3.64-1.57-7.17,2.34m-57.59-12.38l3.86,6.74c.39-2.28.73-4.21,1.08-6.25l-4.94-.48m46.14-29.9c-.09-.17-.18-.35-.26-.52l-5.86-.86c.78,1.69,1.44,3.12,2.27,4.93l3.85-3.55M7.42,60.16H2.08c-.48,2.39.21,3.18,2.44,2.81,1.25-.28,2.47-.64,3.68-1.08l-.78-1.74m82.39-24.99l-2.64,3.76h7.56l-4.92-3.76M2.7,58.76c.07.22.14.43.21.65,1.41-.21,3.01-.09,4.16-.76.74-.43.8-2.02,1.21-3.22-2.98-.45-4.02,1.84-5.57,3.32m42.07,12.86c.02.2.05.4.07.6,2.62.86,5.2,1.93,8.14,1.26-.54-.69-1.26-1.23-2.08-1.56-1.57-.33-3.16-.53-4.75-.62-.47.04-.94.15-1.38.32m34.62-10.88c-1.39,2.41-4.19,4.33-2.65,7.73.85-2.6,3.25-4.63,2.65-7.73m37.31,5.53c-1.11-2.08-2.52-1.77-3.9-1.57-1.08.07-1.96.89-2.1,1.97l5.99-.4M22.73,43.52c-.25-1.8-.45-3.27-.67-4.91-1.14.64-2.12,1.2-3.27,1.84l3.94,3.07m-7.87,13.58c-1.3-1.24-3.31-1.33-4.71-.21,1.84,1.61,3,1.67,4.71.21m-3.67,4.8l4.91-3.27-.28-.5c-.68.29-1.38.86-2.03.82-2.1-.14-2.38,1.33-2.59,2.95m105.06,5.6h-6.07c1.19,1.68,5.23,1.59,6.07,0m-80.03-20.67c-1.2.98-2.09,1.71-3.1,2.54l2.43,1.88c.22-1.48.41-2.73.66-4.42m76.56,4.04l3.46.37c-.39-1.28-.68-2.26-1.03-3.41l-2.43,3.03M40.24,22.48l-1.9,1.99h3.75l-1.85-1.99m6.83,48.08l3.81.5c-1.31-1.95-2.56-1.23-3.81-.5m-37.56-9.73h.6c.25-.65.51-1.28.79-1.98l-1.67-1.2c.12,1.34.2,2.26.28,3.18m-.27,5.97l3.04-1.21c-1.59-.96-2.53-.62-3.04,1.21"/>
</svg>