<?xml version="1.0" encoding="UTF-8"?>
<svg id="Layer_1" data-name="Layer 1" xmlns="http://www.w3.org/2000/svg" viewBox="0 0 680 467.57">
  <defs>
    <style>
      .cls-1 {
        stroke-dasharray: 0 0 0 0 0 0 12.42 12.42;
      }

      .cls-1, .cls-2, .cls-3, .cls-4 {
        fill: none;
      }

      .cls-1, .cls-3, .cls-4 {
        stroke: #fff;
        stroke-linecap: square;
        stroke-miterlimit: 10;
      }

      .cls-2, .cls-5 {
        stroke-width: 0px;
      }

      .cls-5 {
        fill: #fff;
      }

      .cls-4 {
        stroke-dasharray: 0 0 0 0 0 0 11.38 11.38;
      }
    </style>
  </defs>
  <g id="blunt_wood_w">
    <g id="dash_2">
      <line class="cls-3" x1="305.01" y1="348.13" x2="305.63" y2="342.17"/>
      <line class="cls-4" x1="306.81" y1="330.85" x2="327.53" y2="132.75"/>
      <line class="cls-3" x1="328.12" y1="127.09" x2="328.74" y2="121.12"/>
    </g>
    <g id="dash_1">
      <line class="cls-3" x1="177.78" y1="415.55" x2="174.35" y2="410.63"/>
      <line class="cls-1" x1="167.25" y1="400.44" x2="71.33" y2="262.88"/>
      <line class="cls-3" x1="67.78" y1="257.79" x2="64.35" y2="252.87"/>
    </g>
    <path id="filter_small" class="cls-5" d="m227.15,463.16c.1-.28.19-.56.23-.86.23-1.66.39-3.38.15-4.98-.93-6.35-3.83-11.77-7.89-16.59-1.78-2.1-3.8-3.96-6.43-5.15-.75-.34-1.49-.53-2.23-.58l92.25-57.36-.49-.87-94.39,58.69c-.32.13-.64.28-.97.46-.17.1-.34.19-.52.29-.26,1.16-.6,2.26-1.03,3.3-.47,3.25.22,6.18,1.22,9.04,1.86,5.33,4.74,10.04,8.9,13.94,1.42,1.33,3,2.46,5,3.18.91.15,1.82.37,2.73.66.34-.19.68-.38,1.02-.57.43-.24.82-.51,1.16-.81l98.07-50.77-.49-.87-96.29,49.85h0Zm-1.03-.94c-.48,2.15-2.14,3.05-4.27,2.43-2.45-.72-4.29-2.25-5.93-3.99-4.57-4.84-7.68-10.46-8.77-17.1-.23-1.43-.2-2.99.06-4.46.45-2.57,2.23-3.51,4.7-2.67,2.54.87,4.46,2.52,6.09,4.43,1.71,2,3.21,4.16,4.05,5.26,2.44,4.6,4.01,8.2,4.33,12.24.1,1.26.03,2.6-.25,3.87h0Z"/>
    <g id="roll">
      <path class="cls-2" d="m381.23,379.32l-.5-.28c5.63-10.14,12.81-18.97,21.32-26.23l.72-.61c2.08-1.76,4.23-3.57,5.55-6.03.84-1.55,1.36-3.39,1.87-5.17.67-2.36,1.38-4.79,2.83-6.68-16.85,3.14-33.78,5.79-50.39,8.39l-.15-.99-11.16,6.94,20.22,35.67,9.69-5.02h0Z"/>
      <path class="cls-2" d="m413.65,334.21l.44.38c-1.52,1.77-2.21,4.16-2.93,6.69-.52,1.83-1.06,3.72-1.95,5.36-1.42,2.63-3.64,4.51-5.79,6.32l-.71.6c-8.26,7.05-15.23,15.59-20.76,25.38l154.32-79.89c-27.78,9.81-56.47,19.88-85.68,27.19-12.16,3.04-24.52,5.63-36.93,7.95v.02Z"/>
      <path class="cls-2" d="m667.31,205.82c-2.07-2.77-4.34-5.34-6.91-5.43h-.4l-.07-.41c-.72-4.02-1.54-7.91-3.53-11.3-.84-1.43-1.7-2.37-2.63-2.88-.85-.46-2.03-.54-2.65.16l.15-.05c.91,3,2.11,5.64,3.37,8.43l.52,1.16c.91,2.01,1.1,3.48,1.32,5.17.09.71.19,1.47.35,2.35.25,1.32,1.03,2.59,1.73,3.71l7.35,11.85c.5-.91,1.45-1.27,2.3-1.57.48-.17.93-.34,1.3-.58,1.39-.93,1.56-3.25,1.02-5.06-.62-2.06-2.01-3.92-3.24-5.56h.02Z"/>
      <path class="cls-2" d="m657.72,207.27c-.74-1.2-1.58-2.55-1.86-4.06-.17-.89-.27-1.67-.36-2.4-.22-1.68-.39-3.01-1.24-4.89l-.52-1.16c-1.2-2.64-2.32-5.15-3.22-7.97l-.04.05-.34-.87c-1.75-4.48-5.71-7.88-8.9-10.62-.39-.33-.83-.71-1.27-.83-.8-.23-1.36.35-2.19,1.29-.52.59-1.06,1.2-1.76,1.56-1.44.72-3.21.18-4.93-.34-2.09-.64-3.41-.95-4.07.1l.04.07-264.58,164.52c29.02-4.54,59.02-9.23,87.85-16.44,29.83-7.46,59.14-17.82,87.49-27.83l.24.68,123.19-63.77v-.02c.14-.07.29-.14.44-.21h0c1.73-.79,3.47-1.65,4.73-3.1,1.47-1.69,1.94-4.05,1.21-6.02-.21-.57-.54-1.18-.85-1.77-.57-1.08-1.15-2.18-1.19-3.26l-7.88-12.71h.01Zm-80.04,40.48c-28.87,7.22-58.9,11.92-87.94,16.46l-.15-.99c29.02-4.54,59.03-9.23,87.85-16.44,29.83-7.46,59.14-17.82,87.49-27.83l.33.94c-28.37,10.02-57.7,20.39-87.58,27.86Z"/>
      <path class="cls-5" d="m671.5,211.1c-.67-2.23-2.12-4.16-3.39-5.87-2.12-2.83-4.46-5.48-7.27-5.8-.73-3.98-1.57-7.83-3.58-11.25-.93-1.59-1.92-2.66-3.01-3.25-1.21-.65-2.56-.62-3.46,0-1.95-4.37-5.78-7.66-8.89-10.33-.44-.38-1-.86-1.65-1.04-1.45-.4-2.38.66-3.2,1.6-.46.52-.93,1.06-1.46,1.32-1.09.54-2.66.06-4.19-.4-1.91-.59-4.07-1.24-5.19.49l-275.37,171.22.49.87,11.16-6.94.15.99c16.61-2.6,33.54-5.24,50.39-8.39-1.45,1.89-2.16,4.32-2.83,6.68-.51,1.78-1.03,3.61-1.87,5.17-1.33,2.46-3.48,4.28-5.55,6.03l-.72.61c-8.51,7.26-15.69,16.09-21.32,26.23l.5.28-9.69,5.02.49.87,290.12-150.19c1.75-.8,3.65-1.74,5.03-3.33,1.71-1.96,2.25-4.72,1.39-7.03-.24-.63-.58-1.27-.9-1.89-.54-1.01-1.05-1.97-1.08-2.82l.12-.07-.1-.17c.02-.18.05-.36.12-.53.29-.67,1-.92,1.82-1.22.52-.19,1.05-.38,1.52-.7,1.87-1.26,2.05-4.08,1.42-6.17h0Zm-289.56,167.86c5.53-9.79,12.5-18.33,20.76-25.38l.71-.6c2.15-1.82,4.37-3.7,5.79-6.32.89-1.65,1.43-3.54,1.95-5.36.72-2.53,1.41-4.93,2.93-6.69l-.44-.38c12.41-2.32,24.77-4.91,36.93-7.95,29.21-7.31,57.9-17.38,85.68-27.19l-154.32,79.89v-.02Zm284.85-155.71c.31.59.64,1.19.85,1.77.74,1.97.26,4.33-1.21,6.02-1.26,1.45-3,2.31-4.73,3.1h0c-.15.07-.3.14-.45.21v.02l-123.18,63.77-.24-.68c-28.35,10.02-57.66,20.37-87.49,27.83-28.82,7.21-58.83,11.9-87.85,16.44l264.58-164.52-.04-.07c.66-1.05,1.98-.74,4.07-.1,1.71.53,3.48,1.07,4.93.34.7-.35,1.24-.96,1.76-1.56.83-.95,1.39-1.52,2.19-1.29.44.12.88.5,1.27.83,3.19,2.74,7.15,6.14,8.9,10.62l.34.87.04-.05c.9,2.81,2.03,5.33,3.22,7.97l.52,1.16c.85,1.88,1.02,3.21,1.24,4.89.09.73.2,1.51.36,2.4.28,1.51,1.12,2.86,1.86,4.06l7.88,12.71c.04,1.08.62,2.18,1.19,3.26h-.01Zm2.73-6.8c-.37.25-.82.41-1.3.58-.85.31-1.8.66-2.3,1.57l-7.35-11.85c-.7-1.12-1.48-2.39-1.73-3.71-.16-.87-.26-1.63-.35-2.35-.22-1.7-.41-3.16-1.32-5.17l-.52-1.16c-1.27-2.79-2.46-5.43-3.37-8.43l-.15.05c.62-.7,1.8-.62,2.65-.16.93.5,1.79,1.44,2.63,2.88,1.99,3.39,2.8,7.28,3.53,11.3l.07.4h.4c2.57.1,4.84,2.67,6.91,5.44,1.23,1.64,2.62,3.5,3.24,5.56.54,1.81.36,4.12-1.02,5.06h-.02Z"/>
      <path class="cls-5" d="m577.44,246.78c-28.83,7.21-58.83,11.9-87.85,16.44l.15.99c29.04-4.54,59.07-9.23,87.94-16.46,29.88-7.47,59.21-17.84,87.58-27.86l-.33-.94c-28.34,10.02-57.65,20.37-87.49,27.83Z"/>
    </g>
    <g id="filter_enlarged">
      <path class="cls-5" d="m54.98,223.94c1.51-.1,3.02-.24,4.52-.34.22-.12.44-.25.67-.38,1.09-.61,2.05-1.29,2.91-2.03l245.89-127.29-1.24-2.18-241.42,124.98c.26-.69.47-1.41.57-2.17.58-4.15.97-8.46.39-12.48-2.32-15.91-9.59-29.51-19.79-41.59-4.45-5.27-9.53-9.94-16.11-12.9-1.88-.85-3.73-1.34-5.6-1.46L257.04,2.28l-1.24-2.18L19.15,147.25c-.52.21-1.05.46-1.58.72-.65,1.24-1.52,2.36-2.37,3.47-.21.29-.41.59-.61.88-.51,1.75-1.09,3.46-1.76,5.09-1.19,8.15.56,15.49,3.07,22.67,4.67,13.36,11.87,25.18,22.33,34.95,3.57,3.33,7.51,6.16,12.55,7.98,1.4.24,2.81.56,4.21.93h0Zm-16.84-13.51c-11.45-12.12-19.26-26.22-21.98-42.87-.59-3.6-.5-7.49.14-11.19,1.12-6.44,5.59-8.81,11.78-6.69,6.36,2.18,11.18,6.32,15.27,11.11,4.28,5.01,8.05,10.43,10.14,13.18,6.12,11.52,10.06,20.55,10.86,30.69.25,3.17.07,6.51-.64,9.69-1.2,5.4-5.36,7.64-10.71,6.08-6.15-1.8-10.76-5.65-14.87-10h0Z"/>
      <path class="cls-5" d="m23.67,148.4c-10.59,1.26-11.72,18.97-2.52,39.47,9.21,20.5,25.31,36.16,35.91,34.9,10.59-1.26,11.72-18.97,2.51-39.47-9.21-20.5-25.31-36.16-35.91-34.9h.01Zm33.51,35.18c.41.91.78,1.8,1.15,2.7l4.01,22.86-23.3-50.55c6.67,5.48,13.44,14.51,18.15,25h-.01Zm-20.38-26.71l12.98,55.47-21.71-59.28c2.69.32,5.67,1.66,8.73,3.81Zm-10.08-3.89l-.06,37.44-6.04-34.39c1.25-1.68,2.96-2.74,5.13-3,.31-.04.64-.05.96-.06h.01Zm-6.95,4.44l6.14,34.95c-.83-1.56-1.61-3.15-2.35-4.79-5.7-12.69-6.87-24.14-3.79-30.16Zm8.16,38.54l.06-40.36,22.75,62.11c-7.24-2.02-16.05-10.45-22.81-21.76h0Zm24.26,22.08l-13.67-58.4,23.55,51.09c-1.02,4.24-3.39,6.96-7.08,7.4-.89.11-1.83.07-2.8-.09h0Zm10.44-13.6l-2.09-11.9c1.29,4.34,1.98,8.37,2.09,11.9Z"/>
    </g>
  </g>
</svg>