<?xml version="1.0" encoding="UTF-8"?>
<svg id="Layer_1" data-name="Layer 1" xmlns="http://www.w3.org/2000/svg" viewBox="0 0 650 470">
  <defs>
    <style>
      .cls-1 {
        stroke-dasharray: 0 0 11.38 11.38;
      }

      .cls-1, .cls-2, .cls-3, .cls-4 {
        fill: none;
        stroke: #fff;
        stroke-linecap: square;
        stroke-miterlimit: 10;
      }

      .cls-5, .cls-6 {
        fill: #fff;
        stroke-width: 0px;
      }

      .cls-2 {
        stroke-dasharray: 0 0 12.8 12.8;
      }

      .cls-6 {
        opacity: .3;
      }

      .cls-4 {
        stroke-width: 5px;
      }
    </style>
  </defs>
  <g>
    <line class="cls-3" x1="307.19" y1="323.74" x2="307.98" y2="317.8"/>
    <line class="cls-1" x1="309.48" y1="306.52" x2="335.78" y2="109.08"/>
    <line class="cls-3" x1="336.53" y1="103.44" x2="337.32" y2="97.49"/>
  </g>
  <g>
    <line class="cls-3" x1="146.32" y1="404.48" x2="143.01" y2="399.48"/>
    <line class="cls-2" x1="135.96" y1="388.79" x2="54.8" y2="265.92"/>
    <line class="cls-3" x1="51.28" y1="260.58" x2="47.97" y2="255.57"/>
  </g>
  <path class="cls-5" d="m324.44,355.16c-6.65-11.78-17.27-18.42-23.68-14.8l-142.69,80.54c-6.41,3.62-6.21,16.14.43,27.92,6.65,11.78,17.27,18.42,23.68,14.8l142.69-80.54c6.41-3.62,6.21-16.14-.43-27.92Zm-164.97,93.12c-6.35-11.25-6.73-23.1-.85-26.42,5.88-3.32,15.83,3.13,22.18,14.38,6.35,11.25,6.73,23.1.85,26.42-5.88,3.32-15.83-3.13-22.18-14.38Zm22.29-12.58c-5.4-9.57-13.43-15.75-19.69-15.79l139.24-78.6c5.88-3.32,15.83,3.13,22.18,14.38,6.35,11.25,6.73,23.1.85,26.42l-139.24,78.6c3.2-5.38,2.06-15.44-3.34-25.02Z"/>
  <path class="cls-6" d="m643.21,173.69c-6.65-11.78-17.27-18.42-23.68-14.8l-242.69,136.99c-6.41,3.62-6.21,16.14.43,27.92,6.65,11.78,17.27,18.42,23.68,14.8l242.69-136.99c6.41-3.62,6.21-16.14-.43-27.92Zm-264.98,149.58c-6.35-11.25-6.73-23.1-.85-26.42,5.88-3.32,15.83,3.13,22.18,14.38,6.35,11.25,6.73,23.1.85,26.42-5.88,3.32-15.83-3.13-22.18-14.38Zm22.29-12.58c-5.4-9.57-13.43-15.75-19.69-15.79l239.24-135.05c5.88-3.32,15.83,3.13,22.18,14.38s6.73,23.1.85,26.42l-239.24,135.05c3.2-5.38,2.06-15.44-3.34-25.02Z"/>
  <g>
    <path class="cls-5" d="m326.5,30.72c-12.38-22.22-32.3-34.82-44.39-28.08L12.9,152.65c-12.09,6.74-11.86,30.3.53,52.53,12.38,22.22,32.3,34.82,44.39,28.08L327.03,83.24c12.09-6.74,11.86-30.3-.53-52.53ZM15.24,204.17c-11.83-21.23-12.43-43.53-1.33-49.71s29.74,6.06,41.57,27.28c11.83,21.23,12.43,43.53,1.33,49.71-11.1,6.18-29.74-6.06-41.57-27.28Zm42.05-23.43c-10.07-18.06-25.11-29.77-36.88-29.9L283.12,4.44c11.1-6.18,29.74,6.06,41.57,27.28,11.83,21.23,12.43,43.53,1.33,49.71L63.32,227.83c6.08-10.08,4.04-29.03-6.03-47.09Z"/>
    <g>
      <ellipse class="cls-4" cx="34.31" cy="192.68" rx="22.25" ry="43.13" transform="translate(-90.03 41.55) rotate(-29.35)"/>
      <path class="cls-5" d="m58.31,190.23c-1.45-3.47-3.14-6.81-5-9.96l-.93-.8c-.05-.04-.1-.08-.14-.11-.15-.11-.37-.28-.56-.61-.15-.25-.24-.49-.31-.68l-.6-1.44.43.25c-1.79-2.73-3.7-5.28-5.7-7.63h-.03s.31,2.15.31,2.15l-.68-1.12v.09s-.57-1-.57-1c-.03.02-.06.03-.09.03-.07,0-.15-.01-.25-.06-.01,0-.03-.02-.04-.03,0,.01-.01.02-.02.04-.03.07-.04.15-.07.23l-.23.84-.03-.04c.02.17.01.33-.04.45l-.28.65-.77-1.27c-.15-.24-.29-.48-.43-.72-.18-.32-.3-.66-.3-.92-.01-.5.39-.49.66-.34h0s.06.05.09.08c0-.08.03-.15.06-.22l-.46-.76-.64.22-.21.46c-.04.08-.13.28-.34.3-.06,0-.13,0-.2-.03-.36-.13-.7-.58-.98-1l-.27-.4.05-1.05.6.38.47.38-.12-.25.13-.38.64-.93.62,1.04-.24-.82c-1.22-1.22-2.45-2.37-3.7-3.43.02.59-.44.91-.84.98l-.88.16-.04-1.32c-.02-.6.21-.82.42-.92-.85-.68-1.71-1.32-2.57-1.91l-.45.02-.1-.38c-.32-.21-.63-.42-.95-.62.02.34-.1.56-.37.63l-.15,1.22-.95-1.91c-.09-.18-.19-.37-.27-.59-.07-.18-.09-.32-.11-.44-.27-.15-.53-.3-.8-.43l.11.4c.05.16.19.66.01.92-.06.09-.15.14-.25.15-.2.02-.46-.1-.63-.18l-.32-.15-.7-1.37.34-.09-.07-.4c-.06-.03-.13-.05-.19-.08.02.31-.12.39-.18.41-.1.04-.21.06-.32.09l-.54.13-.36-.8.45-.08-.46.07-.21-.47c-.31-.12-.62-.23-.93-.33.05.37.07.72.03.99l-.15,1.17-.3-.53s-.02.06-.04.08c-.05.05-.1.08-.16.08-.22.02-.5-.21-.67-.35-.3-.23-.48-.53-.58-.74l-.16-.34.02-.31c.03-.24.16-.39.33-.41.1,0,.21,0,.35,0,0-.01,0-.02,0-.04-1.35-.36-2.67-.57-3.96-.62l-.24.35c.03.15.03.31-.03.44-.04.09-.12.19-.26.2-.08,0-.19,0-.32-.06l-.49-.2-.18-.69s0-.02,0-.04c-.06,0-.12,0-.19.01l.1.6-.6-.57c-.69.07-1.35.2-1.98.37,0,.01.02.03.03.04.08.17.13.34.15.5l.9.73-.02.94-.23.17-.41.06c.07.33-.04.53-.1.63-.02.04-.04.08-.06.12l-.11.26c.2.1.39.23.56.36.07.05.15.11.22.16l.45.31.25,1.29h-.16s.36.87.36.87c.04.08.07.16.1.24.12.25.25.54.3.85.08.53-.23.6-.4.64-.03,0-.06.02-.09.02-.19.02-.38-.09-.52-.2l-.25-.21-.18-.37c-.14-.31-.19-.62-.15-.84.02-.13.06-.25.1-.42l.15-.58c-.09,0-.17,0-.26,0,.01.31-.01.7-.29.91l.18,1.79h0s.38.94.38.94c.08.2.2.48.19.76h0c0,.19-.1.42-.27.5l.49,3.54-1.02-1.32c-.43-.55-.55-.98-.58-1.24-.03-.26,0-.59.34-.72l.61-.24s-.09,0-.15-.03c-.18-.08-.35-.21-.49-.31l-1.34-.96.88-.59c.08-.05.14-.1.22-.14.06-.03.13-.05.2-.06l.39-.09-.48-.33c-.37-.26-.57-.59-.67-.83-.17-.41-.14-.72-.07-.97l-.22-.43c-.53-1.04-.46-1.73-.11-1.9l-.05-.07.5-.25s.05-.04.08-.06c.03-.02.07-.05.11-.08l-.68-2.23h0s-.54-.56-.54-.56c-.15.07-.3.13-.45.2l.32.24-1.39.35c-.15.09-.29.19-.43.29l.2.25c.12.15.24.31.36.47.19.26.31.52.38.7.07.17.19.57-.04.81l-.2.22-.4-.3c-.13-.11-.34-.3-.51-.6-.09-.02-.16-.04-.25-.07l-.06-.02c.16.43.15.81.1,1.15l-.02.11.31.15-.15.9-.05.2c.05.05.11.11.16.17l.05-.16h0s.52.63.52.63l-.52-.64c.12-.25.33-.68.96-.43l1.03.41-.41,1.15c-.07.19-.13.36-.2.51-.01.03-.04.04-.06.06l.55.55-.58.31.02.3c.17.22.36.52.4.87.03.33-.06.51-.13.65-.02.04-.04.07-.05.12l-.05.13.88,1.28.1-.11c-.51-.68-.64-1.18-.49-1.82l.08-.36,1.04.47.1.84c.1.15.2.32.26.53.07.24.12.57-.08.81h0c.25.31.56.72.75,1.3l.03.04c.06.08.11.15.16.23.18.24.47.61.51,1.05h0c.04.42-.16.63-.37.68-.04,0-.08.02-.12.02-.24.02-.59-.04-.91-.52-.24-.35-.43-.71-.59-1.02l-.08-.15c-.19-.35-.21-.69-.14-.9-.05-.08-.07-.13-.1-.19l-.27.02c-.11,0-.44.03-.82-.37-.27-.28-.41-.61-.48-.83l-.65-.55.52-.63-.19-.32c-.05-.08-.1-.15-.15-.23-.1-.15-.27-.41-.4-.71l-.26.14-.2-1.59-.6-1.22-.82-.86c-.03.07-.08.14-.17.16-.02,0-.04,0-.06.01-.15.02-.3-.05-.4-.09l-.49-.16-.12-.33c-.33.47-.64.97-.92,1.5l2.06.54.76,1.77c.15.36.22.69.17.93-.04.22-.17.35-.37.37-.01,0-.03,0-.04,0-.3,0-.67-.25-1.01-.69-.33-.43-.54-.96-.57-1.39-.02-.02-.04-.05-.06-.08l-1.04-1.27c-1.08,2.09-1.81,4.59-2.17,7.41l.52,1.07c.05,0,.1.01.16.04l.59.24.19.8h0c.03.14.07.34.03.52-.02.12-.06.22-.1.31l-.13.35-1.04-.45-.03-.39-.1.04-.29-.56c-.3,4.46.24,9.59,1.66,15.13l.59-.9,1.23,1.46-.28.59c-.06.15-.13.32-.26.44-.02.02-.05.03-.08.04.13.33.15.65.09.82-.07.21-.2.32-.37.34-.04,0-.09-.02-.14-.02.72,2.36,1.58,4.77,2.61,7.23.55,1.31,1.13,2.59,1.74,3.86l.07-.24.43.3c.98.68,1.15,1.48,1.16,1.89h0c0,.14-.02.37-.25.44,0,0-.03,0-.07.01-.03,0-.08,0-.13,0,.62,1.18,1.26,2.35,1.92,3.49l.3.2-.13.09c.15.26.3.51.46.76.08-.05.16-.09.24-.14l.47-.27,1.03,1.42-.46.49c-.07.08-.14.14-.21.21.04.06.07.12.11.18l.07-.02.04.19c1.84,2.85,3.82,5.52,5.88,7.97l.25-.12.03.04v-.03c-.05-.1-.12-.28-.15-.46v-.02c-.06-.07-.11-.15-.17-.22-.13-.18-.29-.4-.41-.65l-.07-.08v-.07c-.04-.13-.08-.26-.1-.39-.06-.4.05-.65.13-.84.02-.05.05-.1.06-.16l.16-.53.55.57.43-1.26,1.23,1.32-.42,1.6-.54-.62-.08.24c.13.24.22.52.23.8.16.18.27.38.33.48l.68,1.19-1.24-.06.2.27-.05.21c1.25,1.42,2.53,2.76,3.83,4.01v-.1c-.17-.29-.37-.72-.37-1.09,0-.3.11-.47.19-.61.02-.04.04-.07.06-.11l.18-.41,1.09,1.07v.7c.09.2.22.53.21.83,0,.24-.12.38-.33.4-.04,0-.08,0-.12,0-.1,0-.19-.04-.27-.08.31.29.63.57.94.85-.04-.17-.07-.34-.05-.49.05-.37.33-.39.45-.4l.68-.06.42,2.24c1.42,1.18,2.86,2.24,4.29,3.18-.27-.22-.45-.48-.55-.65-.16-.28-.41-.84-.29-1.48l.06-.18.25-.46.72.91c.18.23.35.45.52.69.26.36.37.8.37,1.08h0c0,.27-.14.43-.33.45-.06,0-.13,0-.2-.03-.09-.03-.17-.08-.25-.12,1.97,1.26,3.93,2.29,5.86,3.04-.02-.19-.01-.34,0-.45l.04-.79.99.92.56.57-.08.28c2.56.82,5.04,1.16,7.36.93.69-.07,1.34-.2,1.97-.36l-.29-.57.64-.04c.08,0,.17,0,.26.02.07.01.14.03.21.06l.29-.37c-.17-.18-.39-.47-.46-.85-.05-.29-.03-.56.07-.74.16-.3.53-.03.67.07l.11.08.8.51-.33,1.14c1.65-.76,3.07-1.88,4.24-3.33l-.42-.48-.03.96-.89-2.48c-.19,0-.46-.09-.77-.49l-.25-.33-.29.21.06-.52-.03-.04.04-.06.18-1.59c-.43-.38-.75-.87-.98-1.3l.12.62-.99-.43-.05-.1c-.04.19-.12.3-.26.32h-.01c-.27.03-.68-.26-.95-.67-.21-.31-.49-.92-.41-1.33h0c.04-.24.12-.46.2-.7l.58-1.78-.27.06s-.05.02-.07.03c-.05.02-.12.05-.2.06-.11.01-.24-.01-.41-.12-.28-.18-.58-.51-.84-.89-.3-.45-.31-.89-.28-1.11.04-.4.26-.41.38-.38.1.02.13,0,.15-.03l.16-.22.34.24s.51.37.72.95c.07.21.12.41.17.64l.17.68.07-.2.46,2.27.4.35h0c.08.07.19.16.31.3,0-.03,0-.06,0-.09l-.08-.64.22.03-.31-.66,1.66.85.67,1.2-.24.19s.08.08.12.12l.16-.23.54.53s.06.06.08.1c.08.09.19.22.3.37l.35-1.36-.06-.06.86-.32c.16-.08.49-.25.9.33.27.37.49.81.64,1.28l.55,1.66c.34-.87.63-1.79.87-2.76-.11,0-.21-.03-.25-.05-.13-.05-.24-.13-.34-.24-.29,0-.62-.2-.96-.6-.17-.2-.28-.41-.36-.59l-.57-.56.26.77-.51-.06c-.13,0-.41.02-.74-.38-.21-.26-.31-.53-.38-.69l-.43-.94.88.03h.13s.26-.15.26-.15l-.05-.15c-.27-.68-.12-.89-.01-.96.08-.06.19-.1.29-.14l.52-.22.38.78.36-.23c-.23-.28-.34-.59-.41-.78l-.35-.78.53-.18c.18-.03.35-.06.54-.07h0c.07,0,.22,0,.42.19l.63.13.09,1.11c0,.09,0,.15.01.22.06.06.12.13.18.21l-.12-1.54.66,2c.16-1.62.21-3.33.14-5.13-.33-.17-.68-.65-.8-1.05-.12-.41-.03-.7.09-.82h0c.18-.19.46,0,.6.11-.24-3.06-.81-6.34-1.72-9.76l-.2-.04-.39-1.49.15-.07c-.57-1.95-1.25-3.95-2.03-5.98l-.58-.4-.19-1.5s-.02-.04-.03-.07Zm-3.36-2.74c0-.06-.02-.12-.03-.18l-.42-1.85,2.11,2.79.05,1.11-.69-.37c-.15-.09-.35-.21-.57-.45-.34-.39-.41-.82-.45-1.05Zm-3.9-7.35l.65.25.26,2.94-.75-.9c-.09.17-.22.29-.34.4-.05.05-.1.09-.15.14l-.36.39-.5-.87c-.45-.78-.49-1.41-.12-1.67.11-.08.22-.19.29-.32.12-.2.37-.62,1.01-.36Zm6.77,16.67c.18.4.44.99.25,1.31-.07.12-.09.19.22.85l.41.88-.55.02c-.15,0-.44.02-.78-.37-.34-.38-.45-.86-.49-1.01-.04-.18-.07-.23-.07-.24-.11-.04-.31-.21-.51-.58-.09-.16-.29-.58-.27-.92.02-.39.11-.64.25-.78.18-.17.41-.15.58-.18l.51-.11.34.88c.03.08.07.16.11.25Zm-3.57-1.9l-.89-2.44.6-.37,2.02,2.34-1.74.47Zm3.42,7.52l-.06,1.35-1.65-1.13.1-1.56,1.1.89.51.46Zm-8.46-25.28c.23.65.08.98,0,1.16-.02.04-.03.07-.04.11l-.08.49.37.35-.43.51c-.05.06-.16.18-.33.2-.11.01-.24-.02-.41-.14-.45-.32-.71-.98-.85-1.34l-.73-1.86,1.17,1.11.16-1.78,1.01.73.16.45Zm-4.95-2.8s-.03-.14-.05-.2c-.02-.08-.04-.17-.06-.25l-.11-.49.77-.24-.54-.52.76-1.41.5.57-.2.48.26-.41.46.53c-.05-.26-.02-.48.08-.66l.38-.65.57,1.17c.39.8.67,1.38.31,1.74l-.43.43-.07-.15.64,1.83-.68.12-.41-.4c-.23-.25-.81-.89-.82-1.74,0-.02-.01-.03-.02-.05-.04-.11-.07-.21-.1-.31-.13-.06-.28-.15-.46-.34l-.09-.08,1.45,3.46-.75-.26c-.32-.11-.67-.41-.94-.82-.28-.42-.45-.91-.48-1.35Zm3.42,10.23c.29-.15.75.31.96.66h0s.04.09.06.13c.06-.01.13,0,.2,0l-.06-.73-1.36-1.05.09-1.08.15.02-1.16-1.61.19-.15-1.82-2.1h.52c-.05-.14-.08-.28-.07-.42.03-.31.08-.59.14-.88l.07-.32.32.03c.14.04.47.23.71.64.07.12.21.39.28.66l.21.17v.62c0,.14-.01.24-.05.32.11.22.18.45.25.7l.04.12.28-.22.86,1.06-.16,1.54.92.33.11,1.42.63.29.15.6.27-.4,1.24,2.58h-.09s.43.4.43.4l-.06.07c.21.17.44.44.69.88l.47.84-1.53.46-.2-.67-.11-.08c-.1-.08-.23-.18-.36-.35l-.62.58-.11-1.58h0s-.05-.67-.05-.67c-.01-.02-.02-.04-.04-.06l-.25-.06c-.05-.01-.11-.03-.16-.04-.07,0-.14,0-.22,0l-.76-.02v-.05c-.06.04-.12.08-.19.08-.04,0-.09,0-.14,0l-.72-.14-.11-1.22c-.02-.24-.04-.47-.06-.7-.02-.3.06-.52.21-.59Zm1.74,8.37l-.9-.78-.17-.53c-.11-.33-.38-1.17.13-1.4,0,0,0-.02,0-.03.02-.08.05-.18.1-.27.09-.15.23-.2.32-.23.21-.06.49.12.76.48l.23.31c.07-.32.26-.43.58-.33l.82.24-.06.97c-.03.5-.06.9-.34.93-.09,0-.21-.02-.36-.09l-.75-.36v-.13s-.37,1.23-.37,1.23Zm-1.68-1.08l-.69-.92c-.3-.4-.51-.87-.57-1.29-.06-.43.04-.76.28-.91.01-.01.05-.07.07-.11.03-.05.05-.09.08-.14l.17-.26,1.13.9-.47,2.73Zm.42.29l1.53,3.83-.79-.34c-.16-.07-.57-.25-.88-.81-.32-.6-.22-1.08-.16-1.33l.3-1.34Zm-9.42-28.47l.3-.08s.18,0,.39.17c.11.09.22.19.33.29l.78.67-.19.61c-.06.24-.16.33-.28.34-.13.01-.27-.07-.34-.13-.14-.11-.28-.23-.43-.35l-.68-.57.12-.96Zm2.88,10.07l.07.24c.02-.05.06-.1.1-.13.14-.08.29-.11.45-.09.15.02.46.15.78.82.32.66.16.9.08.97-.08.06-.17.1-.28.13l-.57.2.05.17-.84-.46c-.42-.21-.69-.55-.8-.99-.05-.21-.07-.39-.09-.54l-.09-.75,1.13.42Zm-.29,2.44c.09.44-.1.58-.18.64l-.43.46-.6-1.17c-.06-.13-.14-.28-.2-.46-.05-.15-.08-.3-.11-.45l-.24-1.07.73.46c.14.07.43.21.67.64.17.3.3.64.36.94Zm-7.47-13.18c-.01-.24.01-.44.07-.59.07-.19.26-.33.76.08l.45.38.12.63c.01.14,0,.28,0,.44l-.04.9-.77-.75c-.37-.35-.57-.71-.59-1.08Zm3.98,9.51c-.04-.18-.1-.49.03-.68.37-.54,1.03.16,1.24.39l.11.11,1.27,1.26-1.23.08c-.13.01-.24.02-.36.01-.14,0-.28-.09-.37-.14l-.54-.32-.15-.72Zm5.21,7.64l-.57,1.67-3.58-4.62,4.16,2.95Zm-10.93-15.97h.1s1.12,0,1.12,0l-.3,1.5c-.03.15-.05.28-.09.4-.05.16-.13.22-.18.26l-.34.25-.48-.65c-.12-.16-.33-.45-.41-.82-.22-1.04.38-.98.58-.95Zm4.93,10.6l.06.17c.06.18.13.36.18.54.08.28.06.52-.05.71l-.16.28-.81-.59-.2-.57c-.06-.22-.11-.43-.16-.64l-.24-1.03,1.12.51.26.62Zm-7.61-10.05h0c-.16-.63.21-.67.39-.68.05,0,.1,0,.14-.02l.39-.07-.62-.52-.09-.53c-.06-.26-.17-.72.07-.88h0s0,0,0,0c.14-.09.3-.07.43-.06h.49s.69,1.39.69,1.39l-.37.46-.04.03h.05s-.2,3.89-.2,3.89l-1.04-2.29c-.1-.23-.21-.46-.28-.73Zm2.49,6.07c-.03-.38.06-.72.38-.78l-.27-.34.62-.68.57.53c.13.13.25.27.37.41.06.07.1.15.15.23l.61.27.3,1.36-.37.06h-.95s-.3,1.07-.3,1.07l-.69-1.17c-.15-.23-.39-.58-.42-.97Zm3.23,5.37l-2.23-1.39v-.72c-.02-.41.07-.61.29-.6.48,0,.97.49,1.33,1.3l.61,1.41Zm-8.75-13.87c-.05-.23-.08-.45-.1-.7l-.1-.78h.34c.46.03.89.45,1.28,1.29.03.07.08.16.1.2l1.11,1.79-1.14-.65.06.19-.87.18-.35-.74c-.12-.22-.26-.48-.32-.77Zm2.68,6.63l.06-.07c-.07-.2-.11-.43-.02-.6h0c.07-.13.15-.23.24-.33l.36-.41.95,1.27-.38,1.49.58,1.57-.9-.55c-.18-.09-.46-.22-.7-.62h0c-.34-.56-.56-1.3-.18-1.74Zm-9.3-14.01l.3-.32c.08-.19.24-.27.45-.22l.04-.69.72.81c.18.2.31.4.42.61l.24.17-.11.16c.06.22.08.44.07.66l.7,1.56-1.43-1.11c-.06-.04-.12-.09-.18-.14l-.54.52-.36-1.52s-.02-.1-.03-.14l-.28-.37Zm2.1,3.56l.5,1.1c.24.46.3.79.19,1-.06.12-.14.19-.2.25l-.4.41-1.03-1.7.95-1.05Zm-3.82-3.91c.22-.11.45-.03.69.23.2.21.39.45.57.69.18.23.32.53.39.82.07.33-.01.48-.06.56l-.29.62-1.91-2.75.6-.16Zm3.66,10.85c.09-.32.29-.41.57-.32,0,0,0-.01,0-.02.04-.18.11-.31.17-.42l.13-.26-.35-1.28,1.03.97c.39.36.62.77.77,1.1.21.11.39.33.52.52,0-.15.02-.27.03-.35.01-.06.02-.12.03-.18l.06-.53-.49.11-.35-.51c-.17-.23-.48-.62-.51-1.07-.02-.26.04-.43.08-.55l.14-.54,1.1.85.11.97v-.08s2.36,4.75,2.36,4.75l-1.64-1.44-.15.96-.64-.54.17,1.08-1.1-.26-.1-.3-.54-.33c-.17-.12-.36-.26-.55-.51-.15-.21-.3-.43-.45-.68l-.5-.78.1-.38Zm2.91,4.27c.08-.23.26-.7.9-.42l1,.43-.38,1.1c-.06.19-.12.35-.19.5-.06.11-.14.15-.22.15-.11.01-.23-.03-.29-.06l-.64-.15-.16-.89c-.03-.14-.09-.41-.02-.61h0s.49.53.49.53h0s-.47-.58-.47-.58Zm-6.55-.5c-.04-.19-.06-.36-.08-.56l-.12-1.02,1.02.73v-.03s.15-.05.15-.05l-.04-.25.22.19.1-.03c.1-.04.33-.14.67.19.18.18.31.38.41.54l.86,1.29-.69-.03.13.89-1.32-.77-.02-.1c-.03.07-.09.14-.2.15-.1.01-.25-.03-.45-.19-.44-.34-.59-.74-.63-.95Zm-8.14-5.03l1.6.95.02.73c.03.47-.11.59-.25.61-.07,0-.15-.02-.2-.04-.12-.06-.25-.13-.38-.2l-.66-.38-.12-1.67Zm-2.26,11.53l.9-.21.32,1.24s.02.09.03.13c-.02-.19-.02-.34-.01-.43,0-.06,0-.14,0-.17l-.26-1.68,1.12,1.59c.43.62.95,1.51.47,2.19l-.24.34-.47-.54c-.33-.38-.48-.73-.56-1.02,0,.05.02.11.02.16h0c0,.16-.03.41-.3.43-.04,0-.08,0-.13,0l-.33-.04-.35-.49c-.12-.19-.2-.37-.27-.52l-.37-.79.41-.2Zm6.87,4.27c.02.38-.17.49-.28.54l-.41.35-.51-.89-1-1.95.73.13s.06,0,.08.01l.5-.54.47,1.13c.25.39.39.89.41,1.22Zm4.39.2l.02,1,.19.31c.18.06.42.19.64.55.21.33.29.65.36.88,0,.03.02.07.03.1l.1-.04.42.89c.12.24.33.67.25,1-.05.21-.16.3-.24.36l-.27.27-.73-.72-.2-.58c-.05-.19-.1-.43-.08-.64-.11-.06-.26-.15-.41-.28v.5s-2.25-3.65-2.25-3.65h.44s-.14-.4-.14-.4l.53.13-.53-.14s-.02-.06-.03-.1l-.52-.06.28-2.72.59.89.22-.3.58,1.78c.1.29.18.55.25.8.01.05.01.09.02.13h.49Zm1.86,9.02c-.05.06-.13.12-.21.18l-.42.33-1.04-1.75.99-.71.48.79c.48.82.27,1.1.2,1.16Zm-2.21-4.67c.26.23.48.54.61.86.13.32.17.64.12.89-.05.24-.2.38-.4.4-.09,0-.19,0-.3-.04-.35-.12-.73-.48-1-.93-.02,0-.04,0-.06-.02l-1.3-.33,1.05-2,1.29,1.16Zm-2.19-2.75c-.02.23-.11.35-.18.43l-.23.37-.61-.62-.37-.41-.03-1.42.77.07.3.55c.14.23.39.64.36,1.03Zm2.97,12.82c.14.17.28.35.41.57.17.27.24.52.29.69l.4,1.14-.81-.39c-.19-.09-.37-.17-.57-.38-.19-.19-.33-.4-.44-.57l-.47-.67.4-1.42.78,1.02Zm-4.77-6.52c-.39-.34-.78-.73-.98-1.29-.21-.58-.03-.92.06-1.1l.41-.81,1.82,4.37-1.32-1.17Zm-1.31-7.64l.39.92-1.81-.22-.06-.61-.63-.53.12-.67c.02-.15.06-.42.3-.45.23-.03.43.15.57.26.03.02.06.05.1.08l.82.59-.05.12c.13.21.21.41.25.52Zm-.03,11.14l-.02-.06-.43.17-.45.12-.86-1.89.56-.08c.11-.02.23-.04.35-.04h0c.05,0,.22,0,.42.2l-.07-.23,1.57.38.5,1.78-1.56-.36Zm4.63,9.24l.96,4.98-1.24-1.83c-.81-1.19-.9-1.7-.42-2.29l.7-.86Zm-7.36-16.25l.27-.47.93,1.19.49.69-.69.87-.57-.8c-.11-.16-.22-.31-.32-.48h0c-.16-.27-.3-.67-.1-1.01Zm-2.98-2.55l.38-.74s.04-.09.05-.12c.05-.13.12-.3.3-.34.26-.06.57.26.69.39l.67.6-.18.63c-.05.17-.09.34-.22.43h0s-.08.04-.12.04c-.18.02-.38-.13-.5-.21-.04-.03-.08-.06-.13-.09l-.94-.59Zm9.17,22.03c-.15.03-.41.08-.75-.29-.18-.21-.32-.43-.44-.61l-.46-.7.33-.81.52.39c.12.08.27.19.43.35.25.24.38.54.45.68l.5.95-.6.04Zm4.17,7.1l-.58-1.43.46-.3c.15-.03.3-.06.46-.07.24-.01.51.22.8.7l.07.11.76,1.17-1.96-.19Zm-.48-5.35c.04.21.09.42.11.62.04.37-.13.48-.21.53l-.23.23c.05.09.09.18.13.27.15.41.13.91-.13,1-.08.03-.17.05-.27.05-.04,0-.08,0-.12,0h-.12s-.61.08-.61.08l-.26-1c-.13-.51-.01-.9.13-1.08.14-.18.34-.21.58-.09,0,0,0,0,.01,0l-.02-.04c-.11-.19-.33-.56-.33-.92,0-.22.03-.39.06-.54l.12-.74,1.02.95.13.65Zm-2.72-6.72l-.47-1.89-.28-.29.13-.5c-.11-.14-.23-.31-.32-.53-.09-.22-.19-.55-.11-.89l.12-.53.54.49c.36.33.99.89,1.16,1.78.07.38,0,.61-.07.78l.71,1.96-1.4-.37Zm6.52,10.22l-1.04-.02.51-2.92.76,1.27c.09.15.18.31.26.47.05.08.11.2.15.28.04,0,.09.01.13.02.09,0,.19.02.28.04l.35.09.66,1.25-.32.33-1.07.5-.68-1.31Zm3.49,5.18h0c.1.32.21.96-.07,1.14-.04.02-.08.04-.12.04-.2.02-.43-.14-.56-.23l-.08-.05-.81-.46.18-.8.05-.54-.18-.1.21-.25.1-1.16.35.63.78-.91,1.33,3.16-1.24-.66c.03.06.06.12.08.18Zm6.58,9.39l.3,1.04-.77-.46c-.75-.44-1.32-1.26-1.4-1.98l-.09-.88.81.65c.29.22.88.67,1.15,1.63Zm-.16-5.19h0c-.06.02-.12.03-.17.04-.17.04-.3.06-.45.08l.14.3.48,1.28-.45.08-.67.02-.35-.92s-.03-.1-.05-.15c-.06.04-.11.06-.15.08l-1.5.57.49-1.69c-.21-.21-.46-.54-.57-1l-.22.74-.18.48-1.51-1.62.3-.49c.06-.14.16-.38.46-.29.2.06.38.22.5.33l.2.16.29-.06v-.05s.08.03.08.03l1.17-.24c-.03-.06-.05-.12-.07-.18l-.42-.28.16-1-.23.31-.87-1.23v-.47c0-.12,0-.27.03-.42.04-.19.14-.26.2-.3l.51-.38.47,1.07c.05.1.12.25.16.42.02-.01.03-.02.04-.03.02-.01.03-.02.05-.03l.25-.25.23.26.05-.52,1.38,2.11.04,1.1-.4-.23c.02.06.05.12.06.17l.32.11.3.76s.02.08.04.12c.07.22.17.55.13.83h0s0,0,0,0c-.03.21-.14.31-.26.35h0Zm-7.82-15.64c-.04-.07-.08-.17-.11-.2l-1.09-1.62,1.28.55c.49.21,1.18.65,1.46,1.96l.14.66-.46-.09c-.32-.06-.58-.28-.78-.53.03.05.07.1.1.16.11.2.28.59.15.97l-.11.33-.4-.16c-.15-.09-.29-.2-.39-.29l-.57-.47.03-1.08.09-.87.84,1.05s.06.08.09.11c-.12-.19-.21-.37-.26-.48Zm8.49,15.85l.57.43-.57-.47c.02-.73.32-.93.89-.59h.02s-.16-.41-.16-.41l1.16.87c.23.16.71.49.83,1.11.08.4.06.78-.04,1.08l-.4,1.14-.82-2.23c-.03.12-.07.22-.16.29-.05.04-.11.06-.18.07-.14.01-.31-.04-.51-.16l-.65-.39.02-.74Zm2.84,6.94l.21-2.91,2.07,3.05-2.28-.14Zm1.18-2.38l-.43-.83.78-.3.43-.1.84,1.72-.4.16c-.15.06-.25.1-.36.12,0,0-.02,0-.04,0-.13.01-.44-.05-.82-.77Zm3.57,3.93c-.05.05-.1.11-.2.13-.08.02-.16.04-.24.05-.07,0-.15,0-.23-.01-.15-.03-.46-.14-.76-.47-.34-.37-.45-.84-.5-1.06-.08-.35-.04-.63.11-.76.06-.06.14-.1.22-.14l.48-.29.52,1,1.6.65-.99.92Zm-1.68-5.24c-.32-.35-.45-.83-.46-1.13h0c0-.38.22-.51.58-.35.09.04.18.09.31.15l.18.09-.18-1.03c-.04-.22-.09-.46-.03-.67.06-.23.21-.34.41-.31.36.05.75.51.88.66l.72.86-.57.4c-.08.06-.14.11-.22.13-.03.01-.06.02-.09.02-.07,0-.14,0-.19,0l-.67-.03.83.42,1.06-.75-1.02,2.97.4.72-.45.16c-.06.03-.12.04-.17.05-.3.03-.54-.24-.66-.42-.14-.2-.28-.42-.38-.59l-.55-.87.45-.32c-.06-.06-.11-.12-.15-.16Zm2.36-4.44l-.62,1.16-1.26-1.6h-.26s-.27-.74-.27-.74c-.12-.03-.25-.1-.41-.24-.16-.15-.39-.42-.57-.89l-.29-.74.44-.05c.3-.04.82-.1,1.4.71.25.34.37.7.45.96l1.39,1.44Zm3.44,13.27l-.32.36-.49-.75c-.05-.08-.1-.16-.15-.24-.04-.07-.11-.18-.14-.21-.11-.13-.23-.24-.34-.35l-1.07-1.04.21-.61c.05-.13.1-.23.18-.3.07-.06.15-.11.25-.17l1.01-.59.1,1.35c.34.23.56.62.67.89.43.97.28,1.43.09,1.66Zm-.17-2.59c-.03-.16-.06-.29-.07-.43,0-.05,0-.09,0-.14l-.82-1.12.75-1,.56.93.61.24.17,1.06c.05.3.1.61.13.9.04.43-.2.5-.31.54l-.73.42-.28-1.4Zm2.71,2.31c.05.54-.27.68-.37.73l-.2.09-.94-.8.2-2.32.78,1.11c.31.44.49.85.52,1.2Zm-3.65-6.17c-.93-.43-1.28-.93-1.5-2.13l-.32-1.77,3.28,4.57-1.45-.68Zm3.4,2.29c0,.18-.04.34-.07.51l-.16.91-.68-.85c-.34-.43-.55-1.01-.62-1.37-.07-.36-.03-.63.11-.75.18-.16.54-.04.84.27.29.29.58.88.57,1.28Zm-6.23-12.95l.08-.19.85.13.69,2.26-.84-.13-.24-.3c-.51-.63-.72-1.33-.53-1.77Zm3.65,6.91c-.36-.43-.5-1.08-.38-1.36.12-.25.39-.23.6-.14.37.18.59.65.66.8l-.16.07s.01.01.02.02l.16-.05c.06.12.12.25.2.41l1.32,2.76-1.96-2.01c-.17-.18-.32-.33-.46-.49Zm4.44,8.2l-1.17-1.1.09-.73c.02-.2.05-.4.09-.58.06-.28.28-.32.64-.1l.09.05.92.47-.66,1.99Zm-5.91-15.15l1.8.04.5,1.31-.09.23c-.06.14-.15.39-.38.42-.05,0-.11,0-.18-.02-.37-.11-.69-.59-.87-.85l-.78-1.14Zm5.72,9.31l-.3,1.14-1.63-3.88.98.59c.12.07.24.16.36.24.06.04.15.1.21.14.02-.04.03-.09.05-.13.03-.1.06-.19.1-.27l.15-.3,1.05.75v2.45s-.97-.72-.97-.72Zm5.27,1.8c.22.3.52.74.61,1.24.09.52-.1.79-.32,1.01l-.88.86-.09-1.1s-.09.06-.12.08l-.05.03-.51.39-.46-1.21-.19-.39-.6-.27.83,2.23-1.26-.25-.74-2.18.97.11h0s-.4-1.66-.4-1.66l.26.06-.03-.06.13.09,1.11.24.11.57c.13.08.29.18.47.39.1.11.24.31.37.53l-.17-1.96.95,1.27Zm-4.72-13.78c.1.23.2.47.22.73.05.45.08.85.08,1.24,0,.26-.04.61-.3.69-.02,0-.05.01-.07.02-.28.03-.62-.25-.77-.37l-.62-.51.68-3.94.78,2.15Zm-3.71-2.83s0,0,0,0c.23.12.45.31.62.47.05.05.1.09.15.13l.64.54-.15.63c-.01.05-.02.12-.03.19-.04.31-.1.77-.52.64-.15-.05-.22-.04-.26.49l-.06.71-.63-.61c-.19-.19-.51-.5-.67-.98-.15-.49,0-.75.06-.83.06-.1.06-.14.06-.15,0-.01-.02-.03-.03-.05-.53.61-1.15,1.09-1.87,1.43l.32.73-.88.32-.38-.69c-.33.09-.68.16-1.04.2-.24.02-.49.01-.74.01.01.05.04.11.05.16l.1.48-.28.17c-.12.04-.25.07-.4.09-.2.02-.43,0-.68-.11-.29-.13-.58-.44-.8-.85-.03-.06-.06-.13-.09-.19-.4-.1-.8-.22-1.2-.37.16.75.04,1.42-.35,1.71l-1.3.97.37.44-.65,1.36-.04-.04-.02.68-.05.64-1.38-1.17.1-.7c.02-.16.04-.31.07-.46.01-.07.06-.24.24-.24l-.16-.19.67-1.33.83.99.31-2.19c.03-.19.02-.41.02-.64,0-.06,0-.12,0-.19l-.2.7-.85-.8-.18-.51-.05-.21-1.06.15s-.07,0-.11.01c-.29.03-.59,0-.94-.37-.41-.43-.57-1.01-.65-1.32l-.21-.77c-.98-.84-1.95-1.79-2.89-2.84l-.17.48-.63-1.02c-.19-.31-.32-.6-.38-.86-1.91-2.37-3.63-5.14-5.02-8.14,0,.03.01.06.02.09l.08.61.68,1.46-.54.02-.22-.57v.02s.18.55.18.55h-.2s-.15-.12-.15-.12l-.13.35,1.17,1.95-.73.62-.59-.93c-.09-.15-.18-.3-.28-.44h0c-.05-.08-.1-.15-.16-.22-.12-.16-.23-.32-.34-.49-.13-.22-.25-.44-.37-.66l-.21-.38c-.13-.13-.25-.27-.36-.4l-.46-.57.18-.54c.04-.12.08-.27.16-.39.13-.2.34-.12.53.02.09-.06.21-.1.36-.06l.05-.18.14.19h.05s-.04-.05-.07-.08c-.19-.21-.31-.45-.38-.59l-.66-1.15.77.08c.14,0,.35,0,.63.27.14.14.26.27.37.41-.02-.04-.04-.08-.06-.13-.5-1.18-.9-2.34-1.25-3.48-.02-.03-.05-.06-.07-.09-.3-.43-.29-.8-.29-.97,0-.04,0-.09,0-.14v-.14c-.83-3.19-1.05-6.12-.69-8.53-.07.05-.14.08-.21.1l-.08.03-.88.39-.11-1.67c-.01-.14-.02-.27-.02-.39,0-.11,0-.21.02-.31l.05-.55-.34.16s-.1.04-.15.04c-.21.02-.4-.11-.54-.23-.37-.33-.55-.84-.69-1.27l-.49-.87c-.11-.18-.19-.33-.26-.48-.08-.17-.16-.33-.24-.5l-.36-.15-.13-.9s0-.1-.01-.16c0-.06-.01-.13-.02-.2l-1.31-1.51c.13.18.25.38.31.55.09.25.15.47.19.67l.51,1.89-.3.1s-.07.02-.1.02c-.11.01-.23-.02-.35-.08l-.34.17s.04.01.06.02c.2.08.4.24.53.37.11.1.4.42.48.96l.08.49-.31.09c-.09.01-.26.04-.49-.11-.04.08-.07.14-.11.21l-.03.04c.31.31.53.75.72,1.2l.25.58-.26.21c-.06.05-.14.12-.27.13-.1.01-.23-.02-.38-.12-.37-.26-.57-.68-.89-1.37l-.35-.76h0s-1.13-1.04-1.13-1.04l.34-.67c.04-.07.07-.13.11-.2l-.39-.29.17-.78-.32-.26c-.12.04-.28,0-.49-.17-.23-.18-.44-.47-.61-.85l-.12-.27s-.06,0-.09,0h0c-.36-.12-.67-.42-.91-.89l-.05.04-.12,1.17-.86-.83-.13-.25-.38-.05.14,1.86-1.21-.67-.11-.93c-.02-.15-.03-.29-.05-.44-.01-.08-.03-.16-.04-.24-.04-.18-.07-.35-.08-.52-.02-.21-.02-.41-.02-.61v-.34c-.07-.18-.13-.36-.17-.52l-.17-.67.53.05c.09,0,.18.03.27.05,0,0-.01-.02-.02-.03-.13-.18-.22-.35-.29-.48l-.54-.94.22-.08c-.1-.23-.14-.42-.15-.47l-.07-.35.16-.17c.13-.12.39-.16.69.09.45.37.87.97,1.14,1.62l.48.55h-.13s.63.69.63.69c.16.16.4.4.56.79.06.15.09.27.12.39l.2.21s.03.03.04.05c0-.07.02-.14.03-.2.01-.07.02-.14.03-.21l.08-.74,1.6,1.73.11.33c.1.32.16.61.16.86.04.04.07.09.11.14l.14-.56c.03-.08.06-.16.09-.23.01-.03.03-.05.05-.07,0-.35.13-.65.68-.48l-.23-.43s0-.01,0-.02v.05s-.61-.28-.61-.28c-.11-.04-.26-.11-.43-.23-.33-.24-.48-.63-.55-.84-.03-.04-.06-.08-.09-.12l-1.09-1.57.39.15c-.07-.44.15-.54.26-.59.02-.01.05-.02.08-.04l.58-.35.43,1.36c.02.05.03.1.05.15l.86.33s.03-.04.05-.04c.16-.06.35,0,.54.16h0c.12.11.24.24.34.4l.69-.19.65,1.25-.12.82c.22.3.31.64.36.83.02.06.03.13.06.21l.13.43c.12-.1.25-.17.38-.22.05-.02.11-.04.16-.07l.31-.16.06.09.03-.59,1.35,1.32-.52,2.24c.06.19.11.39.12.6l1.13,1.82.67.63c.14.13.35.33.52.66.06.12.12.29.17.47.38-1.74,1.08-3.17,2.09-4.18-.07-.12-.13-.24-.17-.34-.1-.24-.16-.47-.21-.66l-.12-.44-.87-1.05.87-.07c.33-.03.64.17.88.39.19-.16.51.01.67.1.1.02.14.03.18.04l.6.21.25.5c.46-.16.93-.29,1.45-.35,2.18-.22,4.64.6,7.11,2.19l.09-.04c.22-.15.44-.09.69.15.25.25.43.53.56.82,2.31,1.74,4.58,4.12,6.59,6.95-.06-.38.06-.65.19-.75.13-.1.28-.1.39-.09l.56-.03.53,1.37-.12.26.12.29.14.19.08-.39,1.06.91.27,1.88c.2.12.48.3.7.72h0s0,0,0,0c.21.4.47,1.12-.08,1.43l-.15.08-.32-.17c.24.5.47,1.01.69,1.53.13-.01.26-.02.39-.03h.27s.35.36.35.36c.02.02.39.5.42.98,0,.12,0,.35-.09.5l.12.25-.37.19s-.09.05-.14.06c-.01,0-.03,0-.04,0,2.22,6.2,2.28,11.7.46,15Zm9.05,2.69l.23,2.62-1.26-2.88c-.11-.25-.24-.49-.38-.75-.04-.07-.08-.14-.11-.21l.36,1.01-.78.06-1.7-2.19,1.45-.38-.45-1.2,1.16.98c.76.64,1.39,1.9,1.48,2.93Zm-2.81-6.99l-.34-1.19c-.13-.45-.26-.89-.37-1.33-.11-.42.04-.62.11-.71l.3-.64-.36-.81c-.03-.07-.06-.13-.09-.19-.1-.2-.24-.49-.27-.8-.02-.24.02-.41.06-.54l.02-.1.17-.98.74,1.22c.1.14.26.38.34.66l.06-.68.95.76.15.36c.27.64.33,1.36-.24,1.55l.16,2.66-1.08-2.32v.2s.11.25.11.25c.06.13.17.36.22.61.08.41.15.81.22,1.21l.2,1.13-1.1-.32Zm3.3,3.89c-.06.07-.14.11-.23.12-.14.01-.32-.05-.51-.18-.36-.25-.71-.72-.9-1.18-.39-.99-.33-1.78.14-1.84.37,0,1.13.5,1.46.95l.32.43.02.51c-.02.44-.08.92-.31,1.19Zm4.49-1.17s.01.06,0,.11c-.08.31-.21.47-.4.49-.15.02-.34-.06-.57-.24l-.39-.3c-.04.27-.18.36-.44.39-.1.01-.23.01-.37,0l.94,1.08-.29.76h-.27c-.21-.06-.41-.2-.59-.37.08.14.15.3.25.51l.85,1.82-1.12-.72s-.1-.06-.14-.08c-.18-.1-.52-.28-.75-.78-.14-.29-.2-.56-.25-.76l-.31-1.15.74.42c.07.03.18.08.31.18-.08-.15-.15-.32-.2-.49l-.1-.32.21-.52-.51-1.01.39-.25.93-.27-.36-.16.53-1.97.93.92.12.37c.04.12.09.29.12.46.05.03.09.04.14.08.11.1.21.21.34.36l1.22,1.38-.96.05Zm-.7-8.74c-.02.44-.32.51-.45.55l-.48.12-.97-2.31-.35.8-.56-1.9c-.15-.51-.15-.88-.03-1.12l-.3-.72.5.51c.06-.03.11-.07.18-.08l.25-.04.95,1.08-.13.31c.09.09.19.21.29.37.28.46.54.87.77,1.32.15.3.36.74.34,1.12Z"/>
    </g>
  </g>
</svg>