<?xml version="1.0" encoding="UTF-8"?>
<svg id="Layer_1" data-name="Layer 1" xmlns="http://www.w3.org/2000/svg" viewBox="0 0 650 470">
  <defs>
    <style>
      .cls-1 {
        stroke-dasharray: 0 0 11.38 11.38;
      }

      .cls-1, .cls-2, .cls-3 {
        fill: none;
        stroke: #fff;
        stroke-linecap: square;
        stroke-miterlimit: 10;
      }

      .cls-4 {
        fill: #fff;
        stroke-width: 0px;
      }

      .cls-2 {
        stroke-dasharray: 0 0 12.81 12.81;
      }
    </style>
  </defs>
  <line id="Line_252" data-name="Line 252" class="cls-3" x1="309.58" y1="324.22" x2="310.21" y2="318.25"/>
  <line id="Line_253" data-name="Line 253" class="cls-1" x1="311.39" y1="306.93" x2="332.11" y2="108.83"/>
  <line id="Line_254" data-name="Line 254" class="cls-3" x1="332.7" y1="103.17" x2="333.32" y2="97.2"/>
  <line id="Line_255" data-name="Line 255" class="cls-3" x1="151.05" y1="409.46" x2="147.61" y2="404.55"/>
  <line id="Line_256" data-name="Line 256" class="cls-2" x1="140.25" y1="394.06" x2="55.67" y2="273.53"/>
  <line id="Line_257" data-name="Line 257" class="cls-3" x1="51.99" y1="268.29" x2="48.54" y2="263.38"/>
  <g>
    <path id="Path_6432" data-name="Path 6432" class="cls-4" d="m327.71,355.13c-6.98-11.59-17.79-17.92-24.09-14.13l-140.36,84.53c-6.3,3.8-5.76,16.31,1.22,27.9s17.79,17.92,24.09,14.13l140.36-84.53c6.3-3.8,5.76-16.31-1.22-27.9m-162.28,97.74c-6.66-11.07-7.38-22.9-1.6-26.39s15.91,2.69,22.58,13.75,7.38,22.9,1.6,26.39-15.91-2.69-22.58-13.75m21.92-13.2c-5.67-9.42-13.87-15.37-20.13-15.23l136.97-82.49c5.79-3.48,15.91,2.69,22.58,13.75s7.38,22.9,1.6,26.39l-136.97,82.49c3.05-5.46,1.63-15.5-4.05-24.91"/>
    <path id="Path_6433" data-name="Path 6433" class="cls-4" d="m18.84,161.61c-14.37,1.2-18.71,20.07-9.66,42.07s28.09,38.92,42.47,37.72,18.71-20.07,9.66-42.07-28.09-38.92-42.47-37.72m-6.41,41.8c-4.94-12.03-5.32-22.99-1.84-29.78l.5-.04.03.06.78-.13.75-.06-.02-.06,9.17-1.49c2.72-.44,5.54-.9,8.69-.02,2.3.64,4.28,2.12,5.53,4.16.08.15.14.26.17.32-.2.01-.41-.01-.6-.07l-13.46-3.18.47,1.57c.91,3.08,2.92,5.61,4.86,8.05,1.58,1.76,2.86,3.75,3.81,5.91.44,1.08.42,2.29-.05,3.35-.4.83-1.39,1.2-2.23.83-.46-.16-.88-.44-1.21-.79-.82-.9-1.06-2.18-1.38-4.18-.19-1.48-.54-2.94-1.05-4.35-1.48-3.78-4.69-6.46-7.08-7.16-1.99-.59-4.14-.07-5.65,1.37-2.37,2-3.67,5.01-3.49,8.11.28,4.81,2.28,9.35,5.65,12.79l.65.63.48-.23c1.82-.88,2.39-2.39,1.7-4.48-.41-1.09-.98-2.1-1.7-3.01-.25-.34-.48-.66-.65-.96-.88-1.34-1-3.03-.33-4.48.73-1.17,2.14-1.51,3.52-1.77.53-.17,1.11-.1,1.58.19.5.52.87,1.15,1.08,1.84.33.86.58,1.74.85,2.68.44,1.75,1.08,3.45,1.89,5.06,1.13,2.17,2.83,3.98,4.93,5.25,2.29,1.31,4.52,1.41,5.84.26,1.32-1.16,1.95-3.32,1.88-6.14.11,1.05.3,2.08.57,3.1l.4,1.54,1.12.2c.21.04.42.07.62.09l-7.56,2.67c-.74.36-1.59.43-2.38.19-1.17-.69-2.2-1.59-3.05-2.66-.5-.54-1.01-1.09-1.55-1.61-1.5-1.46-3.28-2.34-4.42-2.17-.83.14-1.42.87-1.37,1.71-.2,2.42,1.93,5.34,3.81,7.1,1.11,1.05,2.32,1.99,3.6,2.81-1.33-.48-2.63-1.02-3.9-1.63l-.39-.19c-1.15-.66-2.42-1.09-3.74-1.26-1.44-.05-2.78.94-2.51,3.28.22,1.36.71,2.66,1.43,3.84,1.92,3.42,4.62,6.35,7.88,8.54,2.43,1.58,5.17,2.62,8.03,3.03,2.19.29,4.4.41,6.62.36,1.62,0,3.29,0,4.97.16,3.44.37,6.81,1.25,10,2.61-.96.78-2.42.81-3.97.77-6.35-.19-12.67-1.05-18.84-2.55l-1.58-.38,1.06,2.12c1.45,2.89,3.75,5.27,6.6,6.81,1.94.92,4.04,1.46,6.18,1.59,3.01.43,6.05.57,9.09.43,1.28-.09,2.54-.34,3.75-.74-2.03,1.88-4.65,3-7.41,3.18-12.58,1.05-29.25-13.76-37.17-33.01m23.37-23.14c-1.38.41-2.95.87-3.06,3.17.02,1.17.22,2.33.58,3.43l.12.45c.94,3.51,1.26,7.87-.66,9.55-.92.8-2.49.72-4.11-.21-1.32-.78-2.4-1.91-3.12-3.26-.62-1.27-1.11-2.61-1.45-3.99-.29-1-.59-2.04-1-3.1-.54-1.6-1.48-3.04-2.74-4.17-.73-.64-1.69-.96-2.66-.88-.2.02-.41.05-.61.09-1.61.3-3.27.72-4.23,2.26-1,1.6-1.03,4.84.84,7.93.3.49.63.95.91,1.35.36.44.66.93.89,1.45.18.55-.08,1.08-.74,1.52-2.02-2.43-3.19-5.45-3.35-8.61-.11-2.6,1.01-5.1,3.01-6.77,1.18-1.17,2.88-1.62,4.48-1.19,2.01.77,3.62,2.33,4.44,4.32.37,1.09.63,2.22.77,3.36.35,2.23.76,4.75,2.75,6.95.72.81,1.62,1.44,2.64,1.82,1.41.65,3.07.07,3.79-1.3.77-1.8.77-3.84.02-5.65-1.14-2.78-2.75-5.36-4.75-7.61-1.19-1.4-2.25-2.91-3.17-4.51l10.94,2.58c.47.14.96.16,1.44.03-.55.51-1.24.84-1.98.98m4.53.41c.05-.25.1-.5.12-.75,0-.26.07-.52.18-.76.04-.04.09-.07.15-.07.33-.03,1.05.42,2.03,1.27,1.21,1.05,1.34,1.47,1.36,1.54.04.23-.18.52-1.52.59-3.98.26-6.37,4.12-6.24,9.47-.16-1.41-.42-2.81-.8-4.18l-.13-.48c-.25-.74-.4-1.51-.44-2.29.06-1.17,1.06-1.47,2.22-1.81,1.25-.37,2.66-.79,3.07-2.54m20.96,45l-.07-.09c-.4.91-1.04,1.69-1.85,2.26-.17.09-.35.16-.54.22-.25.09-.48.19-.72.31-.38.22-.72.49-1.03.8-.33.38-.77.66-1.26.81l.07.15c-3.66,1.39-8.24.91-12.69.42-1.89-.1-3.74-.56-5.46-1.35-1.15-.61-2.19-1.43-3.06-2.4,5.63,1.25,11.37,1.96,17.14,2.13,1.87.04,3.81-.02,5.04-1.33.47-.57.64-1.33.46-2.04-.14-.66-.43-1.28-.85-1.8-.39-.5-.91-.89-1.49-1.13-3.57-1.6-7.37-2.63-11.26-3.06-1.75-.17-3.46-.17-5.11-.17-2.14.05-4.27-.06-6.39-.34-2.53-.36-4.95-1.26-7.1-2.65-2.59-1.72-4.74-4.03-6.28-6.74-.38-.61-.65-1.28-.79-1.98-.11-.64.32-1.24.95-1.35.11-.02.23-.02.34,0,1.05.17,2.06.52,2.97,1.05l.4.19c4.55,2.31,9.56,3.58,14.66,3.72h.09c.69-.08,1.4.07,2,.42.26.21.47.49.59.8-.02.06-.15.13-.63.13-4.56-.07-9.04-1.1-13.17-3.04-1.44-.63-5.25-2.32-5.63.92l-.13,1.1,1.02.9c3.38,2.98,6.54,3.42,9.6,3.85.5.07.99.14,1.49.22,1.28.21,2.62.53,3.93.84,1.99.53,4.02.9,6.07,1.1,2.81.18,6.45-.39,7.84-4.19.72-2.27.49-4.74-.63-6.84-1.13-2.38-3.12-4.25-5.57-5.22-1.48-.46-3.09-.3-4.45.44-.74.37-1.46.77-2.16,1.21-1.31.93-2.81,1.58-4.38,1.89-2.87.38-6.58-1.26-9.92-4.38-1.07-1-2.18-2.49-2.11-3.27-.01-.21.15-.4.37-.41h0c.95.1,1.83.56,2.47,1.28.44.43.89.91,1.36,1.42,1.29,1.39,2.75,2.96,4.34,3.61,1.11.43,2.35.39,3.44-.12l12.05-4.25c.9-.47,1.98-.49,2.9-.06.69.43,1.25,1.04,1.63,1.76.97,1.72,1.52,3.65,1.59,5.63,0,.94-.06,1.84-.14,2.8-.31,2.37-.17,4.79.43,7.11.37,1.43,1.05,2.76,2,3.9.64.8,1.53,1.36,2.53,1.58.98.17,1.95-.39,2.28-1.33.55-1.41.28-3.4.04-5.16l-.03-.18c-.59-4.25-.89-8.53-.91-12.82v-.55l-.35-.6c-.57-1.16-1.71-1.91-3-1.98-.1-.01-.2-.02-.29-.04-.64-.19-1.19-.59-1.58-1.13-.86-1.06-1.46-2.3-1.76-3.63-.29-2.05.03-4.13.92-6l.29-.74-.7-1.01c-.67-1.04-1.64-1.85-2.78-2.32-1.12-.53-2.46-.17-3.17.84-.58,1.12-.92,2.36-1,3.62-.08.56-.15,1.09-.26,1.58-.61,2.75-2.51,4.4-4.97,4.43-.89-5.48,1.1-9.76,4.94-9.94.99-.06,3.07-.18,2.56-2.8-.43-2.24-2.38-3.94-3.12-4.58-2.28-1.98-3.83-2.5-4.62-1.56-.11.14-.2.3-.27.47-.17-.62-.42-1.21-.75-1.77-1.69-3.04-4.5-5.3-7.84-6.28-3.5-.98-6.47-.5-9.34-.03l-7.39,1.2c2.08-2.1,4.85-3.36,7.8-3.55,12.58-1.05,29.25,13.76,37.17,33.01,4.13,10.04,5.06,19.33,3.24,26.07m-21.7-16.45c-.92-.65-2.03-.96-3.15-.9,1-.42,1.95-.93,2.86-1.52.67-.41,1.37-.83,2.07-1.17,1.05-.59,2.3-.74,3.46-.42,1.37.52,2.5,1.53,3.16,2.84.63,1.28.71,2.76.24,4.11-1.14,3.11-4.26,3.57-6.68,3.41h-.18c.38-.12.69-.41.83-.78.23-.86.13-1.77-.28-2.56-.5-1.19-1.3-2.23-2.33-3.01m-11.39,3.9c-1.54-.24-3.02-.75-4.38-1.5.97.1,1.92.38,2.79.83.53.24,1.06.46,1.59.67m23.1-12.78c.85,1.19,2.09,2.05,3.51,2.43.12.02.24.03.36.04h.09c.07,4.01.38,8,.93,11.96l.02.18c.3,1.28.32,2.62.06,3.91-.15.42-.58.67-1.02.6-.27-.04-.51-.18-.69-.39-.38-.5-.65-1.08-.79-1.7-.45-1.92-.55-3.9-.28-5.85.08-.98.15-1.98.14-3.05-.11-2.81-.91-5.54-2.32-7.97-.79-1.44-1.94-2.66-3.34-3.53-.77-.46-1.66-.67-2.56-.6-.36.03-.72.1-1.07.21.9-1.02,1.52-2.27,1.78-3.61.13-.57.21-1.17.29-1.75.06-1.02.32-2.02.77-2.93.38-.52,1.06-.71,1.65-.46l.09.03c-.79,2.03-.99,4.23-.58,6.37.49,2.24,1.5,4.33,2.97,6.1"/>
    <path id="Path_6434" data-name="Path 6434" class="cls-4" d="m320.73,29.98c-13.13-21.8-33.45-33.72-45.31-26.57L11.41,162.4c-11.86,7.14-10.83,30.68,2.3,52.48,13.13,21.79,33.45,33.72,45.31,26.57L323.03,82.46c11.86-7.14,10.83-30.68-2.3-52.48M15.48,213.82c-12.54-20.82-13.88-43.08-3-49.63,10.88-6.55,29.93,5.05,42.47,25.87s13.88,43.08,3,49.63-29.93-5.05-42.46-25.87m41.24-24.84c-10.67-17.71-26.09-28.91-37.86-28.64L276.48,5.18c10.88-6.55,29.93,5.05,42.46,25.87,12.53,20.81,13.89,43.08,3,49.64L64.33,235.84c5.74-10.28,3.06-29.15-7.61-46.86"/>
    <path id="Path_6435" data-name="Path 6435" class="cls-4" d="m641.23,164.75c-6.98-11.59-17.79-17.92-24.09-14.13l-238.74,143.78c-6.3,3.8-5.76,16.31,1.22,27.9s17.79,17.93,24.09,14.13l238.73-143.78c6.3-3.8,5.76-16.31-1.22-27.9m-260.66,156.99c-6.67-11.07-7.38-22.9-1.6-26.39s15.91,2.68,22.58,13.75,7.38,22.9,1.6,26.39-15.91-2.68-22.58-13.75m21.93-13.21c-5.67-9.42-13.87-15.37-20.13-15.23l235.34-141.74c5.78-3.48,15.91,2.68,22.58,13.75s7.38,22.9,1.6,26.39l-235.34,141.74c3.05-5.46,1.63-15.5-4.05-24.92"/>
  </g>
</svg>