<?xml version="1.0" encoding="UTF-8"?>
<svg id="Layer_1" data-name="Layer 1" xmlns="http://www.w3.org/2000/svg" viewBox="0 0 650 470">
  <defs>
    <style>
      .cls-1 {
        stroke-dasharray: 0 0 11.38 11.38;
      }

      .cls-1, .cls-2, .cls-3, .cls-4 {
        fill: none;
        stroke: #fff;
        stroke-linecap: square;
        stroke-miterlimit: 10;
      }

      .cls-5, .cls-6 {
        fill: #fff;
        stroke-width: 0px;
      }

      .cls-2 {
        stroke-dasharray: 0 0 12.8 12.8;
      }

      .cls-6 {
        opacity: .3;
      }

      .cls-4 {
        stroke-width: 5px;
      }
    </style>
  </defs>
  <g>
    <line class="cls-3" x1="307.19" y1="323.74" x2="307.98" y2="317.8"/>
    <line class="cls-1" x1="309.48" y1="306.52" x2="335.78" y2="109.08"/>
    <line class="cls-3" x1="336.53" y1="103.44" x2="337.32" y2="97.49"/>
  </g>
  <g>
    <line class="cls-3" x1="146.32" y1="404.48" x2="143.01" y2="399.48"/>
    <line class="cls-2" x1="135.96" y1="388.79" x2="54.8" y2="265.92"/>
    <line class="cls-3" x1="51.28" y1="260.58" x2="47.97" y2="255.57"/>
  </g>
  <path class="cls-5" d="m324.44,355.16c-6.65-11.78-17.27-18.42-23.68-14.8l-142.69,80.54c-6.41,3.62-6.21,16.14.43,27.92,6.65,11.78,17.27,18.42,23.68,14.8l142.69-80.54c6.41-3.62,6.21-16.14-.43-27.92Zm-164.97,93.12c-6.35-11.25-6.73-23.1-.85-26.42,5.88-3.32,15.83,3.13,22.18,14.38,6.35,11.25,6.73,23.1.85,26.42-5.88,3.32-15.83-3.13-22.18-14.38Zm22.29-12.58c-5.4-9.57-13.43-15.75-19.69-15.79l139.24-78.6c5.88-3.32,15.83,3.13,22.18,14.38,6.35,11.25,6.73,23.1.85,26.42l-139.24,78.6c3.2-5.38,2.06-15.44-3.34-25.02Z"/>
  <path class="cls-6" d="m643.21,173.69c-6.65-11.78-17.27-18.42-23.68-14.8l-242.69,136.99c-6.41,3.62-6.21,16.14.43,27.92,6.65,11.78,17.27,18.42,23.68,14.8l242.69-136.99c6.41-3.62,6.21-16.14-.43-27.92Zm-264.98,149.58c-6.35-11.25-6.73-23.1-.85-26.42,5.88-3.32,15.83,3.13,22.18,14.38,6.35,11.25,6.73,23.1.85,26.42-5.88,3.32-15.83-3.13-22.18-14.38Zm22.29-12.58c-5.4-9.57-13.43-15.75-19.69-15.79l239.24-135.05c5.88-3.32,15.83,3.13,22.18,14.38,6.35,11.25,6.73,23.1.85,26.42l-239.24,135.05c3.2-5.38,2.06-15.44-3.34-25.02Z"/>
  <g>
    <path class="cls-5" d="m325.5,29.66c-12.6-22.11-32.63-34.51-44.66-27.66L13.08,154.59c-12.03,6.85-11.56,30.41,1.03,52.52,12.6,22.11,32.63,34.51,44.66,27.66L326.54,82.18c12.03-6.85,11.56-30.41-1.03-52.52ZM15.92,206.08c-12.03-21.11-12.84-43.4-1.81-49.69,11.03-6.29,29.8,5.77,41.83,26.89,12.03,21.11,12.84,43.4,1.81,49.69-11.04,6.29-29.8-5.77-41.83-26.88Zm41.82-23.83c-10.24-17.97-25.39-29.53-37.16-29.55L281.87,3.8c11.04-6.29,29.8,5.77,41.83,26.88,12.03,21.11,12.84,43.4,1.81,49.69L64.22,229.28c5.98-10.14,3.76-29.07-6.48-47.03Z"/>
    <g>
      <ellipse class="cls-4" cx="36.49" cy="195.06" rx="26.28" ry="42.25" transform="translate(-87.72 40.3) rotate(-28.16)"/>
      <path class="cls-5" d="m67.15,208.91h.2c-.09-1.88-.3-3.83-.63-5.83l-.58-.53.24-1.37s0-.04-.01-.06c-.7-3.46-1.72-6.87-3.01-10.18l-.88-.98c-.05-.05-.09-.1-.13-.14-.14-.14-.36-.36-.49-.7-.11-.27-.14-.5-.17-.69l-.28-1.44.45.35c-1.34-2.91-2.89-5.72-4.59-8.36h-.04s-.29,1.95-.29,1.95l-.48-1.18-.02.08-.39-1.04s-.08,0-.12,0c-.08-.01-.18-.05-.28-.13-.02-.01-.03-.03-.04-.04-.01,0-.02.02-.03.03-.05.06-.1.12-.15.18l-.54.66-.02-.05c-.03.15-.09.29-.19.38l-.55.48-.55-1.34c-.1-.25-.21-.5-.3-.75-.13-.33-.16-.66-.08-.89.14-.44.63-.31.92-.09h0s.06.07.09.1c.04-.07.09-.12.14-.17l-.33-.8h-.85s-.4.34-.4.34c-.07.06-.24.2-.51.16-.07-.01-.15-.04-.24-.09-.41-.22-.67-.72-.88-1.16l-.21-.43.38-.9.62.51.45.48-.07-.25.27-.29,1.07-.61.44,1.09-.04-.79c-1.11-1.43-2.26-2.8-3.45-4.1-.17.52-.82.66-1.33.6l-1.12-.13.36-1.16c.16-.53.51-.65.8-.68-.83-.85-1.68-1.66-2.55-2.44l-.55-.12v-.36c-.33-.28-.65-.56-.97-.83-.08.3-.29.46-.65.44l-.56,1.02-.56-1.95c-.06-.19-.12-.38-.15-.6-.03-.17-.02-.31,0-.42-.28-.21-.56-.42-.84-.62l.02.38c0,.16.03.63-.27.81-.11.06-.23.07-.35.05-.26-.04-.53-.22-.71-.35l-.34-.23-.43-1.41.44.03.04-.36c-.07-.04-.14-.09-.21-.13-.07.27-.27.3-.35.3-.13,0-.27,0-.41-.02l-.7-.05-.19-.81.58.06-.58-.08-.11-.47c-.35-.2-.69-.39-1.04-.57-.05.33-.14.65-.27.87l-.54.98-.2-.55s-.04.04-.07.06c-.07.03-.15.04-.23.02-.28-.05-.55-.34-.71-.51-.29-.29-.43-.6-.48-.82l-.09-.34.12-.26c.12-.2.31-.29.53-.25.13.02.26.06.43.11,0-.01,0-.02,0-.03-1.54-.72-3.09-1.3-4.64-1.74l-.4.24c-.02.14-.06.28-.17.38-.08.07-.2.13-.38.09-.1-.02-.23-.06-.37-.15l-.54-.32v-.65s0-.02,0-.04c-.08-.02-.15-.03-.23-.05l-.06.55-.56-.68c-.86-.15-1.71-.23-2.53-.28,0,.01.01.03.02.04.04.17.05.33.02.48l.87.9-.31.81-.33.08-.52-.07c-.02.31-.21.45-.32.52-.04.03-.08.05-.11.09l-.22.19c.21.15.4.32.57.48.07.07.15.14.22.2l.46.4-.09,1.2-.2-.05.17.86c.02.08.04.16.05.24.06.26.13.55.1.83-.06.49-.47.46-.69.44-.04,0-.07,0-.11-.01-.24-.04-.44-.19-.58-.33l-.24-.26-.1-.38c-.07-.31-.04-.6.07-.78.07-.1.15-.2.25-.33l.37-.46c-.11-.03-.21-.05-.32-.09-.08.27-.23.61-.63.7l-.33,1.61h0s.17.93.17.93c.04.19.09.48,0,.72h0c-.07.17-.25.33-.49.35l-.5,3.23-.84-1.45c-.35-.61-.37-1.02-.33-1.25.04-.23.19-.51.64-.53l.83-.03c-.06-.02-.11-.03-.17-.07-.2-.12-.37-.29-.5-.42l-1.34-1.24,1.26-.25c.11-.02.21-.04.31-.05.08,0,.17,0,.27,0l.51.04-.48-.43c-.37-.34-.51-.69-.56-.92-.08-.41.05-.67.22-.86l-.14-.44c-.33-1.06-.02-1.64.45-1.68l-.04-.07.69-.06s.08-.01.12-.02c.05-.01.1-.02.16-.03l-.14-2.15h0s-.49-.65-.49-.65c-.2.01-.41.02-.61.04l.32.3-1.81-.11c-.21.04-.41.08-.61.12l.16.28c.1.17.2.34.3.51.15.28.22.55.25.73.03.17.05.55-.3.69l-.31.13-.4-.39c-.12-.14-.32-.36-.44-.68-.11-.04-.19-.08-.28-.14l-.07-.04c.06.42-.07.75-.24,1.03l-.05.09.33.22-.46.74-.12.16c.05.06.1.13.14.19l.12-.13h0s.44.71.44.71l-.44-.72c.23-.18.62-.49,1.31-.08l1.14.67-.86.87c-.14.15-.27.28-.4.38-.03.02-.06.03-.09.04l.5.65-.8.09-.06.27c.14.25.28.57.21.88-.06.3-.23.43-.36.52-.03.03-.07.05-.1.08l-.1.1.68,1.38.16-.07c-.41-.75-.41-1.22-.04-1.73l.21-.28,1.13.72-.14.77c.08.16.14.34.15.54.01.23-.03.53-.35.69h0c.21.34.46.79.51,1.36l.02.04c.04.08.09.17.12.25.15.26.38.67.3,1.07h0c-.08.38-.4.5-.67.48-.05,0-.1,0-.15-.02-.3-.05-.7-.22-.95-.73-.18-.37-.3-.74-.41-1.07l-.05-.15c-.12-.36-.05-.66.11-.82-.03-.08-.04-.14-.06-.19l-.34-.07c-.14-.03-.55-.11-.89-.57-.24-.33-.31-.65-.33-.87l-.62-.68.83-.39-.13-.33c-.03-.08-.07-.16-.11-.24-.07-.16-.2-.44-.27-.74l-.36.04.25-1.44-.36-1.25-.73-1c-.06.05-.14.09-.25.09-.03,0-.05,0-.08,0-.18-.03-.35-.13-.47-.2l-.55-.28-.05-.33c-.55.31-1.08.65-1.59,1.03l2.35,1.09.38,1.77c.08.36.05.66-.08.86-.12.18-.32.26-.57.21-.02,0-.04,0-.05-.01-.37-.08-.75-.42-1.02-.9-.27-.48-.37-1-.27-1.38-.02-.03-.03-.05-.05-.09l-.88-1.42c-1.97,1.49-3.63,3.45-4.95,5.79l.31,1.09c.06.02.11.04.19.08l.65.39-.02.76h0c0,.13-.02.32-.12.47-.07.09-.14.17-.22.24l-.27.27-1.13-.71.09-.35h-.13s-.18-.57-.18-.57c-1.75,3.79-2.69,8.42-2.67,13.66l1-.6,1.05,1.65-.52.43c-.12.11-.26.24-.46.3-.04.01-.07,0-.11,0,.06.33-.02.61-.15.74-.15.16-.35.22-.56.18-.05,0-.11-.04-.16-.06.14,2.27.45,4.63.94,7.08.26,1.3.57,2.6.93,3.88l.17-.19.43.39c.98.89.94,1.64.83,2h0c-.04.12-.14.32-.44.3-.01,0-.04,0-.09-.01-.04,0-.1-.02-.16-.04.39,1.22.81,2.42,1.27,3.61l.31.26-.19.04c.1.27.21.53.32.8.11-.02.22-.03.33-.05l.66-.09.82,1.55-.71.29c-.11.05-.22.08-.32.12.03.06.05.13.08.19h.1s-.02.18-.02.18c1.36,3.04,2.95,5.95,4.71,8.71l.35-.03.03.05v-.03c-.02-.1-.05-.28-.03-.45v-.02c-.04-.08-.09-.16-.13-.24-.1-.2-.22-.44-.29-.69l-.06-.09.03-.05c-.02-.12-.03-.25,0-.37.06-.37.26-.55.42-.69.04-.04.09-.08.12-.12l.36-.41.49.66.91-.97,1.09,1.52-1.02,1.27-.47-.71-.17.18c.09.25.1.52.03.77.13.2.21.41.25.52l.46,1.24-1.5-.43.16.3-.13.17c1.09,1.61,2.24,3.17,3.44,4.64l.03-.09c-.11-.3-.23-.74-.11-1.06.1-.26.28-.38.42-.47.04-.03.07-.05.11-.08l.35-.3.99,1.26-.2.61c.04.2.1.53-.01.79-.09.21-.27.3-.53.25-.05,0-.1-.02-.15-.04-.12-.04-.22-.09-.3-.15.29.35.59.69.88,1.03,0-.16.02-.32.09-.45.18-.31.52-.24.67-.22l.84.16-.18,2.07c1.37,1.46,2.79,2.82,4.25,4.07-.26-.27-.4-.55-.47-.73-.11-.29-.24-.86.11-1.38l.13-.14.45-.33.6,1.01c.14.25.29.5.42.76.2.39.2.81.11,1.05h0c-.09.23-.3.33-.54.29-.08-.01-.15-.04-.23-.08-.1-.06-.18-.12-.26-.18,2.01,1.69,4.09,3.18,6.21,4.42.03-.17.09-.3.13-.39l.29-.68.92,1.1.5.67-.19.22c2.87,1.49,5.8,2.54,8.71,3.03.86.15,1.7.23,2.52.28l-.17-.58.8.16c.1.02.21.05.31.09.08.03.16.07.23.11l.47-.23c-.15-.21-.33-.53-.3-.88.03-.27.14-.5.32-.63.29-.21.66.13.8.26l.11.1.82.69-.76.89c2.26-.16,4.34-.71,6.22-1.61l-.37-.55-.33.83-.32-2.43c-.23-.06-.53-.22-.78-.66l-.21-.37-.43.1.23-.44-.03-.05.07-.04.71-1.33c-.41-.47-.64-.98-.79-1.43l-.04.57-1.07-.67-.03-.1c-.11.15-.25.23-.42.2h-.02c-.33-.06-.75-.44-.96-.87-.16-.34-.31-.95-.09-1.28h0c.13-.2.28-.36.46-.55l1.26-1.37-.34-.03s-.06,0-.1,0c-.07,0-.16,0-.26,0-.13-.02-.29-.08-.46-.23-.28-.24-.55-.62-.75-1.03-.22-.48-.1-.86,0-1.05.17-.34.44-.28.59-.21.12.05.16.04.2.02l.27-.14.35.31s.51.47.58,1.05c.02.2.02.39.01.61v.64s.13-.16.13-.16l-.15,2.11.38.43h0c.08.08.18.2.28.35,0-.03.01-.05.02-.08l.1-.59.26.1-.17-.67,1.77,1.24.45,1.25-.35.09s.08.1.11.14l.26-.15.5.62s.05.07.07.11c.07.11.17.25.25.41l.84-1.08-.05-.07,1.15-.02c.22-.02.67-.07,1,.56.21.4.34.85.39,1.31l.16,1.61c.68-.65,1.32-1.36,1.91-2.14-.13-.04-.25-.09-.29-.11-.14-.08-.25-.19-.34-.31-.35-.08-.7-.36-.98-.81-.14-.22-.21-.44-.26-.62l-.53-.66.08.75-.61-.21c-.16-.03-.51-.11-.78-.56-.17-.29-.22-.55-.25-.71l-.23-.95,1.07.29.16.05.37-.06-.02-.15c-.12-.67.12-.81.28-.84.12-.02.26-.03.39-.03l.7-.04.22.79.51-.09c-.19-.32-.24-.62-.27-.8l-.18-.78h.71c.23.03.45.05.68.1h0c.09.02.27.08.45.29l.73.3-.24.99c-.02.08-.04.13-.06.2.06.07.11.14.15.23l.33-1.38.19,1.94c.7-1.36,1.29-2.83,1.76-4.42-.35-.25-.63-.77-.65-1.16-.02-.4.18-.62.36-.69h0c.28-.11.56.14.7.28.65-2.74.98-5.76.93-9.01l-.23-.09-.02-1.41Zm-4.04-11.18c0-.05.01-.11.02-.17l.06-1.73,1.71,3.07-.28.98-.72-.53c-.15-.12-.36-.29-.55-.56-.3-.44-.25-.84-.23-1.05Zm-2.48-7.57l.71.42-.6,2.63-.63-1.01c-.17.12-.36.18-.54.25-.07.02-.15.05-.23.08l-.57.23-.34-.91c-.3-.82-.16-1.37.38-1.48.16-.03.32-.1.46-.19.21-.14.64-.43,1.35,0Zm3.09,16.55c.09.4.23,1-.11,1.22-.12.08-.17.14,0,.8l.23.89-.67-.15c-.19-.04-.55-.12-.84-.55-.3-.44-.29-.88-.28-1.03,0-.17,0-.22-.01-.23-.12-.06-.31-.28-.44-.66-.06-.17-.17-.59-.04-.88.15-.33.33-.52.55-.6.27-.09.54,0,.76.02l.65.06.14.87c.01.07.03.16.06.25Zm-3.77-2.73l-.33-2.39.85-.14,1.75,2.64-2.27-.12Zm1.84,7.58l-.49,1.16-1.67-1.49.6-1.33,1.07,1.1.49.55Zm-2.48-24.55c.08.63-.2.88-.35,1.01-.03.03-.06.05-.08.08l-.25.4.34.41-.68.31c-.08.04-.25.11-.46.08-.14-.02-.29-.09-.46-.24-.45-.41-.57-1.07-.63-1.42l-.32-1.84,1.08,1.32.75-1.5,1.01.94.06.44Zm-5.18-3.94s0-.13,0-.19c0-.08,0-.16,0-.23l.02-.46,1.02.03-.49-.61,1.37-1,.43.65-.39.36.45-.28.4.6c.02-.24.12-.42.3-.55l.66-.45.34,1.19c.23.82.4,1.4-.16,1.61l-.66.24-.04-.15.21,1.78-.87-.11-.37-.48c-.2-.29-.72-1.02-.46-1.76,0-.02,0-.03,0-.05-.02-.11-.02-.2-.03-.3-.14-.09-.29-.22-.46-.43l-.08-.1.7,3.45-.84-.46c-.36-.2-.68-.56-.89-1-.21-.45-.27-.93-.16-1.31Zm1,9.94c.41-.04.82.5.97.86h0s.02.09.04.13c.08,0,.16.03.25.07l.15-.65-1.34-1.32.44-.92.18.06-.92-1.75.28-.07-1.58-2.37.63.16c-.01-.14-.01-.28.05-.4.13-.26.29-.49.45-.72l.18-.26.38.12c.16.08.51.34.67.77.05.13.14.4.13.66l.2.21-.2.53c-.03.12-.08.21-.16.27.06.23.08.45.1.68v.12s.42-.11.42-.11l.72,1.18-.67,1.29,1.03.57-.3,1.27.68.45v.57s.45-.27.45-.27l.72,2.62-.11-.03.4.48-.1.04c.2.21.4.51.57.97l.31.87-2.02-.06-.03-.64-.1-.1c-.1-.1-.22-.23-.33-.41l-.93.32.35-1.41h0s.15-.6.15-.6c0-.02-.02-.04-.02-.06l-.29-.13c-.06-.03-.12-.06-.18-.08-.09-.03-.17-.05-.27-.07l-.92-.25v-.04c-.07.02-.15.03-.25.02-.05,0-.11-.02-.17-.05l-.83-.34.25-1.09c.05-.21.09-.42.15-.62.07-.26.24-.43.45-.45Zm-.47,7.81l-.86-.95-.04-.51c-.03-.32-.11-1.13.59-1.18,0,0,.01-.02.02-.02.05-.06.11-.14.21-.2.16-.11.35-.1.46-.1.27,0,.56.25.78.65l.18.34c.19-.25.46-.29.81-.11l.93.46-.37.83c-.19.43-.35.77-.7.71-.11-.02-.25-.08-.41-.19l-.8-.54.05-.11-.85.95Zm-1.71-1.45l-.56-1.01c-.24-.44-.35-.91-.29-1.29.06-.39.29-.65.62-.71.02,0,.08-.05.12-.08.05-.03.09-.07.14-.09l.29-.17,1.1,1.12-1.42,2.23Zm.42.38l.68,3.79-.86-.53c-.17-.11-.62-.39-.82-.97-.21-.62.07-1,.22-1.21l.78-1.08Zm-2.67-27.61l.39.02s.22.05.42.27c.11.11.21.23.32.35l.74.82-.42.47c-.15.19-.3.23-.44.21-.16-.03-.3-.14-.38-.22-.14-.14-.28-.28-.41-.43l-.66-.7.44-.8Zm.39,9.63v.23c.06-.04.11-.07.18-.08.2-.03.39-.01.58.06.18.06.52.27.7.95.18.67-.08.83-.21.87-.12.03-.24.03-.38.03h-.76s0,.17,0,.17l-.88-.66c-.45-.31-.68-.68-.67-1.1,0-.2.03-.36.06-.49l.12-.68,1.25.7Zm-1.11,2.04c-.03.41-.3.47-.42.5l-.67.27-.37-1.19c-.04-.13-.08-.29-.1-.46-.01-.15,0-.29,0-.42l.04-1.01.75.62c.15.11.46.32.62.76.11.31.17.65.15.93Zm-5.03-13.72c.06-.21.15-.38.27-.5.15-.15.42-.21.9.3l.44.47-.05.58c-.03.13-.07.24-.14.38l-.33.77-.71-.89c-.35-.41-.48-.79-.39-1.11Zm1.91,9.48c.01-.16.03-.46.25-.59.62-.36,1.21.45,1.4.72l.1.13,1.16,1.48-1.53-.3c-.16-.03-.3-.06-.45-.1-.17-.05-.32-.16-.41-.23l-.56-.44.04-.68Zm3.99,8.22l-1.22,1.27-2.94-5.1,4.16,3.83Zm-2.92,2.38l.38.84s-.02-.06-.02-.09c-.1-.56.22-.85.47-.92.18-.05.37,0,.51.04l.7.14.23,1.35-.23.19.05.29.11.21.22-.32,1.01,1.11-.25,1.72c.21.16.49.4.63.83h0s0,0,0,0c.13.41.23,1.12-.54,1.22l-.21.03-.43-.31-.56-.46.29-1.42-.22-.46s-.04-.07-.06-.11c-.08-.14-.2-.36-.26-.6l-.48.42-.49-1.13c-.22-.48-.25-.81-.12-1.01-.04-.07-.09-.14-.13-.22.05.17.07.35.02.53-.07.24-.22.44-.4.54h0c-.08.05-.17.05-.25.04-.19-.03-.37-.17-.46-.24l-.83-.54.34-.86c.04-.1.09-.21.18-.3.07-.07.16-.13.25-.18l.57-.35Zm-1.97,8.2l-.29.02-.31-.33c-.1-.11-.2-.14-.51-.18-.23-.03-.49-.07-.78-.22h0s-.06-.04-.09-.05l.04.15-1.27.48c.11.27.26.66.13.97-.08.2-.24.43-.57.37-.18-.03-.4-.14-.69-.39l-.22-.19-.22-.48-.29-.74.95-.34.16-.04.05-.41s0-.07,0-.1c0-.22.02-.63.31-.74.19-.07.39-.03.56.02l-.38-.48c-.1-.11-.39-.42-.44-.86-.03-.27-.07-.67.1-.92.23-.33.73-.14,1.01.07.21.16.37.37.48.52l.6.74-.31.43c.11.03.22.06.3.06.55.02,1.4.5,1.88,1.35.19.33.23.68.2.89-.05.37-.33.42-.42.43Zm1.21,4.65l.5.88-1.89.51-1-2.16h.8s.09,0,.13,0h0s.03.02.03.02c.19-.16.42-.18.67-.07.4.19.67.67.76.83Zm-1.24,10.66c.04-.13.18-.42.48-.41.34.01.64.1.9.29.25.18.45.41.61.6.05.06.09.11.14.16l.62.67-.38.5s-.06.1-.1.16c-.14.26-.37.64-.83.4-.17-.09-.25-.1-.47.34l-.29.6-.58-.73c-.18-.22-.47-.59-.51-1.06-.04-.47.24-.65.33-.7.1-.06.12-.1.13-.11-.08-.14-.15-.42-.05-.71Zm-5.79-33.64l.23-.63c.09-.36.27-.51.54-.43.58.15,1.04.72,1.22,1.53l.31,1.41-2.29-1.88Zm2.11,3.47l-.53.89-1.17-3.04.6-.03c.31-.06.57.05.79.34.5.64.61,1.33.31,1.84Zm-.03,2.86l.1,1.54c.04.72-.18.96-.38,1.05-.07.03-.17.05-.31.03-.17-.03-.4-.13-.69-.39l-.95-.87,2.23-1.35Zm2.44,8.06l.1-5.02,1.87,5.68-1.98-.67Zm-.76-12.41l-.07-.56c0-.21,0-.4,0-.6l.02-.97,1.21.78.12.62.02.16c.02.18.04.35.05.52.01.27-.08.47-.28.6l-.28.2-.8-.76Zm-1.44-11.44l.12.04,1.37.34-.83,1.21c-.08.12-.15.23-.23.33-.11.12-.23.15-.31.17l-.5.11-.39-.71c-.09-.18-.26-.49-.25-.83.05-.97.77-.73,1.01-.65Zm-3.45-.33h0c0-.59.46-.52.69-.47.06,0,.12.02.18.03l.5.05-.6-.64.06-.49c0-.24.02-.67.35-.74h0s0,0,0,0c.2-.04.4.03.54.08l.59.16.41,1.41-.6.29-.06.02h.06s-1.46,3.34-1.46,3.34l-.56-2.3c-.06-.23-.12-.47-.12-.72Zm1.15,6.03c.08-.34.3-.61.7-.56l-.22-.38.96-.4.53.64c.11.15.23.31.33.47.05.08.07.16.11.24l.66.42-.06,1.27-.47-.06-1.16-.3-.7.85-.48-1.23c-.12-.25-.29-.62-.21-.97Zm-4.11-9.06c.01-.21.05-.42.09-.64l.12-.71.42.11c.56.15.95.65,1.16,1.49.02.07.04.17.06.2l.8,1.89-1.19-.91v.18s-1.11-.11-1.11-.11l-.2-.75c-.08-.23-.16-.5-.15-.76Zm1.22,6.58l.1-.04c-.02-.2,0-.4.16-.53h0c.12-.09.26-.15.4-.21l.56-.25.76,1.39-.93,1.18.22,1.54-.93-.75c-.2-.13-.49-.33-.67-.76h0c-.24-.59-.28-1.3.32-1.57Zm2.68,16.24c.2-.18.43-.11.55-.05.31.16.63.52.79.9h0c.21.52.02.8-.07.94-.02.03-.05.07-.07.11l-.38.7-.59-.99c-.03-.05-.06-.1-.09-.14-.12-.17-.29-.44-.34-.78-.05-.4.13-.62.21-.69Zm-1.9-3.26s-.04.03-.07.05c.08.19.18.44.21.72.05.45-.12.74-.23.88-.12.15-.29.16-.43.14-.07-.01-.14-.03-.19-.05l-.64-.12-.15-.92c-.02-.11-.03-.23-.04-.34,0-.03,0-.06,0-.08l-.64-.85.55-.13c-.06-.11-.11-.23-.16-.37l-.43-1.29,3.02,1.62-.82.74Zm6.6,31.36l.2,1.29-.18.18c-.11.11-.3.3-.6.25-.06-.01-.13-.03-.21-.07-.41-.21-.66-.72-.8-1l-.6-1.23,2.18.58Zm-3.21-4.63l1.46.04.49,2.2h-1.18s-.77-2.24-.77-2.24Zm1.33-1.12c-.26-.04-.58-.23-.96-.63l-1.2-1.28-.19.36c-.04.09-.12.25-.28.33-.25.13-.52.25-.78.37l-.71.33-.87-1.47.63-.52c.24-.2.48-.4.73-.57.24-.16.55.01.7.1l1.09.47-.26.5,2.56.18.36,1.3-.14.22c-.14.22-.37.36-.67.31Zm-6.13,13.64h-.61c-.08.01-.16,0-.23,0-.38-.06-.58-.37-.68-.57-.11-.22-.21-.45-.29-.63l-.41-.93.65-.14c-.06-.07-.1-.14-.14-.18-.29-.4-.29-.86-.21-1.13h0c.1-.33.42-.38.82-.13.1.06.2.13.33.23l.19.13.1-.95c.02-.2.04-.43.17-.59.15-.18.36-.23.6-.15.43.15.76.67.87.84l.62.96-.82.18c-.11.03-.21.05-.31.05-.04,0-.08,0-.12-.01-.09-.02-.17-.04-.23-.06l-.81-.23.89.62,1.53-.33-2.17,2.28.26.74Zm-6.03-10.51c.07-.13.15-.26.23-.38.03-.05.15-.19.37-.14l-.14-.21,1.23-.96.71,1.12,1.05-1.81c.09-.16.16-.35.22-.55.02-.05.04-.11.06-.16l-.47.55-.79-.95-.06-.5v-.19s-1.34-.19-1.34-.19c-.04,0-.09-.01-.13-.02-.36-.06-.73-.18-1.04-.61-.37-.5-.38-1.05-.39-1.35l-.03-1.31,2.93,3.46.03-1.75,1.82,1.9.53-.66.39,1.59c.25,1.04-.13,1.96-.88,2.14l-1.9.45.31.49-1.22.99-.03-.05-.23.59-.27.54-1.32-1.43.33-.58Zm-3.49-10.07l-.46-1.08c-.19-.46-.25-.83-.16-1.12.08-.28.28-.42.59-.42.35,0,.63.38.74.52l.62.72-1.33,1.37Zm5.64-9.5s.09.09.14.13l.06.06c.27.12.5.33.67.61.29.48.27.94.27,1.09l-.03.86-2.19-1.65.28-1.89.8.79Zm-5.38-15.09l.66-1.68.86.69.19.39.71,1.94-2.43-1.34Zm6,19.89l.26-.65.63.67c.17.17.48.48.55.94.05.28,0,.5-.02.64l-.08.55-.85-.19-.3-.48c-.13-.23-.3-.51-.34-.85-.04-.33.07-.52.13-.64Zm4.71,20.5l-1.05-1.77-.31-.08-.11-.72c-.13-.06-.28-.16-.42-.34-.15-.17-.34-.48-.42-.95l-.12-.73.56.09c.38.06,1.03.16,1.5,1.04.2.37.23.72.25.97l1.25,1.67-1.12.82Zm-.08-6.25c-.31-.2-.57-.56-.72-.99-.16-.49-.15-.98.05-1.25.41-.58,1.13-.54,1.67.08.41.47.76,1.53.73,2l-.03.44-.4.06c-.16,0-.33-.01-.51-.04-.25-.04-.52-.13-.79-.3Zm-6.41-41.89c.17-.17.53-.53,1.22-.09l1.09.67-.81.84c-.13.14-.25.27-.39.37-.1.07-.21.08-.32.07-.14-.02-.27-.1-.34-.14l-.73-.32.08-.83c0-.13.01-.38.16-.54h0s.42.61.42.61h0s-.4-.65-.4-.65Zm1.2,5.81l.1,1.04,1.7,1.32-.22.75c-.04.16-.09.38-.23.53-.18.2-.45.2-.65.16-.04,0-.07-.01-.1-.02-.32-.08-.55-.41-.66-.56l-.15-.18-.38.31-.45-.89c-.09-.15-.24-.42-.26-.73-.03-.39-.1-1.1.45-1.35l.86-.39Zm2.43,8.09h0c-.1.42-.46.35-.63.32-.04,0-.09-.02-.14-.02l-.79-.08v-.99c0-.05,0-.11-.01-.15-.01-.19-.03-.47.13-.66.18-.22.5-.13.62-.08.31.12.49.38.58.52.22.37.32.83.25,1.15Zm-1.42,3.78l-.16-.52.73-.27.49.34,1.29,1.09-.82.47s.04.05.05.06c.54.55,1.09,1.58,1.07,2.41,0,.32-.17.5-.33.56h-.01c-.07.03-.14.03-.21.02-.2-.03-.39-.19-.46-.25l-.3-.28-.11-.44c-.03-.14-.12-.26-.4-.57-.21-.23-.45-.5-.65-.86-.5-.87-.45-1.5-.18-1.77Zm.86,5.77l.15-.58,2.93,2.09-1.56.37c-.18.05-.33.09-.5.09-.04,0-.07,0-.11,0-.24-.04-.49-.23-.68-.51-.27-.41-.35-.95-.22-1.46Zm5.12,20.39l.16-.14,1,.37.14,2.17-.99-.37-.2-.33c-.43-.7-.47-1.37-.1-1.7Zm.77-12.15l.37.34c.25.25.53.52.68.93h0c.11.31.13.58.15.81,0,.08.01.16.02.25l.19,1.65-1.12-1.38c-.06-.08-.12-.14-.17-.2-.14-.16-.28-.32-.41-.56-.18-.33-.27-.68-.32-.91-.1-.55.24-.76.31-.8l.29-.15Zm-1.39-6.52l-.32-2.42.65.24c.18.04.52.13.78.57.22.39.27.81.24,1.07-.05.42-.36.42-.5.43-.03,0-.06,0-.1,0l-.75.1Zm-8.92-39.47l.46-.19c.16-.14.37-.16.62-.05l.26-.59.63.92c.15.23.26.44.32.65l.24.22-.19.11c0,.21-.03.4-.12.59l.37,1.57-1.4-1.39c-.06-.06-.12-.11-.18-.17l-.83.29.03-1.43s0-.09,0-.13l-.22-.41Zm1.46,3.73l.27,1.11c.15.48.12.78-.07.93-.11.09-.23.13-.33.16l-.61.23-.73-1.8,1.48-.63Zm-3.45-4.56c.31-.02.56.11.78.41.17.25.33.51.48.77.15.25.23.56.22.83-.01.31-.17.41-.24.47l-.54.45-1.48-2.97.79.04Zm1.1,10.54c.21-.25.48-.27.8-.1,0,0,0-.01,0-.02.1-.14.22-.24.33-.32l.23-.19-.03-1.22.96,1.15c.36.43.52.85.59,1.19.22.16.37.4.48.61.04-.13.1-.23.15-.3.03-.05.06-.1.09-.15l.24-.44-.63-.05-.27-.55c-.14-.25-.39-.69-.29-1.08.06-.24.18-.36.27-.46l.34-.42,1.08,1.08-.16.88.03-.06,1.4,4.84-1.56-1.75-.48.79-.62-.66-.12.99-1.26-.56-.03-.29-.56-.45c-.17-.16-.36-.33-.51-.61-.12-.23-.23-.46-.34-.73l-.37-.83.24-.3Zm-.99,6.76c.41.08.72.34.96.61.28-.08.62.16.78.29.11.05.16.07.21.09l.66.36.21.69.15.73-.63.03.53,1.1-.85.69-.75-1.04c-.23-.08-.48-.16-.73-.27-.44-.2-.76-.86-.82-1.25-.04-.24-.05-.45-.05-.64v-.42s-.75-1.18-.75-1.18l1.09.21Zm-4.63-4.58c0-.18.04-.33.07-.51l.17-.92,1.01.95v-.03s.21,0,.21,0l.03-.23.21.23h.13c.14,0,.45-.02.76.37.17.21.26.42.34.6l.65,1.38-.84-.24-.11.82-1.38-1.07v-.09c-.05.05-.15.1-.28.07-.13-.02-.29-.1-.49-.3-.43-.43-.49-.82-.48-1.01Zm3.27,13.49l-.02-.02.25-.57c.05-.14.18-.47.53-.38.2.04.36.17.5.27l1.09.74-.56.68s-.04.06-.06.09c-.07.12-.21.32-.49.27-.03,0-.06-.01-.09-.02-.07-.02-.14-.06-.2-.1l.02.17c.03.22.06.41.07.59,0,.17-.03.55-.46.55-.05,0-.09,0-.14-.01-.35-.06-.57-.35-.67-.53h0c-.1-.18-.18-.36-.27-.58l-.48-1.09.99-.06Zm.57,5.09l1.44.33.53,3.22-1.07-.24-.23-.38c-.42-.69-.41-1.27-.4-1.65,0-.13,0-.28-.01-.35l-.26-.92Zm1.94,9.84s.06-.04.09-.05l-.76-3,1,.68c.21.14.65.44.81,1.01.16.57-.11.86-.25,1.01l-.28.3c.09.04.17.09.26.17.06.06.12.11.31,0,.18-.1.39-.03.47,0l1.32.22-.77,1.35c-.1.19-.19.38-.31.54h0c-.15.21-.4.31-.66.27-.03,0-.07-.01-.1-.02-.26-.04-.53-.1-.81-.17l-1.65-.36c.15.2.26.43.34.63.16.43.07.72.02.88l-.15.78-1.35-1.22-.79-.76.55-.5s.08-.09.12-.13c.13-.16.35-.42.76-.18.11.07.21.16.31.26l1.01-1.15c.18-.21.35-.4.52-.59Zm-2.19-2.93l-.37-.02-.1.29c.12.07.24.16.35.33.13.2.26.4.41.65l.93,1.53-2.49-.42-.03-1.1c0-.12,0-.22,0-.33h-.34s-.21-.95-.21-.95v-.09s-.34-.02-.34-.02c-.08.13-.2.24-.4.24-.03,0-.06,0-.08,0-.21-.04-.43-.18-.66-.45l-.47-.53.18-.51c.16-.44.34-.84.75-.87.17,0,.34.06.51.16l-.12-.78c-.01-.12-.02-.24-.02-.36,0-.05,0-.09,0-.13-.14-.41-.17-.92.31-1.2.33-.34.91,0,1.2.38.16.21.28.42.39.61l1.09,1.77-.17.38c-.08.18-.2.28-.34.33l-.28.81.28.27Zm-3.66,7.37c.07.21.15.59-.12.89l-.24.25-.44-.26c-.16-.12-.29-.26-.39-.37l-.56-.59.37-.93.37-.73.7,1.17s.05.08.08.13c-.09-.2-.14-.38-.17-.49-.02-.07-.05-.17-.07-.21l-.83-1.74,1.39.86c.54.33,1.24.92,1.18,2.15l-.03.62-.53-.22c-.37-.15-.62-.42-.78-.69.03.06.05.11.08.17Zm-9.27-24.54l.19.91-2.14-.74.11-.55-.61-.65.36-.55c.08-.13.21-.34.5-.3.29.05.48.27.61.4.03.03.06.07.1.1l.82.76-.1.09c.1.22.13.42.14.52Zm-1.15,4.69l.75-.58.87,4.35-1.24-1.42c-.37-.42-.73-.87-.79-1.41-.07-.57.25-.81.42-.94Zm3.55,8.34l.64,1.13c.11.19.23.39.33.62.12.29.13.53.14.69l.14,1.12-.87-.58c-.2-.13-.4-.26-.59-.5-.17-.22-.27-.45-.36-.63l-.36-.73.93-1.12Zm-2.17-13.4l-.62-2,.85.33s.07.02.1.03l.78-.32.23,1.12c.19.41.2.89.12,1.19-.09.34-.36.37-.51.39l-.61.18-.34-.93Zm1.93.61l.91.29.19.57c.1.24.28.68.12,1-.09.2-.25.27-.35.32l-.4.25-.56-.73-.32-.47.4-1.25Zm1.84,3.53l1.21,1.4c.25.28.42.61.48.93.06.32.01.61-.14.81-.14.19-.36.27-.61.23-.11-.02-.23-.06-.35-.13-.39-.21-.75-.63-.93-1.11-.02,0-.05-.02-.07-.03l-1.49-.68,1.9-1.42Zm2.98-2.27l-.28.88.13.33c.21.1.45.29.61.67.15.35.16.65.16.88,0,.03,0,.07,0,.1h.13s.23.89.23.89c.07.25.19.68,0,.94-.12.17-.29.21-.4.24l-.41.15-.67-.84-.07-.56c0-.18,0-.41.11-.58-.12-.09-.27-.21-.41-.37l-.14.44-1.63-3.86.53.14-.05-.4.61.27-.61-.28s0-.06,0-.09l-.62-.21,1.18-2.28.44.95.37-.19.16,1.72c.03.28.05.53.06.78,0,.04-.01.08-.02.12l.6.15Zm-.53,8.41c-.08.03-.19.07-.31.09l-.61.16-.73-1.84,1.43-.32.34.83c.33.86,0,1.04-.12,1.07Zm-1.11,5.57c.08-.09.18-.21.32-.29.23-.13.46,0,.64.18.13-.02.28-.02.46.05l.11-.14.11.21h.07s-.04-.05-.06-.07c-.16-.24-.24-.48-.28-.63l-.45-1.2.92.3c.17.04.43.11.68.42.6.72.65,1.32.58,1.69l-.09.56.37,1.48-.67-.15-.1-.56h-.01s.06.55.06.55l-.25-.06-.14-.15-.27.26.82,2.05-1.09.31-.43-.99c-.07-.16-.13-.31-.21-.47h0c-.04-.08-.08-.16-.12-.24-.09-.17-.18-.35-.26-.53-.09-.23-.17-.46-.25-.69l-.14-.4c-.12-.15-.22-.31-.31-.46l-.38-.63.38-.42Zm2.3-4.32c-.23-.47-.11-.78-.05-.94.01-.03.03-.08.04-.12l.26-.94.83,1.22c.11.16.22.31.31.5h0s.16-.03.16-.03l.49-.07.7,1.57-.51.28c-.1.05-.22.11-.38.11-.03,0-.06,0-.1,0-.33-.06-.59-.44-.68-.58l-.08-.12s-.03,0-.06,0c-.06-.01-.13-.04-.21-.08-.22-.13-.53-.4-.72-.8Zm1.5-4.93l-.46-.48.06-.6.12-.46.49.08.1.04c.3.13.74.32,1.15.91.01,0,.02.01.03.02.07.04.14.08.2.13.22.11.56.29.76.77.19.46.13.89,0,1.14-.1.21-.31.51-.64.45-.08-.01-.17-.05-.26-.11-.3-.19-.57-.44-.8-.67l-.12-.11c-.26-.24-.4-.61-.44-.92-.09-.07-.15-.14-.19-.18Zm-8.18-21.37l1.66,1.31-.2.64c-.11.41-.32.48-.49.45-.09-.02-.18-.06-.23-.1-.13-.09-.27-.19-.41-.29l-.7-.53.37-1.49Zm-4.72,6.37c.03-.13.05-.26.07-.4,0-.07.01-.15.02-.22.01-.16.02-.33.06-.47.04-.19.1-.36.16-.53l.1-.3c-.02-.18-.04-.35-.04-.5v-.64s.63.21.63.21c.1.03.21.08.32.13,0-.01-.01-.02-.02-.03-.1-.19-.16-.37-.21-.51l-.36-.98h.29c-.06-.23-.05-.41-.04-.46l.03-.33.25-.1c.2-.06.52-.02.81.29.44.46.76,1.1.88,1.75l.42.62-.17-.03.56.78c.14.19.37.47.44.85.03.15.03.26.03.38l.18.25s.02.03.04.05c.03-.05.06-.11.09-.16.04-.06.07-.11.1-.17l.33-.62,1.42,1.99.03.32c.03.31,0,.58-.07.8.03.05.06.1.09.15l.35-.44c.06-.06.12-.12.19-.17.03-.02.05-.04.08-.05.1-.3.37-.53.98-.21l-.15-.44s0-.01,0-.02v.05s-.67-.43-.67-.43c-.12-.07-.28-.17-.45-.33-.32-.31-.39-.69-.41-.9-.02-.04-.05-.09-.07-.13l-.84-1.69.43.24c.05-.41.36-.42.5-.43.03,0,.07,0,.11-.01l.81-.13.1,1.32s0,.1.01.14l.95.55s.05-.02.08-.02c.21,0,.43.11.61.3h0c.12.13.21.28.29.45l.9.05.4,1.28-.4.68c.18.33.18.65.18.83,0,.06,0,.13,0,.2l.02.41c.18-.05.36-.08.53-.08.07,0,.14,0,.21-.01l.43-.04.05.1.22-.5,1.24,1.56-1.33,1.79c.02.18,0,.37-.04.56l.82,1.93.62.75c.13.16.33.4.43.73.1.33.13.93-.21,1.08-.16.07-.33.07-.46.07h-.1s-1.19.08-1.19.08l.38-1.48c.03-.12.06-.24.09-.35.03-.1.07-.18.12-.26l.23-.46-.46.04c-.07,0-.13,0-.2,0-.26-.04-.46-.21-.59-.37-.34-.4-.42-.9-.45-1.32l-.33-.9c-.07-.19-.13-.34-.17-.5-.05-.17-.1-.34-.14-.51l-.39-.23.12-.83s.02-.09.03-.14c.01-.06.03-.12.04-.18l-1.14-1.71c.11.2.19.41.21.57.04.25.03.46.03.64l.04,1.8h-.4s-.09,0-.13-.02c-.14-.02-.27-.09-.4-.18l-.47.04s.05.02.07.04c.23.13.42.33.54.48.1.12.35.49.29.98l-.06.45h-.41c-.11-.03-.33-.06-.57-.26-.07.06-.13.1-.2.15l-.05.03c.28.36.41.81.51,1.26l.13.58-.38.11c-.09.03-.21.06-.37.04-.13-.02-.27-.08-.43-.22-.37-.34-.48-.76-.66-1.46l-.19-.76h0s-1.06-1.24-1.06-1.24l.62-.48c.07-.05.13-.09.2-.14l-.39-.37.45-.63-.31-.33c-.15,0-.34-.09-.54-.29-.23-.23-.39-.54-.48-.92l-.06-.28s-.07-.02-.11-.04h0c-.41-.21-.68-.57-.83-1.06l-.07.02-.51.98-.79-.98-.08-.25-.45-.16-.41,1.66-1.27-.95.16-.84Zm-1.62,2.97l1.16.09v1.18s.01.08.01.13c.03-.17.09-.3.12-.38.02-.05.05-.12.06-.15l.21-1.54.87,1.72c.34.67.69,1.61-.11,2.05l-.4.22-.4-.61c-.28-.43-.36-.78-.37-1.06,0,.05,0,.1-.02.15h0c-.04.14-.16.34-.5.29-.05,0-.1-.02-.15-.04l-.39-.13-.27-.53c-.08-.2-.13-.39-.16-.53l-.21-.8.56-.05Zm1.88,15.48v-.05s-.58.02-.58.02l-.59-.03-.47-1.9.71.1c.14.02.29.04.43.07h0c.07.01.26.07.45.3v-.22s1.79.81,1.79.81l.06,1.7-1.8-.79Zm2.78,9.44l-.37,4.62-.95-1.97c-.62-1.28-.57-1.75.2-2.12l1.12-.53Zm-3.94-16.36l.48-.32.76,1.32.38.75-1.12.55-.44-.86c-.09-.17-.18-.34-.25-.52h0c-.11-.29-.16-.67.19-.91Zm-2.85-3.12l.69-.53s.07-.06.1-.09c.1-.09.24-.23.47-.2.34.02.61.4.73.55l.63.72-.42.49c-.11.13-.22.27-.41.3h0c-.05.01-.11,0-.16,0-.22-.04-.43-.23-.55-.34-.04-.03-.08-.07-.13-.11l-.97-.8Zm4.37,21.93c-.19-.02-.53-.05-.82-.48-.16-.23-.26-.47-.35-.66l-.35-.75.65-.61.52.5c.12.11.27.25.42.43.23.28.3.59.34.73l.32.98-.74-.15Zm2.89,7.44l-.26-1.42.65-.12c.19.02.38.04.58.08.29.06.55.35.75.85l.05.12.56,1.24-2.33-.76Zm1.08-4.8c-.01.2-.03.39-.06.57-.07.34-.31.38-.42.4l-.35.13c.03.09.06.18.07.27.06.4-.12.83-.47.83-.11,0-.23-.01-.35-.03-.05,0-.1-.02-.14-.03l-.15-.03-.77-.13v-.95c0-.48.26-.78.49-.9.23-.11.49-.08.73.1,0,0,0,0,.01.01v-.04c-.09-.2-.24-.59-.13-.9.07-.19.16-.33.24-.45l.38-.6.95,1.14-.04.6Zm-1.24-6.67v-1.79s-.25-.34-.25-.34l.32-.4c-.1-.16-.18-.34-.22-.55-.04-.22-.06-.54.14-.81l.31-.43.5.59c.34.39.93,1.08.87,1.9-.03.35-.2.52-.33.65l.25,1.92-1.6-.75Zm4.79,10.87l-1.26-.34,1.53-2.38.53,1.34c.06.16.12.33.17.48.03.09.07.21.1.29.05.02.11.04.16.05.11.04.22.07.33.12l.41.18.42,1.29-.49.19-1.46.11-.43-1.34Zm2.65,5.56h0c.02.31-.04.9-.44.97-.05,0-.11,0-.16,0-.25-.04-.48-.25-.62-.37l-.08-.07-.85-.65.47-.64.22-.45-.19-.14.34-.15.48-.98.23.66,1.23-.55.64,3.15-1.31-.95c.01.06.03.12.04.18Zm5.13,10.16l.04,1-.8-.63c-.77-.61-1.22-1.49-1.09-2.14l.16-.8.79.81c.28.28.86.85.9,1.77Zm1.41-4.56h0c-.08,0-.16-.02-.23-.02-.22-.02-.39-.04-.57-.06l.07.31.19,1.26-.57-.07-.82-.18-.14-.91s-.01-.09-.02-.14c-.08.01-.16.02-.21.02l-2.01.04,1.13-1.32c-.19-.25-.4-.61-.39-1.04l-.51.58-.37.36-1.34-1.87.51-.33c.11-.1.31-.28.65-.11.22.11.4.31.51.44l.2.2.37.04v-.05s.1.06.1.06l1.5.14c-.01-.06-.02-.12-.03-.18l-.42-.37.51-.82-.38.19-.67-1.33.15-.41c.03-.11.08-.24.16-.35.11-.15.25-.18.33-.2l.74-.18.24,1.08c.03.1.06.26.07.41.02,0,.04,0,.06-.01.02,0,.05,0,.07-.02l.39-.14.2.3.22-.44,1.03,2.25-.29.97-.42-.32c0,.06.02.12.02.17l.35.2.13.75s0,.08,0,.12c.02.21.04.53-.1.76h0s0,0,0,0c-.1.18-.27.23-.42.23h0Zm.75.39l.57.55-.55-.58c.25-.63.68-.71,1.27-.24l.02.02-.06-.41,1.15,1.11c.23.21.71.64.67,1.22-.03.38-.16.7-.39.93l-.84.87-.31-2.19c-.07.09-.16.17-.29.2-.08.02-.15.02-.24,0-.17-.03-.37-.13-.58-.29l-.67-.53.26-.64Zm1.32,6.9l1.16-2.47,1.58,3.28-2.74-.81Zm2.19-1.71l-.26-.85,1.04-.03.56.04.49,1.75-.54.02c-.2,0-.34.01-.48,0-.01,0-.03,0-.05,0-.16-.03-.53-.18-.76-.92Zm3.15,4.5c-.07.03-.16.06-.28.06-.11,0-.21-.01-.31-.03-.09-.02-.18-.04-.28-.08-.18-.08-.52-.26-.79-.64-.3-.43-.29-.87-.28-1.08,0-.33.15-.56.37-.62.1-.03.2-.05.31-.06l.68-.11.33,1.02,1.75,1.05-1.5.5Zm3.91,4.37l-.51.22-.37-.8c-.04-.08-.07-.17-.11-.25-.03-.08-.08-.19-.1-.23-.09-.14-.2-.27-.31-.41l-.99-1.23.45-.47c.11-.09.19-.17.32-.21.11-.03.22-.05.36-.07l1.42-.21-.3,1.2c.34.3.49.71.55.98.22.97-.1,1.33-.41,1.47Zm.59-2.3c0-.15.02-.27.05-.39.01-.04.02-.08.04-.12l-.66-1.22,1.22-.64.39.98.67.39-.12.97c-.03.28-.07.56-.12.82-.09.39-.41.38-.54.37l-1.02.14.09-1.3Zm2.59,2.83c-.11.49-.54.51-.68.52l-.27.02-.89-.98.96-1.96.61,1.2c.24.48.33.88.26,1.2Zm-2.54-6.47c-1-.66-1.28-1.2-1.18-2.31l.15-1.63,2.59,4.97-1.57-1.03Zm3.45,3.02c-.06.15-.15.29-.24.42l-.48.75-.56-.94c-.29-.48-.36-1.04-.33-1.38.03-.34.16-.56.36-.62.27-.08.68.13.95.49.26.34.44.94.29,1.29Zm-1.28-6.04c-.31-.48-.28-1.09-.04-1.3.22-.19.55-.08.77.06.39.27.52.74.56.9h-.22s0,.02.01.03h.22c.04.13.07.25.11.42l.76,2.8-1.76-2.34c-.16-.2-.29-.38-.41-.57Zm2.88,8.47l-1.09-1.31.34-.61c.09-.17.18-.33.28-.48.16-.23.44-.2.82.11l.09.07.98.69-1.42,1.54Zm1.58-5.14l-.72.9-.78-3.87,1.01.81c.12.1.25.21.36.31.06.06.15.14.21.19.03-.03.07-.07.1-.1.07-.07.14-.15.21-.2l.28-.22,1.05.97-.74,2.13-.98-.92Zm5.88,3.16c.18.32.41.81.37,1.26-.05.48-.36.66-.7.78l-1.34.48.23-.99c-.06.02-.13.03-.17.03h-.07s-.75.2-.75.2l-.19-1.2-.11-.39-.64-.42.32,2.19-1.46-.6-.22-2.12,1.15.38h0s.02-1.57.02-1.57l.3.13-.02-.07.13.11,1.28.54-.04.53c.14.11.3.25.46.48.09.13.2.34.29.58l.4-1.75.77,1.4Zm-1.48-13.41c.05.23.09.47.05.7-.08.4-.16.76-.29,1.1-.09.22-.24.52-.58.51-.03,0-.06,0-.1,0-.35-.06-.68-.4-.83-.56l-.6-.63,2.06-3.22.29,2.1Zm-1.58-8.86l-.21.67-1.25-1.27.09.41c.08.3.15.58.2.86.06.35.02.7-.12.92-.15.24-.31.47-.49.71l-1.08,1.52-.3-2.41c-.05-.39-.1-.75-.13-1.12-.04-.39.15-.71.44-.73.05,0,.11-.01.12-.31.02-.27.14-.41.19-.46l.58-.98s-.01-.07-.01-.11c0-.16.02-.32.03-.49l.04-.55,1.18-.22.33.53c.37.59.41,1.15.15,1.51.23.37.43.9.23,1.53Zm-.89-6.91c-.04.22-.09.42-.15.59-.09.23-.28.33-.5.3-.05,0-.09-.02-.14-.04-.36-.15-.71-.6-.96-1.23l-.28-.72,2.46-.78-.42,1.9Zm1.86.87l-.89-.07.18-2.39.33.25-.15-2.39-.19.63-1.57-2.1.41-.4c.1-.13.29-.38.66-.19.33.17.6.54.74.84.23.46.1.78.05.91-.01.03-.03.06-.04.1l-.03.1.49.63c.07-.07.16-.12.28-.12.28.02.58.08.87.14l.33.07.31.43s.32.55.21.98c-.03.1-.1.31-.26.41l.07.26-.51.05c-.06.01-.13.02-.19,0-.04,0-.08-.03-.13-.04-.07.15-.18.26-.31.37l-.06.06.48.37v.58s-.61-.29-.61-.29l.61.33v.53s-1.1-.04-1.1-.04Zm7.18,16.39l-.53,2.35-.64-2.89c-.06-.25-.14-.5-.24-.77-.02-.07-.05-.15-.07-.22l.13.99-.97-.18-1.4-2.42,1.89.11-.18-1.18,1.11,1.21c.72.79,1.11,2.08.9,3Zm-1.26-6.93l-.04-1.14c-.02-.43-.04-.85-.03-1.27,0-.4.24-.53.35-.59l.57-.46-.19-.81c-.02-.07-.04-.13-.05-.19-.06-.2-.15-.5-.08-.77.05-.22.16-.35.24-.46l.06-.08.52-.8.53,1.28c.08.15.2.41.22.68l.29-.57.92.95.07.36c.13.64-.01,1.28-.77,1.28l-.63,2.36-.59-2.35-.07.17.06.25c.04.14.1.36.08.6-.03.38-.07.75-.1,1.12l-.1,1.05-1.24-.61Zm2.83,4.39c-.1.04-.2.05-.32.03-.18-.03-.38-.14-.57-.31-.36-.33-.65-.84-.73-1.3-.17-.98.15-1.65.74-1.56.46.11,1.22.78,1.49,1.27l.25.47-.13.45c-.16.37-.38.78-.75.94Zm5.84.34s0,.06-.03.09c-.19.24-.4.34-.64.3-.19-.03-.4-.16-.62-.38l-.38-.38c-.13.22-.33.26-.66.2-.13-.02-.29-.06-.46-.1l.81,1.22-.59.58-.33-.09c-.24-.11-.44-.29-.61-.5.05.15.09.31.15.52l.48,1.84-1.15-.96c-.05-.04-.1-.08-.15-.11-.19-.14-.55-.4-.68-.91-.08-.3-.07-.55-.07-.74l-.02-1.09.77.59c.07.04.2.12.32.25-.05-.16-.09-.32-.1-.49l-.02-.3.42-.39-.31-1.03.56-.1,1.22.05-.38-.25,1.26-1.56.85,1.09.03.35c0,.12.02.28,0,.44.05.04.09.06.14.11.1.12.19.25.31.42l1.06,1.57-1.19-.25Zm1.14-7.47l-.62-.04-.47-2.31-.67.59-.09-1.82c-.02-.49.09-.81.31-.98l-.15-.72.45.59c.08-.01.15-.03.25-.02l.31.04.82,1.22-.26.23c.08.11.17.24.24.41.21.48.39.92.53,1.39.1.31.21.75.06,1.08-.16.37-.56.35-.72.34Z"/>
    </g>
  </g>
</svg>