<?xml version="1.0" encoding="UTF-8"?>
<svg id="Layer_1" data-name="Layer 1" xmlns="http://www.w3.org/2000/svg" viewBox="0 0 650 470">
  <defs>
    <style>
      .cls-1 {
        stroke-dasharray: 0 0 11.38 11.38;
      }

      .cls-1, .cls-2, .cls-3, .cls-4, .cls-5 {
        fill: none;
        stroke: #fff;
      }

      .cls-1, .cls-2, .cls-4, .cls-5 {
        stroke-linecap: square;
        stroke-miterlimit: 10;
      }

      .cls-6, .cls-7 {
        fill: #fff;
        stroke-width: 0px;
      }

      .cls-2 {
        stroke-dasharray: 0 0 12.8 12.8;
      }

      .cls-3 {
        stroke-linejoin: bevel;
        stroke-width: 2px;
      }

      .cls-7 {
        opacity: .3;
      }

      .cls-5 {
        stroke-width: 5px;
      }
    </style>
  </defs>
  <g>
    <line class="cls-4" x1="307.19" y1="323.74" x2="307.98" y2="317.8"/>
    <line class="cls-1" x1="309.48" y1="306.52" x2="335.78" y2="109.08"/>
    <line class="cls-4" x1="336.53" y1="103.44" x2="337.32" y2="97.49"/>
  </g>
  <g>
    <line class="cls-4" x1="146.32" y1="404.48" x2="143.01" y2="399.48"/>
    <line class="cls-2" x1="135.96" y1="388.79" x2="54.8" y2="265.92"/>
    <line class="cls-4" x1="51.28" y1="260.58" x2="47.97" y2="255.57"/>
  </g>
  <path class="cls-6" d="m324.44,355.16c-6.65-11.78-17.27-18.42-23.68-14.8l-142.69,80.54c-6.41,3.62-6.21,16.14.43,27.92,6.65,11.78,17.27,18.42,23.68,14.8l142.69-80.54c6.41-3.62,6.21-16.14-.43-27.92Zm-164.97,93.12c-6.35-11.25-6.73-23.1-.85-26.42,5.88-3.32,15.83,3.13,22.18,14.38,6.35,11.25,6.73,23.1.85,26.42-5.88,3.32-15.83-3.13-22.18-14.38Zm22.29-12.58c-5.4-9.57-13.43-15.75-19.69-15.79l139.24-78.6c5.88-3.32,15.83,3.13,22.18,14.38,6.35,11.25,6.73,23.1.85,26.42l-139.24,78.6c3.2-5.38,2.06-15.44-3.34-25.02Z"/>
  <path class="cls-7" d="m643.21,173.69c-6.65-11.78-17.27-18.42-23.68-14.8l-242.69,136.99c-6.41,3.62-6.21,16.14.43,27.92,6.65,11.78,17.27,18.42,23.68,14.8l242.69-136.99c6.41-3.62,6.21-16.14-.43-27.92Zm-264.98,149.58c-6.35-11.25-6.73-23.1-.85-26.42,5.88-3.32,15.83,3.13,22.18,14.38,6.35,11.25,6.73,23.1.85,26.42-5.88,3.32-15.83-3.13-22.18-14.38Zm22.29-12.58c-5.4-9.57-13.43-15.75-19.69-15.79l239.24-135.05c5.88-3.32,15.83,3.13,22.18,14.38s6.73,23.1.85,26.42l-239.24,135.05c3.2-5.38,2.06-15.44-3.34-25.02Z"/>
  <g>
    <g>
      <ellipse class="cls-5" cx="37.26" cy="195.12" rx="23.4" ry="42.98" transform="translate(-95.35 47.22) rotate(-31.07)"/>
      <polyline class="cls-3" points="17.8 157.07 13.35 199.98 29.79 159.55 42.31 231.53 43.22 165.98 62.14 229.75 65.14 200.89"/>
    </g>
    <path class="cls-6" d="m326.62,29.74c-12.62-22.09-32.67-34.47-44.69-27.6L14.36,155.06c-12.02,6.87-11.53,30.43,1.1,52.52,12.62,22.09,32.67,34.47,44.69,27.6L327.72,82.26c12.02-6.87,11.53-30.43-1.1-52.52ZM17.26,206.55c-12.06-21.1-12.9-43.39-1.87-49.69,11.03-6.3,29.81,5.74,41.86,26.83,12.06,21.1,12.9,43.39,1.87,49.69-11.03,6.3-29.81-5.73-41.87-26.83Zm41.79-23.89c-10.26-17.95-25.43-29.5-37.2-29.5L282.96,3.93c11.03-6.3,29.81,5.73,41.87,26.83,12.06,21.1,12.9,43.39,1.87,49.69L65.59,229.69c5.97-10.15,3.73-29.07-6.54-47.02Z"/>
  </g>
</svg>