<?xml version="1.0" encoding="UTF-8"?>
<svg id="Layer_1" data-name="Layer 1" xmlns="http://www.w3.org/2000/svg" viewBox="0 0 650 470">
  <defs>
    <style>
      .cls-1 {
        isolation: isolate;
        opacity: .3;
      }

      .cls-1, .cls-2 {
        fill: #fff;
        stroke-width: 0px;
      }

      .cls-3, .cls-4, .cls-5 {
        fill: none;
        stroke: #fff;
        stroke-linecap: square;
        stroke-miterlimit: 10;
      }

      .cls-4 {
        stroke-dasharray: 0 0 0 0 0 0 11.38 11.38;
      }

      .cls-5 {
        stroke-dasharray: 0 0 0 0 0 0 12.8 12.8;
      }
    </style>
  </defs>
  <g id="cigarette_cardboard">
    <g id="dash_2">
      <line class="cls-3" x1="307.19" y1="323.74" x2="307.98" y2="317.8"/>
      <line class="cls-4" x1="309.48" y1="306.52" x2="335.78" y2="109.08"/>
      <line class="cls-3" x1="336.53" y1="103.44" x2="337.32" y2="97.49"/>
    </g>
    <g id="dash_1">
      <line class="cls-3" x1="146.32" y1="404.48" x2="143.01" y2="399.48"/>
      <line class="cls-5" x1="135.96" y1="388.79" x2="54.8" y2="265.92"/>
      <line class="cls-3" x1="51.28" y1="260.58" x2="47.97" y2="255.57"/>
    </g>
    <path id="filter_small" class="cls-2" d="m324.44,355.16c-6.65-11.78-17.27-18.42-23.68-14.8l-142.69,80.54c-6.41,3.62-6.21,16.14.43,27.92,6.65,11.78,17.27,18.42,23.68,14.8l142.69-80.54c6.41-3.62,6.21-16.14-.43-27.92Zm-164.97,93.12c-6.35-11.25-6.73-23.1-.85-26.42,5.88-3.32,15.83,3.13,22.18,14.38,6.35,11.25,6.73,23.1.85,26.42-5.88,3.32-15.83-3.13-22.18-14.38Zm22.29-12.58c-5.4-9.57-13.43-15.75-19.69-15.79l139.24-78.6c5.88-3.32,15.83,3.13,22.18,14.38s6.73,23.1.85,26.42l-139.24,78.6c3.2-5.38,2.06-15.44-3.34-25.02h0Z"/>
    <g id="filter_enlarged">
      <path class="cls-2" d="m21.15,153.01c-14.4.79-19.27,19.54-10.85,41.78s26.99,39.69,41.39,38.9,19.27-19.54,10.85-41.78c-8.42-22.24-26.99-39.69-41.39-38.9h0Zm-7.59,41.6c-4.6-12.16-4.67-23.13-1-29.82l.51-.03.02.06.78-.1.75-.04-.02-.06,9.21-1.23c2.74-.36,5.56-.74,8.69.23.88.27,3.86,1.39,5.41,4.32.08.15.13.26.16.33-.08,0-.26,0-.6-.09l-13.36-3.55.42,1.58c.82,3.1,2.76,5.69,4.63,8.19,1.55,2.07,3.01,4.02,3.64,6.02.4,1.25.34,2.51-.15,3.35-.49.84-1.33,1.13-2.26.77-.46-.18-.88-.47-1.19-.83-.79-.92-.99-2.2-1.26-4.22-.18-1.4-.37-2.84-.92-4.38-1.38-3.82-4.5-6.59-6.88-7.36-1.99-.64-3.85-.24-5.68,1.21-2.42,1.91-3.67,4.61-3.71,8.01-.06,4.32,2.16,9.76,5.28,12.94l.63.65.49-.22c1.84-.83,2.46-2.32,1.83-4.43-.36-1.22-1.05-2.24-1.61-3.06-.24-.35-.46-.68-.63-.97-.95-1.68-.81-3.57-.2-4.49.76-1.15,2.18-1.45,3.57-1.67.57-.09,1.16-.12,1.58.23.33.28.71.97,1.03,1.87.3.86.54,1.76.78,2.7.42,1.64.86,3.34,1.75,5.11,1.14,2.28,2.84,4.19,4.78,5.38,2.25,1.38,4.48,1.54,5.83.42s2.05-3.26,2.05-6.08c.08,1,.24,2.04.48,3.12l.35,1.55,1.11.23c.21.04.42.08.62.11l-7.64,2.46c-.72.23-1.54.49-2.38.13-.91-.4-1.91-1.54-2.97-2.74-.48-.55-.98-1.12-1.5-1.65-1.46-1.5-3.21-2.43-4.36-2.3-.81.09-1.31.68-1.42,1.67-.27,2.42,1.78,5.39,3.61,7.2,1.14,1.13,2.33,2.11,3.52,2.91-1.27-.5-2.55-1.08-3.85-1.74l-.38-.2c-1.23-.63-2.5-1.29-3.7-1.37-1.44-.09-2.8.86-2.6,3.21.1,1.1.53,2.37,1.32,3.88,1.8,3.46,4.59,6.65,7.64,8.75,2.4,1.65,5,2.72,7.94,3.26,2.29.42,4.48.48,6.6.54,1.62.05,3.29.09,4.96.3,3.17.39,6.51,1.37,9.92,2.89-.98.75-2.44.74-3.99.66-6.03-.32-12.34-1.36-18.76-3.08l-1.56-.42,1,2.15c1.37,2.93,3.76,5.54,6.4,6.99,2.22,1.22,4.3,1.51,6.13,1.76,2.93.41,6.1.84,9.07.68,1.31-.07,2.58-.27,3.77-.63-2,1.76-4.51,2.81-7.5,2.98-12.6.7-28.85-14.58-36.22-34.05h.04Zm24.02-22.47c-1.4.37-2.98.79-3.15,3.08-.08,1.11.22,2.35.49,3.45l.11.46c.84,3.54,1.04,7.9-.93,9.53-.94.78-2.51.65-4.1-.32-1.25-.77-2.33-1.96-3.02-3.35-.62-1.23-.97-2.59-1.34-4.02-.26-1.01-.53-2.05-.91-3.13-.67-1.89-1.57-3.36-2.62-4.24-1.03-.87-1.96-.99-2.64-.95-.24,0-.44.04-.61.07-1.62.25-3.29.62-4.29,2.14-1.04,1.57-1.17,4.81.62,7.96.29.5.6.97.88,1.37.38.56.74,1.09.85,1.47.16.55-.11,1.07-.78,1.5-2.09-2.55-3.15-6.2-3.11-8.7.05-3.47,1.76-5.55,3.2-6.68,1.52-1.2,3-1.55,4.51-1.07s3.54,2.28,4.31,4.44c.37,1.02.52,2.17.67,3.38.29,2.24.62,4.77,2.55,7.02.75.87,1.64,1.53,2.59,1.89,1.59.62,3.02.17,3.82-1.19.8-1.37.86-3.48.18-5.65-.93-2.92-2.76-5.37-4.53-7.74-1.18-1.58-2.31-3.09-3.05-4.59l10.87,2.89c.31.08.93.25,1.44.07-.44.51-1.21.71-2,.92h0Zm4.52.54c.06-.23.1-.49.14-.75.05-.33.1-.64.2-.75.04-.04.09-.06.15-.06.33-.02,1.04.45,2,1.33,1.18,1.09,1.3,1.51,1.31,1.58.04.23-.19.51-1.54.55-3.99.15-6.48,3.93-6.5,9.29-.1-1.3-.32-2.71-.68-4.2l-.12-.49c-.22-.88-.42-1.72-.37-2.3.09-1.17,1.1-1.44,2.27-1.75,1.26-.33,2.68-.71,3.14-2.45Zm19.68,45.57l-.07-.09c-.54.89-1.1,1.82-1.91,2.21-.17.08-.36.15-.54.21-.25.08-.49.17-.72.29-.4.21-.73.49-1.05.77-.42.36-.81.71-1.28.77l.06.15c-3.7,1.29-8.26.68-12.7.06-1.75-.24-3.57-.49-5.42-1.51-.92-.5-2.03-1.35-2.99-2.48,5.84,1.44,11.57,2.32,17.07,2.61,1.87.1,3.81.09,5.08-1.18.17-.17.71-.82.51-2.03-.1-.63-.38-1.27-.8-1.83-.57-.76-1.17-1.04-1.46-1.17-3.85-1.8-7.6-2.93-11.17-3.37-1.75-.22-3.45-.27-5.1-.31-2.07-.06-4.2-.12-6.38-.52-2.65-.48-4.94-1.42-7.02-2.85-2.46-1.7-4.68-4.22-6.08-6.91-.45-.86-.69-1.53-.74-2-.08-.93.61-1.36,1.33-1.32.85.06,1.86.58,2.94,1.14l.39.2c5.09,2.61,9.99,4,14.55,4.14h.08c.72.02,1.4.04,1.98.48.3.22.55.71.57.82-.03.06-.15.13-.63.12-4.1-.08-8.5-1.23-13.08-3.41-1.42-.67-5.18-2.47-5.65.76l-.16,1.1,1,.93c3.3,3.07,6.44,3.6,9.49,4.12.5.08.99.17,1.48.26,1.27.25,2.61.6,3.9.95,2,.53,4.07,1.09,6.04,1.27,2.8.26,6.46-.21,7.96-3.97.8-2.01.64-4.5-.44-6.86-1.14-2.49-3.32-4.65-5.42-5.38-1.87-.65-3.37-.17-4.46.31-.76.34-1.49.75-2.2,1.15-1.44.82-2.8,1.59-4.44,1.76-2.88.3-6.54-1.44-9.8-4.66-1.04-1.03-2.11-2.55-2.02-3.33.02-.17.08-.37.38-.4.58-.07,1.62.52,2.43,1.35.43.44.86.93,1.32,1.46,1.25,1.43,2.67,3.04,4.24,3.73,1.43.63,2.55.27,3.44-.02l12.17-3.91c1.02-.33,1.94-.55,2.9.02.59.36,1.11.95,1.58,1.81.89,1.59,1.46,3.87,1.43,5.67-.02.94-.11,1.84-.22,2.8-.23,2.14-.47,4.35.23,7.12.39,1.57,1.05,2.94,1.89,3.95.76.91,1.64,1.5,2.49,1.65,1.03.18,1.91-.31,2.32-1.27.59-1.4.38-3.39.19-5.15l-.02-.18c-.47-4.43-.66-8.75-.55-12.84l.02-.55-.33-.61c-.96-1.79-2.25-1.97-2.94-2.06-.1,0-.2-.03-.29-.04-.6-.11-1.17-.7-1.54-1.18-.81-1.03-1.47-2.5-1.66-3.68-.39-2.44.43-4.4,1.09-5.97l.31-.73-.67-1.03c-.75-1.15-1.71-2.01-2.71-2.4-1.3-.51-2.52-.22-3.19.75-.66.96-.89,2.3-1.11,3.59-.09.56-.18,1.09-.3,1.57-.68,2.74-2.63,4.33-5.09,4.29-.74-5.51,1.38-9.73,5.21-9.8.99-.03,3.08-.09,2.64-2.73-.37-2.25-2.27-4-2.99-4.66-2.22-2.04-3.76-2.61-4.57-1.69-.12.13-.21.29-.28.46-.11-.48-.32-1.08-.7-1.79-1.65-3.13-4.44-5.5-7.66-6.5-3.47-1.08-6.45-.68-9.33-.29l-7.42.99c2.07-1.98,4.71-3.16,7.9-3.33,12.6-.7,28.85,14.58,36.22,34.05,3.84,10.15,4.52,19.46,2.5,26.16h-.03Zm-21.23-17.05c-1.19-.89-2.25-.96-3.12-.99,1.04-.37,1.98-.91,2.9-1.44.68-.39,1.39-.79,2.11-1.11.9-.4,2.1-.79,3.47-.32,1.22.42,2.48,1.62,3.08,2.92.59,1.29.64,2.82.12,4.11-1.22,3.07-4.36,3.45-6.78,3.22-.06,0-.12,0-.18-.02.33-.1.66-.3.85-.75.27-.61.19-1.55-.21-2.57-.48-1.22-1.34-2.4-2.24-3.08v.03Zm-11.49,3.58c-1.46-.31-2.92-.75-4.34-1.62.62.02,1.54.32,2.76.9.53.25,1.05.49,1.57.71h.01Zm23.45-12.12c1.12,1.43,2.34,2.33,3.44,2.53.11.02.23.04.36.05.03,0,.06,0,.09,0-.05,3.84.15,7.86.59,11.97l.02.18c.17,1.55.32,3.02-.05,3.91-.18.42-.6.65-1.04.57-.26-.04-.49-.18-.67-.41-.29-.35-.55-.96-.74-1.72-.52-2.07-.32-3.91-.11-5.85.1-.97.21-1.98.23-3.05.04-2.51-.78-5.66-2.09-8.03-.91-1.64-2.03-2.9-3.24-3.63-.95-.57-1.8-.72-2.54-.68-.39.02-.75.09-1.08.18.86-.88,1.51-2.08,1.88-3.56.14-.57.24-1.16.34-1.74.19-1.15.38-2.23.85-2.91.34-.5,1.03-.67,1.67-.42.03,0,.06.02.08.04-.64,1.65-1.19,3.66-.76,6.35.33,2.03,1.39,4.4,2.79,6.18l-.02.03Z"/>
      <path class="cls-2" d="m326.62,29.94c-12.51-22.16-32.49-34.65-44.55-27.84L13.7,153.59c-12.06,6.8-11.69,30.37.82,52.52,12.51,22.16,32.49,34.65,44.55,27.84L327.44,82.46c12.06-6.8,11.69-30.37-.82-52.52ZM16.32,205.1c-11.95-21.16-12.67-43.46-1.6-49.7,11.06-6.24,29.78,5.89,41.72,27.06,11.95,21.16,12.67,43.46,1.61,49.7-11.06,6.24-29.78-5.89-41.72-27.05h-.01Zm41.92-23.66c-10.17-18.01-25.27-29.63-37.04-29.7L283.1,3.9c11.06-6.24,29.78,5.89,41.72,27.05,11.95,21.16,12.67,43.46,1.6,49.7L64.53,228.49c6.03-10.11,3.88-29.05-6.29-47.06h0Z"/>
    </g>
    <path id="roll" class="cls-1" d="m643.21,173.69c-6.65-11.78-17.27-18.42-23.68-14.8l-242.69,136.99c-6.41,3.62-6.21,16.14.43,27.92,6.65,11.78,17.27,18.42,23.68,14.8l242.69-136.99c6.41-3.62,6.21-16.14-.43-27.92Zm-264.98,149.58c-6.35-11.25-6.73-23.1-.85-26.42s15.83,3.13,22.18,14.38,6.73,23.1.85,26.42-15.83-3.13-22.18-14.38Zm22.29-12.58c-5.4-9.57-13.43-15.75-19.69-15.79l239.24-135.05c5.88-3.32,15.83,3.13,22.18,14.38s6.73,23.1.85,26.42l-239.24,135.05c3.2-5.38,2.06-15.44-3.34-25.02h0Z"/>
  </g>
</svg>