<?xml version="1.0" encoding="UTF-8"?>
<svg id="Layer_1" data-name="Layer 1" xmlns="http://www.w3.org/2000/svg" viewBox="0 0 82 82">
  <defs>
    <style>
      .cls-1 {
        fill: #939393;
        stroke-width: 0px;
      }
    </style>
  </defs>
  <g id="Ellipse_9" data-name="Ellipse 9">
    <path class="cls-1" d="m41,81.07C18.91,81.07.93,63.09.93,41S18.91.93,41,.93s40.07,17.97,40.07,40.07-17.97,40.07-40.07,40.07Zm0-75.14C21.66,5.93,5.93,21.66,5.93,41s15.73,35.07,35.07,35.07,35.07-15.73,35.07-35.07S60.34,5.93,41,5.93Z"/>
  </g>
  <path class="cls-1" d="m30.16,70.23c1.71.64,3.49,1.12,5.33,1.45,0,0,0,.01.01,0,1.63.3,3.31.46,5.02.48h.06c.87-.07,1.74-.19,2.61-.33.16-.03.32-.05.48-.08,15.81-2.88,26.34-18.09,23.46-33.91-.1-.56-.22-1.11-.36-1.66-3.5-14.33-18.01-23.13-32.34-19.62-12.08,2.97-19.97,14.52-18.34,26.85.02.22.05.44.09.65.88,5.82,3.98,10.94,8.72,14.42,4.74,3.48,10.55,4.91,16.35,4.02,10.57-1.52,18.04-11.37,16.68-21.94-1.01-8.55-7.98-14.97-16.57-15.27-.69-.04-1.38-.03-2.07.02-4.01.3-7.66,2.15-10.28,5.2-2.62,3.05-3.9,6.94-3.59,10.94.02.28.04.56.08.84.13.99.37,1.94.71,2.84.4,1.07.95,2.07,1.62,2.98,2.62,3.58,7.07,5.67,11.79,5.06,5.03-.62,8.82-4.75,9.01-9.8.27-3.98-2.36-7.55-6.23-8.48-2.65-.74-5.52.38-6.96,2.7-1.06,1.59-1.05,3.63.07,5.29.46.67,1.15,1.12,1.96,1.27.8.15,1.61-.02,2.25-.46.1-.05.19-.12.28-.2.35-.31.56-.73.59-1.2.03-.46-.12-.91-.49-1.32-.31-.25-.72-.34-1.16-.23-.37.14-.49.57-.56.98-.02.11-.01.21.01.31-.36.12-.65.03-.84-.08-.41-.23-.69-.72-.75-1.31-.15-1.71.96-3.26,2.62-3.68,1.41-.33,2.83-.1,4.02.54.55.3,1.06.68,1.49,1.14.64.68,1.13,1.53,1.37,2.5,1.01,4.15-1.39,8.36-5.46,9.61-5.2,1.54-10.75-1.25-12.63-6.33-2.26-6.32.82-13.31,7-15.93,7.19-3.14,15.85.29,19.29,7.64,3.72,7.96.31,17.97-7.61,22.31-8.66,4.74-20.17,1.67-25.65-6.84-5.09-8.19-4.15-18.92,2.28-26.1,4.95-5.73,12.37-8.51,19.91-7.45,7.59.66,14.43,4.96,18.32,11.53,6.79,10.95,4.33,25.61-5.74,34.09-5.62,4.82-13.06,7.16-20.44,6.4-5.36-.35-10.41-2.18-14.68-5.26,1.42,1.2,2.95,2.28,4.57,3.21,0,.02.02.02.03.02,1.46.84,2.99,1.56,4.59,2.16l.08.03Z"/>
</svg>