<?xml version="1.0" encoding="UTF-8"?>
<svg id="Layer_1" data-name="Layer 1" xmlns="http://www.w3.org/2000/svg" viewBox="0 0 82 82">
  <defs>
    <style>
      .cls-1 {
        fill: #939393;
        stroke-width: 0px;
      }
    </style>
  </defs>
  <path class="cls-1" d="m66.01,10.99c-7.01-5.83-15.88-9.04-24.99-9.04h-.01C19.47,1.95,1.95,19.46,1.94,41c0,5.89,1.36,11.8,3.93,17.09,2.39,4.96,5.9,9.44,10.15,12.94,7.29,6.07,16.15,9.03,24.96,9.03,11.21,0,22.34-4.79,30.05-14.05,13.78-16.55,11.53-41.23-5.02-55.01Zm-10.18,47.9l6.19,11.42c-1.2.86-2.47,1.66-3.77,2.37l-6.05-11.16c1.29-.76,2.5-1.64,3.63-2.63ZM23.47,9.51l5.88,10.83c-3.51,1.84-6.5,4.52-8.7,7.8l-6.22-11.47c2.62-2.86,5.66-5.27,9.04-7.16Zm2.13-1.09c1.34-.64,2.74-1.2,4.15-1.66l6.14,11.32c-1.49.28-2.95.71-4.37,1.27l-5.92-10.93Zm-6.93,32.82c.01-11.88,9.69-21.56,21.57-21.57,11.89,0,21.57,9.68,21.57,21.57s-9.68,21.57-21.57,21.57-21.57-9.68-21.57-21.57Zm37.45,32.53c-3.56,1.65-7.34,2.7-11.24,3.11l-6.6-12.15c4.05.35,8.11-.37,11.81-2.08l6.04,11.13Z"/>
</svg>