<?xml version="1.0" encoding="UTF-8"?>
<svg id="Layer_1" data-name="Layer 1" xmlns="http://www.w3.org/2000/svg" viewBox="0 0 80.14 80.14">
  <defs>
    <style>
      .cls-1 {
        fill: #fff;
        stroke-width: 0px;
      }
    </style>
  </defs>
  <path id="Path_6431" data-name="Path 6431" class="cls-1" d="m40.07,0C17.94,0,0,17.94,0,40.07c0,22.13,17.94,40.07,40.07,40.07s40.07-17.94,40.07-40.07h0C80.11,17.95,62.19.03,40.07,0m.33,75.13l-.19-.19.61-.67c.16-.18.32-.36.5-.53.3-.26.74-.28,1.05-.04l.1.06,1.1.52-.97.75c-.73.05-1.47.09-2.21.09M14.71,16.63c.13.01.26.04.39.07,0,0-.01-.02-.02-.03-.06-.15-.11-.31-.14-.48l-.11-.46c.48-.5.97-.98,1.48-1.45.12.03.24.09.34.16.46.4.72.99.7,1.6l.39.55h-.21l.53.68c.21.2.34.48.35.78,0,.13-.03.25-.06.37l.18.22s.02.03.04.05c.06-.06.11-.12.17-.18s.12-.12.18-.19l.6-.67,1.34,1.75-.05.32c-.04.29-.14.57-.31.81.03.04.05.09.07.14l.57-.5c.09-.07.19-.14.29-.2.04-.02.08-.04.12-.06.3-.43.86-.59,1.35-.38l-.08-.42v-.02l-.02.05-.76-.32c-.18-.06-.35-.15-.5-.25-.25-.2-.37-.52-.3-.83-.02-.04-.04-.08-.06-.12l-.66-1.55.5.17c.15-.3.45-.5.78-.52.05,0,.1-.02.15-.03l1.11-.27-.21,1.3s-.02.09-.02.14l1.11.38s.07-.03.11-.03c.26-.04.52.03.72.2h0c.12.11.21.25.27.4l1.18-.11.19,1.21-.71.75c.1.26.11.54.01.8-.02.06-.03.13-.05.2l-.08.41c.23-.08.47-.13.72-.17.09-.01.19-.03.28-.05l.58-.12.04.09.43-.54,1.22,1.35-2.23,2.01c-.03.2-.1.39-.2.57l.57,1.78.62.65c.19.17.32.4.37.66.06.45-.16.9-.57,1.12-.2.08-.41.13-.63.15l-.14.02-1.59.28.9-1.55c.07-.13.14-.25.22-.36.07-.1.14-.19.23-.28l.43-.5-.62.12c-.08.02-.17.02-.26.02-.25,0-.5-.09-.67-.27-.28-.35-.37-.81-.24-1.24l-.2-.84c-.04-.15-.08-.31-.1-.47-.02-.16-.04-.32-.05-.48l-.45-.17.38-.85s.06-.1.08-.15c.03-.06.07-.12.11-.19l-1.04-1.51c.09.17.13.35.13.54-.02.22-.07.43-.13.63l-.43,1.8-.52.06c-.06,0-.11.01-.17.01-.17,0-.33-.04-.48-.11l-.63.12s.05.01.08.02c.22.08.42.22.58.39.23.26.28.63.12.93l-.19.46-.53.06c-.24.02-.47-.03-.68-.15-.1.07-.2.13-.31.18l-.07.04c.24.34.36.75.34,1.17v.56s-.51.17-.51.17c-.16.06-.33.09-.5.1-.18,0-.35-.05-.5-.15-.4-.27-.43-.68-.48-1.35l-.05-.73h0l-1.06-1.06.94-.59c.1-.07.2-.12.3-.18l-.42-.3.75-.7-.33-.28c-.23.02-.46-.05-.63-.2-.25-.21-.39-.52-.38-.84v-.26c-.06,0-.1,0-.15-.02h0c-.44-.1-.77-.46-.82-.91l-.1.04-.93,1.07-.78-.85-.04-.24-.55-.08-.98,1.73-1.42-.73.43-.87c.07-.14.14-.27.2-.41.03-.07.06-.15.08-.22.05-.17.12-.33.2-.48.11-.19.22-.38.35-.56l.21-.32c.01-.17.04-.33.08-.49l.1-.39c.07-.08.13-.16.2-.23l.63.07Zm8.48-7.3l.58.14.02,1.7c.02.32-.11.64-.33.87-.22.2-.5.31-.8.31h-.06c-.47-.03-.89-.3-1.1-.73-.22-.41-.22-.89,0-1.3.56-.35,1.12-.69,1.7-1m14.45-4.24l-.48.66-.46.14-.66.02c-.11.25-.31.46-.56.58-.05.03-.12.07-.17.1l-.34.23c.22.11.43.25.62.4.08.06.15.12.23.17l.49.33-.44,1.22h-.25s0,.82,0,.82c0,.08,0,.16,0,.23.04.28,0,.56-.09.82-.2.37-.6.59-1.02.56-.05,0-.1,0-.14,0-.24,0-.48-.08-.67-.23l-.25-.22-.03-.36c-.01-.29.1-.58.3-.79.12-.12.25-.23.42-.38l.61-.52c-.13,0-.27-.01-.4-.03-.22.39-.59.68-1.02.81l-.87,1.67h0l-.03.9c.02.25-.05.51-.2.72h0c-.19.22-.45.37-.73.43l-1.52,3.31-.72-1.31c-.24-.35-.27-.81-.1-1.19.2-.37.57-.61.98-.64l1.1-.17c-.07,0-.14-.02-.21-.04-.2-.08-.38-.2-.55-.33l-1.43-1.01,1.72-.46c.15-.04.29-.08.42-.11.12-.02.23-.03.35-.04l.66-.05-.52-.35c-.3-.17-.48-.49-.49-.83.02-.36.22-.7.52-.9l-.06-.42c-.2-.76.25-1.55,1.01-1.75.01,0,.02,0,.03,0l-.03-.07.93-.18c.05-.01.11-.03.16-.05.06-.02.14-.04.21-.06l.22-1.2c1.13-.19,2.27-.32,3.43-.41m17.55,3.35c-.26-.03-.51-.1-.75-.21l-.39-.17-.02-.15c.39.17.77.34,1.15.52m14.79,39.27c-.07-.3,0-.62.18-.88.22-.31.53-.55.88-.69.32-.09.66-.13,1-.11l.85-.06-.05.85v.24c.11.47-.08.95-.46,1.23-.18.1-.26.17-.2.8l.07.85-.85-.03c-.37.03-.73-.13-.96-.41-.18-.29-.22-.65-.1-.98.03-.07.05-.15.04-.23-.23-.11-.39-.33-.41-.58m-5.65,5.06l-.16-2.24-.13.18v.24c.04.2.03.39-.04.58-.14.38-.28.76-.43,1.13l-.41,1.06-1.47-.4.24-1.13c.09-.42.18-.85.29-1.26.1-.3.32-.53.62-.65l.88-.56-.03-.78c0-.07-.01-.13-.02-.18-.05-.26-.02-.53.1-.76.11-.19.26-.36.43-.5l.1-.09.89-.88.35,1.19c.1.2.13.42.1.64l.53-.62.96.79v.35c.02.76-.58,1.39-1.34,1.42l-1.47,2.47Zm1.44,2.92l-.29.47c-.32.45-.74.82-1.24,1.07-.13.06-.28.09-.43.09-.24,0-.47-.08-.67-.22-.39-.26-.62-.7-.61-1.17-.06-.84.55-1.58,1.39-1.68.66.09,1.25.46,1.63,1.02l.21.42Zm-9.25-14.66l-1.52-1.83.65-.47c.23-.26.58-.38.92-.31.34.12.62.38.75.72.11.31.04.66-.18.9-.02.03-.05.07-.08.11l-.07.1.47.55c.11-.09.25-.15.4-.16.37-.02.74-.02,1.12,0h.42s.3.39.3.39c.16.29.17.64.02.94-.11.19-.26.35-.45.46l.02.25-.68.14c-.08.03-.17.04-.25.04-.05,0-.11,0-.16-.02-.15.17-.32.31-.51.43l-.1.07.54.28-.15.57-.73-.19.72.23-.13.53-1.45.15-1.15.08.88-2.42.36.19.44-2.36-.42.66Zm-2.99,10.05l-.45.7-1.31-1.05v.4c.04.27.05.55.04.82-.02.35-.16.68-.4.93-.26.27-.53.52-.83.79l-1.83,1.71.25-2.36c.04-.38.08-.74.12-1.09.07-.4.37-.72.77-.81.07-.01.14-.03.25-.33.07-.2.2-.37.38-.5l1.02-1.07s0-.07.01-.11c.05-.17.11-.32.17-.49l.2-.56,1.62-.42.29.47c.32.47.24,1.11-.2,1.48.28.47.24,1.06-.1,1.49m-13.71,22.83c-.13.16-.27.32-.43.46l-.74.74h-.14l-.44-.75c-.21-.41-.23-.89-.07-1.32.1-.31.34-.57.65-.69.41-.12.84,0,1.12.32.28.36.3.86.04,1.24m-15.1-7.37c-.1.03-.21.04-.32.04-.24,0-.48-.08-.68-.2l-.75-.42.51-.68.6.45-.57-.49c.31-.59,1.05-.82,1.64-.51.03.02.06.03.09.05h.02s.03-.39.03-.39l1.22.91c.25.17.77.51.56,1.1-.15.4-.42.75-.76,1l-1.33,1.01.17-2.14c-.12.12-.27.2-.43.25m-3.14-1.17l-.08,1.22-.74.03-1.03-.04.06-.88s.01-.09.01-.14c-.09.02-.19.04-.28.06l-2.66.38,1.83-1.51c-.25-.26-.33-.63-.23-.97l-.82.66-.59.42-1.27-1.63.76-.42c.24-.21.57-.29.89-.22.21.07.4.19.56.35l.21.17.48-.03v-.05s.13.04.13.04l1.94-.11c0-.06,0-.12,0-.17l-.46-.3.89-.91-.55.26-.53-1.22.31-.43c.09-.14.19-.27.31-.38.14-.13.31-.21.49-.26l1.03-.3.03,1.03c.01.13,0,.27-.02.4l.09-.03s.07-.02.1-.03l.55-.2.19.26.41-.48.75,2.08-.64,1.01-.47-.25c0,.06,0,.11-.01.16l.41.13-.03.73s-.02.08-.02.12c-.03.29-.14.56-.33.78h0c-.17.17-.38.27-.62.3h0s0,0,0,0c-.1.01-.2.02-.29.02-.28.02-.5.03-.74.04v.29Zm-7.91-5.89l.48-.21.9-1.06.13.62,1.77-.76v3.04l-1.48-.73c0,.06,0,.12,0,.18h0c-.07.48-.39.88-.84,1.04-.07.02-.14.03-.21.03-.26-.01-.51-.11-.71-.26l-.09-.06-.94-.5.79-.72.41-.49-.22-.11Zm-5.13-6.12c-.05.35-.26.66-.58.82-.27-.61-.52-1.22-.76-1.85.25-.1.53-.09.77.01,0,0,0,0,.01,0v-.04c-.11-.29-.08-.62.08-.88.13-.18.28-.34.44-.49l.66-.67.95.98-.22.61c-.06.2-.14.39-.23.58-.14.25-.38.42-.66.47l-.49.19c.02.09.02.17.02.26m-1.19-25.67c.32,0,.63.16.81.43l.64.61-.68.57c-.17.17-.38.3-.62.37h0c-.07.02-.14.03-.21.03-.23-.01-.45-.1-.63-.25h-.01c.19-.59.39-1.17.6-1.74.03-.01.07-.02.1-.03m.25,20.07l1.62-.72-1.72,4.68-.72-1.8c-.47-1.17-.29-1.65.83-2.15m.47-9.68v-.05s-.76.12-.76.12l-.77.07-.11-1.82.9-.03c.18,0,.37-.01.55,0h0c.19,0,.38.08.51.23l.05-.22,2.16.5-.38,1.69-2.15-.48Zm.37-4.52l-.35-.79c-.08-.15-.14-.31-.19-.47h0c-.1-.39.11-.79.49-.94l.71-.4.65,1.18.31.68-1.62.73Zm-2.11-1.35l-.51.33c.06-.27.12-.55.19-.82l.32.49Zm-.16,16.89c-.05-.21-.11-.41-.16-.62.09.16.13.34.14.52l.02.11Zm3.88-3.69l.49-1.79-.25-.29.53-.45c-.09-.16-.15-.33-.15-.52,0-.32.15-.63.4-.83l.52-.48.51.5c.56.39.82,1.09.64,1.75-.12.29-.33.54-.6.71l-.18,1.88-1.91-.47Zm7.43-17.9c-.18.26-.46.43-.77.47l-.85.29-.2-.87-.28-1.9,1.03.19.12.02,1.11-.45v1.09c.11.39.06.82-.16,1.17m6.58.6l-.6.93.09.31c.29.06.53.28.63.56.07.28.07.57-.02.85,0,.03-.01.07-.02.1l.17-.03.07.86c.08.34-.02.69-.26.94-.17.15-.38.25-.6.31l-.58.22-.66-.73.06-.55c.05-.22.15-.43.3-.6-.16-.08-.31-.18-.44-.3l-.3.47-1.12-3.58.67.05.04-.39.73.17-.73-.18s.01-.06.02-.09l-.76-.1,2.16-2.48.33.87.53-.25-.25,1.7c-.04.28-.07.52-.13.76-.01.04-.03.08-.06.12l.73.05Zm7.5-10.93l.28-.03.1-.23.22.19.17-.02c.32-.09.66,0,.9.24.13.16.23.34.28.54l.48,1.27-1.04-.1-.37.84-1.53-.84.04-.1c-.12.08-.26.12-.41.12-.21,0-.41-.08-.57-.22-.32-.19-.47-.58-.36-.93.06-.18.14-.36.23-.52l.47-.95,1.08.77v-.02Zm9.4-3.49c.29.29.46.68.47,1.09.21.12.38.3.47.53.08-.12.17-.22.27-.32.05-.05.11-.11.16-.16l.44-.48-.82.05-.2-.5c-.22-.3-.26-.69-.1-1.03.12-.2.29-.37.48-.5l.56-.48,1.13.89-.45.91.06-.07.56,4.6-1.59-1.48-.85.87-.64-.56-.43,1.01-1.52-.35.03-.28-.61-.35c-.21-.13-.39-.31-.51-.52-.1-.22-.19-.44-.26-.67l-.27-.77.4-.34c.29-.27.7-.36,1.08-.24v-.02c.17-.14.35-.27.54-.38l.36-.23.28-1.21.95.99Zm-.65-4.42l2.12-.88.06,1.06c.1.35-.04.73-.34.94-.15.09-.31.16-.48.22l-.87.34-.49-1.67Zm10.97,4.42l.21-.5c.06-.37.31-.67.66-.8h0c.23-.05.46-.06.69-.02l.73.06.16,1.34-.86.39-.08.03h.08l-2.81,3.58-.12-2.21c-.03-.23-.02-.47.04-.7h0c.16-.6.75-.6,1.03-.59h.23l.65-.03-.61-.54Zm6.56,9.13c.07-.27.24-.49.48-.63.59-.31,1.32-.1,1.65.48l.09.11,1.13,1.28-1.93-.04c-.21,0-.38,0-.56-.02-.17-.02-.33-.07-.47-.16l-.62-.34.23-.68Zm0-9.14c.13-.21.29-.39.49-.54.35-.25.83-.18,1.1.15l.45.39-.22.59c-.08.14-.17.27-.28.4l-.63.82-.69-.77c-.33-.24-.42-.69-.21-1.05m5.18,10.76c.24-.06.5-.08.75-.04.22.03.61.18.67.83.08.38-.13.77-.5.9-.17.05-.33.08-.51.1l-1,.13-.03.17-.99-.51c-.51-.24-.71-.57-.6-.99.05-.17.12-.34.21-.5l.34-.7,1.46.49-.04.23c.07-.05.15-.09.24-.11m3.16-7.05l.34-.26c.39.45.77.91,1.14,1.38l-.71.09-.62.41c-.21.15-.45.23-.71.24-.1,0-.2-.02-.29-.05-.43-.19-.74-.56-.85-1.01l-.16-.4.74-.96.68.41.47.4-.02-.24Zm1.93,11.86l-.4.57c-.07.12-.16.22-.28.29.02.22,0,.45-.06.67l-.02.12.58-.18.64,1.06-1.23,1.41,1.2.39-.74,1.32.78.33-.16.57.68-.35.25,2.49h-.14s.41.4.41.4l-.14.06c.26.23.43.54.49.88l.18.81-2.64.28.12-.63-.11-.08c-.13-.1-.24-.22-.33-.36l-1.31.48.84-1.47h0s.35-.63.35-.63c0-.02,0-.04-.01-.06l-.34-.08c-.07-.02-.14-.04-.21-.05-.11-.01-.22-.02-.33-.03l-1.15-.09v-.04c-.09.04-.21.06-.32.06-.07,0-.14,0-.21-.02l-1.01-.19.62-1.13c.12-.22.24-.44.36-.65.15-.27.41-.46.71-.53.47-.06.92.24,1.04.7h0s.01.08.02.12c.1,0,.2,0,.3.03l.37-.67-1.42-1.09.83-.99.22.03-.75-1.59.39-.12-1.44-2.1.78.06c.02-.15.07-.29.17-.4.24-.28.5-.55.78-.8l.31-.29.47.06c.32.09.58.34.68.65.06.21.06.43,0,.64l.2.17Zm6.9,10.46c-.23-.11-.42-.27-.58-.47-.19-.31-.2-.7-.02-1.01.02-.05.05-.11.07-.17l.46-1.47c.11,1.04.16,2.1.17,3.17l-.1-.05Zm-1.02-8.33l-1.49,2.73-.56-.9c-.25.14-.51.25-.78.34-.11.04-.21.08-.32.12l-.81.33-.2-.85c-.21-.62.12-1.3.74-1.51.05-.02.1-.03.15-.04.23-.06.45-.15.66-.27.53-.35,1.18-.44,1.78-.24l.82.29Zm-1.71-3.23c-.06.45-.33.85-.74,1.07-.05.03-.09.06-.13.09l-.44.44.33.35-.98.43c-.2.09-.41.15-.63.16-.19,0-.38-.05-.54-.16-.37-.33-.54-.83-.45-1.31l.07-1.78,1.07,1.14,1.39-1.63,1.07.77-.04.43Zm-9.82,14.59l-.88-.81.08-.5c.02-.63.47-1.17,1.09-1.28l.03-.03c.1-.09.21-.17.33-.24.2-.1.41-.16.63-.18.37-.03.71.18.85.51l.15.3c.29-.28.71-.38,1.1-.25l1.1.3-.71.89c-.37.46-.66.83-1.11.83-.17,0-.34-.04-.49-.12l-.91-.4.1-.12-1.36,1.1Zm-1.87-1.15l-.47-.92c-.2-.38-.22-.84-.04-1.24.19-.41.56-.71,1.01-.81.06-.03.12-.06.18-.1.07-.04.14-.08.21-.12l.43-.22,1.15.93-2.47,2.48Zm.45.31l-.11,3.67-.99-.38c-.4-.11-.71-.43-.82-.83-.03-.49.2-.96.61-1.25l1.31-1.21Zm-.22-15.35c-.12.29-.38.51-.69.57l-.95.39-.17-1.13c-.02-.15-.02-.3,0-.44.02-.14.06-.29.11-.42l.32-1.01.82.5c.3.1.53.35.62.65.07.3.05.61-.05.9m.1,3.82l-1.95,1.48-2.52-4.6,4.46,3.12Zm-4.22,3.57c.06-.48.4-.87.86-1,.21-.06.44-.08.66-.04l.88.02-.06,1.31-.35.23v.28s.09.19.09.19l.37-.35,1.04.94-.79,1.76c.31.13.54.4.61.73h0c.06.39,0,1.08-1.03,1.31l-.29.06-.48-.23-.62-.36.76-1.47-.17-.42s-.03-.06-.05-.1c-.1-.17-.16-.36-.19-.55l-.75.5-.34-1.05c-.17-.32-.13-.72.11-.99-.04-.06-.08-.13-.12-.19.02.18-.02.37-.12.53-.16.26-.4.47-.67.61h0c-.11.06-.22.08-.34.08-.19,0-.38-.06-.54-.16l-.94-.4.67-.92c.09-.12.2-.23.32-.33.12-.08.24-.16.38-.22l.85-.44.28.77s0-.05,0-.08m-5.04,7.84l-.39.07-.32-.28c-.1-.09-.23-.1-.62-.1-.33.02-.66,0-.97-.09-.04-.01-.07-.03-.1-.04v.15s-1.8.69-1.8.69c.13.31.1.67-.08.95-.19.29-.51.46-.85.47-.29-.01-.57-.11-.8-.28l-.24-.16-.16-.44-.18-.69,1.34-.5.23-.07.18-.42s.02-.07.03-.1c.06-.35.29-.64.61-.79.23-.08.49-.11.73-.08l-.38-.42c-.24-.18-.38-.48-.35-.78.01-.35.15-.68.38-.94.38-.29.9-.33,1.31-.1.19.11.36.26.5.43l.6.63-.52.48c.13.01.25.02.38,0,.84-.09,1.66.32,2.11,1.04.14.27.14.58.02.85-.13.26-.37.45-.66.5m.36,4.45l.42.8-2.63.83-.75-1.99,1.06-.14c.06,0,.12-.01.18-.03h.03c.26-.18.59-.24.9-.17.35.11.63.37.78.7m-2.08-15.81l-.28,1.52c-.04.48-.34.9-.78,1.11-.13.05-.27.08-.42.08-.29,0-.57-.1-.8-.28l-1.02-.7,3.29-1.74Zm-.86-4.73l.8-.13c.33-.14.71-.06.96.2.47.5.45,1.28-.04,1.75-.01.01-.03.03-.04.04l-.93.98-.74-2.84Zm-1.46-4.13l-1.03-.59c-.31-.1-.56-.34-.68-.64h0c-.21-.68.16-1.4.84-1.62l.15-.06c.02-.23.15-.44.35-.55h0c.19-.11.38-.2.58-.28l.81-.34.64,1.26-1.54,1.34-.12,1.49Zm-1.67,12.92c.21-.16.48-.21.74-.14.38.11.68.4.8.77h0c.08.36-.05.73-.35.94-.04.04-.08.08-.12.12l-.69.76-.52-.88s-.06-.09-.08-.13c-.17-.2-.25-.46-.24-.72.04-.3.21-.57.46-.73m5.03,3.59l1.47-5.03.95,5.36-2.43-.33Zm2.3-12.27l.06-.55c.05-.21.11-.4.17-.6l.29-.97,1.38.57v.59l-.02.16c-.02.17-.04.34-.08.51-.07.28-.26.52-.52.65l-.42.25-.85-.62Zm1.59-9.71c-.14.14-.26.25-.39.36-.13.1-.29.18-.45.22l-.68.2-.32-.65c-.14-.24-.18-.52-.1-.79.2-.63.86-.99,1.5-.83l.15.02,1.72.11-1.42,1.35Zm-3.91,3.93l-.19-.34,1.38-.57.53.55c.11.13.21.27.31.42.04.07.06.15.08.23l.76.31-.42,1.28-.6.02-1.45-.1-1.15.97-.3-1.15c-.15-.29-.16-.64-.03-.93.21-.4.62-.66,1.07-.68m-.81,3.25c.68.02,1.22.59,1.2,1.27,0,.02,0,.04,0,.06l.03,1.35-2.52-1.49.47-.67c.14-.33.46-.54.82-.53m-1.73-9.74l-.03.18-1.45.08-.06-.72c-.06-.24-.06-.5,0-.74.08-.23.18-.44.29-.66l.35-.73.52.04c.69.06,1.08.49,1.13,1.3,0,.06.01.13.02.19l.55,1.75-1.33-.71Zm-4.11,18.02s-.07.04-.1.06c.08.22.1.45.08.68-.06.36-.25.68-.53.92-.17.14-.38.22-.6.21-.08,0-.16,0-.23-.02h-.81s.05-.9.05-.9c0-.11.02-.22.04-.33,0-.03.01-.06.02-.08l-.62-.74.75-.22c-.05-.11-.09-.23-.11-.35l-.22-1.22,3.55,1.11-1.28.88Zm-12.29,39.46l-.8.11c-.1.02-.2.03-.3.03-.32.03-.62-.16-.74-.45-.08-.2-.15-.41-.21-.58l-.29-.86.89-.25c-.05-.06-.1-.12-.13-.16-.22-.33-.21-.77.02-1.09h0c.25-.36.72-.47,1.11-.27.11.05.23.1.38.17l.22.1.39-.96c.07-.24.2-.45.38-.62.23-.2.53-.29.83-.25.39.09.72.34.92.69l.56.86-1.13.32c-.14.05-.28.08-.43.1-.05,0-.1,0-.15,0-.1,0-.19,0-.29-.02l-1.01-.09,1.01.47,2.11-.59-3.45,2.65.14.7Zm-5.15-9.47c.13-.14.27-.28.41-.42.14-.14.33-.21.52-.2l-.12-.19,1.88-1.17.63,1,1.87-1.99c.16-.18.31-.38.44-.59.04-.05.08-.11.12-.17l-.76.63-.78-.82.05-.49.06-.19-1.72.04h-.17c-.66.14-1.31-.28-1.45-.94-.06-.26-.02-.53.09-.77l.31-1.31,2.94,2.95.51-1.76,1.89,1.58.87-.75.09,1.52c0,1.07-.71,2-1.73,2.29l-2.62.78.28.44-1.86,1.19-.03-.04-.46.63-.5.59-1.35-1.21.59-.64Zm-1.92-9.47l-.32-1c-.14-.36-.11-.76.08-1.09.2-.3.53-.49.89-.52.33-.03.65.12.83.39l.63.62-2.12,1.6Zm9.96-10.46s.09.08.14.11l.07.04c.3.06.56.24.71.5.17.32.19.7.06,1.05l-.26.86-2.45-1.27.88-1.94.84.65Zm-3.07-14.16l1.32-1.79.95.54.15.36.42,1.82-2.84-.93Zm2.62,18.85l.52-.7.66.56c.29.18.47.5.48.84-.02.23-.09.45-.2.64l-.25.56-1.06-.04-.27-.43c-.16-.23-.24-.51-.22-.79.04-.25.16-.48.35-.66m-.98,17.1c-.22-.23-.33-.55-.3-.87l.03-.71h.71c.67-.13,1.35.19,1.69.78.12.29.15.62.07.93l1.2,1.45-1.69,1.01-.91-1.59-.39-.03.05-.7c-.18-.04-.34-.13-.47-.26m1.65,5.99l.63-1.66,2.09,4.52-1.79-.76c-1.15-.49-1.37-.98-.94-2.1m2.58-9.47c-.33,0-.66-.05-.97-.17-.36-.15-.62-.48-.68-.86-.09-.46.06-.93.4-1.26.55-.64,1.51-.72,2.17-.2.42.53.58,1.21.43,1.87l-.15.45-.54.13c-.22.03-.44.04-.66.04m1.74-40.94c.45-.4,1.08-.51,1.64-.3l1.25.49-1.29.98c-.2.16-.4.3-.61.44-.13.08-.28.12-.44.12-.14,0-.28-.03-.41-.08l-.88-.2.33-.84c.05-.22.18-.43.36-.57h0s.4.54.4.54h0s-.35-.57-.35-.57Zm.04,5.6l-.14,1.03,1.88,1.03-.49.79c-.11.22-.26.42-.44.57-.26.19-.58.28-.9.27-.05,0-.09,0-.13,0-.3-.03-.56-.2-.72-.45l-.15-.15-.58.37-.35-.82c-.13-.2-.18-.44-.15-.68.02-.62.39-1.17.95-1.43l1.23-.54Zm1.05,7.67h0c-.19.31-.55.48-.92.42h-.17l-1.02.05.26-.99c.01-.06.02-.1.03-.15.03-.26.15-.51.34-.68.24-.18.55-.25.84-.19.26.04.49.19.62.42.19.34.19.76.02,1.11m-2.88,4.02l-.08-.49,1.03-.39.55.26,1.41.87-1.2.61s.04.04.05.05c.66.54.95,1.4.76,2.23-.09.28-.31.51-.58.62h-.02c-.09.04-.18.06-.28.06-.19,0-.38-.06-.53-.17l-.32-.22-.03-.42c0-.14-.08-.24-.37-.51-.25-.21-.46-.47-.63-.75-.39-.55-.29-1.31.23-1.74m-.41,5.62l.35-.6,3.3,1.59-2.16.64c-.22.08-.45.14-.69.18-.05,0-.1.01-.14,0-.3,0-.59-.15-.76-.4-.24-.45-.2-1,.1-1.42m1.31,19.5l.25-.17,1.21.2-.39,2.15-1.21-.19-.18-.3c-.38-.53-.26-1.26.26-1.65.02-.01.04-.03.05-.04m.9-5.33l-1.02.45-.76-1.32.97-.63c.37-.24.73-.48,1.11-.69.28-.14.61-.15.89-.02l1.31.28-.47.54,3.32-.26.12,1.24-.25.25c-.25.27-.6.42-.97.42-.41-.02-.8-.18-1.09-.47l-1.24-1.08-.34.39c-.12.16-.27.29-.45.38-.37.18-.75.34-1.13.51m3.35-6.94l.39.28c.31.18.54.47.65.82h0c.05.26.04.53-.02.79-.01.08-.03.16-.04.25l-.19,1.62-1.11-1.19c-.06-.07-.12-.12-.17-.17-.16-.14-.29-.3-.39-.49-.12-.27-.18-.56-.17-.85.04-.37.27-.7.62-.85l.42-.2Zm-.09-6.28l.22-2.36.79.12c.35-.02.68.15.87.44.16.32.17.7.02,1.03-.14.3-.44.5-.77.51-.04,0-.08.01-.13.02l-1.01.23Zm-5.02-20.24l.09.65v.7s-.84.14-.84.14l.41,1.01-1.31.84-.71-.91c-.3-.03-.59-.08-.89-.15-.47-.16-.78-.61-.75-1.11.01-.21.05-.43.11-.63l.09-.42-.66-1.05,1.38.02c.41,0,.8.16,1.1.44.33-.08.67-.02.95.16.13.03.19.04.25.06l.78.25Zm-7.24,8.23l-.02-.02.47-.61c.16-.29.47-.47.8-.47.21.02.4.08.58.18l1.24.55-.92.77s-.07.07-.1.1c-.18.21-.44.34-.72.36-.12,0-.24-.02-.35-.07v.17c-.02.19-.05.39-.08.58-.08.36-.39.62-.76.63-.06,0-.12.01-.17.01-.31.02-.6-.14-.74-.42h0c-.08-.17-.15-.35-.2-.53l-.34-1.01,1.31-.23Zm-.61,4.99l1.81.09-.16,3.13-1.35-.06-.21-.34c-.27-.49-.3-1.07-.08-1.59.04-.11.07-.23.08-.35l-.1-.87Zm-.06,9.5s.09-.05.13-.07l-.2-2.87,1.14.51c.41.12.71.46.8.87,0,.43-.22.84-.6,1.06l-.45.35c.1.02.2.06.29.12.07.05.13.09.41-.05.19-.09.41-.12.62-.08h1.67l-1.38,1.48c-.17.21-.36.41-.55.6h0c-.26.23-.59.37-.94.38h-.13c-.33,0-.67-.01-1.02-.03l-2.08-.07c.13.17.23.36.28.57.06.31-.02.63-.21.88l-.4.81-1.46-.99-.84-.62.85-.6c.07-.05.13-.1.19-.15.26-.29.67-.41,1.05-.31.13.05.24.12.34.21l1.63-1.32c.29-.24.57-.46.85-.67m-2.1-2.56l-.48.04-.21.31c.15.05.28.14.38.27.12.17.23.36.36.58l.82,1.37h-3.17l.25-1.09c.03-.12.06-.22.08-.33l-.46.07-.02-.93v-.09s-.42.04-.42.04c-.15.17-.36.28-.59.31-.04,0-.07,0-.11,0-.29,0-.56-.13-.76-.33l-.48-.44.38-.54c.25-.48.69-.84,1.22-.99.21-.03.43,0,.64.07l.05-.76c.01-.12.04-.24.06-.35.01-.04.02-.08.04-.13-.1-.54.21-1.07.73-1.25.47-.32,1.1-.25,1.48.17.14.17.26.35.35.54l.97,1.58-.33.41c-.14.18-.32.31-.53.39l-.58.86.32.21Zm.75-9.17c-.23.31-.58.52-.97.56-.11,0-.22-.02-.32-.06-.31-.14-.61-.32-.88-.53l-.13-.09c-.26-.2-.38-.53-.33-.85-.07-.04-.14-.09-.21-.15l-.48-.4.23-.6.28-.48h.62l.12.03c.5.07.96.32,1.28.71h.04c.08.04.16.07.24.1.36.06.66.3.8.64.1.41-.02.83-.3,1.14m-2.83,4.78l-.74.37c-.17.09-.35.14-.53.18-.04,0-.08,0-.12,0-.31-.02-.59-.19-.74-.46l-.07-.1s-.05.01-.07.01c-.09,0-.17-.01-.26-.04-.33-.11-.6-.36-.74-.67-.11-.32-.04-.67.18-.92.03-.04.06-.08.09-.13l.59-.98.77,1.07c.11.14.2.29.28.44h0s.22-.06.22-.06l.66-.15.5,1.44Zm-4.72,12.38c.07.36-.09.72-.4.91l-.38.29-.5-.19c-.15-.08-.29-.19-.41-.31l-.58-.49.73-.99.68-.79.62,1.04s.04.08.07.11c-.05-.15-.08-.31-.1-.46,0-.07-.02-.13-.03-.2l-.63-1.6,1.6.62c.75.16,1.23.9,1.07,1.65-.02.1-.05.2-.1.29l-.21.62-.65-.13c-.35-.05-.66-.26-.85-.56.02.05.04.1.06.15m-1.46-8.66c.2-.05.4-.06.6-.03l.18-.16.09.19h.09s-.04-.05-.06-.08c-.12-.17-.19-.37-.21-.58l-.28-1.12,1.13.15c.29,0,.58.1.79.3.45.4.58,1.05.32,1.59l-.27.57.1,1.41-.84-.04.02-.54h-.02s-.07.54-.07.54h-.32s-.15-.14-.15-.14l-.43.31.53,1.91-1.52.5-.3-.91c-.05-.15-.09-.29-.15-.43h0c-.03-.07-.06-.14-.1-.22-.08-.16-.15-.32-.2-.48-.06-.21-.11-.43-.15-.65l-.08-.37c-.11-.13-.2-.26-.29-.41l-.33-.57.62-.48c.15-.13.32-.25.5-.34.26-.15.58-.12.8.07m-.1-6.79l1.97-.56.22.77c.2.8-.29,1.04-.44,1.09-.14.06-.28.11-.43.15l-.85.27-.47-1.71Zm1.37-3.22c.46.4.51,1.11.1,1.57-.04.04-.08.08-.12.12-.24.21-.55.33-.87.33-.15,0-.29-.02-.43-.07-.45-.14-.8-.5-.93-.95l-.09-.02-1.78-.42,2.88-1.75,1.22,1.19Zm-1.59-2.74c-.15.17-.34.3-.55.38l-.6.32-.54-.63-.29-.42.86-1.32,1.13.14.1.54c.14.32.1.7-.11.98m-3.66,12.1c.11.18.2.37.27.57.06.22.06.44,0,.66l-.12,1.09-.99-.43c-.24-.08-.46-.22-.64-.4-.14-.17-.24-.36-.3-.56l-.28-.67,1.52-1.28.54,1.02Zm-.23-13.63v.88s-2.62-.37-2.62-.37l.29-.57-.62-.55.62-.61c.18-.23.45-.37.74-.38.26,0,.52.11.7.3.03.02.06.05.11.08l.88.62-.15.1c.05.16.07.33.05.5m-2.76,4.88l1.15-.7v4.2s-1.27-1.2-1.27-1.2c-.42-.29-.66-.77-.67-1.28.09-.45.39-.82.8-1.01m2.05,20l.34,1.24c.04.15.07.31.1.46.02.08.03.19.06.27.06,0,.14.02.2.03.13.02.27.04.4.07l.49.11.21,1.22-.7.27-1.96.36-.2-1.27-1.57-.12,2.63-2.64Zm13.44,16.17l.72-.05.18,1.66-.71.11c-.27.04-.45.07-.63.08-.02,0-.04,0-.06,0-.2,0-.65-.08-.76-.79l-.12-.8,1.38-.2Zm-.4,3.52c.09-.32.34-.58.65-.69.14-.05.28-.08.42-.11l.92-.22.16.97,2.03.75-1.71.61c-.87-.26-1.73-.55-2.57-.88.01-.14.04-.29.09-.43m5.09,1.97c.08-.02.16-.04.25-.06l1.92-.45-.47.83c-.57-.09-1.13-.2-1.69-.32m2.51.44s.02-.05.03-.08c.03-.04.05-.08.08-.13l-.54-1.11,1.78-.85.26.91.78.28-.42.99c-.03.07-.06.13-.09.19-.63-.05-1.26-.12-1.88-.21m4.56-6.71c-.24-.44-.12-.99.29-1.29.3-.18.68-.21,1-.07.3.15.5.46.5.8l-.3.05v.02s.3-.04.3-.04c.01.12.03.24.04.4l.25,2.67-1.7-2.04c-.14-.16-.27-.32-.39-.5m1.94-10.43l1.91-.21.06,2.12-1.55.21-.42-2.11Zm2.99,4.08l-.08,1.26-.29.21c-.24.2-.54.32-.85.35-.09,0-.17-.01-.26-.03-.38-.15-.68-.47-.79-.86l-.46-1.13,2.72.21Zm-1.14,6.2l1.12.64c.14.08.27.17.39.25.07.05.16.11.23.15.05-.04.11-.08.16-.12.11-.08.22-.17.33-.24l.43-.26,1.12.79-1.53,2.25-1.04-.75-1.19,1.02v-3.73Zm3.46-8.32c-.28-.24-.43-.6-.39-.97.08-.34.31-.62.62-.76.07-.03.14-.08.2-.13-.09-.24-.04-.51.12-.7.17-.26.44-.45.75-.5.38-.06.76-.01,1.11.13.24.12.46.29.64.49.05.05.1.09.15.14l.64.56-.64.56c-.05.05-.11.11-.17.18-.26.28-.65.7-1.2.54-.2-.06-.3-.06-.71.42l-.55.65-.58-.62Zm6.44-2.02l-.18,2.05c.02.24-.03.47-.12.69-.19.4-.42.79-.68,1.16-.2.32-.53.54-.9.61-.04,0-.08,0-.12,0-.35-.03-.68-.17-.94-.42l-.62-.53,3.57-3.57Zm.4-12.67c-.17.24-.44.38-.74.38-.06,0-.12,0-.18-.02-.49-.15-.86-.56-.93-1.07l-.18-.67,3.45-1.2-1.07,1.97c-.1.21-.22.42-.36.61m6.06,12.39l.08-1.15,1.14,1.02c.76.75.92,1.91.39,2.84l-1.33,2.44-.09-2.77c-.01-.25-.05-.49-.11-.73-.01-.06-.02-.14-.04-.21l-.09.97h-1.23s-1.2-2.19-1.2-2.19l2.47-.22Zm7.51-6.47l1.11.92.49.47-.95,1.24-1.8-1.2,1.14-1.43Zm1.2-5.87l.2-2.33,1.16-.28,1.6,2.34-2.96.27Zm4.89,2.48l.37-1.81c.07-.43.31-.8.68-1.04v-.69l.33.4c-.1.83-.23,1.65-.39,2.47l-.99.67Zm-1.78-22.48c-.06.03-.12.06-.19.09l-.93.35v-.15s-.2,1.75-.2,1.75l-1.12.04-.36-.41c-.44-.46-.49-1.16-.13-1.68v-.05c0-.1.02-.2.05-.3-.19-.07-.36-.2-.49-.35l-.08-.08v3.33l-.98-.32c-.41-.13-.75-.44-.9-.85-.15-.43-.1-.9.14-1.29.02-.06.04-.13.06-.19.02-.08.04-.16.07-.23l.15-.46,1.33-.15-.49-.53,2.07-1.23.4.57-.61.43.67-.35.37.53c.05-.13.13-.25.23-.36.34.61.67,1.24.97,1.87m-3.32-3.58l-.02-.04c-.08.17-.2.31-.36.42l-.85.57-.38-1.24c-.07-.24-.14-.47-.2-.7-.08-.3-.03-.61.13-.87.29-.38.82-.48,1.23-.25h0s.07.05.1.08c.05-.06.11-.1.18-.15.35.48.69.96,1.02,1.45l-.86.74Zm-2.33-4.84c-.12.08-.27.13-.42.14-.16,0-.32-.06-.44-.15-.15-.11-.29-.24-.43-.36l-.68-.59.51-.56c.5.49.99.99,1.46,1.52m-2.82-2.77l-1.41.06.53-.82c.3.25.59.5.88.76m-5.74-3.35l-.1-.82c.19.11.37.21.55.32l-.45.5Zm-7.98-3.39l-.11-.52s-.07.05-.11.07c-.1.04-.2.06-.31.06-.31-.03-.59-.17-.81-.39-.13-.1-.24-.23-.31-.38.73.17,1.46.36,2.18.57l-.53.58Zm-5.19-1.77l.23.16-.28.14c-.05.23-.16.44-.32.61l.07,1.51-1.47-1.15c-.06-.05-.12-.09-.19-.14l-1.17.43.42-1.43s.03-.09.04-.13l-.11-.22c.93.04,1.85.12,2.76.23m-3.89.1c.13.24.15.53.07.79-.07.22-.23.4-.44.51l-.84.55-.93-2.17c.58-.03,1.16-.04,1.75-.04h.16c.08.12.16.24.23.37m-9.7.89c-.03.33-.26.61-.57.71l-.45.18-.42-.32s-.07-.07-.1-.11c.51-.16,1.02-.32,1.53-.46m-2.55,1.19l-.81.81-.2.18c.05.05.1.11.14.17l.18-.15h0s.39.63.39.63l-.39-.64c.5-.39,1.15-.5,1.75-.3l1.32.47-1.37,1.02c-.23.17-.42.32-.64.45-.04.02-.08.04-.12.05l.49.56-1.08.23-.16.28c.16.25.18.57.05.84-.15.25-.36.45-.62.59-.05.03-.1.06-.16.1l-.16.11.53,1.26.23-.1c-.36-.59-.17-1.35.41-1.72l.35-.32,1.3.53-.38.79c.07.16.09.34.06.52-.07.34-.31.62-.64.74h0c.25.37.37.82.31,1.27l.02.04c.04.08.07.15.1.23.21.3.26.68.11,1.02h0c-.22.35-.59.57-1.01.59-.06,0-.13,0-.2,0-.44.05-.86-.17-1.06-.56-.12-.32-.21-.66-.25-1l-.02-.14c-.05-.33.09-.65.36-.84-.01-.06-.02-.12-.03-.18h-.43c-.39,0-.76-.14-1.02-.42-.18-.23-.25-.53-.2-.82l-.63-.57,1.2-.53-.08-.31c-.02-.08-.05-.15-.08-.22-.09-.22-.15-.45-.16-.69l-.48.1.71-1.48-.14-1.19-.47-.55c.89-.41,1.79-.8,2.71-1.14,0,0-.02.02-.02.03l-.09.09.38.17Zm-5.81,6.06l-.44.67c-.13.31-.43.51-.76.54-.1,0-.19-.02-.28-.06-.16-.07-.31-.14-.46-.22l-.78-.41.88-1.55,1.84,1.03Zm-8.7,3.48l-.21.72h0c-.05.18-.15.35-.28.49-.11.1-.23.19-.36.28l-.43.31-.15-.06c.46-.6.94-1.18,1.43-1.74m-3.98,5.92l1.51-.11-.3,1.17s-.02.08-.03.13c.07-.14.16-.28.26-.4.04-.05.08-.1.12-.16l.69-1.58.69,1.57c.42.65.24,1.51-.41,1.93-.09.06-.18.1-.28.14l-.59.29-.37-.54c-.21-.29-.29-.65-.2-1-.02.05-.04.1-.07.15h0c-.16.25-.44.39-.74.37-.06,0-.13,0-.19-.01l-.48-.07-.22-.49c-.05-.16-.07-.33-.07-.5v-.04c.15-.28.29-.55.44-.82l.24-.04Zm-1.28,32.3c.14-.01.29-.01.43,0,.37,0,.63.25.77.72l.03.11.41,1.15-.66-.08c-.35-.62-.68-1.25-.98-1.89m1.78,3.24l.37-.3.47.58,1.46-1.12,1.03,1.33-1.68,1.44-.43-.63-.25.2c-.34-.49-.66-.99-.98-1.49m15.37,10.83l1.2,3.01-.71-.07c-.71-.31-1.4-.64-2.09-1l1.6-1.93Zm20.02,3.57l1.41.19.45-1.57.37.08v-.06s.13.09.13.09l1.54.33-.2.54c.19.1.35.23.47.4.11.16.18.34.23.53l1-1.82.64,1.26c.05.1.09.21.13.31-1.24.44-2.5.81-3.78,1.1l.02-.39-.03-.38-.74-.31-.1,1.27c-.6.12-1.2.23-1.81.32l.25-1.89Zm7.74-.33l.3-.34-.02-.04.11-.06,1.29-1.45c-.35-.35-.59-.8-.67-1.29l-.21.58-1.24-.49-.02-.1c-.16.17-.38.26-.61.27h-.02c-.45-.02-.85-.29-1.03-.71-.17-.43-.08-.91.22-1.26h0c.24-.23.49-.43.76-.63l2.02-1.58-.44.03s-.09,0-.13.02c-.11.02-.22.03-.34.03-.19,0-.38-.05-.54-.15-.33-.22-.57-.53-.71-.9-.11-.37,0-.78.27-1.05.19-.26.52-.38.83-.31.08.03.17.02.25-.01l.39-.19.37.25c.31.22.49.57.48.95-.03.21-.08.41-.15.61l-.18.64.23-.18-.76,2.13.38.36h0c.1.09.2.19.28.3l.05-.08.29-.6.32.05-.05-.64,2,.93.25,1.17-.49.15s.08.08.1.13l.39-.19.49.54s.04.07.07.1c.09.11.16.24.22.36l1.4-1.22-.05-.06,1.2-.17c-2.26,1.65-4.71,3.02-7.3,4.08m7.61-5.27c-.11-.2-.16-.44-.14-.67l-.06-.91,1.33.11.19.03.51-.13v-.14c.04-.65.4-.83.61-.89.17-.04.35-.08.53-.1l.93-.15.04.42c-1.01,1.01-2.09,1.96-3.22,2.85-.29,0-.56-.16-.72-.41m4.53-3.06l-.03-.72.79-.1c-.25.28-.5.55-.76.82m4.67-7.4l-.4-.31c-.24.24-.58.35-.92.32-.17,0-.36-.01-.57-.03l.74,1.09-.93.67-.41-.03c-.26-.06-.49-.2-.67-.39.03.16.05.33.05.49l.14,1.76-1.26-.77c-.06-.03-.11-.06-.17-.09-.35-.12-.6-.42-.65-.79-.01-.25.03-.49.11-.72l.26-1.09.86.46c.13.05.25.11.36.2-.03-.16-.03-.32,0-.47l.06-.3.65-.46-.14-.98.76-.19,1.6-.16-.44-.18,2.07-1.77.83.94-.06.35s-.02.11-.03.17c-.39.87-.82,1.72-1.28,2.55-.21-.03-.41-.11-.58-.25"/>
</svg>