<?xml version="1.0" encoding="utf-8"?>
<!-- Generator: Adobe Illustrator 28.0.0, SVG Export Plug-In . SVG Version: 6.00 Build 0)  -->
<svg version="1.1" id="Layer_1" xmlns="http://www.w3.org/2000/svg" xmlns:xlink="http://www.w3.org/1999/xlink" x="0px" y="0px"
	 viewBox="0 0 650 470" style="enable-background:new 0 0 650 470;" xml:space="preserve">
<style type="text/css">
	.st0{fill:none;stroke:#FFFFFF;stroke-linecap:square;stroke-miterlimit:10;}
	.st1{fill:none;stroke:#FFFFFF;stroke-linecap:square;stroke-miterlimit:10;stroke-dasharray:0,0,12.42,12.42;}
	.st2{fill:none;stroke:#FFFFFF;stroke-linecap:square;stroke-miterlimit:10;stroke-dasharray:0,0,11.97,11.97;}
	.st3{fill:#FFFFFF;}
</style>
<line id="Line_331-2" class="st0" x1="235.2" y1="352.8" x2="237.4" y2="347.7"/>
<line id="Line_332-2" class="st1" x1="242.1" y1="337.2" x2="343.4" y2="111.7"/>
<line id="Line_333-2" class="st0" x1="345.8" y1="106.4" x2="348" y2="101.4"/>
<line id="Line_334-2" class="st0" x1="94.5" y1="430.2" x2="93.6" y2="424.7"/>
<line id="Line_335-2" class="st2" x1="91.8" y1="413.8" x2="63.7" y2="244.4"/>
<line id="Line_336-2" class="st0" x1="62.8" y1="238.9" x2="61.9" y2="233.4"/>
<g>
	<path id="Path_14050-2" class="st3" d="M341.4,30.3C330.5,8.3,310.5-4,296.8,2.8l0.6,1.2l-0.6-1.2l-259,136.7l0,0
		c-10.5,5.2-11.5,23.7-2.4,42c4.3,8.6,10.2,15.8,16.6,20.3c3.4,2.5,7.4,4.1,11.5,4.5c2.3,0.2,4.7-0.3,6.8-1.3
		c0.4-0.2,0.9-0.5,1.3-0.8L336.3,82.4l-0.6-1.3l0.6,1.2C350,75.6,352.3,52.2,341.4,30.3 M53.8,145l-16.4,21.2l9.6-24.7l-1.2-0.5
		c3.2,0.6,6.2,1.9,8.9,3.9c3.1,2.2,5.8,4.8,8.2,7.7l-0.6-0.1l-11,38.6l4.1-45.6L53.8,145L53.8,145z M39,142c2-0.9,4.2-1.3,6.4-0.9
		L34,170.5C30.1,157.4,31.8,145.6,39,142 M37.9,180.3c-1.5-3.1-2.8-6.2-3.8-9.5l1.2,0.7l18.1-23.4l-4.3,47.7
		C44.5,191.4,40.7,186.1,37.9,180.3 M53.6,199.5c-0.9-0.6-1.8-1.3-2.7-2l11.3-39.6l1.3,44.2l1.5,0.3l7.8-20l-1.5-0.6L65,198.2
		l-1.3-44.4c2.5,3.2,4.7,6.7,6.5,10.4c8.3,16.7,7.8,33.9-1.2,38.3C64.9,204.6,59.4,203.5,53.6,199.5 M335.1,79.9L76.3,199.1
		c4.4-8.2,3.4-22.2-3.5-36.1c-4.3-8.6-10.2-15.8-16.6-20.3c-3-2.2-6.5-3.7-10.2-4.4L298,5.3c12.3-6.1,30.6,5.7,40.8,26.2
		S347.4,73.8,335.1,79.9"/>
	<path id="Path_14051-2" class="st3" d="M243.9,379.1c-5.7-9.9-15.4-15-21.5-11.5l0.3,0.6l-0.3-0.5l-116.5,71.1l0,0
		c-2.3,1.3-3.5,4.1-3.5,7.9c0.6,8.3,5,15.9,11.9,20.6c1.6,1.1,3.5,1.7,5.5,1.8c1.1,0,2.2-0.3,3.1-0.8c0.2-0.1,0.4-0.2,0.6-0.4
		L243,403.5l-0.3-0.6l0.3,0.6C249.2,399.9,249.5,389,243.9,379.1 M115,466.2c-6.5-4.5-10.7-11.6-11.3-19.5c-0.1-3.3,0.9-5.7,2.8-6.8
		s4.5-0.8,7.3,1c3.3,2.1,6,5,7.9,8.5c4.3,7.5,4.6,15.5,0.6,17.9C120.4,468.3,117.8,467.9,115,466.2 M242.4,402.4l-116.9,63
		c1.8-4,0.9-10.4-2.7-16.7c-2-3.6-4.8-6.7-8.3-8.9c-1.5-0.9-3.1-1.5-4.9-1.7L223,368.8c5.5-3.2,14.4,1.7,19.8,11
		S247.9,399.2,242.4,402.4"/>
	<g>
		<path class="st3" d="M609.2,161.4L609.2,161.4c0-0.3,0.1-0.6,0.1-1c0-0.1,0-0.2,0-0.2l10.3-10.8l1.2-2l-0.7-0.9l-2.9,2.2l-2.4,1.8
			l-2.2,1.6l-11.5,7.6c-3.9-0.4-7.7-1-11.5-1.9c-2.2-0.4-4.5-1.4-6.7-1.9c-1,0-2-0.1-3-0.1l-0.7,0c-0.7,0.1-1.4,0.5-1.9,0.9
			c-0.2,0.1-0.5,0-0.8-0.2c-0.9-0.4-1.9-0.8-2.8-1h-0.6c0,0-3,0.1-3,0.1c-2.6,0.3-2.3,0.7-4.7,1.7c-1.6,0.8-3.1,1.8-4.5,3.1
			l-290,178.5c-6.3,3.7-6.7,14.8-0.8,24.9c4.6,7.9,11.6,12.9,17.5,12.9c1.6,0,3.1-0.4,4.5-1.2c0.2-0.1,0.4-0.2,0.6-0.4l306.8-167.4
			c0.2,0,0.3-0.1,0.4-0.2c0.3-0.2,0.5-0.4,0.7-0.7c2-5.1,3.8-10.3,5.3-15.6c0.1-0.2,0.2-0.4,0.4-0.5c0.1-0.3,0.1-0.7,0.2-1
			c0.9-5.2,1.7-10.5,2.2-15.8c0.3-3.2,0.6-6.4,0.9-9.6c-0.2-0.9-0.2-1.8-0.2-2.8V161.4z M291.2,374.3c-1.2,0.7-2.5,1-3.9,1
			c-5.4,0-12-4.7-16.3-12.2c-5.5-9.5-5.3-19.8,0.4-23.1c1.2-0.7,2.5-1,3.9-1c5.4,0,12,4.7,16.3,12.2
			C297.1,360.6,296.9,371,291.2,374.3z M601.5,199.1L601.5,199.1c-0.1,1.1-0.5,2.1-0.7,3.2c-0.2,0.6-0.4,1.2-0.7,1.8
			c-0.1,0.5-0.4,1.1-0.7,1.5c-0.3,0.3-0.6,0.6-0.9,0.9L295.2,372.1c2.9-5.1,2.2-13.7-2.4-21.6c-4.6-8-11.7-12.9-17.6-12.9
			l292.6-180.1c1.3-0.2,2.6-0.1,3.9,0.1c0.4,0.1,0.8,0.2,1.1,0.3c0.1,0,0.2,0,0.4,0c0.3,0,0.7,0,1,0c0.4,0,0.7,0.1,1.1,0.1
			c0.2,0,0.3,0.1,0.5,0.1c0,0,0,0,0,0c0.5,0,1.1,0,1.6,0c1,0,2,0,3,0.1c0.2-0.3,0.5-0.4,0.8-0.5c1.7,0.1,3.3,0.5,4.9,1
			c1.5,0.5,3,1.6,4.7,1.5c0.5,0,0.9,0.3,0.9,0.8v0.2c0.1,0,0.2,0,0.2,0c-0.8,1.6-1.5,3.2-2.2,4.7l0.1,0c1-1.2,2.2-2.2,3.5-3.1
			c0.2-0.1,0.4-0.2,0.6-0.1c0.2-0.1,0.3-0.2,0.5-0.3c0.2-0.1,0.3-0.1,0.5-0.1l0.3,0c0,0,0.1,0,0.1,0c0.4-0.3,0.8-0.5,1.2-0.7
			c-0.4,4.7-0.7,9-1.1,13.1c0.2-0.8,0.4-1.7,0.6-2.5c0.3-1,0.6-2,1-3c0-0.7,0-1.5,0.1-2.2c0.1-1.1,0.5-2.2,1.2-3.1
			c0-0.1,0-0.1,0-0.2c0.1-0.4,0.4-0.7,0.8-0.7c0.2-0.2,0.4-0.3,0.7-0.5c0.2-0.1,0.4-0.2,0.7-0.1c0.2-0.1,0.4-0.2,0.7-0.3
			c0.2-0.1,0.5-0.1,0.8-0.1c0.1,0,0.1-0.1,0.2-0.1c0,0,0,0.1,0,0.1c0.4,0.2,0.6,0.7,0.5,1.1c-0.3,1.6-0.5,3.1-0.5,4.8
			c-0.1,2.4,0,4.8,0,7.2c0.3-2,0.8-4.1,1.4-6.1c0.3-2.1,0.6-4.3,1.9-6.1c0.3-0.4,0.9-0.6,1.3-0.3c0.1,0.1,0.2,0.2,0.3,0.3
			c0.1-0.1,0.2-0.2,0.3-0.3C607.7,175.1,605.7,187.5,601.5,199.1z"/>
	</g>
</g>
</svg>
