<?xml version="1.0" encoding="utf-8"?>
<!-- Generator: Adobe Illustrator 28.0.0, SVG Export Plug-In . SVG Version: 6.00 Build 0)  -->
<svg version="1.1" id="Layer_1" xmlns="http://www.w3.org/2000/svg" xmlns:xlink="http://www.w3.org/1999/xlink" x="0px" y="0px"
	 viewBox="0 0 650 525" style="enable-background:new 0 0 650 525;" xml:space="preserve">
<style type="text/css">
	.st0{fill:none;stroke:#FFFFFF;stroke-linecap:square;stroke-miterlimit:10;}
	.st1{fill:none;stroke:#FFFFFF;stroke-linecap:square;stroke-miterlimit:10;stroke-dasharray:0,0,12.42,12.42;}
	.st2{fill:none;stroke:#FFFFFF;stroke-linecap:square;stroke-miterlimit:10;stroke-dasharray:0,0,11.97,11.97;}
	.st3{fill:#FFFFFF;}
	.st4{opacity:0.3;}
	.st5{clip-path:url(#SVGID_00000080185969203887071250000004923536798488761023_);}
</style>
<g>
	<line class="st0" x1="240.8" y1="390" x2="243.2" y2="384.5"/>
	<line class="st1" x1="248.3" y1="373.1" x2="357.7" y2="129.6"/>
	<line class="st0" x1="360.2" y1="123.9" x2="362.7" y2="118.4"/>
</g>
<g>
	<line class="st0" x1="88.8" y1="473.6" x2="87.8" y2="467.7"/>
	<line class="st2" x1="85.9" y1="455.9" x2="55.6" y2="272.9"/>
	<line class="st0" x1="54.7" y1="267" x2="53.7" y2="261"/>
</g>
<path class="st3" d="M250.2,418.4c-6.2-10.7-16.6-16.2-23.2-12.4l0.4,0.6l-0.4-0.6l-125.8,76.8l0,0c-2.5,1.4-3.8,4.5-3.7,8.6
	c0.1,3.9,1.4,8.4,3.9,12.6c2.4,4.2,5.6,7.6,9,9.7c2.1,1.3,4.1,1.9,5.9,1.9c1.2,0,2.4-0.3,3.4-0.9c0.2-0.1,0.4-0.3,0.6-0.4
	l129.1-69.5l-0.3-0.6l0.4,0.6C255.9,440.9,256.3,429.1,250.2,418.4L250.2,418.4z M111,512.5c-3.2-1.9-6.2-5.2-8.5-9.2
	s-3.6-8.2-3.7-11.9c-0.1-3.6,1-6.2,3.1-7.3s4.8-0.8,7.9,1c3.2,1.9,6.2,5.2,8.5,9.2c4.7,8.1,5,16.8,0.6,19.3
	C116.8,514.7,114,514.3,111,512.5z M248.6,443.6l-126.2,68c2-4.3,1-11.2-2.9-18c-2.4-4.2-5.6-7.6-9-9.7c-1.8-1.1-3.6-1.7-5.3-1.9
	l122.4-74.8c6-3.5,15.6,1.9,21.3,11.9S254.6,440.1,248.6,443.6L248.6,443.6z"/>
<g class="st4">
	<path class="st3" d="M619.8,200.8l10.5-11.1l1.3-2l-0.7-0.9l-3,2.2l-2.5,1.8l-2.3,1.7l-11.8,7.8c-3.8-0.2-7.8-1.2-11.8-1.9
		c-2.2-0.5-4.7-1.5-6.9-2c-1,0-2.1-0.1-3.1-0.1c-0.2,0-0.5,0-0.8,0c-0.7,0.2-1.4,0.5-2,1c-0.2,0.1-0.5,0-0.8-0.2c-1-0.5-2-0.8-2.9-1
		h-0.7c0,0-3.1,0.1-3.1,0.1c-2.6,0.3-2.4,0.7-4.8,1.8c-1.7,0.8-3.2,1.9-4.6,3.2L272.3,384.1c-6.5,3.7-6.8,15.2-0.9,25.6
		c4.7,8.1,12,13.2,18,13.2c1.6,0,3.2-0.4,4.6-1.2c0.2-0.1,0.4-0.2,0.6-0.4l314.8-171.8c0.1,0,0.3-0.1,0.4-0.2
		c0.3-0.3,0.6-0.4,0.8-0.7c2.2-5.2,3.8-10.6,5.5-16c0.1-0.2,0.2-0.4,0.4-0.5c0.1-0.4,0.1-0.7,0.2-1.1c0.9-5.4,1.7-10.8,2.3-16.2
		c0.3-3.3,0.6-6.6,0.9-9.8c-0.2-0.9-0.2-1.9-0.2-2.8V202l0,0c0-0.3,0.1-0.7,0.1-1C619.8,201,619.8,200.9,619.8,200.8z M293.4,420.5
		c-1.2,0.7-2.5,1-4,1c-5.5,0-12.3-4.8-16.7-12.6c-5.6-9.7-5.5-20.4,0.4-23.7c1.2-0.7,2.5-1,4-1c5.5,0,12.3,4.9,16.7,12.6
		C299.4,406.5,299.2,417.2,293.4,420.5z M611.8,240.8L611.8,240.8c-0.1,1.2-0.6,2.2-0.8,3.3c-0.1,0.6-0.4,1.2-0.7,1.8
		c-0.2,0.6-0.3,1.1-0.7,1.6c-0.2,0.2-0.6,0.7-1,1L297.4,418.3c3-5.2,2.2-14-2.5-22.2c-4.7-8.2-12-13.3-18.1-13.2L577.2,198
		c1.3-0.2,2.7-0.1,4,0.1c1.4,0.2,2.7,0.6,4,1.2c0.4-0.3,0.9-0.5,1.4-0.5c1.1,0,2.3,0,3.4,0.2c0.1-0.4,0.5-0.9,1-0.8
		c1.7,0.2,3.4,0.5,5,1c1.6,0.6,3.1,1.6,4.8,1.5c0.7,0,1,0.5,1,1c0.1,0,0.2,0,0.2,0c-0.8,1.7-1.5,3.2-2.3,4.8c0,0,0,0,0.1,0
		c1-1.3,2.3-2.2,3.6-3.1c0.2-0.1,0.4-0.2,0.6-0.1c0.2-0.1,0.3-0.2,0.5-0.3c0.2-0.1,0.3-0.1,0.5-0.1c0.1,0,0.2,0,0.3,0
		c0,0,0.1,0,0.1,0c0.4-0.3,0.8-0.5,1.2-0.7c-0.4,4.9-0.8,9.2-1.1,13.5c0.2-0.8,0.4-1.7,0.6-2.5c0.3-1,0.6-2.1,1-3.1
		c0-0.8,0-1.5,0.1-2.2c0.2-1.2,0.6-2.3,1.2-3.1c0-0.1,0-0.1,0-0.2c0.1-0.5,0.5-0.7,0.8-0.7c0.2-0.2,0.4-0.3,0.7-0.5
		c0.2-0.1,0.5-0.2,0.7-0.1c0.2-0.1,0.4-0.2,0.7-0.3c0.3-0.1,0.5-0.1,0.8-0.1c0.1,0,0.1-0.1,0.2-0.1c0,0.1,0,0.1,0,0.2
		c0.4,0.2,0.6,0.6,0.5,1.1c-0.3,1.6-0.4,3.2-0.5,4.9c-0.1,2.5,0,4.9,0,7.4c0.4-2.1,0.8-4.3,1.4-6.2c0.3-2.2,0.6-4.4,2-6.2
		c0.3-0.4,0.8-0.6,1.4-0.4c0.1,0.1,0.2,0.2,0.3,0.3c0.1-0.1,0.2-0.2,0.4-0.3C618.1,218.3,615.5,230.1,611.8,240.8z"/>
</g>
<g>
	<g>
		<defs>
			
				<ellipse id="SVGID_1_" transform="matrix(0.9067 -0.4217 0.4217 0.9067 -77.9611 36.7128)" cx="44" cy="194.6" rx="18.6" ry="32.7"/>
		</defs>
		<clipPath id="SVGID_00000051369953953802291090000005767012640704839349_">
			<use xlink:href="#SVGID_1_"  style="overflow:visible;"/>
		</clipPath>
		<g style="clip-path:url(#SVGID_00000051369953953802291090000005767012640704839349_);">
			<g>
				<path class="st3" d="M43.2,195.9c-0.1-0.1-0.2-0.3-0.2-0.4c0-0.2-0.1-0.5,0-0.6c0.1-0.1,0.3,0,0.5,0.1c0.5,0.5,0.7,1.4,0.4,1.9
					c-0.5,0.9-1.5,0.6-2.5-0.5c-1.1-1.4-1.5-3-1.5-4.6c0-2.1,1.3-3.2,3.2-2.8c2.5,0.6,5,3.7,6.2,7.5c1.4,4.7,0.5,8.8-2.3,9.6
					c-4,1.2-9.5-3.5-12.1-10.4c-3.2-8.7-1.2-16.1,4.5-16.2c5.3-0.1,11.4,5.6,14.8,13.7c4.2,10.1,2.8,19.9-3.2,21.9
					c-7,2.3-16.4-5.2-21.3-17.1c-4.9-11.8-3.7-23.4,2.7-26.8c8-4.3,20.1,4.3,26.7,18.9c6.9,15.4,5.2,30.7-3.8,34.1
					c-9.5,3.6-22.7-6.2-30.1-22.4c-8.1-17.6-6.4-35.6,3.7-40c10.9-4.7,26.5,6.6,35.2,25.6c8.9,19.6,7.9,40.6-4.4,45.8
					c-12,5.1-29.8-7.1-39.9-29.4c-9.5-21.1-8.8-44.2,4.3-50.7c13-6.5,33.3,6.4,45,31.6c10.8,23.3,9.9,47.1-2,55.9
					c-2.7,2-5.8,3.1-9.3,3.3c-0.1,0-0.2,0.1-0.2,0c-0.2-0.1-0.4-0.3-0.5-0.5c0.1-0.2,0.1-0.5,0.2-0.5c0.3-0.1,0.8-0.1,1.1-0.1
					c7.7-1,13.1-5.8,15.9-15c2.2-7.3,2.2-16,0-25.9c-2.4-10.7-6.7-20.7-13.2-29.7c-6.8-9.5-14.3-15.6-22.2-18.3
					c-8.4-2.9-15.2-1.3-20,5.2c-4.8,6.6-6,16.2-3.6,28.4c2.4,12.5,7.7,23.7,15.9,33.2c6,7,12.3,11,18.6,12.3
					c6.9,1.5,12.4-0.6,16-6.6c3.8-6.3,4.4-15.1,2-25.8c-1.7-7.6-4.7-14.9-9.2-21.5c-6.4-9.6-13.5-15.2-21-16.7
					c-6.6-1.4-11.5,0.9-14.5,7.1c-2.7,5.6-3,12.9-0.9,21.6c2.3,9.6,6.6,18,13.1,24.8c5,5.2,10.1,7.9,15,8.1c5,0.2,8.7-2.2,10.8-7.5
					c3.5-9,0.3-23.9-7.6-34.5c-4.9-6.6-10.1-10.1-15.4-10.6c-5.2-0.4-8.7,2.3-10.1,8.6c-1.7,7.6,1.3,18.6,7.2,26.4
					c6.3,8.4,14.6,10.8,18.6,5.5c3.6-4.9,2.5-15.1-2.6-23c-4.6-7.2-11.4-10.3-14.9-6.7c-3.1,3.1-2.7,10.6,0.8,16.7
					c3,5.2,7.6,7.8,10.4,5.8c2.3-1.6,2.4-6.2,0.3-10.3c-1.7-3.3-4.5-5.1-6.1-4.1c-1,0.7-1.2,2.4-0.5,4.3c0.5,1.4,1.6,2.2,2.1,1.6
					C43.1,196.1,43.1,196,43.2,195.9L43.2,195.9z"/>
				<path class="st3" d="M57.5,244.5c-0.1,0-0.2,0-0.3-0.1c-0.2-0.1-0.3-0.3-0.4-0.4l-0.4-0.4l0.1-0.3c0,0,0-0.1,0-0.1
					c0-0.2,0.1-0.6,0.5-0.7c0.3-0.1,0.5-0.1,0.8-0.1c0.1,0,0.3,0,0.4,0c7.6-1,12.8-5.9,15.5-14.6c2.2-7.1,2.2-15.7-0.1-25.7
					c-2.4-10.8-6.8-20.7-13.1-29.5c-6.7-9.4-14.1-15.5-21.9-18.1c-8.4-2.8-14.9-1.2-19.4,5c-4.7,6.4-5.9,15.9-3.6,28
					c2.4,12.6,7.7,23.6,15.8,32.9c5.9,6.8,12,10.9,18.4,12.2c6.9,1.4,12-0.7,15.4-6.3c3.7-6.1,4.3-14.7,2-25.4
					c-1.7-7.7-4.8-14.9-9.1-21.4c-6.3-9.4-13.3-15-20.7-16.5c-6.4-1.3-11.1,1-14,6.8c-2.7,5.4-3,12.6-0.9,21.3
					c2.3,9.7,6.7,18,13,24.6c4.9,5.1,9.8,7.8,14.7,8c4.9,0.2,8.4-2.2,10.3-7.2c3.5-8.9,0.3-23.5-7.5-34c-4.8-6.4-9.9-9.9-15-10.4
					c-5.1-0.4-8.3,2.3-9.6,8.2c-1.7,7.4,1.3,18.3,7.1,26c3.9,5.1,8.6,8.1,12.6,8.1c2.1,0,3.9-0.9,5.2-2.6c3.5-4.7,2.3-14.7-2.6-22.4
					c-2.9-4.5-6.8-7.6-10.2-7.9c-1.6-0.2-2.9,0.3-4,1.3c-2.9,3-2.5,10.2,0.9,16.1c1.9,3.3,4.6,5.6,6.9,6.1c1,0.2,2,0.1,2.7-0.5
					c2.1-1.5,2.1-5.8,0.2-9.7c-1-2.1-2.6-3.6-4-4c-0.5-0.1-1-0.1-1.4,0.1c-0.8,0.5-1,2.1-0.3,3.7c0.3,0.8,0.8,1.3,1.1,1.4
					c0-0.1,0-0.1-0.1-0.2c-0.1-0.4-0.2-0.9,0.1-1.1c0.3-0.3,0.8-0.1,1.1,0.1c0.7,0.6,0.9,1.8,0.5,2.5c-0.2,0.5-0.7,0.7-1.1,0.8
					c-0.7,0.1-1.5-0.4-2.2-1.2c-1.1-1.4-1.7-3.1-1.6-4.9c0-1.2,0.5-2.3,1.2-2.9c0.7-0.5,1.6-0.7,2.6-0.4c2.7,0.7,5.3,3.8,6.6,7.9
					c1,3.2,0.9,6.1-0.2,8.1c-0.6,1.1-1.4,1.8-2.5,2.1c-4.3,1.3-10-3.5-12.7-10.6c-2.1-5.6-2.1-11.1,0.1-14.2
					c1.2-1.7,2.9-2.6,4.9-2.6c5.5,0,11.8,5.7,15.2,14.1c2.8,6.7,3.2,13.6,1.2,18.1c-1,2.2-2.6,3.8-4.6,4.4
					c-7.2,2.4-16.9-5.2-21.9-17.4c-5-12.1-3.8-23.9,2.9-27.4c2.6-1.4,5.8-1.5,9.1-0.4c6.9,2.4,13.9,9.8,18.2,19.5
					c4.5,10.1,5.5,20.8,2.6,27.9c-1.4,3.4-3.7,5.8-6.7,6.9c-9.7,3.6-23.2-6.3-30.7-22.6c-5.3-11.6-6.6-24-3.4-32.3
					c1.5-4,4.1-6.9,7.4-8.3c11.3-4.9,27,6.5,35.8,25.8c6.1,13.4,7.6,27.6,4,37c-1.8,4.6-4.8,7.8-8.6,9.5
					c-12.8,5.4-30.6-7.7-40.5-29.7c-8.9-19.7-9.6-44.3,4.5-51.4c4.4-2.2,9.6-2.3,15.2-0.3c11.6,4.1,23,16.1,30.4,32.1
					c10.8,23.3,9.9,47.6-2.1,56.6c-2.7,2-5.9,3.2-9.5,3.4C57.7,244.5,57.6,244.5,57.5,244.5L57.5,244.5z M57.7,243.6L57.7,243.6
					L57.7,243.6z M57.5,243.4c0,0,0.1,0.1,0.1,0.1h0c3.4-0.2,6.4-1.3,9-3.2c1.3-1,2.5-2.2,3.6-3.5c-3,3.8-7,5.9-11.9,6.6
					c-0.2,0-0.3,0-0.5,0C57.7,243.4,57.6,243.4,57.5,243.4L57.5,243.4z M48.7,233.2c3.8,1.1,7.4,1,10.7-0.4c3.5-1.5,6.1-4.2,7.8-8.3
					c-0.3,0.7-0.7,1.4-1.1,2.1c-3.6,6.1-9.2,8.3-16.5,6.8C49.3,233.4,49,233.3,48.7,233.2L48.7,233.2z M48,224.2
					c2.4,0.5,4.8,0.4,6.9-0.4c2.3-0.9,4.2-2.6,5.5-5.1c-2.2,4-5.7,5.9-10.3,5.7C49.4,224.4,48.7,224.4,48,224.2L48,224.2z
					 M46.7,215.1c1.4,0.2,2.8,0.1,4.1-0.3c1.7-0.6,3.1-1.9,4-3.8c-0.2,0.4-0.5,0.8-0.7,1.1c-1.5,1.9-3.5,3-6,3
					C47.6,215.2,47.1,215.1,46.7,215.1L46.7,215.1z M44.9,205.8c0.6,0.1,1.2,0,1.8-0.1c0.8-0.2,1.4-0.8,1.9-1.6
					c0-0.1,0.1-0.2,0.1-0.2c-0.3,0.5-0.7,1-1.2,1.3C46.8,205.6,45.9,205.9,44.9,205.8L44.9,205.8z M42.6,196.8
					c0.2,0.1,0.3,0.1,0.4,0.1c0.1,0,0.2,0,0.3-0.3c0-0.1,0-0.1,0-0.2C43.2,196.7,42.9,196.8,42.6,196.8L42.6,196.8z M43.2,195.9
					l0.2,0.1c0,0,0,0,0,0L43.2,195.9L43.2,195.9z M42.3,189.4c-0.5,0-0.9,0.1-1.2,0.3c-0.2,0.2-0.4,0.4-0.5,0.7
					c0.2-0.2,0.4-0.4,0.6-0.6c0.5-0.3,1-0.4,1.6-0.4C42.6,189.4,42.5,189.4,42.3,189.4L42.3,189.4z M39.8,180.2c-0.2,0-0.3,0-0.5,0
					c-1.7,0-3.1,0.8-4.1,2.2c-0.2,0.3-0.4,0.7-0.6,1c0.3-0.6,0.7-1.1,1.1-1.5c1.2-1.2,2.8-1.8,4.6-1.6
					C40.1,180.2,40,180.2,39.8,180.2L39.8,180.2z M37.4,170.8c-1.8-0.1-3.5,0.2-4.9,1c-1.2,0.6-2.2,1.6-3,2.8c1.9-2.7,4.8-4,8.5-3.7
					c0.6,0.1,1.2,0.1,1.7,0.2C38.9,171,38.2,170.8,37.4,170.8L37.4,170.8z M34.8,161.4c-2.1-0.1-4.1,0.2-5.9,1
					c-2.6,1.1-4.7,3.3-6.2,6.2c3.1-5.9,8.1-8.2,14.8-6.8c0.2,0,0.3,0.1,0.5,0.1C36.9,161.7,35.9,161.5,34.8,161.4L34.8,161.4z
					 M32.4,152.1c-3-0.2-5.8,0.4-8.2,1.6c-3.2,1.6-5.6,4.2-7.4,7.7c0.5-0.9,1-1.7,1.6-2.5c4.6-6.4,11.2-8.2,19.7-5.6
					C36.1,152.5,34.2,152.2,32.4,152.1L32.4,152.1z"/>
			</g>
		</g>
	</g>
	<g>
		<path class="st3" d="M55.7,232.6c-3.9-0.2-8.2-1.9-12.5-4.8c-7-4.8-13.4-12.5-18-21.8l0,0c-9.9-19.8-8.9-39.8,2.4-45.4
			c5.5-2.8,12.6-1.6,19.8,3.4c7,4.8,13.4,12.5,18,21.8c9.9,19.8,8.9,39.8-2.4,45.4C60.8,232.3,58.3,232.8,55.7,232.6L55.7,232.6z
			 M27.9,204.7c4.4,8.9,10.5,16.2,17.1,20.7c6.3,4.3,12.2,5.4,16.8,3.2c9.6-4.8,10.1-23.4,1.1-41.4c-4.4-8.9-10.5-16.2-17.1-20.7
			c-6.3-4.3-12.2-5.4-16.8-3.2C19.3,168.1,18.8,186.7,27.9,204.7L27.9,204.7z"/>
		<path class="st3" d="M349.9,97.7l-1.3-2.7c13.3-6.7,15-30.1,3.9-52.3s-31-34.8-44.2-28.1l-1.3-2.7c14.8-7.4,36.4,5.8,48.2,29.5
			C367,65,364.6,90.3,349.9,97.7z"/>
		
			<rect x="9.7" y="86.1" transform="matrix(0.8826 -0.4701 0.4701 0.8826 -21.4549 89.2116)" class="st3" width="316.4" height="3"/>
		
			<rect x="49.1" y="161.2" transform="matrix(0.9067 -0.4217 0.4217 0.9067 -49.3624 102.2286)" class="st3" width="314.8" height="3"/>
	</g>
</g>
</svg>
