<?xml version="1.0" encoding="UTF-8"?>
<svg id="Layer_1" data-name="Layer 1" xmlns="http://www.w3.org/2000/svg" viewBox="0 0 650 525">
  <defs>
    <style>
      .cls-1 {
        fill: #fff;
        stroke-width: 0px;
      }

      .cls-2 {
        opacity: .3;
      }

      .cls-3 {
        stroke-dasharray: 0 0 11.97 11.97;
      }

      .cls-3, .cls-4, .cls-5 {
        fill: none;
        stroke: #fff;
        stroke-linecap: square;
        stroke-miterlimit: 10;
      }

      .cls-4 {
        stroke-dasharray: 0 0 12.42 12.42;
      }
    </style>
  </defs>
  <g>
    <line class="cls-5" x1="240.77" y1="389.95" x2="243.22" y2="384.48"/>
    <line class="cls-4" x1="248.31" y1="373.15" x2="357.68" y2="129.56"/>
    <line class="cls-5" x1="360.23" y1="123.9" x2="362.68" y2="118.42"/>
  </g>
  <g>
    <line class="cls-5" x1="88.8" y1="474.58" x2="87.82" y2="468.66"/>
    <line class="cls-3" x1="85.87" y1="456.85" x2="55.62" y2="273.86"/>
    <line class="cls-5" x1="54.65" y1="267.96" x2="53.67" y2="262.04"/>
  </g>
  <path class="cls-1" d="m355.49,41.62c-11.77-23.69-33.36-37-48.14-29.66l.67,1.34-.7-1.33L27.54,159.64h0c-11.28,5.64-12.41,25.57-2.57,45.39,4.63,9.32,11.01,17.09,17.96,21.89,4.32,2.98,8.57,4.62,12.48,4.87,2.62.16,5.09-.3,7.31-1.4.49-.24.95-.52,1.4-.82L350.01,97.91l-.63-1.36.67,1.34c14.77-7.34,17.21-32.58,5.44-56.28ZM44.83,165.6l-17.74,22.93,10.33-26.63-1.35-.52c2.99.47,6.24,1.87,9.58,4.18,3.13,2.16,6.13,4.98,8.91,8.29l-.69-.09-11.93,41.7,4.41-49.27-1.51-.59Zm-15.93-3.29c2.05-1.02,4.39-1.33,6.92-.97l-12.34,31.8c-4.21-14.22-2.34-26.98,5.42-30.83Zm-1.25,41.38c-1.7-3.43-3.06-6.87-4.08-10.24l1.28.72,19.54-25.25-4.62,51.57c-4.64-4.39-8.84-10.18-12.13-16.8Zm16.98,20.76c-.97-.67-1.93-1.42-2.88-2.21l12.23-42.76,1.36,47.75,1.64.28,8.37-21.57-1.58-.61-6.85,17.65-1.36-47.92c2.63,3.34,5.03,7.12,7.08,11.24,8.96,18.03,8.4,36.59-1.25,41.38-4.52,2.25-10.47,1.09-16.75-3.24ZM348.72,95.2L69.15,223.95c4.78-8.88,3.63-23.95-3.83-38.97-4.63-9.32-11.01-17.09-17.96-21.89-3.79-2.62-7.52-4.19-11.02-4.7L308.7,14.64c13.29-6.59,33.07,6.11,44.1,28.31,11.03,22.21,9.2,45.64-4.08,52.25Z"/>
  <path class="cls-1" d="m250.17,418.44c-6.16-10.67-16.59-16.23-23.24-12.39l.35.61-.36-.6-125.78,76.8h0c-2.49,1.44-3.82,4.49-3.74,8.56.07,3.94,1.45,8.42,3.87,12.61,2.42,4.2,5.62,7.63,8.99,9.66,2.1,1.26,4.12,1.9,5.94,1.9,1.22,0,2.36-.29,3.36-.87.22-.13.43-.27.63-.42l129.08-69.53-.33-.62.35.61c6.65-3.84,7.05-15.65.89-26.32Zm-139.2,94.06c-3.17-1.91-6.19-5.16-8.5-9.16-2.31-4-3.61-8.24-3.68-11.94-.06-3.56,1.02-6.16,3.06-7.34,2.04-1.18,4.84-.81,7.88,1.02,3.17,1.91,6.19,5.16,8.5,9.16,4.69,8.12,4.97,16.77.62,19.28-2.04,1.18-4.84.81-7.88-1.02Zm137.62-68.94l-126.23,68c1.97-4.27.99-11.24-2.91-18.01-2.42-4.2-5.62-7.63-8.99-9.66-1.84-1.11-3.62-1.73-5.26-1.87l122.44-74.76c5.99-3.45,15.55,1.88,21.33,11.88,5.78,10,5.61,20.95-.38,24.41Z"/>
  <g class="cls-2">
    <path class="cls-1" d="m604.95,218.31c-.24-.3-.55-.57-.84-.82-.28-.24-.58-.48-.88-.71-.11.04-.21.08-.32.12.05.35.08.71.1,1.06,0,.18-.04.35-.08.53.63,1.11,1.2,2.25,1.74,3.4.13.04.25.07.37.13.35.11.66.3.93.56.19-.18.41-.34.63-.48-.39-.94-.69-1.93-1.13-2.85-.15-.32-.32-.66-.54-.94Z"/>
    <path class="cls-1" d="m619.67,202.03c.03-.33.07-.66.12-.98.01-.08.03-.16.05-.24l10.54-11.11,1.27-2.04-.7-.95-3.01,2.22-2.47,1.82-2.28,1.68-11.85,7.8c-3.77-.2-7.8-1.16-11.75-1.95-2.25-.45-4.66-1.45-6.92-1.98-1.04-.03-2.08-.09-3.12-.15-.25-.02-.5-.03-.75-.05-.71.16-1.37.46-1.97.96-.16.14-.54-.03-.84-.16-1.02-.46-1.99-.8-2.92-1.05-.21,0-.43,0-.65,0-.04,0-3.09.09-3.13.09-2.64.3-2.41.68-4.79,1.78-1.72.8-3.21,1.91-4.57,3.18l-297.6,183.19h0c-6.45,3.74-6.83,15.2-.85,25.56,4.7,8.14,11.95,13.22,17.98,13.22,1.65,0,3.21-.38,4.6-1.18.2-.12.4-.24.59-.37l314.83-171.76c.14-.04.27-.1.42-.23.35-.3.58-.43.75-.68,2.17-5.21,3.84-10.61,5.46-16.01.07-.25.21-.42.38-.53.06-.36.12-.72.18-1.08.9-5.38,1.71-10.75,2.27-16.18.34-3.28.62-6.56.9-9.85-.21-.92-.24-1.88-.17-2.83v-.13Zm-326.29,218.48c-1.2.69-2.55,1.02-3.99,1.02-5.51,0-12.28-4.85-16.74-12.56-5.61-9.72-5.45-20.36.37-23.72,1.2-.69,2.55-1.02,3.99-1.02,5.51,0,12.28,4.85,16.74,12.56,5.61,9.72,5.45,20.36-.37,23.72Zm318.4-179.74c-.15,1.15-.58,2.16-.77,3.31-.11.63-.42,1.21-.67,1.8-.24.56-.29,1.13-.69,1.59-.2.23-.64.74-.95.96,0,0,0,0,0,0l-311.3,169.83c3-5.22,2.22-14.03-2.47-22.15-4.73-8.18-12.03-13.27-18.08-13.21l300.33-184.87c1.33-.15,2.67-.14,3.99.07,2.52.4,4.93,1.47,7.12,2.82h0s.07.05.11.07c.68.42,1.33.87,1.96,1.33,2.48,1.83,4.79,4.01,6.49,6.6.09.02.17.05.26.06-.29-1.22-.49-2.46-.65-3.7-1.08-1.07-2.22-2.1-3.43-3.09-1.08-.88-2.21-1.7-3.42-2.44.13-.12.26-.22.4-.31-.03-.09-.05-.18-.05-.29,0-.5.46-1.04.99-.99,1.7.16,3.43.46,5.04,1.03,1.56.56,3.14,1.6,4.84,1.52.66-.03.98.49.95,1,.08.01.15.02.23.03-.78,1.65-1.53,3.25-2.27,4.82.02,0,.04-.01.07-.02.98-1.28,2.34-2.18,3.63-3.15.18-.13.39-.17.6-.13.17-.11.33-.22.51-.31.16-.09.32-.14.5-.14.09.01.18.02.26.04.04,0,.07.03.11.04.38-.26.79-.5,1.22-.71-.4,4.87-.75,9.25-1.1,13.48.18-.85.39-1.7.62-2.53.28-1.01.58-2.05.98-3.06.02-.76.05-1.51.14-2.24.16-1.19.56-2.26,1.24-3.15.01-.06.03-.12.04-.18.12-.47.46-.68.82-.71.21-.17.43-.33.67-.48.23-.14.46-.17.67-.13.22-.11.44-.22.66-.31.27-.12.55-.13.79-.06.06-.03.11-.06.17-.09,0,.05-.01.1-.02.15.38.18.62.59.52,1.12-.32,1.6-.44,3.24-.48,4.87-.06,2.45.04,4.94-.03,7.41.41-2.14.83-4.27,1.44-6.22.27-2.2.6-4.41,1.98-6.23.34-.44.84-.63,1.36-.36.12.06.23.17.31.29.12-.1.24-.21.36-.31.31,14.83-2.24,26.68-6.01,37.31Z"/>
  </g>
</svg>