<?xml version="1.0" encoding="utf-8"?>
<!-- Generator: Adobe Illustrator 28.0.0, SVG Export Plug-In . SVG Version: 6.00 Build 0)  -->
<svg version="1.1" id="Layer_1" xmlns="http://www.w3.org/2000/svg" xmlns:xlink="http://www.w3.org/1999/xlink" x="0px" y="0px"
	 viewBox="0 0 650 525" style="enable-background:new 0 0 650 525;" xml:space="preserve">
<style type="text/css">
	.st0{fill:none;stroke:#FFFFFF;stroke-linecap:square;stroke-miterlimit:10;}
	.st1{fill:none;stroke:#FFFFFF;stroke-linecap:square;stroke-miterlimit:10;stroke-dasharray:0,0,12.42,12.42;}
	.st2{fill:none;stroke:#FFFFFF;stroke-linecap:square;stroke-miterlimit:10;stroke-dasharray:0,0,11.97,11.97;}
	.st3{fill:#FFFFFF;}
	.st4{opacity:0.3;}
</style>
<g>
	<line class="st0" x1="240.8" y1="390" x2="243.2" y2="384.5"/>
	<line class="st1" x1="248.3" y1="373.1" x2="357.7" y2="129.6"/>
	<line class="st0" x1="360.2" y1="123.9" x2="362.7" y2="118.4"/>
</g>
<g>
	<line class="st0" x1="88.8" y1="473.6" x2="87.8" y2="467.7"/>
	<line class="st2" x1="85.9" y1="455.9" x2="55.6" y2="272.9"/>
	<line class="st0" x1="54.7" y1="267" x2="53.7" y2="261"/>
</g>
<path class="st3" d="M250.2,418.4c-6.2-10.7-16.6-16.2-23.2-12.4l0.4,0.6l-0.4-0.6l-125.8,76.8l0,0c-2.5,1.4-3.8,4.5-3.7,8.6
	c0.1,3.9,1.4,8.4,3.9,12.6c2.4,4.2,5.6,7.6,9,9.7c2.1,1.3,4.1,1.9,5.9,1.9c1.2,0,2.4-0.3,3.4-0.9c0.2-0.1,0.4-0.3,0.6-0.4
	l129.1-69.5l-0.3-0.6l0.4,0.6C255.9,440.9,256.3,429.1,250.2,418.4L250.2,418.4z M111,512.5c-3.2-1.9-6.2-5.2-8.5-9.2
	s-3.6-8.2-3.7-11.9c-0.1-3.6,1-6.2,3.1-7.3s4.8-0.8,7.9,1c3.2,1.9,6.2,5.2,8.5,9.2c4.7,8.1,5,16.8,0.6,19.3
	C116.8,514.7,114,514.3,111,512.5z M248.6,443.6l-126.2,68c2-4.3,1-11.2-2.9-18c-2.4-4.2-5.6-7.6-9-9.7c-1.8-1.1-3.6-1.7-5.3-1.9
	l122.4-74.8c6-3.5,15.6,1.9,21.3,11.9S254.6,440.1,248.6,443.6L248.6,443.6z"/>
<g class="st4">
	<path class="st3" d="M619.8,200.8l10.5-11.1l1.3-2l-0.7-0.9l-3,2.2l-2.5,1.8l-2.3,1.7l-11.8,7.8c-3.8-0.2-7.8-1.2-11.8-1.9
		c-2.2-0.5-4.7-1.5-6.9-2c-1,0-2.1-0.1-3.1-0.1c-0.2,0-0.5,0-0.8,0c-0.7,0.2-1.4,0.5-2,1c-0.2,0.1-0.5,0-0.8-0.2c-1-0.5-2-0.8-2.9-1
		h-0.7c0,0-3.1,0.1-3.1,0.1c-2.6,0.3-2.4,0.7-4.8,1.8c-1.7,0.8-3.2,1.9-4.6,3.2L272.3,384.1c-6.5,3.7-6.8,15.2-0.9,25.6
		c4.7,8.1,12,13.2,18,13.2c1.6,0,3.2-0.4,4.6-1.2c0.2-0.1,0.4-0.2,0.6-0.4l314.8-171.8c0.1,0,0.3-0.1,0.4-0.2
		c0.3-0.3,0.6-0.4,0.8-0.7c2.2-5.2,3.8-10.6,5.5-16c0.1-0.2,0.2-0.4,0.4-0.5c0.1-0.4,0.1-0.7,0.2-1.1c0.9-5.4,1.7-10.8,2.3-16.2
		c0.3-3.3,0.6-6.6,0.9-9.8c-0.2-0.9-0.2-1.9-0.2-2.8V202l0,0c0-0.3,0.1-0.7,0.1-1C619.8,201,619.8,200.9,619.8,200.8z M293.4,420.5
		c-1.2,0.7-2.5,1-4,1c-5.5,0-12.3-4.8-16.7-12.6c-5.6-9.7-5.5-20.4,0.4-23.7c1.2-0.7,2.5-1,4-1c5.5,0,12.3,4.9,16.7,12.6
		C299.4,406.5,299.2,417.2,293.4,420.5z M611.8,240.8L611.8,240.8c-0.1,1.2-0.6,2.2-0.8,3.3c-0.1,0.6-0.4,1.2-0.7,1.8
		c-0.2,0.6-0.3,1.1-0.7,1.6c-0.2,0.2-0.6,0.7-1,1L297.4,418.3c3-5.2,2.2-14-2.5-22.2c-4.7-8.2-12-13.3-18.1-13.2L577.2,198
		c1.3-0.2,2.7-0.1,4,0.1c0.2,0,0.3,0.1,0.5,0.1c1.9,0,3.9-0.1,5.8,0.1c0.3,0,0.6,0.1,0.9,0.1c0,0,0.1,0,0.1-0.1
		c0.3-0.2,0.6-0.3,0.9-0.3c0.3-0.1,0.7-0.1,1,0c0.2,0,0.3,0.1,0.5,0.1c0,0,0,0,0.1,0c1.7,0.2,3.4,0.5,5,1c1.6,0.6,3.1,1.6,4.8,1.5
		c0.7,0,1,0.5,1,1c0.1,0,0.2,0,0.2,0c-0.8,1.7-1.5,3.2-2.3,4.8c0,0,0,0,0.1,0c1-1.3,2.3-2.2,3.6-3.1c0.2-0.1,0.4-0.2,0.6-0.1
		c0.2-0.1,0.3-0.2,0.5-0.3c0.2-0.1,0.3-0.1,0.5-0.1c0.1,0,0.2,0,0.3,0c0,0,0.1,0,0.1,0c0.4-0.3,0.8-0.5,1.2-0.7
		c-0.4,4.9-0.8,9.2-1.1,13.5c0.2-0.8,0.4-1.7,0.6-2.5c0.3-1,0.6-2.1,1-3.1c0-0.8,0-1.5,0.1-2.2c0.2-1.2,0.6-2.3,1.2-3.1
		c0-0.1,0-0.1,0-0.2c0.1-0.5,0.5-0.7,0.8-0.7c0.2-0.2,0.4-0.3,0.7-0.5c0.2-0.1,0.5-0.2,0.7-0.1c0.2-0.1,0.4-0.2,0.7-0.3
		c0.3-0.1,0.5-0.1,0.8-0.1c0.1,0,0.1-0.1,0.2-0.1c0,0.1,0,0.1,0,0.2c0.4,0.2,0.6,0.6,0.5,1.1c-0.3,1.6-0.4,3.2-0.5,4.9
		c-0.1,2.5,0,4.9,0,7.4c0.4-2.1,0.8-4.3,1.4-6.2c0.3-2.2,0.6-4.4,2-6.2c0.3-0.4,0.8-0.6,1.4-0.4c0.1,0.1,0.2,0.2,0.3,0.3
		c0.1-0.1,0.2-0.2,0.4-0.3C618.1,218.3,615.5,230.1,611.8,240.8z"/>
</g>
<path class="st3" d="M355.1,41.3c-11.8-23.7-33.4-36.9-48.2-29.6l0.7,1.3l-0.7-1.3L27.4,160l0,0c-11.3,5.7-12.4,25.6-2.5,45.4
	c4.6,9.3,11,17.1,18,21.9c4.3,3,8.6,4.6,12.5,4.8c2.6,0.2,5.1-0.3,7.3-1.4c0.5-0.2,1-0.5,1.4-0.8L349.7,97.6l-0.6-1.4l0.7,1.3
	C364.5,90.2,366.9,65,355.1,41.3L355.1,41.3z M58.6,199.9c-1.7,0.1-4.3-2.4-5.7-5.6s-1.1-5.9,0.6-6c1.7-0.1,4.3,2.4,5.7,5.6
	S60.4,199.8,58.6,199.9z M38,180.4c-1.7,0.1-4.3-2.4-5.7-5.6s-1.1-5.9,0.6-6c1.7-0.1,4.3,2.4,5.7,5.6S39.7,180.3,38,180.4z
	 M36.4,203.1c-1.7,0.1-4.3-2.4-5.7-5.6s-1.1-5.9,0.6-6c1.7-0.1,4.3,2.4,5.7,5.6S38.1,203,36.4,203.1z M34.4,185.8
	c-0.2,2.4-2.2,2.5-4.5,0.3c-2.2-2.2-3.8-5.9-3.5-8.2s2.2-2.5,4.5-0.3C33,179.8,34.6,183.5,34.4,185.8z M47.2,201.9
	c-2-0.3-4.7-3.4-5.9-6.8c-1.2-3.4-0.6-5.9,1.5-5.6c2,0.3,4.7,3.4,5.9,6.8C49.9,199.7,49.2,202.2,47.2,201.9z M47.9,215.7
	c-0.2,2.4-2.2,2.5-4.5,0.3c-2.2-2.2-3.8-5.9-3.5-8.2s2.2-2.5,4.5-0.3S48.2,213.3,47.9,215.7z M42.1,175.7c0.2-2.4,2.2-2.5,4.5-0.3
	c2.2,2.2,3.8,5.9,3.5,8.2s-2.2,2.5-4.5,0.3S41.8,178,42.1,175.7z M51.4,217c-1.4-3.2-1.1-5.9,0.6-6c1.7-0.1,4.3,2.4,5.7,5.6
	s1.1,5.9-0.6,6C55.3,222.8,52.8,220.2,51.4,217z M55.6,205.6c0.2-2.4,2.2-2.5,4.5-0.3c2.2,2.2,3.8,5.9,3.5,8.2s-2.2,2.5-4.5,0.3
	C57,211.6,55.4,207.9,55.6,205.6z M36.6,217.5L36.6,217.5C36.6,217.5,36.6,217.5,36.6,217.5C36.6,217.5,36.6,217.5,36.6,217.5z
	 M348.4,94.9L69.1,224.2c4.8-8.9,3.6-24-3.9-39c-4.7-9.3-11-17.1-18-21.9c-3.8-2.6-7.5-4.2-11-4.7L308.3,14.4
	c13.3-6.6,33.1,6,44.2,28.2S361.7,88.3,348.4,94.9L348.4,94.9z"/>
</svg>
