<?xml version="1.0" encoding="UTF-8"?>
<svg id="Layer_1" data-name="Layer 1" xmlns="http://www.w3.org/2000/svg" xmlns:xlink="http://www.w3.org/1999/xlink" viewBox="0 0 650 525">
  <defs>
    <style>
      .cls-1, .cls-2 {
        stroke-width: 0px;
      }

      .cls-1, .cls-3, .cls-4, .cls-5 {
        fill: none;
      }

      .cls-2 {
        fill: #fff;
      }

      .cls-6 {
        opacity: .3;
      }

      .cls-3 {
        stroke-dasharray: 0 0 11.97 11.97;
      }

      .cls-3, .cls-4, .cls-5 {
        stroke: #fff;
        stroke-linecap: square;
        stroke-miterlimit: 10;
      }

      .cls-7 {
        clip-path: url(#clippath);
      }

      .cls-4 {
        stroke-dasharray: 0 0 12.42 12.42;
      }
    </style>
    <clipPath id="clippath">
      <ellipse class="cls-1" cx="44.01" cy="194.63" rx="18.61" ry="32.73" transform="translate(-77.95 36.7) rotate(-24.94)"/>
    </clipPath>
  </defs>
  <g>
    <line class="cls-5" x1="240.77" y1="389.95" x2="243.22" y2="384.48"/>
    <line class="cls-4" x1="248.31" y1="373.15" x2="357.68" y2="129.56"/>
    <line class="cls-5" x1="360.23" y1="123.9" x2="362.68" y2="118.42"/>
  </g>
  <g>
    <line class="cls-5" x1="88.8" y1="473.58" x2="87.82" y2="467.66"/>
    <line class="cls-3" x1="85.87" y1="455.85" x2="55.62" y2="272.86"/>
    <line class="cls-5" x1="54.65" y1="266.96" x2="53.67" y2="261.04"/>
  </g>
  <path class="cls-2" d="m250.17,418.44c-6.16-10.67-16.59-16.23-23.24-12.39l.35.61-.36-.6-125.78,76.8h0c-2.49,1.44-3.82,4.49-3.74,8.56.07,3.94,1.45,8.42,3.87,12.61,2.42,4.2,5.62,7.63,8.99,9.66,2.1,1.26,4.12,1.9,5.94,1.9,1.22,0,2.36-.29,3.36-.87.22-.13.43-.27.63-.42l129.08-69.53-.33-.62.35.61c6.65-3.84,7.05-15.65.89-26.32Zm-139.2,94.06c-3.17-1.91-6.19-5.16-8.5-9.16-2.31-4-3.61-8.24-3.68-11.94-.06-3.56,1.02-6.16,3.06-7.34,2.04-1.18,4.84-.81,7.88,1.02,3.17,1.91,6.19,5.16,8.5,9.16,4.69,8.12,4.97,16.77.62,19.28-2.04,1.18-4.84.81-7.88-1.02Zm137.62-68.94l-126.23,68c1.97-4.27.99-11.24-2.91-18.01-2.42-4.2-5.62-7.63-8.99-9.66-1.84-1.11-3.62-1.73-5.26-1.87l122.44-74.76c5.99-3.45,15.55,1.88,21.33,11.88,5.78,10,5.61,20.95-.38,24.41Z"/>
  <g class="cls-6">
    <path class="cls-2" d="m604.95,218.31c-.24-.3-.55-.57-.84-.82-.28-.24-.58-.48-.88-.71-.11.04-.21.08-.32.12.05.35.08.71.1,1.06,0,.18-.04.35-.08.53.63,1.11,1.2,2.25,1.74,3.4.13.04.25.07.37.13.35.11.66.3.93.56.19-.18.41-.34.63-.48-.39-.94-.69-1.93-1.13-2.85-.15-.32-.32-.66-.54-.94Z"/>
    <path class="cls-2" d="m619.67,202.03c.03-.33.07-.66.12-.98.01-.08.03-.16.05-.24l10.54-11.11,1.27-2.04-.7-.95-3.01,2.22-2.47,1.82-2.28,1.68-11.85,7.8c-3.77-.2-7.8-1.16-11.75-1.95-2.25-.45-4.66-1.45-6.92-1.98-1.04-.03-2.08-.09-3.12-.15-.25-.02-.5-.03-.75-.05-.71.16-1.37.46-1.97.96-.16.14-.54-.03-.84-.16-1.02-.46-1.99-.8-2.92-1.05-.21,0-.43,0-.65,0-.04,0-3.09.09-3.13.09-2.64.3-2.41.68-4.79,1.78-1.72.8-3.21,1.91-4.57,3.18l-297.6,183.19h0c-6.45,3.74-6.83,15.2-.85,25.56,4.7,8.14,11.95,13.22,17.98,13.22,1.65,0,3.21-.38,4.6-1.18.2-.12.4-.24.59-.37l314.83-171.76c.14-.04.27-.1.42-.23.35-.3.58-.43.75-.68,2.17-5.21,3.84-10.61,5.46-16.01.07-.25.21-.42.38-.53.06-.36.12-.72.18-1.08.9-5.38,1.71-10.75,2.27-16.18.34-3.28.62-6.56.9-9.85-.21-.92-.24-1.88-.17-2.83v-.13Zm-326.29,218.48c-1.2.69-2.55,1.02-3.99,1.02-5.51,0-12.28-4.85-16.74-12.56-5.61-9.72-5.45-20.36.37-23.72,1.2-.69,2.55-1.02,3.99-1.02,5.51,0,12.28,4.85,16.74,12.56,5.61,9.72,5.45,20.36-.37,23.72Zm318.4-179.74c-.15,1.15-.58,2.16-.77,3.31-.11.63-.42,1.21-.67,1.8-.24.56-.29,1.13-.69,1.59-.2.23-.64.74-.95.96,0,0,0,0,0,0l-311.3,169.83c3-5.22,2.22-14.03-2.47-22.15-4.73-8.18-12.03-13.27-18.08-13.21l300.33-184.87c1.33-.15,2.67-.14,3.99.07,2.52.4,4.93,1.47,7.12,2.82h0s.07.05.11.07c.68.42,1.33.87,1.96,1.33,2.48,1.83,4.79,4.01,6.49,6.6.09.02.17.05.26.06-.29-1.22-.49-2.46-.65-3.7-1.08-1.07-2.22-2.1-3.43-3.09-1.08-.88-2.21-1.7-3.42-2.44.13-.12.26-.22.4-.31-.03-.09-.05-.18-.05-.29,0-.5.46-1.04.99-.99,1.7.16,3.43.46,5.04,1.03,1.56.56,3.14,1.6,4.84,1.52.66-.03.98.49.95,1,.08.01.15.02.23.03-.78,1.65-1.53,3.25-2.27,4.82.02,0,.04-.01.07-.02.98-1.28,2.34-2.18,3.63-3.15.18-.13.39-.17.6-.13.17-.11.33-.22.51-.31.16-.09.32-.14.5-.14.09.01.18.02.26.04.04,0,.07.03.11.04.38-.26.79-.5,1.22-.71-.4,4.87-.75,9.25-1.1,13.48.18-.85.39-1.7.62-2.53.28-1.01.58-2.05.98-3.06.02-.76.05-1.51.14-2.24.16-1.19.56-2.26,1.24-3.15.01-.06.03-.12.04-.18.12-.47.46-.68.82-.71.21-.17.43-.33.67-.48.23-.14.46-.17.67-.13.22-.11.44-.22.66-.31.27-.12.55-.13.79-.06.06-.03.11-.06.17-.09,0,.05-.01.1-.02.15.38.18.62.59.52,1.12-.32,1.6-.44,3.24-.48,4.87-.06,2.45.04,4.94-.03,7.41.41-2.14.83-4.27,1.44-6.22.27-2.2.6-4.41,1.98-6.23.34-.44.84-.63,1.36-.36.12.06.23.17.31.29.12-.1.24-.21.36-.31.31,14.83-2.24,26.68-6.01,37.31Z"/>
  </g>
  <g>
    <g class="cls-7">
      <g>
        <path class="cls-2" d="m43.17,195.93c-.09-.15-.2-.29-.23-.42-.05-.21-.11-.53-.04-.59.1-.08.33-.02.46.11.5.49.69,1.39.42,1.88-.47.85-1.54.65-2.47-.54-1.13-1.44-1.55-3.03-1.51-4.58.05-2.15,1.35-3.25,3.17-2.8,2.49.62,5.04,3.71,6.21,7.53,1.44,4.71.46,8.79-2.31,9.63-4.05,1.22-9.53-3.47-12.09-10.35-3.24-8.7-1.17-16.13,4.52-16.18,5.34-.05,11.42,5.6,14.77,13.74,4.18,10.13,2.76,19.91-3.17,21.89-6.97,2.33-16.36-5.19-21.29-17.07-4.89-11.76-3.74-23.38,2.65-26.81,8-4.29,20.14,4.31,26.65,18.87,6.87,15.37,5.15,30.74-3.81,34.08-9.51,3.55-22.66-6.24-30.06-22.38-8.07-17.6-6.41-35.63,3.69-39.99,10.9-4.71,26.55,6.62,35.19,25.55,8.94,19.58,7.88,40.63-4.39,45.81-11.97,5.05-29.79-7.1-39.86-29.45-9.49-21.05-8.8-44.21,4.27-50.7,13.02-6.47,33.28,6.39,44.97,31.57,10.81,23.27,9.95,47.12-1.97,55.94-2.7,2-5.8,3.08-9.27,3.3-.08,0-.17.06-.24,0-.19-.14-.36-.34-.55-.51.07-.19.09-.5.22-.53.35-.1.75-.06,1.12-.11,7.72-.97,13.11-5.83,15.89-14.96,2.23-7.31,2.15-16.04-.04-25.92-2.36-10.69-6.69-20.66-13.16-29.7-6.82-9.52-14.26-15.65-22.18-18.33-8.44-2.86-15.24-1.32-19.97,5.19-4.8,6.6-5.98,16.19-3.63,28.35,2.4,12.46,7.67,23.66,15.91,33.15,6.04,6.96,12.3,11.01,18.63,12.34,6.94,1.46,12.38-.57,15.97-6.56,3.8-6.34,4.4-15.05,2.04-25.76-1.68-7.64-4.72-14.9-9.19-21.54-6.42-9.56-13.5-15.16-21.02-16.73-6.57-1.37-11.51.91-14.53,7.09-2.73,5.59-3.01,12.89-.94,21.62,2.28,9.64,6.63,18.03,13.14,24.81,5.04,5.25,10.1,7.9,15.03,8.12,5.05.23,8.71-2.2,10.8-7.49,3.54-8.97.26-23.9-7.59-34.47-4.9-6.59-10.1-10.14-15.41-10.6-5.25-.45-8.73,2.34-10.15,8.56-1.74,7.63,1.29,18.64,7.17,26.37,6.35,8.35,14.62,10.81,18.59,5.53,3.64-4.86,2.51-15.07-2.56-22.98-4.64-7.25-11.37-10.28-14.92-6.71-3.1,3.13-2.73,10.55.83,16.66,3.04,5.21,7.62,7.79,10.36,5.84,2.26-1.61,2.4-6.23.31-10.34-1.66-3.26-4.46-5.13-6.11-4.09-1.03.66-1.24,2.43-.51,4.3.55,1.4,1.56,2.17,2.08,1.58.04-.05.06-.13.1-.21Z"/>
        <path class="cls-2" d="m57.48,244.52c-.11,0-.23-.04-.35-.13-.15-.11-.29-.26-.44-.4l-.39-.37.12-.31s.03-.09.04-.14c.05-.22.14-.59.51-.7.28-.08.55-.09.81-.1.13,0,.26-.01.38-.03,7.6-.96,12.81-5.87,15.47-14.61,2.16-7.1,2.15-15.74-.05-25.67-2.39-10.81-6.79-20.74-13.08-29.51-6.73-9.39-14.11-15.5-21.93-18.15-8.39-2.84-14.92-1.16-19.4,5.01-4.69,6.45-5.88,15.86-3.55,27.96,2.42,12.55,7.73,23.62,15.8,32.92,5.86,6.75,12.03,10.85,18.36,12.18,6.86,1.44,12.05-.69,15.44-6.33,3.67-6.12,4.34-14.67,1.98-25.4-1.69-7.7-4.76-14.89-9.12-21.37-6.33-9.42-13.3-14.97-20.71-16.52-6.41-1.33-11.11.96-13.98,6.82-2.66,5.44-2.96,12.6-.91,21.28,2.3,9.71,6.67,17.98,13.02,24.58,4.87,5.07,9.81,7.76,14.69,7.97,4.88.22,8.35-2.19,10.32-7.18,3.51-8.88.27-23.49-7.53-33.99-4.8-6.45-9.86-9.95-15.05-10.4-5.06-.41-8.28,2.32-9.62,8.17-1.69,7.42,1.29,18.34,7.08,25.96,3.87,5.09,8.59,8.14,12.62,8.11,2.12,0,3.91-.9,5.17-2.58,3.5-4.66,2.34-14.72-2.58-22.41-2.9-4.54-6.8-7.59-10.17-7.95-1.6-.17-2.94.27-3.97,1.32-2.94,2.96-2.53,10.16.91,16.05,1.92,3.28,4.57,5.64,6.93,6.14,1.05.23,1.96.07,2.71-.46,2.06-1.47,2.13-5.82.15-9.7-1.05-2.06-2.63-3.63-4.04-4.02-.53-.15-.99-.11-1.36.13-.82.52-.95,2.07-.31,3.7.33.83.78,1.31,1.06,1.43-.03-.06-.05-.12-.06-.19-.1-.44-.16-.85.14-1.09.33-.26.84-.13,1.12.14.66.65.89,1.78.51,2.48-.25.46-.66.73-1.14.77-.71.06-1.49-.39-2.16-1.24-1.12-1.42-1.66-3.07-1.62-4.9.03-1.25.46-2.27,1.23-2.85.69-.52,1.58-.67,2.57-.42,2.69.67,5.33,3.84,6.56,7.87.97,3.16.91,6.12-.16,8.12-.58,1.08-1.44,1.82-2.48,2.14-4.33,1.3-10.03-3.47-12.7-10.65-2.11-5.65-2.08-11.11.08-14.24,1.16-1.69,2.86-2.59,4.9-2.61,5.55-.04,11.81,5.73,15.24,14.05,2.76,6.69,3.2,13.63,1.15,18.11-1.02,2.24-2.62,3.77-4.63,4.44-7.24,2.42-16.86-5.2-21.91-17.35-5.01-12.07-3.78-23.87,2.88-27.44,2.61-1.4,5.75-1.54,9.09-.4,6.94,2.37,13.94,9.84,18.25,19.51,4.53,10.14,5.52,20.82,2.57,27.86-1.43,3.42-3.73,5.8-6.66,6.9-9.72,3.63-23.2-6.31-30.69-22.64-5.32-11.6-6.63-23.99-3.43-32.32,1.55-4.03,4.1-6.91,7.38-8.33,11.27-4.87,27.02,6.46,35.84,25.8,6.12,13.4,7.63,27.58,3.96,37.01-1.78,4.57-4.76,7.84-8.61,9.46-12.78,5.39-30.58-7.66-40.51-29.71-8.89-19.72-9.64-44.33,4.5-51.35,4.36-2.17,9.63-2.27,15.24-.31,11.59,4.06,22.95,16.07,30.4,32.11,10.83,23.32,9.92,47.63-2.12,56.55-2.74,2.03-5.94,3.17-9.53,3.4-.05.01-.13.03-.24.02Zm.26-.92s0,0,0,0c0,0,0,0,0,0Zm-.24-.21s.08.08.12.11c0,0,.02,0,.02,0,3.39-.22,6.42-1.3,9-3.21,1.33-.99,2.52-2.17,3.57-3.53-2.98,3.75-6.97,5.95-11.93,6.58-.15.02-.31.03-.47.03-.11,0-.22,0-.32.02Zm-8.81-10.15c3.77,1.06,7.41,1,10.65-.36,3.48-1.47,6.11-4.25,7.82-8.29-.33.71-.69,1.4-1.09,2.06-3.63,6.05-9.18,8.34-16.5,6.8-.3-.06-.59-.13-.88-.2Zm-.64-8.99c2.42.53,4.75.43,6.89-.37,2.29-.86,4.17-2.6,5.49-5.08-2.24,3.98-5.69,5.89-10.28,5.68-.7-.03-1.4-.11-2.1-.24Zm-1.37-9.18c1.41.23,2.78.15,4.07-.27,1.69-.56,3.06-1.86,3.96-3.76-.22.41-.46.79-.73,1.15-1.46,1.94-3.52,2.98-5.97,2.98-.44,0-.88-.03-1.33-.09Zm-1.76-9.25c.63.08,1.24.04,1.81-.13.8-.24,1.43-.8,1.89-1.65.04-.08.08-.16.12-.24-.3.52-.69.96-1.15,1.29-.76.54-1.67.79-2.67.73Zm-2.33-8.99c.16.08.3.11.41.1.09,0,.23-.04.35-.26.03-.05.04-.1.05-.17-.22.23-.5.34-.81.33Zm.58-.91l.2.13s0-.02,0-.03l-.2-.09Zm-.83-6.51c-.47-.03-.88.08-1.2.33-.22.17-.41.41-.54.69.17-.24.38-.45.63-.61.45-.29.99-.39,1.56-.36-.15-.03-.31-.06-.45-.06Zm-2.54-9.25c-.16,0-.33-.01-.49-.01-1.7.01-3.12.77-4.09,2.18-.22.32-.41.67-.59,1.04.31-.58.68-1.09,1.12-1.53,1.19-1.2,2.76-1.78,4.56-1.63-.17-.02-.34-.04-.51-.05Zm-2.38-9.35c-1.79-.11-3.45.24-4.92,1.02-1.18.63-2.17,1.57-2.96,2.75,1.93-2.72,4.8-3.97,8.47-3.66.58.05,1.16.13,1.73.25-.79-.2-1.57-.33-2.32-.37Zm-2.57-9.36c-2.08-.12-4.07.19-5.91.99-2.6,1.12-4.71,3.26-6.17,6.23,3.11-5.92,8.09-8.21,14.8-6.81.16.03.31.07.46.1-1.08-.28-2.14-.45-3.18-.51Zm-2.48-9.39c-2.97-.18-5.75.35-8.21,1.57-3.18,1.58-5.65,4.24-7.38,7.71.48-.88,1-1.72,1.58-2.52,4.61-6.35,11.23-8.25,19.67-5.65-1.95-.63-3.85-1-5.67-1.11Z"/>
      </g>
    </g>
    <g>
      <path class="cls-2" d="m55.72,232.65c-3.91-.23-8.17-1.85-12.5-4.82-6.97-4.78-13.38-12.53-18.04-21.83h0c-9.93-19.8-8.86-39.75,2.43-45.41,5.53-2.77,12.56-1.57,19.8,3.39,6.97,4.78,13.38,12.53,18.04,21.83,9.93,19.8,8.86,39.75-2.43,45.41-2.22,1.11-4.68,1.59-7.3,1.43Zm-27.86-27.99c4.44,8.85,10.5,16.2,17.06,20.7,6.3,4.32,12.25,5.45,16.76,3.18,9.63-4.83,10.12-23.39,1.1-41.39-4.44-8.85-10.5-16.2-17.06-20.7-6.3-4.32-12.25-5.45-16.76-3.18-9.63,4.83-10.12,23.39-1.1,41.39h0Z"/>
      <path class="cls-2" d="m349.86,97.68l-1.34-2.68c13.27-6.65,15.02-30.1,3.9-52.27-11.12-22.17-30.95-34.8-44.22-28.15l-1.34-2.68c14.75-7.4,36.39,5.83,48.24,29.48,11.86,23.65,9.51,48.9-5.24,56.3Z"/>
      <rect class="cls-2" x="9.73" y="86.08" width="316.36" height="3" transform="translate(-21.46 89.2) rotate(-28.04)"/>
      <rect class="cls-2" x="49.06" y="161.2" width="314.8" height="3" transform="translate(-49.36 102.25) rotate(-24.94)"/>
    </g>
  </g>
</svg>