<?xml version="1.0" encoding="utf-8"?>
<!-- Generator: Adobe Illustrator 28.0.0, SVG Export Plug-In . SVG Version: 6.00 Build 0)  -->
<svg version="1.1" id="Layer_1" xmlns="http://www.w3.org/2000/svg" xmlns:xlink="http://www.w3.org/1999/xlink" x="0px" y="0px"
	 viewBox="0 0 650 525" style="enable-background:new 0 0 650 525;" xml:space="preserve">
<style type="text/css">
	.st0{fill:none;stroke:#FFFFFF;stroke-linecap:square;stroke-miterlimit:10;}
	.st1{fill:none;stroke:#FFFFFF;stroke-linecap:square;stroke-miterlimit:10;stroke-dasharray:0,0,12.42,12.42;}
	.st2{fill:none;stroke:#FFFFFF;stroke-linecap:square;stroke-miterlimit:10;stroke-dasharray:0,0,11.97,11.97;}
	.st3{fill:#FFFFFF;}
	.st4{opacity:0.3;}
</style>
<g>
	<line class="st0" x1="240.8" y1="390" x2="243.2" y2="384.5"/>
	<line class="st1" x1="248.3" y1="373.1" x2="357.7" y2="129.6"/>
	<line class="st0" x1="360.2" y1="123.9" x2="362.7" y2="118.4"/>
</g>
<g>
	<line class="st0" x1="88.8" y1="473.6" x2="87.8" y2="467.7"/>
	<line class="st2" x1="85.9" y1="455.9" x2="55.6" y2="272.9"/>
	<line class="st0" x1="54.7" y1="267" x2="53.7" y2="261"/>
</g>
<path class="st3" d="M355.5,41.6c-11.8-23.7-33.4-37-48.1-29.7l0.7,1.3l-0.7-1.3L27.5,159.6l0,0c-11.3,5.6-12.4,25.6-2.6,45.4
	c4.6,9.3,11,17.1,18,21.9c4.3,3,8.6,4.6,12.5,4.9c2.6,0.2,5.1-0.3,7.3-1.4c0.5-0.2,1-0.5,1.4-0.8L350,97.9l-0.6-1.4l0.7,1.3
	C364.8,90.6,367.3,65.3,355.5,41.6L355.5,41.6z M44.8,165.6l-17.7,22.9l10.3-26.6l-1.3-0.5c3,0.5,6.2,1.9,9.6,4.2
	c3.1,2.2,6.1,5,8.9,8.3l-0.7-0.1l-11.9,41.7l4.4-49.3L44.8,165.6L44.8,165.6z M28.9,162.3c2-1,4.4-1.3,6.9-1l-12.3,31.8
	C19.3,178.9,21.1,166.2,28.9,162.3z M27.7,203.7c-1.7-3.4-3.1-6.9-4.1-10.2l1.3,0.7l19.5-25.2l-4.6,51.6
	C35.1,216.1,30.9,210.3,27.7,203.7L27.7,203.7z M44.6,224.5c-1-0.7-1.9-1.4-2.9-2.2L54,179.5l1.4,47.8l1.6,0.3l8.4-21.6l-1.6-0.6
	L56.9,223l-1.4-47.9c2.6,3.3,5,7.1,7.1,11.2c9,18,8.4,36.6-1.2,41.4C56.9,229.9,50.9,228.8,44.6,224.5L44.6,224.5z M348.7,95.2
	L69.2,223.9c4.8-8.9,3.6-23.9-3.8-39c-4.6-9.3-11-17.1-18-21.9c-3.8-2.6-7.5-4.2-11-4.7L308.7,14.6c13.3-6.6,33.1,6.1,44.1,28.3
	C363.8,65.2,362,88.6,348.7,95.2L348.7,95.2z"/>
<path class="st3" d="M250.2,418.4c-6.2-10.7-16.6-16.2-23.2-12.4l0.4,0.6l-0.4-0.6l-125.8,76.8l0,0c-2.5,1.4-3.8,4.5-3.7,8.6
	c0.1,3.9,1.4,8.4,3.9,12.6c2.4,4.2,5.6,7.6,9,9.7c2.1,1.3,4.1,1.9,5.9,1.9c1.2,0,2.4-0.3,3.4-0.9c0.2-0.1,0.4-0.3,0.6-0.4
	l129.1-69.5l-0.3-0.6l0.4,0.6C255.9,440.9,256.3,429.1,250.2,418.4L250.2,418.4z M111,512.5c-3.2-1.9-6.2-5.2-8.5-9.2
	s-3.6-8.2-3.7-11.9c-0.1-3.6,1-6.2,3.1-7.3s4.8-0.8,7.9,1c3.2,1.9,6.2,5.2,8.5,9.2c4.7,8.1,5,16.8,0.6,19.3
	C116.8,514.7,114,514.3,111,512.5z M248.6,443.6l-126.2,68c2-4.3,1-11.2-2.9-18c-2.4-4.2-5.6-7.6-9-9.7c-1.8-1.1-3.6-1.7-5.3-1.9
	l122.4-74.8c6-3.5,15.6,1.9,21.3,11.9S254.6,440.1,248.6,443.6L248.6,443.6z"/>
<g class="st4">
	<path class="st3" d="M619.8,200.8l10.5-11.1l1.3-2l-0.7-0.9l-3,2.2l-2.5,1.8l-2.3,1.7l-11.8,7.8c-3.8-0.2-7.8-1.2-11.8-1.9
		c-2.2-0.5-4.7-1.5-6.9-2c-1,0-2.1-0.1-3.1-0.1c-0.2,0-0.5,0-0.8,0c-0.7,0.2-1.4,0.5-2,1c-0.2,0.1-0.5,0-0.8-0.2c-1-0.5-2-0.8-2.9-1
		h-0.7c0,0-3.1,0.1-3.1,0.1c-2.6,0.3-2.4,0.7-4.8,1.8c-1.7,0.8-3.2,1.9-4.6,3.2L272.3,384.1c-6.5,3.7-6.8,15.2-0.9,25.6
		c4.7,8.1,12,13.2,18,13.2c1.6,0,3.2-0.4,4.6-1.2c0.2-0.1,0.4-0.2,0.6-0.4l314.8-171.8c0.1,0,0.3-0.1,0.4-0.2
		c0.3-0.3,0.6-0.4,0.8-0.7c2.2-5.2,3.8-10.6,5.5-16c0.1-0.2,0.2-0.4,0.4-0.5c0.1-0.4,0.1-0.7,0.2-1.1c0.9-5.4,1.7-10.8,2.3-16.2
		c0.3-3.3,0.6-6.6,0.9-9.8c-0.2-0.9-0.2-1.9-0.2-2.8V202l0,0c0-0.3,0.1-0.7,0.1-1C619.8,201,619.8,200.9,619.8,200.8z M293.4,420.5
		c-1.2,0.7-2.5,1-4,1c-5.5,0-12.3-4.8-16.7-12.6c-5.6-9.7-5.5-20.4,0.4-23.7c1.2-0.7,2.5-1,4-1c5.5,0,12.3,4.9,16.7,12.6
		C299.4,406.5,299.2,417.2,293.4,420.5z M611.8,240.8L611.8,240.8c-0.1,1.2-0.6,2.2-0.8,3.3c-0.1,0.6-0.4,1.2-0.7,1.8
		c-0.2,0.6-0.3,1.1-0.7,1.6c-0.2,0.2-0.6,0.7-1,1L297.4,418.3c3-5.2,2.2-14-2.5-22.2c-4.7-8.2-12-13.3-18.1-13.2L577.2,198
		c1.3-0.2,2.7-0.1,4,0.1c0.5,0.1,1.1,0.2,1.6,0.3c1.9,0,3.7,0.1,5.5,0.3c0,0,0,0,0.1,0c0.6-0.1,1.2-0.2,1.8-0.2c0,0,0,0,0,0
		c0.2-0.2,0.4-0.4,0.7-0.4c1.7,0.2,3.4,0.5,5,1c1.6,0.6,3.1,1.6,4.8,1.5c0.7,0,1,0.5,1,1c0.1,0,0.2,0,0.2,0
		c-0.8,1.7-1.5,3.2-2.3,4.8c0,0,0,0,0.1,0c1-1.3,2.3-2.2,3.6-3.1c0.2-0.1,0.4-0.2,0.6-0.1c0.2-0.1,0.3-0.2,0.5-0.3
		c0.2-0.1,0.3-0.1,0.5-0.1c0.1,0,0.2,0,0.3,0c0,0,0.1,0,0.1,0c0.4-0.3,0.8-0.5,1.2-0.7c-0.4,4.9-0.8,9.2-1.1,13.5
		c0.2-0.8,0.4-1.7,0.6-2.5c0.3-1,0.6-2.1,1-3.1c0-0.8,0-1.5,0.1-2.2c0.2-1.2,0.6-2.3,1.2-3.1c0-0.1,0-0.1,0-0.2
		c0.1-0.5,0.5-0.7,0.8-0.7c0.2-0.2,0.4-0.3,0.7-0.5c0.2-0.1,0.5-0.2,0.7-0.1c0.2-0.1,0.4-0.2,0.7-0.3c0.3-0.1,0.5-0.1,0.8-0.1
		c0.1,0,0.1-0.1,0.2-0.1c0,0.1,0,0.1,0,0.2c0.4,0.2,0.6,0.6,0.5,1.1c-0.3,1.6-0.4,3.2-0.5,4.9c-0.1,2.5,0,4.9,0,7.4
		c0.4-2.1,0.8-4.3,1.4-6.2c0.3-2.2,0.6-4.4,2-6.2c0.3-0.4,0.8-0.6,1.4-0.4c0.1,0.1,0.2,0.2,0.3,0.3c0.1-0.1,0.2-0.2,0.4-0.3
		C618.1,218.3,615.5,230.1,611.8,240.8z"/>
</g>
</svg>
