<svg xmlns="http://www.w3.org/2000/svg" xmlns:xlink="http://www.w3.org/1999/xlink" width="912.375" height="758.079" viewBox="0 0 912.375 758.079">
  <defs>
    <clipPath id="clip-path">
      <rect id="Rectangle_902" data-name="Rectangle 902" width="328.221" height="543.902" fill="none"/>
    </clipPath>
    <clipPath id="clip-path-3">
      <rect id="Rectangle_900" data-name="Rectangle 900" width="47.924" height="204.056" fill="none"/>
    </clipPath>
    <clipPath id="clip-path-4">
      <path id="Path_5279" data-name="Path 5279" d="M202.846,437.311a40.322,40.322,0,0,0-3.176-77.128Z" transform="translate(-199.671 -360.183)" fill="none"/>
    </clipPath>
  </defs>
  <g id="blunt" transform="translate(-9969.625 -14602)">
    <g id="solid_box" transform="translate(9969.625 14882.75)" fill="rgba(255,255,255,0.05)" stroke="#ec0719" stroke-width="1">
      <rect width="291.75" height="250.659" stroke="none"/>
      <rect x="0.5" y="0.5" width="290.75" height="249.659" fill="none"/>
    </g>
    <g id="fluid_box" transform="translate(9969.625 15157.079)" fill="rgba(255,255,255,0.05)" stroke="#ec0719" stroke-width="1">
      <rect width="291.75" height="203" stroke="none"/>
      <rect x="0.5" y="0.5" width="290.75" height="202" fill="none"/>
    </g>
    <g id="paper_box" transform="translate(9973 14607)" fill="rgba(255,255,255,0.05)" stroke="#ec0719" stroke-width="1">
      <rect width="255" height="256" stroke="none"/>
      <rect x="0.5" y="0.5" width="254" height="255" fill="none"/>
    </g>
    <text id="solid_body" transform="translate(10028.625 14958.75)" fill="#fff" font-size="16" font-family="Acumin VF" font-weight="500"><tspan x="0" y="17">i. Shatter</tspan><tspan x="0" y="43">ii. Hash</tspan><tspan x="0" y="69">iii. Kief</tspan><tspan x="0" y="95">iv. Diamonds</tspan><tspan x="0" y="121">v. Isolate</tspan><tspan x="0" y="147"></tspan></text>
    <text id="fluid_body" transform="translate(10028.625 15233.079)" fill="#fff" font-size="16" font-family="Acumin VF" font-weight="500"><tspan x="0" y="17">i. Distillate</tspan><tspan x="0" y="43">ii. HTSFE</tspan><tspan x="0" y="69">iii. Live Rosin</tspan><tspan x="0" y="95">iv. FSO</tspan></text>
    <text id="paper_body" transform="translate(10032 14682)" fill="#fff" font-size="16" font-family="Acumin VF" font-weight="500"><tspan x="0" y="17">i. Hemp</tspan><tspan x="0" y="43">ii. Hybrid</tspan><tspan x="0" y="69">iii. Rose Petal</tspan><tspan x="0" y="95">iv. Chamomile</tspan><tspan x="0" y="121">v. Goji</tspan></text>
    <text id="solid_title" transform="translate(10028.625 14941.75)" fill="#ec0719" font-size="34" font-family="Acumin VF"><tspan x="0" y="0">Solid Concentrates</tspan></text>
    <text id="fluid_title" transform="translate(10028.625 15216.079)" fill="#ec0719" font-size="34" font-family="Acumin VF"><tspan x="0" y="0">Fluid Concentrates</tspan></text>
    <text id="paper_title" transform="translate(10032 14665)" fill="#ec0719" font-size="34" font-family="Acumin VF"><tspan x="0" y="0">Wrap Type</tspan></text>
    <line id="paper_line" x2="189" transform="translate(10229.5 14669.5)" fill="none" stroke="#ec0719" stroke-width="1"/>
    <path id="terpenes_line" d="M1763.927-3014v157h247.5" transform="translate(8615.573 18067.5)" fill="none" stroke="#ec0719" stroke-width="1"/>
    <line id="solid_line" x2="113.125" transform="translate(10261.375 15047.908)" fill="none" stroke="#ec0719" stroke-width="1"/>
    <g id="terpenes_box" transform="translate(10627 15148)" fill="rgba(255,255,255,0.05)" stroke="#ec0719" stroke-width="1">
      <rect width="255" height="212" stroke="none"/>
      <rect x="0.5" y="0.5" width="254" height="211" fill="none"/>
    </g>
    <g id="sizes_box" transform="translate(10627 14798.5)" fill="rgba(255,255,255,0.05)" stroke="#ec0719" stroke-width="1">
      <rect width="255" height="135" stroke="none"/>
      <rect x="0.5" y="0.5" width="254" height="134" fill="none"/>
    </g>
    <text id="terpenes_body" transform="translate(10686 15223)" fill="#fff" font-size="16" font-family="Acumin VF" font-weight="500"><tspan x="0" y="17">i. Botanical</tspan><tspan x="0" y="43">ii. Live Resin</tspan><tspan x="0" y="69">iii. Live Infusion</tspan><tspan x="0" y="95">iv. Cure Infusion</tspan></text>
    <text id="sizes_body" transform="translate(10686 14870.5)" fill="#fff" font-size="16" font-family="Acumin VF" font-weight="500"><tspan x="0" y="17">0.5g - 1.5g</tspan></text>
    <text id="sizes_title" transform="translate(10686 14853.5)" fill="#ec0719" font-size="34" font-family="Acumin VF"><tspan x="0" y="0">Sizes</tspan></text>
    <text id="terpenes_title" transform="translate(10686 15208)" fill="#ec0719" font-size="34" font-family="Acumin VF"><tspan x="0" y="0">Terpenes</tspan></text>
    <line id="sizes_line" x2="62.313" transform="translate(10565.188 14863.5)" fill="none" stroke="#ec0719" stroke-width="1"/>
    <path id="sizes_brace" d="M1827.348-3593.5h64.839V-3017h-64.839" transform="translate(8673 18196)" fill="none" stroke="#ec0719" stroke-width="1"/>
    <g id="roll" transform="translate(10204.546 14607)">
      <g id="Group_532" data-name="Group 532" clip-path="url(#clip-path)">
        <g id="Group_529" data-name="Group 529">
          <g id="Group_528" data-name="Group 528" clip-path="url(#clip-path)">
            <path id="Path_4965" data-name="Path 4965" d="M254.079,23.422a3.321,3.321,0,0,1-.843,1.555,2.706,2.706,0,0,1-.427.335,2.988,2.988,0,0,1-.7,1.122,5.386,5.386,0,0,1-1.954,1.773c-3.541,2.083-7.888,3.074-12.379,3.746a101.812,101.812,0,0,1-37.227-.875,33.679,33.679,0,0,1-7.484-2.612,7.94,7.94,0,0,1-1.984-1.318l-.093-.012a3.134,3.134,0,0,1-1.858-1.43,2.3,2.3,0,0,1-.369-1.157,2.354,2.354,0,0,1,.048-1.2,5.353,5.353,0,0,0-.943,3.128c0,.231,0,.461,0,.692a35.468,35.468,0,0,1,4.592,2.943c5.039,2.343,10.65,3.313,16.436,3.933a108.412,108.412,0,0,0,32.015-1.075,36.673,36.673,0,0,0,10.135-3.268,35.485,35.485,0,0,1,3.706-2.4c0-.455,0-.912,0-1.367a4.682,4.682,0,0,0-.674-2.515" transform="translate(24.967 3.103)" fill="#fff"/>
            <path id="Path_4966" data-name="Path 4966" d="M236.167,477.268a23.066,23.066,0,0,1,1.886-2.4q0-.683,0-1.367a6.055,6.055,0,0,0-1.686-4.707,17.459,17.459,0,0,0-4.2-3.007c-5.9-2.694-11.968-2.85-18.078-1.473a16.6,16.6,0,0,0-7.534,3.589,7.5,7.5,0,0,0-2.53,6.14v.692a22.758,22.758,0,0,1,2.336,2.943,16.847,16.847,0,0,0,8.362,3.932,28.645,28.645,0,0,0,16.288-1.074,13.65,13.65,0,0,0,5.156-3.268m-6.75,2.249a27.057,27.057,0,0,1-18.94-.876,13.092,13.092,0,0,1-3.808-2.612c-1.991-1.925-1.942-4.279-.02-6.306a12.975,12.975,0,0,1,6.755-3.659c2.543-.594,5.129-.881,6.477-1.1,5.132.147,8.985.615,12.617,2.6a13.038,13.038,0,0,1,3.2,2.472,4.035,4.035,0,0,1,.017,5.732,12.52,12.52,0,0,1-6.3,3.748" transform="translate(27.114 61.592)" fill="#fff"/>
            <path id="Path_4967" data-name="Path 4967" d="M188.079,26.389c-1.638-3.275,4.315-5.755,4.468-9.413.086-2.087-1.739-4.428-.4-6.028a3.881,3.881,0,0,1,1.51-.949c4.347-1.87,9-3.782,13.667-3a3.305,3.305,0,0,1,1.279-3.7,6.869,6.869,0,0,1,4-1.116c4.012-.082,7.876,1.391,11.586,2.917,1.484-2.888,5.158-3.7,8.368-4.2a15.95,15.95,0,0,1,6.514-.1c2.114.565,4.085,2.276,4.234,4.459.111,1.626-.744,3.42.126,4.8,1.131,1.79,3.835,1.1,5.916,1.49,2.447.453,4.263,2.674,4.979,5.058a20.538,20.538,0,0,1,.357,7.416" transform="translate(24.957 0.066)" fill="none" stroke="#fff" stroke-miterlimit="10" stroke-width="1"/>
            <path id="Path_4968" data-name="Path 4968" d="M205.323,6.2a66.574,66.574,0,0,0,10.189,1.538c3,.321,4.362,1.448,7.157,2.577a9.883,9.883,0,0,0,4.208.4l15.232-.76" transform="translate(27.287 0.824)" fill="none" stroke="#fff" stroke-miterlimit="10" stroke-width="1"/>
            <line id="Line_227" data-name="Line 227" x2="18.721" y2="509.387" transform="translate(213.024 26.108)" fill="none" stroke="#fff" stroke-miterlimit="10" stroke-width="1"/>
            <line id="Line_228" data-name="Line 228" x1="15.217" y2="512.505" transform="translate(264.466 23.483)" fill="none" stroke="#fff" stroke-miterlimit="10" stroke-width="1"/>
            <path id="Path_4969" data-name="Path 4969" d="M247.487,164.028c-5.2,35.157-10.4,70.36-18.424,104.981-7.739,33.4-18.073,66.131-28.4,98.821" transform="translate(26.667 21.799)" fill="none" stroke="#fff" stroke-miterlimit="10" stroke-width="1"/>
            <g id="Group_527" data-name="Group 527" transform="translate(220.827 11.506)" opacity="0.34">
              <g id="Group_526" data-name="Group 526">
                <g id="Group_525" data-name="Group 525" clip-path="url(#clip-path-3)">
                  <path id="Path_4970" data-name="Path 4970" d="M242.224,10.229c-5.2,35.157-10.4,70.36-18.424,104.981-7.739,33.4-18.073,66.131-28.4,98.821" transform="translate(-194.86 -10.146)" fill="none" stroke="#fff" stroke-miterlimit="10" stroke-width="1"/>
                </g>
              </g>
            </g>
            <path id="Path_4971" data-name="Path 4971" d="M216.474,293.978c1.412,4.628,5.77,7.716,8.046,11.986,1.693,3.174,2.152,6.835,2.74,10.383a123.115,123.115,0,0,0,12.162,36.519" transform="translate(28.769 39.068)" fill="none" stroke="#fff" stroke-miterlimit="10" stroke-width="1"/>
            <path id="Path_4972" data-name="Path 4972" d="M155.1,402.169a40.307,40.307,0,1,1,43,37.418A40.306,40.306,0,0,1,155.1,402.169Z" transform="translate(20.599 47.719)" fill="none" stroke="#fff" stroke-miterlimit="10" stroke-width="1" stroke-dasharray="12.416 12.416"/>
          </g>
        </g>
        <g id="Group_531" data-name="Group 531" transform="translate(226.206 408.05)">
          <g id="Group_530" data-name="Group 530" clip-path="url(#clip-path-4)">
            <path id="Path_4973" data-name="Path 4973" d="M235.552,443.288c-.879-2.155-2.12-.479-3.066-.591-.079.971.105,1.994-.3,2.66a2.379,2.379,0,0,1-2.057.912c-.7-.182-1.276-1.055-1.762-1.731-.274-.382-.111-1.268-.4-1.414-1.555-.783-2.162-1.915-1.157-3.369,1.063-1.536,2.415-.886,3.652.033,1.224-1.41,2.51-2.063,4.075-.519a1.037,1.037,0,0,0,.883.054c1.352-.512,2.578-.475,3.11,1.061.6,1.738-.467,2.583-2.012,3,1.245,2,1.208,3.455-.174,4.041a1.979,1.979,0,0,1-2.838-.948c-.666-1.363.011-2.419,2.048-3.189" transform="translate(-196.13 -349.791)" fill="#fff"/>
            <path id="Path_4974" data-name="Path 4974" d="M211.137,451.6c.494,1.566.427,3.031-1.354,3.379a2.773,2.773,0,0,1-2.319-1.179c-.877-1.665.415-2.506,1.919-3.188a33.59,33.59,0,0,0-1.167-6.212,7.446,7.446,0,0,0-2.986-3.359c-1.083-.667-2.005-1.243-1.663-2.474.2-.7,1.282-1.785,1.7-1.677a6.92,6.92,0,0,1,2.376,1.778c.163.144.125.513.186.81,1.971.167,3.064,1,2.607,3.145-.051.24.281.692.549.85a2.2,2.2,0,0,1,1.1,3,1.348,1.348,0,0,0,.249,1.031c1.431,2.038,1.235,2.859-1.2,4.1" transform="translate(-199.163 -349.989)" fill="#fff"/>
            <path id="Path_4975" data-name="Path 4975" d="M199.34,453.958c.174-.974.365-1.946.52-2.925a8.656,8.656,0,0,1,.25-1.9,3.741,3.741,0,0,1,1.3-1.91,2.3,2.3,0,0,1,2.066.348,2.461,2.461,0,0,1,.688,2,44.26,44.26,0,0,1-1.386,4.6,21.508,21.508,0,0,1,4.312-.195c.429.062.68,1.363,1.13,2.359,1.2.249,2.936.615,2.355,2.7a2.76,2.76,0,0,1-2.061,1.574c-1.668.024-2.1-1.316-2.02-2.957-.63.043-1.384-.134-1.763.165-1.038.821-2.206,1.424-3.143.375-.648-.726-.651-2.027-.531-3.216l-1.774-1.071Z" transform="translate(-199.722 -348.632)" fill="#fff"/>
            <path id="Path_4976" data-name="Path 4976" d="M169.068,444.869c-2.137-.44-2.454-1.021-1.728-3.574.147-.518-.3-1.194-.176-1.731a3.7,3.7,0,0,1,1-2.09,2.277,2.277,0,0,1,2.088-.019,2.561,2.561,0,0,1,.966,1.89,33.9,33.9,0,0,1-.389,4.152l3.052,1.329c.008-.16.017-.318.026-.478a12.12,12.12,0,0,1,3.565.479c.334.146.288,2.481-.045,2.609a9.565,9.565,0,0,1-3.637.235c-1.015.07-2.2.493-3,.106-.713-.348-.99-1.585-1.725-2.907" transform="translate(-204.014 -349.946)" fill="#fff"/>
            <path id="Path_4977" data-name="Path 4977" d="M152.407,454.59c-2.049.492-3.419.214-3.579-2.081a1.334,1.334,0,0,0-.725-.963c-1.417-.46-2.024-1.5-1.486-2.731a2.819,2.819,0,0,1,2.2-1.368c1.537.083,1.983,1.314,1.765,2.755l.7-.817,3.347,1.852q-.661.782-1.323,1.565c1.51-.572,2.957-.537,3.37,1.229a2.733,2.733,0,0,1-1.073,2.351c-1.61.877-2.582-.224-3.2-1.791" transform="translate(-206.748 -348.586)" fill="#fff"/>
            <path id="Path_4978" data-name="Path 4978" d="M227.131,437.843a8.7,8.7,0,0,1-3.152.111,2.383,2.383,0,0,1-.849-2.2c.479-.858,1.572-1.372,2.628-2.2.508-.6,1.093-1.778,2.023-2.2.5-.229,2.315.87,2.291,1.3-.1,1.778,2.961,3.672.041,5.22-.756.4-2.02-.154-3.051-.27l.068.236" transform="translate(-196.562 -350.729)" fill="#fff"/>
            <path id="Path_4979" data-name="Path 4979" d="M153.319,418.83c1.107,1.31,1.486,2.687.058,3.538a2.972,2.972,0,0,1-2.844-.417c-1.175-1.356-.252-2.555,1.177-3.446-.923-1.329-1.538-2.821.218-3.711a2.857,2.857,0,0,1,2.68.561c1.153,1.412.206,2.564-1.289,3.476" transform="translate(-206.272 -352.944)" fill="#fff"/>
            <path id="Path_4980" data-name="Path 4980" d="M199.2,425.44c-1.344.083-2.923.242-3.169-1.481-.13-.913.64-1.955,1.1-3.2-1.186-1.286-1.4-2.582-.195-3.527a1.95,1.95,0,0,1,2.953.3q1.482,1.711-1.3,3.6c1.9,1.257,1.818,2.767.538,4.392Z" transform="translate(-200.157 -352.673)" fill="#fff"/>
            <path id="Path_4981" data-name="Path 4981" d="M211.195,437.587c-1.716-.033-3.111-.628-2.671-2.527a2.833,2.833,0,0,1,2.164-1.626c1.684.006,2.058,1.344,1.83,2.942,1.494.278,3.24.6,2.77,2.662-.16.7-1.772,1.781-2.115,1.592a11.533,11.533,0,0,1-2.49-2.543l.513-.5" transform="translate(-198.505 -350.448)" fill="#fff"/>
            <path id="Path_4982" data-name="Path 4982" d="M223.321,415.76c1.775-.193,3.123.122,3.26,1.962a1.873,1.873,0,0,1-2.053,2.142c-1.954,0-2.173-1.4-2.1-3.094-1.663.078-3.342-.181-3.085-2.282a2.813,2.813,0,0,1,2.01-1.841c1.778-.056,2.326,1.254,1.968,3.112" transform="translate(-197.06 -353.211)" fill="#fff"/>
            <path id="Path_4983" data-name="Path 4983" d="M231.009,405.918c1.467-.755,3.03-1.17,3.675.688a2.911,2.911,0,0,1-1.082,2.62c-1.57.79-2.608-.191-2.964-1.953-1.524.687-3.153,1.224-3.817-.765a2.8,2.8,0,0,1,1.008-2.521c1.695-.889,2.663.276,3.179,1.93" transform="translate(-196.069 -354.402)" fill="#fff"/>
            <path id="Path_4984" data-name="Path 4984" d="M167.638,427.546c-.873,1.532-2.075,2.376-3.435,1.239a2.942,2.942,0,0,1-.454-2.822c.938-1.553,2.351-.989,3.642.067.921-1.395,2.124-2.515,3.631-1.1a2.83,2.83,0,0,1,.3,2.708c-.971,1.523-2.36,1.013-3.684-.092" transform="translate(-204.47 -351.665)" fill="#fff"/>
            <path id="Path_4985" data-name="Path 4985" d="M198.037,431.946c-1.444.144-2.915,0-2.963-1.737a2.905,2.905,0,0,1,1.494-2.282c1.74-.565,2.437.787,2.765,2.334,1.519-.055,3.071.092,3.011,1.993a2.774,2.774,0,0,1-1.553,2.058c-1.8.535-2.395-.881-2.755-2.367" transform="translate(-200.282 -351.197)" fill="#fff"/>
            <path id="Path_4986" data-name="Path 4986" d="M165.464,395.665c.8,1.529,1.162,3-.585,3.654a2.854,2.854,0,0,1-2.609-.824c-1.077-1.661.237-2.622,1.631-3.356-.8-1.346-1.262-2.816.418-3.555a2.957,2.957,0,0,1,2.746.782c1.038,1.52-.127,2.537-1.6,3.3" transform="translate(-204.694 -356.023)" fill="#fff"/>
            <path id="Path_4987" data-name="Path 4987" d="M159.082,454.422c-1.779-.424-2.862-1.381-2.158-3.007a2.86,2.86,0,0,1,2.44-1.219c1.672.3,1.765,1.707,1.278,3.251,1.413.526,2.925,1.259,2.128,3.067a2.884,2.884,0,0,1-2.448,1.213c-1.689-.272-1.77-1.69-1.239-3.306" transform="translate(-205.381 -348.223)" fill="#fff"/>
            <path id="Path_4988" data-name="Path 4988" d="M195.269,375.059c-1.051,1.23-2.328,1.807-3.437.563a2.861,2.861,0,0,1-.168-2.739c1.171-1.593,2.547-.849,3.674.409,1.141-1.219,2.462-1.909,3.608-.539a2.871,2.871,0,0,1,.032,2.75c-1.238,1.6-2.574.521-3.709-.443" transform="translate(-200.771 -358.616)" fill="#fff"/>
            <path id="Path_4989" data-name="Path 4989" d="M159.893,426.929c-.4,1.708-1.144,3.007-2.867,2.328a2.866,2.866,0,0,1-1.395-2.342c.241-1.838,1.791-1.79,3.322-1.473.564-1.379,1.192-2.977,3.033-2.2a2.858,2.858,0,0,1,1.318,2.38c-.283,1.814-1.777,1.826-3.41,1.31" transform="translate(-205.525 -351.83)" fill="#fff"/>
            <path id="Path_4990" data-name="Path 4990" d="M223.811,444.131c.112,1.762-.267,3.2-2.136,2.984a2.859,2.859,0,0,1-1.956-1.9c-.221-1.811,1.265-2.217,2.893-2.307-.119-1.574.308-3.043,2.089-2.866a2.984,2.984,0,0,1,2.005,2.07c.15,1.652-1.193,2.167-2.9,2.017" transform="translate(-197.01 -349.572)" fill="#fff"/>
            <path id="Path_4991" data-name="Path 4991" d="M162.942,435.561c-1.779-1.913-3.762-1.572-5.495-2.1a1.613,1.613,0,0,1-.578-2.753c.632-.582,2.292-.965,2.806-.562a3.141,3.141,0,0,0,2.857.64,1.682,1.682,0,0,1,2.018,2.025c-.122.845-.9,1.6-1.609,2.75" transform="translate(-205.432 -350.907)" fill="#fff"/>
            <path id="Path_4992" data-name="Path 4992" d="M164.133,445.731c-.5,1.511-1.436,2.624-3.059,1.87a2.735,2.735,0,0,1-1.21-2.286c.295-1.767,1.7-1.959,3.019-2.035a12.561,12.561,0,0,1,3.369-1.328c.35-.037,1.34,1.611,1.233,2.372-.268,1.889-1.894,1.62-3.352,1.406" transform="translate(-204.963 -349.316)" fill="#fff"/>
            <path id="Path_4993" data-name="Path 4993" d="M204.6,420.655c1.721.38,3.112,1.16,2.376,2.975a2.93,2.93,0,0,1-2.607,1.222c-1.817-.566-1.674-2.108-.758-3.613-1.742-.406-3.153-1.166-2.386-2.989a2.925,2.925,0,0,1,2.6-1.2c1.836.564,1.646,2.1.773,3.6" transform="translate(-199.492 -352.63)" fill="#fff"/>
            <path id="Path_4994" data-name="Path 4994" d="M154.966,447.416c.531-1.438,1.192-3.011,3.019-2.166a2.954,2.954,0,0,1,1.216,2.577c-.455,1.794-1.975,1.588-3.453.98-.431,1.5-1.02,2.879-2.952,2.328a1.892,1.892,0,0,1-1.349-2.634c.608-1.749,2.038-1.568,3.52-1.085" transform="translate(-206.099 -348.909)" fill="#fff"/>
            <path id="Path_4995" data-name="Path 4995" d="M191.19,415.845c-.222.163-.448.471-.665.464a6.692,6.692,0,0,1-2.944-.333,2.492,2.492,0,0,1-.127-2.337,5.482,5.482,0,0,1,3.2-.743c.807-1.125,1.506-2.881,3.535-1.767a2.8,2.8,0,0,1,.923,2.564c-.658,1.765-2.158,1.646-3.688.62-.13.68-.219,1.146-.308,1.613Z" transform="translate(-201.326 -353.46)" fill="#fff"/>
            <path id="Path_4996" data-name="Path 4996" d="M214.188,371.642c.819-.906,1.361-2.028,2.031-2.112.79-.1,1.739.629,2.527,1.14a6.84,6.84,0,0,1,1.494,1.487c.561.7,1.48,1.49,1.429,2.182a2.564,2.564,0,0,1-1.761,1.792c-.682.074-1.5-.821-2.209-1.354-.523-.392-.965-.892-1.455-1.331-.579-.52-1.169-1.028-2.057-1.8" transform="translate(-197.742 -358.942)" fill="#fff"/>
            <path id="Path_4997" data-name="Path 4997" d="M238.978,401.307c.077-1.567.457-3.043,2.3-2.788a2.792,2.792,0,0,1,1.9,1.756c.346,1.811-1.1,2.291-2.642,2.5-.025,1.577-.519,2.972-2.3,2.79a2.781,2.781,0,0,1-1.9-1.784c-.353-1.8,1.067-2.315,2.631-2.471" transform="translate(-194.804 -355.092)" fill="#fff"/>
            <path id="Path_4998" data-name="Path 4998" d="M246.5,443.237a2.027,2.027,0,0,1,1.887,3.04,2.961,2.961,0,0,0-.349,2.594A2.527,2.527,0,0,1,247,451.029a2.483,2.483,0,0,1-2.343-.386c-.469-.5-.375-1.6-.382-2.433-.006-.775.33-1.566.251-2.324a2.181,2.181,0,0,1,1.971-2.649" transform="translate(-193.743 -349.146)" fill="#fff"/>
            <path id="Path_4999" data-name="Path 4999" d="M155.6,440.837c1.235-.863,2.629-1.571,3.639-.062a2.886,2.886,0,0,1-.229,2.734c-1.229,1.364-2.484.486-3.506-.651-1.241.9-2.625,1.6-3.635.1a2.875,2.875,0,0,1,.195-2.727c1.225-1.367,2.491-.509,3.537.608" transform="translate(-206.059 -349.639)" fill="#fff"/>
            <path id="Path_5000" data-name="Path 5000" d="M167.462,434.9a6.264,6.264,0,0,1,.779-1.8,30.7,30.7,0,0,1,4.023-3.526c.261-.18,1.724.7,1.947,1.333a2.541,2.541,0,0,1-.71,2.308,4.368,4.368,0,0,0-1.913,2.148,2.558,2.558,0,0,1-2.167,1.062c-.688-.073-1.289-.968-1.959-1.526" transform="translate(-203.951 -350.964)" fill="#fff"/>
            <path id="Path_5001" data-name="Path 5001" d="M184.077,391.133c.8-.85,1.261-1.772,1.941-1.975,1-.3,1.792-.411,2.355-1.523a2.445,2.445,0,0,1,2.3-.612,2.516,2.516,0,0,1,1.239,2.039c-.054.656-.96,1.291-1.577,1.839a8.669,8.669,0,0,1-1.945,1.342,4.463,4.463,0,0,1-2.371.7c-.625-.109-1.115-1-1.941-1.813" transform="translate(-201.743 -356.627)" fill="#fff"/>
            <path id="Path_5002" data-name="Path 5002" d="M244.611,444.06a64.974,64.974,0,0,1-5.448-4.022c-.244-.216.325-1.987.923-2.33a2.625,2.625,0,0,1,2.52.414,3.687,3.687,0,0,0,2.23,1.437,2.647,2.647,0,0,1,1.407,2.117c-.009.723-.937,1.435-1.631,2.385" transform="translate(-194.43 -349.902)" fill="#fff"/>
            <path id="Path_5003" data-name="Path 5003" d="M214.723,430.19a13.444,13.444,0,0,1-2.639,1.234,2.849,2.849,0,0,1-2.271-.267,2.739,2.739,0,0,1-.536-2.356,2.283,2.283,0,0,1,1.877-1.2,3.108,3.108,0,0,0,2.531-.742,2.642,2.642,0,0,1,2.406.125,2.47,2.47,0,0,1,.622,2.16c-.153.649-.982,1.14-1.514,1.7q-.24-.325-.477-.649" transform="translate(-198.405 -351.354)" fill="#fff"/>
            <path id="Path_5004" data-name="Path 5004" d="M150.6,403.047c.535-.624.949-1.545,1.568-1.714.723-.2,2.1.011,2.353.489A5.33,5.33,0,0,0,157,403.964a1.732,1.732,0,0,1,.266,2.978c-.648.5-2.392.582-2.83.105a8.418,8.418,0,0,0-2.819-2.405c-.4-.172-.578-.877-1.013-1.6" transform="translate(-206.192 -354.724)" fill="#fff"/>
            <path id="Path_5005" data-name="Path 5005" d="M231.728,446.77c.744.626,1.724,1.059,1.918,1.722a3.721,3.721,0,0,1-.628,2.385,7.333,7.333,0,0,1-1.685,2.049,3.388,3.388,0,0,1-2.053,1.033,2.419,2.419,0,0,1-1.7-1.446,3.446,3.446,0,0,1,.666-2.19,11.238,11.238,0,0,1,1.661-2.083,19.46,19.46,0,0,1,1.818-1.47" transform="translate(-195.967 -348.676)" fill="#fff"/>
            <path id="Path_5006" data-name="Path 5006" d="M230.062,429.167c-2.3-.28-3.947-.21-5.338-.769a2.961,2.961,0,0,1-1.068-2.653c.332-1.328,1.58-1.527,2.91-.989a5.382,5.382,0,0,0,2.166.363c1.422-.054,2.492.5,2.427,1.915-.04.871-.861,1.707-1.1,2.134" transform="translate(-196.489 -351.638)" fill="#fff"/>
            <path id="Path_5007" data-name="Path 5007" d="M195.58,407.082c.626-.853.937-1.669,1.508-1.942a3.329,3.329,0,0,1,2.136.033,9.667,9.667,0,0,1,2.612,1.167c.643.416,1.453,1.033,1.572,1.676a2.444,2.444,0,0,1-.886,2.068,3.384,3.384,0,0,1-2.308-.034,9.59,9.59,0,0,1-2.617-1.133,15.632,15.632,0,0,1-2.018-1.834" transform="translate(-200.215 -354.23)" fill="#fff"/>
            <path id="Path_5008" data-name="Path 5008" d="M181.978,432.253a15.266,15.266,0,0,1,.585,2.985,2.935,2.935,0,0,1-.771,2.15,2.466,2.466,0,0,1-2.259.079c-.554-.341-.8-1.323-.995-2.073a8.348,8.348,0,0,1-.271-2.591,3.658,3.658,0,0,1,.681-2.209,2.315,2.315,0,0,1,2.073-.324c.64.258,1.051,1.086,1.563,1.665l-.606.317" transform="translate(-202.518 -350.884)" fill="#fff"/>
            <path id="Path_5009" data-name="Path 5009" d="M189.562,449.572c.9,1.34,1.068,2.631-.534,3.523-1.305.728-2.362-.062-3.068-1.994-.195-.536-.853-.913-1.014-1.449a3.39,3.39,0,0,1-.147-2.279,2.465,2.465,0,0,1,2.006-1.031c.634.079,1.23.9,1.73,1.5a13.367,13.367,0,0,1,1.1,1.8l-.076-.067" transform="translate(-201.668 -348.734)" fill="#fff"/>
            <path id="Path_5010" data-name="Path 5010" d="M184.575,381.751c-.616-.77-1.749-1.568-1.708-2.3a2.861,2.861,0,0,1,1.867-2.115c.687-.062,1.954,1.067,2.107,1.842.143.722-.846,1.667-1.338,2.513l-.928.062" transform="translate(-201.904 -357.904)" fill="#fff"/>
            <path id="Path_5011" data-name="Path 5011" d="M196.468,253.356c.76-.624,1.538-1.761,2.274-1.733.791.028,1.541,1.151,2.308,1.8-.643.765-1.187,1.988-1.962,2.158-.718.156-1.683-.812-2.54-1.286-.026-.312-.053-.623-.079-.935" transform="translate(-200.097 -374.61)" fill="#fff"/>
            <path id="Path_5012" data-name="Path 5012" d="M235.98,387.13c-.6-.777-1.7-1.584-1.661-2.322.046-.79,1.156-2.086,1.841-2.112a2.867,2.867,0,0,1,2.131,1.856c.137.726-.879,1.669-1.389,2.516Z" transform="translate(-195.067 -357.191)" fill="#fff"/>
            <path id="Path_5013" data-name="Path 5013" d="M159.186,440.493c.793-.583,1.628-1.671,2.372-1.612.783.062,1.478,1.22,2.213,1.9-.68.733-1.287,1.942-2.062,2.062-.738.114-1.651-.909-2.488-1.432-.011-.306-.024-.611-.035-.917" transform="translate(-205.051 -349.725)" fill="#fff"/>
            <path id="Path_5014" data-name="Path 5014" d="M189.021,449.652l.076.067a15.5,15.5,0,0,1-.361-1.616c-.167-1.434.588-2.5,1.916-2.355a3.1,3.1,0,0,1,2.148,1.93c.291,1.31-.719,2.155-2.136,2.176a11.636,11.636,0,0,1-1.643-.2" transform="translate(-201.127 -348.814)" fill="#fff"/>
            <path id="Path_5015" data-name="Path 5015" d="M182.729,450.386c.639.75,1.789,1.508,1.778,2.248a1.995,1.995,0,0,1-3.969.411c-.167-.717.805-1.7,1.276-2.565l.915-.094" transform="translate(-202.216 -348.195)" fill="#fff"/>
            <path id="Path_5016" data-name="Path 5016" d="M191.878,321.343c.783-.6,1.6-1.711,2.339-1.662a1.994,1.994,0,0,1,.223,3.981c-.732.128-1.665-.892-2.509-1.406-.018-.3-.035-.608-.053-.913" transform="translate(-200.707 -365.566)" fill="#fff"/>
            <path id="Path_5017" data-name="Path 5017" d="M174.3,449.893c.568.8,1.634,1.64,1.568,2.381-.07.787-1.213,1.48-1.889,2.213-.732-.688-1.938-1.3-2.058-2.084-.113-.733.924-1.642,1.455-2.473l.924-.036" transform="translate(-203.361 -348.261)" fill="#fff"/>
            <path id="Path_5018" data-name="Path 5018" d="M199.843,280.7c.759-.62,1.534-1.747,2.27-1.722.792.027,1.546,1.136,2.317,1.773-.641.77-1.182,2.009-1.954,2.176-.722.156-1.689-.824-2.549-1.3-.028-.308-.056-.615-.084-.923" transform="translate(-199.648 -370.975)" fill="#fff"/>
            <path id="Path_5019" data-name="Path 5019" d="M188.4,420.749c.749-.632,1.509-1.774,2.242-1.756.792.018,1.557,1.122,2.334,1.753-.632.773-1.154,2-1.929,2.188-.71.172-1.691-.777-2.554-1.231-.031-.318-.062-.636-.093-.953" transform="translate(-201.169 -352.367)" fill="#fff"/>
            <path id="Path_5020" data-name="Path 5020" d="M196.6,339.176c.63.751,1.762,1.51,1.75,2.252a1.982,1.982,0,0,1-3.944.409c-.164-.721.805-1.7,1.276-2.565l.918-.1" transform="translate(-200.373 -362.975)" fill="#fff"/>
            <path id="Path_5021" data-name="Path 5021" d="M219.528,430.671a6.84,6.84,0,0,1-1.11-.913,1.981,1.981,0,0,1,.252-3.1,1.918,1.918,0,0,1,3.043.554,1.956,1.956,0,0,1-.884,2.974,6.971,6.971,0,0,1-1.381.428Z" transform="translate(-197.263 -351.418)" fill="#fff"/>
            <path id="Path_5022" data-name="Path 5022" d="M247.785,427.318c-.629-.761-1.766-1.536-1.747-2.281.02-.785,1.144-1.543,1.787-2.312.77.643,2.017,1.19,2.175,1.959.151.73-.839,1.695-1.328,2.556l-.887.078" transform="translate(-193.509 -351.871)" fill="#fff"/>
            <path id="Path_5023" data-name="Path 5023" d="M224.4,398.9c.758-.634,1.526-1.778,2.271-1.763a1.992,1.992,0,0,1,.381,3.966c-.728.156-1.7-.827-2.568-1.309-.028-.3-.056-.6-.084-.895" transform="translate(-196.384 -355.272)" fill="#fff"/>
            <path id="Path_5024" data-name="Path 5024" d="M169.22,304.982c.782-.572,1.617-1.653,2.333-1.579.8.082,1.49,1.213,2.227,1.887-.68.736-1.277,1.929-2.064,2.073-.709.129-1.627-.895-2.453-1.409-.015-.324-.028-.648-.043-.972" transform="translate(-203.718 -367.729)" fill="#fff"/>
            <path id="Path_5025" data-name="Path 5025" d="M221.292,399c-.632-.75-1.765-1.5-1.758-2.249.007-.79,1.1-1.569,1.714-2.353.782.63,2.034,1.151,2.21,1.919.168.726-.8,1.712-1.261,2.583l-.905.1" transform="translate(-197.031 -355.636)" fill="#fff"/>
            <path id="Path_5026" data-name="Path 5026" d="M218.964,330.933c.793-.585,1.627-1.673,2.371-1.616a2.831,2.831,0,0,1,2.037,1.918c.036.688-1.13,1.913-1.9,2.03-.739.111-1.645-.9-2.478-1.417-.011-.3-.022-.611-.032-.915" transform="translate(-197.107 -364.285)" fill="#fff"/>
            <path id="Path_5027" data-name="Path 5027" d="M244.1,340.051c.573.79,1.651,1.626,1.583,2.356-.071.79-1.214,1.48-1.891,2.214-.736-.683-1.936-1.289-2.068-2.073-.12-.719.913-1.631,1.438-2.458Z" transform="translate(-194.084 -362.858)" fill="#fff"/>
            <path id="Path_5028" data-name="Path 5028" d="M192.413,358.255c.792-.565,1.585-1.568,2.377-1.568a2.885,2.885,0,0,1,2.061,1.737,1.684,1.684,0,0,1-1.8,2.224c-.881-.055-1.715-.883-2.571-1.365l-.065-1.028" transform="translate(-200.636 -360.648)" fill="#fff"/>
            <path id="Path_5029" data-name="Path 5029" d="M222.765,342.812c.6.774,1.534,1.473,1.733,2.339a1.687,1.687,0,0,1-1.926,2.122,2.88,2.88,0,0,1-2.032-1.784c-.121-.781.757-1.717,1.2-2.585l1.026-.092" transform="translate(-196.899 -362.492)" fill="#fff"/>
            <path id="Path_5030" data-name="Path 5030" d="M213.551,340.94c.762-.611,1.5-1.661,2.294-1.7a2.893,2.893,0,0,1,2.148,1.64,1.665,1.665,0,0,1-1.686,2.3c-.888-.019-1.761-.789-2.641-1.221l-.116-1.017" transform="translate(-197.826 -362.967)" fill="#fff"/>
            <path id="Path_5031" data-name="Path 5031" d="M239.368,332.557c.607.768,1.714,1.557,1.685,2.3-.033.791-1.141,1.537-1.78,2.3-.765-.651-2-1.208-2.157-1.984-.151-.726.838-1.687,1.326-2.544l.927-.074" transform="translate(-194.697 -363.854)" fill="#fff"/>
            <path id="Path_5032" data-name="Path 5032" d="M246.554,331.5c.6.776,1.546,1.481,1.73,2.346a1.681,1.681,0,0,1-1.944,2.1,2.884,2.884,0,0,1-2.017-1.784c-.114-.786.76-1.717,1.205-2.585l1.025-.076" transform="translate(-193.738 -363.995)" fill="#fff"/>
            <path id="Path_5033" data-name="Path 5033" d="M212.569,327.656c.632.768,1.705,1.5,1.763,2.313a2.906,2.906,0,0,1-1.687,2.13,1.7,1.7,0,0,1-2.316-1.7c.017-.892.844-1.767,1.308-2.651l.931-.1" transform="translate(-198.255 -364.506)" fill="#fff"/>
            <path id="Path_5034" data-name="Path 5034" d="M236.052,316.949c.788-.57,1.515-1.467,2.379-1.631a1.682,1.682,0,0,1,2.065,1.98,3.124,3.124,0,0,1-1.856,2.019c-1.269.377-2.036-.562-2.589-2.368" transform="translate(-194.836 -366.15)" fill="#fff"/>
            <path id="Path_5035" data-name="Path 5035" d="M240.057,383.252c.753-.637,1.512-1.778,2.26-1.77a2,2,0,0,1,.392,3.973c-.727.157-1.7-.817-2.564-1.294l-.088-.91" transform="translate(-194.304 -357.352)" fill="#fff"/>
            <path id="Path_5036" data-name="Path 5036" d="M245.62,298.672c.8-.561,1.6-1.557,2.4-1.551a2.878,2.878,0,0,1,2.034,1.765,1.681,1.681,0,0,1-1.824,2.2c-.883-.069-1.705-.9-2.555-1.392l-.051-1.023" transform="translate(-193.565 -368.564)" fill="#fff"/>
            <path id="Path_5037" data-name="Path 5037" d="M243.387,389.933c.766-.615,1.45-1.554,2.314-1.768a1.66,1.66,0,0,1,2.141,1.879,2.892,2.892,0,0,1-1.731,2.071c-.787.128-1.736-.739-2.615-1.174-.036-.336-.074-.672-.11-1.008" transform="translate(-193.861 -356.473)" fill="#fff"/>
            <path id="Path_5038" data-name="Path 5038" d="M224.2,288.817c-.566-.79-1.643-1.636-1.563-2.355.086-.79,1.226-2.02,1.925-2.032a2.861,2.861,0,0,1,2.048,1.924c.118.711-.921,1.614-1.45,2.432l-.96.032" transform="translate(-196.619 -370.25)" fill="#fff"/>
            <path id="Path_5039" data-name="Path 5039" d="M191.212,394.481c.545.8,1.54,1.623,1.507,2.4-.032.736-1.225,2.062-1.756,1.992A3.041,3.041,0,0,1,188.811,397c-.15-.7.858-1.646,1.355-2.484l1.047-.037" transform="translate(-201.116 -355.625)" fill="#fff"/>
            <path id="Path_5040" data-name="Path 5040" d="M199.583,397.287c.8-.569,1.6-1.582,2.389-1.575a2.9,2.9,0,0,1,2.053,1.775,1.668,1.668,0,0,1-1.827,2.192c-.886-.075-1.708-.88-2.559-1.358-.019-.344-.037-.69-.056-1.034" transform="translate(-199.683 -355.461)" fill="#fff"/>
            <path id="Path_5041" data-name="Path 5041" d="M195,438.613c.762-.6,1.506-1.642,2.294-1.677a2.891,2.891,0,0,1,2.15,1.629,1.69,1.69,0,0,1-1.694,2.312c-.886-.01-1.764-.8-2.645-1.244L195,438.613" transform="translate(-200.292 -349.983)" fill="#fff"/>
            <path id="Path_5042" data-name="Path 5042" d="M190.6,435.943c.592.783,1.619,1.551,1.646,2.353a2.881,2.881,0,0,1-1.7,2.091,1.659,1.659,0,0,1-2.25-1.745c.05-.893.841-1.744,1.3-2.614l1-.086" transform="translate(-201.183 -350.115)" fill="#fff"/>
            <path id="Path_5043" data-name="Path 5043" d="M238.495,413.667c.82-.569,1.7-1.654,2.444-1.563a3.033,3.033,0,0,1,1.983,2.068c.1.527-1.169,1.819-1.884,1.866-.808.053-1.682-.9-2.529-1.421l-.014-.949" transform="translate(-194.511 -353.284)" fill="#fff"/>
            <path id="Path_5044" data-name="Path 5044" d="M218.511,408.663c-.554-.8-1.553-1.617-1.531-2.4a2.9,2.9,0,0,1,1.8-2.03,1.675,1.675,0,0,1,2.171,1.859c-.088.883-.912,1.691-1.406,2.534l-1.034.04" transform="translate(-197.371 -354.339)" fill="#fff"/>
            <path id="Path_5045" data-name="Path 5045" d="M211.487,407.376c.769-.612,1.516-1.662,2.316-1.705a2.877,2.877,0,0,1,2.13,1.665,1.661,1.661,0,0,1-1.71,2.279c-.894-.04-1.756-.8-2.632-1.242-.035-.332-.069-.665-.1-1" transform="translate(-198.101 -354.138)" fill="#fff"/>
            <path id="Path_5046" data-name="Path 5046" d="M172.36,415.969c.77-.6,1.563-1.7,2.307-1.664.785.034,1.523,1.144,2.282,1.784-.654.753-1.214,1.976-1.986,2.126-.73.143-1.679-.838-2.532-1.325q-.034-.461-.07-.921" transform="translate(-203.301 -352.99)" fill="#fff"/>
            <path id="Path_5047" data-name="Path 5047" d="M222.708,413.125c-.571-.8-1.488-1.553-1.629-2.427a1.684,1.684,0,0,1,2.039-2.01,2.887,2.887,0,0,1,1.933,1.878c.079.787-.841,1.674-1.324,2.52l-1.018.039" transform="translate(-196.83 -353.743)" fill="#fff"/>
            <path id="Path_5048" data-name="Path 5048" d="M171.151,410.387c.535.81,1.514,1.64,1.475,2.422-.035.73-1.244,2.039-1.768,1.962a3.045,3.045,0,0,1-2.142-1.882c-.136-.71.89-1.644,1.4-2.479l1.032-.024" transform="translate(-203.787 -353.511)" fill="#fff"/>
            <path id="Path_5049" data-name="Path 5049" d="M183.038,410.748c.783-.583,1.494-1.478,2.364-1.676A1.645,1.645,0,0,1,187.488,411a2.9,2.9,0,0,1-1.793,2.026c-.788.107-1.712-.791-2.577-1.251-.026-.342-.053-.684-.079-1.026" transform="translate(-201.881 -353.693)" fill="#fff"/>
            <path id="Path_5050" data-name="Path 5050" d="M162.691,412.2c.8-.578,1.529-1.491,2.4-1.654a1.672,1.672,0,0,1,2.039,2,2.88,2.88,0,0,1-1.841,1.966c-.791.088-1.693-.82-2.547-1.295q-.025-.506-.053-1.015" transform="translate(-204.585 -353.495)" fill="#fff"/>
            <path id="Path_5051" data-name="Path 5051" d="M156.593,436.744c.8-.576,1.585-1.586,2.386-1.594a2.885,2.885,0,0,1,2.048,1.753,1.652,1.652,0,0,1-1.791,2.21c-.895-.075-1.73-.881-2.592-1.361l-.051-1.008" transform="translate(-205.396 -350.22)" fill="#fff"/>
            <path id="Path_5052" data-name="Path 5052" d="M205.476,407.022c.565.8,1.567,1.6,1.566,2.4a2.883,2.883,0,0,1-1.775,2.024,1.67,1.67,0,0,1-2.2-1.819c.075-.887.915-1.711,1.414-2.563l.994-.046" transform="translate(-199.22 -353.958)" fill="#fff"/>
            <path id="Path_5053" data-name="Path 5053" d="M214.85,414.205c.76-.613,1.551-1.742,2.271-1.7a3.049,3.049,0,0,1,2.186,1.843c.15.518-1,1.911-1.721,2.041-.781.142-1.745-.732-2.628-1.162l-.109-1.023" transform="translate(-197.654 -353.23)" fill="#fff"/>
            <path id="Path_5054" data-name="Path 5054" d="M190.686,415.37c.382-.144.79-.453,1.142-.4.825.123,1.951.181,2.344.715a2.56,2.56,0,0,1,.016,2.427,2.525,2.525,0,0,1-2.321.663c-.631-.245-1.03-1.3-1.338-2.081-.151-.377.137-.929.227-1.4l-.069.08" transform="translate(-200.892 -352.903)" fill="#fff"/>
            <path id="Path_5055" data-name="Path 5055" d="M191.468,435.793c.782-.58,1.557-1.6,2.347-1.612a2.889,2.889,0,0,1,2.1,1.7,1.678,1.678,0,0,1-1.755,2.257c-.89-.049-1.74-.855-2.608-1.323-.029-.34-.058-.68-.087-1.02" transform="translate(-200.761 -350.349)" fill="#fff"/>
            <path id="Path_5056" data-name="Path 5056" d="M191.427,404.6c.576.793,1.48,1.524,1.648,2.4a1.677,1.677,0,0,1-1.981,2.058,2.891,2.891,0,0,1-1.975-1.85c-.1-.785.812-1.693,1.284-2.547l1.024-.058" transform="translate(-201.074 -354.28)" fill="#fff"/>
            <path id="Path_5057" data-name="Path 5057" d="M244.564,402.274c.8-.545,1.63-1.541,2.409-1.5a2.91,2.91,0,0,1,2.021,1.825,1.677,1.677,0,0,1-1.892,2.145c-.876-.093-1.674-.914-2.507-1.409l-.031-1.056" transform="translate(-193.705 -354.789)" fill="#fff"/>
            <path id="Path_5058" data-name="Path 5058" d="M219.579,249.58c.747-.638,1.5-1.781,2.239-1.774a1.989,1.989,0,0,1,.438,3.953c-.727.163-1.705-.8-2.574-1.264-.034-.3-.069-.609-.1-.914" transform="translate(-197.025 -375.117)" fill="#fff"/>
            <path id="Path_5059" data-name="Path 5059" d="M208.5,406.737c-.595-.778-1.518-1.485-1.705-2.351a1.67,1.67,0,0,1,1.934-2.1,2.9,2.9,0,0,1,2.022,1.792c.116.781-.768,1.708-1.217,2.573l-1.034.085" transform="translate(-198.73 -354.591)" fill="#fff"/>
            <path id="Path_5060" data-name="Path 5060" d="M202.144,434.467c.568.808,1.572,1.617,1.569,2.422a2.883,2.883,0,0,1-1.806,2.012,1.655,1.655,0,0,1-2.172-1.841c.1-.894.928-1.707,1.432-2.557l.977-.036" transform="translate(-199.664 -350.311)" fill="#fff"/>
            <path id="Path_5061" data-name="Path 5061" d="M181.785,402.921c.8-.561,1.545-1.436,2.426-1.609a1.653,1.653,0,0,1,2.019,2.005,2.89,2.89,0,0,1-1.861,1.971c-.8.074-1.69-.863-2.542-1.361-.014-.336-.028-.672-.041-1.007" transform="translate(-202.048 -354.722)" fill="#fff"/>
            <path id="Path_5062" data-name="Path 5062" d="M164.1,402.3c.781-.573,1.562-1.592,2.343-1.591a2.9,2.9,0,0,1,2.1,1.716,1.7,1.7,0,0,1-1.794,2.24c-.881-.049-1.719-.856-2.576-1.324-.026-.347-.051-.694-.075-1.041" transform="translate(-204.398 -354.797)" fill="#fff"/>
            <path id="Path_5063" data-name="Path 5063" d="M185.3,400.48c.787-.577,1.569-1.592,2.363-1.6a2.884,2.884,0,0,1,2.079,1.722,1.684,1.684,0,0,1-1.778,2.244c-.887-.052-1.73-.871-2.592-1.347-.025-.339-.049-.679-.072-1.017" transform="translate(-201.581 -355.041)" fill="#fff"/>
            <path id="Path_5064" data-name="Path 5064" d="M243.647,398.923c-.589-.784-1.676-1.6-1.629-2.344a3.053,3.053,0,0,1,1.883-2.124,1.653,1.653,0,0,1,2.092,1.891c-.113.889-.921,1.69-1.418,2.531l-.928.046" transform="translate(-194.043 -355.637)" fill="#fff"/>
            <path id="Path_5065" data-name="Path 5065" d="M182.126,419.373c.782-.572,1.606-1.645,2.334-1.583a3.074,3.074,0,0,1,2.1,1.894,1.634,1.634,0,0,1-1.892,2.071,7.735,7.735,0,0,1-2.5-1.376c-.015-.335-.031-.671-.045-1.006" transform="translate(-202.003 -352.528)" fill="#fff"/>
            <path id="Path_5066" data-name="Path 5066" d="M205.1,418.994c.329-1.879,1.088-2.811,2.356-2.561.8.157,2.072,1.273,2,1.791a3.067,3.067,0,0,1-1.875,2.163c-.7.145-1.642-.883-2.477-1.392" transform="translate(-198.95 -352.713)" fill="#fff"/>
            <path id="Path_5067" data-name="Path 5067" d="M236.379,397.917c-.641-.748-1.789-1.5-1.785-2.243,0-.785,1.106-1.566,1.729-2.348.767.628,1.991,1.149,2.169,1.913.169.727-.753,1.71-1.2,2.58l-.917.1" transform="translate(-195.03 -355.779)" fill="#fff"/>
            <path id="Path_5068" data-name="Path 5068" d="M188.336,440.844c-.747.64-1.49,1.78-2.24,1.783a1.992,1.992,0,0,1-.443-3.957c.731-.162,1.712.8,2.582,1.268.034.3.067.6.1.906" transform="translate(-201.761 -349.755)" fill="#fff"/>
            <path id="Path_5069" data-name="Path 5069" d="M231.274,391.575c.817-.542,1.645-1.518,2.446-1.5A2.881,2.881,0,0,1,235.7,391.9a1.67,1.67,0,0,1-1.876,2.152c-.888-.1-1.694-.961-2.537-1.482-.006-.331-.012-.663-.018-.994" transform="translate(-195.471 -356.21)" fill="#fff"/>
            <path id="Path_5070" data-name="Path 5070" d="M176.116,398.562c-.545-.811-1.537-1.642-1.5-2.428a2.9,2.9,0,0,1,1.832-2.013,1.679,1.679,0,0,1,2.138,1.9c-.1.884-.935,1.681-1.44,2.516l-1.026.025" transform="translate(-203.001 -355.681)" fill="#fff"/>
            <path id="Path_5071" data-name="Path 5071" d="M159.906,286.923c.56.8,1.555,1.6,1.55,2.4a2.879,2.879,0,0,1-1.766,2.028,1.666,1.666,0,0,1-2.192-1.822c.073-.885.9-1.708,1.393-2.56l1.015-.042" transform="translate(-205.277 -369.919)" fill="#fff"/>
            <path id="Path_5072" data-name="Path 5072" d="M227.286,389.71c.6.767,1.637,1.523,1.659,2.305.02.73-1.1,2.132-1.62,2.09a3.067,3.067,0,0,1-2.288-1.724c-.19-.694.771-1.705,1.226-2.576l1.024-.1" transform="translate(-196.303 -356.259)" fill="#fff"/>
            <path id="Path_5073" data-name="Path 5073" d="M205.969,393.078c.777-.585,1.546-1.61,2.335-1.625.724-.014,2.1,1.114,2.058,1.645a3.038,3.038,0,0,1-1.736,2.262c-.7.179-1.7-.787-2.569-1.25Z" transform="translate(-198.834 -356.027)" fill="#fff"/>
            <path id="Path_5074" data-name="Path 5074" d="M169.956,398.427c-.623-.745-1.742-1.5-1.732-2.235.01-.793,1.082-1.571,1.69-2.355.775.625,2.006,1.14,2.192,1.907.172.719-.762,1.706-1.21,2.575l-.94.109" transform="translate(-203.85 -355.711)" fill="#fff"/>
            <path id="Path_5075" data-name="Path 5075" d="M159.62,393.965c.551.807,1.592,1.663,1.516,2.405-.08.782-1.228,1.455-1.909,2.175-.717-.7-1.907-1.327-2.014-2.106-.1-.736.936-1.629,1.472-2.454l.936-.02" transform="translate(-205.314 -355.694)" fill="#fff"/>
            <path id="Path_5076" data-name="Path 5076" d="M188.667,297.922c.8-.579,1.535-1.482,2.415-1.659a1.649,1.649,0,0,1,2.023,2,2.864,2.864,0,0,1-1.833,1.964c-.8.079-1.7-.833-2.557-1.314-.016-.329-.033-.658-.049-.987" transform="translate(-201.133 -368.683)" fill="#fff"/>
            <path id="Path_5077" data-name="Path 5077" d="M156.079,305.334c.761-.616,1.536-1.733,2.279-1.713a1.984,1.984,0,0,1,.357,3.952c-.727.151-1.69-.837-2.55-1.324-.028-.3-.058-.609-.086-.914" transform="translate(-205.464 -367.7)" fill="#fff"/>
            <path id="Path_5078" data-name="Path 5078" d="M191.2,308.7c.813-.532,1.646-1.5,2.435-1.469a2.892,2.892,0,0,1,1.992,1.818,1.688,1.688,0,0,1-1.89,2.152c-.878-.087-1.678-.954-2.513-1.472l-.024-1.03" transform="translate(-200.796 -367.22)" fill="#fff"/>
            <path id="Path_5079" data-name="Path 5079" d="M154.857,390.607c.762-.615,1.544-1.734,2.283-1.707a1.988,1.988,0,0,1,.326,3.962c-.724.147-1.678-.833-2.53-1.318-.026-.313-.053-.624-.079-.937" transform="translate(-205.627 -356.367)" fill="#fff"/>
            <path id="Path_5080" data-name="Path 5080" d="M159.32,313.434c.588.8,1.517,1.534,1.681,2.411a1.681,1.681,0,0,1-2.009,2.038,2.87,2.87,0,0,1-1.963-1.841c-.079-.8.829-1.7,1.31-2.564l.981-.044" transform="translate(-205.339 -366.396)" fill="#fff"/>
            <path id="Path_5081" data-name="Path 5081" d="M161.936,315.32c.813-.554,1.568-1.427,2.453-1.586a1.654,1.654,0,0,1,2,2.03,2.891,2.891,0,0,1-1.894,1.938c-.8.063-1.684-.88-2.531-1.385-.008-.332-.015-.665-.023-1" transform="translate(-204.686 -366.36)" fill="#fff"/>
            <path id="Path_5082" data-name="Path 5082" d="M229.291,312.448c.782-.577,1.6-1.652,2.336-1.594.787.062,1.491,1.187,2.232,1.849-.67.749-1.254,1.97-2.032,2.107-.723.129-1.651-.9-2.488-1.415l-.048-.947" transform="translate(-195.735 -366.739)" fill="#fff"/>
            <path id="Path_5083" data-name="Path 5083" d="M174.164,429.358c.794-.568,1.644-1.644,2.368-1.565.788.085,2.02,1.235,2.029,1.934a2.866,2.866,0,0,1-1.933,2.048c-.715.117-1.618-.927-2.438-1.458-.009-.319-.017-.64-.026-.96" transform="translate(-203.061 -351.198)" fill="#fff"/>
            <path id="Path_5084" data-name="Path 5084" d="M246.655,440.724c.772-.608,1.566-1.722,2.307-1.688a3.078,3.078,0,0,1,2.16,1.857,1.648,1.648,0,0,1-1.85,2.122c-.888-.09-1.7-.883-2.551-1.362-.023-.309-.044-.62-.066-.929" transform="translate(-193.427 -349.704)" fill="#fff"/>
            <path id="Path_5085" data-name="Path 5085" d="M222.106,418.87c.619.765,1.672,1.5,1.725,2.3a2.875,2.875,0,0,1-1.637,2.142,1.667,1.667,0,0,1-2.31-1.676c.026-.9.8-1.776,1.247-2.663l.974-.1" transform="translate(-196.985 -352.384)" fill="#fff"/>
            <path id="Path_5086" data-name="Path 5086" d="M217.009,385.667c-.576-.789-1.6-1.579-1.594-2.364a2.907,2.907,0,0,1,1.761-2.072,1.667,1.667,0,0,1,2.206,1.809c-.069.884-.862,1.711-1.331,2.563l-1.041.065" transform="translate(-197.579 -357.398)" fill="#fff"/>
            <path id="Path_5087" data-name="Path 5087" d="M159.037,386.677c.783-.581,1.558-1.6,2.35-1.613a2.887,2.887,0,0,1,2.085,1.708,1.68,1.68,0,0,1-1.764,2.25c-.886-.044-1.734-.858-2.6-1.327-.024-.34-.046-.68-.07-1.018" transform="translate(-205.071 -356.876)" fill="#fff"/>
            <path id="Path_5088" data-name="Path 5088" d="M178.066,382.792c.576.783,1.592,1.563,1.6,2.349a2.893,2.893,0,0,1-1.715,2.092,1.684,1.684,0,0,1-2.243-1.776c.049-.884.858-1.725,1.327-2.586l1.035-.078" transform="translate(-202.856 -357.178)" fill="#fff"/>
            <path id="Path_5089" data-name="Path 5089" d="M243.8,326.528c-.569-.793-1.589-1.6-1.574-2.378a2.905,2.905,0,0,1,1.785-2.066,1.673,1.673,0,0,1,2.18,1.844c-.085.884-.875,1.7-1.348,2.544l-1.043.055" transform="translate(-194.016 -365.256)" fill="#fff"/>
            <path id="Path_5090" data-name="Path 5090" d="M201.48,328.953c.588.77,1.62,1.534,1.633,2.313a2.887,2.887,0,0,1-1.677,2.129,1.7,1.7,0,0,1-2.27-1.754c.035-.881.822-1.733,1.273-2.6l1.041-.09" transform="translate(-199.738 -364.333)" fill="#fff"/>
            <path id="Path_5091" data-name="Path 5091" d="M166.1,449.857c.8-.57,1.6-1.577,2.4-1.577a2.89,2.89,0,0,1,2.034,1.778,1.647,1.647,0,0,1-1.815,2.185c-.89-.083-1.714-.9-2.567-1.384l-.051-1" transform="translate(-204.132 -348.475)" fill="#fff"/>
            <path id="Path_5092" data-name="Path 5092" d="M176.211,334.876c.571.788,1.459,1.512,1.638,2.382a1.664,1.664,0,0,1-1.961,2.066,2.9,2.9,0,0,1-2-1.834c-.1-.786.812-1.7,1.284-2.555l1.035-.06" transform="translate(-203.098 -363.546)" fill="#fff"/>
            <path id="Path_5093" data-name="Path 5093" d="M195.338,334.528c.547.8,1.587,1.661,1.508,2.4-.085.786-1.227,1.459-1.907,2.181-.721-.7-1.913-1.325-2.023-2.107-.1-.732.945-1.625,1.484-2.447Z" transform="translate(-200.57 -363.592)" fill="#fff"/>
            <path id="Path_5094" data-name="Path 5094" d="M238.96,444.849c.805-.555,1.688-1.634,2.394-1.528a3.068,3.068,0,0,1,1.994,2.055c.107.514-1.093,1.694-1.886,1.908-1.293.349-2.03-.6-2.5-2.435" transform="translate(-194.45 -349.135)" fill="#fff"/>
            <path id="Path_5095" data-name="Path 5095" d="M197.206,451.161c-.631-.754-1.787-1.533-1.754-2.257a3.062,3.062,0,0,1,1.867-2.164c.494-.154,1.883.977,2.015,1.689.144.776-.7,1.736-1.116,2.615l-1.013.117" transform="translate(-200.232 -348.682)" fill="#fff"/>
            <path id="Path_5096" data-name="Path 5096" d="M232.437,334.281c.57.782,1.584,1.566,1.582,2.346,0,.732-1.15,2.1-1.668,2.045a3.077,3.077,0,0,1-2.24-1.782c-.172-.7.812-1.68,1.287-2.537l1.039-.073" transform="translate(-195.628 -363.625)" fill="#fff"/>
            <path id="Path_5097" data-name="Path 5097" d="M174.853,379.876c.738-.632,1.483-1.77,2.211-1.759a3.078,3.078,0,0,1,2.242,1.747,1.644,1.644,0,0,1-1.747,2.2,7.817,7.817,0,0,1-2.593-1.2c-.037-.33-.076-.66-.113-.99" transform="translate(-202.969 -357.8)" fill="#fff"/>
            <path id="Path_5098" data-name="Path 5098" d="M160.367,383.289c-.611-.757-1.533-1.43-1.757-2.288a1.665,1.665,0,0,1,1.851-2.168,2.9,2.9,0,0,1,2.092,1.728c.138.777-.731,1.733-1.161,2.611-.342.041-.683.078-1.025.118" transform="translate(-205.137 -357.707)" fill="#fff"/>
            <path id="Path_5099" data-name="Path 5099" d="M209.568,426.68c-.6-.785-1.541-1.5-1.73-2.373a1.666,1.666,0,0,1,1.959-2.073,2.864,2.864,0,0,1,2,1.785c.1.8-.787,1.72-1.246,2.586l-.984.075" transform="translate(-198.592 -351.941)" fill="#fff"/>
            <path id="Path_5100" data-name="Path 5100" d="M176.707,347.464c.776-.58,1.544-1.6,2.329-1.613a2.877,2.877,0,0,1,2.113,1.676A1.7,1.7,0,0,1,179.4,349.8c-.884-.037-1.736-.837-2.6-1.3-.029-.346-.06-.692-.089-1.038" transform="translate(-202.723 -362.088)" fill="#fff"/>
            <path id="Path_5101" data-name="Path 5101" d="M187.635,350.2c-.612-.772-1.75-1.585-1.694-2.3a3.032,3.032,0,0,1,1.928-2.12c.542-.131,1.9,1.037,2.01,1.759.121.776-.787,1.712-1.246,2.577l-1,.087" transform="translate(-201.496 -362.099)" fill="#fff"/>
            <path id="Path_5102" data-name="Path 5102" d="M248.884,349.556c-.607-.768-1.542-1.46-1.746-2.324a1.666,1.666,0,0,1,1.9-2.122,2.892,2.892,0,0,1,2.053,1.756c.123.781-.752,1.72-1.193,2.59Z" transform="translate(-193.37 -362.189)" fill="#fff"/>
            <path id="Path_5103" data-name="Path 5103" d="M191.1,351.9c.751-.623,1.534-1.772,2.245-1.731a3.084,3.084,0,0,1,2.176,1.861c.154.489-.984,1.879-1.7,2.015-.771.146-1.731-.7-2.608-1.118-.037-.342-.074-.685-.111-1.028" transform="translate(-200.81 -361.514)" fill="#fff"/>
            <path id="Path_5104" data-name="Path 5104" d="M234.692,423.04c.767-.636,1.561-1.8,2.292-1.763a3.086,3.086,0,0,1,2.168,1.908c.148.5-1.017,1.9-1.739,2.019-.785.131-1.739-.749-2.619-1.187Z" transform="translate(-195.017 -352.064)" fill="#fff"/>
            <path id="Path_5105" data-name="Path 5105" d="M230.452,370.571c.8-.561,1.544-1.449,2.418-1.6a1.69,1.69,0,0,1,2.032,2.02,2.894,2.894,0,0,1-1.9,1.945c-.774.092-1.668-.834-2.509-1.315-.014-.348-.028-.7-.042-1.046" transform="translate(-195.58 -359.02)" fill="#fff"/>
            <path id="Path_5106" data-name="Path 5106" d="M153.4,354.789c.789-.578,1.515-1.493,2.38-1.652a1.7,1.7,0,0,1,2.07,1.986A2.9,2.9,0,0,1,156,357.1c-.774.1-1.682-.8-2.532-1.268-.022-.348-.042-.7-.063-1.043" transform="translate(-205.82 -361.124)" fill="#fff"/>
            <path id="Path_5107" data-name="Path 5107" d="M225.049,350.322c.772-.615,1.467-1.571,2.334-1.765a1.667,1.667,0,0,1,2.109,1.917,2.882,2.882,0,0,1-1.749,2.038c-.8.112-1.733-.759-2.608-1.2q-.044-.495-.086-.987" transform="translate(-196.298 -361.735)" fill="#fff"/>
            <path id="Path_5108" data-name="Path 5108" d="M172.086,376.81c-.576-.79-1.468-1.511-1.654-2.384a1.646,1.646,0,0,1,1.962-2.052,2.892,2.892,0,0,1,2,1.814c.1.79-.812,1.7-1.284,2.557l-1.023.065" transform="translate(-203.563 -358.567)" fill="#fff"/>
            <path id="Path_5109" data-name="Path 5109" d="M231.788,352.439c.8-.546,1.606-1.535,2.388-1.515.731.023,2.074,1.2,2,1.714a3.082,3.082,0,0,1-1.838,2.194c-.7.153-1.66-.856-2.5-1.354-.017-.348-.033-.692-.049-1.04" transform="translate(-195.403 -361.414)" fill="#fff"/>
            <path id="Path_5110" data-name="Path 5110" d="M180.935,363.585c-.6-.771-1.519-1.468-1.717-2.332a1.673,1.673,0,0,1,1.916-2.117,2.892,2.892,0,0,1,2.046,1.771c.12.779-.764,1.715-1.21,2.583l-1.034.1" transform="translate(-202.396 -360.325)" fill="#fff"/>
            <path id="Path_5111" data-name="Path 5111" d="M244.326,355.426c.57.783,1.586,1.571,1.579,2.348-.008.736-1.151,2.095-1.687,2.044A3.028,3.028,0,0,1,242,358.031c-.17-.7.809-1.678,1.28-2.533l1.043-.071" transform="translate(-194.048 -360.815)" fill="#fff"/>
            <path id="Path_5112" data-name="Path 5112" d="M168.072,367.392c-.592-.783-1.619-1.552-1.646-2.355a2.88,2.88,0,0,1,1.71-2.082,1.663,1.663,0,0,1,2.247,1.754c-.053.892-.858,1.739-1.327,2.608l-.983.076" transform="translate(-204.089 -359.828)" fill="#fff"/>
            <path id="Path_5113" data-name="Path 5113" d="M154.007,367.312c.777-.6,1.537-1.629,2.338-1.663a2.884,2.884,0,0,1,2.111,1.676,1.686,1.686,0,0,1-1.725,2.285c-.889-.027-1.754-.845-2.629-1.31-.032-.33-.062-.658-.094-.988" transform="translate(-205.74 -359.457)" fill="#fff"/>
            <path id="Path_5114" data-name="Path 5114" d="M217.41,365.509c.77-.588,1.534-1.621,2.313-1.634.735-.011,2.131,1.108,2.086,1.63a3.068,3.068,0,0,1-1.742,2.27c-.691.188-1.7-.771-2.561-1.225l-.1-1.042" transform="translate(-197.314 -359.692)" fill="#fff"/>
            <path id="Path_5115" data-name="Path 5115" d="M152.132,431.748c.778-.579,1.594-1.656,2.324-1.6.8.061,1.52,1.168,2.275,1.818-.67.75-1.25,1.96-2.036,2.115-.717.142-1.659-.862-2.5-1.362l-.061-.97" transform="translate(-205.989 -350.885)" fill="#fff"/>
            <path id="Path_5116" data-name="Path 5116" d="M177.835,455.763c-.587-.778-1.618-1.55-1.629-2.336a2.9,2.9,0,0,1,1.708-2.106,1.7,1.7,0,0,1,2.266,1.763c-.037.883-.853,1.732-1.321,2.6l-1.024.083" transform="translate(-202.789 -348.084)" fill="#fff"/>
            <path id="Path_5117" data-name="Path 5117" d="M220.532,452.756c-.589-.779-1.492-1.485-1.695-2.355a1.632,1.632,0,0,1,1.91-2.09,2.914,2.914,0,0,1,2.057,1.765c.105.8-.8,1.724-1.262,2.594l-1.011.086" transform="translate(-197.132 -348.475)" fill="#fff"/>
            <path id="Path_5118" data-name="Path 5118" d="M183.239,365.111c.809-.548,1.628-1.533,2.424-1.515a2.889,2.889,0,0,1,2.007,1.8,1.688,1.688,0,0,1-1.864,2.175c-.881-.076-1.7-.938-2.54-1.449-.01-.336-.019-.674-.028-1.011" transform="translate(-201.855 -359.729)" fill="#fff"/>
            <path id="Path_5119" data-name="Path 5119" d="M159.779,366.382c.766-.588,1.57-1.685,2.288-1.629.8.061,1.512,1.17,2.265,1.826-.656.75-1.216,1.954-1.994,2.114-.71.148-1.654-.836-2.493-1.322q-.034-.494-.066-.989" transform="translate(-204.972 -359.576)" fill="#fff"/>
            <path id="Path_5120" data-name="Path 5120" d="M198.8,424.53c.324-.131.7-.443.962-.363.858.264,1.991.459,2.4,1.085a1.985,1.985,0,0,1-2.8,2.608c-.59-.451-.69-1.6-.888-2.474-.06-.27.254-.624.4-.938l-.072.082" transform="translate(-199.831 -351.681)" fill="#fff"/>
            <path id="Path_5121" data-name="Path 5121" d="M235.289,359.12c.58.785,1.594,1.56,1.61,2.355a2.887,2.887,0,0,1-1.7,2.085,1.685,1.685,0,0,1-2.259-1.758c.035-.884.866-1.738,1.34-2.6l1.009-.078" transform="translate(-195.25 -360.324)" fill="#fff"/>
            <path id="Path_5122" data-name="Path 5122" d="M225.34,361.138c.8-.555,1.6-1.555,2.382-1.537.731.017,2.069,1.187,2.007,1.72a3.026,3.026,0,0,1-1.823,2.184c-.706.155-1.665-.839-2.513-1.328l-.054-1.039" transform="translate(-196.26 -360.26)" fill="#fff"/>
            <path id="Path_5123" data-name="Path 5123" d="M176.458,367.149c.569.8,1.661,1.67,1.567,2.383a3.067,3.067,0,0,1-2.03,2.027c-.523.111-1.828-1.126-1.9-1.849-.08-.785.86-1.674,1.355-2.518l1.011-.042" transform="translate(-203.071 -359.257)" fill="#fff"/>
            <path id="Path_5124" data-name="Path 5124" d="M191.926,425.916c.788-.6,1.51-1.542,2.383-1.714a1.67,1.67,0,0,1,2.064,1.971,2.881,2.881,0,0,1-1.8,1.99c-.8.1-1.712-.794-2.575-1.255l-.071-.992" transform="translate(-200.7 -351.68)" fill="#fff"/>
            <path id="Path_5125" data-name="Path 5125" d="M200.218,359.15c.57.787,1.64,1.622,1.572,2.351-.074.79-1.208,1.482-1.879,2.216-.724-.681-1.907-1.284-2.038-2.064-.122-.724.877-1.638,1.382-2.469l.963-.034" transform="translate(-199.911 -360.32)" fill="#fff"/>
            <path id="Path_5126" data-name="Path 5126" d="M181.359,424.072c.645.741,1.8,1.485,1.8,2.224,0,.787-1.1,1.571-1.721,2.356-.77-.623-1.988-1.134-2.18-1.9-.179-.716.734-1.7,1.166-2.572l.938-.108" transform="translate(-202.387 -351.692)" fill="#fff"/>
            <path id="Path_5127" data-name="Path 5127" d="M195.422,369.509c.769-.616,1.461-1.571,2.325-1.767a1.687,1.687,0,0,1,2.135,1.911,2.886,2.886,0,0,1-1.763,2.045c-.782.127-1.724-.742-2.6-1.177l-.1-1.012" transform="translate(-200.236 -359.185)" fill="#fff"/>
            <path id="Path_5128" data-name="Path 5128" d="M233.218,366.528c.787-.586,1.569-1.614,2.363-1.623a2.912,2.912,0,0,1,2.068,1.753,1.686,1.686,0,0,1-1.778,2.249c-.883-.046-1.724-.885-2.585-1.37l-.068-1.008" transform="translate(-195.213 -359.555)" fill="#fff"/>
            <path id="Path_5129" data-name="Path 5129" d="M215.561,361.16c-.543-.81-1.406-1.566-1.553-2.441a1.67,1.67,0,0,1,2.039-2,2.893,2.893,0,0,1,1.926,1.91c.069.787-.877,1.663-1.38,2.5l-1.032.026" transform="translate(-197.77 -360.649)" fill="#fff"/>
            <path id="Path_5130" data-name="Path 5130" d="M227.1,356.851c.821-.548,1.653-1.534,2.461-1.515a2.887,2.887,0,0,1,2.006,1.824,1.7,1.7,0,0,1-1.9,2.156c-.89-.1-1.7-.978-2.541-1.509-.008-.32-.017-.638-.025-.956" transform="translate(-196.026 -360.827)" fill="#fff"/>
            <path id="Path_5131" data-name="Path 5131" d="M187.3,427.84c.8-.554,1.536-1.416,2.41-1.588,1.272-.252,2.068.655,2.1,1.967s-.741,2.251-2.008,2.063c-.885-.131-1.663-.979-2.489-1.507Z" transform="translate(-201.315 -351.408)" fill="#fff"/>
            <path id="Path_5132" data-name="Path 5132" d="M241.332,419.1c.552.816,1.429,1.576,1.577,2.46a1.652,1.652,0,0,1-2.048,1.973,2.883,2.883,0,0,1-1.923-1.9c-.05-.807.9-1.674,1.421-2.516l.973-.022" transform="translate(-194.453 -352.353)" fill="#fff"/>
            <path id="Path_5133" data-name="Path 5133" d="M159.95,357.8c.648.738,1.808,1.476,1.807,2.213,0,.792-1.094,1.582-1.711,2.372-.776-.62-2-1.122-2.2-1.887-.182-.717.73-1.713,1.159-2.584l.944-.113" transform="translate(-205.232 -360.499)" fill="#fff"/>
            <path id="Path_5134" data-name="Path 5134" d="M174.976,360.147c-.559-.815-1.443-1.571-1.6-2.457a1.654,1.654,0,0,1,2.043-1.979,2.869,2.869,0,0,1,1.923,1.887c.054.809-.888,1.685-1.4,2.531l-.966.018" transform="translate(-203.17 -360.783)" fill="#fff"/>
            <path id="Path_5135" data-name="Path 5135" d="M153.977,376.621c-.591-.786-1.708-1.626-1.635-2.344a3.042,3.042,0,0,1,1.979-2.066c.529-.122,1.859,1.071,1.953,1.79.1.781-.81,1.7-1.28,2.552l-1.017.068" transform="translate(-205.961 -358.586)" fill="#fff"/>
            <path id="Path_5136" data-name="Path 5136" d="M207.76,373.229c-.6-.778-1.7-1.592-1.648-2.327a3.1,3.1,0,0,1,1.911-2.1,1.65,1.65,0,0,1,2.1,1.872c-.087.878-.918,1.683-1.414,2.521l-.954.04" transform="translate(-198.815 -359.049)" fill="#fff"/>
            <path id="Path_5137" data-name="Path 5137" d="M227.162,421.8c.784-.58,1.6-1.657,2.342-1.6.787.057,1.5,1.184,2.239,1.843-.671.732-1.261,1.927-2.035,2.06-.734.126-1.659-.861-2.5-1.358-.015-.314-.031-.628-.045-.941" transform="translate(-196.018 -352.208)" fill="#fff"/>
            <path id="Path_5138" data-name="Path 5138" d="M241.243,366.414c.561.8,1.575,1.618,1.55,2.4a2.9,2.9,0,0,1-1.819,2.04,1.688,1.688,0,0,1-2.165-1.875c.088-.88.911-1.687,1.406-2.526l1.029-.04" transform="translate(-194.471 -359.355)" fill="#fff"/>
            <path id="Path_5139" data-name="Path 5139" d="M212.846,355.477c-.613-.765-1.55-1.45-1.76-2.312a1.686,1.686,0,0,1,1.894-2.148,2.9,2.9,0,0,1,2.062,1.773c.137.768-.734,1.716-1.165,2.585l-1.031.1" transform="translate(-198.162 -361.403)" fill="#fff"/>
            <path id="Path_5140" data-name="Path 5140" d="M179.888,354.577c.779-.609,1.6-1.744,2.326-1.687a3,3,0,0,1,2.074,1.958c.123.557-1.035,1.906-1.744,2-.787.106-1.712-.808-2.577-1.278-.026-.332-.053-.663-.079-.995" transform="translate(-202.3 -361.152)" fill="#fff"/>
            <path id="Path_5141" data-name="Path 5141" d="M185.014,372.763c.764-.613,1.549-1.732,2.286-1.7.79.032,1.536,1.146,2.3,1.789-.648.75-1.2,1.96-1.972,2.118-.728.151-1.685-.8-2.54-1.272l-.075-.932" transform="translate(-201.619 -358.738)" fill="#fff"/>
            <path id="Path_5142" data-name="Path 5142" d="M214.935,447.67c.6.772,1.634,1.526,1.665,2.32a2.885,2.885,0,0,1-1.665,2.121,1.684,1.684,0,0,1-2.292-1.715c.026-.89.83-1.757,1.287-2.635l1-.091" transform="translate(-197.947 -348.556)" fill="#fff"/>
            <path id="Path_5143" data-name="Path 5143" d="M239.969,349.846c-.594-.781-1.712-1.616-1.639-2.329a3.071,3.071,0,0,1,1.969-2.079c.508-.128,1.747,1.018,1.984,1.8.375,1.239-.479,2.087-2.313,2.611" transform="translate(-194.534 -362.144)" fill="#fff"/>
            <path id="Path_5144" data-name="Path 5144" d="M175.681,422.56c.786-.591,1.506-1.523,2.373-1.693a1.683,1.683,0,0,1,2.069,1.976,2.88,2.88,0,0,1-1.819,1.981c-.783.1-1.7-.784-2.555-1.241l-.068-1.024" transform="translate(-202.859 -352.123)" fill="#fff"/>
            <path id="Path_5145" data-name="Path 5145" d="M241.743,417.031c.793-.561,1.634-1.619,2.367-1.549.791.076,1.482,1.205,2.217,1.875-.688.723-1.3,1.9-2.087,2.034-.724.119-1.634-.893-2.462-1.406-.011-.318-.024-.636-.035-.954" transform="translate(-194.08 -352.834)" fill="#fff"/>
            <path id="Path_5146" data-name="Path 5146" d="M226.116,375.045c.792-.582,1.619-1.662,2.364-1.609a3.051,3.051,0,0,1,2.111,1.9,1.657,1.657,0,0,1-1.916,2.072c-.89-.122-1.687-.939-2.525-1.446l-.034-.922" transform="translate(-196.157 -358.422)" fill="#fff"/>
            <path id="Path_5147" data-name="Path 5147" d="M233.075,340.45c.755-.634,1.529-1.793,2.259-1.765a3.055,3.055,0,0,1,2.184,1.851c.155.5-.979,1.9-1.7,2.037-.778.146-1.745-.709-2.629-1.128-.04-.331-.078-.663-.118-.995" transform="translate(-195.232 -363.04)" fill="#fff"/>
            <path id="Path_5148" data-name="Path 5148" d="M163.885,418.854c.631.764,1.7,1.5,1.76,2.3a2.9,2.9,0,0,1-1.67,2.135,1.648,1.648,0,0,1-2.3-1.678c.029-.9.8-1.765,1.235-2.648l.97-.111" transform="translate(-204.72 -352.386)" fill="#fff"/>
            <path id="Path_5149" data-name="Path 5149" d="M236.813,374.509c.817-.552,1.576-1.423,2.463-1.58a1.647,1.647,0,0,1,1.975,2.042,2.886,2.886,0,0,1-1.9,1.927c-.8.055-1.674-.895-2.516-1.408-.008-.326-.017-.654-.025-.98" transform="translate(-194.735 -358.494)" fill="#fff"/>
            <path id="Path_5150" data-name="Path 5150" d="M203.859,375.2c.572.81,1.481,1.561,1.635,2.444a1.679,1.679,0,0,1-2.036,2.009,2.884,2.884,0,0,1-1.938-1.894c-.066-.8.876-1.686,1.379-2.533l.961-.025" transform="translate(-199.426 -358.188)" fill="#fff"/>
            <path id="Path_5151" data-name="Path 5151" d="M179.963,341.592c.769-.59,1.575-1.687,2.3-1.635.8.057,1.52,1.167,2.276,1.818-.664.752-1.233,1.961-2.019,2.124-.707.146-1.653-.853-2.492-1.347-.022-.319-.042-.64-.063-.961" transform="translate(-202.29 -362.871)" fill="#fff"/>
            <path id="Path_5152" data-name="Path 5152" d="M160.563,344.138a5.966,5.966,0,0,1-1.4.336,1.955,1.955,0,0,1-2.227-2.142,1.876,1.876,0,0,1,2.311-2.006,1.959,1.959,0,0,1,1.794,2.523,6.394,6.394,0,0,1-.526,1.341Z" transform="translate(-205.351 -362.825)" fill="#fff"/>
            <path id="Path_5153" data-name="Path 5153" d="M165.278,340.621c.749-.621,1.506-1.74,2.243-1.728.791.014,1.562,1.092,2.343,1.705-.629.771-1.15,2-1.919,2.181-.721.17-1.7-.767-2.569-1.218-.032-.314-.065-.626-.1-.94" transform="translate(-204.242 -363.012)" fill="#fff"/>
            <path id="Path_5154" data-name="Path 5154" d="M166.836,383.945c-.557-.8-1.561-1.6-1.544-2.386.016-.733,1.193-2.081,1.717-2.017a3.061,3.061,0,0,1,2.2,1.83c.156.706-.852,1.669-1.347,2.518l-1.029.054" transform="translate(-204.24 -357.611)" fill="#fff"/>
            <path id="Path_5155" data-name="Path 5155" d="M233.644,414.659c.785-.588,1.5-1.491,2.373-1.69a1.643,1.643,0,0,1,2.073,1.939,2.9,2.9,0,0,1-1.795,2.031c-.8.1-1.715-.813-2.581-1.286l-.071-.995" transform="translate(-195.156 -353.175)" fill="#fff"/>
            <path id="Path_5156" data-name="Path 5156" d="M230.024,417.993c-.638-.734-1.79-1.477-1.776-2.2a1.985,1.985,0,0,1,3.942-.472c.185.7-.753,1.695-1.2,2.559-.323.037-.647.076-.97.112" transform="translate(-195.873 -353.086)" fill="#fff"/>
            <path id="Path_5157" data-name="Path 5157" d="M165.546,419.247c.742-.64,1.486-1.787,2.226-1.783.788,0,1.574,1.092,2.36,1.707-.623.772-1.136,2-1.9,2.183-.722.177-1.712-.739-2.583-1.174-.034-.312-.067-.622-.1-.934" transform="translate(-204.206 -352.571)" fill="#fff"/>
            <path id="Path_5158" data-name="Path 5158" d="M185.743,333.722c.583.789,1.612,1.575,1.619,2.368a2.884,2.884,0,0,1-1.734,2.1,1.689,1.689,0,0,1-2.225-1.809c.07-.893.866-1.728,1.337-2.589l1-.069" transform="translate(-201.834 -363.7)" fill="#fff"/>
            <path id="Path_5159" data-name="Path 5159" d="M213.738,378.451c.779-.585,1.593-1.666,2.329-1.617.787.052,1.5,1.174,2.25,1.828-.666.741-1.247,1.946-2.024,2.09-.725.134-1.66-.859-2.5-1.356-.018-.315-.035-.631-.053-.946" transform="translate(-197.802 -357.97)" fill="#fff"/>
            <path id="Path_5160" data-name="Path 5160" d="M154.334,386.221c-.573-.79-1.468-1.514-1.643-2.384a1.647,1.647,0,0,1,1.921-2.058,3.08,3.08,0,0,1,2.092,1.921c.113.738-.907,1.648-1.43,2.482l-.941.039" transform="translate(-205.92 -357.318)" fill="#fff"/>
            <path id="Path_5161" data-name="Path 5161" d="M163.324,335.53c.793-.594,1.52-1.536,2.394-1.7a1.693,1.693,0,0,1,2.062,2,2.882,2.882,0,0,1-1.828,1.98c-.8.09-1.708-.813-2.569-1.285l-.058-.991" transform="translate(-204.501 -363.69)" fill="#fff"/>
            <path id="Path_5162" data-name="Path 5162" d="M177.22,417.728c.761-.619,1.541-1.742,2.279-1.716a3.089,3.089,0,0,1,2.165,1.841,1.656,1.656,0,0,1-1.808,2.164c-.883-.06-1.713-.873-2.567-1.352-.023-.313-.046-.624-.069-.937" transform="translate(-202.655 -352.764)" fill="#fff"/>
            <path id="Path_5163" data-name="Path 5163" d="M171.532,385.793c-.626-.764-1.7-1.5-1.747-2.3a2.916,2.916,0,0,1,1.674-2.141,1.684,1.684,0,0,1,2.319,1.685c-.014.887-.811,1.764-1.258,2.644l-.989.111" transform="translate(-203.643 -357.386)" fill="#fff"/>
            <path id="Path_5164" data-name="Path 5164" d="M243.42,378.172c.815-.551,1.574-1.422,2.458-1.578a1.645,1.645,0,0,1,1.976,2.04,2.883,2.883,0,0,1-1.892,1.924c-.807.054-1.681-.889-2.525-1.4l-.017-.987" transform="translate(-193.857 -358.006)" fill="#fff"/>
            <path id="Path_5165" data-name="Path 5165" d="M206.508,434.132c-.552-.8-1.554-1.619-1.526-2.4a2.9,2.9,0,0,1,1.8-2.047,1.7,1.7,0,0,1,2.176,1.87c-.093.885-.923,1.691-1.423,2.533l-1.026.043" transform="translate(-198.965 -350.955)" fill="#fff"/>
            <path id="Path_5166" data-name="Path 5166" d="M205.612,416.688c-.62-.765-1.766-1.564-1.717-2.284a3.07,3.07,0,0,1,1.9-2.154c.512-.146,1.9,1.012,2.014,1.729.129.782-.751,1.73-1.192,2.606l-1,.1" transform="translate(-199.11 -353.265)" fill="#fff"/>
            <path id="Path_5167" data-name="Path 5167" d="M177.555,329.982c-.609-.765-1.738-1.565-1.69-2.286a3.03,3.03,0,0,1,1.884-2.136c.517-.142,1.879,1.008,2,1.728.134.774-.739,1.72-1.171,2.591l-1.025.1" transform="translate(-202.835 -364.786)" fill="#fff"/>
            <path id="Path_5168" data-name="Path 5168" d="M155.092,325.391c.583.791,1.609,1.575,1.62,2.373.009.726-1.154,2.111-1.676,2.054a3.045,3.045,0,0,1-2.224-1.8c-.163-.722.82-1.7,1.3-2.568Z" transform="translate(-205.901 -364.807)" fill="#fff"/>
            <path id="Path_5169" data-name="Path 5169" d="M208.335,380.583c.591.776,1.506,1.482,1.7,2.346a1.69,1.69,0,0,1-1.932,2.115,2.894,2.894,0,0,1-2.028-1.811c-.117-.777.778-1.707,1.233-2.571l1.03-.079" transform="translate(-198.822 -357.472)" fill="#fff"/>
            <path id="Path_5170" data-name="Path 5170" d="M229.663,324.8c-.6-.782-1.534-1.493-1.717-2.363a1.669,1.669,0,0,1,1.946-2.088,2.883,2.883,0,0,1,2.007,1.792c.108.79-.776,1.714-1.228,2.578l-1.008.08" transform="translate(-195.92 -365.481)" fill="#fff"/>
            <path id="Path_5171" data-name="Path 5171" d="M204.39,323.781c-.555-.8-1.6-1.652-1.528-2.394.075-.779,1.22-1.455,1.9-2.175.717.69,1.9,1.313,2.015,2.091.105.734-.918,1.63-1.447,2.456l-.938.022" transform="translate(-199.247 -365.628)" fill="#fff"/>
            <path id="Path_5172" data-name="Path 5172" d="M163.52,414.052c.562.809,1.56,1.621,1.555,2.427a2.874,2.874,0,0,1-1.795,2.013,1.668,1.668,0,0,1-2.173-1.85c.09-.889.934-1.7,1.441-2.552l.971-.037" transform="translate(-204.797 -353.024)" fill="#fff"/>
            <path id="Path_5173" data-name="Path 5173" d="M202.549,388.15c-.623-.75-1.757-1.519-1.73-2.245a1.986,1.986,0,0,1,3.954-.377c.164.709-.792,1.677-1.255,2.533l-.969.09" transform="translate(-199.519 -357.05)" fill="#fff"/>
            <path id="Path_5174" data-name="Path 5174" d="M248,411.4c-.552-.808-1.546-1.628-1.525-2.42.019-.719,1.226-2.036,1.764-1.967a3.026,3.026,0,0,1,2.171,1.852c.139.717-.885,1.661-1.4,2.5L248,411.4" transform="translate(-193.451 -353.959)" fill="#fff"/>
            <path id="Path_5175" data-name="Path 5175" d="M209.026,318.085c.781-.589,1.546-1.613,2.344-1.637a2.874,2.874,0,0,1,2.094,1.689,1.678,1.678,0,0,1-1.738,2.271c-.889-.04-1.744-.851-2.614-1.316Z" transform="translate(-198.428 -365.995)" fill="#fff"/>
            <path id="Path_5176" data-name="Path 5176" d="M180.234,318.127c.592.767,1.5,1.459,1.705,2.32a1.687,1.687,0,0,1-1.9,2.142,2.912,2.912,0,0,1-2.06-1.8c-.131-.765.764-1.705,1.21-2.568l1.043-.094" transform="translate(-202.555 -365.772)" fill="#fff"/>
            <path id="Path_5177" data-name="Path 5177" d="M243.66,411.678c-.6-.77-1.527-1.466-1.725-2.328a1.653,1.653,0,0,1,1.869-2.111,3.1,3.1,0,0,1,2.158,1.856c.138.726-.861,1.668-1.359,2.515l-.943.068" transform="translate(-194.061 -353.933)" fill="#fff"/>
            <path id="Path_5178" data-name="Path 5178" d="M236.156,408.833c.758-.623,1.529-1.748,2.271-1.729a3.087,3.087,0,0,1,2.172,1.822,1.657,1.657,0,0,1-1.787,2.185c-.88-.049-1.717-.861-2.575-1.333l-.082-.945" transform="translate(-194.822 -353.947)" fill="#fff"/>
            <path id="Path_5179" data-name="Path 5179" d="M224.371,383.088c.552.824,1.431,1.592,1.58,2.483a1.68,1.68,0,0,1-2.065,1.983,2.882,2.882,0,0,1-1.921-1.933c-.044-.811.931-1.677,1.464-2.518l.943-.015" transform="translate(-196.708 -357.139)" fill="#fff"/>
            <path id="Path_5180" data-name="Path 5180" d="M222.342,314.008c-.583-.8-1.606-1.588-1.618-2.393-.01-.71,1.175-2.065,1.715-2.009a3.023,3.023,0,0,1,2.222,1.8c.15.727-.864,1.693-1.366,2.552l-.953.052" transform="translate(-196.873 -366.905)" fill="#fff"/>
            <path id="Path_5181" data-name="Path 5181" d="M172.821,316.083c-.594-.783-1.527-1.5-1.7-2.365a1.677,1.677,0,0,1,1.963-2.074,2.887,2.887,0,0,1,2,1.8c.1.785-.788,1.7-1.247,2.56l-1.017.077" transform="translate(-203.47 -366.638)" fill="#fff"/>
            <path id="Path_5182" data-name="Path 5182" d="M230.795,383.385c.623.751,1.746,1.511,1.734,2.252-.014.786-1.1,1.554-1.723,2.329-.768-.63-2-1.157-2.171-1.921-.164-.726.775-1.7,1.228-2.569l.931-.091" transform="translate(-195.824 -357.1)" fill="#fff"/>
            <path id="Path_5183" data-name="Path 5183" d="M245.462,384.546c.794-.588,1.645-1.7,2.365-1.622a3.1,3.1,0,0,1,2.08,2c.127.5-1.1,1.834-1.835,1.926-.783.1-1.695-.818-2.55-1.293-.02-.335-.04-.671-.06-1.006" transform="translate(-193.586 -357.161)" fill="#fff"/>
            <path id="Path_5184" data-name="Path 5184" d="M219.606,430.092c.224.264.626.521.637.794.036.9.233,2.026-.215,2.637a1.985,1.985,0,0,1-3.4-1.742c.228-.71,1.271-1.2,2.024-1.677.237-.151.68.022,1.03.047l-.08-.059" transform="translate(-197.421 -350.899)" fill="#fff"/>
            <path id="Path_5185" data-name="Path 5185" d="M213.191,389.989c-.613-.749-1.537-1.416-1.763-2.267a1.646,1.646,0,0,1,1.783-2.179,3.091,3.091,0,0,1,2.209,1.795c.163.717-.8,1.691-1.268,2.551l-.962.1" transform="translate(-198.118 -356.815)" fill="#fff"/>
            <path id="Path_5186" data-name="Path 5186" d="M204.922,309.954c-.554-.8-1.6-1.644-1.527-2.382.076-.784,1.21-1.466,1.882-2.192.723.689,1.911,1.305,2.032,2.088.113.727-.912,1.63-1.437,2.457l-.95.029" transform="translate(-199.177 -367.466)" fill="#fff"/>
            <path id="Path_5187" data-name="Path 5187" d="M176.793,390.877c.767-.607,1.459-1.551,2.318-1.742a1.687,1.687,0,0,1,2.131,1.916,2.9,2.9,0,0,1-1.768,2.045c-.774.127-1.713-.747-2.581-1.184-.033-.344-.067-.69-.1-1.034" transform="translate(-202.711 -356.342)" fill="#fff"/>
            <path id="Path_5188" data-name="Path 5188" d="M197.964,443.107c.761-.638,1.487-1.715,2.3-1.78a2.9,2.9,0,0,1,2.147,1.66,1.632,1.632,0,0,1-1.665,2.293c-.9-.036-1.775-.776-2.662-1.2q-.056-.486-.114-.972" transform="translate(-199.898 -349.4)" fill="#fff"/>
            <path id="Path_5189" data-name="Path 5189" d="M212.667,305.614c.783-.6,1.551-1.636,2.353-1.663a2.885,2.885,0,0,1,2.086,1.722,1.638,1.638,0,0,1-1.748,2.23c-.9-.063-1.741-.843-2.609-1.3-.027-.327-.054-.655-.082-.984" transform="translate(-197.944 -367.656)" fill="#fff"/>
            <path id="Path_5190" data-name="Path 5190" d="M155.524,411.673c.785-.565,1.623-1.639,2.339-1.561.79.085,2.021,1.211,2.038,1.908a2.854,2.854,0,0,1-1.9,2.064c-.708.125-1.619-.9-2.441-1.423l-.037-.988" transform="translate(-205.538 -353.548)" fill="#fff"/>
            <path id="Path_5191" data-name="Path 5191" d="M214.214,441.1c.79-.573,1.626-1.648,2.358-1.582a1.982,1.982,0,0,1,.136,3.961c-.731.112-1.636-.9-2.465-1.421q-.015-.479-.028-.958" transform="translate(-197.738 -349.64)" fill="#fff"/>
            <path id="Path_5192" data-name="Path 5192" d="M235.257,299.573c.566.8,1.569,1.6,1.57,2.4a2.878,2.878,0,0,1-1.755,2.043,1.676,1.676,0,0,1-2.211-1.812c.067-.888.9-1.719,1.395-2.575l1-.052" transform="translate(-195.261 -368.238)" fill="#fff"/>
            <path id="Path_5193" data-name="Path 5193" d="M195.863,392.665c-.6-.759-1.515-1.438-1.734-2.3a1.64,1.64,0,0,1,1.8-2.154,3.087,3.087,0,0,1,2.183,1.821c.155.721-.813,1.683-1.288,2.539l-.965.089" transform="translate(-200.416 -356.46)" fill="#fff"/>
            <path id="Path_5194" data-name="Path 5194" d="M161.978,436.917c.767-.612,1.458-1.559,2.321-1.757a1.708,1.708,0,0,1,2.151,1.91,2.876,2.876,0,0,1-1.788,2.036c-.777.128-1.719-.743-2.589-1.179-.032-.336-.065-.673-.1-1.009" transform="translate(-204.68 -350.226)" fill="#fff"/>
            <path id="Path_5195" data-name="Path 5195" d="M151.907,394.29c.794-.57,1.636-1.643,2.369-1.572.789.075,1.473,1.224,2.2,1.9-.688.717-1.3,1.9-2.083,2.018-.73.113-1.633-.895-2.461-1.409-.009-.313-.019-.626-.028-.939" transform="translate(-206.019 -355.86)" fill="#fff"/>
            <path id="Path_5196" data-name="Path 5196" d="M180.637,446.693c-.637-.738-1.784-1.484-1.771-2.209a1.982,1.982,0,0,1,3.938-.459c.182.7-.751,1.693-1.193,2.557l-.974.111" transform="translate(-202.436 -349.272)" fill="#fff"/>
            <path id="Path_5197" data-name="Path 5197" d="M236.917,388.969c.805-.542,1.631-1.526,2.414-1.493.727.031,2.039,1.234,1.966,1.765a3.033,3.033,0,0,1-1.869,2.151c-.706.142-1.644-.881-2.479-1.39-.01-.344-.023-.689-.032-1.033" transform="translate(-194.721 -356.556)" fill="#fff"/>
            <path id="Path_5198" data-name="Path 5198" d="M177.418,255.556c-.579-.777-1.6-1.553-1.608-2.334,0-.734,1.13-2.111,1.659-2.062a3.044,3.044,0,0,1,2.241,1.766c.179.7-.788,1.687-1.25,2.547l-1.042.083" transform="translate(-202.842 -374.672)" fill="#fff"/>
            <path id="Path_5199" data-name="Path 5199" d="M239.2,248.478c.777-.616,1.476-1.569,2.349-1.768a1.669,1.669,0,0,1,2.114,1.919,2.9,2.9,0,0,1-1.763,2.052c-.8.112-1.733-.776-2.61-1.229-.029-.324-.06-.649-.09-.973" transform="translate(-194.418 -375.27)" fill="#fff"/>
            <path id="Path_5200" data-name="Path 5200" d="M175.5,296.094c.8-.572,1.594-1.583,2.393-1.584a2.894,2.894,0,0,1,2.04,1.771,1.679,1.679,0,0,1-1.809,2.216c-.887-.066-1.716-.915-2.572-1.414-.017-.33-.035-.659-.052-.989" transform="translate(-202.883 -368.911)" fill="#fff"/>
            <path id="Path_5201" data-name="Path 5201" d="M236.542,290.485c.787-.588,1.561-1.606,2.365-1.631a2.877,2.877,0,0,1,2.075,1.71,1.663,1.663,0,0,1-1.757,2.247c-.895-.054-1.745-.869-2.615-1.344-.023-.326-.046-.654-.069-.981" transform="translate(-194.771 -369.662)" fill="#fff"/>
            <path id="Path_5202" data-name="Path 5202" d="M154.252,267.573c-.595-.773-1.7-1.582-1.646-2.307a3.107,3.107,0,0,1,1.886-2.143,1.644,1.644,0,0,1,2.1,1.866c-.088.878-.879,1.685-1.356,2.523l-.988.061" transform="translate(-205.926 -373.092)" fill="#fff"/>
            <path id="Path_5203" data-name="Path 5203" d="M179.3,394.381c.813-.542,1.645-1.523,2.437-1.492.714.027,2,1.248,1.929,1.792a3.011,3.011,0,0,1-1.868,2.146c-.717.129-1.645-.911-2.479-1.435-.007-.336-.012-.674-.019-1.011" transform="translate(-202.378 -355.837)" fill="#fff"/>
            <path id="Path_5204" data-name="Path 5204" d="M200.3,401.848c.789-.59,1.509-1.519,2.38-1.691a1.671,1.671,0,0,1,2.07,1.967,2.887,2.887,0,0,1-1.814,2c-.8.1-1.711-.8-2.574-1.272-.02-.333-.042-.665-.062-1" transform="translate(-199.587 -354.876)" fill="#fff"/>
            <path id="Path_5205" data-name="Path 5205" d="M171.327,403.576c.771-.579,1.583-1.659,2.3-1.6.79.063,2.06,1.156,2.083,1.836a2.855,2.855,0,0,1-1.845,2.108c-.707.143-1.644-.856-2.479-1.353-.02-.33-.042-.66-.062-.99" transform="translate(-203.438 -354.629)" fill="#fff"/>
            <path id="Path_5206" data-name="Path 5206" d="M174.1,268.337c.816-.555,1.643-1.557,2.441-1.534a2.883,2.883,0,0,1,2.031,1.824,1.7,1.7,0,0,1-1.906,2.148c-.892-.108-1.7-.944-2.539-1.453-.01-.329-.019-.656-.028-.984" transform="translate(-203.07 -372.593)" fill="#fff"/>
            <path id="Path_5207" data-name="Path 5207" d="M216.649,436.2c.738-.641,1.478-1.792,2.211-1.788.794.006,1.582,1.088,2.372,1.7-.62.773-1.124,1.991-1.892,2.189-.714.185-1.708-.717-2.58-1.141l-.112-.96" transform="translate(-197.415 -350.318)" fill="#fff"/>
            <path id="Path_5208" data-name="Path 5208" d="M214.208,281.359c.579.8,1.592,1.583,1.605,2.386a2.877,2.877,0,0,1-1.75,2.046,1.668,1.668,0,0,1-2.214-1.8c.066-.89.9-1.722,1.388-2.58l.971-.057" transform="translate(-198.053 -370.658)" fill="#fff"/>
            <path id="Path_5209" data-name="Path 5209" d="M244.907,434.235c.779-.586,1.552-1.614,2.342-1.627a2.894,2.894,0,0,1,2.1,1.708,1.711,1.711,0,0,1-1.771,2.271c-.878-.029-1.728-.86-2.59-1.332-.026-.34-.053-.681-.08-1.021" transform="translate(-193.659 -350.558)" fill="#fff"/>
            <path id="Path_5210" data-name="Path 5210" d="M191.363,272.952c.793-.6,1.521-1.545,2.395-1.706a1.683,1.683,0,0,1,2.054,2,2.908,2.908,0,0,1-1.814,2.01c-.8.084-1.71-.837-2.571-1.323l-.065-.977" transform="translate(-200.775 -372.007)" fill="#fff"/>
            <path id="Path_5211" data-name="Path 5211" d="M236.012,276.8c.768-.612,1.511-1.657,2.314-1.705a2.879,2.879,0,0,1,2.139,1.639,1.685,1.685,0,0,1-1.7,2.305c-.894-.018-1.771-.827-2.657-1.284-.034-.318-.068-.638-.1-.956" transform="translate(-194.841 -371.492)" fill="#fff"/>
            <path id="Path_5212" data-name="Path 5212" d="M184.993,279.866c.764-.607,1.567-1.739,2.279-1.685a3.021,3.021,0,0,1,2.139,1.892c.135.548-1.008,1.916-1.728,2.036-.775.129-1.721-.768-2.593-1.218-.032-.342-.065-.683-.1-1.025" transform="translate(-201.622 -371.081)" fill="#fff"/>
            <path id="Path_5213" data-name="Path 5213" d="M194.405,401.316c-.615-.769-1.666-1.515-1.713-2.317a2.881,2.881,0,0,1,1.668-2.124,1.648,1.648,0,0,1,2.277,1.7c-.042.9-.809,1.76-1.252,2.64l-.98.1" transform="translate(-200.599 -355.322)" fill="#fff"/>
            <path id="Path_5214" data-name="Path 5214" d="M212.249,400.447c-.586-.787-1.681-1.618-1.619-2.35a3.109,3.109,0,0,1,1.952-2.078,1.657,1.657,0,0,1,2.082,1.9c-.1.875-.948,1.664-1.463,2.492l-.953.032" transform="translate(-198.215 -355.43)" fill="#fff"/>
            <path id="Path_5215" data-name="Path 5215" d="M153.987,277.467c.6.77,1.65,1.529,1.671,2.316.019.732-1.108,2.134-1.639,2.092a3.064,3.064,0,0,1-2.277-1.745c-.186-.7.781-1.7,1.239-2.573l1.006-.091" transform="translate(-206.044 -371.176)" fill="#fff"/>
            <path id="Path_5216" data-name="Path 5216" d="M225.383,449.21c-.566-.8-1.576-1.593-1.57-2.384,0-.726,1.179-2.086,1.7-2.022a3.062,3.062,0,0,1,2.213,1.815c.158.71-.845,1.678-1.335,2.533l-1.008.058" transform="translate(-196.463 -348.937)" fill="#fff"/>
            <path id="Path_5217" data-name="Path 5217" d="M158.455,402.158c.766-.615,1.567-1.753,2.29-1.706a3.041,3.041,0,0,1,2.132,1.9c.14.515-1.015,1.883-1.731,2-.778.128-1.722-.751-2.593-1.191-.033-.335-.065-.67-.1-1" transform="translate(-205.148 -354.832)" fill="#fff"/>
            <path id="Path_5218" data-name="Path 5218" d="M167.409,279.716c-.6-.772-1.715-1.577-1.665-2.3a1.989,1.989,0,0,1,3.971-.248c.143.711-.855,1.653-1.35,2.493l-.955.059" transform="translate(-204.18 -371.463)" fill="#fff"/>
            <path id="Path_5219" data-name="Path 5219" d="M234.991,435.654c.784-.574,1.568-1.591,2.354-1.594a2.906,2.906,0,0,1,2.083,1.727,1.69,1.69,0,0,1-1.784,2.243c-.879-.041-1.722-.868-2.581-1.344Z" transform="translate(-194.977 -350.365)" fill="#fff"/>
            <path id="Path_5220" data-name="Path 5220" d="M189.868,381.475c-.62-.774-1.575-1.469-1.779-2.339a1.67,1.67,0,0,1,1.919-2.116,2.923,2.923,0,0,1,2.086,1.758c.1.8-.81,1.738-1.282,2.616l-.944.082" transform="translate(-201.217 -357.949)" fill="#fff"/>
            <path id="Path_5221" data-name="Path 5221" d="M225.324,267.315c.6.773,1.733,1.588,1.673,2.305a3.066,3.066,0,0,1-1.927,2.117c-.5.137-1.861-1.042-1.97-1.763-.119-.778.77-1.708,1.22-2.573l1-.087" transform="translate(-196.559 -372.525)" fill="#fff"/>
            <path id="Path_5222" data-name="Path 5222" d="M189.971,364.052c.8-.577,1.594-1.589,2.4-1.6a2.862,2.862,0,0,1,2.066,1.745,1.687,1.687,0,0,1-1.821,2.215c-.9-.079-1.728-.912-2.589-1.408-.019-.317-.037-.636-.057-.953" transform="translate(-200.96 -359.881)" fill="#fff"/>
            <path id="Path_5223" data-name="Path 5223" d="M169.707,288c.76-.636,1.487-1.714,2.291-1.773a2.919,2.919,0,0,1,2.142,1.672,1.673,1.673,0,0,1-1.672,2.32c-.888-.01-1.766-.8-2.65-1.246q-.054-.488-.111-.973" transform="translate(-203.653 -370.012)" fill="#fff"/>
            <path id="Path_5224" data-name="Path 5224" d="M201.3,393.117c.8-.577,1.545-1.482,2.428-1.651a1.682,1.682,0,0,1,2.034,2.012,2.858,2.858,0,0,1-1.873,1.944c-.8.072-1.695-.854-2.548-1.347Z" transform="translate(-199.454 -356.031)" fill="#fff"/>
            <path id="Path_5225" data-name="Path 5225" d="M174.312,441.336c-.569-.808-1.463-1.554-1.628-2.438a1.676,1.676,0,0,1,2.022-2.021,2.868,2.868,0,0,1,1.943,1.885c.067.8-.871,1.688-1.372,2.538l-.965.036" transform="translate(-203.262 -349.996)" fill="#fff"/>
            <path id="Path_5226" data-name="Path 5226" d="M243.985,365.773c.772-.62,1.465-1.584,2.332-1.776a1.686,1.686,0,0,1,2.118,1.926,2.883,2.883,0,0,1-1.764,2.039c-.786.119-1.722-.756-2.593-1.2Z" transform="translate(-193.782 -359.683)" fill="#fff"/>
            <path id="Path_5227" data-name="Path 5227" d="M206.267,359.722c.8-.548,1.653-1.6,2.373-1.509.786.094,2.015,1.242,2.01,1.923a2.861,2.861,0,0,1-1.932,2.04c-.716.111-1.612-.934-2.429-1.469-.008-.329-.015-.656-.023-.984" transform="translate(-198.794 -360.446)" fill="#fff"/>
            <path id="Path_5228" data-name="Path 5228" d="M199.7,267.85c-.612-.77-1.753-1.582-1.7-2.3a3.09,3.09,0,0,1,1.928-2.132c.5-.142,1.865,1.039,1.979,1.761.122.777-.764,1.713-1.209,2.581l-1,.09" transform="translate(-199.893 -373.044)" fill="#fff"/>
            <path id="Path_5229" data-name="Path 5229" d="M207.982,344.112c-.566-.811-1.571-1.625-1.568-2.433a2.9,2.9,0,0,1,1.815-2.009,1.677,1.677,0,0,1,2.177,1.852c-.085.889-.947,1.706-1.463,2.555l-.962.035" transform="translate(-198.775 -362.919)" fill="#fff"/>
            <path id="Path_5230" data-name="Path 5230" d="M163.369,265.407c.826-.532,1.724-1.567,2.456-1.46a3.116,3.116,0,0,1,1.952,2.074,1.648,1.648,0,0,1-2.029,1.952c-.873-.154-1.614-1.058-2.414-1.628.011-.313.024-.625.035-.938" transform="translate(-204.5 -372.973)" fill="#fff"/>
            <path id="Path_5231" data-name="Path 5231" d="M160.166,343.74c1.007.128,2.17,0,2.956.491.4.248.424,1.753.07,2.382a2.572,2.572,0,0,1-2.121.809c-1.682-.17-2.011-1.809-.855-3.734l-.05.052" transform="translate(-205.005 -362.375)" fill="#fff"/>
            <path id="Path_5232" data-name="Path 5232" d="M220.392,447.151c-.787.59-1.559,1.614-2.365,1.642a2.861,2.861,0,0,1-2.08-1.706,1.668,1.668,0,0,1,1.761-2.247c.9.06,1.741.876,2.609,1.354.026.319.051.638.076.957" transform="translate(-197.521 -348.933)" fill="#fff"/>
            <path id="Path_5233" data-name="Path 5233" d="M194.827,294.061c-.6-.787-1.554-1.5-1.728-2.377a1.688,1.688,0,0,1,1.978-2.072,2.887,2.887,0,0,1,2.005,1.813c.1.793-.807,1.708-1.276,2.571l-.98.066" transform="translate(-200.55 -369.566)" fill="#fff"/>
            <path id="Path_5234" data-name="Path 5234" d="M212.893,415.893c.552.816,1.535,1.637,1.523,2.444a2.87,2.87,0,0,1-1.808,2,1.684,1.684,0,0,1-2.164-1.87c.093-.889.97-1.7,1.5-2.543l.953-.025" transform="translate(-198.241 -352.779)" fill="#fff"/>
            <path id="Path_5235" data-name="Path 5235" d="M156.832,406.629c.82-.559,1.588-1.458,2.474-1.594a1.68,1.68,0,0,1,1.967,2.073,2.871,2.871,0,0,1-1.919,1.9c-.8.049-1.668-.9-2.506-1.422-.006-.318-.01-.637-.016-.955" transform="translate(-205.364 -354.226)" fill="#fff"/>
            <path id="Path_5236" data-name="Path 5236" d="M156.3,297.595c.775-.614,1.526-1.669,2.331-1.711a2.874,2.874,0,0,1,2.146,1.667,1.691,1.691,0,0,1-1.731,2.286c-.9-.041-1.772-.833-2.656-1.288-.031-.318-.06-.636-.091-.954" transform="translate(-205.435 -368.728)" fill="#fff"/>
            <path id="Path_5237" data-name="Path 5237" d="M178.552,408.509c-.6-.781-1.717-1.61-1.65-2.328a3.063,3.063,0,0,1,1.954-2.095c.513-.13,1.855,1.059,1.96,1.782.113.777-.784,1.7-1.241,2.563Z" transform="translate(-202.697 -354.35)" fill="#fff"/>
            <path id="Path_5238" data-name="Path 5238" d="M167.82,409.561c-.551-.8-1.55-1.625-1.52-2.406.027-.728,1.229-2.042,1.773-1.974a3.032,3.032,0,0,1,2.169,1.86c.145.7-.883,1.648-1.393,2.487l-1.029.033" transform="translate(-204.106 -354.203)" fill="#fff"/>
            <path id="Path_5239" data-name="Path 5239" d="M152.036,335.384c.768-.588,1.527-1.62,2.305-1.635.732-.014,2.124,1.1,2.082,1.621a3.059,3.059,0,0,1-1.721,2.283c-.694.188-1.7-.777-2.568-1.234l-.1-1.035" transform="translate(-206.002 -363.696)" fill="#fff"/>
            <path id="Path_5240" data-name="Path 5240" d="M216.526,420.51c.56.8,1.612,1.652,1.543,2.4-.071.777-1.225,1.455-1.9,2.175-.723-.69-1.923-1.314-2.03-2.09-.1-.738.936-1.634,1.473-2.46l.919-.022" transform="translate(-197.75 -352.166)" fill="#fff"/>
            <path id="Path_5241" data-name="Path 5241" d="M219.95,355.878c-.532-.825-1.5-1.667-1.466-2.469a2.875,2.875,0,0,1,1.841-1.969,1.675,1.675,0,0,1,2.123,1.91c-.114.888-.988,1.68-1.521,2.515l-.977.012" transform="translate(-197.171 -361.353)" fill="#fff"/>
            <path id="Path_5242" data-name="Path 5242" d="M202.168,426.9c.774-.6,1.567-1.7,2.313-1.664.778.033,1.509,1.153,2.261,1.8-.655.749-1.224,1.972-1.99,2.113-.735.136-1.677-.852-2.527-1.346-.019-.3-.037-.6-.057-.9" transform="translate(-199.339 -351.537)" fill="#fff"/>
            <path id="Path_5243" data-name="Path 5243" d="M205.893,300.692c-.6-.786-1.629-1.554-1.661-2.363a2.87,2.87,0,0,1,1.7-2.091A1.7,1.7,0,0,1,208.2,298c-.044.894-.883,1.748-1.366,2.619l-.938.071" transform="translate(-199.065 -368.694)" fill="#fff"/>
            <path id="Path_5244" data-name="Path 5244" d="M229.813,378.856c.785-.585,1.5-1.483,2.371-1.679a1.689,1.689,0,0,1,2.1,1.949,2.878,2.878,0,0,1-1.838,2c-.781.109-1.7-.8-2.561-1.259-.025-.338-.049-.676-.074-1.014" transform="translate(-195.665 -357.931)" fill="#fff"/>
            <path id="Path_5245" data-name="Path 5245" d="M161.975,373.884c.825-.531,1.719-1.56,2.454-1.457a1.984,1.984,0,0,1-.106,3.966c-.739.069-1.583-1-2.381-1.577l.034-.932" transform="translate(-204.685 -358.557)" fill="#fff"/>
            <path id="Path_5246" data-name="Path 5246" d="M156.1,418.046c.807-.566,1.553-1.461,2.433-1.623a1.648,1.648,0,0,1,2,2.017c-.171.8-1.167,1.917-1.865,1.971-.8.063-1.687-.888-2.535-1.4l-.037-.965" transform="translate(-205.462 -352.714)" fill="#fff"/>
            <path id="Path_5247" data-name="Path 5247" d="M171.742,409.456c.773-.594,1.585-1.7,2.305-1.643a2.854,2.854,0,0,1,2.079,1.881c.049.692-1.077,1.927-1.855,2.082-.708.14-1.64-.849-2.474-1.34-.019-.326-.037-.654-.055-.98" transform="translate(-203.383 -353.853)" fill="#fff"/>
            <path id="Path_5248" data-name="Path 5248" d="M198.813,351.978c.8-.586,1.525-1.5,2.4-1.68a1.675,1.675,0,0,1,2.058,1.981,2.879,2.879,0,0,1-1.84,1.984c-.8.083-1.7-.836-2.563-1.32-.019-.322-.04-.643-.059-.965" transform="translate(-199.785 -361.502)" fill="#fff"/>
            <path id="Path_5249" data-name="Path 5249" d="M189.781,442.927c.773-.621,1.521-1.686,2.325-1.73a2.931,2.931,0,0,1,2.111,1.717,1.687,1.687,0,0,1-1.716,2.3c-.886-.019-1.754-.855-2.631-1.327l-.088-.958" transform="translate(-200.985 -349.417)" fill="#fff"/>
            <path id="Path_5250" data-name="Path 5250" d="M179.341,451.318c-.545-.8-1.587-1.654-1.5-2.378.093-.793,1.226-1.465,1.9-2.19.716.7,1.886,1.323,2.013,2.114.113.716-.913,1.614-1.437,2.431l-.979.023" transform="translate(-202.573 -348.679)" fill="#fff"/>
            <path id="Path_5251" data-name="Path 5251" d="M244.144,427.965c.6.77,1.647,1.528,1.671,2.316.023.73-1.1,2.133-1.63,2.092a3.061,3.061,0,0,1-2.282-1.736c-.188-.7.776-1.705,1.231-2.576l1.009-.1" transform="translate(-194.062 -351.175)" fill="#fff"/>
            <path id="Path_5252" data-name="Path 5252" d="M172.582,391.221c.757-.634,1.535-1.79,2.264-1.759A3.028,3.028,0,0,1,177,391.33c.148.519-.983,1.9-1.7,2.034-.776.139-1.734-.726-2.612-1.152-.037-.331-.074-.66-.111-.99" transform="translate(-203.271 -356.292)" fill="#fff"/>
            <path id="Path_5253" data-name="Path 5253" d="M168.766,344.429c.622.775,1.685,1.524,1.732,2.332a2.914,2.914,0,0,1-1.713,2.107,1.663,1.663,0,0,1-2.281-1.714c.036-.894.845-1.756,1.309-2.633l.953-.092" transform="translate(-204.079 -362.277)" fill="#fff"/>
            <path id="Path_5254" data-name="Path 5254" d="M201.077,344.541c.771-.613,1.58-1.747,2.307-1.7a3.026,3.026,0,0,1,2.113,1.92c.135.53-1.023,1.886-1.74,2-.779.124-1.72-.761-2.59-1.208-.029-.339-.06-.677-.09-1.016" transform="translate(-199.484 -362.487)" fill="#fff"/>
            <path id="Path_5255" data-name="Path 5255" d="M211.4,364.663c.8-.561,1.605-1.569,2.392-1.553.728.015,2.066,1.2,2,1.736a3.036,3.036,0,0,1-1.833,2.193c-.707.153-1.665-.86-2.513-1.358-.016-.339-.033-.679-.05-1.017" transform="translate(-198.113 -359.794)" fill="#fff"/>
            <path id="Path_5256" data-name="Path 5256" d="M223.613,377.422c-.557-.793-1.62-1.643-1.537-2.363.088-.789,1.226-2.011,1.924-2.023a2.847,2.847,0,0,1,2.037,1.92c.112.719-.923,1.619-1.452,2.438l-.971.028" transform="translate(-196.694 -358.475)" fill="#fff"/>
            <path id="Path_5257" data-name="Path 5257" d="M202.727,311.938c.6.792,1.555,1.517,1.719,2.39a1.693,1.693,0,0,1-2,2.057,2.9,2.9,0,0,1-2-1.831c-.086-.8.836-1.7,1.321-2.559l.952-.058" transform="translate(-199.568 -366.595)" fill="#fff"/>
            <path id="Path_5258" data-name="Path 5258" d="M183.513,430.682c.76-.634,1.542-1.792,2.274-1.762a3.039,3.039,0,0,1,2.149,1.883c.147.512-.987,1.9-1.7,2.02-.782.137-1.737-.724-2.616-1.15l-.109-.991" transform="translate(-201.818 -351.048)" fill="#fff"/>
            <path id="Path_5259" data-name="Path 5259" d="M229.822,348.234c-.589-.791-1.527-1.518-1.682-2.387a1.682,1.682,0,0,1,1.994-2.051,2.9,2.9,0,0,1,1.985,1.828c.093.787-.816,1.694-1.288,2.548l-1.008.061" transform="translate(-195.892 -362.366)" fill="#fff"/>
            <path id="Path_5260" data-name="Path 5260" d="M157.777,322.21c.8-.568,1.6-1.584,2.392-1.571.733.012,2.095,1.209,2.024,1.728a3.1,3.1,0,0,1-1.851,2.214c-.7.156-1.668-.868-2.516-1.371-.016-.333-.033-.666-.049-1" transform="translate(-205.239 -365.438)" fill="#fff"/>
            <path id="Path_5261" data-name="Path 5261" d="M173.4,425.883c-.551-.8-1.544-1.619-1.521-2.406a2.905,2.905,0,0,1,1.8-2.023,1.7,1.7,0,0,1,2.179,1.866c-.069.875-.927,1.688-1.432,2.529l-1.024.035" transform="translate(-203.364 -352.051)" fill="#fff"/>
            <path id="Path_5262" data-name="Path 5262" d="M165.907,433.984c-.574-.789-1.594-1.577-1.593-2.364,0-.733,1.165-2.107,1.685-2.048a3.071,3.071,0,0,1,2.225,1.806c.167.7-.822,1.682-1.3,2.539l-1.016.068" transform="translate(-204.37 -350.962)" fill="#fff"/>
            <path id="Path_5263" data-name="Path 5263" d="M177.005,375.981c.781-.611,1.489-1.564,2.36-1.751a1.689,1.689,0,0,1,2.1,1.943,2.889,2.889,0,0,1-1.8,2.027c-.794.1-1.721-.793-2.59-1.255-.025-.321-.051-.642-.076-.963" transform="translate(-202.683 -358.322)" fill="#fff"/>
            <path id="Path_5264" data-name="Path 5264" d="M196.758,386.609c-.582-.8-1.612-1.609-1.613-2.413,0-.7,1.046-1.776,1.835-2.019a1.678,1.678,0,0,1,2.2,1.835c-.071.885-.941,1.705-1.456,2.554l-.962.043" transform="translate(-200.272 -357.272)" fill="#fff"/>
            <path id="Path_5265" data-name="Path 5265" d="M165.8,325.436c.8-.559,1.54-1.434,2.415-1.6a1.685,1.685,0,0,1,2.051,2,2.913,2.913,0,0,1-1.893,1.984c-.785.082-1.68-.872-2.527-1.375-.015-.334-.031-.67-.045-1.006" transform="translate(-204.172 -365.019)" fill="#fff"/>
            <path id="Path_5266" data-name="Path 5266" d="M222.227,430.282c.79-.568,1.585-1.583,2.368-1.574.735.008,2.1,1.175,2.04,1.694a3.068,3.068,0,0,1-1.818,2.214c-.7.162-1.676-.836-2.529-1.322l-.061-1.012" transform="translate(-196.673 -351.076)" fill="#fff"/>
            <path id="Path_5267" data-name="Path 5267" d="M238.484,431.007c-.568-.809-1.655-1.684-1.563-2.409a3.027,3.027,0,0,1,2.058-1.971c.529-.1,1.808,1.131,1.874,1.845.073.787-.859,1.668-1.353,2.507l-1.016.027" transform="translate(-194.721 -351.354)" fill="#fff"/>
            <path id="Path_5268" data-name="Path 5268" d="M173.433,350.627c-.587-.8-1.523-1.54-1.677-2.415a1.679,1.679,0,0,1,2.021-2.028,2.915,2.915,0,0,1,1.993,1.841c.072.8-.864,1.7-1.363,2.555l-.974.048" transform="translate(-203.385 -362.049)" fill="#fff"/>
            <path id="Path_5269" data-name="Path 5269" d="M184.167,320.021c.778-.606,1.485-1.561,2.351-1.734a1.7,1.7,0,0,1,2.1,1.952,2.9,2.9,0,0,1-1.794,2.029c-.785.11-1.712-.784-2.576-1.242-.028-.334-.056-.67-.084-1" transform="translate(-201.731 -365.756)" fill="#fff"/>
            <path id="Path_5270" data-name="Path 5270" d="M167.87,388.609c.8-.565,1.637-1.62,2.387-1.561a3.018,3.018,0,0,1,2.085,1.9,1.677,1.677,0,0,1-1.936,2.068c-.889-.125-1.677-.969-2.51-1.491-.008-.307-.017-.613-.025-.919" transform="translate(-203.897 -356.613)" fill="#fff"/>
            <path id="Path_5271" data-name="Path 5271" d="M166.281,449.833c-.749.637-1.5,1.774-2.247,1.772a3.071,3.071,0,0,1-2.206-1.779,1.66,1.66,0,0,1,1.747-2.219c.888.042,1.741.839,2.61,1.3l.1.927" transform="translate(-204.714 -348.565)" fill="#fff"/>
            <path id="Path_5272" data-name="Path 5272" d="M167.287,352.2c.8-.556,1.622-1.561,2.41-1.538a2.888,2.888,0,0,1,2.051,1.8,1.7,1.7,0,0,1-1.889,2.163c-.885-.1-1.694-.911-2.535-1.4-.012-.34-.024-.681-.036-1.021" transform="translate(-203.975 -361.448)" fill="#fff"/>
            <path id="Path_5273" data-name="Path 5273" d="M231.977,396.231c.572.8,1.473,1.537,1.636,2.414a1.657,1.657,0,0,1-2,2.03,2.915,2.915,0,0,1-1.993-1.85c-.075-.8.868-1.7,1.369-2.552l.983-.042" transform="translate(-195.691 -355.392)" fill="#fff"/>
            <path id="Path_5274" data-name="Path 5274" d="M186.736,427.654c-.6-.768-1.519-1.46-1.72-2.32a1.678,1.678,0,0,1,1.894-2.142,2.928,2.928,0,0,1,2.081,1.774c.128.775-.77,1.719-1.221,2.59l-1.034.1" transform="translate(-201.626 -351.812)" fill="#fff"/>
            <path id="Path_5275" data-name="Path 5275" d="M220.261,403.057c.778-.6,1.591-1.707,2.326-1.659.787.052,1.5,1.194,2.249,1.86-.667.736-1.251,1.933-2.027,2.075-.724.134-1.654-.853-2.493-1.347l-.054-.93" transform="translate(-196.935 -354.706)" fill="#fff"/>
            <path id="Path_5276" data-name="Path 5276" d="M180.432,441.865c-.555-.8-1.621-1.655-1.532-2.371.1-.81,1.237-1.491,1.924-2.228.723.7,1.894,1.331,2.032,2.135.122.71-.911,1.618-1.433,2.438l-.991.026" transform="translate(-202.432 -349.939)" fill="#fff"/>
            <path id="Path_5277" data-name="Path 5277" d="M164.462,358.155c.811-.54,1.643-1.527,2.428-1.492.727.032,2.037,1.246,1.961,1.781a3.044,3.044,0,0,1-1.879,2.159c-.713.134-1.646-.907-2.483-1.43q-.012-.508-.026-1.018" transform="translate(-204.35 -360.651)" fill="#fff"/>
            <path id="Path_5278" data-name="Path 5278" d="M235.9,428.683c-.781.612-1.489,1.575-2.358,1.753a1.684,1.684,0,0,1-2.1-1.952,2.929,2.929,0,0,1,1.782-2.064c.8-.1,1.729.821,2.6,1.3.025.322.049.642.073.964" transform="translate(-195.452 -351.381)" fill="#fff"/>
          </g>
        </g>
      </g>
    </g>
    <rect id="paper_dot" width="10" height="10" transform="translate(10413 14665)" fill="#ec0719"/>
    <rect id="terpenes_dot" width="10" height="10" transform="translate(10374.5 15043.5)" fill="#ec0719"/>
    <rect id="fluid_dot" width="10" height="10" transform="translate(10374.5 15043.5)" fill="#ec0719"/>
    <rect id="solid_dot" width="10" height="10" transform="translate(10374.5 15043.5)" fill="#ec0719"/>
    <path id="fluid_line" d="M10260.979,15210.5H10379.5v-162.414" fill="none" stroke="#ec0719" stroke-width="1"/>
  </g>
</svg>
