<svg xmlns="http://www.w3.org/2000/svg" xmlns:xlink="http://www.w3.org/1999/xlink" width="957.375" height="850" viewBox="0 0 957.375 850">
  <defs>
    <clipPath id="clip-path">
      <rect id="Rectangle_10" data-name="Rectangle 10" width="348.3" height="528"/>
    </clipPath>
    <clipPath id="clip-path-2">
      <path id="Path_133" data-name="Path 133" d="M4.8,81A42.3,42.3,0,0,0,29.9,26.6,42.389,42.389,0,0,0,0,0Z"/>
    </clipPath>
  </defs>
  <g id="infused" transform="translate(-303.313 -237)">
    <g id="roll" transform="translate(-3298.687 -1270)">
      <g id="Group_534" transform="translate(3849.218 1529.774)" clip-path="url(#clip-path)">
        <circle id="Ellipse_28" cx="42.4" cy="42.4" r="42.4" transform="translate(186.9 230.6)" fill="none" stroke="#fff" stroke-miterlimit="10" stroke-width="1" stroke-dasharray="12.416 12.416"/>
      </g>
      <g id="Group_536" transform="translate(4088.649 1761.56)" clip-path="url(#clip-path-2)">
        <path id="Path_5280" d="M43.2,97.5c-1-2.2-2.2-.5-3.2-.6-.1,1,.1,2.1-.3,2.8a2.512,2.512,0,0,1-2.1,1c-.7-.2-1.4-1.1-1.9-1.8-.3-.4-.1-1.3-.4-1.5-1.6-.8-2.3-2-1.3-3.5,1.1-1.6,2.5-1,3.8,0,1.3-1.5,2.6-2.2,4.3-.6a.75.75,0,0,0,.9,0c1.4-.6,2.7-.5,3.3,1.1.7,1.8-.4,2.7-2.1,3.2,1.3,2.1,1.3,3.6-.1,4.2a2.108,2.108,0,0,1-2.9-.7.367.367,0,0,1-.1-.3q-1.2-1.95,2.1-3.3" fill="#fff"/>
        <path id="Path_5281" d="M14.5,106.5c.5,1.6.5,3.2-1.4,3.6a3.034,3.034,0,0,1-2.5-1.2c-1-1.7.4-2.6,2-3.4-.4-2.2-.5-4.5-1.3-6.5a7.765,7.765,0,0,0-3.2-3.5C7,94.8,6,94.2,6.3,92.9c.2-.7,1.3-1.9,1.8-1.8a6.422,6.422,0,0,1,2.5,1.8c.2.1.1.5.2.8,2.1.1,3.2,1,2.8,3.3a1.332,1.332,0,0,0,.6.9,2.368,2.368,0,0,1,1.3,3,.1.1,0,0,1-.1.1,1.128,1.128,0,0,0,.3,1.1c1.5,2.2,1.3,3.1-1.2,4.4" fill="#fff"/>
        <path id="Path_5282" d="M1.6,110.7c.2-1,.3-2.1.5-3.1a13.552,13.552,0,0,1,.2-2,3.9,3.9,0,0,1,1.3-2,2.874,2.874,0,0,1,2.2.3,2.646,2.646,0,0,1,.8,2.1,45.049,45.049,0,0,1-1.4,4.9,34.013,34.013,0,0,1,4.5-.3c.5.1.7,1.4,1.2,2.5,1.3.2,3.1.6,2.5,2.8a2.994,2.994,0,0,1-2.1,1.7c-1.8.1-2.2-1.3-2.2-3.1-.7.1-1.5-.1-1.9.2-1.1.9-2.3,1.5-3.3.5-.7-.8-.7-2.1-.6-3.4l-1.7-1.1Z" fill="#fff"/>
        <path id="Path_5283" d="M-35,100.4c-2.3-.4-2.6-1-1.9-3.7.1-.5-.3-1.2-.2-1.8a3.719,3.719,0,0,1,1-2.2,2.443,2.443,0,0,1,2.2-.1,3.09,3.09,0,0,1,1.1,2,32.529,32.529,0,0,1-.3,4.4l3.2,1.3v-.5a16.367,16.367,0,0,1,3.8.4c.4.1.3,2.6,0,2.7a9.659,9.659,0,0,1-3.8.3c-1.1.1-2.3.6-3.1.2-.8-.3-1.2-1.6-2-3" fill="#fff"/>
        <path id="Path_5284" d="M-55.1,112.4c-2.1.6-3.6.3-3.8-2.1a1.589,1.589,0,0,0-.8-1c-1.5-.5-2.2-1.5-1.6-2.8A3.085,3.085,0,0,1-59,105c1.6.1,2.1,1.3,1.9,2.9l.7-.9,3.6,1.9-1.4,1.7c1.6-.6,3.1-.6,3.6,1.2a2.71,2.71,0,0,1-1.1,2.5c-1.7.9-2.8-.3-3.4-1.9" fill="#fff"/>
        <path id="Path_5285" d="M33.7,91c-1.1.1-2.3.5-3.3.2a2.449,2.449,0,0,1-.9-2.3c.5-.9,1.6-1.5,2.7-2.4.5-.6,1.1-1.9,2.1-2.3.5-.2,2.4.9,2.4,1.3-.1,1.9,3.2,3.8.1,5.5-.8.4-2.1-.1-3.2-.2l.1.2" fill="#fff"/>
        <path id="Path_5286" d="M-54.4,70.2c1.2,1.4,1.6,2.8.1,3.7a2.973,2.973,0,0,1-3-.4c-1.3-1.4-.3-2.7,1.2-3.6-1-1.4-1.7-2.9.2-3.9a3.1,3.1,0,0,1,2.8.5c1.2,1.5.2,2.7-1.3,3.7" fill="#fff"/>
        <path id="Path_5287" d="M.3,76.5c-1.4.1-3,.3-3.3-1.5-.2-1,.6-2.1,1.1-3.4-1.3-1.3-1.5-2.7-.3-3.7a2.052,2.052,0,0,1,2.9,0c.1.1.1.2.2.2C2,69.3,1.6,70.6-.4,72c2,1.2,2,2.8.7,4.5Z" fill="#fff"/>
        <path id="Path_5288" d="M15,91.3c-1.8,0-3.3-.6-2.9-2.6A2.764,2.764,0,0,1,14.3,87c1.8,0,2.2,1.4,2,3.1,1.6.3,3.4.6,3,2.7-.2.7-1.8,1.9-2.2,1.7a13.263,13.263,0,0,1-2.7-2.6l.6-.6" fill="#fff"/>
        <path id="Path_5289" d="M28.8,65.2c1.9-.2,3.3.1,3.5,2a1.951,1.951,0,0,1-1.6,2.3h-.5c-2.1,0-2.3-1.4-2.3-3.2-1.7.1-3.5-.1-3.3-2.3a3.018,3.018,0,0,1,2.1-2c1.8-.1,2.4,1.3,2.1,3.2" fill="#fff"/>
        <path id="Path_5290" d="M37.7,53.5c1.5-.8,3.2-1.3,3.9.7A3.25,3.25,0,0,1,40.5,57c-1.6.9-2.7-.2-3.1-2-1.6.7-3.3,1.3-4-.7a3.092,3.092,0,0,1,1-2.7c1.7-1.1,2.7.1,3.3,1.9" fill="#fff"/>
        <path id="Path_5291" d="M-37.3,80.4c-.9,1.6-2.1,2.5-3.6,1.4a2.929,2.929,0,0,1-.5-3c1-1.6,2.5-1.1,3.8,0,.9-1.5,2.2-2.7,3.8-1.2a3.116,3.116,0,0,1,.4,2.8c-1,1.7-2.5,1.1-3.9,0" fill="#fff"/>
        <path id="Path_5292" d="M-.9,84.9c-1.5.2-3.1.1-3.1-1.8a3.007,3.007,0,0,1,1.5-2.4c1.8-.6,2.6.8,2.9,2.4,1.6-.1,3.2,0,3.2,2A2.8,2.8,0,0,1,2,87.3c-1.8.6-2.5-.9-2.9-2.4" fill="#fff"/>
        <path id="Path_5293" d="M-40.5,42.4c.9,1.6,1.3,3.1-.5,3.9a3.243,3.243,0,0,1-2.8-.8c-1.2-1.7.2-2.8,1.7-3.6-.9-1.4-1.4-2.9.4-3.7a2.916,2.916,0,0,1,2.9.8c1.1,1.5-.1,2.6-1.7,3.4" fill="#fff"/>
        <path id="Path_5294" d="M-46.7,112.4c-1.9-.4-3-1.4-2.3-3.1a3.127,3.127,0,0,1,2.5-1.3c1.8.3,1.9,1.8,1.4,3.4,1.5.5,3.1,1.3,2.3,3.2a3.174,3.174,0,0,1-2.6,1.3c-1.7-.3-1.8-1.7-1.3-3.5" fill="#fff"/>
        <path id="Path_5295" d="M-5.5,17.4c-1.1,1.3-2.4,1.9-3.6.7a2.992,2.992,0,0,1-.2-2.9c1.2-1.7,2.7-.9,3.9.4,1.2-1.3,2.6-2.1,3.8-.6a3,3,0,0,1,.1,2.9c-1.3,1.6-2.8.5-4-.5" fill="#fff"/>
        <path id="Path_5296" d="M-46.6,79.8c-.4,1.8-1.1,3.2-3,2.5a3.007,3.007,0,0,1-1.5-2.4c.2-1.9,1.8-1.9,3.5-1.6.6-1.5,1.2-3.2,3.1-2.4a2.851,2.851,0,0,1,1.4,2.5c-.2,1.8-1.7,1.9-3.5,1.4" fill="#fff"/>
        <path id="Path_5297" d="M29.9,98.9c.2,1.8-.2,3.4-2.2,3.2a3.018,3.018,0,0,1-2.1-2c-.3-1.9,1.3-2.4,3-2.5-.2-1.7.3-3.2,2.1-3a3.155,3.155,0,0,1,2.1,2.1c.3,1.7-1.1,2.3-2.9,2.2" fill="#fff"/>
        <path id="Path_5298" d="M-43.1,89.7c-1.9-2-4-1.6-5.8-2.1A1.648,1.648,0,0,1-50,85.5a2.177,2.177,0,0,1,.5-.8c.7-.6,2.4-1.1,2.9-.6a3.251,3.251,0,0,0,3,.6A1.724,1.724,0,0,1-41.5,86a1.1,1.1,0,0,1,0,.8c0,.9-.9,1.7-1.6,2.9" fill="#fff"/>
        <path id="Path_5299" d="M-57,78c1.4-.8,2.9-1.4,3.8.3a2.872,2.872,0,0,1-.6,2.8c-1.5,1.2-2.7.2-3.6-1.2-1.4.9-3,1.5-3.9-.3a2.951,2.951,0,0,1,.5-2.7c1.5-1.3,2.8-.4,3.8,1.1" fill="#fff"/>
        <path id="Path_5300" d="M-41.1,102.1c-.5,1.6-1.5,2.8-3.2,2a2.813,2.813,0,0,1-1.3-2.4c.3-1.9,1.8-2.1,3.1-2.2A15.4,15.4,0,0,1-39,98c.4,0,1.4,1.7,1.3,2.5-.2,2-1.9,1.8-3.4,1.6" fill="#fff"/>
        <path id="Path_5301" d="M6.6,71.4c1.8.4,3.3,1.2,2.6,3.1a2.887,2.887,0,0,1-2.7,1.3c-1.9-.6-1.8-2.2-.9-3.8-1.8-.4-3.3-1.2-2.6-3.1a2.887,2.887,0,0,1,2.7-1.3c2,.6,1.8,2.2.9,3.8" fill="#fff"/>
        <path id="Path_5302" d="M-51.9,104.5c.5-1.5,1.2-3.2,3.1-2.3a2.887,2.887,0,0,1,1.3,2.7c-.4,1.9-2,1.7-3.6,1.1-.4,1.6-1,3-3.1,2.5a1.951,1.951,0,0,1-1.6-2.3c0-.1.1-.3.1-.4.7-2,2.2-1.8,3.8-1.3" fill="#fff"/>
        <path id="Path_5303" d="M-9.5,65.7c-.2.2-.5.5-.7.5a8.2,8.2,0,0,1-3.1-.3,2.754,2.754,0,0,1-.2-2.5,5.728,5.728,0,0,1,3.4-.8c.8-1.2,1.5-3.1,3.7-1.9a2.847,2.847,0,0,1,1,2.7c-.7,1.9-2.2,1.8-3.9.7a13.7,13.7,0,0,0-.2,1.6Z" fill="#fff"/>
        <path id="Path_5304" d="M17.5,13c.8-1,1.4-2.2,2.1-2.3.8-.1,1.8.6,2.7,1.1a7.518,7.518,0,0,1,1.6,1.5c.6.7,1.6,1.5,1.5,2.3a2.652,2.652,0,0,1-1.8,1.9c-.7.1-1.6-.8-2.3-1.4a20.023,20.023,0,0,1-1.6-1.4A16.606,16.606,0,0,1,17.5,13" fill="#fff"/>
        <path id="Path_5305" d="M47.3,47.7c.1-1.6.4-3.2,2.4-3a2.791,2.791,0,0,1,2,1.8c.4,1.9-1.1,2.4-2.7,2.7,0,1.7-.5,3.1-2.4,3a2.791,2.791,0,0,1-2-1.8c-.4-1.9,1-2.5,2.7-2.7" fill="#fff"/>
        <path id="Path_5306" d="M57.2,97.9a2.129,2.129,0,0,1,2.3,1.9,2.663,2.663,0,0,1-.3,1.2,3.2,3.2,0,0,0-.3,2.7,2.617,2.617,0,0,1-1,2.3,2.532,2.532,0,0,1-2.5-.4c-.5-.5-.4-1.7-.4-2.5a21.158,21.158,0,0,0,.2-2.4,2.373,2.373,0,0,1,1.7-2.8h.3" fill="#fff"/>
        <path id="Path_5307" d="M-51.3,96.8c1.3-.9,2.7-1.7,3.8-.1a3.01,3.01,0,0,1-.2,2.9c-1.3,1.5-2.6.6-3.7-.6-1.3,1-2.7,1.7-3.8.2a3.01,3.01,0,0,1,.2-2.9c1.2-1.6,2.5-.7,3.7.5" fill="#fff"/>
        <path id="Path_5308" d="M-36.8,88.9A6.391,6.391,0,0,1-36,87a37.907,37.907,0,0,1,4.2-3.8c.3-.2,1.8.7,2.1,1.4a2.6,2.6,0,0,1-.7,2.4,4.522,4.522,0,0,0-2,2.3,2.935,2.935,0,0,1-2.3,1.2c-.7-.1-1.4-1-2.1-1.6" fill="#fff"/>
        <path id="Path_5309" d="M-17.9,36.6c.8-.9,1.3-1.9,2-2.1,1-.3,1.9-.5,2.4-1.6a2.6,2.6,0,0,1,2.4-.7,2.332,2.332,0,0,1,1.3,2.1c0,.7-1,1.4-1.6,2a6.606,6.606,0,0,1-2,1.4,4.376,4.376,0,0,1-2.5.8c-.6-.1-1.1-1.1-2-1.9" fill="#fff"/>
        <path id="Path_5310" d="M54.5,98c-2-1.3-3.9-2.6-5.8-4.1-.3-.2.3-2.1.9-2.5a2.914,2.914,0,0,1,2.7.4,3.839,3.839,0,0,0,2.4,1.5,2.909,2.909,0,0,1,1.5,2.2c-.1.7-1,1.5-1.7,2.5" fill="#fff"/>
        <path id="Path_5311" d="M18.6,82.5a16.637,16.637,0,0,1-2.7,1.3,2.871,2.871,0,0,1-2.4-.2,2.827,2.827,0,0,1-.6-2.5,2.585,2.585,0,0,1,1.9-1.3,3.4,3.4,0,0,0,2.6-.8,2.747,2.747,0,0,1,2.5.1,2.685,2.685,0,0,1,.7,2.3c-.1.7-1,1.2-1.6,1.8l-.4-.7" fill="#fff"/>
        <path id="Path_5312" d="M-57.5,51.8c.6-.7,1-1.6,1.6-1.8.8-.2,2.2,0,2.5.5a5.53,5.53,0,0,0,2.6,2.2,1.834,1.834,0,0,1,.9,2.4,1.344,1.344,0,0,1-.6.7c-.7.5-2.5.7-3,.2a9.128,9.128,0,0,0-3-2.5c-.3-.2-.5-1-1-1.7" fill="#fff"/>
        <path id="Path_5313" d="M39.4,102.4c.8.6,1.8,1.1,2,1.8a3.614,3.614,0,0,1-.6,2.5,7.231,7.231,0,0,1-1.7,2.2A3.6,3.6,0,0,1,37,110a2.49,2.49,0,0,1-1.8-1.5,3.306,3.306,0,0,1,.7-2.3,18.394,18.394,0,0,1,1.7-2.2,9.345,9.345,0,0,1,1.8-1.6" fill="#fff"/>
        <path id="Path_5314" d="M36.7,80.8c-2.4-.3-4.2-.1-5.6-.7a3.326,3.326,0,0,1-1.2-2.8c.3-1.4,1.6-1.6,3-1.1a4.454,4.454,0,0,0,2.3.3c1.5-.1,2.6.5,2.6,2a4.134,4.134,0,0,1-1.1,2.3" fill="#fff"/>
        <path id="Path_5315" d="M-3.9,55.6a8.146,8.146,0,0,1,1.5-2.1,3.32,3.32,0,0,1,2.2,0,13.9,13.9,0,0,1,2.8,1.2,3.969,3.969,0,0,1,1.7,1.7,2.737,2.737,0,0,1-.9,2.2,3.313,3.313,0,0,1-2.4,0,9.612,9.612,0,0,1-2.8-1.1c-.7-.6-1.4-1.2-2.1-1.9" fill="#fff"/>
        <path id="Path_5316" d="M-20.1,85.9a17.292,17.292,0,0,1,.7,3.1,2.855,2.855,0,0,1-.8,2.3,2.544,2.544,0,0,1-2.4.1c-.6-.3-.9-1.4-1.1-2.2a6.261,6.261,0,0,1-.3-2.7,3.891,3.891,0,0,1,.7-2.3,2.435,2.435,0,0,1,2.2-.4c.7.3,1.1,1.1,1.7,1.7l-.7.4" fill="#fff"/>
        <path id="Path_5317" d="M-10.8,106.2c1,1.4,1.2,2.7-.5,3.7-1.4.8-2.5,0-3.3-2-.2-.6-.9-.9-1.1-1.5a3.973,3.973,0,0,1-.2-2.4,2.609,2.609,0,0,1,2.1-1.1c.7.1,1.3.9,1.8,1.5a9.392,9.392,0,0,1,1.2,1.8h0" fill="#fff"/>
        <path id="Path_5318" d="M-17.8,25.4c-.7-.8-1.9-1.6-1.8-2.4a3.157,3.157,0,0,1,1.9-2.3c.7-.1,2.1,1.1,2.2,1.9.2.8-.9,1.8-1.4,2.7l-.9.1" fill="#fff"/>
        <path id="Path_5319" d="M-6.1-127.3c.8-.7,1.6-1.9,2.4-1.9s1.6,1.2,2.5,1.8c-.7.8-1.2,2.1-2,2.3s-1.8-.8-2.7-1.3c-.1-.3-.1-.6-.2-.9" fill="#fff"/>
        <path id="Path_5320" d="M43.5,30.7c-.6-.8-1.8-1.6-1.8-2.4A3.194,3.194,0,0,1,43.6,26a3.157,3.157,0,0,1,2.3,1.9c.2.8-.9,1.8-1.4,2.7Z" fill="#fff"/>
        <path id="Path_5321" d="M-46.5,96.2c.8-.6,1.7-1.8,2.5-1.7.8,0,1.6,1.3,2.4,2-.7.8-1.3,2.1-2.1,2.2s-1.8-.9-2.6-1.5a1.8,1.8,0,0,1-.2-1" fill="#fff"/>
        <path id="Path_5322" d="M-10.8,106.2h0c-.1-.5-.2-1.1-.3-1.6-.2-1.5.6-2.6,2-2.5a3.291,3.291,0,0,1,2.3,2c.3,1.4-.7,2.3-2.2,2.3-.7-.1-1.3-.1-1.8-.2" fill="#fff"/>
        <path id="Path_5323" d="M-18.6,107.7c.7.8,1.9,1.6,1.9,2.3a2,2,0,0,1-2,2.2,2.08,2.08,0,0,1-2.2-1.7c-.2-.8.8-1.8,1.3-2.7l1-.1" fill="#fff"/>
        <path id="Path_5324" d="M-10.1-46.3c.8-.6,1.6-1.8,2.4-1.8a2.849,2.849,0,0,1,2.2,1.9A2.849,2.849,0,0,1-7.4-44c-.8.1-1.8-.9-2.7-1.4a2.719,2.719,0,0,0,0-.9" fill="#fff"/>
        <path id="Path_5325" d="M-28.7,107.3c.6.8,1.7,1.7,1.7,2.5-.1.8-1.2,1.6-1.9,2.4-.8-.7-2.1-1.3-2.2-2.2-.1-.8.9-1.7,1.5-2.6l.9-.1" fill="#fff"/>
        <path id="Path_5326" d="M-1.5-94.9c.8-.7,1.6-1.9,2.4-1.9S2.5-95.6,3.4-95c-.7.8-1.2,2.1-2,2.3S-.4-93.5-1.3-94a6.374,6.374,0,0,1-.2-.9" fill="#fff"/>
        <path id="Path_5327" d="M-12.1,72.1c.8-.7,1.6-1.9,2.3-1.9.8,0,1.7,1.1,2.5,1.8-.6.8-1.2,2.1-2,2.3-.7.2-1.8-.8-2.7-1.2a3.4,3.4,0,0,1-.1-1" fill="#fff"/>
        <path id="Path_5328" d="M-4.4-24.9c.7.8,1.9,1.6,1.9,2.3a3.031,3.031,0,0,1-1.8,2.3,3.031,3.031,0,0,1-2.3-1.8c-.2-.8.8-1.8,1.3-2.7l.9-.1" fill="#fff"/>
        <path id="Path_5329" d="M24.9,82.9,23.7,82a2.063,2.063,0,0,1-.2-2.9,1.381,1.381,0,0,1,.4-.3,2.052,2.052,0,0,1,2.9,0,2.181,2.181,0,0,1,.4.5,2.074,2.074,0,0,1-.4,2.9,2.186,2.186,0,0,1-.5.3,3.255,3.255,0,0,0-1.4.4Z" fill="#fff"/>
        <path id="Path_5330" d="M58.4,78.3c-.7-.8-1.9-1.6-1.9-2.4s1.2-1.6,1.8-2.5c.8.7,2.1,1.2,2.3,2s-.9,1.8-1.3,2.7Z" fill="#fff"/>
        <path id="Path_5331" d="M30.3,45.3c.8-.7,1.6-1.9,2.4-1.9a2.065,2.065,0,1,1,.5,4.1h0c-.8.2-1.8-.8-2.7-1.3a1.486,1.486,0,0,1-.2-.9" fill="#fff"/>
        <path id="Path_5332" d="M-37.4-65.3c.8-.6,1.7-1.8,2.4-1.7.8.1,1.6,1.2,2.4,1.9-.7.8-1.3,2.1-2.1,2.2-.7.1-1.7-.9-2.6-1.4l-.1-1" fill="#fff"/>
        <path id="Path_5333" d="M26.3,45.1c-.7-.8-1.9-1.5-1.9-2.3s1.1-1.7,1.8-2.5c.8.6,2.2,1.2,2.4,2s-.8,1.8-1.3,2.7l-1,.1" fill="#fff"/>
        <path id="Path_5334" d="M22.3-35.4c.8-.6,1.7-1.8,2.5-1.7a3.145,3.145,0,0,1,2.2,2c.1.7-1.2,2-2,2.2-.8.1-1.7-.9-2.6-1.4a3.42,3.42,0,0,0-.1-1.1" fill="#fff"/>
        <path id="Path_5335" d="M52.1-24.9c.6.8,1.8,1.7,1.7,2.4-.1.8-1.2,1.6-1.9,2.4-.8-.7-2.1-1.3-2.2-2.1s.9-1.7,1.5-2.6Z" fill="#fff"/>
        <path id="Path_5336" d="M-8.7-2.4C-7.9-3-7-4-6.2-4.1A3.1,3.1,0,0,1-4-2.3,1.857,1.857,0,0,1-5,0a2.2,2.2,0,0,1-.8.1c-.9,0-1.8-.9-2.7-1.4Z" fill="#fff"/>
        <path id="Path_5337" d="M26.8-21.2c.6.8,1.6,1.5,1.9,2.4a1.732,1.732,0,0,1-1.2,2.2,2.2,2.2,0,0,1-.8.1,3.1,3.1,0,0,1-2.2-1.8c-.1-.8.8-1.8,1.2-2.7l1.1-.2" fill="#fff"/>
        <path id="Path_5338" d="M16.1-23.4c.8-.7,1.5-1.8,2.4-1.8a3.074,3.074,0,0,1,2.3,1.7,1.721,1.721,0,0,1-.9,2.3,1.128,1.128,0,0,1-.8.1c-.9,0-1.9-.8-2.8-1.2-.1-.4-.1-.8-.2-1.1" fill="#fff"/>
        <path id="Path_5339" d="M46.4-33.7c.7.8,1.8,1.6,1.8,2.4s-1.2,1.6-1.8,2.5c-.8-.7-2.1-1.2-2.3-2s.8-1.8,1.3-2.7l1-.2" fill="#fff"/>
        <path id="Path_5340" d="M54.9-35.1c.6.8,1.7,1.5,1.9,2.4a1.812,1.812,0,0,1-1.2,2.2,1.1,1.1,0,0,1-.8,0,3.1,3.1,0,0,1-2.2-1.8c-.1-.8.8-1.8,1.2-2.7l1.1-.1" fill="#fff"/>
        <path id="Path_5341" d="M14.4-39c.7.8,1.8,1.5,1.9,2.4a3.331,3.331,0,0,1-1.7,2.3,1.733,1.733,0,0,1-2.3-1,1.949,1.949,0,0,1-.1-.8c0-.9.9-1.9,1.3-2.8l.9-.1" fill="#fff"/>
        <path id="Path_5342" d="M42.4-52.5c.8-.6,1.6-1.6,2.5-1.8a1.812,1.812,0,0,1,2.2,1.2,1.1,1.1,0,0,1,0,.8,3.486,3.486,0,0,1-1.9,2.2c-1.4.5-2.2-.5-2.8-2.4" fill="#fff"/>
        <path id="Path_5343" d="M48.6,26.4c.8-.7,1.6-1.9,2.3-1.9a1.98,1.98,0,0,1,2.2,1.9,2.017,2.017,0,0,1-1.8,2.2c-.8.2-1.8-.8-2.7-1.3Z" fill="#fff"/>
        <path id="Path_5344" d="M53.4-74.4c.8-.6,1.7-1.7,2.5-1.7a3.1,3.1,0,0,1,2.2,1.8A1.912,1.912,0,0,1,57-72a2.2,2.2,0,0,1-.8.1,8.732,8.732,0,0,1-2.7-1.4l-.1-1.1" fill="#fff"/>
        <path id="Path_5345" d="M52.7,34.2c.8-.7,1.5-1.7,2.4-1.9a1.755,1.755,0,0,1,2.2,1.1,2.485,2.485,0,0,1,.1.8,3.1,3.1,0,0,1-1.8,2.2c-.8.1-1.8-.7-2.8-1.2,0-.3-.1-.6-.1-1" fill="#fff"/>
        <path id="Path_5346" d="M27.5-86.1c-.6-.8-1.8-1.7-1.7-2.4a3.39,3.39,0,0,1,2-2.2,2.972,2.972,0,0,1,2.2,2c.1.7-.9,1.7-1.5,2.6h-1" fill="#fff"/>
        <path id="Path_5347" d="M-9.7,41c.6.8,1.6,1.7,1.6,2.5s-1.2,2.2-1.8,2.1a3.157,3.157,0,0,1-2.3-1.9c-.2-.7.9-1.7,1.4-2.6l1.1-.1" fill="#fff"/>
        <path id="Path_5348" d="M.7,43.9c.8-.6,1.6-1.7,2.5-1.7A3.1,3.1,0,0,1,5.4,44a1.7,1.7,0,0,1-1,2.2,2.485,2.485,0,0,1-.8.1A8.732,8.732,0,0,1,.9,44.9a1.5,1.5,0,0,1-.2-1" fill="#fff"/>
        <path id="Path_5349" d="M-3.9,93.2c.8-.6,1.6-1.8,2.4-1.8A2.914,2.914,0,0,1,.8,93.1a1.721,1.721,0,0,1-.9,2.3,1.063,1.063,0,0,1-.8.1c-.9,0-1.9-.8-2.8-1.3a2.958,2.958,0,0,1-.2-1" fill="#fff"/>
        <path id="Path_5350" d="M-9.5,90.4c.6.8,1.7,1.6,1.8,2.4A2.971,2.971,0,0,1-9.4,95a1.808,1.808,0,0,1-2.3-.9,1.185,1.185,0,0,1-.1-.8c0-.9.9-1.8,1.3-2.8Z" fill="#fff"/>
        <path id="Path_5351" d="M47.3,62.6c.9-.6,1.8-1.8,2.5-1.7A3.155,3.155,0,0,1,51.9,63c.1.6-1.2,1.9-1.9,2-.8.1-1.8-.9-2.7-1.4v-1" fill="#fff"/>
        <path id="Path_5352" d="M23.2,56.7c-.6-.8-1.7-1.7-1.7-2.5A3.01,3.01,0,0,1,23.4,52a1.755,1.755,0,0,1,2.2,1.1,2.2,2.2,0,0,1,.1.8,8.732,8.732,0,0,1-1.4,2.7l-1.1.1" fill="#fff"/>
        <path id="Path_5353" d="M15.1,55.7c.8-.7,1.6-1.8,2.4-1.8a3.331,3.331,0,0,1,2.3,1.7,1.721,1.721,0,0,1-.9,2.3,3.085,3.085,0,0,1-.9.1c-.9,0-1.9-.8-2.8-1.3a3.4,3.4,0,0,1-.1-1" fill="#fff"/>
        <path id="Path_5354" d="M-31.3,66.7c.8-.6,1.6-1.8,2.4-1.8s1.6,1.2,2.4,1.8c-.7.8-1.2,2.1-2,2.3s-1.8-.9-2.7-1.3a3.083,3.083,0,0,1-.1-1" fill="#fff"/>
        <path id="Path_5355" d="M28.3,61.9c-.6-.8-1.6-1.6-1.8-2.5a1.724,1.724,0,0,1,1.3-2.1,1.1,1.1,0,0,1,.8,0,3.313,3.313,0,0,1,2.1,1.9c.1.8-.9,1.8-1.3,2.7H28.3" fill="#fff"/>
        <path id="Path_5356" d="M-33.2,60.4c.6.8,1.6,1.7,1.6,2.5s-1.3,2.2-1.8,2.1a3.391,3.391,0,0,1-2.3-1.9c-.2-.7.9-1.7,1.4-2.6l1.1-.1" fill="#fff"/>
        <path id="Path_5357" d="M-18.7,60.3c.8-.6,1.5-1.6,2.5-1.8A1.755,1.755,0,0,1-14,59.6a2.769,2.769,0,0,1,.1.9,3.1,3.1,0,0,1-1.8,2.2c-.8.1-1.8-.8-2.7-1.3a1.548,1.548,0,0,1-.3-1.1" fill="#fff"/>
        <path id="Path_5358" d="M-42.9,62.5c.8-.6,1.6-1.6,2.5-1.8a1.812,1.812,0,0,1,2.2,1.2,1.1,1.1,0,0,1,0,.8,2.889,2.889,0,0,1-1.9,2.1c-.8.1-1.8-.8-2.7-1.3l-.1-1" fill="#fff"/>
        <path id="Path_5359" d="M-49.7,91.8c.8-.6,1.6-1.7,2.5-1.7A3.1,3.1,0,0,1-45,91.9a1.767,1.767,0,0,1-1,2.3,2.769,2.769,0,0,1-.9.1,8.732,8.732,0,0,1-2.7-1.4,4.1,4.1,0,0,0-.1-1.1" fill="#fff"/>
        <path id="Path_5360" d="M7.6,55.6c.6.8,1.7,1.7,1.7,2.5a3.1,3.1,0,0,1-1.8,2.2,1.857,1.857,0,0,1-2.3-1,1.412,1.412,0,0,1-.1-.9,8.732,8.732,0,0,1,1.4-2.7l1.1-.1" fill="#fff"/>
        <path id="Path_5361" d="M19.2,63.7c.8-.7,1.6-1.9,2.4-1.8a3.157,3.157,0,0,1,2.3,1.9c.2.5-1,2-1.8,2.2s-1.8-.7-2.8-1.2c0-.3-.1-.7-.1-1.1" fill="#fff"/>
        <path id="Path_5362" d="M-9.6,65.8c.4-.2.8-.5,1.2-.4.9.1,2.1.2,2.5.7a2.76,2.76,0,0,1,.1,2.5,2.6,2.6,0,0,1-2.4.7c-.7-.2-1.1-1.4-1.4-2.2-.3-.3,0-.9,0-1.3h0" fill="#fff"/>
        <path id="Path_5363" d="M-8.2,89.9c.8-.6,1.6-1.7,2.4-1.7a2.971,2.971,0,0,1,2.2,1.7,1.767,1.767,0,0,1-1,2.3,2.2,2.2,0,0,1-.8.1c-.9,0-1.8-.9-2.8-1.3a2.045,2.045,0,0,0,0-1.1" fill="#fff"/>
        <path id="Path_5364" d="M-9.2,53.1c.6.8,1.6,1.6,1.8,2.5a1.812,1.812,0,0,1-1.2,2.2,1.1,1.1,0,0,1-.8,0,2.889,2.889,0,0,1-2.1-1.9c-.1-.8.8-1.8,1.3-2.7l1-.1" fill="#fff"/>
        <path id="Path_5365" d="M54.3,48.9c.8-.6,1.7-1.6,2.5-1.6A3.01,3.01,0,0,1,59,49.2a1.755,1.755,0,0,1-1.1,2.2,2.2,2.2,0,0,1-.8.1,8.732,8.732,0,0,1-2.7-1.4c0-.4-.1-.8-.1-1.2" fill="#fff"/>
        <path id="Path_5366" d="M21.4-132.3c.8-.7,1.5-1.9,2.3-1.9a3.031,3.031,0,0,1,2.3,1.8,2.838,2.838,0,0,1-1.8,2.3c-.8.2-1.8-.8-2.7-1.3a2.769,2.769,0,0,1-.1-.9" fill="#fff"/>
        <path id="Path_5367" d="M11.2,54.6c-.6-.8-1.6-1.5-1.8-2.4A1.732,1.732,0,0,1,10.6,50a1.1,1.1,0,0,1,.8,0,3.1,3.1,0,0,1,2.2,1.8c.1.8-.8,1.8-1.2,2.7l-1.2.1" fill="#fff"/>
        <path id="Path_5368" d="M4.2,88.4c.6.8,1.7,1.7,1.7,2.5A2.714,2.714,0,0,1,4,93a1.7,1.7,0,0,1-2.2-1,2.769,2.769,0,0,1-.1-.9,7.333,7.333,0,0,1,1.5-2.7h1" fill="#fff"/>
        <path id="Path_5369" d="M-20.4,51a7.935,7.935,0,0,1,2.5-1.7,1.664,1.664,0,0,1,2.1,1.2,1.387,1.387,0,0,1,0,.9,3.092,3.092,0,0,1-1.9,2.1c-.8.1-1.8-.9-2.7-1.4V51" fill="#fff"/>
        <path id="Path_5370" d="M-41.5,50.7c.8-.6,1.6-1.7,2.4-1.7a2.883,2.883,0,0,1,2.2,1.8A1.782,1.782,0,0,1-38,53.1a1.949,1.949,0,0,1-.8.1c-.9,0-1.8-.9-2.7-1.3a2.4,2.4,0,0,0,0-1.2" fill="#fff"/>
        <path id="Path_5371" d="M-16.3,48c.8-.6,1.6-1.7,2.5-1.7a2.883,2.883,0,0,1,2.2,1.8,1.857,1.857,0,0,1-1,2.3,2.2,2.2,0,0,1-.8.1c-.9,0-1.8-.9-2.7-1.4-.1-.3-.1-.7-.2-1.1" fill="#fff"/>
        <path id="Path_5372" d="M52.9,44.6c-.6-.8-1.8-1.6-1.8-2.4A3.391,3.391,0,0,1,53,39.9,1.755,1.755,0,0,1,55.2,41a2.2,2.2,0,0,1,.1.8,8.732,8.732,0,0,1-1.4,2.7l-1,.1" fill="#fff"/>
        <path id="Path_5373" d="M-19.6,70.6c.8-.6,1.7-1.8,2.4-1.7a2.972,2.972,0,0,1,2.2,2,1.755,1.755,0,0,1-1.1,2.2,2.485,2.485,0,0,1-.8.1,8.732,8.732,0,0,1-2.7-1.4V70.6" fill="#fff"/>
        <path id="Path_5374" d="M7.7,69.5c.3-2,1.1-3,2.4-2.7.8.1,2.2,1.3,2.1,1.8a3.157,3.157,0,0,1-1.9,2.3c-.7.2-1.7-.9-2.6-1.4" fill="#fff"/>
        <path id="Path_5375" d="M44.2,43.5c-.7-.8-1.9-1.5-1.9-2.3s1.1-1.7,1.8-2.5c.8.6,2.1,1.2,2.3,2s-.8,1.8-1.2,2.7l-1,.1" fill="#fff"/>
        <path id="Path_5376" d="M-12.4,96c-.8.7-1.5,1.9-2.3,1.9A2.117,2.117,0,0,1-17,96a2.177,2.177,0,0,1,1.8-2.3c.8-.2,1.8.8,2.7,1.3a3.751,3.751,0,0,0,.1,1" fill="#fff"/>
        <path id="Path_5377" d="M38.3,36.5c.8-.6,1.7-1.6,2.5-1.6a2.714,2.714,0,0,1,2.1,1.9A1.755,1.755,0,0,1,41.8,39a2.485,2.485,0,0,1-.8.1c-.9-.1-1.8-1-2.7-1.5V36.5" fill="#fff"/>
        <path id="Path_5378" d="M-27.5,45.6c-.6-.8-1.6-1.7-1.6-2.5A2.714,2.714,0,0,1-27.2,41,1.755,1.755,0,0,1-25,42.1a2.2,2.2,0,0,1,.1.8,7.333,7.333,0,0,1-1.5,2.7h-1.1" fill="#fff"/>
        <path id="Path_5379" d="M-49.2-86.4c.6.8,1.7,1.7,1.7,2.5a3.1,3.1,0,0,1-1.8,2.2,1.7,1.7,0,0,1-2.2-1,2.485,2.485,0,0,1-.1-.8,8.732,8.732,0,0,1,1.4-2.7l1-.2" fill="#fff"/>
        <path id="Path_5380" d="M33.2,34.6c.6.8,1.7,1.6,1.8,2.4,0,.8-1.1,2.3-1.7,2.2a3.028,3.028,0,0,1-2.4-1.8c-.2-.7.8-1.8,1.2-2.7l1.1-.1" fill="#fff"/>
        <path id="Path_5381" d="M8.2,38.8c.8-.6,1.6-1.7,2.4-1.8.8,0,2.2,1.1,2.2,1.7A3.188,3.188,0,0,1,11,41.1c-.7.2-1.8-.8-2.7-1.3,0-.3-.1-.6-.1-1" fill="#fff"/>
        <path id="Path_5382" d="M-34.8,45.5c-.7-.8-1.9-1.5-1.9-2.3s1.1-1.7,1.7-2.5c.8.6,2.1,1.2,2.3,2s-.8,1.8-1.2,2.7l-.9.1" fill="#fff"/>
        <path id="Path_5383" d="M-47.3,41.1c.6.8,1.7,1.7,1.6,2.5s-1.3,1.6-2,2.3c-.8-.7-2-1.4-2.2-2.2-.1-.8,1-1.7,1.5-2.6h1.1" fill="#fff"/>
        <path id="Path_5384" d="M-14.4-74.1c.8-.6,1.6-1.6,2.5-1.8a1.664,1.664,0,0,1,2.1,1.2,1.387,1.387,0,0,1,0,.9,2.714,2.714,0,0,1-1.9,2.1c-.8.1-1.8-.8-2.7-1.3,0-.4,0-.8,0-1.1" fill="#fff"/>
        <path id="Path_5385" d="M-53-64.6c.8-.7,1.6-1.9,2.4-1.8a3.259,3.259,0,0,1,2.3,1.8,3.259,3.259,0,0,1-1.8,2.3c-.8.2-1.8-.8-2.7-1.3a1.978,1.978,0,0,1-.2-1" fill="#fff"/>
        <path id="Path_5386" d="M-11.2-61.3c.8-.6,1.7-1.6,2.5-1.6A2.714,2.714,0,0,1-6.6-61a1.755,1.755,0,0,1-1.1,2.2,2.2,2.2,0,0,1-.8.1c-.9-.1-1.8-1-2.7-1.5a4.052,4.052,0,0,0,0-1.1" fill="#fff"/>
        <path id="Path_5387" d="M-52.7,36.9c.8-.7,1.6-1.9,2.4-1.8A1.98,1.98,0,0,1-48.1,37a2.017,2.017,0,0,1-1.8,2.2c-.8.2-1.8-.8-2.7-1.3,0-.3-.1-.7-.1-1" fill="#fff"/>
        <path id="Path_5388" d="M-49.3-54.8c.6.8,1.6,1.6,1.8,2.5a1.876,1.876,0,0,1-1.3,2.2,1.1,1.1,0,0,1-.8,0A2.889,2.889,0,0,1-51.7-52c-.1-.8.8-1.8,1.3-2.7l1.1-.1" fill="#fff"/>
        <path id="Path_5389" d="M-45.9-52.8a7.935,7.935,0,0,1,2.5-1.7,1.741,1.741,0,0,1,2.1,1.2,1.388,1.388,0,0,1,0,.9,3.217,3.217,0,0,1-2,2.1c-.8.1-1.8-.9-2.7-1.4l.1-1.1" fill="#fff"/>
        <path id="Path_5390" d="M34.3-57.7c.8-.6,1.7-1.8,2.4-1.7.8.1,1.6,1.2,2.4,1.9-.7.8-1.3,2.1-2.1,2.3-.8.1-1.8-.9-2.6-1.4l-.1-1.1" fill="#fff"/>
        <path id="Path_5391" d="M-28.9,82.7c.8-.6,1.7-1.8,2.5-1.7a3.39,3.39,0,0,1,2.2,2,2.972,2.972,0,0,1-2,2.2c-.7.1-1.7-.9-2.6-1.5l-.1-1" fill="#fff"/>
        <path id="Path_5392" d="M27.6,69.4c.7.8,1.8,1.5,1.9,2.4a3.074,3.074,0,0,1-1.7,2.3,1.721,1.721,0,0,1-2.3-.9,1.128,1.128,0,0,1-.1-.8c0-.9.8-1.9,1.3-2.8l.9-.2" fill="#fff"/>
        <path id="Path_5393" d="M20.9,29.3c-.6-.8-1.7-1.6-1.7-2.5A3.1,3.1,0,0,1,21,24.6a1.857,1.857,0,0,1,2.3,1,2.485,2.485,0,0,1,.1.8A8.732,8.732,0,0,1,22,29.1l-1.1.2" fill="#fff"/>
        <path id="Path_5394" d="M-47.8,32.2c.8-.6,1.6-1.7,2.4-1.7a2.883,2.883,0,0,1,2.2,1.8,1.767,1.767,0,0,1-1,2.3,2.2,2.2,0,0,1-.8.1c-.9,0-1.8-.9-2.8-1.3V32.2" fill="#fff"/>
        <path id="Path_5395" d="M-25.6,27.4c.6.8,1.7,1.6,1.7,2.4A2.883,2.883,0,0,1-25.7,32,1.857,1.857,0,0,1-28,31a2.2,2.2,0,0,1-.1-.8c0-.9.9-1.8,1.3-2.7Z" fill="#fff"/>
        <path id="Path_5396" d="M51.6-41.6c-.6-.8-1.7-1.6-1.7-2.5a3.1,3.1,0,0,1,1.8-2.2,1.755,1.755,0,0,1,2.2,1.1,2.2,2.2,0,0,1,.1.8,8.732,8.732,0,0,1-1.4,2.7l-1,.1" fill="#fff"/>
        <path id="Path_5397" d="M1.2-37.2c.6.8,1.7,1.6,1.8,2.4a3.331,3.331,0,0,1-1.7,2.3,1.733,1.733,0,0,1-2.3-1,1.949,1.949,0,0,1-.1-.8c0-.9.8-1.8,1.3-2.8l1-.1" fill="#fff"/>
        <path id="Path_5398" d="M-38.1,107.2c.8-.6,1.7-1.7,2.5-1.7a3.1,3.1,0,0,1,2.2,1.8,1.7,1.7,0,0,1-1,2.2,2.769,2.769,0,0,1-.9.1,8.732,8.732,0,0,1-2.7-1.4c0-.3-.1-.6-.1-1" fill="#fff"/>
        <path id="Path_5399" d="M-28.8-29.6c.6.8,1.6,1.6,1.8,2.5a1.812,1.812,0,0,1-1.2,2.2,1.1,1.1,0,0,1-.8,0,2.714,2.714,0,0,1-2.1-1.9c-.1-.8.8-1.8,1.3-2.7l1-.1" fill="#fff"/>
        <path id="Path_5400" d="M-6-30.4c.6.8,1.7,1.7,1.6,2.5s-1.3,1.6-2,2.3c-.8-.7-2-1.4-2.2-2.2-.1-.8,1-1.7,1.5-2.6H-6" fill="#fff"/>
        <path id="Path_5401" d="M48.5,99.7c.8-.6,1.7-1.7,2.5-1.6a3.155,3.155,0,0,1,2.1,2.1c.1.5-1.1,1.8-1.9,2-1.3.4-2.1-.5-2.7-2.5" fill="#fff"/>
        <path id="Path_5402" d="M-1.3,107.7c-.7-.8-1.9-1.6-1.9-2.3a3.157,3.157,0,0,1,1.9-2.3c.5-.2,2,1,2.1,1.7.2.8-.7,1.8-1.1,2.8l-1,.1" fill="#fff"/>
        <path id="Path_5403" d="M38.1-31.5c.6.8,1.7,1.6,1.7,2.4s-1.2,2.2-1.7,2.2a3.65,3.65,0,0,1-2.4-1.8c-.2-.7.8-1.8,1.3-2.7l1.1-.1" fill="#fff"/>
        <path id="Path_5404" d="M-29.1,23.7c.8-.7,1.5-1.9,2.3-1.9a3.367,3.367,0,0,1,2.4,1.8,1.7,1.7,0,0,1-1,2.2,1.345,1.345,0,0,1-.8.2c-.9,0-1.8-.8-2.7-1.2a4.253,4.253,0,0,1-.2-1.1" fill="#fff"/>
        <path id="Path_5405" d="M-46.6,27.7a8.37,8.37,0,0,1-1.9-2.4,1.755,1.755,0,0,1,1.1-2.2,2.485,2.485,0,0,1,.8-.1,3.1,3.1,0,0,1,2.2,1.8c.2.8-.7,1.8-1.2,2.8l-1,.1" fill="#fff"/>
        <path id="Path_5406" d="M12.9,78.3c-.6-.8-1.6-1.5-1.9-2.5a1.812,1.812,0,0,1,1.2-2.2,1.1,1.1,0,0,1,.8,0,2.768,2.768,0,0,1,2.1,1.8c.1.8-.8,1.8-1.3,2.7l-.9.2" fill="#fff"/>
        <path id="Path_5407" d="M-27.6-14.9c.8-.6,1.6-1.7,2.4-1.7A2.971,2.971,0,0,1-23-14.9a1.767,1.767,0,0,1-1,2.3,2.2,2.2,0,0,1-.8.1c-.9,0-1.8-.8-2.8-1.3a4.052,4.052,0,0,0,0-1.1" fill="#fff"/>
        <path id="Path_5408" d="M-14.8-12.2c-.7-.8-1.9-1.6-1.8-2.4a3.291,3.291,0,0,1,2-2.3c.6-.1,2,1.1,2.1,1.8.1.8-.8,1.8-1.3,2.7l-1,.2" fill="#fff"/>
        <path id="Path_5409" d="M58.1-14.3a8.37,8.37,0,0,1-1.9-2.4,1.755,1.755,0,0,1,1.1-2.2,2.485,2.485,0,0,1,.8-.1,3.1,3.1,0,0,1,2.2,1.8c.1.8-.8,1.8-1.2,2.7l-1,.2" fill="#fff"/>
        <path id="Path_5410" d="M-10.4-9.9c.8-.7,1.6-1.9,2.3-1.9A3.157,3.157,0,0,1-5.8-9.9c.2.5-1,2-1.8,2.1-.8.2-1.8-.7-2.8-1.1v-1" fill="#fff"/>
        <path id="Path_5411" d="M43,73.8c.8-.7,1.6-1.9,2.4-1.9a3.291,3.291,0,0,1,2.3,2c.2.5-1,2-1.8,2.2s-1.8-.8-2.8-1.2L43,73.8" fill="#fff"/>
        <path id="Path_5412" d="M36.9,11.5c.8-.6,1.6-1.6,2.5-1.7a1.827,1.827,0,0,1,2.2,1.3,1.1,1.1,0,0,1,0,.8,3.018,3.018,0,0,1-2,2.1c-.8.1-1.8-.8-2.7-1.3V11.5" fill="#fff"/>
        <path id="Path_5413" d="M-55.2-5.7c.8-.6,1.6-1.6,2.5-1.8a1.752,1.752,0,0,1,2.2,1.3,1.1,1.1,0,0,1,0,.8,2.889,2.889,0,0,1-1.9,2.1c-.8.1-1.8-.8-2.7-1.3l-.1-1.1" fill="#fff"/>
        <path id="Path_5414" d="M30-12.5c.8-.7,1.5-1.7,2.4-1.9a1.755,1.755,0,0,1,2.2,1.1,2.485,2.485,0,0,1,.1.8,3.1,3.1,0,0,1-1.8,2.2c-.9.2-1.9-.7-2.8-1.2,0-.3-.1-.7-.1-1" fill="#fff"/>
        <path id="Path_5415" d="M-32.7,19.8c-.6-.8-1.6-1.6-1.8-2.5a1.732,1.732,0,0,1,1.2-2.2,1.387,1.387,0,0,1,.9,0A2.714,2.714,0,0,1-30.3,17c.1.8-.8,1.8-1.3,2.7l-1.1.1" fill="#fff"/>
        <path id="Path_5416" d="M38.1-10.1c.8-.6,1.7-1.6,2.5-1.6s2.2,1.2,2.1,1.8a3.157,3.157,0,0,1-1.9,2.3c-.7.1-1.8-.9-2.7-1.4v-1.1" fill="#fff"/>
        <path id="Path_5417" d="M-22.5,3.8c-.6-.8-1.6-1.5-1.8-2.4A1.755,1.755,0,0,1-23.2-.8a2.2,2.2,0,0,1,.8-.1A3.1,3.1,0,0,1-20.2.9c.1.8-.8,1.8-1.2,2.7l-1.1.2" fill="#fff"/>
        <path id="Path_5418" d="M52.7-6.6c.6.8,1.7,1.6,1.7,2.4S53.2-2,52.7-2a3.65,3.65,0,0,1-2.4-1.8c-.2-.7.8-1.8,1.3-2.7l1.1-.1" fill="#fff"/>
        <path id="Path_5419" d="M-37.7,8.6c-.6-.8-1.7-1.6-1.8-2.4A2.883,2.883,0,0,1-37.7,4a1.767,1.767,0,0,1,2.3,1,2.485,2.485,0,0,1,.1.8c0,.9-.9,1.8-1.3,2.8Z" fill="#fff"/>
        <path id="Path_5420" d="M-54.2,9.2c.8-.6,1.6-1.7,2.4-1.8a2.971,2.971,0,0,1,2.2,1.7,1.767,1.767,0,0,1-1,2.3,2.2,2.2,0,0,1-.8.1c-.9,0-1.9-.9-2.8-1.3a3.334,3.334,0,0,0,0-1" fill="#fff"/>
        <path id="Path_5421" d="M21.2,5.7C22,5.1,22.8,4,23.6,4s2.3,1.1,2.2,1.7A3.028,3.028,0,0,1,24,8.1c-.7.2-1.8-.8-2.7-1.2a4.869,4.869,0,0,0-.1-1.2" fill="#fff"/>
        <path id="Path_5422" d="M-55.1,86c.8-.6,1.6-1.8,2.4-1.7.8,0,1.6,1.2,2.4,1.9-.7.8-1.3,2.1-2.1,2.3s-1.8-.9-2.7-1.4V86" fill="#fff"/>
        <path id="Path_5423" d="M-24.2,113.6c-.6-.8-1.7-1.6-1.8-2.4a2.883,2.883,0,0,1,1.8-2.2,1.733,1.733,0,0,1,2.3,1,1.949,1.949,0,0,1,.1.8c0,.9-.9,1.8-1.3,2.8h-1.1" fill="#fff"/>
        <path id="Path_5424" d="M26.5,109.1c-.6-.8-1.6-1.5-1.8-2.4a1.755,1.755,0,0,1,1.1-2.2,2.769,2.769,0,0,1,.9-.1,3.1,3.1,0,0,1,2.2,1.8c.1.8-.8,1.8-1.3,2.8l-1.1.1" fill="#fff"/>
        <path id="Path_5425" d="M-19.5,6c.8-.6,1.7-1.6,2.5-1.6a2.714,2.714,0,0,1,2.1,1.9A1.755,1.755,0,0,1-16,8.5a2.2,2.2,0,0,1-.8.1c-.9-.1-1.8-1-2.7-1.5a2.054,2.054,0,0,0,0-1.1" fill="#fff"/>
        <path id="Path_5426" d="M-47.4,8c.8-.6,1.6-1.8,2.4-1.8.8.1,1.6,1.2,2.4,1.9-.7.8-1.2,2.1-2.1,2.3-.7.2-1.8-.8-2.6-1.3L-47.4,8" fill="#fff"/>
        <path id="Path_5427" d="M.3,76.6c.3-.1.7-.5,1-.4.9.3,2.1.4,2.5,1.1A2.085,2.085,0,0,1,3,80.1a2.56,2.56,0,0,1-2.1,0,5.082,5.082,0,0,1-1-2.6,2.471,2.471,0,0,1,.4-.9h0" fill="#fff"/>
        <path id="Path_5428" d="M42-2c.6.8,1.7,1.6,1.7,2.4A2.971,2.971,0,0,1,42,2.6a1.767,1.767,0,0,1-2.3-1,2.2,2.2,0,0,1-.1-.8c0-.9.9-1.8,1.4-2.8h1" fill="#fff"/>
        <path id="Path_5429" d="M30.6.4c.8-.6,1.7-1.7,2.5-1.7S35.3-.1,35.2.5a3.157,3.157,0,0,1-1.9,2.3c-.7.2-1.8-.8-2.7-1.3V.4" fill="#fff"/>
        <path id="Path_5430" d="M-27.8,8.8c.6.8,1.8,1.7,1.7,2.5a3.521,3.521,0,0,1-2.1,2.2c-.5.1-1.9-1.1-2-1.9s.9-1.8,1.4-2.7l1-.1" fill="#fff"/>
        <path id="Path_5431" d="M-7.8,78.2c.8-.6,1.6-1.6,2.5-1.8a1.812,1.812,0,0,1,2.2,1.2,1.1,1.1,0,0,1,0,.8A2.714,2.714,0,0,1-5,80.5c-.8.1-1.8-.8-2.7-1.3l-.1-1" fill="#fff"/>
        <path id="Path_5432" d="M.3-1.2C.9-.4,2.1.4,2,1.2S.8,2.8.1,3.6c-.8-.7-2-1.3-2.2-2.1C-2.2.7-1.2-.2-.7-1.1l1-.1" fill="#fff"/>
        <path id="Path_5433" d="M-20.8,76.4c.7.8,1.9,1.5,1.9,2.3s-1.1,1.7-1.8,2.5c-.8-.6-2.1-1.2-2.3-2-.2-.7.7-1.8,1.2-2.7l1-.1" fill="#fff"/>
        <path id="Path_5434" d="M-4.9,10.9c.8-.7,1.5-1.7,2.4-1.9A1.732,1.732,0,0,1-.3,10.2a2.2,2.2,0,0,1,.1.8A3.1,3.1,0,0,1-2,13.2c-.8.1-1.8-.7-2.7-1.2l-.2-1.1" fill="#fff"/>
        <path id="Path_5435" d="M40.1,6.6c.8-.6,1.6-1.7,2.5-1.8a3.1,3.1,0,0,1,2.2,1.8,1.767,1.767,0,0,1-1,2.3A2.2,2.2,0,0,1,43,9c-.9,0-1.8-.9-2.7-1.4a1.645,1.645,0,0,1-.2-1" fill="#fff"/>
        <path id="Path_5436" d="M18.7.2A7.935,7.935,0,0,1,17-2.3a1.724,1.724,0,0,1,1.3-2.1,1.1,1.1,0,0,1,.8,0,3.217,3.217,0,0,1,2.1,2c.1.8-.9,1.8-1.4,2.7L18.7.2" fill="#fff"/>
        <path id="Path_5437" d="M32.6-4.8c.9-.6,1.7-1.6,2.6-1.6a2.714,2.714,0,0,1,2.1,1.9,1.732,1.732,0,0,1-1.2,2.2,2.2,2.2,0,0,1-.8.1c-.9-.1-1.8-1-2.7-1.5,0-.4,0-.7,0-1.1" fill="#fff"/>
        <path id="Path_5438" d="M-13.3,80.6a7.935,7.935,0,0,1,2.5-1.7c1.3-.3,2.2.6,2.2,2s-.7,2.4-2.1,2.2c-.9-.1-1.8-1-2.6-1.5v-1" fill="#fff"/>
        <path id="Path_5439" d="M50.5,69.3a7.323,7.323,0,0,1,1.7,2.6A1.724,1.724,0,0,1,50.9,74a1.388,1.388,0,0,1-.9,0,3.217,3.217,0,0,1-2.1-2c-.1-.8.9-1.8,1.4-2.7h1.2" fill="#fff"/>
        <path id="Path_5440" d="M-47.6-2c.7.8,1.9,1.5,1.9,2.3S-46.8,2-47.5,2.8c-.8-.6-2.1-1.1-2.3-1.9-.2-.7.7-1.8,1.2-2.7Z" fill="#fff"/>
        <path id="Path_5441" d="M-29.6-.1a7.323,7.323,0,0,1-1.7-2.6A1.724,1.724,0,0,1-30-4.8a1.388,1.388,0,0,1,.9,0A3.313,3.313,0,0,1-27-2.9c.1.8-.9,1.8-1.4,2.7l-1.2.1" fill="#fff"/>
        <path id="Path_5442" d="M-54.3,19.9c-.6-.8-1.8-1.7-1.8-2.4a3.165,3.165,0,0,1,2-2.2c.6-.1,2,1.1,2.1,1.8.1.8-.8,1.8-1.3,2.7l-1,.1" fill="#fff"/>
        <path id="Path_5443" d="M9.7,14.7c-.6-.8-1.8-1.6-1.8-2.4a3.165,3.165,0,0,1,2-2.2,1.755,1.755,0,0,1,2.2,1.1,2.2,2.2,0,0,1,.1.8,8.732,8.732,0,0,1-1.4,2.7H9.7" fill="#fff"/>
        <path id="Path_5444" d="M34,72.5c.8-.6,1.7-1.8,2.4-1.7.8,0,1.6,1.2,2.4,1.9-.7.8-1.3,2-2.1,2.2-.7.2-1.7-.9-2.6-1.4,0-.3-.1-.6-.1-1" fill="#fff"/>
        <path id="Path_5445" d="M49.3,6.5c.6.9,1.7,1.7,1.6,2.5A3.01,3.01,0,0,1,49,11.2a1.755,1.755,0,0,1-2.2-1.1,2.2,2.2,0,0,1-.1-.8,8.732,8.732,0,0,1,1.4-2.7Z" fill="#fff"/>
        <path id="Path_5446" d="M15.3-6.5c-.7-.8-1.7-1.5-1.9-2.4a1.755,1.755,0,0,1,1.1-2.2,2.2,2.2,0,0,1,.8-.1,3.1,3.1,0,0,1,2.2,1.8c.2.8-.7,1.8-1.2,2.7l-1,.2" fill="#fff"/>
        <path id="Path_5447" d="M-23.7-6.5c.8-.7,1.6-1.9,2.4-1.8a3.165,3.165,0,0,1,2.2,2c.1.6-1.1,2-1.8,2.1-.8.2-1.8-.8-2.7-1.2a4.1,4.1,0,0,0-.1-1.1" fill="#fff"/>
        <path id="Path_5448" d="M-17.2,15c.8-.7,1.6-1.8,2.4-1.8s1.6,1.2,2.4,1.8c-.7.8-1.2,2.1-2,2.3s-1.8-.8-2.7-1.3c0-.3-.1-.6-.1-1" fill="#fff"/>
        <path id="Path_5449" d="M19.7,103.8c.6.8,1.7,1.6,1.8,2.4a3.331,3.331,0,0,1-1.7,2.3,1.767,1.767,0,0,1-2.3-1,2.2,2.2,0,0,1-.1-.8c0-.9.8-1.9,1.3-2.8l1-.1" fill="#fff"/>
        <path id="Path_5450" d="M47.5-13.8c-.6-.8-1.8-1.7-1.8-2.4a3.165,3.165,0,0,1,2-2.2c.5-.1,1.9,1,2.1,1.9.5,1.2-.4,2.1-2.3,2.7" fill="#fff"/>
        <path id="Path_5451" d="M-27.2,74.5c.8-.6,1.6-1.6,2.5-1.8a1.812,1.812,0,0,1,2.2,1.2,1.1,1.1,0,0,1,0,.8,2.714,2.714,0,0,1-1.9,2.1c-.8.1-1.8-.8-2.7-1.3a3.083,3.083,0,0,1-.1-1" fill="#fff"/>
        <path id="Path_5452" d="M51.3,66.6c.8-.6,1.7-1.7,2.5-1.7.8.1,1.6,1.2,2.4,1.9-.7.8-1.3,2-2.2,2.2-.8.1-1.7-.9-2.6-1.4Z" fill="#fff"/>
        <path id="Path_5453" d="M31.8,16.9c.8-.6,1.7-1.8,2.5-1.7a3.291,3.291,0,0,1,2.3,2,1.732,1.732,0,0,1-1.2,2.2,1.1,1.1,0,0,1-.8,0c-.9-.1-1.8-1-2.7-1.5l-.1-1" fill="#fff"/>
        <path id="Path_5454" d="M39.3-24.4c.8-.7,1.6-1.9,2.3-1.9a3.157,3.157,0,0,1,2.3,1.9c.2.5-1,2-1.7,2.2-.8.2-1.8-.7-2.8-1.1l-.1-1.1" fill="#fff"/>
        <path id="Path_5455" d="M-41.7,70.6c.7.8,1.8,1.5,1.9,2.4a3.331,3.331,0,0,1-1.7,2.3,1.721,1.721,0,0,1-2.3-.9,1.412,1.412,0,0,1-.1-.9c0-.9.8-1.9,1.2-2.8l1-.1" fill="#fff"/>
        <path id="Path_5456" d="M44.5,16a7.323,7.323,0,0,1,2.6-1.7,1.741,1.741,0,0,1,2.1,1.2,1.388,1.388,0,0,1,0,.9,3.217,3.217,0,0,1-2,2.1c-.8.1-1.8-.9-2.7-1.4,0-.4,0-.7,0-1.1" fill="#fff"/>
        <path id="Path_5457" d="M5,17.8c.6.8,1.6,1.6,1.8,2.5a1.724,1.724,0,0,1-1.3,2.1,1.1,1.1,0,0,1-.8,0,3.217,3.217,0,0,1-2.1-2c-.1-.8.9-1.8,1.4-2.7l1,.1" fill="#fff"/>
        <path id="Path_5458" d="M-23.9-21.9c.8-.6,1.6-1.8,2.4-1.8s1.6,1.2,2.4,1.9c-.7.8-1.3,2.1-2.1,2.3-.7.2-1.8-.9-2.6-1.4Z" fill="#fff"/>
        <path id="Path_5459" d="M-47.4-18.8a8.331,8.331,0,0,1-1.5.4,2.12,2.12,0,0,1-2.4-1.7v-.5a1.943,1.943,0,0,1,1.7-2.2h.7a2.094,2.094,0,0,1,2,2.1.9.9,0,0,1-.1.5,5.732,5.732,0,0,1-.4,1.4Z" fill="#fff"/>
        <path id="Path_5460" d="M-41.4-22.8c.8-.7,1.5-1.9,2.3-1.9s1.7,1.1,2.5,1.7c-.6.8-1.2,2.1-2,2.3s-1.8-.8-2.7-1.2a3.085,3.085,0,0,0-.1-.9" fill="#fff"/>
        <path id="Path_5461" d="M-38.8,28.4c-.6-.8-1.7-1.7-1.7-2.5s1.2-2.2,1.8-2.2a3.157,3.157,0,0,1,2.3,1.9c.2.7-.9,1.8-1.4,2.7l-1,.1" fill="#fff"/>
        <path id="Path_5462" d="M41.6,63.9c.8-.6,1.5-1.6,2.5-1.8a1.755,1.755,0,0,1,2.2,1.1,1.388,1.388,0,0,1,0,.9,3.1,3.1,0,0,1-1.8,2.2c-.8.1-1.8-.8-2.7-1.3a2.344,2.344,0,0,1-.2-1.1" fill="#fff"/>
        <path id="Path_5463" d="M37.1,67.6c-.7-.8-1.9-1.5-1.9-2.3A2.117,2.117,0,0,1,37,62.9a2.067,2.067,0,0,1,2.4,1.8c.2.7-.8,1.8-1.2,2.7l-1.1.2" fill="#fff"/>
        <path id="Path_5464" d="M-39.4,70.8c.8-.7,1.5-1.9,2.3-1.9s1.7,1.1,2.5,1.8c-.6.8-1.2,2.1-2,2.3s-1.8-.7-2.7-1.2a3.083,3.083,0,0,0-.1-1" fill="#fff"/>
        <path id="Path_5465" d="M-17.5-31.2c.6.8,1.7,1.6,1.7,2.5a3.1,3.1,0,0,1-1.8,2.2,1.82,1.82,0,0,1-2.3-1.1,2.2,2.2,0,0,1-.1-.8,8.732,8.732,0,0,1,1.4-2.7l1.1-.1" fill="#fff"/>
        <path id="Path_5466" d="M17.1,21.2c.8-.6,1.6-1.8,2.4-1.7.8,0,1.6,1.2,2.4,1.9-.7.8-1.3,2.1-2.1,2.2-.8.2-1.8-.9-2.7-1.4a1.7,1.7,0,0,0,0-1" fill="#fff"/>
        <path id="Path_5467" d="M-53.7,31.3c-.6-.8-1.6-1.6-1.8-2.5a1.732,1.732,0,0,1,1.2-2.2,1.1,1.1,0,0,1,.8,0,3.165,3.165,0,0,1,2.2,2c.1.8-.9,1.7-1.5,2.6l-.9.1" fill="#fff"/>
        <path id="Path_5468" d="M-43.8-28.8c.8-.6,1.6-1.6,2.5-1.8a1.752,1.752,0,0,1,2.2,1.3,1.1,1.1,0,0,1,0,.8A2.714,2.714,0,0,1-41-26.4c-.8.1-1.8-.8-2.7-1.3l-.1-1.1" fill="#fff"/>
        <path id="Path_5469" d="M-25.5,68.7c.8-.7,1.6-1.9,2.4-1.8a3.157,3.157,0,0,1,2.3,1.9A1.755,1.755,0,0,1-21.9,71a2.2,2.2,0,0,1-.8.1c-.9,0-1.8-.9-2.7-1.4Z" fill="#fff"/>
        <path id="Path_5470" d="M-33.2,30.4c-.7-.8-1.8-1.5-1.9-2.4a3.137,3.137,0,0,1,1.7-2.3,1.721,1.721,0,0,1,2.3.9,1.128,1.128,0,0,1,.1.8c0,.9-.8,1.9-1.3,2.8l-.9.2" fill="#fff"/>
        <path id="Path_5471" d="M52.5,20.3a7.323,7.323,0,0,1,2.6-1.7,1.741,1.741,0,0,1,2.1,1.2,1.388,1.388,0,0,1,0,.9,3.217,3.217,0,0,1-2,2.1c-.8.1-1.8-.9-2.7-1.4V20.3" fill="#fff"/>
        <path id="Path_5472" d="M9.5,87.3c-.6-.8-1.7-1.7-1.6-2.5a3.01,3.01,0,0,1,1.9-2.2A1.755,1.755,0,0,1,12,83.7v.8a8.732,8.732,0,0,1-1.4,2.7l-1.1.1" fill="#fff"/>
        <path id="Path_5473" d="M8,66.5c-.7-.8-1.9-1.6-1.8-2.4a3.291,3.291,0,0,1,2-2.3c.5-.2,2,1,2.1,1.8s-.8,1.8-1.2,2.8L8,66.5" fill="#fff"/>
        <path id="Path_5474" d="M-27.2-36.1c-.7-.8-1.9-1.6-1.8-2.4a3.391,3.391,0,0,1,1.9-2.3c.5-.2,2,1,2.1,1.8.2.8-.7,1.8-1.2,2.7l-1,.2" fill="#fff"/>
        <path id="Path_5475" d="M-54.1-40.5c.6.8,1.7,1.6,1.7,2.5,0,.8-1.2,2.2-1.7,2.2a3.65,3.65,0,0,1-2.4-1.8c-.2-.8.8-1.8,1.3-2.7l1.1-.2" fill="#fff"/>
        <path id="Path_5476" d="M10.4,24.1c.6.8,1.6,1.5,1.8,2.4A1.812,1.812,0,0,1,11,28.7a1.1,1.1,0,0,1-.8,0A3.01,3.01,0,0,1,8,26.8c-.1-.8.8-1.8,1.2-2.7h1.2" fill="#fff"/>
        <path id="Path_5477" d="M34.7-43.4c-.6-.8-1.6-1.5-1.8-2.5a1.732,1.732,0,0,1,1.2-2.2,1.1,1.1,0,0,1,.8,0A2.768,2.768,0,0,1,37-46.3c.1.8-.8,1.8-1.2,2.7l-1.1.2" fill="#fff"/>
        <path id="Path_5478" d="M4.6-44.1C4-44.9,2.9-45.8,3-46.6s1.3-1.6,2-2.3c.8.7,2,1.3,2.2,2.2.1.8-.9,1.7-1.5,2.6H4.6" fill="#fff"/>
        <path id="Path_5479" d="M-42.2,64.9c.6.8,1.7,1.7,1.7,2.5a2.768,2.768,0,0,1-1.8,2.1,1.755,1.755,0,0,1-2.2-1.1,2.2,2.2,0,0,1-.1-.8,7.333,7.333,0,0,1,1.5-2.7h.9" fill="#fff"/>
        <path id="Path_5480" d="M3.8,32.6c-.7-.8-1.9-1.6-1.9-2.3A2.114,2.114,0,0,1,3.7,28,2.114,2.114,0,0,1,6,29.8H6c.2.7-.8,1.8-1.3,2.7l-.9.1" fill="#fff"/>
        <path id="Path_5481" d="M58.4,59.3c-.6-.8-1.7-1.7-1.6-2.5,0-.8,1.2-2.2,1.8-2.1a3.157,3.157,0,0,1,2.3,1.9c.2.8-.9,1.8-1.4,2.7H58.4" fill="#fff"/>
        <path id="Path_5482" d="M10.2-50.5c.8-.6,1.6-1.7,2.4-1.8a2.971,2.971,0,0,1,2.2,1.7,1.767,1.767,0,0,1-1,2.3,2.2,2.2,0,0,1-.8.1c-.9,0-1.8-.9-2.8-1.3a1.7,1.7,0,0,0,0-1" fill="#fff"/>
        <path id="Path_5483" d="M-24.3-49.6c.6.8,1.6,1.5,1.8,2.4A1.732,1.732,0,0,1-23.7-45a2.2,2.2,0,0,1-.8.1,3.01,3.01,0,0,1-2.2-1.9c-.2-.8.8-1.8,1.2-2.7Z" fill="#fff"/>
        <path id="Path_5484" d="M53.2,59.8c-.6-.8-1.6-1.5-1.9-2.4a1.755,1.755,0,0,1,1.1-2.2,2.2,2.2,0,0,1,.8-.1A3.157,3.157,0,0,1,55.5,57c.2.8-.9,1.8-1.4,2.7l-.9.1" fill="#fff"/>
        <path id="Path_5485" d="M44.5,56.9c.8-.7,1.6-1.9,2.4-1.9a3.157,3.157,0,0,1,2.3,1.9,1.7,1.7,0,0,1-1,2.2,2.2,2.2,0,0,1-.8.1c-.9,0-1.8-.9-2.7-1.4l-.2-.9" fill="#fff"/>
        <path id="Path_5486" d="M29.5,26.8c.6.9,1.5,1.6,1.7,2.6a1.8,1.8,0,0,1-1.3,2.1,1.1,1.1,0,0,1-.8,0,3.217,3.217,0,0,1-2.1-2c-.1-.9.9-1.8,1.5-2.7h1" fill="#fff"/>
        <path id="Path_5487" d="M25.8-56.1c-.6-.8-1.7-1.6-1.7-2.5,0-.7,1.2-2.2,1.8-2.1a3.65,3.65,0,0,1,2.4,1.8c.2.8-.9,1.8-1.4,2.7l-1.1.1" fill="#fff"/>
        <path id="Path_5488" d="M-33.1-52.6c-.6-.8-1.6-1.5-1.8-2.5a1.812,1.812,0,0,1,1.2-2.2,1.1,1.1,0,0,1,.8,0,2.714,2.714,0,0,1,2.1,1.9c.1.8-.8,1.8-1.3,2.7l-1,.1" fill="#fff"/>
        <path id="Path_5489" d="M37.2,27c.7.8,1.9,1.6,1.9,2.3,0,.8-1.1,1.7-1.8,2.5-.8-.6-2.1-1.2-2.3-2s.8-1.8,1.2-2.7l1-.1" fill="#fff"/>
        <path id="Path_5490" d="M55,27.8c.8-.6,1.7-1.8,2.5-1.7a3.1,3.1,0,0,1,2.2,2.1c.1.5-1.1,1.9-1.9,2.1-.8.1-1.8-.8-2.7-1.3L55,27.8" fill="#fff"/>
        <path id="Path_5491" d="M24.8,82.8c.2.3.7.5.7.8.1.9.3,2.1-.2,2.8a1.97,1.97,0,0,1-2.9.1,2.28,2.28,0,0,1-.7-1.9c.2-.8,1.3-1.3,2.1-1.8a3.333,3.333,0,0,1,1,0h0" fill="#fff"/>
        <path id="Path_5492" d="M16.5,34.6a9.639,9.639,0,0,1-1.9-2.3,1.7,1.7,0,0,1,1-2.2,2.2,2.2,0,0,1,.8-.1,3.65,3.65,0,0,1,2.4,1.8c.2.8-.8,1.8-1.3,2.7Z" fill="#fff"/>
        <path id="Path_5493" d="M5-60.5c-.6-.8-1.7-1.7-1.6-2.5s1.2-1.6,1.9-2.3c.8.7,2,1.3,2.2,2.2.1.8-.9,1.7-1.5,2.6H5" fill="#fff"/>
        <path id="Path_5494" d="M-26.6,36.8c.8-.7,1.5-1.7,2.4-1.9A1.732,1.732,0,0,1-22,36.1a2.2,2.2,0,0,1,.1.8,3.1,3.1,0,0,1-1.8,2.2c-.8.1-1.8-.8-2.7-1.2a5.16,5.16,0,0,1-.2-1.1" fill="#fff"/>
        <path id="Path_5495" d="M-.3,98.5c.8-.7,1.5-1.8,2.4-1.9a3.137,3.137,0,0,1,2.3,1.7,1.766,1.766,0,0,1-.8,2.3,2.92,2.92,0,0,1-.9.2c-.9,0-1.9-.8-2.8-1.2l-.2-1.1" fill="#fff"/>
        <path id="Path_5496" d="M14.3-65.5c.8-.6,1.6-1.7,2.4-1.8a2.883,2.883,0,0,1,2.2,1.8,1.721,1.721,0,0,1-.9,2.3,1.412,1.412,0,0,1-.9.1c-.9-.1-1.8-.9-2.8-1.3a2.054,2.054,0,0,0,0-1.1" fill="#fff"/>
        <path id="Path_5497" d="M-51.5,62c.8-.6,1.7-1.8,2.4-1.7a3.165,3.165,0,0,1,2.2,2,2.972,2.972,0,0,1-2,2.2c-.7.1-1.7-.9-2.6-1.4V62" fill="#fff"/>
        <path id="Path_5498" d="M19,95.8c.8-.6,1.7-1.8,2.4-1.7a2.1,2.1,0,1,1,.2,4.2c-.8.1-1.7-.9-2.6-1.4V95.8" fill="#fff"/>
        <path id="Path_5499" d="M40.8-72.9c.6.8,1.7,1.6,1.7,2.5a3.1,3.1,0,0,1-1.8,2.2,1.857,1.857,0,0,1-2.3-1,2.2,2.2,0,0,1-.1-.8,8.732,8.732,0,0,1,1.4-2.7l1.1-.2" fill="#fff"/>
        <path id="Path_5500" d="M-4.1,38.1c-.6-.8-1.6-1.5-1.9-2.4a1.7,1.7,0,0,1,1-2.2,2.2,2.2,0,0,1,.8-.1,3.157,3.157,0,0,1,2.3,1.9c.2.8-.8,1.8-1.3,2.7l-.9.1" fill="#fff"/>
        <path id="Path_5501" d="M-43.3,91.9c.8-.7,1.5-1.7,2.4-1.9a1.725,1.725,0,0,1,2.2,1.2,1.949,1.949,0,0,1,.1.8,3.1,3.1,0,0,1-1.8,2.2c-.8.1-1.8-.8-2.7-1.2l-.2-1.1" fill="#fff"/>
        <path id="Path_5502" d="M-56.1,41.4c.8-.6,1.7-1.8,2.5-1.7s1.6,1.3,2.4,2c-.7.8-1.3,2-2.1,2.2-.8.1-1.7-.9-2.6-1.4a2.557,2.557,0,0,1-.2-1.1" fill="#fff"/>
        <path id="Path_5503" d="M-21.1,102.8c-.7-.8-1.9-1.5-1.9-2.3a2.12,2.12,0,0,1,1.7-2.4,2.12,2.12,0,0,1,2.4,1.7v.1c.2.7-.8,1.8-1.2,2.7l-1,.2" fill="#fff"/>
        <path id="Path_5504" d="M44.9,33.3c.8-.6,1.7-1.6,2.5-1.6s2.2,1.3,2.1,1.8a3.157,3.157,0,0,1-1.9,2.3c-.7.2-1.7-.9-2.6-1.4a3.75,3.75,0,0,0-.1-1.1" fill="#fff"/>
        <path id="Path_5505" d="M-28.9-124.7c-.6-.8-1.7-1.6-1.7-2.4s1.1-2.2,1.7-2.2a3.65,3.65,0,0,1,2.4,1.8c.2.7-.8,1.8-1.3,2.7l-1.1.1" fill="#fff"/>
        <path id="Path_5506" d="M44.7-134.1c.8-.7,1.5-1.7,2.4-1.9a1.755,1.755,0,0,1,2.2,1.1,2.485,2.485,0,0,1,.1.8,3.1,3.1,0,0,1-1.8,2.2c-.8.1-1.8-.8-2.8-1.2,0-.3-.1-.6-.1-1" fill="#fff"/>
        <path id="Path_5507" d="M-30.1-76c.8-.6,1.6-1.7,2.5-1.7a3.1,3.1,0,0,1,2.2,1.8,1.82,1.82,0,0,1-1.1,2.3,2.2,2.2,0,0,1-.8.1A8.732,8.732,0,0,1-30-74.9a4.485,4.485,0,0,1-.1-1.1" fill="#fff"/>
        <path id="Path_5508" d="M42.4-84c.8-.6,1.6-1.7,2.5-1.8A2.883,2.883,0,0,1,47.1-84a1.767,1.767,0,0,1-1,2.3,2.2,2.2,0,0,1-.8.1c-.9,0-1.8-.9-2.8-1.4a3.752,3.752,0,0,0-.1-1" fill="#fff"/>
        <path id="Path_5509" d="M-23.5,40.9c.8-.6,1.7-1.6,2.5-1.6a2.987,2.987,0,0,1,2.1,1.8,3.157,3.157,0,0,1-1.9,2.3c-.8.1-1.7-.9-2.6-1.5a3.083,3.083,0,0,1-.1-1" fill="#fff"/>
        <path id="Path_5510" d="M1.6,49.3c.8-.6,1.6-1.6,2.5-1.8a1.812,1.812,0,0,1,2.2,1.2,1.1,1.1,0,0,1,0,.8,2.714,2.714,0,0,1-1.9,2.1c-.8.1-1.8-.8-2.7-1.3a3.751,3.751,0,0,0-.1-1" fill="#fff"/>
        <path id="Path_5511" d="M-32.8,52c.8-.6,1.6-1.8,2.4-1.7s2.2,1.2,2.2,1.9a2.849,2.849,0,0,1-1.9,2.2c-.7.2-1.7-.9-2.6-1.4a3.083,3.083,0,0,1-.1-1" fill="#fff"/>
        <path id="Path_5512" d="M-32.4-109c.8-.6,1.7-1.7,2.5-1.7a3.01,3.01,0,0,1,2.2,1.9,1.732,1.732,0,0,1-1.2,2.2,2.2,2.2,0,0,1-.8.1c-.9-.1-1.8-1-2.7-1.5v-1" fill="#fff"/>
        <path id="Path_5513" d="M21.8,89.9c.8-.7,1.5-1.9,2.3-1.9s1.7,1.1,2.5,1.7c-.6.8-1.1,2.1-1.9,2.3-.7.2-1.8-.7-2.7-1.2l-.2-.9" fill="#fff"/>
        <path id="Path_5514" d="M15.3-94.1c.6.8,1.7,1.6,1.7,2.5a3.1,3.1,0,0,1-1.8,2.2,1.857,1.857,0,0,1-2.3-1,2.2,2.2,0,0,1-.1-.8,8.732,8.732,0,0,1,1.4-2.7Z" fill="#fff"/>
        <path id="Path_5515" d="M55.4,87c.8-.6,1.6-1.7,2.4-1.8A2.883,2.883,0,0,1,60,87a1.782,1.782,0,0,1-1.1,2.3,1.949,1.949,0,0,1-.8.1c-.9,0-1.8-.9-2.7-1.4V87" fill="#fff"/>
        <path id="Path_5516" d="M-11.7-103.9c.8-.6,1.6-1.7,2.5-1.8A1.812,1.812,0,0,1-7-104.5a1.1,1.1,0,0,1,0,.8,2.714,2.714,0,0,1-1.9,2.1c-.8.1-1.8-.8-2.7-1.3l-.1-1" fill="#fff"/>
        <path id="Path_5517" d="M41.5-100.3c.8-.7,1.6-1.8,2.4-1.8a3.074,3.074,0,0,1,2.3,1.7,1.721,1.721,0,0,1-.9,2.3,1.412,1.412,0,0,1-.9.1c-.9,0-1.9-.8-2.8-1.3,0-.3-.1-.6-.1-1" fill="#fff"/>
        <path id="Path_5518" d="M-19.2-95.5c.8-.7,1.6-1.9,2.4-1.8a3.391,3.391,0,0,1,2.3,1.9c.2.6-1,2-1.8,2.2s-1.8-.8-2.7-1.2l-.2-1.1" fill="#fff"/>
        <path id="Path_5519" d="M-5.7,48.4c-.7-.8-1.8-1.6-1.8-2.4a3.331,3.331,0,0,1,1.7-2.3,1.721,1.721,0,0,1,2.3.9,1.412,1.412,0,0,1,.1.9c0,.9-.8,1.9-1.3,2.8l-1,.1" fill="#fff"/>
        <path id="Path_5520" d="M15.6,47c-.6-.8-1.8-1.7-1.7-2.4a3.37,3.37,0,0,1,2-2.2,1.732,1.732,0,0,1,2.2,1.2,2.2,2.2,0,0,1,.1.8c-.1.9-1,1.8-1.5,2.6H15.6" fill="#fff"/>
        <path id="Path_5521" d="M32.2,104.8c-.6-.8-1.7-1.6-1.7-2.5,0-.8,1.2-2.2,1.7-2.2a3.505,3.505,0,0,1,2.4,1.9c.2.7-.9,1.8-1.4,2.7l-1,.1" fill="#fff"/>
        <path id="Path_5522" d="M-48.2,50.6c.8-.7,1.6-1.9,2.4-1.8a3.291,3.291,0,0,1,2.3,2c.2.5-1,2-1.8,2.1s-1.8-.8-2.7-1.2l-.2-1.1" fill="#fff"/>
        <path id="Path_5523" d="M-40.3-95.7c-.6-.8-1.8-1.6-1.8-2.4a2.117,2.117,0,0,1,1.9-2.3,2.061,2.061,0,0,1,2.3,1.9v.1c.2.7-.9,1.8-1.4,2.6l-1,.1" fill="#fff"/>
        <path id="Path_5524" d="M43.6,88.9c.8-.6,1.6-1.7,2.4-1.7A3.1,3.1,0,0,1,48.2,89a1.857,1.857,0,0,1-1,2.3,2.2,2.2,0,0,1-.8.1c-.9,0-1.8-.9-2.7-1.4a3.749,3.749,0,0,0-.1-1.1" fill="#fff"/>
        <path id="Path_5525" d="M-11.5,24.9c-.7-.8-1.7-1.5-1.9-2.4a1.755,1.755,0,0,1,1.1-2.2,2.485,2.485,0,0,1,.8-.1A3.1,3.1,0,0,1-9.3,22c.1.8-.8,1.8-1.3,2.8l-.9.1" fill="#fff"/>
        <path id="Path_5526" d="M55.2-111c.8-.7,1.6-1.8,2.4-1.8a3.157,3.157,0,0,1,2.3,1.9,1.755,1.755,0,0,1-1.1,2.2,2.2,2.2,0,0,1-.8.1,8.732,8.732,0,0,1-2.7-1.4l-.1-1" fill="#fff"/>
        <path id="Path_5527" d="M28.3-111.1c.6.8,1.9,1.6,1.8,2.4a3.291,3.291,0,0,1-2,2.3c-.5.2-2-1.1-2.1-1.8-.1-.8.8-1.8,1.2-2.7l1.1-.2" fill="#fff"/>
        <path id="Path_5528" d="M-11.5,4.6C-10.6,4-9.8,2.9-9,2.9A3.1,3.1,0,0,1-6.8,4.7,1.82,1.82,0,0,1-7.9,7c-.2,0-.5.1-.7,0a8.732,8.732,0,0,1-2.7-1.4c-.1-.3-.1-.7-.2-1" fill="#fff"/>
        <path id="Path_5529" d="M-37.2-85.5c.8-.7,1.5-1.8,2.4-1.9a3.331,3.331,0,0,1,2.3,1.7,1.721,1.721,0,0,1-.9,2.3,1.128,1.128,0,0,1-.8.1c-.9,0-1.9-.8-2.8-1.3-.1-.3-.1-.6-.2-.9" fill="#fff"/>
        <path id="Path_5530" d="M2.6,38.9c.8-.6,1.6-1.6,2.5-1.8a1.876,1.876,0,0,1,2.2,1.3,1.1,1.1,0,0,1,0,.8,3.092,3.092,0,0,1-1.9,2.1c-.8.1-1.8-.9-2.7-1.4l-.1-1" fill="#fff"/>
        <path id="Path_5531" d="M-28.7,96.5c-.6-.8-1.6-1.6-1.8-2.5a1.724,1.724,0,0,1,1.3-2.1,1.1,1.1,0,0,1,.8,0,3.092,3.092,0,0,1,2.1,1.9c.1.8-.9,1.8-1.4,2.7h-1" fill="#fff"/>
        <path id="Path_5532" d="M52.9,5.5c.8-.7,1.5-1.7,2.4-1.9a1.732,1.732,0,0,1,2.2,1.2,2.2,2.2,0,0,1,.1.8,3.1,3.1,0,0,1-1.8,2.2c-.9.1-1.9-.8-2.8-1.3a3.4,3.4,0,0,1-.1-1" fill="#fff"/>
        <path id="Path_5533" d="M7.8-.9c.8-.6,1.7-1.7,2.5-1.6s2.1,1.3,2.1,2a2.972,2.972,0,0,1-2,2.2C9.6,1.8,8.7.7,7.8.2a2.045,2.045,0,0,0,0-1.1" fill="#fff"/>
        <path id="Path_5534" d="M-2.2-110.5c-.7-.8-1.9-1.6-1.8-2.4a3.291,3.291,0,0,1,2-2.3c.5-.2,2,1.1,2.1,1.8.1.8-.8,1.8-1.2,2.7l-1.1.2" fill="#fff"/>
        <path id="Path_5535" d="M9.3-19.9c-.6-.8-1.7-1.7-1.7-2.5a2.714,2.714,0,0,1,1.9-2.1,1.755,1.755,0,0,1,2.2,1.1,2.2,2.2,0,0,1,.1.8c-.1.9-1,1.8-1.5,2.7h-1" fill="#fff"/>
        <path id="Path_5536" d="M-45.2-112.3c.9-.6,1.8-1.7,2.6-1.6a3.155,3.155,0,0,1,2.1,2.1,1.724,1.724,0,0,1-1.3,2.1,1.1,1.1,0,0,1-.8,0c-.9-.1-1.7-1.1-2.6-1.7v-.9" fill="#fff"/>
        <path id="Path_5537" d="M-47.5-18.7c1.1.1,2.3,0,3.1.5a2.685,2.685,0,0,1,.1,2.5,2.737,2.737,0,0,1-2.2.9c-1.7-.2-2.1-2-1-3.9h0" fill="#fff"/>
        <path id="Path_5538" d="M25.9,102.8c-.8.6-1.6,1.7-2.5,1.8a2.883,2.883,0,0,1-2.2-1.8,1.767,1.767,0,0,1,1-2.3,2.2,2.2,0,0,1,.8-.1c.9,0,1.8.9,2.8,1.4l.1,1" fill="#fff"/>
        <path id="Path_5539" d="M-7.4-79.2c-.6-.8-1.7-1.6-1.9-2.5A1.876,1.876,0,0,1-8-83.9a1.1,1.1,0,0,1,.8,0A2.714,2.714,0,0,1-5.1-82c.1.8-.8,1.8-1.3,2.7l-1,.1" fill="#fff"/>
        <path id="Path_5540" d="M16.6,66c.6.8,1.6,1.7,1.6,2.5a2.714,2.714,0,0,1-1.9,2.1,1.755,1.755,0,0,1-2.2-1.1,1.483,1.483,0,0,1-.1-.7c.1-.9,1-1.8,1.5-2.7l1.1-.1" fill="#fff"/>
        <path id="Path_5541" d="M-50,56c.9-.6,1.6-1.6,2.6-1.7a1.752,1.752,0,0,1,2.1,1.3,1.1,1.1,0,0,1,0,.8,2.879,2.879,0,0,1-2,2c-.8.1-1.8-.9-2.7-1.4,0-.4,0-.7,0-1" fill="#fff"/>
        <path id="Path_5542" d="M-52.9-73.8c.8-.7,1.6-1.8,2.4-1.8a3.137,3.137,0,0,1,2.3,1.7,1.767,1.767,0,0,1-1,2.3,1.949,1.949,0,0,1-.8.1c-.9,0-1.9-.8-2.8-1.3a3.751,3.751,0,0,1-.1-1" fill="#fff"/>
        <path id="Path_5543" d="M-24.4,57.4c-.6-.8-1.8-1.7-1.8-2.4a3.165,3.165,0,0,1,2-2.2c.5-.1,2,1.1,2.1,1.8.1.8-.8,1.8-1.3,2.7l-1,.1" fill="#fff"/>
        <path id="Path_5544" d="M-37.1,58.8c-.6-.8-1.7-1.7-1.6-2.5,0-.8,1.3-2.2,1.8-2.1a3.157,3.157,0,0,1,2.3,1.9c.2.7-.9,1.7-1.4,2.6l-1.1.1" fill="#fff"/>
        <path id="Path_5545" d="M-57.2-28.7c.8-.6,1.6-1.7,2.4-1.8.8,0,2.3,1.1,2.2,1.7a3.028,3.028,0,0,1-1.8,2.4c-.7.2-1.8-.8-2.7-1.2,0-.4-.1-.8-.1-1.1" fill="#fff"/>
        <path id="Path_5546" d="M21,71.5c.6.8,1.7,1.7,1.7,2.5-.1.8-1.3,1.5-2,2.3-.8-.7-2-1.3-2.2-2.2-.1-.8,1-1.7,1.5-2.6h1" fill="#fff"/>
        <path id="Path_5547" d="M23.8-6.2c-.6-.9-1.6-1.7-1.6-2.6a2.889,2.889,0,0,1,1.9-2.1,1.755,1.755,0,0,1,2.2,1.1,2.2,2.2,0,0,1,.1.8c-.1.9-1,1.8-1.6,2.7l-1,.1" fill="#fff"/>
        <path id="Path_5548" d="M4.4,79.1c.8-.6,1.6-1.8,2.4-1.8s1.6,1.2,2.4,1.8c-.7.8-1.2,2.1-2.1,2.3-.8.2-1.8-.9-2.7-1.4q0-.3,0-.9" fill="#fff"/>
        <path id="Path_5549" d="M5.9-71.6c-.6-.8-1.7-1.6-1.8-2.5a2.883,2.883,0,0,1,1.8-2.2,1.857,1.857,0,0,1,2.3,1,1.949,1.949,0,0,1,.1.8c0,.9-.9,1.9-1.4,2.8l-1,.1" fill="#fff"/>
        <path id="Path_5550" d="M36.3,21.4c.8-.6,1.5-1.6,2.5-1.8A1.812,1.812,0,0,1,41,20.8a1.1,1.1,0,0,1,0,.8,2.714,2.714,0,0,1-1.9,2.1c-.8.1-1.8-.8-2.7-1.3l-.1-1" fill="#fff"/>
        <path id="Path_5551" d="M-44.6,16.9c.9-.6,1.8-1.7,2.6-1.6a2.051,2.051,0,0,1,2.1,2.1A2.051,2.051,0,0,1-42,19.5h-.1c-.8.1-1.7-1-2.5-1.6v-1" fill="#fff"/>
        <path id="Path_5552" d="M-50.7,69.6c.8-.6,1.6-1.6,2.5-1.8A1.664,1.664,0,0,1-46.1,69a1.388,1.388,0,0,1,0,.9A3.092,3.092,0,0,1-48,72c-.8.1-1.8-.9-2.7-1.4v-1" fill="#fff"/>
        <path id="Path_5553" d="M-32.2,59c.8-.6,1.6-1.8,2.4-1.8a2.1,2.1,0,0,1,2.2,1.9,2.1,2.1,0,0,1-1.9,2.2c-.7.2-1.7-.9-2.6-1.4a2.22,2.22,0,0,1-.1-.9" fill="#fff"/>
        <path id="Path_5554" d="M-1.2-10c.8-.6,1.6-1.6,2.5-1.8a1.812,1.812,0,0,1,2.2,1.2,1.1,1.1,0,0,1,0,.8A2.889,2.889,0,0,1,1.6-7.7C.8-7.5-.2-8.5-1.1-9a3.083,3.083,0,0,1-.1-1" fill="#fff"/>
        <path id="Path_5555" d="M-10,98.5c.8-.7,1.6-1.8,2.4-1.9a2.883,2.883,0,0,1,2.2,1.8,1.767,1.767,0,0,1-1,2.3,1.128,1.128,0,0,1-.8.1c-.9,0-1.9-.9-2.8-1.3v-1" fill="#fff"/>
        <path id="Path_5556" d="M-22.5,108.3c-.6-.8-1.7-1.7-1.6-2.5s1.3-1.6,2-2.3c.8.7,2,1.4,2.2,2.2.1.8-.9,1.7-1.5,2.6h-1.1" fill="#fff"/>
        <path id="Path_5557" d="M54.1,79.8c.6.8,1.8,1.6,1.8,2.4s-1.1,2.3-1.7,2.2a3.028,3.028,0,0,1-2.4-1.8c-.2-.7.8-1.8,1.2-2.7l1.1-.1" fill="#fff"/>
        <path id="Path_5558" d="M-31.6,37.3c.8-.7,1.6-1.9,2.3-1.9A3.157,3.157,0,0,1-27,37.3c.2.5-1,2-1.7,2.2-.8.2-1.8-.7-2.8-1.2,0-.3-.1-.7-.1-1" fill="#fff"/>
        <path id="Path_5559" d="M-37.4-18.1c.7.8,1.8,1.6,1.9,2.4a2.883,2.883,0,0,1-1.8,2.2,1.721,1.721,0,0,1-2.3-.9,1.185,1.185,0,0,1-.1-.8c0-.9.9-1.9,1.3-2.8l1-.1" fill="#fff"/>
        <path id="Path_5560" d="M-57.3,91.7c.8-.6,1.7-1.8,2.5-1.7a3.155,3.155,0,0,1,2.1,2.1c.1.6-1.1,1.9-1.9,2s-1.8-.9-2.7-1.3V91.7" fill="#fff"/>
        <path id="Path_5561" d="M1.3-18.9c.8-.7,1.6-1.9,2.4-1.8a3.291,3.291,0,0,1,2.3,2c.2.6-1,2-1.8,2.1s-1.8-.8-2.7-1.2c-.1-.4-.1-.7-.2-1.1" fill="#fff"/>
        <path id="Path_5562" d="M14,4.9c.8-.6,1.7-1.7,2.5-1.7S18.7,4.4,18.6,5a3.157,3.157,0,0,1-1.9,2.3c-.7.2-1.7-.9-2.6-1.4l-.1-1" fill="#fff"/>
        <path id="Path_5563" d="M28.6,19.4c-.6-.8-1.7-1.7-1.6-2.4a3.39,3.39,0,0,1,2-2.2,3.145,3.145,0,0,1,2.2,2c.1.8-.9,1.7-1.5,2.6H28.6" fill="#fff"/>
        <path id="Path_5564" d="M2.3-57.5C3-56.7,4-55.9,4.2-55a1.827,1.827,0,0,1-1.3,2.2,1.1,1.1,0,0,1-.8,0A2.714,2.714,0,0,1,0-54.7c-.1-.8.8-1.8,1.3-2.7l1-.1" fill="#fff"/>
        <path id="Path_5565" d="M-17.8,84c.8-.7,1.6-1.9,2.4-1.9A3.391,3.391,0,0,1-13.1,84c.2.5-1,2-1.7,2.2-.8.2-1.8-.7-2.8-1.2l-.2-1" fill="#fff"/>
        <path id="Path_5566" d="M35.4-15.5c-.6-.8-1.6-1.6-1.8-2.5a1.812,1.812,0,0,1,1.2-2.2,1.1,1.1,0,0,1,.8,0,2.714,2.714,0,0,1,2.1,1.9c.1.8-.8,1.8-1.3,2.7l-1,.1" fill="#fff"/>
        <path id="Path_5567" d="M-50.7-44.5c.8-.6,1.7-1.7,2.5-1.7S-46-45-46-44.4A3.312,3.312,0,0,1-47.9-42c-.7.2-1.8-.9-2.7-1.4a3.749,3.749,0,0,0-.1-1.1" fill="#fff"/>
        <path id="Path_5568" d="M-30.1,78.1c-.6-.8-1.7-1.7-1.6-2.5a3.01,3.01,0,0,1,1.9-2.2,1.755,1.755,0,0,1,2.2,1.1,2.2,2.2,0,0,1,.1.8A7.333,7.333,0,0,1-29,78l-1.1.1" fill="#fff"/>
        <path id="Path_5569" d="M-38.9,87.9c-.6-.8-1.7-1.6-1.7-2.5,0-.8,1.2-2.2,1.7-2.2a3.505,3.505,0,0,1,2.4,1.9c.2.7-.8,1.8-1.3,2.7l-1.1.1" fill="#fff"/>
        <path id="Path_5570" d="M-26.7,19c.8-.7,1.5-1.7,2.4-1.9a1.812,1.812,0,0,1,2.2,1.2,1.1,1.1,0,0,1,0,.8A3.01,3.01,0,0,1-24,21.3c-.8.1-1.8-.8-2.7-1.3a1.7,1.7,0,0,0,0-1" fill="#fff"/>
        <path id="Path_5571" d="M-3.1,30.9c-.6-.8-1.7-1.7-1.7-2.5a3.4,3.4,0,0,1,1.9-2.2A1.912,1.912,0,0,1-.6,27.3a2.2,2.2,0,0,1,.1.8c-.1.9-1,1.8-1.5,2.7l-1.1.1" fill="#fff"/>
        <path id="Path_5572" d="M-41-40.9a7.935,7.935,0,0,1,2.5-1.7,1.793,1.793,0,0,1,2.2,1.3,1.1,1.1,0,0,1,0,.8,3.018,3.018,0,0,1-2,2.1c-.8.1-1.8-.9-2.7-1.4Z" fill="#fff"/>
        <path id="Path_5573" d="M28.3,82.7c.8-.6,1.6-1.7,2.5-1.7.8,0,2.2,1.2,2.2,1.7a3.505,3.505,0,0,1-1.9,2.4c-.7.2-1.8-.8-2.7-1.3l-.1-1.1" fill="#fff"/>
        <path id="Path_5574" d="M47.5,82.9c-.6-.8-1.8-1.7-1.7-2.5a3.155,3.155,0,0,1,2.1-2.1c.6-.1,1.9,1.2,2,1.9.1.8-.9,1.8-1.4,2.7h-1" fill="#fff"/>
        <path id="Path_5575" d="M-31.7-11.4c-.6-.8-1.6-1.6-1.8-2.5a1.876,1.876,0,0,1,1.3-2.2,1.1,1.1,0,0,1,.8,0,2.889,2.889,0,0,1,2.1,1.9c.1.8-.9,1.8-1.4,2.7l-1,.1" fill="#fff"/>
        <path id="Path_5576" d="M-19.3-47.7c.8-.7,1.5-1.7,2.4-1.9a1.812,1.812,0,0,1,2.2,1.2,1.1,1.1,0,0,1,0,.8,3.1,3.1,0,0,1-1.8,2.2c-.8.1-1.8-.8-2.7-1.3,0-.3-.1-.7-.1-1" fill="#fff"/>
        <path id="Path_5577" d="M-37.3,34.3c.8-.6,1.7-1.7,2.5-1.7a2.972,2.972,0,0,1,2.2,2,1.812,1.812,0,0,1-1.2,2.2,1.1,1.1,0,0,1-.8,0c-.9-.1-1.8-1-2.7-1.5v-1" fill="#fff"/>
        <path id="Path_5578" d="M-38.5,107.1c-.8.7-1.5,1.9-2.3,1.9a3.65,3.65,0,0,1-2.4-1.8,1.857,1.857,0,0,1,1-2.3,2.2,2.2,0,0,1,.8-.1c.9,0,1.8.8,2.8,1.3Z" fill="#fff"/>
        <path id="Path_5579" d="M-38.7-9c.8-.6,1.7-1.7,2.5-1.7A3.01,3.01,0,0,1-34-8.8a1.732,1.732,0,0,1-1.2,2.2,2.2,2.2,0,0,1-.8.1,8.732,8.732,0,0,1-2.7-1.4V-9" fill="#fff"/>
        <path id="Path_5580" d="M38.9,42.2c.6.8,1.6,1.6,1.8,2.5a1.664,1.664,0,0,1-1.2,2.1,1.388,1.388,0,0,1-.9,0,2.889,2.889,0,0,1-2.1-1.9c-.1-.8.9-1.8,1.4-2.7h1" fill="#fff"/>
        <path id="Path_5581" d="M-14.2,80c-.6-.8-1.6-1.5-1.9-2.4A1.755,1.755,0,0,1-15,75.4a2.2,2.2,0,0,1,.8-.1A3.1,3.1,0,0,1-12,77.1c.1.8-.8,1.8-1.2,2.7l-1,.2" fill="#fff"/>
        <path id="Path_5582" d="M25.4,50.4c.8-.6,1.6-1.8,2.4-1.8s1.6,1.2,2.4,1.9c-.7.8-1.3,2.1-2.1,2.2-.8.2-1.8-.9-2.6-1.4,0-.3-.1-.6-.1-.9" fill="#fff"/>
        <path id="Path_5583" d="M-21.4,97c-.6-.8-1.7-1.7-1.7-2.5.1-.9,1.3-1.6,2-2.4.8.7,2,1.4,2.2,2.2.1.7-.9,1.7-1.5,2.6l-1,.1" fill="#fff"/>
        <path id="Path_5584" d="M-42-1.9c.8-.6,1.7-1.6,2.5-1.6s2.2,1.3,2.1,1.8A3.157,3.157,0,0,1-39.3.6C-40,.8-41-.3-41.9-.8L-42-1.9" fill="#fff"/>
        <path id="Path_5585" d="M43.9,80.5c-.8.7-1.5,1.7-2.4,1.9a1.812,1.812,0,0,1-2.2-1.2,1.1,1.1,0,0,1,0-.8,3.1,3.1,0,0,1,1.8-2.2c.8-.1,1.8.8,2.8,1.3,0,.3,0,.6,0,1" fill="#fff"/>
      </g>
      <g id="Group_538" transform="translate(3849.218 1529.774)" clip-path="url(#clip-path)">
        <path id="Path_134" data-name="Path 134" d="M296.6,59.5V58a6.106,6.106,0,0,1-.3-1.3h0a7.1,7.1,0,0,0-.8-1.8,19.83,19.83,0,0,0-1.1-2c-.5-.5-1-.9-1.5-1.4a18.979,18.979,0,0,0-3.7-2.6,1.763,1.763,0,0,1-.9-1.5v-.1c-4.5-3-9.2-6-14.1-9.2h0l-.1-.1-10.2-6.6-3.5-15.8-1.2-2.3h-1.5v10l-1,13.7a65.257,65.257,0,0,1-7.5,7.3c-2.8,2.5-7.7,4.7-7,7.8,0,.2-.3.3-.5.5a11.544,11.544,0,0,0-5.1,4.9,5.171,5.171,0,0,1-.6,1.3V59h0l.2,5.7c.4-.1.7-.2,1.1-.3l-.1-2.7a2.276,2.276,0,0,1,.8-2.8c.3-.8.7-1.5,1-2.3a2.507,2.507,0,0,1,.4-.7,2,2,0,0,1,1.3-1.4,4.8,4.8,0,0,1,1.7-.5.1.1,0,0,1,.1-.1l.3.1a3.653,3.653,0,0,1,1.5.3,3.7,3.7,0,0,1,1.1.5c.1.1.2.1.3.2.2.1.5.2.7.3.5.2,1.1.4,1.6.6,1.1.4,2.1.7,3.1,1.1.5.2,1.1.4,1.6.6a.349.349,0,0,1,.2.1l.2.1a2.92,2.92,0,0,0,.9.2c.5.1,1,.2,1.6.3-3.5-1.9-7-3.7-9.1-5.7-3.4-3.2,3.7-5.4,6.7-8.5L264,56.2l1.6-.2c-2.3-4.8-10.3-9.1-9.8-14.8l15.1,8.2c-2.4-4-12.6-6.8-12-11.7l18.2,10.6c-4.1-4.7-14-8.4-15-13.8a97.026,97.026,0,0,1,30.2,20,1.755,1.755,0,0,1,.4.5,3.043,3.043,0,0,1,.8.8,8.176,8.176,0,0,1,1.2,2,7.579,7.579,0,0,1,.6,1.6,11.018,11.018,0,0,1,.2,1.8,1.483,1.483,0,0,1-.1.7l-.1,2.3c.4-.1.7-.1,1.1-.2l.2-4.2h0Q296.6,59.65,296.6,59.5Z" fill="#fff"/>
        <path id="Path_135" data-name="Path 135" d="M286.2,381.5c-.1.2-.2.3-.3.5a4.981,4.981,0,0,1-1,1.9h0a12.931,12.931,0,0,1-4.4,4.3,27.577,27.577,0,0,1-14,3.6c-9.1,0-16.7-3.7-19-8.7a8.8,8.8,0,0,1-.6-1c-.1-.1-.2-.3-.3-.4L237.4,64.4c-.4.1-.7.3-1.1.4l9.2,315.3h0v.1l3.9,138.1c0,5.5,7.6,9.8,17.2,9.8h.1a24.941,24.941,0,0,0,12-2.8c3.3-1.8,5.1-4.3,5.2-6.9h0l3.4-136.2L296.5,64c-.4.1-.7.2-1.1.3Zm-3.7,136.6h0c0,2.2-1.6,4.3-4.5,5.9a24.857,24.857,0,0,1-11.4,2.7h-.1c-8.7,0-15.8-3.8-15.9-8.5h0l-3.8-133.3c3,4.8,10.6,8.3,19.4,8.3h.1a28.317,28.317,0,0,0,14.7-3.8,14.073,14.073,0,0,0,4.8-4.6Z" fill="#fff"/>
      </g>
    </g>
    <g id="solid_box" transform="translate(303.313 509.75)" fill="rgba(255,255,255,0.05)" stroke="#ec0719" stroke-width="1">
      <rect width="291.75" height="250.659" stroke="none"/>
      <rect x="0.5" y="0.5" width="290.75" height="249.659" fill="none"/>
    </g>
    <g id="fluid_box" transform="translate(303.313 777.079)" fill="rgba(255,255,255,0.05)" stroke="#ec0719" stroke-width="1">
      <rect width="291.75" height="203" stroke="none"/>
      <rect x="0.5" y="0.5" width="290.75" height="202" fill="none"/>
    </g>
    <g id="paper_box" transform="translate(306.688 237)" fill="rgba(255,255,255,0.05)" stroke="#ec0719" stroke-width="1">
      <rect width="255" height="256" stroke="none"/>
      <rect x="0.5" y="0.5" width="254" height="255" fill="none"/>
    </g>
    <text id="solid_body" transform="translate(362.313 602.75)" fill="#fff" font-size="16" font-family="Acumin VF" font-weight="500"><tspan x="0" y="0">i. Shatter</tspan><tspan x="0" y="26">ii. Hash</tspan><tspan x="0" y="52">iii. Kief</tspan><tspan x="0" y="78">iv. Diamonds</tspan><tspan x="0" y="104">v. Isolate</tspan></text>
    <text id="fluid_body" transform="translate(362.313 870.079)" fill="#fff" font-size="16" font-family="Acumin VF" font-weight="500"><tspan x="0" y="0">i. Distillate</tspan><tspan x="0" y="26">ii. HTSFE</tspan><tspan x="0" y="52">iii. Live Rosin</tspan><tspan x="0" y="78">iv. FSO</tspan></text>
    <text id="solid_title" transform="translate(362.313 568.75)" fill="#ec0719" font-size="34" font-family="Acumin VF"><tspan x="0" y="0">Solid Concentrates</tspan></text>
    <text id="fluid_title" transform="translate(362.313 836.079)" fill="#ec0719" font-size="34" font-family="Acumin VF"><tspan x="0" y="0">Fluid Concentrates</tspan></text>
    <line id="solid_line" x2="143.438" transform="translate(595.063 541.75)" fill="none" stroke="#ec0719" stroke-width="1"/>
    <g id="sizes_box" transform="translate(960.688 278.5)" fill="rgba(255,255,255,0.05)" stroke="#ec0719" stroke-width="1">
      <rect width="255" height="135" stroke="none"/>
      <rect x="0.5" y="0.5" width="254" height="134" fill="none"/>
    </g>
    <text id="sizes_body" transform="translate(1019.688 367.5)" fill="#fff" font-size="16" font-family="Acumin VF" font-weight="500"><tspan x="0" y="0">0.35g - 1.5g</tspan></text>
    <text id="sizes_title" transform="translate(1019.688 333.5)" fill="#ec0719" font-size="34" font-family="Acumin VF"><tspan x="0" y="0">Sizes</tspan></text>
    <line id="sizes_line" x2="62.313" transform="translate(898.875 343.5)" fill="none" stroke="#ec0719" stroke-width="1"/>
    <path id="compaction_brace" d="M1827.35-3593.5h64.839v543.172H1827.35" transform="translate(-993.313 3842.328)" fill="none" stroke="#ec0719" stroke-width="1"/>
    <text id="paper_title" transform="translate(363.688 298)" fill="#ec0719" font-size="34" font-family="Acumin VF"><tspan x="0" y="0">Paper Type</tspan></text>
    <text id="paper_body" transform="translate(363.688 336)" fill="#fff" font-size="16" font-family="Acumin VF" font-weight="500"><tspan x="0" y="0">i. Wood (white)</tspan><tspan x="0" y="26">ii. Wood (brown)</tspan><tspan x="0" y="52">iii. Hemp (organic)</tspan><tspan x="0" y="78">iv. Bamboo (organic)</tspan><tspan x="0" y="104">v. Cellulose</tspan></text>
    <rect id="paper_dot" width="10" height="10" transform="translate(796.688 345)" fill="#ec0719"/>
    <g id="filter_box" transform="translate(1005.688 645)" fill="rgba(255,255,255,0.05)" stroke="#ec0719" stroke-width="1">
      <rect width="255" height="244" stroke="none"/>
      <rect x="0.5" y="0.5" width="254" height="243" fill="none"/>
    </g>
    <text id="filter_body" transform="translate(1064.688 737)" fill="#fff" font-size="16" font-family="Acumin VF" font-weight="500"><tspan x="0" y="0">i. Wood W</tspan><tspan x="0" y="26">ii. Bamboo W</tspan><tspan x="0" y="52">iii. Glass</tspan><tspan x="0" y="78">iv. Aluminum</tspan><tspan x="0" y="104">v. Ceramic</tspan></text>
    <text id="filter_title" transform="translate(1064.688 705)" fill="#ec0719" font-size="34" font-family="Acumin VF"><tspan x="0" y="0">Filter Type</tspan></text>
    <path id="filter_line" d="M1763.93-3014v70.067h189.363" transform="translate(-947.242 3801.774)" fill="none" stroke="#ec0719" stroke-width="1"/>
    <rect id="filter_dot" width="10" height="10" transform="translate(811.688 782)" fill="#ec0719"/>
    <line id="paper_line" x2="239.125" transform="translate(562.688 350.5)" fill="none" stroke="#ec0719" stroke-width="1"/>
    <rect id="fluid_dot" width="10" height="10" transform="translate(733.188 536.75)" fill="#ec0719"/>
    <line id="terpenes_line" y2="334" transform="translate(738.5 541.5)" fill="none" stroke="#ec0719" stroke-width="1"/>
    <g id="terpenes_box" transform="translate(618.688 875)" fill="rgba(255,255,255,0.05)" stroke="#ec0719" stroke-width="1">
      <rect width="255" height="212" stroke="none"/>
      <rect x="0.5" y="0.5" width="254" height="211" fill="none"/>
    </g>
    <text id="terpenes_body" transform="translate(677.688 967)" fill="#fff" font-size="16" font-family="Acumin VF" font-weight="500"><tspan x="0" y="0">i. Botanical</tspan><tspan x="0" y="26">ii. Live Resin</tspan><tspan x="0" y="52">iii. Live Infusion</tspan><tspan x="0" y="78">iv. Cure Infusion</tspan></text>
    <text id="terpenes_title" transform="translate(677.688 935)" fill="#ec0719" font-size="34" font-family="Acumin VF"><tspan x="0" y="0">Terpenes</tspan></text>
    <g id="compaction_box" transform="translate(960.687 453.25)" fill="rgba(255,255,255,0.05)" stroke="#ec0719" stroke-width="1">
      <rect width="255" height="135" stroke="none"/>
      <rect x="0.5" y="0.5" width="254" height="134" fill="none"/>
    </g>
    <text id="compaction_body" transform="translate(1019.687 542.25)" fill="#fff" font-size="16" font-family="Acumin VF" font-weight="500"><tspan x="0" y="0">Low, Medium, High</tspan></text>
    <text id="compaction_title" transform="translate(1019.687 508.25)" fill="#ec0719" font-size="34" font-family="Acumin VF"><tspan x="0" y="0">Compaction</tspan></text>
    <line id="compaction_line" x2="62.313" transform="translate(898.874 518.25)" fill="none" stroke="#ec0719" stroke-width="1"/>
    <rect id="solid_dot" width="10" height="10" transform="translate(733.188 536.75)" fill="#ec0719"/>
    <rect id="terpenes_dot" width="10" height="10" transform="translate(733.188 536.75)" fill="#ec0719"/>
    <path id="sizes_brace" d="M1827.35-3593.5h64.839v543.172H1827.35" transform="translate(-993.313 3842.328)" fill="none" stroke="#ec0719" stroke-width="1"/>
    <path id="fluid_line" d="M6751.77,6280h143.766V5980.76" transform="translate(-6157.035 -5440)" fill="none" stroke="#ec0719" stroke-width="1"/>
    <g id="coating_box" transform="translate(960.687 453.25)" fill="rgba(255,255,255,0.05)" stroke="#ec0719" stroke-width="1">
      <rect width="255" height="170" stroke="none"/>
      <rect x="0.5" y="0.5" width="254" height="169" fill="none"/>
    </g>
    <text id="coating_body" transform="translate(1019.687 542.25)" fill="#fff" font-size="16" font-family="Acumin VF" font-weight="500"><tspan x="0" y="0">i. Diamonds</tspan><tspan x="0" y="23">ii. Kief</tspan><tspan x="0" y="46">iii. Isolate</tspan></text>
    <text id="coating_title" transform="translate(1019.687 508.25)" fill="#ec0719" font-size="34" font-family="Acumin VF"><tspan x="0" y="0">Coating</tspan></text>
    <line id="coating_line" x2="62.313" transform="translate(898.874 518.25)" fill="none" stroke="#ec0719" stroke-width="1"/>
    <path id="coating_brace" d="M1827.35-3593.5h49.408v396.172H1827.35" transform="translate(-977.882 3842.328)" fill="none" stroke="#ec0719" stroke-width="1"/>
  </g>
</svg>
