<svg xmlns="http://www.w3.org/2000/svg" xmlns:xlink="http://www.w3.org/1999/xlink" width="893" height="772" viewBox="0 0 893 772">
  <defs>
    <clipPath id="clip-path">
      <rect id="Rectangle_22" data-name="Rectangle 22" width="65" height="566.5" transform="translate(0 -6.2)"/>
    </clipPath>
  </defs>
  <g id="traditional" transform="translate(8687 -12874)">
    <g id="roll" transform="translate(-8270.5 12938.2)">
      <g id="Group_43" data-name="Group 43">
        <g id="Group_806" clip-path="url(#clip-path)">
          <path id="Path_362" data-name="Path 362" d="M63.7,60.8,53.8,403.3l-.3.6a5.639,5.639,0,0,1-1.1,2h0a13.782,13.782,0,0,1-4.7,4.6,29.138,29.138,0,0,1-15,3.8c-9.8,0-17.9-3.9-20.3-9.3a10.907,10.907,0,0,1-.6-1.1c-.1-.2-.2-.3-.3-.5L1.3,60.4c0-.2-.1-.4-.1-.6H.1L10,401.7h0v.1l4.2,148c0,5.9,8.1,10.5,18.4,10.5h.1a27.491,27.491,0,0,0,12.9-3c3.5-2,5.5-4.6,5.5-7.4h0l3.7-146,10-343.1ZM49.8,549.7h0c0,2.4-1.7,4.6-4.8,6.4a26,26,0,0,1-12.2,2.8h-.1c-9.4,0-17-4.1-17-9.1h0l-4-142.9c3.3,5.2,11.4,8.9,20.8,8.9h.1a29.741,29.741,0,0,0,15.7-4.1,14.952,14.952,0,0,0,5.1-4.9Z" fill="#fff"/>
          <path id="Path_363" data-name="Path 363" d="M1.2,59.4V59h0a4.3,4.3,0,0,1,1-2.3,10.013,10.013,0,0,0,1-2.1,1.157,1.157,0,0,1,.5-.7,2.078,2.078,0,0,1,1.4-1.5,3.743,3.743,0,0,1,1.8-.5.1.1,0,0,1,.1-.1l.3.1a4.146,4.146,0,0,1,1.6.3,4.328,4.328,0,0,1,1.2.5c.1.1.2.1.3.2.3.1.5.2.8.3.6.2,1.1.4,1.7.6,1.1.4,2.3.8,3.4,1.2a13.355,13.355,0,0,1,1.8.7.349.349,0,0,1,.2.1l.2.1a3.553,3.553,0,0,0,1,.2c.6.1,1.1.2,1.7.3-3.8-2-7.5-3.9-9.8-6-3.7-3.4,3.9-5.7,7.1-8.9L30,54.1l1.7-.2c-2.5-5-11.1-9.5-10.5-15.5L37.4,47c-2.6-4.2-13.5-7.1-12.8-12.3l19.5,11C39.7,40.9,29.1,37,28,31.3a100.8,100.8,0,0,1,32.3,21,1.389,1.389,0,0,1,.5,1,8.319,8.319,0,0,1,1.8,2.5,4.508,4.508,0,0,1,.3,1.1v.2h0c0,.1,0,.2.1.2.1.2.1.3.2.5a3.194,3.194,0,0,1,.3,1.4v.2l.1-.1-.1,1.4h1.2l.1-2.9h0V56c-.1-.5-.3-.9-.4-1.4h0a10.837,10.837,0,0,0-.8-1.9l-1.2-2.1a10.7,10.7,0,0,0-1.6-1.4,23.712,23.712,0,0,0-4-2.8,2.039,2.039,0,0,1-1-1.6v-.2c-4.7-3.1-9.6-6.1-14.7-9.4l.1-.2L29.6,27.7,26,11.4,24.7,9H23V19.5L22,34.3c-2.1,2.6-5.1,5-7.9,7.5-3,2.7-8.3,4.9-7.5,8.2,0,.2-.3.4-.6.5A13.619,13.619,0,0,0,.5,55.6,11.215,11.215,0,0,1,0,56.9v.2H0L.1,60H1.2Z" fill="#fff"/>
        </g>
      </g>
    </g>
    <g id="end_box" transform="translate(-8687 12874)" fill="rgba(255,255,255,0.05)" stroke="#ec0719" stroke-width="1">
      <rect width="255" height="191" stroke="none"/>
      <rect x="0.5" y="0.5" width="254" height="190" fill="none"/>
    </g>
    <g id="paper_box" transform="translate(-8687 13261)" fill="rgba(255,255,255,0.05)" stroke="#ec0719" stroke-width="1">
      <rect width="255" height="256" stroke="none"/>
      <rect x="0.5" y="0.5" width="254" height="255" fill="none"/>
    </g>
    <g id="filter_box" transform="translate(-8049 13387)" fill="rgba(255,255,255,0.05)" stroke="#ec0719" stroke-width="1">
      <rect width="255" height="259" stroke="none"/>
      <rect x="0.5" y="0.5" width="254" height="258" fill="none"/>
    </g>
    <g id="compaction_box" transform="translate(-8049 13184)" fill="rgba(255,255,255,0.05)" stroke="#ec0719" stroke-width="1">
      <rect width="255" height="135" stroke="none"/>
      <rect x="0.5" y="0.5" width="254" height="134" fill="none"/>
    </g>
    <g id="sizes_box" transform="translate(-8049 12983.5)" fill="rgba(255,255,255,0.05)" stroke="#ec0719" stroke-width="1">
      <rect width="255" height="135" stroke="none"/>
      <rect x="0.5" y="0.5" width="254" height="134" fill="none"/>
    </g>
    <text id="end_body" transform="translate(-8628 12967)" fill="#fff" font-size="16" font-family="Acumin VF" font-weight="500"><tspan x="0" y="0">i. Twisted</tspan><tspan x="0" y="26">Ii. Punched</tspan><tspan x="0" y="52">Iii. Crown</tspan></text>
    <text id="paper_body" transform="translate(-8628 13353)" fill="#fff" font-size="16" font-family="Acumin VF" font-weight="500"><tspan x="0" y="0">i. Wood (white)</tspan><tspan x="0" y="26">ii. Wood (brown)</tspan><tspan x="0" y="52">iii. Hemp (organic)</tspan><tspan x="0" y="78">iv. Bamboo (organic)</tspan><tspan x="0" y="104">v. Cellulose</tspan></text>
    <text id="filter_body" transform="translate(-7990 13479)" fill="#fff" font-size="16" font-family="Acumin VF" font-weight="500"><tspan x="0" y="0">i. Wood W</tspan><tspan x="0" y="26">ii. Bamboo W </tspan><tspan x="0" y="52">iii. Wood Spiral</tspan><tspan x="0" y="78">iv. Glass</tspan><tspan x="0" y="104">v. Aluminum</tspan><tspan x="0" y="130">vi. Ceramic</tspan></text>
    <text id="compaction_body" transform="translate(-7990 13273)" fill="#fff" font-size="16" font-family="Acumin VF" font-weight="500"><tspan x="0" y="0">Low, Medium, High</tspan></text>
    <text id="sizes_body" transform="translate(-7990 13072.5)" fill="#fff" font-size="16" font-family="Acumin VF" font-weight="500"><tspan x="0" y="0">0.25g - 1.0g</tspan></text>
    <text id="end_title" transform="translate(-8628 12933)" fill="#ec0719" font-size="34" font-family="Acumin VF"><tspan x="0" y="0">End Type</tspan></text>
    <text id="paper_title" transform="translate(-8628 13319)" fill="#ec0719" font-size="34" font-family="Acumin VF"><tspan x="0" y="0">Paper Type</tspan></text>
    <text id="compaction_title" transform="translate(-7990 13239)" fill="#ec0719" font-size="34" font-family="Acumin VF"><tspan x="0" y="0">Compaction</tspan></text>
    <text id="sizes_title" transform="translate(-7990 13038.5)" fill="#ec0719" font-size="34" font-family="Acumin VF"><tspan x="0" y="0">Sizes</tspan></text>
    <text id="filter_title" transform="translate(-7990 13447)" fill="#ec0719" font-size="34" font-family="Acumin VF"><tspan x="0" y="0">Filter Type</tspan></text>
    <line id="compaction_line" x2="62.313" transform="translate(-8110.813 13249)" fill="none" stroke="#ec0719" stroke-width="1"/>
    <line id="sizes_line" x2="62.313" transform="translate(-8110.813 13048.5)" fill="none" stroke="#ec0719" stroke-width="1"/>
    <path id="sizes_brace" d="M1827.35-3593.5h64.839V-3017H1827.35" transform="translate(-10003 16531)" fill="none" stroke="#ec0719" stroke-width="1"/>
    <path id="filter_line" d="M1763.93-3014v62.841h190.434" transform="translate(-10003 16531)" fill="none" stroke="#ec0719" stroke-width="1"/>
    <rect id="filter_dot" width="10" height="10" transform="translate(-8244 13512)" fill="#ec0719"/>
    <rect id="paper_dot" width="10" height="10" transform="translate(-8247 13319)" fill="#ec0719"/>
    <line id="paper_line" x2="189" transform="translate(-8430.5 13323.5)" fill="none" stroke="#ec0719" stroke-width="1"/>
    <line id="end_line" x2="184" transform="translate(-8432.5 12964)" fill="none" stroke="#ec0719" stroke-width="1"/>
    <rect id="end_dot" width="10" height="10" transform="translate(-8254 12959)" fill="#ec0719"/>
    <path id="compaction_brace" d="M1827.35-3593.5h64.839V-3017H1827.35" transform="translate(-10003 16531)" fill="none" stroke="#ec0719" stroke-width="1"/>
    <g id="coating_box" transform="translate(-8049 13184)" fill="rgba(255,255,255,0.05)" stroke="#ec0719" stroke-width="1">
      <rect width="255" height="173" stroke="none"/>
      <rect x="0.5" y="0.5" width="254" height="172" fill="none"/>
    </g>
    <text id="coating_body" transform="translate(-7990 13273)" fill="#fff" font-size="16" font-family="Acumin VF" font-weight="500"><tspan x="0" y="0">i. Diamonds</tspan><tspan x="0" y="23">ii. Kief</tspan><tspan x="0" y="46">iii. Isolate</tspan></text>
    <text id="coating_title" transform="translate(-7990 13239)" fill="#ec0719" font-size="34" font-family="Acumin VF"><tspan x="0" y="0">Coating</tspan></text>
    <line id="coating_line" x2="62.313" transform="translate(-8110.813 13249)" fill="none" stroke="#ec0719" stroke-width="1"/>
    <path id="coating_brace" d="M1827.35-3593.5h64.839V-3181H1827.35" transform="translate(-10003 16531)" fill="none" stroke="#ec0719" stroke-width="1"/>
  </g>
</svg>
