<?xml version="1.0" encoding="UTF-8"?>
<svg id="Layer_14" data-name="Layer 14" xmlns="http://www.w3.org/2000/svg" viewBox="0 0 140 450">
  <defs>
    <style>
      .cls-1 {
        fill: #fff;
        stroke-width: 0px;
      }
    </style>
  </defs>
  <path class="cls-1" d="m93,46.09s0-.01,0-.02c0,0,0,0,0,0h0c-.01-.1-.02-.2-.03-.3-.02-.37-.01-.73,0-1.1,0-.09,0-.18,0-.27-.1-.42-.19-.85-.25-1.28,0,.01-.01.02-.02.04-.13-.6-.34-1.17-.58-1.75-.26-.63-.55-1.26-.84-1.89-.37-.44-.73-.89-1.11-1.32-.85-.92-1.76-1.79-2.82-2.53-.48-.33-.67-.93-.69-1.44,0-.05.01-.09.01-.14-3.4-2.89-6.99-5.75-10.7-8.81,0,0,0,0,.01,0-.06-.03-.12-.06-.18-.09h0l-8.24-6.69-2.72-15.23-.89-2.23h-1.18v9.65l-.78,14.66c-1.42,2.02-3.23,3.96-4.95,5.9-2.15,2.44-5.87,4.52-5.34,7.49.03.15-.21.33-.4.46-2.05,1.47-3.23,3.05-3.87,4.69-.12.43-.26.86-.42,1.28,0,.04,0,.08,0,.12,0,.02,0,.05-.01.07.07.12.11.24.17.36l6.94,294.14c0,.07.02.13.05.18l2.9,102.55h0c.03,4.17,5.74,7.41,13.03,7.41.03,0,.06,0,.09,0,3.45-.01,6.7-.77,9.14-2.14,2.49-1.39,3.88-3.25,3.92-5.26h0s2.65-104.96,2.65-104.96h0s0,0,0-.01c0-.06-.01-.12-.01-.18-.05.08-.1.16-.15.24l6.88-291c.12-.2.26-.38.38-.58Zm-10.74,396.4h0c0,1.67-1.21,3.27-3.42,4.51-2.3,1.29-5.38,2-8.66,2.01-.03,0-.06,0-.09,0-6.63,0-12.03-2.88-12.04-6.43h-.5s.5-.01.5-.01l-2.86-101.24c2.31,3.67,8.05,6.27,14.75,6.27.03,0,.06,0,.1,0,4.21-.02,8.16-1.04,11.14-2.87,1.62-1,2.84-2.17,3.64-3.46l-2.56,101.22Zm2.61-103.42s-.05.08-.08.12c-.15.53-.4,1.02-.77,1.43,0,0,0,.01-.01.02-.71,1.2-1.83,2.31-3.36,3.25-2.83,1.74-6.6,2.71-10.63,2.73-6.92.02-12.71-2.79-14.4-6.61-.17-.23-.31-.48-.42-.75-.1-.14-.19-.27-.29-.41l-6.88-291.42c.03.07.08.14.11.21.72.85,1.4,1.72,2.01,2.64,2.37,2.16,4.93,3.44,7.59,4.31.36-.07.72-.19,1.07-.29.25-.07.5-.08.74-.07-.29-.32-.59-.63-.86-.97-.19-.24-.38-.49-.56-.75-.81-.28-1.62-.59-2.42-.94-1.82-.78-3.6-2.03-5.14-3.51-.38-.37-.69-.75-.96-1.13-.43-.43-.8-.91-1.13-1.41.22-.83.6-1.62.81-2.45.06-.24.18-.46.34-.64.1-.54.42-1.05.96-1.36.32-.25.74-.41,1.27-.45.02-.04.03-.08.05-.13.08.04.15.07.23.11.46,0,.84.1,1.16.27.32.1.62.24.87.44.06.05.13.1.2.15.18.1.36.21.55.31.39.21.8.4,1.21.58.8.35,1.61.69,2.39,1.07.41.2.84.39,1.24.6.09.04.13.06.15.07.05.02.1.03.15.05.24.08.48.15.72.22.39.11.79.21,1.18.3-2.67-1.85-5.29-3.56-6.94-5.5-2.61-3.07,2.79-5.18,5.06-8.17,2.94,4.19,5.55,7.92,8.16,11.64.41-.07.82-.14,1.23-.2-1.75-4.61-7.84-8.7-7.45-14.16,4.24,2.9,7.86,5.38,11.48,7.86-1.86-3.86-9.53-6.47-9.09-11.22,4.9,3.58,9.36,6.84,13.82,10.1-3.13-4.49-10.66-8-11.41-13.24,10.44,5.68,17.3,12.24,22.91,19.16.27.33.38.7.41,1.09.05.08.1.15.13.23.12.2.18.42.19.64.05.14.11.29.14.43.06.28.11.56.14.84.05.14.11.28.15.43.12.42.22.87.25,1.31-.02.02-.03.04-.05.06-.09.69-.29,1.32-.6,1.98-.18.38-.52.65-.89.85-.1.09-.21.17-.33.23-.32.27-.62.56-.94.84-.33.29-.67.56-1.04.8-.39.25-.83.42-1.26.59-.32.09-.64.08-.96.04-1.22.6-2.5,1.07-3.79,1.45-.98.29-1.96.52-2.94.73-.02.03-.04.07-.07.1-.11.16-.24.29-.39.41-.09.08-.17.16-.24.25.88.25,1.73.57,2.58.91,1.07-.29,2.14-.63,3.21-1.03,2.29-.86,4.47-2.03,6.5-3.95.16-.27.37-.53.62-.78.44-.43.83-.91,1.19-1.4l-6.88,291.08Z"/>
  <path class="cls-1" d="m69.52,54.46c-.93,0-1.86-.06-2.79-.13-.07.06-.14.13-.22.18-.2.18-.43.3-.69.38.11.44.11.9,0,1.33.79.08,1.58.15,2.36.19.06-.05.12-.1.19-.14.46-.23.95-.42,1.44-.58.19-.07.39-.14.58-.21.02-.01.04-.02.06-.03.04-.15.06-.29.08-.44-.24-.1-.48-.2-.71-.32-.11-.07-.21-.15-.31-.23Z"/>
</svg>