<?xml version="1.0" encoding="UTF-8"?>
<svg id="Layer_1" data-name="Layer 1" xmlns="http://www.w3.org/2000/svg" xmlns:xlink="http://www.w3.org/1999/xlink" viewBox="0 0 770 480">
  <defs>
    <style>
      .cls-1, .cls-2 {
        stroke-width: 0px;
      }

      .cls-1, .cls-3, .cls-4, .cls-5, .cls-6 {
        fill: none;
      }

      .cls-2 {
        fill: #fff;
      }

      .cls-3 {
        stroke-dasharray: 0 0 12.43 12.43;
      }

      .cls-3, .cls-4, .cls-5, .cls-6 {
        stroke: #fff;
        stroke-linecap: square;
        stroke-miterlimit: 10;
      }

      .cls-7 {
        clip-path: url(#clippath);
      }

      .cls-5 {
        stroke-dasharray: 0 0 12.5 12.5;
      }

      .cls-6 {
        stroke-width: 5px;
      }
    </style>
    <clipPath id="clippath">
      <path class="cls-1" d="m190.96,230.26c-21.31,23.94-28.43,51.87-15.91,62.39s39.95-.36,61.26-24.3,28.43-51.87,15.91-62.39c-3.24-2.72-7.48-4.01-12.36-4.01-13.96,0-33.11,10.57-48.9,28.31"/>
    </clipPath>
  </defs>
  <g>
    <path id="Path_13896" data-name="Path 13896" class="cls-2" d="m622.07,252.58c-8.82,9.7-11.71,21.5-6.43,26.3l117.53,106.87c5.28,4.8,16.75.81,25.57-8.89s11.71-21.5,6.43-26.3l-117.53-106.87c-5.28-4.8-16.75-.81-25.57,8.89m.79.72c8.43-9.27,19.22-13.22,24.07-8.82s1.93,15.53-6.5,24.79-19.22,13.22-24.07,8.82-1.93-15.53,6.5-24.79m141.59,98.05c4.84,4.4,1.93,15.53-6.5,24.79s-19.22,13.22-24.07,8.82l-114.69-104.29c5.92,1.32,14.85-2.8,22.02-10.68s10.42-17.16,8.55-22.93l114.69,104.29Z"/>
    <path id="Path_13897" data-name="Path 13897" class="cls-2" d="m485.65,97.11l130.18,118.38c4.84,4.4,1.93,15.53-6.5,24.79s-19.22,13.22-24.07,8.82l-130.18-118.38-.72.79,130.18,118.38c5.28,4.8,16.75.81,25.58-8.89s11.71-21.5,6.43-26.3l-130.18-118.38-.72.79Z"/>
    <path id="Path_13898" data-name="Path 13898" class="cls-2" d="m359.23,13.81c-8.82,9.7-11.71,21.5-6.43,26.3l69.71,63.39.72-.79-66.87-60.81c5.92,1.31,14.85-2.79,22.02-10.68s10.42-17.16,8.55-22.93l66.87,60.81.72-.79L384.81,4.92c-5.28-4.8-16.75-.81-25.57,8.89m18.36,16.69c-8.43,9.27-19.22,13.22-24.07,8.82s-1.93-15.53,6.5-24.79,19.22-13.22,24.06-8.82c4.84,4.4,1.93,15.53-6.5,24.79"/>
    <path id="Path_13899" data-name="Path 13899" class="cls-6" d="m234.76,267.05c-21.31,23.94-48.74,34.82-61.26,24.3s-5.4-38.45,15.91-62.39,48.74-34.82,61.26-24.3c12.52,10.51,5.4,38.45-15.91,62.39Z"/>
  </g>
  <g class="cls-7">
    <path id="Path_13900" data-name="Path 13900" class="cls-2" d="m219.71,289.97c-.3-.04-.59-.1-.88-.2-1.9-1.03-2.21-5.59.19-9.56.65-1.19,1.16-2.45,1.51-3.76-1.14,1.57-2.56,2.81-3.24,4.77-.6,1.75-2.45,3.9-3.87,5.83-.65.88-.85,1.29-.39,1.66,1.99,1.77,3.33,4.15,3.81,6.77.28,1.17-.09,2.84-.13,4.26-.11,1.36-.11,2.72,0,4.08.56,3.78.03,7.65-1.54,11.14-1.18,2.75-1.31,5.03-2.52,7.75-1.08,2.52-2,5.12-2.75,7.76-.32,1.3-.53,2.63-.62,3.96-.11.85-.17,1.67-.25,2.5l-.53.49c-.84-.64-1.57-1.41-2.18-2.27-1.87-3.58-2.56-7.99-1.81-13.46.28-2.05-.38-3.63-.07-5.69.66-4.36-.95-7.13-.7-11.17l-.46.21c-.42.94-.76,1.88-1.28,2.81-.74,1.35-1.56,2.66-2.45,3.91-1.03,1.41-1.97,1.75-2.55,1.01-.2-.18-.43-.34-.67-.46-.93,2.37-1.03,4.6-3.73,6.67-2.3,1.76-4.08,1.76-6.05,1.9-.07.35-.09.7-.08,1.06.59,2.2,0,5-1.19,8.08-.8,1.93-1.05,4.04-.71,6.1.18,1.35.28,2.7.29,4.06.1,1.04-.27,2.07-1,2.82-.27.46-.37,1-.3,1.53.07,1.2.26,2.33.35,3.51.07.42,0,.84-.19,1.22-1.53,2.39-.66,3.33-.26,4.6.26,1,.42,2.02.49,3.05.09.45.03.91-.17,1.32-1.36,2.29-.81,3.62-.87,5.25-.06,1.79-.08,3.56-.13,5.34.01.29-.04.57-.16.83-1.45,2.71-.72,4.2-.68,6.12,0,2.32-.18,4.64-.54,6.94-.44,3.63-1.46,7.16-3.02,10.47-1.07,2.23-2.43,4.51-3.73,6.76-.28.4-.67.71-1.12.9-.24.04-.38-.41-.3-.75,1.06-5.06,1.42-10.23,1.07-15.39-.04-.54-.21-1.06-.49-1.52-.55-1.07-1.12-2.13-1.74-3.13-.19-.38-.54-.65-.95-.75-1.43-.04-2.55-1.23-2.51-2.66,0-.06,0-.12.01-.18.08-1.53-.55-3.02-1.71-4.03-1.53-1.59-1.37-4.36-1.39-7.09-.01-2.14-.78-3.8-1.21-5.68l-.65.31c-.41.68-.76,1.39-1.07,2.12-1.35,4.44-3.05,8.78-5.08,12.95-1.68,3.3-2.19,6.51-3.21,9.76-.94,3-1.85,5.99-2.79,8.99-.07.28-.2.54-.38.76-1.94,2.15-2.16,4.12-3.05,6.17-1.76,4.03-4.61,7.9-7.44,11.77-5.1,6.98-10.21,13.96-15.35,20.93-1.25,1.7-2.65,3.35-4.01,5.01-.36.43-.81.81-1.21,1.21l-.38-.08c.41-.87.74-1.75,1.25-2.61,2.2-3.7,4.29-7.44,6.72-11.1,3.94-5.95,6.95-12.47,8.92-19.33,2.63-8.81,5.17-17.59,7.76-26.38,1.1-3.71,2.45-7.53,3.31-11.14.47-2.48.77-5,.88-7.52.03-.32-.16-.52-.61-.56-.16.31-.29.64-.4.97-1.3,6.04-3.14,11.96-5.49,17.67-.65,1.57-1.05,3.08-1.64,4.64-.42,1.26-1.25,2.34-2.37,3.06-.56.46-.99,1.05-1.25,1.72-.55,2.02-.84,3.95-1.41,5.98-1.14,4.31-3.08,8.37-5.72,11.96-1.55,2.1-1.97,2.31-3.53,2.18-.96-.08-1.31.76-1.78,1.65-1.34,2.51-2.63,5.03-4.14,7.53-1.38,2.29-2.98,4.57-4.56,6.83-1.65,2.37-2.28,2.76-4.11,2.75-.59.87-1.17,1.78-1.82,2.66-.79,1.06-1.62,1.77-2.39,1.39-.68-.34-1.19.16-1.97,1.29-1.34,1.96-2.84,3.9-4.38,5.79-.77.95-1.69,1.65-2.42,1.2-.18-.11-.94.28-1.3.64-1.66,1.63-3.24,3.37-4.9,4.99-2.22,2.16-2.25,2.13-3.41,1.1-5.86,5.22-11.79,10.35-17.58,15.7-4,3.7-7.17,8.12-10.4,12.43-.65.74-1.36,1.42-2.13,2.04-.27-.46-.81-.76-.76-1.39.3-4,1.66-7.85,3.93-11.16,4.21-6.37,8.67-12.7,13.03-19.04.41-.6.85-1.19,1.28-1.79-1.6-.47-1.53-1.1.23-3.43.9-1.19,1.75-2.4,2.61-3.59-1.19-.8-1.1-1.27.72-3.59.42-.54.89-1.07,1.36-1.58.92-.86,1.61-1.92,2.03-3.1.36-1.18,1.87-2.77,2.9-4.16.4-.53.9-1.02,1.48-1.67-1.22-.24-.51-1.23.48-2.37.83-.95,1.6-1.95,2.41-2.92.69-.83,1.64-1.61,1.36-2.48-.06-.17.35-.8.64-1.17,1.01-1.28,2.05-2.55,3.09-3.82.86-1.04,1.77-1.94,1.76-3.15,0-.55.98-1.8,1.65-2.66.88-1.13,1.93-2.18,2.84-3.31.66-.69,1.18-1.49,1.54-2.37.17-1.71,1.66-2.95,2.85-4.33,1.03-1.19,2.08-2.36,3.06-3.58.84-1.05,1.85-2.2,1-2.84-.12-.09.23-.87.53-1.24,1.48-1.86,3.02-3.7,4.54-5.54.39-.48.82-.93,1.35-1.52-1.08-.44-.5-1.7.39-3.04.94-1.42,1.99-2.81,3-4.21.38-.53.8-1.05,1.55-2.02-2.32,1.14-4.21,2.01-6.13,3.04-3.24,1.7-6.68,2.98-10.23,3.83-2.15.54-4.09,1.72-5.56,3.39-1.24,1.13-2.56,2.17-3.95,3.11-.63.45-1.22.96-1.75,1.52-1.93,2.33-3.82,4.69-5.7,7.05-1.62,2.03-3.04,2.89-4.46,2.65-3.15,2.98-5.02,7.01-8.44,9.87-.79-1.28-.81-1.24-2.29.9-1.08,1.57-2.23,3.14-3.47,4.62-.67.65-1.39,1.24-2.16,1.76-.56.42-1.09.87-1.59,1.35-1.75,1.8-3.48,4.23-5.22,5.31-2.76,1.72-4.48,4.14-6.53,6.42-2.33,2.59-3.06,2.95-4.78,2.12-.76.85-1.54,1.74-2.33,2.61-.56.68-1.16,1.33-1.81,1.92-2.01,1.63-2.24,2.31-3.87.72-1.84,2.07-3.65,4.16-5.53,6.2-6.83,7.64-14.46,14.52-22.75,20.54-2.65,1.86-5.35,3.39-8.02,4.99-.63.39-1.34.65-2.08.76-.41.07-.81-.19-.9-.6.13-.56.41-1.08.82-1.49,2.34-2.57,4.75-5.09,7.1-7.65,5.09-5.53,9.71-11.46,13.84-17.74,3.98-6.2,8.3-12.18,12.94-17.9-1.25-.37-.59-1.75.44-3.2,1.7-2.4,3.48-4.79,5.26-7.17.36-.48.82-.93,1.15-1.3.01-.24.06-.36.02-.4-1.29-1.43-1.31-1.58,1.4-4.43,1.9-2.01,3.94-3.89,5.95-5.76.89-.82,1.27-1.4,1.19-2.17-.16-1.51.33-2.35,2.17-3.9.71-.6,1.41-1.19,2.13-1.77,1.31-1.07,2.37-1.98,2.7-3.68.15-.75,1.7-2.29,2.74-3.24,1.65-1.5,3.43-2.76,5.12-4.21.41-.46.76-.97,1.03-1.53.25-.56.57-1.09.94-1.57,1.9-1.81,3.84-3.55,5.79-5.29.83-.74,1.71-1.39,2.56-2.1,1.03-.85,1.79-1.61,1.51-2.63.23-.77.68-1.46,1.28-1.99,2.53-2,5.1-3.82,7.64-5.79.93-.78,1.8-1.62,2.63-2.5,1.05-1.04,2.07-2.11,3.36-3.43l-5.4,2.37c-.91.4-1.87.91-1.96-.13-.02-.18-.55-.1-.89.05-2.09.9-4.18,1.74-6.3,2.82-1.05.66-2.05,1.41-2.98,2.22-2.1,1.58-4.2,3.26-6.31,4.72-2.47,1.71-4.96,3.25-7.45,4.8-.74.42-1.5.8-2.29,1.13-.05-.15-.1-.3-.14-.45l7.86-8.83c-1.18-.39-3.95,1.69-2.67-1.35-1.58.67-3.01,1.35-4.39,1.83-1.24.43-2.67,1-1.96-1.1.06-.18-.42-.34-.74-.24-5.26,1.73-10.62,3.72-15.79,5.21-4.78,1.38-9.28,2.03-12.84.95-.85-.26-1.7-.58-1.43-2.14.45-.27.92-.5,1.41-.71,9.72-3.23,19.68-8.53,29.88-15.42,1.96-1.32,3.95-2.08,5.94-3.18.57-.4,1.1-.86,1.57-1.36.72-.79,1.52-1.51,2.37-2.15,1.99-1.15,3.97-2.11,5.95-3.07.8-.39,1.33-.72,1.41-1.62.08-.68.58-1.24,1.25-1.39,1.95-.68,3.92-1.41,5.86-2.07.9-.18,1.63-.82,1.93-1.68.29-.48.69-.88,1.17-1.17.96-.45,1.94-.82,2.95-1.13,1.26-.17,2.41-.82,3.21-1.8.9-.75,1.99-1.22,3.14-1.37,2.08-.48,3.99-1.53,5.51-3.04.49-.4,1.02-.75,1.59-1.03,1.01-.56,1.98-1.06,2.3-2.42.05-.2.51-.6.8-.88.41-.38.86-.69,1.25-1.08,2.43-2.39,2.56-3.1.69-3.43-8.08-1.5-16.36-1.64-24.49-.42-4.08.62-8.53,2.47-12.91,4.01-6.32,2.33-12.48,5.06-18.46,8.16-1.54.78-3.11,1.73-4.67,2.6-.88.49-1.76,1.01-2.62,1.41-.3.14-.74.08-.75-.13.12-.42.35-.79.67-1.09.93-.93,1.9-1.81,2.86-2.7,2.68-2.49,5.37-4.98,8.05-7.47.47-.4.91-.84,1.3-1.32.99-1.46,2.43-2.57,4.09-3.16.83-.32,1.59-.8,2.24-1.41,1.55-1.52,3.34-2.77,5.3-3.69.74-.49,1.46-1.03,2.15-1.6.88-.68,1.83-1.28,2.82-1.79,1.06-.4,2.15-.71,3.27-.93,1.18-.31,2.28-.87,3.22-1.63,1-.66,2.12-1.11,3.29-1.31,1.29-.33,2.48-.42,3.73-.65,1.9-.28,3.68-1.11,5.11-2.4,1.88-1.57,4.21-2.51,6.66-2.68,1.36-.19,2.64-.2,3.95-.3.34.02.68-.02,1-.12,3.79-1.7,6.05-.55,8.83-.35.56.03,1.12-.08,1.62-.32,1.63-.75,3.28-1.63,4.92-2.46.21-.07.4-.19.57-.33,1.54-2.11,3.04-2.1,4.56-2.79.85-.38,1.75-1.04,2.58-1.38,1.45-.59,2.87-1.06,4.29-1.52.5-.16.93.06,1.4-.23,2.98-1.84,4.7-.94,6.96-1.2.98-.11,2.1-.52,3.09-.64,1.21-.17,2.44-.24,3.66-.23.68.06,1.35.2,1.99.43.65.17,1.29-.13,2.22-1.02,1.62-1.55,3.33-2.96,4.99-4.46.4-.35.74-.76,1.01-1.22.92-1.78,1.76-3.56,2.71-5.49-2.51.7-5.48,2.21-7.57,1.45,3.82-1.4,7.2-3.78,9.8-6.9-.21-.05-.43-.09-.65-.11-1.24.14-2.48-.22-3.45-1-.92-.66-2.05-.99-3.18-.92-1.97-.1-3.68-.54-4.56-1.98-.86-1.41-2.45-1.76-4.24-1.88-1.7.03-3.35-.58-4.64-1.69-.85-.84-2.87-.41-4.28-.68-.87-.17-1.89-.29-2.31-.94-1.31-2.03-3.7-2.57-6.23-2.99-5.06-.83-9.69-2.25-13.12-5.26-.43-.36-.76-.84-.95-1.37-.3-.89.23-1.71,1.38-1.99,1.76-.42,3.55-.69,5.36-.8,2.38-.17,4.62-.08,7.02-.29.9-.22,1.73-.67,2.41-1.29,1.1-1.04,2.56-1.61,4.08-1.58,1.6.01,3.06.28,4.63.44,1.35-1.92,2.69-2.47,3.74-2.13,1.53.49,3.01,1.12,4.41,1.9.82.43,1.8.36,2.55-.17.92-.52,1.97-.79,3.03-.79,3.47.29,6.85,1.25,9.96,2.82.95.52,2.61.14,3.62.6,1.8.86,3.53,1.87,5.16,3.02.92.61,1.63,1.46,2.49,2.14.57.45,1.28,0,1.92-1.16,1.34-2.58,3.12-4.91,5.26-6.87.72-.76,1.37-1.58,1.95-2.45,1.01.58,1.2.46,2.53-1.38.87-1.2,1.81-2.39,2.74-3.57,1.06-1.34,1.11-1.81.22-2.05-.26-.07-.37-.35-.55-.54.41-.3.93-.84,1.2-.86.86-.13,1.74-.09,2.58.12.55.2.94.07,1.71-.58,1.1-.93,2.26-1.72,3.59-2.73-1.69-1.29-3.73-2.03-5.85-2.12-1.98-.13-4.07-.07-6.07-.16-.42-.02-.66-.36-.98-.55.47-.61.99-1.17,1.56-1.69,2.25-1.88,4.97-3.1,7.87-3.54.68-.13,1.34-.31,1.99-.53.6-.24,1.23-.4,1.87-.47,3.46.2,7.63-.76,10.22.88.54.26,1.1.46,1.67.61.05-.31.09-.63.11-.94-.05-2.22.22-2.83,2.63-5.12.93-.88,1.12-1.35.92-2.04-.69-2.33.79-4.43,3.94-5.49,1.54-.42,3.11-.72,4.7-.91.03-1.78-.04-3.62.13-5.59s.59-4.06.91-6.18c4.99-.96,6.88,2.32,10.01,4.2.58-1.54.1-1.99-.34-2.49-.43-.46-.75-1.01-.93-1.61,2.86-.96,5.12-.98,6.89-.15.77.36,1.25.63,2.46-1.21.78-.87,1.68-1.62,2.68-2.23.44-.34,1.09-.48,1.34-.82,1.59-2.19,3.9-3.76,6.52-4.43,1.5-.46,2.77-1.68,4.12-2.71.36-.41.6-.91.67-1.46.04-.84-.12-1.57,0-2.54,1.34.09,2.57.77,3.34,1.87.39.55.71,1.14.97,1.76.28.6.79.54,1.64-.39.78-1.07,1.9-1.84,3.18-2.18.23-.03.64-.42.96-.65.81-.67,1.66-1.27,2.56-1.81,1.47-.48,2.76-1.41,3.69-2.65.44-.25.96-.33,1.45-.22.47.19.71.69,1.05,1.06l.39-.29c-.05-1.01-.09-2.02-.14-3.17.15.13.28.28.4.43.67,1.09,1.1,2.42,3.3,1.63.66-.24,1.09.26,1.7.27.58-.06,1.16-.18,1.72-.35l.75-1.59c.54.91,1.04,1.82,1.61,2.66.99,1.5,2.07,2.93,3.02,4.47.3.7.51,1.44.63,2.19l1.71-.48c.01.12.02.24.04.36-.74.67-1.51,1.31-2.2,2.04-.4.42-.99,1.27-.92,1.41.15.29.62.35,1.06.31.63-.11,1.25-.26,1.86-.45-.57.74-1.18,1.44-1.84,2.1-1.31,1.15-1.57,1.67-.7,2.05.94.42.69,1.12-.69,2.29-.15.12-.28.26-.39.41-2.14,3.27-4.27,6.55-6.39,9.83-.05.07,0,.16,0,.32.25-.13.51-.24.78-.33.37-.08.75-.13,1.12-.17-.37.43-.72.89-1.12,1.29-2.08,2.07-4.27,4.03-6.24,6.19-1.85,2.04-1.87,2.76-.55,3.36.73.33,1.61.46,2.36.75.26.1.34.44.51.67-.39.45-.82.85-1.29,1.21-.77.41-1.57.75-2.4,1.02-.59.18-1.2.33-1.81.44l-3.31,5.33c.59-.05,1.18-.07,1.8-.15,1.27-.18,2.7-.59,2.7.97,0,.17.22.23.39.26,5.69,1.16,8.96,5.02,11.26,9.93.29,1.07.43,2.18.41,3.29l-.48.49c-.83-.21-1.65-.5-2.43-.86-5.17-2.93-12.29-2.44-20.23-.49-1.6.39-1.95.75-2.72,2.56l3.16.47-.21.48c-1.02.49-2.06,1.02-3.08,1.46-2.62,1.14-3.35,1.9-4.33,4.58-1.48,3.27-4.11,5.87-7.39,7.32-.96.29-1.7,1.04-1.99,1.99-1.72,4-4.93,7.29-8.31,10.51-.96.91-1.79,1.95-2.47,3.09-1.88,3.35-4.14,6.46-6.75,9.26-1.81,1.93-3.66,3.91-5.24,5.98-2.23,2.92-3.46,5.18-2.52,7.18.06.35.08.71.05,1.07m-116.12,48c0-.91-.61-.9-1.59-.19-2.4,1.61-4.97,2.96-7.65,4.04-2.51,1.17-4.74,3.51-6.74,5.95.02.18.04.35.05.53,2.64-1.47,5.29-2.94,7.94-4.41-.37.53-.83.98-1.38,1.33-2.82,1.73-5.65,3.34-8.47,5.17-1.27.94-2.49,1.95-3.65,3.04.3.29.53.32.78.2,1.67-.77,3.36-1.64,5.02-2.35.47-.15.98-.18,1.47-.09.5.02.9.37,1.44.15,2.82-1.16,5.65-2.29,8.53-3.76,2.25-1.15,4.56-2.77,6.85-4.2,3.09-1.93,6.19-4.57,9.28-5.64.31-.18.59-.39.84-.64,1.79-1.43,3.57-3.02,5.38-4.27,2.24-1.55,4.51-2.83,7.01-4.38-.4-.06-.6-.18-.88-.11-1.42.33-2.83.62-4.3,1.09-3.26,1.06-6.54,2.14-9.86,3.39-1.15.59-2.24,1.28-3.27,2.07-.37.24-.74.5-1.33.91.47-.78.79-1.31,1.32-2.18-1.05.61-1.86,1.01-2.65,1.55-1.1.75-2.19,1.61-3.28,2.43l-.87.36m72.92,39.39c.43,1.16.86,2.31,1.29,3.47l.35-.26c-.2-1.44-.31-2.94-.61-4.3-.96-4.39-2.44-8.42-2.87-13.17-.64-7.01-.55-14.51-.78-21.79,0-.25-.05-.48-.08-.72l-.25.12c-1.29,3.21-2.57,6.43-3.86,9.64l-.52.12c.82-2.27,1.61-4.54,2.48-6.83,1.55-4.1,3.73-8.36,4.51-12.26.38-1.91,1.09-3.97,1.53-5.91.08-.63.07-1.28-.02-1.91l-.32.22c-.56,1.88-1.11,3.76-1.67,5.64l-.44.15,1.13-5.5-.31.12c-.49,1.36-.98,2.72-1.47,4.07l-.51.18.74-3.46-.5.2c-.62,1.91-1.21,3.81-1.89,5.74-1.02,2.89-2.12,5.81-3.15,8.7-1.76,4.91-2.1,9.19-2.88,13.66-.56,2.54-.38,5.18.52,7.62.27.68.38,1.41.3,2.14-.37,3.69,0,6.74,2.24,8.39.51.37.4,1.43.7,2.08.47,1.05,1.02,2.07,1.66,3.03.34.51,1.06.65,1.39,1.16,2.45,3.73,3.35,8.63,2.61,14.72-.14,1.13-.1,2.16-.15,3.24l.41-.17c.65-1.54,1.31-3.08,1.96-4.63,2.54-6.54,3.75-12.41,2.46-17.04-.47-1.29-.17-2.73.78-3.73.16-.26.25-.55.24-.86.06-2.04.08-4.05.14-6.08.04-1.5-.9-2.49.62-4.76.11-.24.14-.52.07-.78-.2-1.45-.4-2.9-.62-4.34-.09-.61-.52-1.1-.28-1.79,1.02-2.9.49-4.85.35-7.04-.02-.39-.04-1.05.19-1.29,1.47-1.51,1.13-2.49,1.19-3.47.11-1.69-.1-3.2-.09-4.83-.09-1.02.02-2.04.32-3.02.97-2.68,1.51-5.5,1.6-8.35.16-2.25.54-4.66-2.99-3.16.52-.46,1.14-.79,1.81-.98,1.19-.17,2.28-.11,3.49-.34,1.37-.28,2.71-.66,4.03-1.13,1.06-.44,1.89-1.3,2.27-2.39.34-1.24.61-2.49.79-3.76l-.56.25c-.21.83-.4,1.65-.65,2.49-.32,1.31-1.27,2.38-2.54,2.85-.69.25-1.4.44-2.13.55-1.7.25-3.37.43-5.05.64-.35.04-.69.06-1.04.09.03-.14.07-.28.1-.42,2.81-2.03,5.82-3.76,8.99-5.16-1.43.23-2.82.63-4.15,1.19-2.52,1.09-4.74,3.34-7.01,5.58-.76.57-1.21,1.45-1.22,2.4-.09,1.71-.43,3.57-.62,5.34-.17.81-.18,1.64-.03,2.46.57,1.5,1.38,2.8,2.04,4.22.57,1.23,1.08,2.51,1.62,3.77l-.43.38c-1.32-2.25-2.64-4.49-4.06-6.92-.18.33-.33.68-.46,1.04-.52,3.01-1.08,6.03-1.5,8.98-.07.58.12,1.16.52,1.57,1.17,1.26,2.54,2.3,3.63,3.64.57.94,1.01,1.96,1.32,3.02l-.24.17-5.12-5.45-.6.38v.96c0,2.04.09,4.04,0,6.14-.24,1.41.71,2.75,2.12,2.99.03,0,.06,0,.09.01,1.64.44,2.84,1.52,4.24,2.31l-.46.58-5.14-2.17-.43.49c.12,3.47-.57,7.59,3.08,8.16.67.11.99.76,1.46,1.17-.1.12-.2.23-.3.35l-2.93-1.02-.34.4c.47,1.56-.37,4.27,2.31,3.89.95-.14,1.54.39,1.38,1.59l-2.62-.73-.41.41c.03.78.15,1.55.36,2.3,1.85,4.15,1.79,9.52.57,15.66-.11.86-.15,1.73-.12,2.59-1.18,1.14-1.38.77-1.38-.13.1-2.13.04-4.27-.16-6.39-.41-2.15-.93-4.27-1.58-6.36l1.56-.64m-116.44,20.27c1.79-.8,3.58-1.61,5.37-2.39,1.53-.67,2.26-1.6,2.17-2.89,1.24-.89,2.71-1.08,4.03-3.42l-8.69,3.59c.38-.52.88-.95,1.46-1.25,3.35-1.54,6.68-3.01,10.03-4.57.55-.36,1.07-.78,1.54-1.25-.39-.05-.72-.32-1.17-.13-3.69,1.59-7.41,3.27-11.11,4.88-.6.22-1.23.4-1.86.53.11-.34.21-.69.32-1.03.24-.21.49-.4.77-.56,4.61-1.8,9.21-3.56,13.83-5.38.8-.33,1.56-.76,2.26-1.27.33-.38.6-.8.8-1.26-.29-.04-.59-.04-.88,0-.53.13-1.1.36-1.65.56l.11-.48c.43-.23.87-.5,1.29-.68,1.09-.45,2.16-.84,3.25-1.29,1.23-.46,2.21-1.41,2.72-2.61-3.23,1.13-6.64,3.07-9.43,3.13,1.38-.77,2.81-1.45,4.29-2.02,2.56-1.06,5.11-2.07,7.68-3.21.42-.18.95-.94,1.43-1.43-.39-.08-.79-.07-1.18.03-2.04.84-4.08,1.74-6.14,2.69-4.5,2.08-9.01,4.22-13.52,6.32-.71.33-1.41.6-2.11.89.03-.21.05-.41.08-.62,1.2-.71,2.41-1.47,3.61-2.13,4.56-2.63,9.36-4.83,14.34-6.57,1.93-.63,3.89-1.33,5.86-2.08.55-.31,1.07-.68,1.54-1.1-.37-.11-.74-.18-1.12-.2-.4.05-.79.14-1.17.26,2.04-1.64,3.68-1.05,5.67-2.9l.18-.5-2.48.25.18-.45c1.22-.43,2.44-.83,3.68-1.3.32-.2.61-.43.88-.7-.14-.14-.22-.4-.44-.38-.58.03-1.15.15-1.7.35-3.94,1.47-7.89,2.98-11.83,4.49-2.07.79-4.14,1.6-6.22,2.4.03-.16.06-.32.09-.48.62-.41,1.26-.78,1.93-1.1,4.55-1.72,9.08-3.37,13.64-5.08,3.49-1.31,6.85-1.38,10.68-5.64.12-.13.32-.2.43-.33.26-.31.67-.76.67-.93,0-.21-.31-.35-.57-.27-.9.25-1.86.65-2.77.92-.58.14-1.16.26-1.75.34.31-.48.46-.62.58-.65,1.99-.59,3.96-1.11,5.97-1.77.69-.32,1.33-.72,1.92-1.2.16-.2.29-.43.36-.67-.43-.12-.87-.14-1.31-.06-.85.23-1.77.64-2.65.94-4.32,1.49-8.62,2.93-12.95,4.46-2.48.88-5,1.9-7.5,2.86.15-.25.37-.45.64-.57,5.32-2.11,10.66-4.23,15.97-6.3,3.37-1.31,6.87-2.98,9.81-2.96.73,0,1.57-.71,2.21-2.12l-3.85.9c.08-.19.15-.39.23-.58,1.56-.39,3.1-.71,4.69-1.19.61-.3,1.18-.67,1.7-1.1-.23-.27-.33-.8-.71-.75-1.68.21-3.34.54-4.97.99-3.82,1.1-7.69,2.36-11.53,3.51-.62.15-1.25.24-1.89.29.12-.37.24-.74.36-1.11.55.02,1.1-.03,1.64-.13,1.62-.43,3.28-.96,4.91-1.42,4.75-1.34,9.88-3.74,14.14-3.74.61-.12,1.18-.39,1.67-.77,3.35-2.28,6.7-4.6,10.04-6.95.52-.44,1.01-.93,1.45-1.45-.38-.12-.78-.15-1.17-.09-5.22,1.61-10.44,3.24-15.69,4.94-1.81.58-3.68,1.38-5.52,2.09.3-.37.67-.67,1.1-.87,2.46-1.03,4.99-2.23,7.37-3,5.39-1.74,10.73-3.32,16.05-4.85,3.35-.96,6.56-4.45,9.9-6.24-5.27-.22-11.47,2.07-17.57,4.07.49-.39,1.03-.71,1.61-.97,6.28-2.66,12.22-4.36,17.6-4.66,1.78-.1,3.76-1.72,5.56-2.24l.19-.5-3.33.39,2.02-1.23-1.28-.53c.08-.15.16-.3.24-.45l2.26-.41.22-.4-1.58-.62.12-.38c1.49-.07,2.53-.68,2.61-2.46,0-.04.16-.18.25-.27.12.7.35,1.2,1.41.81.42-.15.68.24,1.13.43-3,1.91-3.28,2.45-2.38,4.04.07.11.06.31.16.38.28.15.56.29.85.41.42-.61.9-1.21,1.24-1.82.2-.36.04-.74.25-1.08,1.04-1.66,1.75-3.52,3.9-4.5.81-.56,1.55-1.23,2.19-1.98,1.22-1.17,2.44-2.33,3.64-3.53,1.83-1.82,3.65-3.66,5.45-5.52.21-.29.33-.64.37-.99.09-.51.04-.95.15-1.47.4-1.88,2.92-4.89,4.52-5.41,0,.04,0,.1-.03.13-.25.35-.52.69-.81,1.02-2.18,2.24-2.33,3.97-2.1,5.55.09.63.55.99.74,1.56.06.4.07.81.02,1.21-.54.17-1.22.54-1.6.45-.32-.07-.2-.78-.48-.96-.37-.18-.81-.16-1.16.05-.65.65-1.18,1.41-1.57,2.24-.55,1.62-.32,2.78.75,3.18,1.27.47,1.91,1.41,1.74,3.26-.08.88.73,1.3,1.21,1.84.2.22.6.22.91.32l-.23.5-1.95.45c-.65,1.66.59,1.34,1.49,1.45-1.66.78-2.9-.24-2.38-1.68.16-.34.21-.72.14-1.09-.73-1.58-.62-3.85-2.23-4.71-.69-.37-1.16-.33-2.2.56-.84.72-1.72,1.35-2.58,2.02-.04-.1-.09-.2-.13-.3l3.76-3.86-.19-.23c-.96.86-1.96,1.67-2.88,2.58-2.22,2.2-4.41,4.44-6.59,6.69-.17.18-.27.42-.28.67.04.13.32.17.49.06.86-.48,1.67-1.05,2.4-1.7,2.22-2.29,4.44-4.14,7.05-5-1.61,2.52-4.54,2.62-5.99,5.84,2.02-.9,3.85-1.7,5.69-2.56.95-.44,1.76-.82,2.05,0s.26,1.65-.78,2.93c-1.46,1.8-2.87,3.64-4.38,5.4-4.5,5.2-8.98,10.42-13.58,15.54-2.23,2.48-4.7,4.74-7.1,7.06-.65.56-1.33,1.09-2.05,1.57.14-.45.28-.91.42-1.36.39-.33.77-.7,1.17-.98,2.99-2.25,5.7-4.84,8.1-7.71l-7.65,2.19.07-.36c.26-.2.53-.37.82-.51,1.89-.63,3.83-1.37,5.65-1.8,2.01-.48,3.65-1.86,5.28-3.95,1.48-1.89,3.02-3.75,4.66-5.79-3.21-.08-6.66,1.67-10.23,3.69.43-.53.94-.99,1.51-1.36,2.37-1.51,4.73-2.79,6.77-2.94,1.94-.15,3.71-1.38,5.6-3.46,2.26-2.48,4.65-4.9,5.17-7.82-.3.02-.59.08-.87.17-2.76,1.18-5.51,2.24-8.3,3.64-1.88.97-3.66,2.13-5.3,3.48-2.07,1.68-4.05,3.68-6.05,5.57-.48.46-1.24,1.22-1.28,1.53-.16,1.32-1.37,2.25-2.24,3.32-1.18,1.47-2.32,2.96-3.52,4.42-2.66,3.2-4.36,6.9-7.74,9.75-.48.49-.91,1.03-1.29,1.61-2.12,2.86-4.79,5.26-7.86,7.06-1.68,1.18-3.27,2.48-4.76,3.89-1.16.95-2.33,1.87-3.51,2.74-1.71,1.27-3.43,2.45-5.14,3.72-1.29.96-2.57,2.2-3.85,2.99-2.33,1.43-4.67,2.61-7,3.92-.3.17-.61.42-.92.63-.07.18-.13.36-.19.54.95-.06,1.89-.23,2.8-.48,5.01-1.83,10.03-3.72,15.07-5.67,4.6-1.7,8.9-4.15,12.72-7.23,1.69-1.38,2.61-1.76,3.33-.88.76.94,2.13.57,3.88-.91,1.35-1.15,2.69-2.32,4.04-3.48.62-.66,1.31-1.24,2.07-1.73,2.32-.89,3.82-2.92,5.31-5.01.68-.96,1.22-1.97,1.94-2.9.82-1.08,1.72-2.09,2.7-3.02,1.79-1.64,3.69-3.07,5.46-4.72,2.26-2.26,4.34-4.68,6.24-7.25,2.23-2.62,3.85-5.7,4.75-9.03.2-.82.59-1.71.89-2.57.08,1.42-.06,2.85-.42,4.23-.31,1.2.29,1.2,1.11.52,1.18-1.04,2.3-2.15,3.35-3.33,1.07-1.15,1.2-2.76,2.95-3.67.87-.5,1.65-1.13,2.33-1.86.88-.92,1.64-1.99,2.84-3.48-.16.74-.4,1.46-.74,2.14-1.57,2.25-3.14,4.62-5.77,5.74.33.17.71.18,1.05.02,2.48-1.24,4.39-3.39,5.33-6.01,1.37-3.29,2.6-6.54,2.02-9.2.88-.23,1.74-.57,2.54-1,.79-.64,1.53-1.35,2.19-2.11l-.16-.17-2.73,1.65-.03-.3,1.61-1.53c-3.73,1.13-5.18.92-4.93-.89.35.1.71.18,1.07.23.88.16,1.79.16,2.67.02.54-.13,1.39-1.04,2.1-1.6-.16-.4-.19-.97-.52-1.15-1.73-.99-3.91-1.06-7.1,1.09-.33.15-.69.23-1.05.23l.16-.42c2.16-1.56,4.32-2.77,5.96-2.4,1.49.41,2.95.97,4.34,1.66.77.33,1.46.77,2.18,1.16.22-.24.44-.48.65-.72-.82-1.26-1.63-2.52-2.45-3.77l.29-.24,5.02.55-.3.61-2.12.43q.45,2.87-1.04,4.89l-1.16-.48c-1.98,2.06-3.86,4.01-5.6,5.83l-2.11,6.61c2.43-2.21,4.26-4.99,5.32-8.1.13.58.23,1.02.35,1.55l1.7-1.69h.29s-.79,1.83-.79,1.83c1.25-.58,1.48-1.6,2.03-2.55.45-.8,1.02-1.53,1.68-2.17,1.87-1.7,3.75-3.29,4.61-5.6.18-.28.39-.54.63-.77h.44c-.45,1.15-1.02,2.25-1.71,3.28-1.2,1.36-2.47,2.65-3.8,3.87-.37.37-1.03.93-1.05,1.13-.17,1.82-1.4,3.4-3.28,4.89.92.29,1.93-.28,2.51-1.65,1.11-2.31,2.8-4.29,4.9-5.76.57-.49,1.11-1.01,1.62-1.56,1.87-1.9,2.64-3.87,1.93-5.12-.34-.48-.75-.91-1.21-1.27l1.07-1.13c-.22-.17-.36-.47-.67-.47-1.56-.02-2.91-.32-3.62-1.51,2.33.11,4.3.87,7.68-.43-.61-2.23-1.16-4.26-1.71-6.28.39,0,.77.16,1.04.44.59.48,1.21.14,1.81-1.06.24-.48.37-1.01.39-1.55.02-1.46-.76-2.1-2.15-2.04-1.02.05-2.09.18-3.18.28,5.13-3.94,4.77-7.74,6.35-11.49,2.07-.87,3.66-2.59,4.37-4.71l-1.01.15,2.31-2.36c-.21.96-.34,1.57-.48,2.18l.32-.02,3.16-4.24c.27,2.11-.5,4.44-1.36,6.77-1.8,4.92-6.26,8.33-10.19,12.26.52.12.89.2,1.26.28,1.46.32,2.54.94,1.73,3.36-.18.57-.14,1.2.12,1.74.82,1.86,1.68,3.64,4.17,3.72,1.15.04,1.92.72,2.86,1.11-.05.07-.1.15-.15.22l-3.05-.82c-.13.17-.26.33-.39.5.99,1.28,1.13,3.34,2.98,3.84,1.04.28,1.6,1.24,2.38,1.89l-.26.29-2.15-1.29c-.43,5.17,3.38,6.38,3.99,10.32-1.11-1.18-1.38-3.22-2.98-3.88l-.55.46c.53,3.84,1.07,7.68,1.6,11.53l-.33.25c-.23-.56-.47-1.13-.7-1.69l-.47.3-3.2,15.22c-.31-.21-.47-.59-.4-.96.24-2.46.66-4.91,1.26-7.31,1.58-5.21,2.18-10.66,1.76-16.09-.21-4.8-1.86-9.42-4.73-13.27-.43-.54-.88-1.05-1.32-1.57l-.31.28c.04.67.08,1.35.12,2.03l-.3.24-1.2-1.55c-.36,1.67-.47,3.39-.33,5.09.26,1.05.67,2.05,1.2,2.99.55,1.1.97,2.26,1.24,3.45.32,2.03.06,4.5.6,6.33.43,1.81.49,3.7.18,5.53-.24,2.59-.27,5.2-.07,7.79.16,3.32.49,6.53.8,9.76.13.57.34,1.12.62,1.63.29-.53.39-.68.44-.81,1.48-4.26,2.99-8.54,4.39-12.78.39-1.56,1-3.05,1.83-4.42.82-1.28.62-2.74.82-4.09.1-.63.03-1.18.13-1.81.28-1.1.47-2.23.57-3.36-.05-1.59-.4-2.98-.58-4.49-.08-.43-.03-.87.14-1.27.79-1.65.91-2.91.45-3.89-.92-1.98-1.77-4-3.45-5.28-1.6-1.32-3.03-2.83-4.26-4.5-1.03-1.41-1.96-2.89-2.8-4.42-.32-.61-.62-1.24-.87-1.89,1.85.63,2.56,2.61,5.07,2.58l2.96-8.49c.47.79.51,1.82-.22,3.38-.75,1.6-.37,1.85,1.14.93,1.7-1.02,2.97-2.62,3.58-4.51.29-1.11.97-2.08,1.9-2.75,1.83-1.47,3.22-3.4,4.03-5.6-1.27,1.43-2.75,3.2-4.34,4.84-1.18,1.22-2.15,2.21-2.4,3.69-.26,1.52-2.37,3.6-3.59,3.62.45-.5.89-.93,1.24-1.4.55-.64,1.02-1.35,1.4-2.11.48-1.41,1.34-2.65,2.49-3.6.98-.89,1.87-1.87,2.66-2.93.79-1.04,1.37-2.17,2.05-3.26h-.34c-4.22,4.2-7.25,6.8-8.95,7.6,2.53-2.51,5.39-4.3,7.21-7.44,1.74-2.99,2.7-5.64,2.58-8.11l-6.07,6.82-.34-.11c.39-.8.85-1.57,1.37-2.29,1.41-1.82,2.96-3.52,4.64-5.09.89-.59,1.44-1.58,1.46-2.65.11-.83.29-1.68.44-2.53l.44-.23c.09.17.16.36.2.55.31,2.88.72,5.69.86,8.68.19,2.23.07,4.48-.34,6.68-.9,4.2-2.89,8.75-4.97,13.31-.67,1.67-1.25,3.37-1.72,5.1l.54-.12c1.08-3.28,3.6-6.38,5.9-9.44,1.15-1.38,2.03-2.96,2.61-4.67,1.26-4.12,1.63-8.45,1.09-12.72-.06-.35-.17-.67-.34-1.29l-1.1,2.8-.25.07c.41-1.86.81-3.72,1.22-5.59.66,1.86,1.16,3.77,1.51,5.71.19.87.46,1.71.83,2.52.88,1.66,1.04,3.6.43,5.38-.2-1.24-.39-2.47-.59-3.71l-.63.35c-.27,1.31-.65,2.67-.78,3.91-.37,3.34-2.35,6.67-5.38,10.08-.73.82-1.32,1.74-1.98,2.62l.37.18c1.33-1.49,2.61-3.02,3.99-4.46,2.36-2.45,4.36-5.21,5.95-8.22,1.54-2.9,2.5-5.73,1.36-7.23-.76-1.01-.58-2.54-.87-3.81-.23-1.38-.64-2.72-1.23-3.99-.74-1.32-1.82-2.34-2.07-4.11-.03-.18-.2-.26-.25-.43-.21-.6-.75-.52-1.6.03-.58.34-1.17.65-1.79.93l.04-.55,4.49-2.96-.11.48c-.55,1.31.6,4.35,1.72,4.5.04,0,.16-.12-.07.06.53-1.57.91-2.96,1.5-4.39.72-1.77,1.5-3.58,2.45-5.37,1.01-1.97,2.49-3.66,4.32-4.9-.62.9-1.31,1.74-2.07,2.53-1.6,1.71-1.61,1.71-1.05,2.13l2.84-2.82.22.26c-.43.49-.86.99-1.31,1.46-1.02.96-1.98,1.98-2.87,3.06-1.31,1.8-1.39,3.79-.32,4.59.23.17.88-.14,1.34-.23.48-.09,1.33-.45,1.37-.22.23,1.36.27,2.86.37,4.31l-.39.25c-.1-.89-.26-1.77-.48-2.64-.21-.32-.62-.43-.96-.26-1.68,1.36-2.31.95-2.74.06-.06-.12-.3-.08-.69-.15,0,4.11.81,8.17,2.38,11.97v-.05c-.07.64-.14,1.28-.22,1.91.74-.43,1.45-.92,2.1-1.47,2.87-2.84,5.51-5.8,6.49-9.23.15-.71.71-1.26,1.43-1.38,2.91-.8,6.47-4.21,7.64-7.28.52-1.41,1.53-2.6,2.84-3.35.71-.43,1.43-.89,2.15-1.33,0-.1,0-.19,0-.29l-1.72.53.44-.31c.15-1.31.58-2.84.36-3.87-.24-1.09-1.09-1.71-1.68-2.54l-.78.7c.09.36.07.84.29,1.04.91.84.38,2.63-1.46,4.52-.02-.17,0-.35.03-.52.62-1.7.95-3.21.13-4.08-.15-.16,0-.74.18-1.16.79-1.84.7-3.08-.04-3.95-.3-.39-.57-.79-.83-1.21l.29-.31,1.55.18c1.2-3.25-.61-3.72-2.17-4.42,2.05-1.78,2.27-2.46,1.3-3.62-.38.39-.77.77-1.14,1.17-2.71,2.97-2.98,3.11-5.44,2.98-.82-.15-1.65.24-2.05.97-.24.3-.93.38-1.41.56.05-.25.11-.5.16-.74,1.07-.5,2.33-1.39,3.17-1.44,2.85-.18,4.8-2.07,7.27-5.87l-8.38,1.53.17-.41c.47-.13.94-.26,1.41-.4.55-.17,1.1-.35,1.66-.53,1.94-.63,2.74-1.38,3.89-3.6.27-.38.58-.73.92-1.05,0,.33.12.65-.05.99-.42.87-.97,1.75-1.57,2.79,2.24-1.23,3.02-3.38,4.43-4.96l.38.12-2.63,4.19c.15,0,.3,0,.45-.04,1.71-.55,1.66-.56.44,1.37-.23.5-.33,1.05-.26,1.6-.02.9.04,1.75.07,2.62.01.51-.19,1.27.08,1.49,1.03.79,1.11,2.22.76,4-.15.79-.29,1.57-.44,2.34,3.64-1.01,7.1-2.61,10.22-4.73.88-.49,1.8-.91,2.74-1.27l-.08.52-5.43,3.27c2.04,1.22,5.23-1.12,8.1-2.56l-.1.41-2.73,1.96c-.04.16-.08.31-.13.47,1.54-.18,3.08-.38,4.6-.51.36-.04.73.07,1.01.29.32.26.39.82.77.99,1.3.58,2.69,1.05,4.05,1.56l-.27.37c-.3-.06-.59-.13-.88-.22-4.11-1.61-8.55-2.19-12.93-1.7-2.61.38-5.2.92-7.75,1.6-.48.22-.93.5-1.33.83.15.31.23.71.48.91.35.27.96.27,1.26.6,1.39,1.48,3.93.94,6.53.34,6.23-1.43,11.83-1.7,16.48-.22.45.12.91.2,1.38.27-2.45-4.25-5.36-7.9-10.69-8.79-.14-.02-.34-.04-.35-.17-.16-1.63-1.9-.88-3.27-.65-1.91.33-3.64,1.34-4.85,2.86-.6.55-1.26,1.03-1.96,1.44,1.17-1.41,2.33-2.6,3.44-3.84,1.17-1.31,2.28-2.68,3.43-4.01,1.08-1.25,1.59-2.3,1.03-3.05-.41-.62-.85-1.22-1.34-1.78-.65-.49-.9-1.35-.62-2.12.85.59,1.5,1.48,2.61,1.67,1.13.2,2.7-.29,4.08-.48.13-.21.25-.43.38-.64-.3-.25-.6-.51-.9-.76-.64-.53-1.93-.74-1.8-1.66.2-1.39-.16-2.8-1-3.92l.84-.34c.43-.26.86-.51,1.28-.76l-.24,1.39.3-.04,3.38-4.32-.24-.16c-.71.76-1.41,1.52-2.13,2.26-.34.32-.7.61-1.07.89.52-.85,1.09-1.68,1.7-2.46,2.08-2.41,4.22-4.77,6.38-7.2-.71-.32-2.79,1.92-2.87.52,2.68-1.85,5.23-3.59,7.78-5.37.47-.33.92-.78,1.39-1.18-.33-.12-.6-.4-1.01-.32-1.66.34-3.38.82-5.06,1.19-.34.08-.58-.11-.86-.18.39-.36.81-.7,1.25-1.01.36-.16.73-.29,1.11-.4,1.61-.73,3.22-1.45,4.83-2.24.38-.27.73-.59,1.04-.94-.01-.1-.02-.21-.03-.32l-2.91.99c2.69-2.99.04-1.63-.39-2.15l1.41-1.22-3.01-.33.24-.43c.61-.15,1.2-.36,1.77-.62.48-.28.88-.67,1.17-1.13.25-1.02-.38-2.05-1.4-2.3-.01,0-.03,0-.04,0-.46-.03-.68-.45-1.02-.68s-.58-.71-1.03-.56c-.4.14-1.01,1-1.53,1.54-.04.04-.05.12-.09.15-.36.32-.71.63-1.07.95.09-.35.22-.69.37-1.01.41-.72.99-1.44,1.32-2.14.44-.95.41-1.6-.45-1.58-.63.02-1.19-.1-1.83-.08-.4,0-.79.12-1.11.37-.31.41-.53.88-.64,1.38-.09.39-.15.79-.17,1.19l-.31.16c-.24-.93-.48-1.87-.72-2.8l-.6.39-.98,7.42-.54.28c.06-.49.07-.99.05-1.49-.18-1.96-.49-3.91-.94-5.83-.28-1-1.11-.53-1.83.95-.77,1.58-1.37,3.13-1.93,4.42l-2.14,2.16c-.99-.11-.95-.83.16-2.21.55-.66,1.07-1.35,1.55-2.06.31-.49.73-1.31.6-1.45-.35-.34-.89-.41-1.31-.16-1.9,1.26-3.79,2.69-5.67,4.11-.37.33-.68.73-.91,1.16-.56.94-1.06,1.89-1.63,2.92-.57-1.85-.26-4.49-2.19-5.24-.81,2.15-1.63,4.21-2.33,6.23-.16.47-.11,1.03.14,1.19.68.31,1.4.53,2.13.66.11-2.24.2-4.16.3-6.09.47.26.78.75.81,1.29.06.58-.2,1.39-.09,1.93.34,1.76-.55,4.35.49,5.62v-.02c-1,.66-1.26,1.18-.8,1.71.18.21.07.71.09,1.08l-.46.32c-.39-.79-.63-1.64-.7-2.52.19-1.17-.62-2.28-1.79-2.46-.35-.05-.7-.02-1.04.09.5.85.92,1.74,1.25,2.67.6,1.81.96,3.7,1.05,5.61,0,1.55-1,3.65-2.88,5.59-.08-.4,0-.82.22-1.16,2.31-3.54,2.06-5.84,1.34-7.9-.11-.3-.59-.58-.87-.39-.58.39-1.05.91-1.38,1.53-.25,1.04-.38,2.1-.39,3.17.06.53.22,1.05.45,1.53-.61.15-.97.34-1.14.27-1.21-.44-.74-4.27.83-6.01,1.15-1.27,1.27-1.91.56-2.4-1.06.95-2.06,1.98-2.97,3.07-.61.98-1.13,2.02-1.53,3.11-.72,0-1.44.04-2.16.12-1.67.3-3.38.67-5.07,1.02l.11-.45c1.48-1.32,3.38-2.05,5.36-2.07l6-5.89-.57-2.12,1.62-.79c.26-1.12.55-2.14.68-3.07.06-.43-.03-.99-.33-.99-.28,0-.93.66-1.4,1.07-.22.24-.42.49-.6.76-2.03-.07-4.18.82-6.58,3.19-.85.89-1.77,1.72-2.73,2.49-2.13,1.59-2.28,1.74-2.66,3.81-.08.57-.21,1.14-.37,1.7-.19.48-.42.95-.67,1.4-.15-.28-.46-.48-.44-.87.16-2.72-1.88-3.68-5.16-2.92.01.19.04.37.1.55.1.21.24.39.4.56,1.52,1.49,2.02,3.78,1.6,6.76-.2.55-.47,1.08-.8,1.56-.18-.29-.3-.61-.35-.95-.02-1.06.09-2.2.08-3.27s-.73-.86-2.04.24c.19.66.34,1.33.57,1.95.96,3.12,1.14,6.42.51,9.62-.27.63-.63,1.23-1.05,1.77-.34-.12-.67-.27-.97-.45-.38-.28-.59-.76-1.03-.94-1.29-.51-2.68-.87-3.99-1.36-.34-.19-.65-.43-.9-.73l.25-.3,5.09,1.75c.09-.39.13-.78.12-1.18-.55-1.39-.78-3.14-1.77-4.05-2.42-2.22-3.19-5.9-4.83-8.8-.06-.11-.02-.32-.02-.49l.45-.37c1.13,2.18,2.27,4.35,3.4,6.53l.24-.17.38-1.86c.77,1.33-.31,3.98,1.43,4.42l.62-1.11c.18,1.5.35,2.9.51,4.3l.43-.32c1.57-6.8-4.98-13.86-8.71-13.3-.06.29-.14.57-.16.82-.22,2.04-.4,4.06-.65,6.12-.09.75-.61,1.81-.44,2.31.23.92.38,1.86.46,2.8.36,1.64,1.06,3.18,2.07,4.52.66.78,1.44,1.46,2.3,2.01l-.44.51c-1.93.16-2.93-.97-3.77-2.09s-.98-2.95-1.51-4.73c-3.27,4.75-7.15,9.06-6.82,13.18,0,.81-.05,1.62-.16,2.42.82-.74,1.18-1.4,1.65-1.79,1.36-1.17,2.42-2.66,3.07-4.34.81-1.86,1.46-2.43,2.63-2.96-.56.7-1.06,1.44-1.5,2.22-.89,2.11-2.19,4.02-3.82,5.63-.81.81-1.69,2.1-1.1,2.84.56.72,1.17,1.16,2.83-.32.85-.74,1.77-1.4,2.74-1.98.45-.22.94-.38,1.43-.46v-.03c-2.65,1.76-5.32,3.45-7.47,6.43l-1.14.44c.33-.54.71-1.09.98-1.63.2-.4.47-1.05.34-1.13-.77-.51-1.61-.91-2.5-1.17-.62-.17-1.45.43-2.09,1.39-.82,1.22-1.58,2.45-2.4,3.67-.39.59-.85,1.16-1.27,1.75l-.38-.17c1.8-2.71,2.76-5.76,5.83-7.63.81-2.89,1.77-5.74,2.88-8.53,1.1-2.46,1.76-4.44.64-5.6.07-.11.15-.21.23-.31l1.68,1.41.28-.28c-.15-.53-.31-1.06-.52-1.76l1.9.28c.04-.33.05-.66.01-.98-.47-1.3-2.05-.62-3.58.04-1.66.71-2.21,1.45-1.53,2.3.87,1.1.43,2.92.18,4.66-.09.38-.21.75-.37,1.11-.21-.62-.29-1.27-.25-1.92-.04-.69-.25-.89-1.29.17-1.64,1.66-1.9,2.74-1.7,4.06.28,1.77-.27,3.56-1.49,4.87-1.24,1.43-2.6,2.63-2.46,4.3-1.6-.76-1.64-.89-1.12-2.65l-8.82-2.71.32-.48,6.38,1.32.21-.27-2.06-2.1c.46-.13.96-.03,1.34.27,1.05.96,2.05,1.96,3.05,2.97.54.54,1.35-.33,2-1.02.17-.18.02-.82-.13-1.12-.13-.26-.53-.27-.73-.48-2.43-2.55-7.41-.96-11.21-1.3-.05,0-.09.02-.14.04-1.5.37-2.98.69-4.51,1.12-1.24.36-2.53.85-3.8,1.29-.05.15-.1.3-.14.46.63,0,1.25,0,1.89,0,3.68-.08,6.91.49,9.3,2.29,1.37,1.03,2.65,2.16,4.04,3.18.36.18.79.16,1.12-.05,1.44-1.4,1.39-.75,1.17.26-.07.56-.18,1.12-.31,1.67-.26.79-.65,1.62-.99,2.43l-.42.16.61-3.22h-.52s-6.74,8.46-6.74,8.46c1.28-3.27,3.99-5.86,5.97-8.55-.63-.64-1.21.08-1.81.92-1.04,1.46-2.1,2.92-3.15,4.39l-.42-.1,3.72-5.76-.3-.09-2.46,3.04-.29-.1c.39-.62.75-1.26,1.16-1.87.52-.77,1.2-1.59.42-1.79-.8-.2-1.27.75-1.81,1.48-.48.65-.99,1.3-1.48,1.95l-.31-.11c.32-.54.71-1.1.96-1.63.42-.91.21-1.37-.69-.85-1.64.8-3.02,2.03-4,3.57-.67,1.16-1.39,2.31-2.23,3.71.94-4.87.93-4.99-.15-4.83-.33.96-.74,1.88-1.23,2.77-1.73,2.69-3.58,5.36-5.39,8.03-.03.04-.16.06-.27.1.02-.13.03-.26.07-.4.14-.53.29-1.07.43-1.6-.67.37-1.31.8-1.91,1.28-2.46,2.38-4.45,5.2-5.87,8.32-.09.24-.15.48-.16.74,1.5-.78,2.91-1.6,4.27-2.2.76-.29,1.37-.86,1.71-1.6.52-1.04,1.07-2.08,1.6-3.12l.48-.06c-.6,1.26-1.1,2.53-1.81,3.79-1.03,1.54-1.61,3.35-1.65,5.2.02.22.42.19.64.27.22-.35.42-.71.6-1.09-1-.31.24-1.36.68-2.07.5-.81,1.17-1.59,1.77-2.39l.38.14-2.12,3.26c1.41-1.35,2.64-2.77,3.92-4.13.46-.41.96-.77,1.5-1.07,0,.4-.02.8-.02,1.2,0,.23,0,.46,0,1.01,2.03-2.69,3.77-2.84,5.54-3.41.88-.28,1.79-.69,2.64-.9.82-.21,1.18-.68,1.62-1.54,1.1-2.16,2.28-4.33,3.48-6.49.41-.74.99-1.48,1.49-2.21l.45.07-5.17,9.41q1.12.44,2.31-1.12c1.23-1.62,3.55-2.96,4.62-2.66-1.23,2.08-.26,6.12,1.55,6.79.98-.79,2.02-1.52,3.1-2.17,2.53-1.26,3.07-1.9,2.79-4.18-.08-.47-.12-.94-.13-1.42.04-.38.12-.76.22-1.13l.45-.26c.62,1.38.76,2.92.41,4.39-.23.95-.11,1.27.68,1.2.52-.07,1.05,0,1.52.22.58.38,1.12.82,1.61,1.31l-.46.51c-.22-.16-.46-.29-.7-.41-.75-.41-1.57-.69-2.41-.83-1.68.07-3.26.79-4.42,2.02-1.14,1.03-1.21,1.53-.37,1.72.49.11.91.31,1.42.38.32-.02.63-.09.93-.21,0-.33.12-.79-.03-.95-.36-.3-.77-.56-1.2-.76l.37-.46,3.31,1.1.34-.46c-.15-.41-.3-.81-.45-1.22l.23-.23,3.06,2.56c-.52.17-.72.29-.76.25-.88-1.05-2.32-.64-4.32.79-.54.3-1.16.39-1.76.25-.61-.1-1.21-.26-1.79-.48-.6,2.68.64,3.38,2.25,3.76l-2.3-.2c-1.21,1.75-2.36,3.35-3.42,4.98-.21.44-.35.9-.41,1.38.45-.11.89-.28,1.29-.51,1.4-1,2.8-2.06,4.19-3.13,1.24-.95,2.05-1.2,2.38-.23.16.44.54.77,1,.87.82.19,1.81.14,2.67.28.31.05.46.35.68.54-.42.43-.88.81-1.38,1.14-1.33.67-1.87.12-2.34-.56-.47-.61-1.04-1.13-1.68-1.56-.57-.43-1.45.02-2.45.82-1.14.92-2.28,1.87-3.44,2.69-.68.48-1.88,1.17-1.98.98-.14-.7-.07-1.43.2-2.1.21-.55.5-1.06.87-1.51,1-1.4,2.04-2.79,3.18-4.35-.4.04-.74.04-1.11.1-3.22.52-6.46,3.27-9.65,6-.97.96-1.87,1.99-2.68,3.08-.79.94-1.51,1.93-2.32,2.85-1.11,1.26-2.73,2.54-3.31,3.72-.98,1.96-2.26,3.77-3.78,5.35-3.27,3.27-6.16,6.89-8.63,10.8-.66.92-1.38,1.8-2.15,2.62-.31.38-.57.79-.86,1.19.61-.18,1.19-.47,1.7-.86,3.93-2.52,7.87-5.03,11.81-7.54.28-.18.58-.18.85-.38,2.06-1.45,4.12-2.89,6.17-4.41.95-.7,1.85-1.77,2.78-2.37,2.36-1.59,4.48-3.51,6.3-5.7.41-.54.9-1.02,1.45-1.42,2.54-1.47,4.29-3.81,6.06-6.17.36-.48.76-.93,1.45-1.77-.9,2.56-5.03,7.5-6.96,8.7-.69.46-1.32,1.01-1.88,1.61-1.04,1.08-2.04,2.22-3.05,3.34-.84.93-1.65,1.89-2.52,2.78-1.93,1.97-3.89,3.91-5.86,5.83-.43.32-.89.6-1.37.84,2.16-2.22,3.92-4.02,5.84-5.98-.36.02-.44-.01-.51.04-.25.17-.48.36-.71.55-2.93,2.66-5.82,5.12-9.01,6.47-1.81.83-3.31,2.22-4.28,3.97-.97,1.8-2.44,3.3-4.23,4.3l2.86-3.69c-1.89.51-2.49,2.24-3.54,3.28-1.11,1.1-2.09,2.51-3.85,3.28,1.74-2.19,3.75-3.6,4.64-5.83-3.4,1.86-6.6,4.84-9.83,6.21,4.42-5.35,8.95-10.5,12.48-16.15-2.35-.1-2.98-.86-2.37-2.53.93-2.19,2.33-4.16,4.1-5.76-.81.15-1.6.39-2.35.71-.54.27-1.1.49-1.68.66-1.92.3-3.78.44-5.71.77-2.49.42-4.99.88-7.55,1.45-1.56.35-3.74,2.58-4.58,4.4-.96,2.05-2.03,4.11-3.08,6.23-1.38-.27-2.87,1.03-4.33,2.71-2.25,2.61-4.11,5.53-5.54,8.66-.32.89-.98,1.62-1.84,2.04-.8.37-1.41,1.08-1.65,1.93-.74,1.96-1.57,3.94-2.3,5.89-.34.91-.53,1.78-.79,2.69l4-2.23c.75-4.31,3.47-8.63,7.19-12.92.08.07.09.19.02.28-.31.46-.64.91-.95,1.37-2.19,3.03-3.74,6.46-4.56,10.11-.1,1.61-1.21,2.98-2.76,3.43-1.24.32-2.25,1.21-2.72,2.4-.93,2.42-.75,3.09.67,2.99s2.8-.13,4.27-.19c-4.8,1.42-9.36,2.5-14.11,4.27-4.37,1.58-8.6,3.55-12.61,5.89-4.99,2.89-9.81,6.08-14.42,9.55-7.05,5.37-13.69,11.26-19.86,17.64-1.6,1.66-3.21,3.31-4.82,4.96,4.56-5.45,9.55-10.54,14.9-15.22,5.37-4.88,10.86-8.8,16.37-13.07-4.67,1.16-9.77,4.55-14.62,6.68.07-.21.2-.4.37-.54,4.67-2.61,9.34-5.35,13.87-6.92,1.71-.65,3.38-1.42,4.98-2.3,2.36-1.23,4.75-2.57,7.12-3.89.34-.22.67-.47.99-.73.01-.13.03-.27.04-.4-4.97.57-10.56,2.99-16.04,5.01,4.28-1.99,8.66-3.74,13.13-5.24,3.37-1.07,6.48-1.35,9.8-2.25,2.32-.63,4.81-1.7,7.29-2.61.48-1.54.97-3.01,1.36-4.44.07-.24-.18-.46-.4-.5-3.14-.78-6.47-.23-9.2,1.52-.37.25-.8.41-1.25.46-3.34.07-7.22,1.78-11.08,3.44-1.02.45-1.99,1.01-2.89,1.68-1.78,1.32-3.54,2.75-5.29,4.21-.55.47-1.01,1.03-1.38,1.65-1.01,1.74-2.46,3.17-4.21,4.17-1.68,1.03-3.38,2.3-5.06,3.53-.71.52-1.48,1.18-1.19,1.95.04.12-.49.83-.83,1.16-2.77,2.63-5.6,5.17-8.32,7.85-2.3,2.27-4.41,4.64-5.11,7.47-.44,1.1-1.1,2.09-1.94,2.93-4.65,5-9.35,9.94-14.03,14.9-.38.4-.69.88-1.32,1.69.55-.14,1.08-.35,1.58-.61,2.55-1.6,5.01-3.36,7.35-5.26,4.86-4.34,9.59-8.95,14.35-13.5,1.78-1.86,3.92-3.34,6.28-4.35.98-.3,1.93-.69,2.83-1.18,2.89-1.73,5.74-3.45,8.64-4.82,2.6-1.23,5.35-3.55,8.07-4.87,1.46-.91,2.86-1.92,4.18-3.03,2.16-1.54,4.18-2.54,5.82-2.15.25.02.51-.02.75-.1,1.72-.54,3.48-.94,5.26-1.22,2.38-.16,4.64-1.26,7.08-4.09.58-.79,1.47-1.3,2.45-1.38,1.9-.13,3.85-.34,5.64-.5l2.19-2.74.38.07c-.15.46-.32.94-.43,1.38-.08.31-.18.71-.06.85.45.52,3.48-.61,4.37-1.61.81-.92,1.18-1.68.24-1.7-.52-.01-1.29.33-1.66.15-1.89-.82-4.01-.96-5.99-.39-.26.06-.4-.16-.59-.25.27-.36.58-.69.93-.97,1.42-.81,2.52-2.07,3.13-3.59.48-1.01,1.02-1.98,1.62-2.92.37-.49.77-.95,1.21-1.38l.48.13-3.05,6.17-1.83,1.11c-.02.11-.03.21-.05.32l4.07.55c.13-1.66.25-3.19.38-4.72l.46-.27c.14.31.29.63.48,1.03.57-1.57.99-2.94,1.6-4.34.66-1.5,2.45-3.04,3.42-3.06-3.1,3.11-4.63,6.86-3.21,7.88,1.06-1.83,2.6-3.33,4.46-4.35-.03.17-.08.34-.15.5-.14.21-.29.4-.47.58-2.39,2.17-3.12,4.25-3.07,6.14-.08,1.4-.78,2.69-1.91,3.51-.83.66-1.38,1.61-1.55,2.67-.11.43-.19.85-.29,1.27-.09-.04-.24-.03-.27-.12-.57-1.97-1.49-2.27-4.17-.65-2.96,1.8-5.93,3.88-8.9,5.87-.31.21-.6.65-.91.9-1.24,1.07-2.55,2.05-3.92,2.94-2.52,1.38-5,2.34-7.52,3.71-3.05,1.66-6.15,3.35-8.95,6.62-.41.36-.88.65-1.39.85-3.59,1.98-7.18,3.94-10.77,5.94-.38.26-.73.55-1.06.86l-.09.54,3.11-1.61c-.03.17-.07.33-.1.5-.55.32-1.11.68-1.66.96-1.06.55-2.12.96-3.18,1.58-2.42,1.42-4.86,2.83-7.27,4.45-1.22.83-2.6,2.08-2.18,3.46-.67.45-1.25.82-1.82,1.23-2.61,1.89-5.22,3.78-7.83,5.69-.68.49-1.31,1.18-.82,1.46,1.23.71-.1,1.62-1.19,2.52-2.65,2.18-5.31,4.35-7.97,6.52-.8.65-1.28,1.29-.81,1.73.69.65.08,1.49-1.09,2.44-2.28,1.85-4.56,3.73-6.85,5.53-1.41,1.11-2.72,2.11-1.88,3.24-2.07,1.82-3.98,3.47-5.87,5.18-1.2,1.09-1.36,1.8-.55,2.13.55.23,1.12.42,1.87.7-4.17,3.15-8.08,6.15-11.51,10.48l3.29.4-.14.42c-3.36,2.27-6.26,5.17-8.52,8.54-2.07,2.97-2.07,3.23.09,3.39.22.02.42.07.76.12-1.11,1.02-2.12,1.9-3.08,2.85-4.28,4.27-7.2,9.11-10.39,13.84-3.4,5.03-6.5,10.17-10.66,14.93-2.96,3.38-6.05,6.64-9.07,9.97-.82.9-1.62,1.82-2.43,2.72l.19.28c3.98-1.98,7.7-4.44,11.08-7.33,4.04-3.6,8.03-7.32,11.94-11.13,4.71-4.6,9.58-9.09,13.65-14.4.27-.31.56-.6.86-.88.12.04.24.03.24.09.01.53,0,1.08,0,1.61.02,1.23.5,1.3,1.7-.02,2.02-2.23,3.93-4.57,5.87-6.87.76-.91,1.48-1.84,2.22-2.76h.46c-.42,1.4-.84,2.78-1.37,4.54,10.54-11.26,19.28-24.09,25.9-38.02.11.1.15.26.09.4-.29.76-.57,1.51-.92,2.28-3.9,8.16-8.58,15.93-13.97,23.19-.65.88-1.14,1.82-1.71,2.73l.33.08c1.08-1.21,2.2-2.38,3.21-3.63s1.89-2.56,2.85-3.87l.63,1.23c.57-.63,1.18-1.24,1.7-1.9,1.57-1.96,3.06-3.97,4.67-5.89.41-.49,1.49-1.13,1.72-1.02.68.34,1.31-.33,1.87-1.07,1.67-2.18,3.32-4.38,4.89-6.6,1.27-1.79,1.53-1.99,2.26-1.08.5.62,1.09.4,2.02-.78,1.45-1.82,2.94-3.61,4.37-5.43,1.35-1.72,2.55-3.46,4.53-4.47.94-.67,1.81-1.42,2.59-2.26-1.19-.74-2.3,1.05-3.53,2.01.26-.67.43-1.13.61-1.6-.12.13-.25.26-.37.39l-2.29-1.1-.03.06c1.14-.92,2.28-1.96,3.44-2.74,1.05-.61,1.92-1.49,2.53-2.54.09-.1.19-.2.29-.28,0,.3,0,.59,0,1.2,3.97-5.92,6.43-11.48,9.62-17.04-1.03,2.53-2.24,5.08-3.57,7.64-1.38,2.64-2.88,5.28-4.47,8.19,1.6-1,3.04-1.29,4.22-3.1,3.74-5.77,7.48-11.54,11.2-17.32.42-.65.84-1.29,1.26-1.94l.43.07c-3.53,6.14-7.16,12.26-11.57,18.45,3.12-1.61,5.89-3.84,8.12-6.55,5.03-6.35,9.57-13.06,13.61-20.08.42-.7.9-1.4,1.35-2.1l.29.04c-.21.44-.38.89-.65,1.33-2,3.28-3.88,6.59-6.06,9.84-2.28,3.4-4.86,6.74-7.28,10.12-.29.49-.54,1-.73,1.54.52-.24,1.02-.54,1.48-.88,1.61-1.48,3.18-3.02,4.75-4.56.84-.75,1.62-1.55,2.35-2.41,3.66-4.82,7.34-9.64,10.85-14.51,1.78-2.47,3.23-5.05,5.13-8.06-1.02.55-1.53.79-2.04,1.11-2.05,1.27-4.1,2.52-6.14,3.84-6.54,4.22-13.06,8.46-19.32,14.28-3.44,3.19-7.01,6.14-10.42,9.37-8.7,8.22-17.4,16.45-25.99,24.84-6.51,6.36-13.09,12.6-19.37,19.34-7.35,7.89-14.55,15.74-20.92,24.35-5.73,7.94-12.13,15.36-19.15,22.18-1.65,1.58-3.38,3.04-5.07,4.56-.04-.09-.08-.18-.12-.27.1-.15.2-.3.32-.43,7.37-6.89,14.18-14.36,20.35-22.34.32-.46.62-.95.89-1.44-.46.04-.92.13-1.36.28-.81.34-1.64.8-2.47,1.22.02-.17.04-.35.06-.52,1.46-.82,2.92-1.63,4.39-2.45.61-.24,1.18-.59,1.67-1.02,2.06-2.62,4.03-5.3,6.04-7.95-.04-.13-.08-.26-.12-.39l-5.72,2.91c.02-.15.03-.31.05-.46,1.76-1,3.55-2.13,5.28-2.96,2.59-1.23,4.28-3.55,6.2-5.86l-1.18-.21c1.48-1.83,3.6-1.54,4.74-4.04l-2.96,1.26c2.3-2.45,4.56-2.59,6.4-4.7v-.47s-12.04,6.74-12.04,6.74c-.01-.16-.03-.32-.04-.47.66-.59,1.36-1.13,2.1-1.62,3.73-2.06,7.46-4.02,11.19-6.06.71-.4,1.37-.88,1.96-1.44,1-.94,1.94-1.99,2.9-3,.16-.21.3-.43.43-.66l-1.35.29c.08-.25.15-.51.23-.76,1.51-1.22,3.21-1.14,4.79-3.42l-4.24,1.47c.02-.19.04-.39.06-.58m76.06-11.41c2.57-.9,2.82-1.16,3.67-3.75.13-.4.28-.8.43-1.2,2.28-5.84,4.11-11.83,5.5-17.94.26-1.32.22-2.24-1.12-2.11-1.54.15-1.33-1.48-1.61-2.58-.05-.2.33-.74.52-1.12.09,1.67,1.15,2.11,2.56,2.06,1.06-.07,2.1-.27,3.11-.59,1.92-.55,4.25-3.05,4.49-4.93.16-1.19.69-1.37,1.55-1.7.69-.23,1.32-.58,1.88-1.05,1.66-1.62,3.23-3.38,4.87-5.04.82-.83,1.76-1.5,2.59-2.31.91-.78,1.72-1.67,2.42-2.65,1.05-1.82,1.97-3.71,2.75-5.67,1.29-3.28,2.4-6.52,3.55-9.76.14-.52.25-1.06.31-1.6-1.74,1.33-1.82,2.51-2.27,3.64-1.15,2.88-2.26,5.75-3.42,8.63-.29.58-.62,1.13-.98,1.67h-.27l4.39-11.11-.76.13-2.27,4.93-.41.08c.33-1.13.66-2.26,1.08-3.7-1,.41-1.93.96-2.77,1.63-1.15,1.36-2.18,2.83-3.06,4.37-2.14,3.73-5.03,6.98-8.49,9.53-3.03,2.26-5.59,5.09-7.53,8.33-1.13,1.86-2.58,3.51-4.29,4.87-.54.4-.99.91-1.32,1.49-.67,1.61-1.21,3.2-1.74,4.79-.23.99-.51,1.96-.86,2.92-4.92,10.65-11.22,21.32-17.83,31.95-3.03,4.86-6.54,9.66-9.78,14.5-.42.62-.69,1.33-.78,2.08-.16,2.47-.09,4.82-.32,7.32-.25,1.39-.61,2.75-1.07,4.08.56-3.83,1.08-7.63.3-10.92-1,1.3-1.81,2.44-2.72,3.51-4.67,5.48-9.39,10.93-14.02,16.44-.89,1.1-1.65,2.3-2.29,3.56-1.21,2.32-2.28,4.62-3.43,6.93-.21.33-.45.65-.72.94l-.4.02c1.14-2.38,2.29-4.75,3.64-7.55-2.4,2.01-2.55,4.15-4.53,6.27.42-1.09.7-1.81.97-2.53l-.33.04c-2.25,3.05-3.35,6.15-4.99,9.23l-.43.05c.88-1.97,1.75-3.95,2.62-5.92l-.4-.08-3.82,5.38-.24-.03c.24-.58.47-1.17.7-1.75l-.3-.04c-5.67,5.9-10.81,12.28-15.36,19.08.28-.74.65-1.44,1.11-2.09,2.44-3.3,4.71-6.75,7.42-9.84,5.38-6.12,11.09-11.96,16.5-18.05,5.08-5.71,9.97-11.58,14.92-17.4.46-.61.88-1.24,1.28-1.89-6.8,1.4-13.52,6.02-20.49,12.29.07-.21.16-.42.26-.63.73-.67,1.46-1.34,2.2-1.98,5.11-4.45,10.35-8.25,15.36-9.7,3.06-.88,5.08-2.49,7.05-5.74.65-1.07,1.49-2.12,2.39-3.39-6.73,2.08-13.33,7.58-19.85,11.48,2.79-2.61,5.87-4.89,9.19-6.79,3.85-2.33,7.69-4.52,11.53-6.85.65-.43,1.22-.98,1.67-1.61.89-1.23,1.64-2.51,2.59-4-6.63,1.46-13.29,6.47-19.96,11.43.14-.21.31-.39.5-.56,5.69-4.99,12.12-9.06,19.07-12.06.73-.31,1.38-.78,1.9-1.37,1.71-2.38,3.28-4.81,5.14-7.58-7.62,3.5-14.76,8.74-21.92,13.92.49-.57,1.04-1.1,1.63-1.56,6.07-4.89,12.59-9.19,19.48-12.83.73-.35,1.37-.84,1.88-1.46,1.28-1.91,2.38-3.86,3.89-6.35-6.54,3.11-12.77,6.81-18.63,11.07,2.04-1.74,4.16-3.37,6.37-4.88,3.94-2.51,7.89-4.71,11.83-7.12.8-.46,1.5-1.09,2.04-1.83,2.42-4.43,4.72-8.86,7.04-13.29.46-.87.16-1.04-.57-.74-.45.2-.88.42-1.3.67-6.78,3.86-13.14,9.22-19.29,15.33-.34.34-.7.64-1.05.96.08-.33.25-.64.49-.88.47-.52.93-1.05,1.42-1.53,6.39-6.38,13.02-11.79,20.06-15.56,1-.41,1.7-1.33,1.8-2.41-5.04,2.29-9.98,6.27-15.12,10.08.1-.22.21-.43.34-.63.42-.37.84-.74,1.26-1.08,3.87-3.18,7.99-6.02,12.33-8.52.98-.56,1.68-1.49,1.95-2.59.09-.37.14-.75.14-1.13-.74.45-1.48.88-2.22,1.36-.24.2-.46.41-.68.63-1.71,1.46-3.42,2.91-5.12,4.36l-.13-.23c.21-.34.41-.68.67-1.11-2.15-.06-4.2,2.93-6.52,3.98l4.12-3.91c-2.83.83-8.32,6.96-10.24,11.23l1.1.18-8.04,9.67c.49.1.66.14.83.17,1.11.18,1.05.38-.25,1.83-1.69,1.89-3.33,3.81-4.97,5.73-.57.67-1.05,1.41-1.82,2.46l1.75-1.02.02.39c-3.13,2.77-5.89,5.94-8.19,9.43l1.95-.4-8.16,9.17,2.37-.76-6.61,7.43.79.97-5.12,5.75,1.23.46c-.49.54-.96,1.09-1.46,1.61-1.01,1.04-2.08,2.02-3.03,3.09-.52.69-.99,1.42-1.41,2.18,1.39-.29,2.82-1.41,3.73-.83-.54.53-.9.85-1.23,1.2-1.68,1.78-3.39,3.54-5.03,5.36-1.1,1.22-.91,1.7.08,1.64.61,0,1.21.06,1.81.15-.48.58-.78.94-1.08,1.3-1.49,1.76-3.16,3.46-4.45,5.27-2.47,3.48-4.65,7.05-7.09,10.54-2.38,3.32-4.32,6.93-5.77,10.74-.57,1.57-.9,3.08-1.34,4.61.35-.15.66-.39.91-.68,6.37-8.55,13.82-16.24,22.17-22.88,2.67-2.12,5.38-4.34,7.05-7.55.23-.27.48-.51.75-.73.1.78.23,1.42.27,2.12.04.66.39.71,1.12,0,1.34-1.23,2.6-2.53,3.79-3.91,1.29-1.63,2.32-3.41,3.68-5.45l1.4,2.53.56-.22c1.52-3.07,3.05-6.15,4.77-9.61l2.34,1.97c1.22-2.33,2.22-4.25,3.37-6.45l2.27,1.91c1.93-3.05,3.45-6.33,4.54-9.77,2.21-.15,2.38-.24,3.41-2.67.88-2.07,1.55-4.1,2.32-6.15.11-.28.25-.57.49-1.13l3.05,1.16c6.42-8,7.75-14.65,8.45-21.23m-19.09-140c-.1.15-.19.31-.29.46.12.14.25.27.4.39,4.15,2.77,8.94,4.43,13.91,4.85,1.3.12,2.73.29,3.36,1.16,1.4,1.94,3.67,2.6,6.31,2.86.81.08,1.75.16,2.09.74.77,1.29,2.11,1.72,3.77,1.85,1.41.12,2.99.18,3.77,1.04.54.81,1.37,1.4,2.32,1.64,1.08.17,2.16.35,3.27.48,1.52.18,2.99.36,3.63,1.73.26.57,1.07.72,1.77.84,2.94.5,6.51-2.97,9.24-4.4,1.08-2.22,1.78-3.97,2.84-5.69.64-1.05.73-1.41.26-1.83-1.99-1.74-3.98-3.47-5.81-5.38-1.22-1.22-2.96-1.78-4.66-1.49-.61.02-1.21-.1-1.77-.33-2.43-.9-4.91-1.67-7.42-2.3-1.7-.22-3.42-.06-5.05.46-1.21.34-2.1.44-2.81-.04-1.16-.76-2.38-1.42-3.65-1.98-.67-.3-1.55-.19-2.69,1.11-1.31,1.51-2.2,1.69-3,1.09-1.53-1.15-4.28-.33-7.12,1.84-.55.43-1.21.7-1.9.78-2.9.11-5.75.12-8.61.15-.73,0-1.43-.03-2.15-.05m-34.7,96.54c-5.16,1.87-10.15,3.49-15.5,6.34-5.57,2.98-11.17,5.98-16.64,8.38-4.89,2.15-9.6,3.49-14.39,5.17-.17.06-.27-.08-.41-.13,3.71-1.55,7.23-2.59,10.85-4.08,3.78-1.47,7.46-3.18,11.02-5.11.04-.14.08-.27.13-.41l-1.25-.62.38-.54c.49.14.98.29,1.49.42.4.1.77.43,1.22.21,2.47-1.21,4.97-2.57,7.46-3.87l.17-.42-2.44-.75.31-.49c.95.03,1.9.16,2.82.37,1.23.43,2.8-.42,4.43-1.28.08-.42.14-.71.21-1.05l3.1-.16.27-.47-1.07-.63.25-.37,3.89.15.39-.67-7-1.31.22-.39c.36-.07.73-.09,1.1-.08,2.19.22,4.37.62,6.5,1.18,1.25.41,2.51-.2,4.37-1.55l-1.12-.94c.53-.24.77-.1,1.09-.17.48-.15.95-.35,1.4-.57-.15-.3-.19-.74-.47-.86-1.03-.42-2.15-.71-3.21-1.09-.45-.19-.89-.41-1.32-.65l.52-.69c1.36.43,2.77.8,4.07,1.32,1.64.65,2.28.33,4.25-2.45l-.89-.74,2.54-.7.34-.49c-.39-.2-.78-.41-1.17-.61,2.87-.56,2.9-.53,4.74-2.49.58-.59,1.01-1.32,1.25-2.11.06-.44-.58-.62-1.06-.67-1.06-.09-1.85.84-2.36,2.15l-5.47,1.26c.04,1.08.07,1.91.1,2.86-1.58.26-2.99.4-4.49.75-1.47.35-3.03.93-4.83,1.49.23,1,.38,1.68.48,2.1-2.81,1.26-5.54,2.4-8.3,3.76-2.27,1.11-2.57,1.69-1.75,3.15-.57.2-1,.32-1.44.52-1.95.89-3.9,1.62-5.87,2.74-3.16,1.8-6.33,3.85-9.5,5.79-6.82,4.19-13.53,7.67-20,9.7-.49.21-.96.45-1.42.71.65.17.97.27,1.31.34,3.28.77,7.27.09,11.57-1.26,6.05-1.89,11.98-3.36,18.4-6.52.31-.11.64-.16.98-.16l-1.9,2.8c.03.12.06.24.08.35,1.49-.66,2.98-1.28,4.48-1.99,1.55-.73,3.11-1.54,4.67-2.32.02.09.04.18.06.27l-2.6,3.11c4.36-.8,13.69-10.48,14.95-15.55m105.17-88.78l-.49.21c.11-2.52,1.24-5.71-.58-7.05-2.53,2.86-5.25,5.73-6.84,9.16-.6,1.3-.55,1.92.45,1.99,1.9.12,3.73.36,5.6.54.19,0,.38,0,.57-.03,2.47-4.9,4.66-7.27,5.91-6.44-3.11,1.92-4.41,3.48-4.76,5.82-.13.9.01,1.66-.08,2.55-.14.65-.33,1.29-.56,1.91-2.67-1.57-6.79.04-10.07.11-3.35.08-7.22,1.4-11.3,3.43,3.19-2.45,5.98-2.95,9.03-4.34l-2.4-.41c3.05-1.25,3.8,1.49,7.2.06l-1.71-.98c.11-.15.22-.3.33-.45l4.64,1.64.25-.31-.43-1.08,3.61,1.3.6-.74c-.43-.36-.74-.9-1.31-1.06-3.64-.84-7.43-.86-11.07-.03-2.5.47-5.42,2.1-8.26,4.41-1.94,1.58-3.88,3.17-5.83,4.74-.68.54-1.38,1.01-2.07,1.5.34.13.72.11,1.04-.07,1.23-.51,2.46-.97,3.71-1.58,1.86-.91,3.13-.57,4.69-.84,1.63-.29,3.3-.96,4.81-.69,1.85.33,4.52-.59,6.9-1.12,1.85-.41,3.81-1.09,5.68-1.55.39-.09.9.13.84.44-.26,1.14-.57,2.27-.94,3.38l-.29.22-.51-1.48c-1.89,1.32-4.06,3.83-4.57,5.45-.16.51-.03,1.23.28,1.2.97.09,1.88-.45,2.27-1.34l-1.36-.29.18-.51c.46-.2,1.06-.6,1.36-.55,1.13.2,2.17-.63,3.23-2.04.71-.94,1.44-1.88,2.06-2.84.99-1.71,2.29-3.23,3.83-4.48.54-.42,1.02-.91,1.43-1.46,4.16-5.33,8.64-9.45,13.84-10.95.08-.06.16-.13.23-.2.02-.71.05-1.46.07-2.2-2.33-.83-3.27-2.92-3.18-5.98-1.4,2.62-2.11,4.87-1.58,6.61.02.5-.03,1-.16,1.48l-.41.19c-1.42-2.38-.18-5.87,2.41-9.93-1.51.72-2.64,2.07-3.1,3.68-.53,1.53-1.31,2.96-2.33,4.23-1.08,1.51-2.05,3.09-2.91,4.73-.88,1.63-1.57,3.26-2.34,4.89-.18-.45-.19-.95-.01-1.4,1.03-2.95,2.49-5.74,4.32-8.27,1.04-1.44,1.59-2.79,1.06-3.55-.58-.84-1.92-.23-3.34.76-.45.32-1.13.79-1.35.71-1.14-.42-2.5.69-3.92,1.73-.83.46-1.37,1.3-1.46,2.25-.16,1.56-.59,3.27-.91,4.92m-132.06,65.7c.33-.12.65-.26.96-.42,2.69-1.81,5.38-3.77,8.07-5.42,2.51-1.55,5.03-2.68,7.54-4.19,1.86-1.22,3.95-2.05,6.14-2.42.53-.16,1.04-.38,1.52-.67,1.09-.62,2.22-1.17,3.38-1.65,1.55-.49,2.97-.22,4.49-1.09,2.57-1.64,5.64-2.31,8.67-1.89.79.23,1.63.19,2.39-.12,1.64-1.04,3.66-1.25,5.48-.58,2.55.78,4.65,2.3,8.76.4.31-.15.67-.19,1.01-.13,2.12.4,4.21.83,6.31,1.27.42.09.71.46,1.2.33,2.68-.76,4.21.29,6.08.81s2.98,2.24,5.98.98c.48-.2.99-.49,1.48-.74-.1-.35-.1-.81-.31-1.04-3.38-3.63-8.16-5.54-13.19-7.1-1.21-.23-2.46-.08-3.58.43-1.19.56-2.55.64-3.81.24-2.15-.61-4.33-1.11-6.53-1.5-.69-.15-1.41-.03-2.01.33-1.91,1.29-3.15,1.05-4.6,1.22-1.3.06-2.59.26-3.85.6-1.62.48-3.15,1.22-4.53,2.18-.94.8-2.07,1.33-3.29,1.54-1.56.17-3.11.42-4.65.77-1.38.22-2.68.75-3.82,1.55-1.09,1.07-2.47,1.79-3.97,2.07-.93.12-1.94.42-2.91.63-.96.2-1.79.8-2.26,1.66-.4.68-1.04,1.19-1.79,1.42-1.49.46-2.89,1.2-4.12,2.16-1.25,1.08-2.63,2.01-4.1,2.76-.84.53-1.63,1.13-2.37,1.8-.75.67-1.44,1.47-2.16,2.21-.4.41-.81.82-1.59,1.59m58.66-15.1c.16-.21.32-.42.49-.63,2.73,1.71,5.87,2.64,9.09,2.68-.02-.5-.03-.76-.05-1.21l2.92.11.36-.56c-.3-.22-.62-.39-.97-.5-3.29-.61-6.7-1.05-9.88-1.82-1.92-.46-4.14,0-6.73,1.13-.43.2-.91.23-1.36.09-2.3-.85-4.38-2.01-7.39-1.8-.44.04-.87.13-1.29.26-.72.3-1.48.54-2.24.71-1.16.02-2.31-.03-3.47-.14-1.61-.18-3.22.27-4.5,1.26-1.02.79-2.25,1.27-3.54,1.38-1.44.21-2.96.16-4.47,1.06-1.52,1.01-3.23,1.7-5.02,2.04-.1.02-.19.05-.28.1-2.88,1.41-5.78,2.86-8.65,4.21-2.39,1.12-4.72,3.23-7.15,4.53-3.02,1.83-5.93,3.83-8.72,5.99-.38.27-.75.64-1.12.96.15.14.38.16.55.04,7.01-3.76,14.24-7.07,21.67-9.92,4.75-1.95,9.71-3.36,14.78-4.2,9.37-1.26,17.38-.18,25.26,1.11.38.02.76,0,1.14-.04l.31-.5c-.45-.19-.92-.34-1.39-.45-2.4-.41-4.73-.95-7.26-1.15-4.56-.37-9.29-.45-13.85-.81-2.39-.19-4.58-.72-6.86-1.1l.35-.54c3.04-.7,4.37,1.52,7.66.49l-2.74-2.3.43-.5,5.08,3.11.43-.52-1.87-1.99.58-.64c1.08.78,2.12,1.62,3.27,2.33.62.29,1.27.51,1.93.64l.47-.64-2.51-2.11.32-.38c2.47.9,3.86,3.25,6.8,3.54l.29-.38-5.33-4.47c.43-.15.91-.12,1.32.08,1.18.75,2.3,1.59,3.49,2.33,1.97,1.22,3.96,2.4,5.99,3.55.42.13.85.18,1.29.17.07-.11.15-.23.22-.34l-1.02-1.05c.1-.12.19-.24.29-.36l6.13,2.32.51-.67c-2.01-1.64-5.31-1.77-6.46-4.41.97.39,1.91.87,2.81,1.41.93.47,1.9.87,2.9,1.19.98.32,2.06.51,3.09.76.09-.13.17-.26.26-.39l-6.32-3.06m13.99-15.54l.36-.61c2.23.07,4.48.09,6.67.23,1.86.12,3.56.5,5.46.54,1.41-.1,2.8-.28,4.19-.54.5-.03,1,0,1.49.05-.11.23-.21.46-.32.69-6.76.81-13.6,1.84-21.58,5,.33.34.43.51.59.6,1.69.99,3.42,1.88,5.21,2.67,1.02.43,2.17.44,3.2.04,1.97-.93,4.15-1.3,6.32-1.08.22.04.45,0,.64-.11.53-.31,1.01-.72,1.4-1.19.7-1.29,1.75-2.35,3.03-3.07.36-.22.67-.5.91-.84,1-1.53,1.96-3.07,2.91-4.61.72-1.18.62-1.81-.21-1.94-.98-.15-1.87-.43-2.88-.52-.85-.04-1.7,0-2.54.13-.89.18-1.78.31-2.68.38-1.79-.28-3.63-.02-5.28.73-1,.46-2.05.82-3.12,1.07-1.43.24-2.84.57-4.23.96-1.54.67-3.05,1.43-4.51,2.27-1,.33-1.85,1-2.4,1.91-.34.35-.75.64-1.2.84-1.21.71-2.42,1.39-3.63,2.09l-.11.5c.34.02.68,0,1.01-.05,2.18-.54,4.54-1.49,6.26-.99.23.07.72-.24,1.09-.37,3.05-1.03,6.11-2.08,9.15-3.08.88-.29,1.72-.45,2.57-.67l.32-.65-8.07-.41m-2.43,141.93l.34.15c.29-.37.6-.73.87-1.11,5.06-7.18,10.11-14.36,15.17-21.54,2.67-3.55,4.82-7.47,6.36-11.64.22-.82.58-1.59,1.07-2.28,1.19-1.56,1.98-3.4,2.28-5.34.42-1.76.65-3.45,1.14-5.23.7-2.49,1.52-5.03,2.39-7.59.36-.82.81-1.6,1.32-2.34.74-.98,1.39-2.02,1.95-3.11.67-1.93.88-3.72,1.51-5.65.61-1.85,1.51-3.79,2.29-5.69.4-.7.71-1.45.93-2.23.17-3.27.23-6.48.28-9.68,0-.41-.26-.65-.4-.98l-.57.37c-.49,3.52.51,6.24-.79,10.19-.53-2.32.2-5.51-1.05-7.31-.38,1.9.29,3.25-.68,5.44l-.57-1.7-.6.44c-.07.97-.15,1.94-.22,2.91l-.28.18-.77-1.6-.49.37c-.04.55-.05,1.1-.03,1.66.34,1.85.55,3.72.63,5.6-.04,2.69-.44,5.6-.72,8.43-.11.44-.27.87-.48,1.28l-.51.22c.86-4.79,1.21-9.25.14-12.81l-.54.34.08,10.18-.51.32-.4-3.65-.49.3c-.05,1.15-.14,2.32-.15,3.44,0,1.16.07,2.27.1,3.41l-.49.34-.85-.71c-.09,2.79.35,4.94-.73,7.85l-.43.23.38-5.52-.7.37-.79,6.64-.44.22c.05-1.2.11-2.4.16-3.6l-.62.32c-.32,2.6-.64,5.2-.96,7.81l-.52.28.04-2.52-.48.28c-.55,3.51-1.09,7.02-1.64,10.53-.03.17-.04.44.06.43,1.15-.11.43,1.19.12,1.89-.82,2.03-1.82,3.98-2.99,5.82-4.34,6.4-8.87,12.75-13.31,19.13-1.5,2.15-2.96,4.3-4.43,6.46m7.32-11.75c1.9-2.28,3.34-4.9,4.25-7.72,1-3.59,2.51-7.01,4.5-10.15,1.05-1.82,1.89-3.75,2.52-5.75.49-1.33.38-2.55,1.04-3.87,1.11-2.33,1.85-4.81,2.21-7.37.36-1.21.84-2.39,1.43-3.51.32-.53.59-1.09.82-1.67.43-2.06.73-4.07,1.12-6.12.09-.7.31-1.37.66-1.98,2.04-3,3.07-6.57,2.92-10.2,0-.77.14-1.53.39-2.26.59-1.71,1.32-3.47,1.99-5.18l-1.6.4c-.46,1.83-.86,3.39-1.25,4.95l-.59.31-.44-2.19c-1.78,1.21-2.83,3.23-2.81,5.38-.02,1.57-.19,3.13-.49,4.67-1.41,5.3-2.85,10.63-4.59,16.04-1.47,4.58-3.28,9.26-4.02,13.59-.39,3.33-1.41,6.56-2.99,9.51-.19.43-.34.87-.44,1.33-1,3-1.29,5.79-3.11,9.03-.51.92-1.02,1.84-1.53,2.75m43.23-160.34c.53-.3,1.03-.62,1.52-.98,1-1.42,1.74-3.01,2.17-4.7-.05-1.26-.04-2.56-.06-4.07-1.24.1-2.7,1.39-4.12,3.09-1.6,1.91-3.15,3.85-3.31,5.77-.04.46.24.94.64.93,1-.11,2-.29,2.97-.55,1.01-2.69,1.13-2.89,2.6-4.06-.78,1.48-1.43,2.71-2.41,4.57m-50.41,95.74l.32.29c4.58-4.46,8.66-9.42,12.16-14.77l-.26-.16-4.1,5.01c1.97-3.26,4.03-6.46,6.09-9.65.06-.11.13-.21.21-.3.62-.59,1.25-1.17,1.87-1.76l.43.19-2.7,4.68c1.4-1.55,2.61-3.28,3.6-5.12,1.06-1.67,2.9-3.21,4.61-5.05-.5.07-.7.02-.9.14-3.16,1.7-5.85,4.17-7.8,7.18-2.66,4.08-5.35,8.15-8.15,12.2-1.67,2.41-3.57,4.75-5.36,7.12m76.15-75.29c5.27-3.9,10.05-9.7,9.66-13.7-1.64,1.67-3.23,3.36-4.88,4.94-1.62,1.55-1.96,2.11-1.87,3.91l4.63-5.2c.13.43.2.69.29,1.01l-1.55,1.06c.03.29.06.52.08.7-2.44,2.23-5.08,4.09-6.37,7.27m6.45,5.19c.35.43.48.9.86.96.54-.02,1.06-.23,1.46-.6.26-.42.41-.91.43-1.41.06-.54.09-1.09.08-1.64l2.47-.06.49-.55c-.09-.49-.17-.99-.26-1.48,5.23-4.96,9.85-11.6,9.85-14.16-.1.06-.18.13-.26.22-.13.2-.24.41-.36.61-1.27,2.18-2.28,4.45-4.73,6.11-.37.4-.64.89-.79,1.41-.65,1.95-1.89,3.65-3.55,4.85-.91.61-1.85,1.17-2.83,1.67-.86,1.3-.13,2.83-2.85,4.07m-14.04,23.57c3.1-.77,4.92-3.68,6.83-6.3.51-.81.92-1.66,1.25-2.56.06-.13-.07-.23-.12-.37l-1.69,2.35-.33-.08c.4-.98.87-1.98,1.15-2.92.11-.38-.21-.6-.34-.9-.4.31-.77.66-1.1,1.05-.35.42-.58.92-.69,1.45.26,1.79-1.32,3.32-2.97,4.86-1.16,1.08-2.34,2.13-3.51,3.19.04.11.07.22.11.33,2.05-1.21,3.9-3.22,5.97-5.01-.15.97-.72,1.81-1.56,2.32-1.02.79-2.01,1.72-3.02,2.59m-60.84-8.59c.4.33.6.52.82.68.94.69,1.92,1.33,2.82,2.06.95.78,1.55.44,2.51-1.51.28-.48.51-.99.66-1.52.07-.42.01-.95-.27-1.01-1.7-.39-3.78.05-6.55,1.29m65.43,10.43c1.61-3.25,3.12-6.32,4.29-9.3-1.9,2.22-3.49,4.63-5.42,6.46-1.97,1.65-4.06,3.15-6.25,4.49.82-.08,1.61-.34,2.31-.77,2.01-1.15,4.23-2.9,5.07-.87m79.64-107.69c-1,.39-1.94.9-2.82,1.53-1.35,1.22-2.61,2.54-3.75,3.96-.3.36-.12,1.04-.16,1.57.52-.34,1-.73,1.46-1.15,1.74-1.9,3.45-3.85,5.27-5.9m-161.71,127.13l10.09-1.95c-1.15-1.71-7.28-.47-10.09,1.95m94.44-43.34c.05.12.11.25.16.37.71-.45,1.35-.99,1.93-1.6,1.04-1.5,2.5-3.38,2.63-4.5.06-.86.48-1.65,1.17-2.16,1.94-1.65,3.48-3.73,4.49-6.07-.4.42-.78.86-1.12,1.32-1.08,1.37-2.1,2.79-3.24,4.11-.99,1.14-2.07,2.11-2.27,3.45-.25.66-.63,1.27-1.1,1.8-.85,1.11-1.76,2.19-2.64,3.28m-45.57,62.5c1.03-1.1,1.41-4.17.66-4.08-.45.28-.82.67-1.08,1.13-.16.89-.21,1.8-.17,2.7,0,.22.41.18.59.25m110.8-146.41c1.3-1.87,3.25-3.62,3.98-5.99-1.92,1.53-3.32,3.63-3.98,5.99m-98.2,70.55c.75-1.12,1.32-2.07,2.02-2.97.71-.91,1.57-1.75,2.33-2.64.16-.21.24-.47.22-.74-.02-.09-.38-.01-.58.12-1.89,1.66-3.28,3.82-4,6.23m-51.69,52.48l-.36.49,4.18,1.22.41-.59c-.63-1.49-2.74-.86-4.23-1.12m19.37,69.04l-.61.26c-.36,2.27-.73,4.54-1.09,6.82l.71-.35c.33-2.24.66-4.49.98-6.73m-4.23,9.68l-.36.05c-1.35,1.65-3.03,5.47-2.84,6.82,1.16-2.49,2.17-4.68,3.19-6.87m-7.84-77.6c.43-1.71-.74-2.26-2.43-1.36l2.43,1.36m54.03-10.06l-.44.73,3.35-.27.35-.67-3.26.21m37.05-54.93l-.89-2.42c-.85,1.72-.55,2.62.89,2.42m-91.05,62.67l1.64.45.47-.69c-.49-.11-.99-.22-1.49-.32-.22.17-.43.36-.62.56"/>
    <path id="Path_13901" data-name="Path 13901" class="cls-2" d="m215.51,227.69c.3.51-1.44,2.16-.27,2.09.78-.26,1.51-.63,2.19-1.09.07-.04.13.02.34.08l-1.63,2.2,1.8-1.29-.9,1.73c1.48-1,2.05-1.9,1.76-2.88-.18-.63-.31-1.31-.46-1.97l.78-.28c1.55,2.04,2.44,4.5,2.58,7.06.05,1.88-1.03,4.09-2.61,6.33l-.43.11c.11-.48.28-.95.5-1.4,2.18-3.48,1.87-5.7,1.13-7.69-.2-.34-.63-.46-.98-.27-.57.39-1.03.92-1.35,1.54-.22,1.12-.34,2.26-.36,3.4.03.38.11.75.26,1.1l-.44.45c-.28-.19-.71-.26-.8-.6-.22-.72-.29-1.49-.2-2.24.45-3.04-1.41-3.74-3.63-3.76-2.04-.01-4.46,2.09-6.88,4.7,1.54-.46,3.11-.83,4.7-1.11,1.41-.16,2.72-.06,3.4.97-2.9-.92-6.76.73-10.85,2.46l5.68-6.38c.71.73,1.72-.96,2.67-1.67l.44-.18,1.53.28c.36-.5.63-.87.89-1.24l1.14-.44"/>
    <path id="Path_13902" data-name="Path 13902" class="cls-2" d="m230.21,245.87l3.24-4.39c-1.51.86-2.62,1.43-3.73,2.15-1.14.73-2.27,1.61-3.42,2.43l5.44-6.39c-.34.71-.59,1.23-.92,1.92,1.11-.15,2.12-.74,2.79-1.64,1.61-2.17,2.99-4.43,4.46-6.65-2.87.28-6.56,3.56-10.97,9.63l2.41-4.12c-.22-.04-.48-.1-.76-.13-1.4-.19-1.78-1.68-.91-3.65.18-.41.38-.82.6-1.23.7-1.33,1.41-2.65,2.11-3.98l.36-.05c-.64,1.41-1.24,2.82-1.92,4.24-1.13,2.37-.95,3.36.88,3.29.68-.13,1.31-.45,1.81-.93,2.83-2.61,6.21-4.56,9.89-5.68l-4.07,4.57,2.8-1.38-2.09,2.84c.02-.57.03-.83.04-1.09-2.13,1.28-3.24,2.8-3.35,4.49-.05.42-.21.82-.48,1.16-1.41,1.7-2.88,3.37-4.33,5.05l.11-.48Z"/>
    <path id="Path_13903" data-name="Path 13903" class="cls-2" d="m270.09,206.02c-1.03.2-1.94.79-2.55,1.64-1.4,1.55-2.98,2.94-4.29,4.21.29,2.18.42,4.37.4,6.56-.15,2.4-1.58,5.06-4.33,7.53-.67.65-1.38,1.26-2.12,1.83,2.77-3.03,5.17-6.11,5.77-9.3.57-3.05.21-5.35-2.52-5.84.58-.47,1.17-.91,1.79-1.33,2.1-1.22,3.98-2.79,5.56-4.65,1.68-1.94,2.13-2.04,3.13-.99l-.84.34"/>
    <path id="Path_13904" data-name="Path 13904" class="cls-2" d="m174.95,378c-1.94-1.24-2.61-3.41-.9-7.3l.27,3.76.42-.23c.16-.52.33-1.04.49-1.57l.44-.3c.28,1.67.56,3.33.84,5l-1.56.63"/>
    <path id="Path_13905" data-name="Path 13905" class="cls-2" d="m242.17,198.95l-3.04,1.57-.07-.3c1.22-1.45,2.05-3.21,3.85-4.21-.07.3-.13.6-.2.89-.14.53-.28,1.06-.42,1.59l-.11.45"/>
    <path id="Path_13906" data-name="Path 13906" class="cls-2" d="m204.34,232.11c.05,1.16-.96,2.33-1.78,3.5l-.38.03,1.74-3.37.42-.16"/>
    <path id="Path_13907" data-name="Path 13907" class="cls-2" d="m240.2,206.67l1.87,1.57c1.62-1.05,3.15-2.09,4.69-3.03.82-.37,1.32-1.2,1.28-2.09,0-1.18-.03-2.35-.05-3.88.48.13.79.09.8.25.07,1.48.08,2.99.14,4.48.01.25.11.49.27.69.07.09.33-.02.45.02,1.7.63,3.89.29,6.24-.23,3.1-.68,4.04,1.29,4.5,3.71.09.5.23.96.36,1.49-.94.5-1.15.05-1.15-.66.19-1.78-.97-3.42-2.7-3.85-1.11-.33-2.49.04-4.38,1.01.43,1.16.81,2.16,1.18,3.17-.07.17-.15.35-.23.52-1.9-.68-3.64,1.52-5.35,3.24-1.76,1.94-4.04,3.35-6.56,4.07-1.59.39-3.38,1.31-5.04,1.86-.51.1-1.04.09-1.54-.02.31-.66.69-1.29,1.14-1.87,2.08-2.07,3.1-4.41,4.6-6.61.17-.32.2-.7.06-1.03-.26-.53-.56-1.04-.9-1.53.1-.42.21-.84.31-1.26m10.14,2.88c-3.66-.02-7.71,3.34-11.77,6.75l-.09-.43,6.63-5.68-1.72-.56c1.81-.82,2.04,1.09,4.21-.39l-1.89-1.59c1.71-.29,1.86,1.74,4.25.33-.19-.47-.35-.85-.55-1.34,1.45-.18.64,2.33,2.6,1.37,0-2.01-1.62-2.85-4.13-2.19-2.56.9-4.75,2.61-6.23,4.88-1.36,1.96-2.84,3.9-4.26,5.85l-1.32,1.8c.6-.13,1.19-.29,1.77-.48,2.21-.86,4.41-1.72,6.64-2.69.72-.36,1.38-.84,1.94-1.41,1.31-1.32,2.54-2.72,3.91-4.21"/>
    <path id="Path_13908" data-name="Path 13908" class="cls-2" d="m159.59,298.63c-1.56-.79-2.08-5.32-1.05-7.45.92-2.14,2.34-4.02,4.14-5.5,1.26-.97,1.32-1.63.6-1.86-1.36-.43-2.83-.71-4.35-1.08.2-.36.57-1.01.95-1.67-1.8.31-2.14-.58-1.01-2.68.63-1.17,1.31-2.34,1.97-3.5l.42-.03c-.53,1.4-1.06,2.8-1.59,4.2l.27-.07c.53-.95,1.06-1.89,1.59-2.84l.32-.03c-.37,1.25-.74,2.5-1.16,3.94,3.62-2.88,6.75-4.68,8.96-3.24-1.74.86-2.37-.64-4.65,1.12-1.71,1.32-3.5,2.24-5.36,4.28,1.74-.58,3.65.02,4.75,1.49.2.24,1.25-.17,1.85-.61.63-.48,1.14-1.12,1.46-1.85.13-1.14.16-2.28.1-3.43.22.15.42.32.6.52.2.32.37.66.51,1.01,1.96-1.73,3.35-4.23,5.57-5.2.4-.11.81-.19,1.22-.22-3.27,2.11-5.93,5.04-7.7,8.51-.5.71-1.13,1.32-1.86,1.79-2.35,1.54-4.47,3.26-5.69,5.97-.24.48-.38,1.01-.41,1.55,0,1.63.13,3.17.12,4.81-.12.7-.3,1.39-.55,2.05"/>
    <path id="Path_13909" data-name="Path 13909" class="cls-2" d="m196.73,281.9c.18,2.44-3.08,7.32-5.72,8.78,1.15-1.93,3.33-3.46,3.87-5.81l-4.57,5.37-.38-.2c.29-.44.56-.89.87-1.32,1.58-2.2,3.24-4.39,4.71-6.61.3-.46.19-1.53-.13-1.5-1.51.21-2.99.54-4.45,1.01-.45.34-.82.77-1.08,1.27-1.69,2.94-3.69,5.69-5.97,8.2-1.31,1.55-2.36,2.28-3.49,2.14-1.17-.15-1.81-1.9-1.25-3.4.3-.84.67-1.66,1.11-2.45,1.12-1.94,2.32-3.88,3.48-5.82l.41-.21c-.02.5-.12,1-.29,1.47-.81,1.59-1.76,3.18-2.6,4.77-.78,1.48-1.32,2.85-.52,3.59.76.69,1.41.55,2.67-.99,2.16-2.64,4.76-5.14,5.96-8.15.18-.29.43-.53.73-.7,2.34-1.06,4.98-2.8,6.28-1.33.27.3.43.67.49,1.06.78.21,1.15-.55,1.34-1.35.66-2.74,2.82-5.21,4.84-7.72l.35.06c-.65.95-1.37,1.89-1.93,2.85-.83,1.31-1.55,2.68-2.17,4.09-.52,1.35-.86,2.47-2.58,2.9"/>
    <path id="Path_13910" data-name="Path 13910" class="cls-2" d="m259.56,190.93l4.99-9.4.5-.04-3.17,7.3c1.11-.39,2.01-1.23,2.49-2.3.4-.63.84-1.22,1.32-1.78l.4.05c-.24.66-.47,1.32-.81,2.28.77-.21,1.52-.52,2.21-.92,2.68-1.93,4.76-2.19,6.58-1.87,1.39.24,2.57.79,4.71-.58.29-.19.62-.29.96-.31.64,0,1.23.09,1.85.15-.52.75-1.02,1.51-1.55,2.26-.6.85-1.21,1.7-1.82,2.55-.79,1.4-2.01,2.52-3.48,3.18,1.86-2.51,3.52-4.74,5.27-7.09-2.77.27-5.73,3.05-8.62,5.12-.03-.13-.06-.27-.09-.4l2.2-2.36-4.23.63c2.45-1.91,3.81-1.05,5.66-1.73-2.1-.83-4.47-.56-6.33.72-1.2.66-2.43,1.26-3.68,1.79-.38.18-.77.33-1.15.55-2.52,1.47-3.08,2.46-2.34,4.08.1.26.11.55.02.82-1.14.05-1.41-.8-1.58-1.75-.06-.34-.18-.64-.27-.95v.02"/>
    <path id="Path_13911" data-name="Path 13911" class="cls-2" d="m180.47,286.13c-2.49,3.42-6.55,6.54-7,9.94l-4.1,5.59c.09-.65.17-1.25.22-1.63-2.79-.84-6.88,2.17-10.67,3.09,3.06-3.22,5.64-6.15,8.41-8.75,1.26-1.03,2.71-1.81,4.26-2.3,2.8-.88,5.27-2.55,7.14-4.82.48-.48.99-.92,1.55-1.32l.2.19m-16.6,13.42c-.03-.14-.05-.28-.08-.41,1.8-1.39,3.6-2.94,5.41-4.13,1.73-1.13,3.47-1.89,5.54-2.99-2.71-.52-11.17,5.68-12.68,8.89,2.43-.74,4.86-1.46,7.33-2.27.69-.19,1.32-.56,1.83-1.07.6-.87,1.07-1.82,1.41-2.82.05-.13-.79-.24-1.26,0-1.49.8-3.01,1.75-4.51,2.71-1,.64-2,1.39-2.99,2.09"/>
    <path id="Path_13912" data-name="Path 13912" class="cls-2" d="m269.54,199.18l.8-.06-4.21,5.8c1.79-.8,2.9-1.37,3.94-3.24,1.2-1.91,2.49-3.76,3.88-5.54-5.51,1.96-8.91,6.29-11.68,11.63-.34-1.16,1.48-4.26,3.97-7.11,2.77-3.16,8.5-6.67,10.69-6.45l-3.33,3.74.1.17,2.33-1.27-2.12,3.02-.24-.96c-1.83,1.09-3.12,2.9-3.56,4.98l-7.32,4.46,6.75-9.19"/>
    <path id="Path_13913" data-name="Path 13913" class="cls-2" d="m198.74,259.95l-8.55,5.42c1.36-1.8,2.12-2.31,11.86-7.79-.36.58-.75,1.13-1.17,1.67-5.26,5.72-10.82,11.16-16.67,16.28-2.11,1.89-4.17,3.88-6.29,5.77,3.04-3.78,6.73-6.81,10.06-10.33l-5.92,4.51-.1-.39c2.87-2.32,5.72-4.8,8.63-6.93,2.97-2.31,5.72-4.88,8.24-7.67-.03-.18-.06-.35-.09-.53"/>
    <path id="Path_13914" data-name="Path 13914" class="cls-2" d="m236.46,221.37c.48-.16.98-.27,1.48-.31,1.99.17,1.98.19,4.21-1.23-.46.58-.83,1.04-1.32,1.65,1.05-.42,2-.85,2.89-1.12.6-.2,1.23-.27,1.85-.21.71.11.41.99-.39,1.55-1.5,1.21-2.78,2.65-3.81,4.28-.47.6-1.03,1.13-1.66,1.56l4.72-6.21c-1.78-.44-7.07,3.2-8.32,6.04l3.93-3.76-4.96,6.15c.48-2-.08-3.57,2.61-6l-1.76-.28.23-.42,2.88-.24.33-.55-3.04-.51c.04-.13.08-.27.12-.4"/>
    <path id="Path_13915" data-name="Path 13915" class="cls-2" d="m252.09,229.72c.94,1.04.52,3.13-.71,5.14-.51.85-.9,1.77-1.14,2.74-.42,1.62-.38,3.1-2.02,4.98-.85.98-1.44,1.27-1.76.46,1.36-1.27,2.17-3.04,2.24-4.9.18-1.08.64-2.09,1.35-2.92.7-1.11,1.27-2.3,1.67-3.55.19-.63.31-1.28.37-1.94"/>
    <path id="Path_13916" data-name="Path 13916" class="cls-2" d="m207.77,264.92c.03,2.15-1.89,3.65-3.41,5.19-1.59,1.61-3.27,3.11-4.89,4.69-1.82,1.78-3.3,2.42-4.56,1.87-.34-.21-.65-.46-.92-.75.6-.59,1.07-1.06,1.55-1.52s.99-.93,1.53-1.43c-.04.63-.07,1.17-.1,1.8l-1.08.49c.15,1.15,1.78,1.06,2.96-.25,2.7-2.98,5.33-6.02,7.98-9.04.27-.3.54-.61.93-1.04"/>
    <path id="Path_13917" data-name="Path 13917" class="cls-2" d="m240.2,206.67c-.1.42-.21.84-.31,1.26-.23-.71-.49-1.38-.68-2.13-.07-.53-.09-1.07-.07-1.61-2.31,4.08-2.14,6.71-1.37,9.3-2.56-.94-1.17-8.1,1.91-10.85.87.84.6,2.5.51,4.02"/>
    <path id="Path_13918" data-name="Path 13918" class="cls-2" d="m265.65,219.13c1.52-1.27,1.7-1.77,1.32-3.71,1.24-.11,1.37,1.52.1,3.11-1.47,1.85-3.07,3.65-4.62,5.46-.12.12-.26.22-.41.3l2.86-7.48.2,1.24.96-1.65.43-.14c-.28.96-.56,1.93-.83,2.88"/>
    <path id="Path_13919" data-name="Path 13919" class="cls-2" d="m250.5,242.93c0,1.43-1.07,2.81-2.34,3.94-.94.81-2,1.49-3.13,2.01-.97.39-1.76,1.12-2.22,2.06-.75,1.68-1.99,3.1-3.56,4.07,1.26-1.9,2.48-3.74,3.72-5.57.2-.29.46-.54.76-.71,2.86-1.09,5.25-3.14,6.77-5.79"/>
    <path id="Path_13920" data-name="Path 13920" class="cls-2" d="m246.96,235.1c-1.02,2.91-1.99,5.82-3.12,8.75-.17.44-1.02,1.05-1.56,1.59-.06-.5-.03-1.01.11-1.49,1.27-2.88,2.65-5.78,3.98-8.67l.58-.18"/>
    <path id="Path_13921" data-name="Path 13921" class="cls-2" d="m185.41,275.26l-1.32,1.97c2.28-1.23,3.4-3.46,5.07-4.86-.84,2.65-5.6,6.79-9.95,8.41,1.91-1.71,3.83-3.42,6.19-5.53"/>
    <path id="Path_13922" data-name="Path 13922" class="cls-2" d="m206.79,264.82c1.24-1.54,2.36-2.79,3.27-4.09.87-1.25,1.52-2.55,2.25-3.82.8.15.64,1.19-1.1,5.5-1.24-1.17-2.62,2.08-4.42,2.41"/>
    <path id="Path_13923" data-name="Path 13923" class="cls-2" d="m235.67,260.53c.25-.4.54-.76.88-1.09,1.98-1.37,3.62-3.17,4.79-5.28.44-.73,1-1.45,1.72-2.48.02,1.66-1.11,3.16-2.13,4.54-.99,1.28-2.07,2.5-3.21,3.64-.85.89-1.61,1.14-2.04.61v.06"/>
    <path id="Path_13924" data-name="Path 13924" class="cls-2" d="m205.93,265.77c-1.09,2.5-2.83,4.66-5.04,6.24-.75.38-1.57.6-2.41.63.05-.15.1-.3.15-.45,1.78-1.71,3.56-3.42,5.34-5.12l.19.15-3.81,4.09c2.27-1.36,3.75-3.62,5.58-5.53"/>
    <path id="Path_13925" data-name="Path 13925" class="cls-2" d="m169.81,324.75c2.18-4.52,5.57-6.85,8.73-9.44l.21.25-8.94,9.2"/>
    <path id="Path_13926" data-name="Path 13926" class="cls-2" d="m242.7,196.91c.07-.3.13-.6.2-.89.22-.36.47-.7.77-1,.9-.69,1.55-1.65,1.85-2.73.14-.41.33-.84.5-1.25l.38-.17c-.04.74-.07,1.48-.11,2.17l3.23-.61-6.82,4.49"/>
    <path id="Path_13927" data-name="Path 13927" class="cls-2" d="m196.58,232.33c-2.55,4.43-3.61,8.09-1.64,10.37-1.46,0-2.19-1.79-1.77-3.83.55-2.44,1.72-4.69,3.41-6.54"/>
    <path id="Path_13928" data-name="Path 13928" class="cls-2" d="m227.88,222.83c-2.72,3.31-3.07,5.65-1.85,7.38-1.6.18-2.18-1.76-1.35-3.88.5-1.58,1.67-2.86,3.2-3.51"/>
    <path id="Path_13929" data-name="Path 13929" class="cls-2" d="m221.62,225.27c.68-.14.82-.49.86-1.06.08-.53.2-1.05.36-1.56l.54-.24.22,5.48-.34.38c-.84-.89-1.67-1.78-2.5-2.68l.87-.32"/>
    <path id="Path_13930" data-name="Path 13930" class="cls-2" d="m174.58,309.82c-.06-1.93-.12-3.87-.19-5.9.84.87,1.28,2.05,1.2,3.26-.05.87.06,1.34,1.19.92.57-.21.98.15,1.46.26l-.88.34-1.6.62-1.18.49"/>
    <path id="Path_13931" data-name="Path 13931" class="cls-2" d="m210.23,292.01l2.8.83-.29.43-1.13-.1-.26.32,2.78,1.68-.46.55c-1.13-1.24-3.65-.86-3.89-3.14l.45-.56"/>
    <path id="Path_13932" data-name="Path 13932" class="cls-2" d="m188.21,282.2c-.55,2.54-2.42,4.71-4.64,6.78-1.19,1.11-1.2,1.1-2.05.77,3.06-1.91,4.92-4.66,6.69-7.55"/>
    <path id="Path_13933" data-name="Path 13933" class="cls-2" d="m192.2,296.15c-3.01.89-5.42,1.26-6.21-1.04l6.21,1.04"/>
    <path id="Path_13934" data-name="Path 13934" class="cls-2" d="m275.74,187.21c-1.93,2.4-4.35,4.62-4.88,7.45-1.19-1.09,1.58-5.18,4.88-7.45"/>
    <path id="Path_13935" data-name="Path 13935" class="cls-2" d="m242.71,247.58c.02,1.18-2.08,4.53-3.94,6.3l-.32-.04,3.9-6.29.37.03"/>
    <path id="Path_13936" data-name="Path 13936" class="cls-2" d="m221.78,258.64c.32,2.23-3.27,7.12-6.63,9.12,2.74-2.74,5.44-5.5,6.63-9.12"/>
    <path id="Path_13937" data-name="Path 13937" class="cls-2" d="m213.15,305.5l1.3,2.11-1.32-.03,1.21,3.56-.47.37c-1.12-1.79-1.39-3.99-.72-6"/>
    <path id="Path_13938" data-name="Path 13938" class="cls-2" d="m245.24,200.78c-1.43,1.82-2.18,4.09-2.13,6.4-1.28.31-1.08-.58-.87-1.32.47-1.69.85-3.44,3-5.08"/>
    <path id="Path_13939" data-name="Path 13939" class="cls-2" d="m236.46,221.37c-.04.13-.08.27-.12.4-1.27.64-2.55,1.32-3.81,1.91-.59.24-1.2.45-1.82.62,1.93-2.24,4.26-3.34,5.75-2.94"/>
    <path id="Path_13940" data-name="Path 13940" class="cls-2" d="m167.92,285.51c-.51-1.56,1.79-5.58,3.87-6.89l-3.87,6.89"/>
    <path id="Path_13941" data-name="Path 13941" class="cls-2" d="m207.32,243.94c-.98-.24-.72-1.39-.29-2.52.38-1.54,1.32-2.88,2.62-3.77-1.43,1.79-2.25,4-2.33,6.3"/>
    <path id="Path_13942" data-name="Path 13942" class="cls-2" d="m282.8,190.63c-2.6,1.55-4.86,2.21-6.45,1.27l6.45-1.27"/>
    <path id="Path_13943" data-name="Path 13943" class="cls-2" d="m195.06,259.08c1.74-1.18,3.73-1.91,5.82-2.14-.05.2-.11.41-.17.61l-5.82,2.08.16-.55"/>
    <path id="Path_13944" data-name="Path 13944" class="cls-2" d="m197.2,267.46l5.67-8.14.4.11c-1.76,2.84-3.69,5.57-5.77,8.18l-.3-.16"/>
    <path id="Path_13945" data-name="Path 13945" class="cls-2" d="m261.57,220.04c-.16,2.08-2.4,5.31-4.47,6.57l4.47-6.57"/>
    <path id="Path_13946" data-name="Path 13946" class="cls-2" d="m268.13,230.08l-4.62-1.4c2.15-.42,3.85-.18,4.98.89l-.36.5"/>
    <path id="Path_13947" data-name="Path 13947" class="cls-2" d="m247.01,227.28c-2.42,1.46-4.71,2.52-6.45,1.62l6.45-1.62"/>
    <path id="Path_13948" data-name="Path 13948" class="cls-2" d="m221.97,211.6c-1.66,1.61-2.82,3.66-3.34,5.91-1.01-1.23.88-4.45,3.34-5.91"/>
    <path id="Path_13949" data-name="Path 13949" class="cls-2" d="m246.27,240.24c.56,1.25-.47,3.38-2.59,5.18l2.59-5.18"/>
    <path id="Path_13950" data-name="Path 13950" class="cls-2" d="m174.58,309.82l1.18-.49-3.28,5.38h-.44c.59-1.75,1.45-3.4,2.54-4.89"/>
    <path id="Path_13951" data-name="Path 13951" class="cls-2" d="m173.12,314.78l5.22-1.74c-1.44,1.9-4.83,3.11-5.22,1.74"/>
    <path id="Path_13952" data-name="Path 13952" class="cls-2" d="m238.13,199.86c-.41-1.41-.81-2.83-1.25-4.35,1.42.24,2.05,2.06,1.25,4.35"/>
    <path id="Path_13953" data-name="Path 13953" class="cls-2" d="m235.19,251.85c.43,1.51.86,3.03,1.3,4.54l-.74.58-1.13-4.67.58-.45"/>
    <path id="Path_13954" data-name="Path 13954" class="cls-2" d="m221.62,225.27l-.87.32-1.64.68-.78.28-.77-.64c2.65-1.67,3.34-1.76,4.05-.64"/>
    <path id="Path_13955" data-name="Path 13955" class="cls-2" d="m188.95,273.92l5.32-6.66.34.17-5.27,6.69-.39-.2"/>
    <path id="Path_13956" data-name="Path 13956" class="cls-2" d="m218.19,247.66c1.1.6.72,2.53-.49,3.96-.17.21-.38.39-.63.5-.15.02-.3-.21-.23-.36.35-.75.91-1.55,1.15-2.26.15-.6.21-1.22.2-1.84"/>
    <path id="Path_13957" data-name="Path 13957" class="cls-2" d="m213.75,300.61c-.97-.47-2.03-.86-1.92-2.57.87.73,1.65,1.38,2.43,2.04l-.5.53"/>
    <path id="Path_13958" data-name="Path 13958" class="cls-2" d="m260.97,205.07l-3.47-2.21c1.06-.67,2.47-.35,3.14.71.28.45.4.98.33,1.5"/>
    <path id="Path_13959" data-name="Path 13959" class="cls-2" d="m221.71,253.36c-1.7.41-2.57-1.24-2.11-3.27l2.11,3.27"/>
    <path id="Path_13960" data-name="Path 13960" class="cls-2" d="m239.17,240.54l-3.23,4.99c-.47-1.22,1.31-3.92,3.23-4.99"/>
    <path id="Path_13961" data-name="Path 13961" class="cls-2" d="m222.98,221.28c1.71-3.05,5.78-5.91,6.74-4.21-1.72-.5-3.38.89-5.09,2.7-.51.54-1.1.98-1.66,1.48,0,.01,0,.03,0,.04"/>
    <path id="Path_13962" data-name="Path 13962" class="cls-2" d="m223.69,243.42l-2.93-1.53c1.57-.9,2.97-.28,2.93,1.53"/>
    <path id="Path_13963" data-name="Path 13963" class="cls-2" d="m206.98,315.82l2.97-7.09.33-.08c-.75,2.47-1.75,4.85-2.98,7.12l-.32.05"/>
    <path id="Path_13964" data-name="Path 13964" class="cls-2" d="m209.71,232.82c2.2-.85,4.12-1.22,5.25.18l-5.25-.18"/>
    <path id="Path_13965" data-name="Path 13965" class="cls-2" d="m168.58,309.31c.2.92.36,1.65.54,2.46-.79.91-1.26.75-1.49.29-.32-.65-.32-1.48.95-2.75"/>
    <path id="Path_13966" data-name="Path 13966" class="cls-2" d="m195.01,291.03l3.08,1.25-.55.73-3.09-1.24.55-.74"/>
    <path id="Path_13967" data-name="Path 13967" class="cls-2" d="m199.01,270.6c.84-.88,1.7-1.73,2.51-2.63.76-.85,1.47-1.74,2.29-2.54-1.16,2.1-2.74,3.93-4.64,5.39l-.16-.22"/>
    <path id="Path_13968" data-name="Path 13968" class="cls-2" d="m197.51,278.78l-3.64.14c1.29-1.38,3.48-1.48,3.64-.14"/>
    <path id="Path_13969" data-name="Path 13969" class="cls-2" d="m229.1,271.52c.21-1.08.47-2.41.75-3.83,1.04.8.67,2.18-.75,3.83"/>
    <path id="Path_13970" data-name="Path 13970" class="cls-2" d="m215.76,262.17c-1.3-.5-1.62-2.02-.86-4.03.27,1.25.53,2.49.86,4.03"/>
    <path id="Path_13971" data-name="Path 13971" class="cls-2" d="m232.23,262.13l-1.7-4.28c1.35.76,1.88,2.22,1.7,4.28"/>
    <path id="Path_13972" data-name="Path 13972" class="cls-2" d="m188.69,235.92l-3.57,5.32c.58-2.12,1.83-3.99,3.57-5.32"/>
    <path id="Path_13973" data-name="Path 13973" class="cls-2" d="m197.86,256.6c1.57-1.49,3.35-2.06,4.39-1.39l-4.39,1.39"/>
    <path id="Path_13974" data-name="Path 13974" class="cls-2" d="m181.31,243.71c-1.22,1.78-2.24,3.29-3.4,4.99.03-1.39,1.61-3.73,3.4-4.99"/>
    <path id="Path_13975" data-name="Path 13975" class="cls-2" d="m263.9,212.08c1.18-.09,1.58,2.17.93,3.68-.32-1.26-.62-2.47-.93-3.68"/>
    <path id="Path_13976" data-name="Path 13976" class="cls-2" d="m210.07,322.88l.81-4.11.75-.33c-.3,1.38-.6,2.77-.91,4.15l-.65.29"/>
    <path id="Path_13977" data-name="Path 13977" class="cls-2" d="m228.28,225.04c.05-1.32.7-2.54,1.77-3.32.42.66-.26,2-1.77,3.32"/>
    <path id="Path_13978" data-name="Path 13978" class="cls-2" d="m272.03,203.02c1.16-1.31,2.33-2.61,3.49-3.92l.24.18c-.86,1.51-2.3,2.61-3.4,3.95l-.33-.21"/>
    <path id="Path_13979" data-name="Path 13979" class="cls-2" d="m177.36,308.7l.88-.34,2.53.22c-1.34,1.09-2.99.95-3.41.12"/>
    <path id="Path_13980" data-name="Path 13980" class="cls-2" d="m205.5,252.24l-3.64,1.47c.04-.2.08-.41.12-.61l3.71-1.73-.19.87"/>
    <path id="Path_13981" data-name="Path 13981" class="cls-2" d="m207.24,324.44c.06-1.08.1-2.15.21-3.27.02-.2.37-.58.56-.87.11.13.35.21.31.41-.2,1.16-.46,2.35-.71,3.53l-.38.2"/>
    <path id="Path_13982" data-name="Path 13982" class="cls-2" d="m261.38,201.47c1.26.65,1.4,1.68.31,3.47-.09-1.06-.19-2.11-.31-3.47"/>
    <path id="Path_13983" data-name="Path 13983" class="cls-2" d="m243.81,199.78l-2,3.93c-.7-.95-.01-2.28,2-3.93"/>
    <path id="Path_13984" data-name="Path 13984" class="cls-2" d="m251.95,187.97l-4.38,4.31c.93-1.89,2.47-3.41,4.38-4.31"/>
    <path id="Path_13985" data-name="Path 13985" class="cls-2" d="m196.93,288.94l2.46,2.07-.47.53c-1.07-.46-1.82-1.44-1.99-2.59"/>
    <path id="Path_13986" data-name="Path 13986" class="cls-2" d="m265.68,190.52l-1.75,4.17c-.63-1.01,0-2.45,1.75-4.17"/>
    <path id="Path_13987" data-name="Path 13987" class="cls-2" d="m224.25,240.71c1.17-.13,1.4.63,1.16,2.15-1.14-.23-1.26-1.09-1.16-2.15"/>
    <path id="Path_13988" data-name="Path 13988" class="cls-2" d="m171.31,269.45l3.32-.79c-.8,1.07-2.17,1.56-3.46,1.23.05-.15.1-.29.15-.44"/>
    <path id="Path_13989" data-name="Path 13989" class="cls-2" d="m247.23,220.96l3.96-2.04c-.94,1.45-2.77,2.42-3.96,2.04"/>
    <path id="Path_13990" data-name="Path 13990" class="cls-2" d="m270.82,212.63l-2.67-.8c.15-.21.3-.43.44-.64l2.65.8-.42.64"/>
    <path id="Path_13991" data-name="Path 13991" class="cls-2" d="m172.94,288.78l-2.88,2.6c.55-1.76,1.47-2.61,2.88-2.6"/>
    <path id="Path_13992" data-name="Path 13992" class="cls-2" d="m211.95,229.09l-.44.18,1.98-3.88h.54s-2.08,3.69-2.08,3.69"/>
    <path id="Path_13993" data-name="Path 13993" class="cls-2" d="m166.08,278.28c.32.68.65,1.36,1,2.1l-3.11-.31,1.7-.5c.04-.38.07-.72.11-1.06l.3-.23"/>
    <path id="Path_13994" data-name="Path 13994" class="cls-2" d="m229.91,227.74l-1.45,3.51c-.69-.61-.16-1.99,1.45-3.51"/>
    <path id="Path_13995" data-name="Path 13995" class="cls-2" d="m244.86,246.58c.5-.52.98-1.07,1.5-1.54.32-.25.66-.46,1.02-.64-.1.41-.27.81-.5,1.17-.59.53-1.21,1.02-1.86,1.48l-.15-.46"/>
    <path id="Path_13996" data-name="Path 13996" class="cls-2" d="m204.97,261.26l3.23-3.24c-.7,1.41-1.77,2.61-3.1,3.46l-.13-.22"/>
    <path id="Path_13997" data-name="Path 13997" class="cls-2" d="m201.86,286.31l-1.2-1.6c.21-.21.42-.43.63-.64.45.47.91.94,1.36,1.41l-.79.84"/>
    <path id="Path_13998" data-name="Path 13998" class="cls-2" d="m206.89,320.14l2.69-4.49.33.02-2.58,4.54-.44-.07"/>
    <path id="Path_13999" data-name="Path 13999" class="cls-2" d="m254.94,195.24c0,.88,0,1.62,0,2.46-1.39,0-1.36-.84,0-2.46"/>
    <path id="Path_14000" data-name="Path 14000" class="cls-2" d="m213.4,270.19l3.34-2.9c.05.13.11.26.16.39l-3.36,2.89c-.05-.12-.1-.25-.15-.37"/>
    <path id="Path_14001" data-name="Path 14001" class="cls-2" d="m226.22,204.78l2.28,1.12-.4.52-2.33-1.06c.15-.2.3-.39.46-.59"/>
    <path id="Path_14002" data-name="Path 14002" class="cls-2" d="m249.68,225.52c1.41-1.2,2.42-1.17,2.5.04l-2.5-.04"/>
    <path id="Path_14003" data-name="Path 14003" class="cls-2" d="m208.17,236.75c-.64,1.22-1.19,2.26-1.71,3.25-.44-1.03.09-2.12,1.71-3.25"/>
    <path id="Path_14004" data-name="Path 14004" class="cls-2" d="m280.78,181.21l2.44-2.24.17.29c-.53,1.02-1.39,1.83-2.44,2.3-.06-.12-.12-.23-.17-.35"/>
    <path id="Path_14005" data-name="Path 14005" class="cls-2" d="m271.19,183.19c.38-1.2.75-2.4,1.12-3.59l.42-.14c-.4,1.21-.12,2.18-1.55,3.73"/>
    <path id="Path_14006" data-name="Path 14006" class="cls-2" d="m250.98,197.88c.09.12.26.19.26.36,0,.54-.07,1.12-.11,1.68-.2.07-.58.27-.59.21-.06-.62-.05-1.27-.07-1.92l.5-.34"/>
    <path id="Path_14007" data-name="Path 14007" class="cls-2" d="m194.39,264.43l-3.27,2.21c.94-1.46,1.94-2.2,3.27-2.21"/>
    <path id="Path_14008" data-name="Path 14008" class="cls-2" d="m186.03,241.54l1.59-2.76h.55s-1.54,2.8-1.54,2.8l-.59-.04Z"/>
    <path id="Path_14009" data-name="Path 14009" class="cls-2" d="m256.27,230.93l-2.07-.52.3-.47,2.26.25-.49.74"/>
    <path id="Path_14010" data-name="Path 14010" class="cls-2" d="m226.16,272.39l-2.96,3.32-.14-.1,2.96-3.32.14.1"/>
    <path id="Path_14011" data-name="Path 14011" class="cls-2" d="m191.95,243.17c-.64-.35-.94-.96-.2-2.38l.6,2.02-.4.36"/>
    <path id="Path_14012" data-name="Path 14012" class="cls-2" d="m235.26,235.76l-3.11,3.49-.13-.08c1.03-1.16,2.07-2.32,3.1-3.48l.15.06"/>
    <path id="Path_14013" data-name="Path 14013" class="cls-2" d="m191.46,284.43l1.37-2.42c.59.66.4,1.07-1,2.43h-.37"/>
    <path id="Path_14014" data-name="Path 14014" class="cls-2" d="m165.87,303.4l2.55-1.5c0,.2-.01.4-.02.61l-2.54,1.55v-.66"/>
    <path id="Path_14015" data-name="Path 14015" class="cls-2" d="m182.35,302.08l2.16-.02c-1.29,1.34-2.16,1.37-2.16.02"/>
    <path id="Path_14016" data-name="Path 14016" class="cls-2" d="m219.33,232.06c-.01.89-.02,1.62-.04,2.35-1.14.1-1.18-.69.04-2.35"/>
    <path id="Path_14017" data-name="Path 14017" class="cls-2" d="m191.47,278.69c.49-.59.98-1.19,1.85-2.24-.15.77-.1,1.28-.36,1.61-.43.41-.91.75-1.43,1.03l-.06-.4"/>
    <path id="Path_14018" data-name="Path 14018" class="cls-2" d="m225.74,247.41l4.11-3c.02.1.04.2.06.3l-4.05,3.09-.13-.39"/>
    <path id="Path_14019" data-name="Path 14019" class="cls-2" d="m251.17,187.18l-3.33,2.87c.37-1.21,1.27-2.04,3.33-2.87"/>
    <path id="Path_14020" data-name="Path 14020" class="cls-2" d="m197.81,283.54l1.53.93-.5.64-1.49-.96.46-.61"/>
    <path id="Path_14021" data-name="Path 14021" class="cls-2" d="m207.39,278.05l1.54,1.98-.4.4c-.52-.65-1.04-1.29-1.56-1.94l.42-.44Z"/>
    <path id="Path_14022" data-name="Path 14022" class="cls-2" d="m185.34,245.32l1.81-2.9.44.05-1.79,2.92-.46-.07"/>
    <path id="Path_14023" data-name="Path 14023" class="cls-2" d="m229.58,234.43l.9,1.89c-1.48.2-1.75-.36-.9-1.89"/>
    <path id="Path_14024" data-name="Path 14024" class="cls-2" d="m279.48,187.56c.63-.36,1.26-.73,1.88-1.04.03.21.04.41.03.62l-1.95,1.05c.02-.21.04-.42.05-.62"/>
    <path id="Path_14025" data-name="Path 14025" class="cls-2" d="m282.25,178.32c-.68,1.07-1.33,2.26-2.26,2.26l-.09-.39,2.35-1.87"/>
    <path id="Path_14026" data-name="Path 14026" class="cls-2" d="m221.02,243.13l1.28,1.08-.35.4-1.27-1.06.33-.41"/>
    <path id="Path_14027" data-name="Path 14027" class="cls-2" d="m215.5,234.64l.28,1.99-.44.32c-.71-.21-.64-.99.16-2.32"/>
    <path id="Path_14028" data-name="Path 14028" class="cls-2" d="m159.14,348.52c1.7-2.44,3.45-5,5.27-7.53.43-.48.92-.91,1.44-1.29-.07.46.03,1.03-.24,1.36-2.05,2.48-4.18,4.91-6.29,7.35-.1.11-.27.16-.18.11"/>
    <path id="Path_14029" data-name="Path 14029" class="cls-2" d="m165.38,334.34c-.83,1.33-1.66,2.66-2.49,3.99l-.55-.04c.78-1.33,1.56-2.67,2.34-4l.71.06"/>
    <path id="Path_14030" data-name="Path 14030" class="cls-2" d="m166.97,334.58l-1.63,3.24-.51.04,1.63-3.24.51-.04"/>
    <path id="Path_14031" data-name="Path 14031" class="cls-2" d="m163.91,248.37l6.35,9.96-.15.22c-1.54-.4-3.13-.73-4.6-1.23-3.41-1.15-6.65-2.55-10.16-3.56-4.55-1.3-9.28-2.35-13.97-3.44-2.14-.5-4.33-.94-6.59-1.25-1.85-.25-3.84-.28-5.67-.6,3.19-1.07,5.67-.75,8.2-.5l.31-.43-4.88-2.46.36-.49c1.25.44,2.56.8,3.73,1.35,1.04.48,2.01,1.1,2.89,1.83,1.85,1.55,4.75,1.57,7.28,2.14.67.17,1.38.15,2.04-.06l-6.48-5.44.24-.33c.5.15.98.36,1.43.63,2.34,1.79,4.54,3.74,7,5.38,1.56.85,3.19,1.54,4.89,2.08.79.32,1.6.62,2.41.93l.52-.52c-.16-.41-.37-.79-.64-1.14-1.76-1.65-3.57-3.26-5.35-4.88-.23-.2-.43-.43-.64-.65l.46-.52c.79.67,1.6,1.32,2.38,2,1.24,1.08,2.47,2.17,3.68,3.29.72.82,1.51,1.58,2.36,2.27,1.68,1.1,3.52,2.01,5.3,2.99.06.04.22-.05.69-.17-1.38-2.4-2.65-4.62-3.93-6.84l.57-.56"/>
    <path id="Path_14032" data-name="Path 14032" class="cls-2" d="m161.05,262.14l6.53-1.82c-1.8,1.55-4.19,2.22-6.53,1.82"/>
    <path id="Path_14033" data-name="Path 14033" class="cls-2" d="m168.48,253.31l-1.84-2.89.48-.48,1.99,2.74-.63.63Z"/>
    <path id="Path_14034" data-name="Path 14034" class="cls-2" d="m185.97,249.57l.04,3.82-.64.41c0-1.28.02-2.56.02-3.85l.58-.38"/>
    <path id="Path_14035" data-name="Path 14035" class="cls-2" d="m195.69,247.98l-1.78,3.97c-.53-.85-.14-1.8,1.78-3.97"/>
    <path id="Path_14036" data-name="Path 14036" class="cls-2" d="m180.67,324.07c0,.39-.1.9.05,1.15.31.49.67.81-.31,2-.27.33-.09,1.08.08,1.48.38.93.9,1.74,1.3,2.65.13.45.11.93-.05,1.37-2.7-2.07-3.03-5.85-1.66-10.87,1.18-.31,2.69,1.56,2.47,3.41l-1.42-1.59-.46.4"/>
    <path id="Path_14037" data-name="Path 14037" class="cls-2" d="m177.38,336.18l2.09,3.05-.43.47-1.37-.73c-.02,2.76,2.39,3,2.66,5.18-2.61.55-4.5-4-2.96-7.97"/>
    <path id="Path_14038" data-name="Path 14038" class="cls-2" d="m179.82,376.14c-1.05-.11-.48-1.58-.77-2.34l.51-.44.78,2.29-.52.49"/>
    <path id="Path_14039" data-name="Path 14039" class="cls-2" d="m178.48,353.5l-1.95-.62c.16-.23.32-.47.48-.7l2.04.49-.56.83"/>
    <path id="Path_14040" data-name="Path 14040" class="cls-2" d="m177.09,360l2.18.04-.38.7-2.2.02.39-.76"/>
    <path id="Path_14041" data-name="Path 14041" class="cls-2" d="m178.58,359.08l-1.84-.57.47-.67,1.86.56-.5.67"/>
    <path id="Path_14042" data-name="Path 14042" class="cls-2" d="m172.51,357.8l-1.92,9.82c-.64-2.7.44-6.18,1.92-9.82"/>
    <path id="Path_14043" data-name="Path 14043" class="cls-2" d="m173,349.78l-3.42,11.61c.47-3.93,1.45-7.79,2.91-11.47l.51-.15"/>
    <path id="Path_14044" data-name="Path 14044" class="cls-2" d="m175.01,332.82l-3.42,9.18-.57.15,3.44-9.16.55-.17"/>
    <path id="Path_14045" data-name="Path 14045" class="cls-2" d="m172.45,368.13c-.14,1.7-.29,3.4-.43,5.09-1.3.54-1.26-1.54.43-5.09"/>
    <path id="Path_14046" data-name="Path 14046" class="cls-2" d="m168.42,356.85c.3-1,.6-2,.9-3.01l.55-.21-.83,2.98-.63.24"/>
    <path id="Path_14047" data-name="Path 14047" class="cls-2" d="m171.33,336.41l1.21-3.1.46-.12-1.14,3.08-.54.14"/>
  </g>
  <g>
    <path id="Path_14049" data-name="Path 14049" class="cls-2" d="m188.15,225.45c-22.71,24.97-30.12,55.33-16.54,67.68l179.4,163.14,1.85-2.03-172.09-156.49c15.24,3.38,38.2-7.19,56.66-27.49s26.81-44.15,22-59.01l172.09,156.49,1.85-2.03-179.4-163.14c-13.59-12.35-43.11-2.09-65.81,22.88m47.24,42.96c-21.68,23.85-49.47,34.03-61.93,22.69s-4.96-39.96,16.72-63.8,49.47-34.03,61.93-22.69,4.96,39.96-16.72,63.8"/>
    <line id="Line_325" data-name="Line 325" class="cls-4" x1="245.46" y1="166.34" x2="248.91" y2="161.43"/>
    <line id="Line_326" data-name="Line 326" class="cls-3" x1="256.04" y1="151.26" x2="323.83" y2="54.58"/>
    <line id="Line_327" data-name="Line 327" class="cls-4" x1="327.4" y1="49.49" x2="330.85" y2="44.58"/>
    <line id="Line_328" data-name="Line 328" class="cls-4" x1="453.34" y1="346.74" x2="452.68" y2="340.77"/>
    <line id="Line_329" data-name="Line 329" class="cls-5" x1="451.32" y1="328.35" x2="430.11" y2="135.79"/>
    <line id="Line_330" data-name="Line 330" class="cls-4" x1="429.43" y1="129.58" x2="428.77" y2="123.61"/>
  </g>
</svg>