<?xml version="1.0" encoding="utf-8"?>
<!-- Generator: Adobe Illustrator 28.0.0, SVG Export Plug-In . SVG Version: 6.00 Build 0)  -->
<svg version="1.1" id="Layer_1" xmlns="http://www.w3.org/2000/svg" xmlns:xlink="http://www.w3.org/1999/xlink" x="0px" y="0px"
	 viewBox="0 0 655 470" style="enable-background:new 0 0 655 470;" xml:space="preserve">
<style type="text/css">
	.st0{opacity:0.3;fill:#FFFFFF;enable-background:new    ;}
	.st1{fill:none;stroke:#FFFFFF;stroke-linecap:square;stroke-miterlimit:10;}
	.st2{fill:none;stroke:#FFFFFF;stroke-linecap:square;stroke-miterlimit:10;stroke-dasharray:0,0,12.43,12.43;}
	.st3{fill:none;stroke:#FFFFFF;stroke-linecap:square;stroke-miterlimit:10;stroke-dasharray:0,0,12.5,12.5;}
	.st4{fill:#FFFFFF;}
</style>
<path class="st0" d="M505.3,261.5c-8.8,9.7-11.7,21.5-6.4,26.3l117.5,106.9c5.3,4.8,16.8,0.8,25.6-8.9s11.7-21.5,6.4-26.3
	L530.8,252.6C525.5,247.8,514.1,251.8,505.3,261.5L505.3,261.5z M506.1,262.2c8.4-9.3,19.2-13.2,24.1-8.8c4.8,4.4,1.9,15.5-6.5,24.8
	c-8.4,9.3-19.2,13.2-24.1,8.8C494.7,282.6,497.6,271.5,506.1,262.2L506.1,262.2z M647.6,360.3c4.8,4.4,1.9,15.5-6.5,24.8
	c-8.4,9.3-19.2,13.2-24.1,8.8L502.4,289.6c5.9,1.3,14.8-2.8,22-10.7c7.2-7.9,10.4-17.2,8.5-22.9L647.6,360.3L647.6,360.3z"/>
<path class="st0" d="M368.8,106.1L499,224.4c4.8,4.4,1.9,15.5-6.5,24.8c-8.4,9.3-19.2,13.2-24.1,8.8L338.3,139.7l-0.7,0.8
	l130.2,118.4c5.3,4.8,16.8,0.8,25.6-8.9s11.7-21.5,6.4-26.3L369.5,105.3L368.8,106.1L368.8,106.1z"/>
<g>
	<line class="st1" x1="128.6" y1="175.3" x2="132.1" y2="170.4"/>
	<line class="st2" x1="139.2" y1="160.2" x2="207" y2="63.5"/>
	<line class="st1" x1="210.6" y1="58.4" x2="214" y2="53.5"/>
</g>
<g>
	<line class="st1" x1="336.5" y1="355.7" x2="335.9" y2="349.7"/>
	<line class="st3" x1="334.5" y1="337.3" x2="313.3" y2="144.7"/>
	<line class="st1" x1="312.6" y1="138.5" x2="312" y2="132.6"/>
</g>
<path class="st4" d="M154.6,231.2l1.6,1.6c0,0,0,0,0.1-0.1l158.5,144.1l1.8-2l0,0L156.4,229.3l-7.8-7.7l0,0l-0.6-0.8
	c-0.6-0.5-1.1-1.1-1.7-1.7c-0.1-0.1-0.3-0.3-0.4-0.4c-0.8-0.5-1.7-0.9-2.5-1.5c0,0,0,0.1,0,0.1c-1.2-0.7-2.5-1.1-3.8-1.6
	c-1.5-0.5-3-0.9-4.5-1.3c-1.4,0-2.7,0-4.1,0.1c-3,0.2-6,0.6-9.2,1.5c-1.4,0.4-2.7-0.2-3.5-0.9c-0.1-0.1-0.1-0.2-0.2-0.2
	c-10.1,1.9-20.4,4.1-31.2,6.3l0-0.1l-2.3,0.5l0,0c0,0,0,0-0.1,0l-23,5.1L33,209.2l-5.1-1.6l-2.1,2.2l5.8,5.6l4.8,4.6l4.4,4.2
	l1.7,1.8c-0.2,0-0.4,0-0.5,0.1c0.9,1,1.7,1.9,2.6,2.8c0.6,0.5,1.2,1,1.9,1.4l11.7,12.7c1.5,7,0.9,15.5,0.7,23.6
	c-0.2,7.8-3.9,18.1,1.7,21.6c0.3,0.2,0.1,0.9,0,1.5c-1.5,6.2-1.3,10.8,0.1,14.5c0.5,0.9,0.3,1.7,0.6,2.7c0.1,0.1,0.2,0.4,0.2,0.5
	c0.1,0.1,0.2,0.3,0.4,0.4l7.7,7.6c0,0-0.1,0.1-0.1,0.1l164.8,149.9l1.8-2L72.9,315c0,0,0,0,0.1,0l-4.9-4.8c-0.7-0.4-1.3-0.8-1.8-1.4
	c-0.6-0.7-0.9-1.5-1.2-2.5c-0.2-0.7-0.3-1.5-0.4-2.3c-0.7-1.5-1.2-3.2-2-4.6c-0.3-0.5-0.4-1-0.4-1.6c-0.7-1-0.9-2.4-0.3-3.9
	c0.2-1,0.8-2,1.7-3.1c0-0.1-0.1-0.2-0.1-0.3c0.2-0.1,0.4-0.2,0.6-0.3c0.9-0.9,1.7-1.5,2.6-1.8c0.7-0.4,1.5-0.8,2.3-1
	c0.2,0,0.4-0.1,0.6-0.1c0.5-0.2,1-0.4,1.5-0.6c1.1-0.4,2.1-0.9,3.2-1.4c2-1,4-2,6.1-2.9c1.1-0.5,2.2-1,3.2-1.4
	c0.2-0.1,0.3-0.2,0.4-0.2c0.1-0.1,0.2-0.1,0.4-0.2c0.6-0.3,1.1-0.7,1.7-1c0.9-0.6,1.8-1.2,2.7-1.8c-7.8,2.2-15.3,4.6-21.4,4.7
	c-9.6,0.2-2.8-13.2-3.3-22.1c12,0.9,22.6,1.6,33.2,2.4c0.7-0.9,1.3-1.8,2-2.6c-10.4-3.8-28,1.5-35.8-7.6c12.4-3.6,22.9-6.6,33.5-9.7
	c-9.4-2.4-27.7,8.1-34.3,0c14.7-3.8,28-7.2,41.3-10.7c-12.8-1-32.2,7.9-41.7,1.3c28.2-11.1,51.1-14,72.3-14c1,0,1.8,0.4,2.5,0.9
	c0.2,0,0.4,0.1,0.6,0.1c0.5,0.1,1,0.3,1.3,0.6c0.3,0.1,0.6,0.2,0.9,0.4c0.5,0.3,1.1,0.7,1.6,1c0.3,0.1,0.6,0.2,0.9,0.4
	c0.4,0.2,0.8,0.4,1.2,0.7c2,0.6,4,1.2,5.6,2.4l0-0.1l0.4,0.4c0,0,0.1,0.1,0.1,0.1c0,0,0.1,0.1,0.1,0.1l2.3,2.3c0,0-0.1,0.1-0.1,0.1
	L154.6,231.2z"/>
<path class="st4" d="M274.3,20.6l0.6,0.6c0,0,0,0,0,0l62.2,56.6l0.7-0.8l0,0L275,19.8l-3.1-3l0,0l-0.2-0.3c-0.2-0.2-0.5-0.4-0.7-0.7
	c-0.1-0.1-0.1-0.1-0.2-0.2c-0.3-0.2-0.7-0.4-1-0.6c0,0,0,0,0,0c-0.5-0.3-1-0.4-1.5-0.6c-0.6-0.2-1.2-0.4-1.8-0.5c-0.5,0-1.1,0-1.6,0
	c-1.2,0.1-2.4,0.2-3.6,0.6c-0.6,0.2-1.1-0.1-1.4-0.3c0,0,0-0.1-0.1-0.1c-4,0.7-8,1.6-12.3,2.5l0,0l-0.9,0.2l0,0c0,0,0,0,0,0l-9,2
	l-11.2-6.9l-2-0.6l-0.8,0.9l2.3,2.2l1.9,1.8l1.7,1.7l0.7,0.7c-0.1,0-0.1,0-0.2,0c0.3,0.4,0.7,0.7,1,1.1c0.2,0.2,0.5,0.4,0.7,0.6
	l4.6,5c0.6,2.7,0.4,6.1,0.3,9.3c-0.1,3.1-1.5,7.1,0.7,8.5c0.1,0.1,0,0.4,0,0.6c-0.6,2.4-0.5,4.2,0,5.7c0.2,0.3,0.1,0.7,0.2,1
	c0,0,0.1,0.2,0.1,0.2c0,0.1,0.1,0.1,0.1,0.1l3,3c0,0,0,0,0,0l64.7,58.8l0.7-0.8l-64-58.2c0,0,0,0,0,0l-1.9-1.9
	c-0.3-0.1-0.5-0.3-0.7-0.5c-0.2-0.3-0.4-0.6-0.5-1c-0.1-0.3-0.1-0.6-0.2-0.9c-0.3-0.6-0.5-1.2-0.8-1.8c-0.1-0.2-0.1-0.4-0.1-0.6
	c-0.3-0.4-0.3-0.9-0.1-1.5c0.1-0.4,0.3-0.8,0.7-1.2c0,0,0-0.1,0-0.1c0.1,0,0.2-0.1,0.2-0.1c0.3-0.3,0.7-0.6,1-0.7
	c0.3-0.2,0.6-0.3,0.9-0.4c0.1,0,0.2,0,0.2-0.1c0.2-0.1,0.4-0.1,0.6-0.2c0.4-0.2,0.8-0.4,1.2-0.6c0.8-0.4,1.6-0.8,2.4-1.1
	c0.4-0.2,0.8-0.4,1.3-0.6c0.1,0,0.1-0.1,0.1-0.1c0,0,0.1,0,0.1-0.1c0.2-0.1,0.4-0.3,0.7-0.4c0.4-0.2,0.7-0.5,1-0.7
	c-3.1,0.9-6,1.8-8.4,1.9c-3.8,0.1-1.1-5.2-1.3-8.7c4.7,0.3,8.9,0.6,13,0.9c0.3-0.3,0.5-0.7,0.8-1c-4.1-1.5-11,0.6-14-3
	c4.8-1.4,9-2.6,13.1-3.8c-3.7-0.9-10.9,3.2-13.4,0c5.7-1.5,11-2.8,16.2-4.2c-5-0.4-12.6,3.1-16.4,0.5c11.1-4.3,20.1-5.5,28.3-5.5
	c0.4,0,0.7,0.1,1,0.3c0.1,0,0.2,0,0.2,0c0.2,0,0.4,0.1,0.5,0.2c0.1,0.1,0.2,0.1,0.4,0.2c0.2,0.1,0.4,0.3,0.6,0.4
	c0.1,0,0.3,0.1,0.4,0.1c0.2,0.1,0.3,0.2,0.5,0.3c0.8,0.2,1.6,0.5,2.2,1l0,0l0.1,0.1c0,0,0,0,0.1,0c0,0,0,0,0,0.1l0.9,0.9
	c0,0,0,0,0,0L274.3,20.6z"/>
</svg>
