<?xml version="1.0" encoding="UTF-8"?>
<svg id="Layer_1" data-name="Layer 1" xmlns="http://www.w3.org/2000/svg" viewBox="0 0 655 470">
  <defs>
    <style>
      .cls-1 {
        stroke-dasharray: 0 0 12.43 12.43;
      }

      .cls-1, .cls-2, .cls-3 {
        fill: none;
        stroke: #fff;
        stroke-linecap: square;
        stroke-miterlimit: 10;
      }

      .cls-4, .cls-5 {
        fill: #fff;
        stroke-width: 0px;
      }

      .cls-3 {
        stroke-dasharray: 0 0 12.5 12.5;
      }

      .cls-5 {
        opacity: .3;
      }
    </style>
  </defs>
  <path class="cls-5" d="m505.26,261.53c-8.82,9.7-11.71,21.5-6.43,26.3l117.53,106.87c5.28,4.8,16.75.81,25.57-8.89,8.82-9.7,11.71-21.5,6.43-26.3l-117.53-106.87c-5.28-4.8-16.75-.81-25.57,8.89Zm.79.72c8.43-9.27,19.22-13.22,24.07-8.82,4.84,4.4,1.93,15.53-6.5,24.79-8.43,9.27-19.22,13.22-24.07,8.82-4.84-4.4-1.93-15.53,6.5-24.79Zm141.59,98.05c4.84,4.4,1.93,15.53-6.5,24.79-8.43,9.27-19.22,13.22-24.07,8.82l-114.69-104.29c5.92,1.31,14.85-2.8,22.02-10.68,7.17-7.89,10.42-17.16,8.55-22.93l114.69,104.29Z"/>
  <path class="cls-5" d="m368.84,106.06l130.18,118.38c4.84,4.4,1.93,15.53-6.5,24.79-8.43,9.27-19.22,13.22-24.07,8.82l-130.18-118.38-.72.79,130.18,118.38c5.28,4.8,16.75.81,25.57-8.89,8.82-9.7,11.71-21.5,6.43-26.3l-130.18-118.38-.72.79Z"/>
  <g>
    <line class="cls-2" x1="128.65" y1="175.29" x2="132.1" y2="170.38"/>
    <line class="cls-1" x1="139.23" y1="160.2" x2="207.02" y2="63.53"/>
    <line class="cls-2" x1="210.59" y1="58.44" x2="214.04" y2="53.53"/>
  </g>
  <g>
    <line class="cls-2" x1="336.53" y1="355.68" x2="335.87" y2="349.72"/>
    <line class="cls-3" x1="334.51" y1="337.3" x2="313.3" y2="144.73"/>
    <line class="cls-2" x1="312.62" y1="138.52" x2="311.96" y2="132.56"/>
  </g>
  <g>
    <path class="cls-4" d="m316.55,374.86l-174.59-158.76v-.02s-.81-.92-.81-.92c-.75-.62-1.45-1.29-2.15-1.97-.17-.16-.37-.32-.54-.49-1-.56-2-1.14-2.97-1.78.02.02.04.06.05.08-1.42-.8-2.92-1.42-4.48-1.99-1.71-.62-3.44-1.18-5.19-1.72-1.53-.07-3.05-.16-4.59-.18-3.32.01-6.66.26-10.01,1.01-1.51.34-3.02-.35-4.05-1.21-.1-.09-.16-.2-.24-.28-10.98,1.4-22.2,3.17-33.92,4.86l-.03-.07-2.46.41s0-.01,0-.01c-.02,0-.04.02-.06.02l-24.91,4.12-34.6-21.13-5.93-2.13-2.05,2.31,7.34,6.51,6.02,5.33,5.56,4.93,2.13,2.1c-.2,0-.39.02-.59.03,1.1,1.11,2.21,2.21,3.37,3.26.71.64,1.49,1.19,2.3,1.71l14.93,14.7c2.71,7.74,3.33,17.06,4.31,26.03.94,8.58-1.64,19.6,5.15,23.87.34.22.26,1.01.18,1.62-.78,6.66.21,11.8,2.28,15.98.64,1.01.55,1.92,1.09,2.98.09.07.24.5.31.57.11.16.29.3.48.43l176.3,160.32,1.85-2.03L63.98,306.91c1.68.06,3.81-.23,5.58-.17l.76.05h0c1.04.1,2.06.22,3.08.38,8.49-.78,15.58-3.5,22.03-7.17.5-.84.9-1.75,1.36-2.61.32-.61.73-1.12,1.2-1.59-1.15.01-2.3.04-3.44-.05-.82-.06-1.66-.12-2.48-.24-1.99,1.09-4.04,2.12-6.17,3.08-4.79,2.17-10.42,3.44-16.09,3.81-1.39.08-2.7.02-3.93-.15-1.61.07-3.21-.06-4.79-.31-1.22-1.92-2.09-4.08-3.36-5.96-.38-.56-.57-1.17-.66-1.82-.89-1.16-1.32-2.7-.95-4.32.1-1.07.54-2.19,1.39-3.29-.06-.11-.11-.22-.17-.32.22-.1.43-.17.63-.26.83-.89,1.71-1.48,2.6-1.81.76-.44,1.58-.77,2.42-.92.21-.04.43-.09.64-.12.54-.17,1.07-.34,1.61-.52,1.11-.4,2.21-.87,3.31-1.36,2.11-.93,4.22-1.92,6.37-2.76,1.12-.45,2.26-.95,3.39-1.38.23-.11.34-.16.39-.18.12-.06.24-.12.37-.2.57-.33,1.15-.67,1.71-1.01.92-.57,1.81-1.18,2.7-1.78-8.39,1.93-16.45,3.99-23.19,3.77-10.68-.37-5.17-14.74-6.97-24.56,13.48,1.75,25.46,3.29,37.44,4.84.6-.93,1.2-1.84,1.8-2.77-12.19-4.82-31.09-.18-41.09-10.72,13.26-3.11,24.6-5.79,35.96-8.45-10.89-3.27-29.73,7.12-38.27-2.23,15.79-3.2,30.16-6.12,44.55-9.02-14.42-1.89-34.78,6.59-46.38-1.29,29.81-10.32,54.96-12.03,78.57-10.65,1.15.06,2.06.51,2.87,1.14.23.05.46.09.68.17.61.12,1.14.4,1.6.77.37.17.74.31,1.09.51.66.38,1.29.79,1.9,1.23.37.15.75.29,1.1.46,1.05.51,2.1,1.12,3.02,1.86,0,.07.02.13.02.21,1.2,1.42,2.06,2.92,2.81,4.71.42,1.01.35,2.19.07,3.27,0,.35-.04.71-.12,1.06-.05,1.11-.01,2.22-.02,3.33-.02,1.15-.11,2.32-.29,3.47-.21,1.21-.66,2.38-1.1,3.53-.4.77-.96,1.39-1.62,1.94-1,3.48-2.37,6.8-3.94,10.01-1.18,2.44-2.48,4.77-3.82,7.06.01.11.06.21.06.31.13.5.15,1,.12,1.5-.01.32.01.62.05.93,2.08-1.28,4.22-2.38,6.41-3.43,1.34-2.62,2.59-5.32,3.72-8.13,2.61-6.5,4.27-13.37,3.83-21.52-.18-.79-.32-1.6-.48-2.39.07-.11.16-.21.22-.31l-.91-3.66,171.55,156,1.85-2.03Z"/>
    <path class="cls-4" d="m116.26,276.71c-1.67,1.81-3.43,3.54-5.25,5.23,0,.26.01.5-.04.76,0,.72-.18,1.39-.49,2.04,1.05.56,1.97,1.39,2.61,2.39,1.58-1.4,3.13-2.82,4.6-4.29.02-.22.02-.42.07-.63.38-1.31.88-2.6,1.43-3.86.22-.5.41-1.01.62-1.51.02-.06.04-.12.05-.18-.22-.33-.46-.63-.72-.94-.62.29-1.25.57-1.89.82-.33.11-.66.13-1,.18Z"/>
  </g>
  <g>
    <path class="cls-4" d="m337.81,76.95l-68.45-62.24h0s-.32-.37-.32-.37c-.29-.24-.57-.51-.84-.77-.07-.06-.14-.12-.21-.19-.39-.22-.79-.45-1.16-.7,0,0,.01.02.02.03-.56-.32-1.14-.55-1.76-.78-.67-.24-1.35-.46-2.03-.67-.6-.03-1.2-.06-1.8-.07-1.3,0-2.61.1-3.93.4-.59.13-1.18-.14-1.59-.47-.04-.03-.06-.08-.1-.11-4.3.55-8.7,1.24-13.3,1.91v-.03s-.98.16-.98.16c0,0,0,0,0,0,0,0-.02,0-.02,0l-9.76,1.62-13.57-8.28-2.32-.84-.8.91,2.88,2.55,2.36,2.09,2.18,1.93.84.82c-.08,0-.15,0-.23.01.43.44.87.87,1.32,1.28.28.25.58.47.9.67l5.85,5.76c1.06,3.04,1.31,6.69,1.69,10.2.37,3.37-.64,7.68,2.02,9.36.13.09.1.4.07.64-.31,2.61.08,4.62.9,6.27.25.4.22.75.43,1.17.03.03.09.2.12.22.04.06.11.12.19.17l69.12,62.85.73-.8-67.46-61.35c.66.03,1.49-.09,2.19-.07l.3.02h0c.41.04.81.09,1.21.15,3.33-.31,6.11-1.37,8.64-2.81.2-.33.35-.68.53-1.02.12-.24.29-.44.47-.62-.45,0-.9.01-1.35-.02-.32-.02-.65-.05-.97-.1-.78.43-1.58.83-2.42,1.21-1.88.85-4.08,1.35-6.31,1.49-.55.03-1.06,0-1.54-.06-.63.03-1.26-.02-1.88-.12-.48-.75-.82-1.6-1.32-2.34-.15-.22-.23-.46-.26-.71-.35-.45-.52-1.06-.37-1.69.04-.42.21-.86.55-1.29-.02-.04-.04-.09-.07-.12.09-.04.17-.07.25-.1.33-.35.67-.58,1.02-.71.3-.17.62-.3.95-.36.08-.01.17-.03.25-.05.21-.07.42-.13.63-.21.44-.16.87-.34,1.3-.53.83-.36,1.66-.75,2.5-1.08.44-.18.89-.37,1.33-.54.09-.04.13-.06.15-.07.05-.02.1-.05.14-.08.22-.13.45-.26.67-.4.36-.22.71-.46,1.06-.7-3.29.76-6.45,1.57-9.09,1.48-4.19-.14-2.03-5.78-2.73-9.63,5.29.68,9.98,1.29,14.68,1.9.23-.36.47-.72.7-1.09-4.78-1.89-12.19-.07-16.11-4.2,5.2-1.22,9.65-2.27,14.1-3.31-4.27-1.28-11.66,2.79-15-.88,6.19-1.25,11.82-2.4,17.46-3.54-5.65-.74-13.63,2.59-18.18-.51,11.69-4.05,21.55-4.72,30.8-4.17.45.02.81.2,1.13.45.09.02.18.03.27.07.24.05.45.16.63.3.14.07.29.12.43.2.26.15.51.31.75.48.14.06.29.12.43.18.41.2.82.44,1.18.73,0,.03,0,.05,0,.08.47.55.81,1.14,1.1,1.85.16.4.14.86.03,1.28,0,.14-.01.28-.05.42-.02.44,0,.87,0,1.31,0,.45-.04.91-.12,1.36-.08.47-.26.93-.43,1.38-.16.3-.38.55-.64.76-.39,1.36-.93,2.67-1.55,3.93-.46.96-.97,1.87-1.5,2.77,0,.04.02.08.02.12.05.2.06.39.05.59,0,.12,0,.24.02.36.81-.5,1.66-.93,2.51-1.35.53-1.03,1.01-2.09,1.46-3.19,1.02-2.55,1.68-5.24,1.5-8.44-.07-.31-.12-.63-.19-.94.03-.04.06-.08.09-.12l-.36-1.43,67.25,61.16.72-.8Z"/>
    <path class="cls-4" d="m259.29,38.47c-.66.71-1.35,1.39-2.06,2.05,0,.1,0,.2-.01.3,0,.28-.07.55-.19.8.41.22.77.55,1.02.94.62-.55,1.23-1.11,1.8-1.68,0-.09,0-.16.03-.25.15-.51.34-1.02.56-1.51.09-.2.16-.4.24-.59,0-.02.01-.05.02-.07-.09-.13-.18-.25-.28-.37-.24.11-.49.22-.74.32-.13.04-.26.05-.39.07Z"/>
  </g>
</svg>