<?xml version="1.0" encoding="UTF-8"?>
<svg id="Layer_1" data-name="Layer 1" xmlns="http://www.w3.org/2000/svg" viewBox="0 0 655 470">
  <defs>
    <style>
      .cls-1 {
        stroke-dasharray: 0 0 12.43 12.43;
      }

      .cls-1, .cls-2, .cls-3 {
        fill: none;
        stroke: #fff;
        stroke-linecap: square;
        stroke-miterlimit: 10;
      }

      .cls-4, .cls-5 {
        fill: #fff;
        stroke-width: 0px;
      }

      .cls-3 {
        stroke-dasharray: 0 0 12.5 12.5;
      }

      .cls-5 {
        opacity: .3;
      }
    </style>
  </defs>
  <path class="cls-5" d="m505.26,261.53c-8.82,9.7-11.71,21.5-6.43,26.3l117.53,106.87c5.28,4.8,16.75.81,25.57-8.89,8.82-9.7,11.71-21.5,6.43-26.3l-117.53-106.87c-5.28-4.8-16.75-.81-25.57,8.89Zm.79.72c8.43-9.27,19.22-13.22,24.07-8.82,4.84,4.4,1.93,15.53-6.5,24.79-8.43,9.27-19.22,13.22-24.07,8.82-4.84-4.4-1.93-15.53,6.5-24.79Zm141.59,98.05c4.84,4.4,1.93,15.53-6.5,24.79-8.43,9.27-19.22,13.22-24.07,8.82l-114.69-104.29c5.92,1.31,14.85-2.8,22.02-10.68,7.17-7.89,10.42-17.16,8.55-22.93l114.69,104.29Z"/>
  <path class="cls-5" d="m368.84,106.06l130.18,118.38c4.84,4.4,1.93,15.53-6.5,24.79-8.43,9.27-19.22,13.22-24.07,8.82l-130.18-118.38-.72.79,130.18,118.38c5.28,4.8,16.75.81,25.57-8.89,8.82-9.7,11.71-21.5,6.43-26.3l-130.18-118.38-.72.79Z"/>
  <g>
    <line class="cls-2" x1="128.65" y1="175.29" x2="132.1" y2="170.38"/>
    <line class="cls-1" x1="139.23" y1="160.2" x2="207.02" y2="63.53"/>
    <line class="cls-2" x1="210.59" y1="58.44" x2="214.04" y2="53.53"/>
  </g>
  <g>
    <line class="cls-2" x1="336.53" y1="355.68" x2="335.87" y2="349.72"/>
    <line class="cls-3" x1="334.51" y1="337.3" x2="313.3" y2="144.73"/>
    <line class="cls-2" x1="312.62" y1="138.52" x2="311.96" y2="132.56"/>
  </g>
  <path class="cls-4" d="m316.65,375.1l-176.02-160.06c-.37-.45-.73-.89-1.13-1.31-1.23-1.29-2.59-2.4-4.05-3.37l-.22-.17c-.09-.07-.07-.05-.17-.1-15.74-10.04-43.07-1.84-64.24,20.29-21.44,22.41-29.19,51.43-19.01,67.78l4.94,6.16c.27.29,1.87,1.67,2.63,2.29l174.91,159.05,1.85-2.03-170.4-154.95,1.33.4c2.56.64,5.27.97,8.11.97,14.95,0,33.24-8.7,48.38-24.53,18.76-19.61,27.04-44.27,22-61.08l.03.03-.76-1.88,169.96,154.55,1.85-2.03ZM73.47,233.14c15.66-16.37,34.66-24.79,49-23.26l-11.27,9.26c-.35.28-.6.67-.73,1.11l-5.27,18.03-1.88,9.41-6.69,7-4.96,5.18-16.61,6.33c-.07.03-.14.06-.22.09l-23.8,12.25c.79-14.08,8.71-31.09,22.4-45.41Zm7.86,47.97l-2.22,12.02-2.01,12.75c-.02.1.01.2.01.3-7.33.37-13.78-1.52-18.52-5.84l-.21-.18c-.27-.26-.58-.47-.84-.75-3.89-4.06-5.95-9.57-6.41-15.86l25.53-13.14,11.22-4.28-.48.83c-.04.08-.08.15-.12.23l-5.82,13.43c-.07.16-.12.33-.15.5Zm39.6,1.64c-12.36,12.93-26.83,20.92-39.43,22.96l1.86-11.79,2.16-11.69,5.66-13.07,3.41-5.94,5.7-5.96,6.34-6.63,11.86-7,10.09-1.79h14.28c-2.03,13.1-9.66,28.09-21.92,40.92Zm22.4-45.39c-.06,0-.11-.04-.18-.04h-14.76c-.12,0-.24.01-.36.03l-10.64,1.89c-.25.04-.48.13-.7.26l-8.3,4.9.99-5,5.02-17.15,12.37-10.17c.39-.32.61-.76.72-1.22,3.59,1.1,6.78,2.94,9.35,5.63,4.89,5.11,6.95,12.47,6.48,20.87Z"/>
  <path class="cls-4" d="m340.72,78.31L269.14,13.22c-.15-.18-.3-.36-.46-.53-.5-.52-1.05-.98-1.65-1.37l-.09-.07s-.03-.02-.07-.04c-6.4-4.08-17.51-.75-26.12,8.25-8.72,9.11-11.87,20.91-7.73,27.56l2.01,2.5c.11.12.76.68,1.07.93l71.13,64.68.75-.83-69.29-63.01.54.16c1.04.26,2.14.4,3.3.4,6.08,0,13.52-3.54,19.67-9.98,7.63-7.97,10.99-18,8.95-24.84h.01s-.31-.75-.31-.75l69.11,62.85.75-.83Zm-98.89-57.73c6.37-6.66,14.09-10.08,19.93-9.46l-4.58,3.76c-.14.12-.24.27-.3.45l-2.14,7.33-.76,3.83-2.72,2.84-2.02,2.11-6.75,2.57s-.06.02-.09.04l-9.68,4.98c.32-5.72,3.54-12.64,9.11-18.46Zm3.19,19.51l-.9,4.89-.82,5.18s0,.08,0,.12c-2.98.15-5.6-.62-7.53-2.38l-.08-.08c-.11-.11-.24-.19-.34-.3-1.58-1.65-2.42-3.89-2.61-6.45l10.38-5.34,4.56-1.74-.19.34s-.03.06-.05.09l-2.37,5.46c-.03.07-.05.13-.06.2Zm16.1.67c-5.03,5.26-10.91,8.51-16.03,9.34l.75-4.79.88-4.76,2.3-5.31,1.39-2.42,2.32-2.42,2.58-2.7,4.82-2.85,4.1-.73h5.81c-.82,5.33-3.93,11.42-8.92,16.64Zm9.11-18.46s-.05-.02-.07-.02h-6s-.1,0-.15.01l-4.32.77c-.1.02-.2.05-.28.11l-3.38,1.99.4-2.04,2.04-6.98,5.03-4.13c.16-.13.25-.31.29-.5,1.46.45,2.76,1.2,3.8,2.29,1.99,2.08,2.83,5.07,2.63,8.49Z"/>
</svg>