<?xml version="1.0" encoding="UTF-8"?>
<svg id="Layer_1" data-name="Layer 1" xmlns="http://www.w3.org/2000/svg" xmlns:xlink="http://www.w3.org/1999/xlink" viewBox="0 0 80 80">
  <defs>
    <style>
      .cls-1 {
        stroke-width: 4px;
      }

      .cls-1, .cls-2, .cls-3 {
        fill: none;
      }

      .cls-1, .cls-3 {
        stroke: #fff;
        stroke-linecap: square;
        stroke-miterlimit: 10;
      }

      .cls-2 {
        stroke-width: 0px;
      }

      .cls-4 {
        clip-path: url(#clippath);
      }
    </style>
    <clipPath id="clippath">
      <rect class="cls-2" x=".43" y=".43" width="79.14" height="79.14"/>
    </clipPath>
  </defs>
  <g id="Group_402" data-name="Group 402">
    <g class="cls-4">
      <g id="Group_401" data-name="Group 401">
        <circle id="Ellipse_24" data-name="Ellipse 24" class="cls-1" cx="40" cy="40" r="37.57"/>
        <path id="Path_3181" data-name="Path 3181" class="cls-3" d="m36.24,47.71l-6.43,27.75h20.39l-6.43-27.75h-7.52Z"/>
        <path id="Path_3182" data-name="Path 3182" class="cls-3" d="m32.43,44.03l-21.52,18.67,16.49,11.98,11.11-26.24-6.08-4.42Z"/>
        <path id="Path_3183" data-name="Path 3183" class="cls-3" d="m31.51,38.81l-28.38,2.46,6.3,19.39,24.41-14.69-2.33-7.15Z"/>
        <path id="Path_3184" data-name="Path 3184" class="cls-3" d="m33.83,34.04l-24.41-14.69-6.3,19.38,28.38,2.46,2.33-7.15Z"/>
        <path id="Path_3185" data-name="Path 3185" class="cls-3" d="m38.51,31.55L27.4,5.32l-16.49,11.98,21.52,18.67,6.08-4.42Z"/>
        <path id="Path_3186" data-name="Path 3186" class="cls-3" d="m43.76,32.29l6.43-27.76h-20.39l6.43,27.75h7.52Z"/>
        <path id="Path_3187" data-name="Path 3187" class="cls-3" d="m47.58,35.97l21.52-18.67-16.49-11.98-11.11,26.24,6.09,4.42Z"/>
        <path id="Path_3188" data-name="Path 3188" class="cls-3" d="m48.5,41.19l28.38-2.46-6.3-19.39-24.41,14.7,2.32,7.15Z"/>
        <path id="Path_3189" data-name="Path 3189" class="cls-3" d="m46.17,45.96l24.41,14.69,6.3-19.39-28.38-2.46-2.32,7.15Z"/>
        <path id="Path_3190" data-name="Path 3190" class="cls-3" d="m41.49,48.45l11.11,26.23,16.49-11.98-21.52-18.67-6.09,4.42Z"/>
      </g>
    </g>
  </g>
</svg>