<?xml version="1.0" encoding="UTF-8"?>
<svg id="Layer_1" data-name="Layer 1" xmlns="http://www.w3.org/2000/svg" viewBox="0 0 81 81">
  <defs>
    <style>
      .cls-1 {
        fill: #bababa;
        stroke-width: 0px;
      }
    </style>
  </defs>
  <path id="Path_13829" data-name="Path 13829" class="cls-1" d="m40.5.43C18.37.43.43,18.37.43,40.5c0,22.13,17.94,40.07,40.07,40.07s40.07-17.94,40.07-40.07h0C80.54,18.38,62.62.46,40.5.43m0,5c5.31,0,10.55,1.2,15.32,3.53l-8.14,30.54h-13.55l-7.74-31.1c4.44-1.96,9.25-2.97,14.1-2.97M5.43,40.5c.01-13.17,7.4-25.22,19.12-31.22l7.75,31.14-8.59,30.86c-11.26-6.15-18.27-17.95-18.28-30.78m35.07,35.07c-5.18,0-10.29-1.14-14.97-3.36l8.55-30.71h13.57l7.97,30.64c-4.72,2.27-9.89,3.44-15.12,3.43m16.94-4.38l-7.97-30.63,8.17-30.64c16.89,9.45,22.92,30.81,13.46,47.7-3.2,5.71-7.93,10.41-13.66,13.57"/>
</svg>