<?xml version="1.0" encoding="UTF-8"?>
<svg id="Layer_1" data-name="Layer 1" xmlns="http://www.w3.org/2000/svg" viewBox="0 0 81 81">
  <defs>
    <style>
      .cls-1 {
        fill: #bababa;
        stroke-width: 0px;
      }
    </style>
  </defs>
  <path id="Path_13830" data-name="Path 13830" class="cls-1" d="m40.5.43C18.37.43.43,18.37.43,40.5s17.94,40.07,40.07,40.07,40.07-17.94,40.07-40.07C80.54,18.38,62.62.46,40.5.43m35.03,41.77c-.19-.62-.41-1.24-.67-1.85-.31-.81-.4-1.7-.26-2.56.23-1.27.35-2.56.35-3.86.41,2.16.62,4.36.63,6.56,0,.57-.02,1.13-.04,1.7m-.99,6.74c-.19-2.35-1.4-4.49-3.32-5.87-.91-.67-1.71-1.51-2.56-2.26.1-.14.2-.29.3-.44l3.69,1.59c-1.35-1.33-3.08-2.2-4.95-2.49-.99-.24-1.96-.54-2.91-.9-2.04-.85-4.12-1.58-6.24-2.2l3.56,3.28.19-.14c-.37-.52-.74-1.04-1.32-1.84.68.24,1.06.35,1.41.5,3.66,1.58,6.96,3.88,9.71,6.76.84.95,1.35,2.14,1.47,3.4.14.85.26,1.72.43,2.58-.23.73-.48,1.44-.75,2.14-.13-.18-.26-.36-.37-.54-1.74-3.19-3.94-6.11-6.52-8.67-1.62-1.37-3.41-2.53-5.32-3.46-2.66-1.42-5.42-2.65-8.14-3.94-.21-.08-.43-.14-.66-.19l-.22.29c.57.48,1.13.98,1.72,1.44.63.49,1.17.77.85,1.92-.26,1.47-.3,2.97-.1,4.45.12.6.34,1.17.63,1.71l.42-.08v-5.91c2.05,1.1,3.61,2.91,4.4,5.1.92,2.31-.28,4.39-.56,6.69.94-1.11,1.61-3.66,2.06-7.51l.33-.13c.34.8.61,1.62.81,2.47.14.85.13,1.72-.05,2.56-.27.99-.02,2.06.68,2.82.28.5.43,1.06.46,1.63.04.4.04.81.01,1.21.98-.59,1.3-1.86.71-2.85-.1-.17-.22-.32-.36-.45-1.01-.84-.93-1.73-.84-2.83.12-1.48.03-2.97.03-4.21,1.04,1.24,1.38,2.92.9,4.46-.31.76-.1,1.63.52,2.16.99.99,1.16,2.54.41,3.73-.65,1.08-1.22,1.12-1.86.01-.55-.97-1.53-1.63-2.64-1.77l4.36,5.44c-2.37,1.06-4.71.38-6.99.83.81.19,1.61.43,2.42.57,2.12.37,4.25.81,6.39,1.03.68.07,1.37.13,2.05.19-.5.68-1.03,1.34-1.58,1.99-1.12-.12-2.22-.33-3.31-.62-.6-.11-1.15-.39-1.58-.81-1.28-1.53-2.83-1.39-4.48-.94-.42.11-.84.22-1.43.38.41-3.59,1.76-7.13-.68-10.33-1.11-1.67-2.64-3.02-4.43-3.93.21,1.27.4,2.34.58,3.42l-.28.14-1.39-1.28c-.07.79-.12,1.35-.2,2.14l.83-.49c1.11,1.13,1.07,2.6-.17,4.16,1.68,2.52,5.22,4.26,3.68,8.34.96-.5,1.85-1.02,2.78-1.46,1.18-.64,2.62-.59,3.76.12.39.22.71.54.94.93.45.85.14,1.27-.82,1.28-.46-.03-.93.04-1.36.21l4.77,1.65c-.81.75-1.65,1.46-2.52,2.14l-3.43.57.1.6,2.26-.38c-3.89,2.78-8.3,4.73-12.98,5.73.13-.42.18-.86.14-1.29.04-2.25-.39-4.48-1.26-6.55-.15-.31-.22-.94-.05-1.08,1.05-.88,2.18-1.67,3.37-2.35.27-.15,1.29.34,1.38.69.48,1.72.76,3.49,1.12,5.24.07.34.19.68.29,1.01l.52-.06c-.06-1.41-.13-2.83-.2-4.57,1.47,1.39.69,3.06,1.23,4.49,1.27-1.82.24-5.6-1.99-6.74,1.27-.93.64-1.63,0-2.51-.59-.92-1.06-1.9-1.4-2.93-.24-.73-.43-1.47-.57-2.22l-.38.12c.21,2.08.25,4.21,1.93,5.84.49.48.79,1.01-.13,1.23-.43-.19-.89-.3-1.36-.33-2.47-.19-3.5,1.78-4.83,3.28-.14.19-.18.43-.1.65,1.41,1.99,1.05,4.32,1.23,6.53.11,1.29-.39,1.63-1.69,1.6-1.18-.07-2.19-.87-2.54-2-.55-1.14-.99-2.33-1.56-3.45-.18-.36-.63-.57-.96-.85l-.22.28c.53,1.45,1.03,2.91,1.61,4.34.27.6.61,1.16,1.01,1.68.2.25.44.46.71.61-.81.06-1.63.1-2.46.11.05-1.04,0-2.07-.15-3.1h-.35c-.19.4-.31.83-.36,1.29.05.61,0,1.22-.18,1.8-.74-.02-1.48-.06-2.21-.12.01-.26.02-.52.05-.77.12-.95-.78-2.06.59-3.1.14,1.05.25,1.87.4,3.02.84-1.13.98-2.63.38-3.9-.55-1.28-.27-2.76.71-3.75,1.88-2,2.55-4.43,3.08-6.96.05-.2.11-.39.2-.57.03-.05.13-.07.45-.23-.16,1.77-.31,3.4-.49,5.4.32-.52.56-.74.59-.99.24-1.78.46-3.55.64-5.33.08-.8.03-1.62.04-2.43.02-.98,0-1.96.07-2.92.02-.55.17-1.09.42-1.58.82-1.4.56-5.57-.75-7.21.05.7.06,1.1.12,1.48.31,1.91.63,3.8-.54,5.58-.18.41-.23.86-.17,1.31.12,1.89-.28,3.78-1.16,5.46-.25.77-.47,1.54-.63,2.33-.65,1.61-1.4,3.18-2.12,4.76-.1.21-.37.33-.49.54-1.62,2.88-3.23,5.77-4.83,8.66-.12.23-.25.45-.41.66-.21-.04-.41-.09-.62-.14-.03-.11-.05-.22-.06-.34.04-.74-.02-1.47-.17-2.19-1.13-2.91-1.08-5.9-.93-8.95.1-1.47-.22-2.94-.93-4.23-.45-.83.02-2.13,0-3.22-.01-.8-.16-1.59-.21-2.38-.16-.87-.18-1.77-.06-2.65.72-2.68,1.47-5.4,4.08-6.99.3-.18.62-.33.96-.51.23,1.25.42,2.37.66,3.48.05.4.21.79.46,1.11.41.51.96.9,1.58,1.12.26.05.82-.79,1.06-1.31.38-.9.72-1.82.99-2.76.14-.8.82-1.39,1.63-1.43.97-.05,1.94-.03,2.91.08,1.03.14,1.99.19,2.69-.7.18-.36.3-.74.34-1.14-.37-.05-.74-.04-1.1.01-.93.29-1.82.73-2.77.98-.55.14-1.13.14-1.68-.02-1.13-.35-1.69.12-2.06,1.11-.42,1.11-.85,2.22-1.34,3.3-.15.32-.52.53-.8.79-.27-.28-.68-.52-.77-.86-.37-1.25-.63-2.52-.96-3.89.8-.29,1.57-.58,2.35-.86-1.85.48-3.61.65-5.3-.93.71-.13,1.41-.3,2.11-.51.53-.19,1.27-.43,1.46-.86.45-1.47,1.9-2.4,3.43-2.2.08,0,.17-.14.51-.44h-5.03c0,.07-.02.14-.03.21l1.45.42c.02.12.04.25.07.37l-4.07.83c.01.13.02.26.03.38.59-.08,1.18-.12,1.78-.12.29.01.56.3.83.46-.21.2-.45.36-.71.49-.54.18-1.12.25-1.67.4-.96.26-1.32-.02-1.1-1,.28-1.32,1.22-2.39,2.48-2.84.97-.29,1.97-.5,2.98-.6.33-.06.67-.06,1.01-.09v-.44c-.88,0-1.76-.06-2.63.02-.57.07-1.12.25-1.63.52-.68.36-1.07.26-1.66-.31-1.18-1-2.58-1.69-4.09-2.01-.07.1-.14.21-.2.31.23.24.48.46.74.65.43.24.87.46,1.32.65,2.18,1.01,2.21,1.55.88,3.24-.46.74-.83,1.54-1.11,2.37-2.27.42-6.61-1.18-7.2-2.72-1.37.46-2.25,1.8-2.13,3.24q.2,1.27-1.24,1.52c-1.01-2.27-2.02-4.54-3.04-6.82l-.49.15c.11.58.26,1.16.46,1.72.69,1.57,1.4,3.14,2.18,4.67.31.61.37,1-.24,1.44-.62.46-1.15,1.04-1.74,1.55-1.2,1.03-2.72,1.82-2.37,4-.46-.28-.65-.39-.85-.51-.33-.2-.66-.4-.99-.6-.24.35-.41.74-.51,1.16-.01,1.23-.09,2.46-.23,3.68-.25-.83-.49-1.67-.74-2.5-.16.03-.32.06-.48.09.06.65.17,1.29.34,1.92.18.53-.11,1.57,1.1,1.31.15.25.26.52.35.79-.28.05-.64.24-.84.13-1.31-.7-2.31-1.87-2.82-3.27-.44-.91-.93-1.79-1.47-2.63l-.4.23c.37.74.73,1.49,1.12,2.22.31.5.19,1.14-.26,1.51-.05.06-.09.12-.14.17-.94-2.3-1.63-4.69-2.06-7.14.21.64.59,1.22,1.09,1.67-.38-1.4-.72-2.67-1.11-4.13-.14.26-.22.54-.23.83-.15-1.16-.24-2.33-.27-3.5.5.4,1.17.98,2.09,1.78-.38-1.04-.68-1.91-1.02-2.76-.53-1.33.1-2.42.78-3.44.42-.63,1-.49,1.37.14.19.39.35.79.47,1.21l.39-.08c-.08-.53-.14-1.06-.24-1.58-.11-.59-.47-1.25.47-1.49.91-.23.96.46,1.11,1.06.13.48.32.94.48,1.41l.36-.07-.24-2.53.36-.08c.44,1.47.89,2.94,1.33,4.41l.48-.13c-.24-1.16-.48-2.32-.72-3.48-.14-.67-.2-1.27.94-1.21.39,2.16.01,4.57,1.55,6.73-.27-2.5-.51-4.75-.75-7.01l.5-.21c.71.62,1.43,1.24,2.14,1.85.4.8.79,1.6,1.19,2.39l.33-.17c-.21-.92-.25-1.92-1.27-2.48-.35-.56-.72-1.1-1.12-1.62-.35-.34-.72-.66-1.11-.96-.64-.59-1.14-.93-1.32.36-.03.22-.66.48-1.02.49-2.17.07-4.34.04-6.51.1-.16,0-.31.02-.47.03.1-.56.22-1.11.35-1.65l6.6-1.44c.99,1.09,1.14,1.14,3.3.85-1.54-.77-1.26-1.93-1.29-3.16-.05-1.55-1.41-2.48-2.69-3.04-1.31-.57-1.96-1.21-1.82-2.72.09-.96.46-.94,1.08-.62.57.37,1.2.66,1.85.85-.17-.25-.37-.49-.59-.7-.54-.42-1.06-.86-1.61-1.24.24-.37.49-.73.75-1.08.7.61,1.29,1.33,1.75,2.14,1.36,1.91,2.85,3.73,4.47,5.43-1.33,2.21.33,4.12.91,6.21l.5-.07c-.09-.47-.14-.94-.27-1.4-.26-.94-.57-1.87-.83-2.82-.24-.59.04-1.26.63-1.5.06-.02.12-.04.18-.06,1.1-.24,2.23-.4,3.35-.46.2-.01.48.42.63.7.18.39.33.8.45,1.21.06.3.12.59.2.99l-1.69.5-1.15-2.71-.5.23,1.4,2.75c-.31.75.17,2.01-1.12,1.94v5.53c2.41-2.56,4.68-4.98,8.2-5.74-1.41-.16-2.84.17-4.04.94-1.22.77-2.39,1.6-3.51,2.51.09-2.3.61-4.35,2.55-5.19,2.11-.92,4.47-1.34,6.61.35.63.45,1.33.8,2.07,1.03.42.06.85.05,1.27-.04.01-.14.03-.27.04-.41-.41-.1-.8-.25-1.17-.44-.89-.54-1.74-1.15-2.52-1.84-.22-.41-.23-.91-.02-1.32.13-.24.8-.37,1.15-.27,2.38.68,4.55,1.66,5.42,4.29.18.34.42.64.7.9l.32-.24c-.28-1.77-1.33-3.31-2.87-4.23-2.63-1.31-5.48-2.13-8.41-2.43l.99-1.02c1.54.09,3.09.19,4.63.28v-.33l-4.83-2.62-.3.35c.3.34.62.64.97.92.45.3.61.53.08.88-1.62-.26-2.2.07-3.3,2.01h1.27c.7.26,1.39.55,2.1.78,1.11.37,1.32,1.05.76,2.16-.22-.45-.4-.8-.61-1.23l-.62,1.39c-.14-.79-.22-1.28-.31-1.77-.24.06-.35.05-.39.1-.38.49-.65,1.2-1.15,1.45-1.05.52-.79-1.02-1.5-1.15-.48-2.35.61-4.29,1.62-6.25-.35.21-.66.47-.92.79-.41.66-.72,1.37-.92,2.12-.32,1.42-1.27,1.46-2.41,1.33-.84-.08-1.46-.83-1.38-1.68,0-.07.02-.13.03-.19.16-1.55-.24-3.11-1.14-4.38-.24-.55-.39-1.13-.45-1.72-.67.75-.8,1.31,0,2.57.76.97,1.04,2.23.75,3.43-.11.39.1.86-.05,1.57-.6-.46-1.23-.89-1.89-1.27-3.01-1.51-3.61-4.18-4.18-7.08.46-.55.94-1.08,1.43-1.6,1.13.48,2.31.83,3.51,1.02,1.79.37,3.65.18,5.34-.53v-.44c-1.3.09-2.6.07-3.89-.04-1.41-.19-2.81-.47-4.18-.84,1.41-1.4,2.93-2.68,4.55-3.82,1.61.27,3.19.69,4.72,1.24.21.06.37.26.89.63l-6.3,1.25c0,.09.01.17.02.25.49.04.98.04,1.47-.01,1.65-.31,3.28-.7,4.93-.99.59-.03,1.18-.02,1.77.04.44-.04.88-.1,1.31-.18-.16-.45-.18-1.06-.5-1.32-1.5-1.2-3.13-2.23-4.85-3.08.92-.51,1.87-.97,2.84-1.39,1.12,2.33,4.52,4.71,7.02,4.25-2.7-.89-4.93-2.03-6.24-4.57.15-.06.3-.12.45-.18.21.13.43.24.66.33.8.29,1.62.52,2.44.77.72.12,1.44.2,2.15.38.3.08.75.3.81.54.44,1.72,1.44,3.3,1.22,5.2-.05.44.32.93.5,1.4.52-.13,1.02-.35,1.48-.63,1.11-.97,2.03-2.17,3.2-3.02,1.6-1.08,2.62-2.83,2.79-4.75.01-.85.15-1.69.42-2.49,1.63.13,3.24.38,4.83.74.6,1.36.43,2.05-.79,3.09-.37.32-.75.64-1.13.95-.33.27-.67.52-1,.79l.19.27,6.36-4.07c.12.04.24.08.37.12.75,2.72.43,4.4-2.02,5.63-.75.38-1.2,1.34-1.79,2.04l.47.44c.3-.29.89-.62.86-.87-.11-.93.53-1.11,1.12-1.34,2.44-.95,2.58-1.14,2.64-3.74,0-.35.06-.7.09-1.06,1.9.18,2.26.6,1.82,2.34,1.16-.27,2.36-.33,3.54-.19.75.47,1.49.97,2.2,1.49l-1.58.54c0,.09,0,.18-.01.27.6.09,1.2.2,1.8.26.61.05,1.2.21,1.75.48.06.05.12.1.18.16.02.07.04.14.07.21l.13-.03c.42.37.84.75,1.25,1.14.15.24.35.43.59.57,2.04,2.06,3.82,4.36,5.3,6.86.39,1.83-.29,3.72-1.74,4.9-.14.19-.18.44-.12.67.37,1.43.77,2.85,1.17,4.31.87-1.17.44-2.37-.06-3.5-.35-.65-.2-1.47.37-1.95.6-.66,1.04-1.44,1.28-2.3.03-.13.05-.26.07-.38.4.77.77,1.55,1.12,2.35-.24.32-.52.61-.84.86-.58.45-.64.79-.18,1.28,1.96,2.11,1.95,4.68,1.63,7.28-.17.57-.42,1.11-.75,1.61l-1.36-1.02v-.03h-.03l.04.03c-4.32-1.09-8.48-2.75-12.35-4.94.43-.12.63-.25.78-.21,1.15.26,2.1.21,2.55-1.17.07-.2.8-.38,1.13-.27.91.32,1.81.69,2.68,1.11.05-.1.1-.19.16-.29-1.32-.68-2.63-1.41-3.99-1.98-.23-.1-.73.44-1.11.68-.36.23-.71.66-1.08.67-1.61.13-3.09-.87-3.57-2.41-.06-.91-.02-1.82.14-2.71.02-.42,0-.85,0-1.27l-.43-.03c-.1.86-.21,1.72-.31,2.58-.88.02-.87.02-.8-1.5.05-.71-.01-1.42-.17-2.12-.68,1.33-.67,2.91.04,4.23.64,1.28,1.38,2.52,2.21,3.69.65.94,1.44,1.78,2.25,2.76-1.24.35-4.8-.66-5.38-1.53-.04-1.44-.06-2.88-.16-4.31-.07-.32-.26-.6-.53-.77-1.32-.89-1.56-2.1-.62-3.62l.88.56c-.15-.84-.26-1.41-.42-2.28l-1.49,1.85v-3.96c-2.29,1.71-3.9,4.16-4.58,6.94-.13.51-.47.95-.93,1.21-1.68.8-2.69.38-3.62-1.26-.56-.99-1.17-1.94-1.76-2.9l-.3.17c.45.95.9,1.91,1.36,2.85.14.3.3.58.47.86.82,1.33,2.45,1.92,3.94,1.43.29-.1.59-.18.83-.25l1.19,3.05c-.94-4.85-.22-8.01,2.27-9.35.55,1.69,1.02,3.41,1.39,5.15.04.86-.47,1.65-1.26,1.98l-.75-1.34c.08,1.92.16,3.66.24,5.43.39-.89.73-1.79,1.19-2.63.45-.82,1.02-1.56,1.73-2.62.26,1.46.45,2.5.63,3.53l-1.76,3.34c.14.1.29.19.43.29.33-.38.63-.78.9-1.21.22-.6.88-.91,1.48-.69,0,0,0,0,.01,0,.2.02.4.06.6.11,1.76.6,3.58,1,5.43,1.18,1.55.36,3.06.85,4.53,1.47,1.34.51,2.47,1.34,4.04,1.53,2.35.27,3.82,2.08,4.81,4.15.48,1,.84,2.06,1.07,3.15-.17,1.29-.41,2.57-.72,3.84m-2.58,7.05c-.13-.47-.36-.92-.65-1.31-1.01-1.25-.7-2.46-.95-3.71.72.72,1.31,1.57,1.74,2.49.14.37.33.73.55,1.06-.22.49-.44.98-.68,1.47m-2.06,3.6l-.16-.04c-.08-.91-.13-1.82-.27-2.73-.07-.47-.15-1.1-.47-1.35-.95-.74-.74-1.68-.77-2.66-.03-1.13-.25-2.26-.39-3.39-.06-.37-.08-.75-.05-1.12.99,1.42,1.31,3.2.87,4.88-.12.67-.03,1.01.72,1.56.82.6,1.02,2.15,1.3,3.33.01.09.01.18,0,.27-.25.42-.51.84-.78,1.25m-2.51-1.24c.32.25.83.65.78.88-.14.42-.46.75-.87.91-.54.05-1.09.01-1.62-.12,1.53-1.75-.46-2.2-.73-3.21.48-.63.91-1.3,1.27-2,.55-1.32.27-2.85-.73-3.88-.24-.29-.55-.81-.44-1.03.93-1.85-.03-3.4-.67-5-.07-.15-.13-.31-.18-.47-.02-.06.04-.14.06-.22,2.16,1.27,3.38,6.49,2.62,11.12l1.49.63v.47l-2.28,1.06c.38.24.87.51,1.3.85m-5.52-16.79c-.83.62-2.01.45-2.64-.38-.1-.14-.19-.29-.25-.45l2.89.83m4.77,22.3c-.06.07-.13.15-.19.22l.05-.23h.14m-12.22-10.29l.57-1.17c-.36-.12-.65-.22-1.13-.38v4.51c-1.6-.85-1.75-1.27-1.53-2.72.23-1.47.31-2.97.46-4.48,3.74,1.82,4.1,6.69,2.4,10.82-1.46-2.11-.53-4.14-.09-6.26l-.67-.31m-17.75,21.8c-.59-.07-1.18-.15-1.76-.24.34-.72.73-1.41,1.19-2.06.45.68.65,1.49.58,2.3m-10.69-2.99s0,.03-.01.04c-.42-.19-.83-.39-1.23-.59.05-1.2.4-2.36,1.01-3.39-.34.17-.67.38-.97.62-.56.66-.84,1.51-.78,2.38-1.82-.98-3.54-2.11-5.16-3.39.96-.4,1.55-1.06,1.45-1.79l-1.95,1.39c-.2-.16-.39-.33-.59-.5,1.47-.89,2.99-1.69,4.46-2.58.38-.3.73-.65,1.03-1.03.49-.51,1.04-.95,1.63-1.33-.31,1.59.04,3.24.98,4.56.83,1.08,2.07,1.19,4.38.27.75,2.4,1.22,4.89,1.4,7.4-1.93-.51-3.8-1.18-5.61-2.01,0-.02-.01-.04-.02-.05m-11.47-8.35c.85-.59,1.76-1.11,2.7-1.55,3.05-1.4,5.59-3.92,9.45-4.25-.32-.43-.68-.82-1.08-1.18-.66-.48-1.44-.79-2.08-1.3-1.65-1.31-1.73-2.63-.4-4.87-1.88.11-1.95,2.2-.16,5.65-.17.1-.34.18-.52.26-1.92.69-3.85,1.33-5.76,2.06-.73.38-1.64.1-2.02-.63-.03-.05-.05-.11-.08-.17-1.39-2.36-1.23-4.92-1.25-7.39,2.85-.09,4.48,1.96,6.49,3.26.1-.1.19-.2.29-.31-1.09-.95-2.12-1.97-3.29-2.82-.6-.28-.86-.99-.59-1.59.02-.04.04-.09.07-.13.47-1.11.82-2.23,2.26-2.5.27-.05.51-.57.68-.91.51-1.08,1.27-1.94,2.52-1.77,1.08.2,1.9,1.1,1.99,2.2.48,2.17,1.46,4.19,2.88,5.9.31.36.73.6,1.2.69-.64-1.13-1.37-2.22-1.91-3.4-.56-1.13-.97-2.32-1.23-3.55-.14-1.13-.61-2.2-1.36-3.07-.91-.79-1-2.17-.21-3.08,0-.01.02-.02.03-.03.98,3.09,2.74,5.34,6.09,5.93l.23-.26c-.32-.32-.69-.59-1.1-.8-1.86-.66-3.35-2.1-4.08-3.94,2.37,1.58,5.26,2.17,8.05,1.64l1.79,1.12c-.03.12-.02.18-.05.2-3.66,2.91-4.43,6.82-3.88,11.2.07.44.02.9-.13,1.32-.41,1.25-.36,2.6.15,3.81.19.74.34,1.5.44,2.26.32.95-.18,1.98-1.13,2.3-.07.02-.14.04-.21.06-.33.1-.56.55-.83.84l.27.33,1.53-.43c.44,1.04-.49,1.32-1.02,1.61-.27.15-1-.16-1.28-.47-.89-1.02-.95-3.16-.27-4.61l1.74.52c.03-.08.06-.16.09-.24-.61-.73-1.26-1.42-1.96-2.07-.39-.15-.82-.1-1.17.13-1.39,1.01-2.67,2.16-4.08,3.13-1.74,1.2-3.44,2.7-5.37,3.35-.86-.78-1.68-1.6-2.46-2.46m-6.11-9.43c.1-.08.21-.15.33-.21,1.29.74,2.38,1.39,3.49,1.99.54.29,2.06,2.71,1.91,3.23-.16.39-.37.77-.61,1.12l-1.57-3.27c-.41,1.19-.35,1.34.96,3.1-.26.17-.52.35-.77.53-1.47-2.03-2.72-4.21-3.73-6.51m4.28,7.22c3.11-2,6.52-3.46,10.11-4.34.71-.09,1.42-.1,2.14-.02l.06.62-4.52.86,1.32.36.02.26-5.78,1.12c.02.12.05.24.07.36l2.45-.22c-1.46,1.54-3.45,1.42-5.13,1.95-.25-.31-.49-.62-.73-.93m1.61,1.16c-.11.13-.24.25-.36.38-.06-.07-.12-.14-.19-.21l.54-.17m12.34,1.39c.15.78.34,1.55.59,2.31-1.22-.98-2.01-3.7-1.47-4.75.08-.15.35-.34.44-.3.18.07.41.29.41.46.04.76-.07,1.53.02,2.28M5.71,36.13c.22-.01.44-.03.66-.04-.3.77-.61,1.44-.86,2.1.05-.69.11-1.38.2-2.07m3.34-11.13c.19.67.74,1.08,1.87,1.71.24.16.47.33.69.51-.69.17-1.39.31-2.1.4-.58.05-1.16.13-1.73.26.38-.99.8-1.95,1.27-2.89m2.31,3.61c.36-.05.73-.07,1.1-.06.39.08,1.08.34,1.07.5-.03.61-.06,1.38-1.03,1.34-1.8-.08-3.6-.16-5.4-.2h-.12c.1-.33.22-.66.33-.99,1.3-.45,2.68-.65,4.05-.59m-4.52,2.06l2.49.12c.01.07.02.15.03.22l-2.85.8c.1-.38.21-.76.32-1.14m15.48-20.14c.67.36,1.29.8,1.85,1.31-.05.11-.1.22-.14.34l-2.47-1.15c.25-.16.5-.33.76-.49m9.02-3.6c.36.6,1.15.8,1.75.43.07-.04.13-.09.19-.14-.39-.24-.78-.49-1.14-.77.74-.18,1.48-.34,2.24-.47-.39.72-.78,1.45-1.19,2.2h-3.1c-.39-.26-.77-.52-1.17-.78.73-.25,1.46-.49,2.21-.69.07.07.13.14.2.22m8.47-1.47c-1.08.72-2.52.22-3.65.92h3.13c-.81,1.64-2.64.79-3.67,1.95.82-.17,1.46-.3,2.1-.44-.52,1.94-1.01,3.76-1.5,5.58l.45.18c.95-3.32,1.94-6.62,5.28-8.17h.17c-.04,1.27-.02,2.46-.15,3.63-.06.56-.29,1.08-.65,1.51-1.3,1.41-2.67,2.75-4.03,4.1-.41.35-.83.68-1.27.98-.12-.66-.2-1.05-.27-1.44-.29-1.56-.53-3.13-.89-4.68-.31-1.3-.07-2.66.66-3.78,1.42-.2,2.85-.31,4.28-.34m9.53,1.11c.28.07.55.15.82.23-.08.3-.21.59-.39.84-.16-.38-.29-.74-.43-1.07m23.94,21.51c.17.44.32.89.47,1.34-.06-.1-.1-.19-.16-.29-.25-.29-.36-.67-.32-1.05"/>
  <path id="Path_13831" data-name="Path 13831" class="cls-1" d="m26.09,22.59l-.03.05.05-.04h-.02Z"/>
  <path id="Path_13832" data-name="Path 13832" class="cls-1" d="m37.21,50.63c-.06-.45-.16-.89-.3-1.31-4.61,6.78-4.9,7.34-4.67,8.8,1.15-2.04,2.34-4.15,3.52-6.25l.53.23c-.04,2.47-.49,4.92-1.34,7.24-.96,2.27-1.57,4.68-2.33,7.03l.43.15c.6-1.57,1.21-3.13,1.81-4.7-.19,3.13-1.12,6.17-.81,9.31.42-1.82.69-3.67,1.1-5.48,1.21-4.92,1.91-9.95,2.06-15.01"/>
  <path id="Path_13833" data-name="Path 13833" class="cls-1" d="m44.76,21.76c-.17-1.75-.32-3.29-.49-5.12-.2,1.28-.36,2.29-.56,3.5-1.21-1.93.73-5.94,2.79-6.47.25,1.68.51,3.36.76,5.05.23-.45.32-.96.26-1.46-.22-1.24-.59-2.43,0-3.71.28-.61-.17-1.17-.94-.93-.57.19-1.11.49-1.58.88-.62.5-1.14,1.11-1.79,1.76-.05-.51-.09-.89-.14-1.37-.92,1.64-.92,1.62-2.96,2.37-.41.21-.8.47-1.15.77-1.79.4-3.04,2.02-2.97,3.85.42-.33.83-.68,1.2-1.07.69-.82,1.34-1.69,2-2.54l3.32-1.02.15.41-2.53,1.32c.05.1.09.2.14.3.59-.18,1.18-.37,1.9-.59-.5,2.32,1.35,2.87,2.59,4.06"/>
  <path id="Path_13834" data-name="Path 13834" class="cls-1" d="m62.12,15.78c.63.72,1.11,1.55,1.41,2.45.1.81.53,1.53,1.18,2.01,1.19.81,2.18,1.75,2.01,3.36.99.27,1.3-.12,1.28-.96-.04-1.62-1.33-2.33-2.29-3.31-.54-.52-.95-1.14-1.23-1.83-.54-1.6-1.98-2.72-3.66-2.84.47.32.9.7,1.29,1.12"/>
  <path id="Path_13835" data-name="Path 13835" class="cls-1" d="m48.99,58.93c.21-1.46.53-2.9.68-4.36.14-1.39.69-2.94-1.15-3.99v.9c.03,2.6.1,5.21.06,7.81-.15.99-1.08,1.68-2.08,1.52-.18-.03-.36-.08-.52-.16l.6-.69-1.42-.94c-.09.48-.17.91-.24,1.35s-.12.86-.19,1.4c.5.03,1.01.03,1.51-.01,1.5-.11,2.68-1.32,2.75-2.82"/>
  <path id="Path_13836" data-name="Path 13836" class="cls-1" d="m64.8,26.54c.06-.49.35-1.15.14-1.44-1.42-1.92-2.94-3.77-4.44-5.64l-.39.33c1.17,1.99,2.32,4,3.54,5.96.22.36.76.53,1.15.79"/>
  <path id="Path_13837" data-name="Path 13837" class="cls-1" d="m36.46,66.54c-.17-.64-.25-.93-.41-1.53-.46,2.03-.83,3.68-1.21,5.32,2.76-2.62,3.77-6.65,2.33-8.31-.41,1.39.42,2.97-.71,4.52"/>
  <path id="Path_13838" data-name="Path 13838" class="cls-1" d="m47.5,50.93c1.43-.91,0-3.1,2.16-3.04-1.99-2.87-2.72-3.45-3.6-3.19.43.92.79,1.86,1.09,2.83.19,1.12.31,2.25.35,3.39"/>
  <path id="Path_13839" data-name="Path 13839" class="cls-1" d="m72.64,35.59c.12-1.05.11-2.1-.03-3.15-.04-1.28-.72-2.46-1.81-3.14.12.66.27,1.31.46,1.95.67,1.47.64,3.17-.08,4.61-.12.21.03.57.08.87.63.13,1.24-.27,1.37-.9.02-.08.02-.17.02-.25"/>
  <path id="Path_13840" data-name="Path 13840" class="cls-1" d="m47.98,56.96c.76-1.7.57-3.67-.49-5.2-.12,1.71.38,3.45-.62,5.07.06-1.21.11-2.41.17-3.62h-.31c-.25,1.6-.49,3.19-.74,4.77.08.1.16.19.24.29.6-.43,1.51-.73,1.76-1.31"/>
  <path id="Path_13841" data-name="Path 13841" class="cls-1" d="m10.41,39.08c.06,1.81.89,3.51,2.29,4.66,1.32,1.22,3.18,1.66,4.91,1.16-3.79-.31-5.88-2.56-7.2-5.82"/>
  <path id="Path_13842" data-name="Path 13842" class="cls-1" d="m32.07,21.33c-.94.85-.88,1.94-.07,3.07,1,1.4,3.19,2.12,4.55,1.36-2.62-.35-4.26-1.66-4.48-4.43"/>
  <path id="Path_13843" data-name="Path 13843" class="cls-1" d="m44.59,73.82c1.08-.19,1.1-.19,1.29-1.23.35-1.95.29-3.81-1.32-5.29.76,2.17,1.32,4.3.03,6.53"/>
  <path id="Path_13844" data-name="Path 13844" class="cls-1" d="m67.01,27.42l-.37.14c.53,1.58,1.07,3.16,1.61,4.74l.34-.11c.28-1.65-.57-4.19-1.58-4.77"/>
  <path id="Path_13845" data-name="Path 13845" class="cls-1" d="m57.92,48.91c1.49-2.39.77-6.31-1.42-7.28,1.92,2.29,1.7,4.78,1.42,7.28"/>
  <path id="Path_13846" data-name="Path 13846" class="cls-1" d="m27.28,36.27c-.7,1.25.08,2.14.7,2.97.47.87,1.44,1.33,2.41,1.13-1.59-.84-2.73-2.34-3.1-4.1"/>
  <path id="Path_13847" data-name="Path 13847" class="cls-1" d="m35.25,49.49c-1.55.77-2.84,1.98-3.71,3.48l.31.34c1.25-1.15,2.5-2.3,3.76-3.45l-.36-.37Z"/>
  <path id="Path_13848" data-name="Path 13848" class="cls-1" d="m39.15,49.84l1.49,6.4c.14-.01.28-.03.41-.04-.23-2.2-.71-4.37-1.43-6.46l-.47.11"/>
  <path id="Path_13849" data-name="Path 13849" class="cls-1" d="m53.95,15.56l-4.74,3.49c2.4-.28,3.68-1.76,4.74-3.49"/>
  <path id="Path_13850" data-name="Path 13850" class="cls-1" d="m16.98,18.22c-.88,1.26-.57,2.98.69,3.86.34.24.73.39,1.14.46-1.16-1.34-2.18-2.57-1.83-4.32"/>
  <path id="Path_13851" data-name="Path 13851" class="cls-1" d="m64.19,22.3c.69,1.32,1.3,2.48,1.91,3.65.55-1.41-.16-2.99-1.56-3.54-.11-.04-.23-.08-.35-.11"/>
  <path id="Path_13852" data-name="Path 13852" class="cls-1" d="m63.31,33.13l5.02,1.85.21-.6-5.06-1.71-.17.46Z"/>
  <path id="Path_13853" data-name="Path 13853" class="cls-1" d="m37.7,57.36c.19,1.84.38,3.68.58,5.52l.53-.06c-.21-1.84-.43-3.68-.64-5.51l-.46.06"/>
  <path id="Path_13854" data-name="Path 13854" class="cls-1" d="m43.83,37.68c.5.27.96.61,1.37,1,.32.51.59,1.05.82,1.6.15.12.34.15.52.08.13-.14.19-.33.17-.51-.19-1.39-1.46-2.36-2.85-2.17,0,0-.02,0-.03,0"/>
  <path id="Path_13855" data-name="Path 13855" class="cls-1" d="m51.97,39.04l-4.76-.74c1.27,1.2,3.5,1.65,4.76.74"/>
  <path id="Path_13856" data-name="Path 13856" class="cls-1" d="m58.86,29.22l-1.15-3.82c-.8,1.17-.5,2.76.67,3.56.15.1.31.19.48.26"/>
  <path id="Path_13857" data-name="Path 13857" class="cls-1" d="m26.08,22.58s.02.01.03.02c0-.02-.01-.04-.02-.06v.04"/>
  <path id="Path_13858" data-name="Path 13858" class="cls-1" d="m28.95,17.7c-2.33-.43-3.75,2.62-2.86,4.84.14-.45.25-.91.31-1.38.1-1.61.5-2.99,2.55-3.46"/>
  <path id="Path_13859" data-name="Path 13859" class="cls-1" d="m41.39,33.74l4.07-.46c-1.27-.91-3.03-.71-4.07.46"/>
  <path id="Path_13860" data-name="Path 13860" class="cls-1" d="m23.26,33.85l5.12-2.1c-1.95-.17-3.85.62-5.12,2.1"/>
  <path id="Path_13861" data-name="Path 13861" class="cls-1" d="m45.2,52.47c-.06.74-.07,1.48-.03,2.21,0,.78-.1,1.57-.16,2.35.11.01.23.03.34.04.57-1.49.51-3.15-.15-4.61"/>
  <path id="Path_13862" data-name="Path 13862" class="cls-1" d="m47.16,63.31l3.33-1.59c-1.28-.6-3.27.36-3.33,1.59"/>
  <path id="Path_13863" data-name="Path 13863" class="cls-1" d="m71.78,42.75l2.52,2.21c-.05-1.41-.86-2.25-2.52-2.21"/>
  <path id="Path_13864" data-name="Path 13864" class="cls-1" d="m53.77,45.88l-4.22-1.64c.97,1.31,2.61,1.95,4.22,1.64"/>
  <path id="Path_13865" data-name="Path 13865" class="cls-1" d="m64.14,37.58l5.22,1.41c-1.5-1.1-3.36-1.6-5.22-1.41"/>
  <path id="Path_13866" data-name="Path 13866" class="cls-1" d="m32.1,50.58l2.99-2.52c-1.47.03-2.71,1.08-2.99,2.52"/>
  <path id="Path_13867" data-name="Path 13867" class="cls-1" d="m34.31,22.25c.31-1.29-.18-2.23-1.13-2.39-.28.97.21,1.99,1.13,2.39"/>
  <path id="Path_13868" data-name="Path 13868" class="cls-1" d="m35.67,45.23l-.56-.51-2.06,2.4.4.35,2.22-2.25"/>
  <path id="Path_13869" data-name="Path 13869" class="cls-1" d="m62.58,67.46c0-.15,0-.31,0-.46h-4.08c1.29.52,2.7.68,4.07.46"/>
  <path id="Path_13870" data-name="Path 13870" class="cls-1" d="m46.62,32.29c-1.05-.85-1.91-1.14-2.91-.58.81.68,1.9.9,2.91.58"/>
  <path id="Path_13871" data-name="Path 13871" class="cls-1" d="m50.86,9.67l-2.03,2.67c1.27-.14,2.19-1.29,2.05-2.56,0-.04,0-.07-.01-.11"/>
  <path id="Path_13872" data-name="Path 13872" class="cls-1" d="m39.72,25.26l-1.59-2.34c-.25,1.43.41,2.33,1.58,2.34"/>
  <path id="Path_13873" data-name="Path 13873" class="cls-1" d="m69.26,24.69c.03-.24-.33-.52-.51-.79-.18.22-.32.48-.43.74-.07.46-.11.92-.12,1.39l.53.17c.23-.48.4-.99.52-1.51"/>
  <path id="Path_13874" data-name="Path 13874" class="cls-1" d="m42.77,49.92l.31.05c.54-.93.55-2.07.02-3.01-.11.98-.22,1.97-.33,2.95"/>
  <path id="Path_13875" data-name="Path 13875" class="cls-1" d="m61.02,62.9l-2.48-.13c-.02.19-.04.39-.05.58.83.1,1.66.2,2.49.3.01-.25.03-.5.05-.74"/>
  <path id="Path_13876" data-name="Path 13876" class="cls-1" d="m58.75,50.97l.74-2.83-.48-.12c-.24.94-.48,1.89-.71,2.83l.45.12"/>
  <path id="Path_13877" data-name="Path 13877" class="cls-1" d="m54.99,13.58l2.41-1.02c-.7-.49-1.67-.31-2.15.39-.13.19-.22.4-.25.63"/>
  <path id="Path_13878" data-name="Path 13878" class="cls-1" d="m26.24,38.76c-.34-.71-.7-1.45-1.11-2.32-.59,1.24-.17,2,1.11,2.32"/>
  <path id="Path_13879" data-name="Path 13879" class="cls-1" d="m34.19,58.36c.45-.89.84-1.67,1.24-2.46-.97.25-1.56,1.23-1.32,2.21.02.08.05.17.08.25"/>
  <path id="Path_13880" data-name="Path 13880" class="cls-1" d="m7.36,46l.82,2.03.6-.23c-.3-.68-.6-1.35-.89-2.03l-.53.22"/>
  <path id="Path_13881" data-name="Path 13881" class="cls-1" d="m72.25,46.62h-.22v2.88h.22v-2.88Z"/>
  <path id="Path_13882" data-name="Path 13882" class="cls-1" d="m15.17,46.38c.02-.12.05-.23.07-.35l-2.27-.75c.38.84,1.3,1.3,2.2,1.1"/>
  <path id="Path_13883" data-name="Path 13883" class="cls-1" d="m49.97,24.66l-.19.03v3.01h.19v-3.04Z"/>
  <path id="Path_13884" data-name="Path 13884" class="cls-1" d="m48.78,65.28l.75,1.77.35-.15c.18-1.25.02-1.54-1.1-1.62"/>
  <path id="Path_13885" data-name="Path 13885" class="cls-1" d="m33.69,30.65c-.6-.37-1.21-.73-1.94-1.18.25,1.33.95,1.71,1.94,1.18"/>
  <path id="Path_13886" data-name="Path 13886" class="cls-1" d="m44.55,62.31c.07.89.1,1.38.14,1.88l.39.17c.18-.37.51-.76.48-1.11-.03-.27-.51-.5-1.02-.95"/>
  <path id="Path_13887" data-name="Path 13887" class="cls-1" d="m52.46,31.32l-.32-.12-1.36,3.2.45.14,1.23-3.22Z"/>
  <path id="Path_13888" data-name="Path 13888" class="cls-1" d="m57.09,64.31c-.02-.17-.04-.35-.06-.52l-2.24.17c.03.17.05.33.08.5l2.22-.15Z"/>
  <path id="Path_13889" data-name="Path 13889" class="cls-1" d="m59.22,57.64c1.04.1,2.07.21,3.11.31.01-.12.03-.25.04-.37l-3.13-.34-.02.4Z"/>
  <path id="Path_13890" data-name="Path 13890" class="cls-1" d="m9.98,48.01l.74,2.19c.16-.05.33-.1.49-.16-.26-.73-.51-1.46-.77-2.19l-.47.16"/>
  <path id="Path_13891" data-name="Path 13891" class="cls-1" d="m45.91,26.93l-2.45-.56c.49,1.11,1.21,1.28,2.45.56"/>
  <path id="Path_13892" data-name="Path 13892" class="cls-1" d="m44.82,34.25h-2.13l.04.34h2.1v-.34"/>
  <path id="Path_13893" data-name="Path 13893" class="cls-1" d="m32.1,33.56l.14-.34-1.95-.87c.36.99.96,1.4,1.81,1.21"/>
  <path id="Path_13894" data-name="Path 13894" class="cls-1" d="m14.67,52.47l3.23,1.92.26-.47-3.26-1.88c-.08.14-.15.29-.22.43"/>
  <path id="Path_13895" data-name="Path 13895" class="cls-1" d="m24.44,49.92l-1.66-2.71c0,1.87.44,2.51,1.66,2.71"/>
</svg>