<?xml version="1.0" encoding="UTF-8"?>
<svg id="Layer_1" data-name="Layer 1" xmlns="http://www.w3.org/2000/svg" viewBox="0 0 81 81">
  <defs>
    <style>
      .cls-1 {
        stroke-width: 2px;
      }

      .cls-1, .cls-2 {
        fill: none;
        stroke: #bababa;
        stroke-linecap: square;
        stroke-miterlimit: 10;
      }

      .cls-2 {
        stroke-width: 5px;
      }
    </style>
  </defs>
  <circle id="Ellipse_22" data-name="Ellipse 22" class="cls-2" cx="40.5" cy="40.5" r="37.57"/>
  <path id="Path_3172" data-name="Path 3172" class="cls-1" d="m38.56,41.81c-2.13-1.01-4.09-2.34-5.8-3.96-1.77-1.73-2.7-4.14-2.56-6.61.32-2.91,2.51-5.15,4.77-6.8s4.77-3.04,6.4-5.39c2.76-3.96,2.22-9.59.52-14.19"/>
  <path id="Path_3173" data-name="Path 3173" class="cls-1" d="m37.73,42.57c-1.53,1.79-3.32,3.34-5.33,4.57-2.13,1.26-4.7,1.53-7.05.75-2.72-1.06-4.32-3.76-5.32-6.37s-1.69-5.4-3.53-7.58c-3.11-3.69-8.68-4.64-13.56-4.19"/>
  <path id="Path_3174" data-name="Path 3174" class="cls-1" d="m41.15,40.69c1.49-1.82,3.27-3.39,5.25-4.66,2.11-1.3,4.67-1.61,7.03-.87,2.74,1.02,4.39,3.69,5.44,6.28s1.78,5.37,3.66,7.52c3.17,3.64,8.76,4.49,13.63,3.96"/>
  <path id="Path_3175" data-name="Path 3175" class="cls-1" d="m41.15,41.89c2.34-.23,4.71-.09,7.01.42,2.41.57,4.44,2.16,5.59,4.36,1.22,2.66.49,5.71-.6,8.28s-2.53,5.06-2.73,7.91c-.33,4.82,3.02,9.37,6.84,12.44"/>
  <path id="Path_3176" data-name="Path 3176" class="cls-1" d="m39.85,42.73c.79,2.22,1.23,4.55,1.3,6.9.03,2.47-1.02,4.84-2.87,6.48-2.28,1.83-5.42,1.87-8.18,1.44s-5.52-1.23-8.33-.72c-4.75.85-8.35,5.21-10.4,9.66"/>
  <path id="Path_3177" data-name="Path 3177" class="cls-1" d="m39.86,42.73c-.79-2.22-1.23-4.55-1.3-6.9-.03-2.47,1.02-4.84,2.87-6.48,2.28-1.83,5.42-1.87,8.18-1.44s5.52,1.23,8.33.72c4.75-.85,8.35-5.21,10.4-9.66"/>
</svg>