<?xml version="1.0" encoding="UTF-8"?>
<svg id="Layer_1" data-name="Layer 1" xmlns="http://www.w3.org/2000/svg" viewBox="0 0 650 450">
  <defs>
    <style>
      .cls-1 {
        isolation: isolate;
      }

      .cls-1, .cls-2 {
        fill: #fff;
        stroke-width: 0px;
      }

      .cls-3 {
        stroke-dasharray: 0 0 0 0 0 0 11.67 11.67;
      }

      .cls-3, .cls-4, .cls-5 {
        fill: none;
        stroke: #fff;
        stroke-linecap: square;
        stroke-miterlimit: 10;
      }

      .cls-4 {
        stroke-dasharray: 0 0 0 0 0 0 12.02 12.02;
      }
    </style>
  </defs>
  <g id="traditional_twisted">
    <g id="dash_2">
      <line class="cls-5" x1="84.05" y1="184.07" x2="87.26" y2="179"/>
      <line class="cls-4" x1="93.7" y1="168.85" x2="154.83" y2="72.44"/>
      <line class="cls-5" x1="158.05" y1="67.37" x2="161.26" y2="62.3"/>
    </g>
    <g id="dash_1">
      <line class="cls-5" x1="291.93" y1="364.46" x2="291.34" y2="358.49"/>
      <line class="cls-3" x1="290.18" y1="346.87" x2="272.28" y2="166.87"/>
      <line class="cls-5" x1="271.7" y1="161.07" x2="271.11" y2="155.1"/>
    </g>
    <path id="filter" class="cls-1" d="m525.01,294.31h-.01c-2.63-2.35-6.55-2.89-11.05-1.53-4.35,1.32-8.74,4.27-12.39,8.32-.03.03-.06.06-.09.1-3.66,4.1-6.13,8.84-6.95,13.35-.84,4.62.15,8.46,2.78,10.8h.01l104.54,88.75h0c4.07,3.61,12.22.89,18.6-6.2.03-.03.05-.06.08-.09,3-3.36,5.1-7.19,5.91-10.76.82-3.64.22-6.61-1.69-8.41h0l-99.75-94.33h.01Zm-29.21,20.46c.78-4.27,3.13-8.79,6.64-12.72.03-.03.06-.06.08-.09,3.49-3.88,7.67-6.7,11.8-7.95,4.04-1.22,7.53-.78,9.81,1.26,2.28,2.03,3.12,5.44,2.36,9.6-.78,4.27-3.13,8.79-6.64,12.72-7.17,8.02-16.87,11.06-21.67,6.79h-.01c-2.28-2.04-3.12-5.45-2.36-9.61h0Zm129.37,82c-.76,3.36-2.76,6.98-5.61,10.18-.03.03-.05.06-.07.08-5.8,6.45-13.31,9.18-16.78,6.09l-.43.49.42-.5-100.95-85.7c5.59.96,13.14-2.35,18.99-8.86.03-.03.06-.06.08-.09,3.66-4.1,6.13-8.84,6.95-13.35.44-2.44.37-4.66-.18-6.56l96.19,90.96h0c1.63,1.46,2.13,4.04,1.4,7.27h-.01Z"/>
    <path id="middle" class="cls-1" d="m495.05,271.7c-.43-1.4-1.16-2.62-2.21-3.58-.15-.14-.3-.26-.46-.39h0l-163.02-158.55c-.28.28-.57.57-.85.85l162.27,157.82c.05.07.11.13.16.2.13.13.26.26.38.4.24.17.47.35.69.55.9.84,1.54,1.89,1.91,3.11,1.44,4.67-.89,11.68-6.26,17.47-6.76,7.3-15.82,9.95-20.19,5.9-.07-.06-.13-.13-.19-.2-.09-.06-.18-.14-.27-.21l-172.7-151.21c-.28.29-.57.57-.85.85l173.21,151.65h0c4.86,4.48,14.67,1.81,21.88-5.97,5.66-6.11,8.07-13.59,6.49-18.69h.01Z"/>
    <g id="end_enlarged">
      <path class="cls-2" d="m107.96,295.39c-1.37,1.49-2.81,2.9-4.3,4.28,0,.21,0,.41-.03.62,0,.58-.15,1.14-.4,1.67.86.46,1.6,1.14,2.14,1.96,1.29-1.15,2.56-2.3,3.77-3.51.02-.17.02-.34.06-.51.31-1.08.72-2.13,1.17-3.16.18-.41.34-.83.51-1.24.02-.05.02-.1.04-.15-.18-.27-.39-.52-.59-.78-.51.25-1.03.47-1.55.68-.27.08-.55.11-.82.15h0Z"/>
      <path class="cls-2" d="m247.29,360.56l-117.87-114.64c-.06-.09-.14-.19-.22-.27h0c-.1-.08-.21-.16-.32-.24h0c-.17-.13-.35-.25-.51-.39-.62-.51-1.2-1.05-1.76-1.61-.14-.14-.3-.26-.44-.4-.82-.46-1.64-.93-2.43-1.47.01.03.02.05.03.08-1.16-.67-2.38-1.17-3.66-1.63-1.4-.51-2.83-.97-4.26-1.41-1.25-.06-2.5-.12-3.76-.15-2.72,0-5.45.21-8.2.83-1.24.28-2.47-.29-3.32-.99-.08-.07-.13-.15-.2-.22-8.8,1.12-17.81,2.52-27.19,3.89l-.1-.19-22.52,4.25-28.91-16.77-4.92-1.65-1.64,1.94,6.17,5.22,5.06,4.28,4.68,3.96,1.07,1.01h-.06c.9.91,1.81,1.81,2.76,2.67.31.28.64.54.98.79l12.96,12.2c2.35,6.43,2.88,14.25,3.7,21.77.77,7.03-1.35,16.05,4.21,19.55.28.18.21.82.15,1.33-.64,5.45.17,9.66,1.87,13.09.52.83,1,1.68,1.44,2.55.06.06.11.12.18.18,1.42,1.98,3.18,3.68,5.11,5.2.3.3.61.63.98,1.04,2.04,2.26,4.46,4.02,7.07,5.51l108.73,95.2c.51-.52,1.03-1.03,1.55-1.55l-112.64-98.62c-.41-.46-.78-.94-1.11-1.42-.11-.16-.2-.32-.31-.48-.67-.14-1.29-.43-1.76-.89-.78-.77-1.53-1.57-2.25-2.39,2.44.1,4.86.27,7.24.63,6.94-.65,12.75-2.88,18.03-5.87.41-.69.75-1.43,1.11-2.15.26-.5.6-.91.98-1.3-.94,0-1.88.03-2.82-.04-.67-.05-1.35-.1-2.03-.2-1.64.89-3.31,1.74-5.05,2.52-3.92,1.77-8.53,2.81-13.17,3.12-1.15.07-2.22.02-3.23-.12-1.32.06-2.62-.05-3.92-.25-1-1.57-1.71-3.34-2.75-4.88-.3-.45-.47-.96-.54-1.48-.73-.95-1.08-2.21-.78-3.54.08-.88.44-1.79,1.14-2.69-.04-.09-.09-.18-.13-.26.18-.07.34-.14.51-.21.68-.73,1.4-1.2,2.13-1.47.62-.37,1.3-.63,1.98-.75.18-.03.35-.06.53-.1.44-.14.88-.27,1.31-.43.91-.33,1.81-.71,2.71-1.1,1.74-.76,3.46-1.57,5.22-2.27.93-.37,1.85-.78,2.78-1.13.19-.09.29-.13.33-.15.1-.05.2-.11.3-.17.47-.27.94-.55,1.4-.83.75-.47,1.48-.96,2.21-1.46-6.88,1.58-13.48,3.27-18.99,3.09-8.75-.3-4.23-12.07-5.71-20.1,11.04,1.42,20.85,2.69,30.65,3.96.49-.76.98-1.51,1.47-2.27-9.98-3.95-25.46-.15-33.65-8.78,10.87-2.56,20.16-4.74,29.45-6.93-8.79-2.64-23.9,5.58-31.02-1.52l-.07-.36c12.83-2.6,24.53-4.97,36.23-7.34-11.73-1.54-28.26,5.31-37.8-.95l-.03-.16c24.35-8.4,44.9-9.8,64.19-8.67.94.05,1.68.43,2.35.94.19.04.38.06.57.14.5.1.92.33,1.31.63.3.14.61.25.89.41.53.31,1.05.65,1.56,1.01.3.13.61.24.9.39.86.42,1.72.92,2.47,1.52,0,.05.02.11.03.16.98,1.16,1.68,2.4,2.29,3.87.34.83.29,1.79.07,2.68,0,.29-.03.58-.1.86-.04.91,0,1.82-.03,2.73-.02.95-.09,1.91-.24,2.84-.16,1-.53,1.95-.89,2.89-.33.64-.8,1.15-1.34,1.59-.82,2.85-1.94,5.57-3.22,8.2-.97,1.99-2.04,3.9-3.13,5.78.01.09.05.16.05.25.1.41.12.82.09,1.23,0,.25.02.5.05.75,1.7-1.04,3.46-1.95,5.25-2.81,1.1-2.15,2.12-4.36,3.04-6.66,2.14-5.32,3.5-10.95,3.15-17.62-.15-.65-.26-1.31-.39-1.97.16-.22.33-.44.49-.66-.24-.59-.33-1.24-.27-1.91-.31-.23-.58-.51-.83-.81v-.07l115.81,112.63c.51-.52,1.03-1.03,1.54-1.55h-.02Z"/>
    </g>
    <g id="end_small">
      <path class="cls-2" d="m233.66,55.9c-.81.87-1.65,1.7-2.52,2.51,0,.12,0,.24-.02.37,0,.34-.09.67-.24.98.51.27.94.67,1.25,1.15.76-.67,1.5-1.35,2.21-2.06,0-.1,0-.2.04-.3.18-.63.42-1.25.69-1.86.1-.24.2-.48.3-.73,0-.03,0-.06.02-.09-.11-.16-.23-.31-.35-.46-.3.14-.6.28-.91.4-.16.05-.32.06-.48.09h.01Z"/>
      <path class="cls-2" d="m315.44,94.15L246.25,26.86c-.04-.06-.08-.11-.13-.16h0c-.06-.05-.12-.1-.19-.14h0c-.1-.07-.2-.15-.3-.23-.36-.3-.7-.62-1.03-.94-.08-.08-.17-.15-.26-.23-.48-.27-.96-.55-1.43-.86,0,.01,0,.03.02.04-.68-.39-1.4-.68-2.15-.96-.82-.3-1.66-.57-2.5-.83-.73-.03-1.47-.07-2.2-.09-1.59,0-3.2.13-4.81.49-.73.16-1.45-.17-1.95-.58-.05-.04-.08-.09-.12-.13-5.17.66-10.45,1.48-15.96,2.28l-.06-.11-13.22,2.5-16.97-9.84-2.89-.97-.96,1.14,3.62,3.07,2.97,2.51,2.75,2.32.63.59h-.04c.53.54,1.06,1.06,1.62,1.57.18.16.38.32.58.46l7.61,7.16c1.38,3.77,1.69,8.36,2.17,12.78.45,4.12-.79,9.42,2.47,11.47.16.1.12.48.09.78-.37,3.2.1,5.67,1.1,7.68.3.49.59.98.85,1.5.04.03.07.07.1.11.84,1.17,1.87,2.16,3,3.05.17.18.36.37.57.61,1.2,1.33,2.62,2.36,4.15,3.23l63.82,55.88c.3-.3.61-.61.91-.91l-66.11-57.89c-.24-.27-.46-.55-.65-.83-.06-.09-.12-.19-.18-.28-.39-.08-.76-.25-1.03-.53-.46-.45-.9-.92-1.32-1.4,1.43.06,2.85.16,4.25.37,4.07-.38,7.49-1.69,10.58-3.45.24-.41.44-.84.65-1.26.15-.29.35-.54.58-.76-.55,0-1.1.02-1.66-.02-.39-.03-.79-.06-1.19-.12-.96.52-1.95,1.02-2.97,1.48-2.3,1.04-5,1.65-7.73,1.83-.67.04-1.3.01-1.89-.07-.77.04-1.54-.03-2.3-.15-.59-.92-1.01-1.96-1.62-2.87-.18-.27-.28-.56-.32-.87-.43-.56-.63-1.3-.46-2.08.05-.51.26-1.05.67-1.58-.03-.05-.05-.1-.08-.15.1-.04.2-.08.3-.12.4-.43.82-.71,1.25-.86.37-.21.76-.37,1.16-.44.1-.02.21-.04.31-.06.26-.08.52-.16.77-.25.54-.19,1.06-.42,1.59-.65,1.02-.45,2.03-.92,3.07-1.33.54-.22,1.09-.46,1.63-.66.11-.05.17-.08.19-.09.06-.03.12-.06.18-.1.28-.16.55-.32.82-.49.44-.27.87-.56,1.3-.86-4.04.93-7.91,1.92-11.15,1.81-5.14-.17-2.48-7.08-3.35-11.8,6.48.84,12.24,1.58,17.99,2.32.29-.44.58-.89.86-1.33-5.86-2.32-14.94-.09-19.75-5.15,6.38-1.5,11.83-2.78,17.29-4.07-5.16-1.55-14.03,3.27-18.21-.89l-.04-.21c7.53-1.53,14.4-2.92,21.27-4.31-6.89-.9-16.59,3.12-22.19-.56l-.02-.1c14.29-4.93,26.36-5.75,37.68-5.09.55.03.99.25,1.38.55.11.02.23.04.33.08.29.06.54.19.77.37.18.08.36.15.52.24.31.18.62.38.92.59.18.08.36.14.53.23.5.25,1.01.54,1.45.89,0,.03,0,.06,0,.1.58.68.99,1.41,1.35,2.27.2.49.17,1.05.04,1.57,0,.17-.02.34-.06.51-.02.53,0,1.07-.02,1.6,0,.56-.05,1.12-.14,1.67-.1.58-.31,1.14-.52,1.69-.19.37-.47.67-.78.94-.48,1.67-1.14,3.27-1.89,4.81-.57,1.17-1.2,2.29-1.84,3.39,0,.05.03.1.03.15.06.24.07.48.05.72,0,.15,0,.29.03.44,1-.61,2.03-1.14,3.08-1.65.65-1.26,1.24-2.56,1.79-3.91,1.26-3.12,2.06-6.43,1.85-10.34-.09-.38-.15-.77-.23-1.16.1-.13.19-.26.29-.39-.14-.34-.19-.73-.16-1.12-.18-.13-.34-.3-.48-.48v-.04l67.98,66.11c.3-.3.6-.61.9-.91l-.02.05Z"/>
    </g>
  </g>
</svg>