<?xml version="1.0" encoding="utf-8"?>
<!-- Generator: Adobe Illustrator 28.0.0, SVG Export Plug-In . SVG Version: 6.00 Build 0)  -->
<svg version="1.1" id="Layer_1" xmlns="http://www.w3.org/2000/svg" xmlns:xlink="http://www.w3.org/1999/xlink" x="0px" y="0px"
	 viewBox="0 0 650 450" style="enable-background:new 0 0 650 450;" xml:space="preserve">
<style type="text/css">
	.st0{fill:none;stroke:#FFFFFF;stroke-linecap:square;stroke-miterlimit:10;}
	.st1{fill:none;stroke:#FFFFFF;stroke-linecap:square;stroke-miterlimit:10;stroke-dasharray:0,0,0,0,0,0;}
	.st2{fill:#FFFFFF;}
</style>
<g id="traditional_twisted">
	<g id="dash_2">
		<line class="st0" x1="84.1" y1="184.1" x2="87.3" y2="179"/>
		<line class="st1" x1="93.7" y1="168.9" x2="154.8" y2="72.4"/>
		<line class="st0" x1="158.1" y1="67.4" x2="161.3" y2="62.3"/>
	</g>
	<g id="dash_1">
		<line class="st0" x1="291.9" y1="364.5" x2="291.3" y2="358.5"/>
		<line class="st1" x1="290.2" y1="346.9" x2="272.3" y2="166.9"/>
		<line class="st0" x1="271.7" y1="161.1" x2="271.1" y2="155.1"/>
	</g>
	<path id="filter" class="st2" d="M525,294.3L525,294.3c-2.6-2.4-6.6-2.9-11.1-1.5c-4.4,1.3-8.7,4.3-12.4,8.3c0,0-0.1,0.1-0.1,0.1
		c-3.7,4.1-6.1,8.8-7,13.4c-0.8,4.6,0.1,8.5,2.8,10.8h0l104.5,88.8l0,0c4.1,3.6,12.2,0.9,18.6-6.2c0,0,0-0.1,0.1-0.1
		c3-3.4,5.1-7.2,5.9-10.8c0.8-3.6,0.2-6.6-1.7-8.4l0,0L525,294.3L525,294.3L525,294.3z M495.8,314.8c0.8-4.3,3.1-8.8,6.6-12.7
		c0,0,0.1-0.1,0.1-0.1c3.5-3.9,7.7-6.7,11.8-8c4-1.2,7.5-0.8,9.8,1.3c2.3,2,3.1,5.4,2.4,9.6c-0.8,4.3-3.1,8.8-6.6,12.7
		c-7.2,8-16.9,11.1-21.7,6.8h0C495.9,322.3,495,318.9,495.8,314.8L495.8,314.8L495.8,314.8z M625.2,396.8c-0.8,3.4-2.8,7-5.6,10.2
		c0,0,0,0.1-0.1,0.1c-5.8,6.5-13.3,9.2-16.8,6.1l-0.4,0.5l0.4-0.5l-101-85.7c5.6,1,13.1-2.4,19-8.9c0,0,0.1-0.1,0.1-0.1
		c3.7-4.1,6.1-8.8,7-13.4c0.4-2.4,0.4-4.7-0.2-6.6l96.2,91l0,0C625.4,391,625.9,393.5,625.2,396.8L625.2,396.8L625.2,396.8z"/>
	<path id="middle" class="st2" d="M495,271.7c-0.4-1.4-1.2-2.6-2.2-3.6c-0.1-0.1-0.3-0.3-0.5-0.4l0,0l-163-158.6
		c-0.3,0.3-0.6,0.6-0.9,0.8l162.3,157.8c0,0.1,0.1,0.1,0.2,0.2c0.1,0.1,0.3,0.3,0.4,0.4c0.2,0.2,0.5,0.4,0.7,0.5
		c0.9,0.8,1.5,1.9,1.9,3.1c1.4,4.7-0.9,11.7-6.3,17.5c-6.8,7.3-15.8,10-20.2,5.9c-0.1-0.1-0.1-0.1-0.2-0.2c-0.1-0.1-0.2-0.1-0.3-0.2
		L294.3,143.9c-0.3,0.3-0.6,0.6-0.9,0.9l173.2,151.7l0,0c4.9,4.5,14.7,1.8,21.9-6C494.2,284.3,496.6,276.8,495,271.7L495,271.7
		L495,271.7z"/>
	<path id="end_enlarged" class="st2" d="M137.3,256.6l2.6,2.9c0-0.1,0.1-0.1,0.2-0.2l105.6,102.7c0.5-0.5,1-1,1.5-1.5h0v0L138.7,255
		l-3.1-3.4c0-0.1-0.1-0.2-0.2-0.2c-0.1-0.1-0.2-0.1-0.3-0.2c-0.1-0.1-0.3-0.2-0.4-0.3c-0.5-0.4-1-0.9-1.4-1.4
		c-0.1-0.1-0.2-0.2-0.3-0.3c-0.7-0.4-1.4-0.8-2-1.3c0,0,0,0,0,0.1c-1-0.6-2-1-3.1-1.4c-1.2-0.4-2.4-0.8-3.7-1.1c-1.1,0-2.3,0-3.4,0
		c-2.5,0.1-5,0.4-7.5,1.1c-1.2,0.3-2.2-0.2-2.9-0.8c-0.1-0.1-0.1-0.1-0.2-0.2c-8.1,1.3-16.5,2.9-25.1,4.5l-0.1-0.2l-21,4.7l-24-14.3
		l-4.2-1.3l-1.7,1.8l4.9,4.6l4,3.7l3.7,3.5l0.8,0.9l-0.1,0c0.7,0.8,1.4,1.6,2.2,2.3c0.2,0.2,0.5,0.5,0.8,0.7L60.7,267
		c1.3,5.8,0.8,12.9,0.6,19.8c-0.2,6.4-3.3,14.7,1.3,17.7c0.2,0.2,0.1,0.7,0,1.2c-1.3,5-1.1,8.8,0,11.9c0.4,0.7,0.7,1.5,1,2.3
		c0,0.1,0.1,0.1,0.1,0.2c1,1.8,2.4,3.2,4,4.6c0.2,0.3,0.5,0.6,0.8,0.9c0.9,1.2,2,2.2,3.2,3.1c0,0,0,0,0,0c0.2,0.1,0.4,0.2,0.6,0.4
		c0.1,0.1,0.2,0.2,0.4,0.3c0,0,0,0,0,0c0.3,0.2,0.6,0.4,0.8,0.5l108.7,95.2c0.5-0.5,1-1,1.5-1.5L74.5,327.9c0,0,0.1-0.1,0.1-0.1
		l-2-1.9c0-0.1-0.1-0.1-0.1-0.2c-0.2-0.1-0.4-0.2-0.5-0.3c-0.2-0.1-0.4-0.3-0.5-0.5c0-0.1-0.1-0.1-0.1-0.2c-0.2-0.2-0.3-0.4-0.4-0.7
		c-0.3-0.1-0.6-0.3-0.8-0.5c-0.3-0.3-0.5-0.6-0.7-0.9c-0.4-0.3-0.8-0.6-1.2-0.9c-1-0.9-1.3-2.2-1.9-3.3c-0.1-0.2-0.1-0.3-0.2-0.5
		c-0.6-1.3-1-2.8-1.7-4.1c-0.2-0.4-0.3-0.9-0.3-1.3c-0.5-0.8-0.7-2-0.3-3.2c0.2-0.8,0.6-1.7,1.4-2.5c0-0.1-0.1-0.2-0.1-0.2
		c0.2-0.1,0.3-0.1,0.5-0.2c0.7-0.7,1.4-1.1,2.1-1.4c0.6-0.4,1.3-0.6,1.9-0.8c0.2,0,0.3-0.1,0.5-0.1c0.4-0.1,0.8-0.3,1.2-0.4
		c0.9-0.3,1.7-0.7,2.6-1.1c1.7-0.8,3.3-1.6,5-2.3c0.9-0.4,1.8-0.8,2.7-1.1c0.2-0.1,0.3-0.1,0.3-0.1c0.1,0,0.2-0.1,0.3-0.2
		c0.5-0.3,0.9-0.5,1.4-0.8c0.7-0.5,1.5-0.9,2.2-1.4c-6.4,1.7-12.6,3.5-17.6,3.5c-7.9,0-2.3-10.9-2.6-18.2c9.8,0.9,18.5,1.7,27.3,2.5
		c0.5-0.7,1.1-1.4,1.6-2.1c-8.5-3.3-23.1,0.8-29.4-6.8c10.2-2.7,18.9-5.1,27.6-7.4c-7.6-2.1-22.4,6-27.9-0.3l0-0.3
		c12-2.8,22.9-5.4,33.8-8c-10.4-1-26.3,5.9-34.1,0.5l0-0.1c23.1-8.6,42-10.6,59.3-10.2c0.8,0,1.5,0.3,2,0.8c0.2,0,0.3,0,0.5,0.1
		c0.4,0.1,0.8,0.3,1.1,0.5c0.3,0.1,0.5,0.2,0.8,0.3c0.4,0.3,0.9,0.6,1.3,0.9c0.3,0.1,0.5,0.2,0.8,0.3c0.1,0,0.1,0.1,0.2,0.1
		c0.3,0,0.5,0,0.7,0c1.1,0.3,2.2,0.8,3.2,1.3c0.4,0.2,0.8,0.4,1.2,0.7c0.1,0,0.1,0.1,0.2,0.1c0,0.1-0.1,0.1-0.1,0.2L137.3,256.6z"/>
	<path id="end_small" class="st2" d="M244.8,27.1l1.6,1.7c0,0,0.1-0.1,0.1-0.1l62.4,60.7c0.3-0.3,0.6-0.6,0.9-0.9h0v0l-64.2-62.4
		l-1.8-2c0,0-0.1-0.1-0.1-0.1c0,0-0.1-0.1-0.2-0.1c-0.1-0.1-0.2-0.1-0.2-0.2c-0.3-0.3-0.6-0.5-0.8-0.8c-0.1-0.1-0.1-0.1-0.2-0.2
		c-0.4-0.2-0.8-0.5-1.2-0.7c0,0,0,0,0,0c-0.6-0.3-1.2-0.6-1.8-0.8c-0.7-0.2-1.4-0.5-2.2-0.7c-0.7,0-1.3,0-2,0
		c-1.5,0.1-2.9,0.2-4.5,0.6c-0.7,0.2-1.3-0.1-1.7-0.5c0,0-0.1-0.1-0.1-0.1c-4.8,0.8-9.7,1.7-14.9,2.7l0-0.1l-12.4,2.8l-14.2-8.4
		l-2.5-0.8l-1,1.1l2.9,2.7l2.4,2.2l2.2,2l0.5,0.5l0,0c0.4,0.5,0.8,0.9,1.3,1.4c0.1,0.1,0.3,0.3,0.5,0.4l6,6.3
		c0.8,3.4,0.5,7.6,0.3,11.7c-0.1,3.8-1.9,8.7,0.8,10.5c0.1,0.1,0.1,0.4,0,0.7c-0.8,3-0.6,5.2,0,7c0.2,0.4,0.4,0.9,0.6,1.3
		c0,0,0,0.1,0.1,0.1c0.6,1,1.4,1.9,2.3,2.7c0.1,0.2,0.3,0.3,0.4,0.5c0.6,0.7,1.2,1.3,1.9,1.9c0,0,0,0,0,0c0.1,0.1,0.2,0.1,0.4,0.2
		c0.1,0.1,0.1,0.1,0.2,0.2c0,0,0,0,0,0c0.2,0.1,0.3,0.2,0.5,0.3l64.2,56.2c0.3-0.3,0.6-0.6,0.9-0.9l-64.5-56.5c0,0,0,0,0.1,0
		l-1.2-1.1c0,0-0.1-0.1-0.1-0.1c-0.1,0-0.2-0.1-0.3-0.2c-0.1-0.1-0.2-0.2-0.3-0.3c0,0-0.1-0.1-0.1-0.1c-0.1-0.1-0.2-0.3-0.3-0.4
		c-0.2-0.1-0.4-0.2-0.5-0.3c-0.2-0.2-0.3-0.4-0.4-0.5c-0.3-0.2-0.5-0.3-0.7-0.5c-0.6-0.5-0.8-1.3-1.1-2c0-0.1-0.1-0.2-0.1-0.3
		c-0.4-0.8-0.6-1.6-1-2.4c-0.1-0.2-0.2-0.5-0.2-0.8c-0.3-0.5-0.4-1.2-0.1-1.9c0.1-0.5,0.4-1,0.8-1.5c0,0,0-0.1,0-0.1
		c0.1,0,0.2-0.1,0.3-0.1c0.4-0.4,0.8-0.7,1.3-0.8c0.4-0.2,0.7-0.4,1.1-0.4c0.1,0,0.2,0,0.3-0.1c0.2-0.1,0.5-0.2,0.7-0.3
		c0.5-0.2,1-0.4,1.5-0.7c1-0.4,2-0.9,3-1.3c0.5-0.2,1-0.5,1.6-0.7c0.1-0.1,0.2-0.1,0.2-0.1c0.1,0,0.1-0.1,0.2-0.1
		c0.3-0.2,0.5-0.3,0.8-0.5c0.4-0.3,0.9-0.5,1.3-0.8c-3.8,1-7.5,2.1-10.4,2.1c-4.7,0-1.3-6.4-1.5-10.7c5.8,0.5,11,1,16.1,1.5
		c0.3-0.4,0.6-0.8,1-1.3c-5-1.9-13.6,0.5-17.3-4c6-1.6,11.2-3,16.3-4.4c-4.5-1.2-13.2,3.5-16.5-0.2l0-0.2c7.1-1.7,13.5-3.2,20-4.7
		c-6.2-0.6-15.5,3.5-20.2,0.3l0-0.1c13.7-5.1,24.8-6.2,35-6c0.5,0,0.9,0.2,1.2,0.5c0.1,0,0.2,0,0.3,0.1c0.3,0,0.5,0.2,0.7,0.3
		c0.2,0.1,0.3,0.1,0.4,0.2c0.3,0.2,0.5,0.3,0.8,0.5c0.2,0.1,0.3,0.1,0.5,0.2c0,0,0.1,0,0.1,0.1c0.2,0,0.3,0,0.4,0
		c0.7,0.2,1.3,0.5,1.9,0.7c0.2,0.1,0.5,0.2,0.7,0.4c0,0,0.1,0.1,0.1,0.1c0,0-0.1,0.1-0.1,0.1L244.8,27.1z"/>
</g>
</svg>
