<?xml version="1.0" encoding="UTF-8"?>
<svg id="Layer_1" data-name="Layer 1" xmlns="http://www.w3.org/2000/svg" viewBox="0 0 650 450">
  <defs>
    <style>
      .cls-1, .cls-2 {
        fill: #fff;
        stroke-width: 0px;
      }

      .cls-3 {
        stroke-dasharray: 0 0 11.4 11.4;
      }

      .cls-3, .cls-4, .cls-5 {
        fill: none;
        stroke: #fff;
        stroke-linecap: square;
        stroke-miterlimit: 10;
      }

      .cls-5 {
        stroke-dasharray: 0 0 11.48 11.48;
      }

      .cls-2 {
        opacity: .3;
      }
    </style>
  </defs>
  <g>
    <line class="cls-4" x1="94.02" y1="218.22" x2="97.23" y2="213.16"/>
    <line class="cls-5" x1="103.38" y1="203.46" x2="174.05" y2="92.01"/>
    <line class="cls-4" x1="177.12" y1="87.16" x2="180.33" y2="82.1"/>
  </g>
  <g>
    <line class="cls-4" x1="275.43" y1="360.77" x2="275.3" y2="354.77"/>
    <line class="cls-3" x1="275.06" y1="343.38" x2="271.35" y2="166.79"/>
    <line class="cls-4" x1="271.23" y1="161.1" x2="271.11" y2="155.1"/>
  </g>
  <path class="cls-2" d="m525.01,294.31h0s0,0-.01,0c-2.63-2.35-6.55-2.89-11.05-1.53-4.35,1.32-8.74,4.27-12.39,8.32-.03.03-.06.06-.09.1-3.66,4.1-6.13,8.84-6.95,13.35-.84,4.62.15,8.46,2.78,10.8,0,0,0,0,.01,0h0s104.54,88.75,104.54,88.75h0c4.07,3.61,12.22.89,18.6-6.2.03-.03.05-.06.08-.09,3-3.36,5.1-7.19,5.91-10.76.82-3.64.22-6.61-1.69-8.41h0s-99.75-94.33-99.75-94.33Zm-29.21,20.46c.78-4.27,3.13-8.79,6.64-12.72.03-.03.06-.06.08-.09,3.49-3.88,7.67-6.7,11.8-7.95,4.04-1.22,7.53-.78,9.81,1.26,2.28,2.03,3.12,5.44,2.36,9.6-.78,4.27-3.13,8.79-6.64,12.72-7.17,8.02-16.87,11.06-21.67,6.79h-.01c-2.28-2.04-3.12-5.45-2.36-9.61Zm129.37,82c-.76,3.36-2.76,6.98-5.61,10.18-.03.03-.05.06-.07.08-5.8,6.45-13.31,9.18-16.78,6.09l-.43.49.42-.5-100.95-85.7c5.59.96,13.14-2.35,18.99-8.86.03-.03.06-.06.08-.09,3.66-4.1,6.13-8.84,6.95-13.35.44-2.44.37-4.66-.18-6.56l96.19,90.96h0c1.63,1.46,2.13,4.04,1.4,7.27Z"/>
  <path class="cls-2" d="m495.05,271.7c-.43-1.4-1.16-2.62-2.21-3.58-.15-.14-.3-.26-.46-.39h0s-163.02-158.55-163.02-158.55c-.28.28-.57.57-.85.85l162.27,157.82c.05.07.11.13.16.2.13.13.26.26.38.4.24.17.47.35.69.55.9.84,1.54,1.89,1.91,3.11,1.44,4.67-.89,11.68-6.26,17.47-6.76,7.3-15.82,9.95-20.19,5.9-.07-.06-.13-.13-.19-.2-.09-.06-.18-.14-.27-.21l-172.7-151.21c-.28.29-.57.57-.85.85l173.21,151.65h0c4.86,4.48,14.67,1.81,21.88-5.97,5.66-6.11,8.07-13.59,6.49-18.69Z"/>
  <path class="cls-1" d="m239.06,356.07l-108.73-106.57c-.15-.08-.31-.16-.47-.21-1.18-.4-2.43-.21-3.64-.1-2.5.22-4.99.44-7.48.66-4.98.44-9.97.88-14.96,1.34-2.27.19-4.47.43-6.41,1.74-1.76,1.17-3.07,2.98-4.4,4.61-2.56,3.18-5.05,6.45-8.11,9.14-1.5,1.33-3.12,2.5-4.91,3.41-1.97,1.01-4.05,1.82-5.84,3.16-6.14,4.55-5.76,13.05-7.51,19.77-.34,1.27-.75,2.54-1.31,3.74-1.38.33-2.41,1.55-2.81,2.99-.59,2.16.38,3.98.97,6,.96,3.29-1.41,6.43-2.18,9.58-.43,1.69-.46,3.43.47,4.96.15.22.3.43.47.63h-.01s112.47,98.31,112.47,98.31c.53-.49,1.07-.98,1.6-1.47l-108.02-95.12c1.29-.25,2.53-.74,3.68-1.39,1.77-.99,3.33-2.31,5.19-3.14.78-.36,1.64-.64,2.51-.62.96.02,1.71.44,2.52.9,1.07.6,2.11.95,3.35.84,1.1-.1,2.15-.6,3.12-1.09,3.4-1.74,6.9-3.71,9.33-6.75,1.23-1.53,2.02-3.33,2.37-5.27.19-1.06.21-2.16.61-3.16.35-.85,1.01-1.51,1.72-2.08,2.7-2.17,6-3.59,9.04-5.19,3-1.58,6.08-3.28,8.48-5.74,1.23-1.26,2.24-2.64,3.01-4.22.91-1.89,1.24-3.97,1.65-6.03.32-1.64.82-3.37,1.85-4.63.37-.05.75-.25.96-.55.14-.2.21-.41.24-.62.87-.72,1.83-1.33,2.76-1.92,2.58-1.64,5.41-3.53,5.77-6.89.24-2.25-.8-4.48-1.59-6.54l-.81-1.64,103.6,100.76c.48-.53.98-1.06,1.46-1.6Zm-129.89-102.63c4.77-.42,9.52-.84,14.29-1.26,1.12-.11,2.23-.21,3.34-.3-1.63,1.29-2.92,3.01-4.04,4.75-1.57,2.43-2.86,5.04-4.08,7.67-2.51,5.38-4.68,11.13-7.65,16.14-.72,1.22-1.5,2.4-2.4,3.49-.31.39-.47.58-.69.8-.01-.47-.03-.95-.04-1.42-.06-1.54-.08-3.21-.16-4.86-.16-3.28-.53-6.54-1.12-9.76-.52-2.87-1.21-5.71-1.96-8.53-.54-2.04-1.11-4.09-1.53-6.17,2.01-.23,4.03-.36,6.04-.54Zm-34.03,22.46c1.49-1.3,3.33-2.06,5.09-2.91,3.66-1.75,6.69-4.3,9.44-7.28,1.36-1.47,2.62-3.01,3.87-4.56,1.23-1.53,2.42-3.13,3.75-4.57.62-.67,1.33-1.31,2.15-1.74.32-.17.68-.29,1.03-.4.79,4.04,2.08,7.95,2.94,11.97.63,2.89,1.09,5.81,1.38,8.74.3,3.01.38,6.18.46,9.11.07,2.35-.01,4.9-1.79,6.63-.46.43-.95.86-1.55,1.05-.82.25-1.65.45-2.46.75-.52.19-1.03.41-1.55.61-.19.06-.36.14-.55.2-.06,0-.2.05-.22.05-.11.04-.23.06-.35.08-.12.03-.23.04-.35.05h0s-.01,0-.02,0c-.28,0-.55-.03-.81-.08-.41-.08-1.05-.33-1.54-.54-.34-.15-.67-.31-.99-.48-.09-.04-.17-.09-.25-.13-.05-.03-.21-.12-.22-.12-.23-.14-.47-.27-.7-.42-2.02-1.21-3.95-2.56-5.86-3.92-2.39-1.71-4.74-3.46-7.1-5.19-1.83-1.34-3.64-2.7-5.58-3.86-.14-.09-.29-.14-.45-.19.58-1.06,1.33-2.04,2.24-2.83Zm-5.03,13.31c.47-2.68.85-5.44,1.73-8.02,4.04,2.44,7.75,5.49,11.57,8.26,2.05,1.48,4.13,2.96,6.27,4.29,1.23.76,2.54,1.57,3.93,2.1-1.05.37-2.13.58-3.33.73-2.08.26-4.12.28-6.22.26-4.41-.06-8.85-.41-13.25.08-.96.11-1.94.27-2.89.51,1.12-2.6,1.7-5.4,2.19-8.21Zm17.97,21.26c-.58,1.73-.85,3.55-.93,5.37-.68.36-1.42.7-2.18.71-.91,0-1.73-.68-2.5-1.08-.88-.46-1.87-.7-2.85-.69-2.01.03-3.87.88-5.56,1.92-1.61.99-3.1,2.17-4.87,2.87-1.13.44-2.6.79-3.77.41l-1.26-.96c-.14-.21-.27-.43-.36-.66-.17-.47-.16-1.03-.08-1.68.21-1.39.92-2.9,1.46-4.29.6-1.53,1.19-3.17,1.21-4.84.01-1.06-.19-2.03-.52-3.03-.29-.93-.7-1.83-.87-2.78-.02-.15-.04-.3-.04-.44.26.05.53.02.77-.11,1.62-.9,3.19-1.25,5.05-1.49,2.1-.27,4.12-.29,6.22-.27,4.41.06,8.86.41,13.26-.08,1.26-.14,2.54-.37,3.77-.76-.15.63-.33,1.24-.56,1.85-.48,1.29-1,2.23-1.71,3.35-1.36,2.16-2.87,4.24-3.68,6.7Zm34.49-32.93c-.51,1.98-.71,4.06-1.4,5.99-1.05,2.9-3.21,5.06-5.68,6.79-2.65,1.85-5.6,3.22-8.44,4.73-1.52.8-3.03,1.65-4.48,2.58-1.63,1.05-3.17,2.25-4.03,4.06-.87,1.81-.64,3.94-1.4,5.8-.61,1.53-1.69,2.81-2.91,3.89-1.3,1.15-2.76,2.11-4.27,2.96h0c.11-.9.27-1.79.54-2.65.2-.65.45-1.28.74-1.89.28-.59.43-.87.8-1.47,1.33-2.2,2.89-4.26,3.85-6.69.6-1.52.97-3.12,1.19-4.73.09-.18.15-.38.15-.59.61-.11,1.21-.3,1.79-.53.55-.21,1.09-.44,1.64-.64.78-.28,1.6-.41,2.37-.68,1.4-.5,2.75-1.87,3.52-3.14.35-.6.63-1.22.84-1.88,4.08.21,7.61-2.61,10.2-5.58,1.07-1.21,1.94-2.61,2.87-3.95.73-1.05,1.56-2.28,2.38-3.26-.09.28-.19.58-.26.88Zm9.79-10.15c-1.89,1.8-4.34,2.84-6.33,4.52-2.5-.61-5.01,2.6-6.34,4.39-1.09,1.48-2.08,3.03-3.16,4.52-.23.31-.46.62-.7.93-.1.13-.2.26-.31.38-.05.06-.1.12-.15.18-.02.03-.03.04-.04.05l-.04.04c-.62.65-1.26,1.29-1.93,1.86-.95.81-1.99,1.53-3.13,1.99.86-.96,1.61-2.01,2.3-3.07,1.57-2.43,2.86-5.04,4.08-7.67,2.51-5.38,4.68-11.13,7.65-16.14.72-1.22,1.5-2.4,2.4-3.49.48-.6.6-.73,1.12-1.23.44-.41.89-.79,1.38-1.13.18-.13.3-.3.39-.5l.62.65c.12.35.23.7.34,1,.41,1.09.81,2.17,1.22,3.26.41,1.13.84,2.25,1.25,3.38.35.94.76,1.94.8,2.96.05,1.29-.53,2.3-1.4,3.12Z"/>
  <path class="cls-1" d="m309.6,87.49L243.45,22.65c-.09-.05-.19-.09-.29-.13-.72-.24-1.48-.13-2.22-.06-1.52.13-3.04.27-4.55.4-3.03.27-6.06.54-9.1.81-1.38.12-2.72.26-3.9,1.06-1.07.71-1.87,1.81-2.67,2.81-1.56,1.93-3.07,3.92-4.94,5.56-.92.81-1.9,1.52-2.99,2.07-1.2.62-2.46,1.11-3.55,1.92-3.74,2.77-3.5,7.94-4.57,12.03-.21.77-.45,1.55-.79,2.27-.84.2-1.47.94-1.71,1.82-.36,1.32.23,2.42.59,3.65.58,2-.86,3.91-1.33,5.83-.26,1.03-.28,2.09.29,3.02.09.13.18.26.28.38h0s68.43,59.82,68.43,59.82c.33-.3.65-.6.98-.89l-65.72-57.88c.78-.15,1.54-.45,2.24-.84,1.07-.6,2.03-1.4,3.16-1.91.48-.22,1-.39,1.53-.38.58.01,1.04.27,1.53.55.65.36,1.28.58,2.04.51.67-.06,1.31-.36,1.9-.66,2.07-1.06,4.2-2.25,5.68-4.11.75-.93,1.23-2.03,1.44-3.21.11-.64.13-1.31.37-1.92.21-.52.62-.92,1.05-1.26,1.64-1.32,3.65-2.18,5.5-3.16,1.82-.96,3.7-2,5.16-3.49.75-.77,1.36-1.6,1.83-2.57.56-1.15.76-2.42,1.01-3.67.2-1,.5-2.05,1.13-2.82.22-.03.45-.15.59-.34.09-.12.13-.25.15-.38.53-.44,1.11-.81,1.68-1.17,1.57-1,3.29-2.15,3.51-4.19.15-1.37-.49-2.72-.97-3.98l-.49-1,63.04,61.31c.29-.33.59-.65.89-.97Zm-79.04-62.45c2.9-.26,5.8-.51,8.7-.77.68-.07,1.35-.13,2.03-.19-.99.79-1.78,1.83-2.46,2.89-.95,1.48-1.74,3.07-2.48,4.67-1.52,3.28-2.85,6.77-4.65,9.82-.44.74-.91,1.46-1.46,2.12-.19.24-.29.36-.42.49,0-.29-.02-.58-.03-.87-.04-.94-.05-1.95-.1-2.96-.1-1.99-.32-3.98-.68-5.94-.31-1.75-.74-3.47-1.19-5.19-.33-1.24-.68-2.49-.93-3.75,1.22-.14,2.45-.22,3.67-.33Zm-20.71,13.67c.91-.79,2.03-1.25,3.1-1.77,2.22-1.07,4.07-2.61,5.74-4.43.83-.89,1.6-1.83,2.36-2.78.75-.93,1.47-1.91,2.28-2.78.38-.41.81-.8,1.31-1.06.2-.1.41-.18.63-.24.48,2.46,1.27,4.84,1.79,7.28.38,1.76.67,3.53.84,5.32.18,1.83.23,3.76.28,5.54.04,1.43,0,2.98-1.09,4.03-.28.26-.58.52-.95.64-.5.15-1.01.28-1.5.46-.32.12-.63.25-.94.37-.11.04-.22.08-.33.12-.04,0-.12.03-.13.03-.07.02-.14.04-.21.05-.08.02-.14.03-.21.03h0s0,0-.01,0c-.17,0-.34-.02-.5-.05-.25-.05-.64-.2-.94-.33-.21-.09-.41-.19-.6-.29-.05-.03-.1-.05-.15-.08-.03-.02-.13-.07-.13-.07-.14-.09-.29-.17-.42-.25-1.23-.73-2.4-1.56-3.56-2.39-1.46-1.04-2.89-2.11-4.32-3.16-1.11-.82-2.21-1.64-3.39-2.35-.08-.05-.18-.09-.28-.12.36-.64.81-1.24,1.36-1.72Zm-3.06,8.1c.28-1.63.52-3.31,1.06-4.88,2.46,1.49,4.71,3.34,7.04,5.03,1.25.9,2.51,1.8,3.82,2.61.75.46,1.55.96,2.39,1.28-.64.22-1.29.35-2.03.45-1.27.16-2.51.17-3.79.16-2.68-.03-5.39-.25-8.06.05-.59.07-1.18.16-1.76.31.68-1.58,1.03-3.28,1.33-4.99Zm10.93,12.94c-.35,1.05-.52,2.16-.57,3.27-.41.22-.86.42-1.33.43-.55,0-1.05-.42-1.52-.66-.54-.28-1.14-.43-1.74-.42-1.22.02-2.35.53-3.38,1.17-.98.6-1.89,1.32-2.96,1.75-.69.27-1.58.48-2.29.25l-.77-.58c-.09-.13-.16-.26-.22-.4-.1-.28-.1-.63-.05-1.02.13-.85.56-1.76.89-2.61.37-.93.72-1.93.73-2.95,0-.65-.12-1.24-.32-1.85-.18-.57-.43-1.11-.53-1.69-.01-.09-.02-.18-.03-.27.16.03.32.01.47-.07.99-.55,1.94-.76,3.07-.91,1.27-.17,2.51-.18,3.79-.16,2.68.03,5.39.25,8.07-.05.77-.09,1.54-.22,2.29-.46-.09.38-.2.76-.34,1.12-.29.78-.61,1.36-1.04,2.04-.83,1.32-1.75,2.58-2.24,4.07Zm20.99-20.04c-.31,1.21-.43,2.47-.85,3.65-.64,1.76-1.95,3.08-3.46,4.13-1.61,1.13-3.4,1.96-5.13,2.88-.93.48-1.84,1-2.72,1.57-.99.64-1.93,1.37-2.45,2.47-.53,1.1-.39,2.4-.85,3.53-.37.93-1.03,1.71-1.77,2.37-.79.7-1.68,1.28-2.6,1.8h0c.07-.54.16-1.09.33-1.61.12-.39.27-.78.45-1.15.17-.36.26-.53.48-.89.81-1.34,1.76-2.59,2.34-4.07.37-.92.59-1.9.73-2.88.05-.11.09-.23.09-.36.37-.07.73-.18,1.09-.32.33-.13.66-.27,1-.39.47-.17.97-.25,1.44-.41.85-.31,1.67-1.14,2.14-1.91.21-.36.38-.74.51-1.14,2.48.13,4.63-1.59,6.2-3.4.65-.74,1.18-1.59,1.74-2.4.44-.64.95-1.39,1.45-1.98-.06.17-.11.35-.16.53Zm5.96-6.17c-1.15,1.1-2.64,1.73-3.85,2.75-1.52-.37-3.05,1.58-3.86,2.67-.66.9-1.27,1.85-1.92,2.75-.14.19-.28.38-.43.57-.06.08-.12.16-.19.23-.03.04-.06.07-.09.11-.01.02-.02.02-.03.03l-.03.02c-.38.4-.77.78-1.18,1.13-.58.49-1.21.93-1.91,1.21.52-.58.98-1.22,1.4-1.87.95-1.48,1.74-3.07,2.48-4.67,1.52-3.28,2.85-6.77,4.65-9.82.44-.74.91-1.46,1.46-2.12.29-.37.37-.45.68-.75.27-.25.54-.48.84-.69.11-.08.18-.19.24-.3l.38.39c.07.21.14.43.21.61.25.66.49,1.32.74,1.98.25.69.51,1.37.76,2.06.21.57.46,1.18.49,1.8.03.78-.32,1.4-.85,1.9Z"/>
</svg>