<?xml version="1.0" encoding="UTF-8"?>
<svg id="Layer_1" data-name="Layer 1" xmlns="http://www.w3.org/2000/svg" viewBox="0 0 650 450">
  <defs>
    <style>
      .cls-1 {
        stroke-dasharray: 0 0 12.92 12.92;
      }

      .cls-1, .cls-2, .cls-3 {
        fill: none;
        stroke: #fff;
        stroke-linecap: square;
        stroke-miterlimit: 10;
      }

      .cls-2 {
        stroke-dasharray: 0 0 11.52 11.52;
      }

      .cls-4, .cls-5 {
        fill: #fff;
        stroke-width: 0px;
      }

      .cls-5 {
        opacity: .3;
      }
    </style>
  </defs>
  <g>
    <line class="cls-3" x1="84.97" y1="190.82" x2="88.35" y2="185.86"/>
    <line class="cls-1" x1="95.61" y1="175.17" x2="164.66" y2="73.64"/>
    <line class="cls-3" x1="168.29" y1="68.3" x2="171.67" y2="63.34"/>
  </g>
  <g>
    <line class="cls-3" x1="281.52" y1="362.62" x2="281.22" y2="356.63"/>
    <line class="cls-2" x1="280.64" y1="345.12" x2="271.7" y2="166.84"/>
    <line class="cls-3" x1="271.41" y1="161.09" x2="271.11" y2="155.1"/>
  </g>
  <path class="cls-5" d="m525.01,294.31h0s0,0-.01,0c-2.63-2.35-6.55-2.89-11.05-1.53-4.35,1.32-8.74,4.27-12.39,8.32-.03.03-.06.06-.09.1-3.66,4.1-6.13,8.84-6.95,13.35-.84,4.62.15,8.46,2.78,10.8,0,0,0,0,.01,0h0s104.54,88.75,104.54,88.75h0c4.07,3.61,12.22.89,18.6-6.2.03-.03.05-.06.08-.09,3-3.36,5.1-7.19,5.91-10.76.82-3.64.22-6.61-1.69-8.41h0s-99.75-94.33-99.75-94.33Zm-29.21,20.46c.78-4.27,3.13-8.79,6.64-12.72.03-.03.06-.06.08-.09,3.49-3.88,7.67-6.7,11.8-7.95,4.04-1.22,7.53-.78,9.81,1.26,2.28,2.03,3.12,5.44,2.36,9.6-.78,4.27-3.13,8.79-6.64,12.72-7.17,8.02-16.87,11.06-21.67,6.79h-.01c-2.28-2.04-3.12-5.45-2.36-9.61Zm129.37,82c-.76,3.36-2.76,6.98-5.61,10.18-.03.03-.05.06-.07.08-5.8,6.45-13.31,9.18-16.78,6.09l-.43.49.42-.5-100.95-85.7c5.59.96,13.14-2.35,18.99-8.86.03-.03.06-.06.08-.09,3.66-4.1,6.13-8.84,6.95-13.35.44-2.44.37-4.66-.18-6.56l96.19,90.96h0c1.63,1.46,2.13,4.04,1.4,7.27Z"/>
  <path class="cls-5" d="m495.05,271.7c-.43-1.4-1.16-2.62-2.21-3.58-.15-.14-.3-.26-.46-.39h0s-163.02-158.55-163.02-158.55c-.28.28-.57.57-.85.85l162.27,157.82c.05.07.11.13.16.2.13.13.26.26.38.4.24.17.47.35.69.55.9.84,1.54,1.89,1.91,3.11,1.44,4.67-.89,11.68-6.26,17.47-6.76,7.3-15.82,9.95-20.19,5.9-.07-.06-.13-.13-.19-.2-.09-.06-.18-.14-.27-.21l-172.7-151.21c-.28.29-.57.57-.85.85l173.21,151.65h0c4.86,4.48,14.67,1.81,21.88-5.97,5.66-6.11,8.07-13.59,6.49-18.69Z"/>
  <path class="cls-4" d="m56.58,311.11c2.19.54,4.52.81,6.96.81,12.53,0,27.87-6.98,40.56-19.67,15.72-15.72,22.67-35.5,18.45-48.98l122.63,119.27c.53-.49,1.07-.99,1.6-1.48l-126.94-123.46c-.7-1.04-1.49-2.02-2.39-2.92-1.03-1.03-2.17-1.93-3.39-2.7l-.35-.34s.01.08.02.12c-13.2-8.05-36.11-1.47-53.85,16.27-17.97,17.97-24.47,41.24-15.94,54.35-.15-.04-.3-.09-.45-.13,0,0,.01.02.02.03,0,.01.02.03.02.04.06.06.11.12.18.18,1.42,1.98,3.17,3.66,5.1,5.18.29.3.61.63.97,1.03,2.03,2.25,4.44,4.01,7.04,5.49l125.95,110.28c.56-.48,1.12-.95,1.68-1.43l-127.87-111.95Zm45.31-21.07c-10.37,10.37-22.49,16.78-33.05,18.41l1.56-9.45,1.81-9.38,4.75-10.48,2.86-4.77,4.78-4.78,5.32-5.32,9.94-5.61,8.46-1.44h11.97c-1.7,10.51-8.1,22.53-18.38,32.81Zm5.51-57.65c3.01.88,5.68,2.36,7.84,4.51,4.1,4.1,5.83,10,5.43,16.74-.05,0-.1-.03-.15-.03h-12.37c-.1,0-.2,0-.3.02l-8.92,1.52c-.21.04-.4.11-.59.21l-6.96,3.93.83-4.01,4.21-13.76,10.37-8.15c.32-.26.51-.61.61-.98Zm-45.3,17.87c13.13-13.12,29.06-19.88,41.08-18.65l-9.45,7.42c-.29.23-.5.54-.61.89l-4.42,14.46-1.57,7.55-5.61,5.61-4.16,4.16-13.92,5.08c-.06.02-.12.05-.18.08l-19.95,9.82c.66-11.29,7.3-24.93,18.78-36.41Zm-12.47,53.88c.14,0,.27.02.41.02-.19-.06-.39-.11-.59-.17-.23-.21-.49-.38-.71-.6-3.26-3.26-4.99-7.67-5.37-12.72l21.4-10.54,9.41-3.43-.4.67c-.04.06-.07.12-.1.18l-4.88,10.77c-.06.13-.1.26-.13.4l-1.86,9.64-1.68,10.22c-.01.08.01.16,0,.24-6.15.3-11.55-1.22-15.52-4.68Z"/>
  <path class="cls-4" d="m205.26,64.58c1.21.3,2.5.45,3.85.45,6.93,0,15.41-3.86,22.43-10.88,8.69-8.69,12.53-19.63,10.2-27.08l67.81,65.95c.3-.27.59-.55.89-.82L240.24,23.94c-.39-.58-.83-1.12-1.32-1.62-.57-.57-1.2-1.07-1.88-1.49l-.19-.19s0,.05.01.07c-7.3-4.45-19.97-.82-29.78,9-9.94,9.94-13.53,22.8-8.81,30.05-.08-.02-.17-.05-.25-.07,0,0,0,0,0,.01,0,0,0,.02.01.02.04.03.06.07.1.1.78,1.09,1.75,2.02,2.82,2.87.16.17.34.35.54.57,1.12,1.24,2.46,2.22,3.89,3.03l69.64,60.98c.31-.26.62-.53.93-.79l-70.7-61.9Zm25.05-11.65c-5.73,5.73-12.44,9.28-18.28,10.18l.86-5.23,1-5.19,2.62-5.79,1.58-2.63,2.64-2.64,2.94-2.94,5.5-3.1,4.68-.79h6.62c-.94,5.81-4.48,12.46-10.16,18.14Zm3.05-31.88c1.67.49,3.14,1.3,4.34,2.5,2.27,2.27,3.22,5.53,3,9.25-.03,0-.05-.02-.08-.02h-6.84c-.06,0-.11,0-.17.01l-4.93.84c-.11.02-.22.06-.32.12l-3.85,2.17.46-2.22,2.33-7.61,5.74-4.51c.18-.14.28-.34.33-.54Zm-25.05,9.88c7.26-7.26,16.07-10.99,22.72-10.31l-5.22,4.1c-.16.13-.28.3-.34.49l-2.44,8-.87,4.17-3.1,3.1-2.3,2.3-7.7,2.81s-.07.03-.1.04l-11.03,5.43c.37-6.24,4.04-13.78,10.39-20.13Zm-6.9,29.79c.08,0,.15,0,.23.01-.11-.03-.22-.06-.33-.1-.13-.11-.27-.21-.39-.33-1.8-1.8-2.76-4.24-2.97-7.03l11.84-5.83,5.2-1.9-.22.37s-.04.07-.05.1l-2.7,5.95c-.03.07-.06.15-.07.22l-1.03,5.33-.93,5.65s0,.09,0,.13c-3.4.17-6.39-.67-8.58-2.59Z"/>
</svg>