<?xml version="1.0" encoding="UTF-8"?>
<svg id="Layer_1" data-name="Layer 1" xmlns="http://www.w3.org/2000/svg" viewBox="0 0 770 480">
  <defs>
    <style>
      .cls-1 {
        stroke-dasharray: 0 0 12.02 12.02;
      }

      .cls-1, .cls-2, .cls-3 {
        fill: none;
        stroke: #fff;
        stroke-linecap: square;
        stroke-miterlimit: 10;
      }

      .cls-4 {
        fill: #fff;
        stroke-width: 0px;
      }

      .cls-2 {
        stroke-dasharray: 0 0 11.67 11.67;
      }
    </style>
  </defs>
  <line id="Line_343" data-name="Line 343" class="cls-3" x1="148.11" y1="203.5" x2="151.32" y2="198.43"/>
  <line id="Line_344" data-name="Line 344" class="cls-1" x1="157.76" y1="188.28" x2="218.89" y2="91.87"/>
  <line id="Line_345" data-name="Line 345" class="cls-3" x1="222.11" y1="86.8" x2="225.32" y2="81.73"/>
  <line id="Line_346" data-name="Line 346" class="cls-3" x1="355.99" y1="383.89" x2="355.39" y2="377.92"/>
  <line id="Line_347" data-name="Line 347" class="cls-2" x1="354.24" y1="366.3" x2="336.34" y2="186.3"/>
  <line id="Line_348" data-name="Line 348" class="cls-3" x1="335.76" y1="180.5" x2="335.17" y2="174.53"/>
  <g>
    <path id="Path_14058" data-name="Path 14058" class="cls-4" d="m589.06,313.74h-.01c-2.63-2.36-6.55-2.9-11.05-1.54-4.8,1.62-9.08,4.49-12.39,8.32-.03.03-.06.06-.09.1-3.48,3.74-5.88,8.35-6.95,13.35-.84,4.62.15,8.46,2.78,10.8h.01s104.54,88.76,104.54,88.76c4.07,3.61,12.22.89,18.6-6.2l.08-.09c2.83-3.04,4.86-6.74,5.91-10.76.83-3.64.22-6.61-1.69-8.41h0s-99.76-94.33-99.76-94.33Zm-29.2,20.46c1.03-4.76,3.32-9.15,6.64-12.72l.08-.09c3.15-3.66,7.23-6.4,11.8-7.95,4.04-1.22,7.53-.78,9.81,1.26s3.12,5.44,2.36,9.6c-1.03,4.76-3.32,9.15-6.64,12.72-7.17,8.02-16.87,11.06-21.67,6.79h-.01c-2.28-2.04-3.12-5.45-2.36-9.61m129.37,82c-1,3.8-2.93,7.3-5.61,10.18l-.07.08c-5.8,6.45-13.31,9.18-16.78,6.09l-.43.48.42-.49-100.96-85.7c5.59.96,13.14-2.35,18.99-8.86l.08-.1c3.48-3.74,5.88-8.35,6.95-13.35.45-2.17.39-4.42-.18-6.56l96.19,90.95h0c1.63,1.46,2.13,4.04,1.4,7.27"/>
    <path id="Path_14059" data-name="Path 14059" class="cls-4" d="m559.11,291.13c-.4-1.37-1.17-2.61-2.21-3.59-.15-.14-.3-.26-.46-.39h0l-163.02-158.55-.85.85,162.27,157.82c.05.07.11.13.16.2.13.13.26.26.38.4.24.17.47.35.69.55.9.85,1.56,1.92,1.91,3.11,1.44,4.67-.89,11.68-6.26,17.47-6.76,7.3-15.82,9.95-20.19,5.9-.07-.06-.13-.13-.19-.2-.09-.06-.18-.14-.27-.21l-172.7-151.2c-.28.29-.57.57-.85.85l173.21,151.64h0c4.86,4.48,14.67,1.81,21.88-5.97,5.66-6.11,8.07-13.59,6.49-18.69"/>
    <path id="Path_14060" data-name="Path 14060" class="cls-4" d="m172.02,314.82c-1.37,1.49-2.81,2.9-4.3,4.28,0,.78-.14,1.56-.43,2.29.87.46,1.6,1.14,2.14,1.96,1.29-1.14,2.56-2.3,3.77-3.51.01-.17.03-.34.07-.51.32-1.08.71-2.14,1.17-3.16.18-.41.34-.83.51-1.24.01-.05.03-.1.04-.15-.18-.27-.39-.52-.59-.78-.51.25-1.03.47-1.55.68-.27.07-.55.12-.82.15"/>
    <path id="Path_14061" data-name="Path 14061" class="cls-4" d="m311.34,379.98l-117.87-114.64c-.06-.1-.14-.19-.22-.27h0c-.1-.09-.21-.17-.32-.25h0c-.17-.13-.35-.26-.51-.4-.62-.51-1.2-1.05-1.76-1.61-.14-.14-.3-.26-.44-.4-.82-.46-1.64-.93-2.43-1.47.01.03.02.05.03.08-1.17-.65-2.4-1.2-3.66-1.63-1.4-.51-2.83-.97-4.26-1.41-1.25-.06-2.5-.12-3.76-.15-2.76-.02-5.5.26-8.2.83-1.2.19-2.42-.18-3.32-.99-.08-.07-.13-.15-.2-.23-8.8,1.12-17.81,2.52-27.19,3.89l-.1-.19-22.52,4.25-28.91-16.77-4.92-1.65-1.64,1.94,6.17,5.22,5.06,4.28,4.68,3.96,1.07,1.01h-.07c.9.91,1.81,1.81,2.76,2.67.31.28.64.54.98.79l12.96,12.2c2.35,6.43,2.88,14.25,3.7,21.77.77,7.03-1.35,16.05,4.21,19.55.28.17.21.82.15,1.33-.64,5.45.17,9.66,1.87,13.09.52.83,1,1.68,1.44,2.55.06.06.11.12.18.18,1.45,1.96,3.17,3.71,5.12,5.2.3.3.61.63.98,1.04,2.05,2.2,4.43,4.06,7.07,5.51l108.73,95.2c.51-.52,1.03-1.03,1.55-1.55l-112.64-98.61c-.4-.45-.77-.93-1.11-1.42-.11-.15-.2-.32-.31-.48-.66-.12-1.27-.43-1.76-.89-.78-.77-1.53-1.57-2.25-2.39,2.42.08,4.84.29,7.24.63,6.37-.63,12.52-2.63,18.03-5.87.41-.69.75-1.43,1.11-2.14.26-.48.59-.92.98-1.3-.94,0-1.88.03-2.82-.04-.67-.05-1.35-.1-2.03-.2-1.64.89-3.31,1.74-5.05,2.52-4.17,1.81-8.63,2.86-13.17,3.12-1.08.07-2.16.03-3.23-.12-1.31.05-2.62-.04-3.92-.25-1-1.57-1.71-3.33-2.76-4.88-.29-.45-.48-.95-.54-1.48-.78-1-1.07-2.31-.78-3.54.11-.99.5-1.93,1.14-2.69-.04-.09-.09-.18-.13-.26l.51-.21c.59-.65,1.31-1.15,2.13-1.47.61-.36,1.28-.62,1.98-.75.18-.03.35-.06.53-.1.44-.14.88-.27,1.31-.43.91-.33,1.81-.71,2.71-1.1,1.74-.76,3.46-1.57,5.22-2.27.92-.37,1.85-.78,2.78-1.13.19-.09.29-.13.33-.15.1-.05.2-.11.3-.17.47-.27.94-.55,1.4-.83.75-.47,1.48-.96,2.21-1.46-6.88,1.58-13.48,3.27-18.99,3.09-8.75-.3-4.23-12.07-5.71-20.1l30.66,3.96c.49-.76.98-1.51,1.47-2.27-9.98-3.95-25.46-.15-33.65-8.78l29.45-6.93c-8.79-2.64-23.9,5.58-31.02-1.52l-.07-.36,36.23-7.34c-11.73-1.54-28.26,5.31-37.8-.95l-.03-.16c20.59-7.23,42.43-10.18,64.2-8.67.86.06,1.68.39,2.35.94.19.03.38.07.57.14.48.1.93.32,1.31.63.3.14.61.25.89.41.53.31,1.05.65,1.56,1.01.3.13.61.24.9.39.88.41,1.7.92,2.47,1.52,0,.05.02.11.03.16.97,1.16,1.74,2.46,2.29,3.87.31.86.33,1.8.07,2.68,0,.29-.04.58-.1.87-.04.91,0,1.82-.03,2.73-.01.95-.09,1.9-.24,2.84-.2.99-.5,1.96-.89,2.89-.33.62-.79,1.16-1.33,1.59-.83,2.82-1.91,5.57-3.22,8.2-.97,1.99-2.04,3.9-3.13,5.78.01.08.05.16.06.25.1.4.13.82.09,1.23,0,.25.01.5.05.75,1.7-1.03,3.45-1.96,5.25-2.81,1.1-2.15,2.12-4.36,3.04-6.66,2.36-5.56,3.44-11.58,3.15-17.62-.15-.65-.26-1.31-.39-1.97.16-.22.33-.44.49-.66-.24-.61-.33-1.26-.28-1.91-.31-.23-.59-.51-.83-.81,0-.02,0-.05,0-.07l115.81,112.64c.51-.52,1.03-1.03,1.54-1.55"/>
    <path id="Path_14062" data-name="Path 14062" class="cls-4" d="m297.72,75.33c-.8.87-1.65,1.7-2.52,2.51,0,.12,0,.24-.01.37,0,.34-.08.67-.24.98.51.27.94.67,1.25,1.15.76-.67,1.5-1.35,2.21-2.06,0-.1.02-.2.04-.3.19-.63.42-1.25.69-1.86.1-.24.2-.49.3-.73,0-.03.01-.06.02-.09-.11-.16-.23-.31-.35-.46-.3.14-.6.28-.91.4-.16.04-.32.07-.48.09"/>
    <path id="Path_14063" data-name="Path 14063" class="cls-4" d="m379.49,113.58l-69.19-67.29c-.04-.06-.08-.11-.13-.16h0c-.06-.05-.12-.1-.19-.15h0c-.1-.07-.2-.15-.3-.23-.36-.3-.7-.62-1.03-.94-.08-.08-.18-.15-.26-.23-.48-.27-.96-.55-1.43-.86,0,.01.01.03.02.04-.69-.38-1.41-.7-2.15-.96-.82-.3-1.66-.57-2.5-.83-.73-.03-1.47-.07-2.2-.09-1.62-.01-3.23.15-4.81.49-.7.11-1.42-.1-1.95-.58-.04-.04-.08-.09-.12-.13-5.17.66-10.45,1.48-15.96,2.28l-.06-.11-13.22,2.5-16.98-9.85-2.89-.97-.96,1.14,3.62,3.07,2.97,2.51,2.74,2.33.63.59h-.04c.53.54,1.06,1.06,1.62,1.57.18.16.38.32.58.46l7.61,7.16c1.38,3.77,1.69,8.36,2.17,12.78.45,4.12-.79,9.42,2.47,11.47.16.1.12.48.09.78-.4,2.61-.02,5.29,1.1,7.68.3.49.59.98.85,1.5.04.03.07.07.1.1.85,1.15,1.86,2.18,3,3.06.17.18.36.37.57.61,1.2,1.29,2.6,2.38,4.15,3.23l63.82,55.88c.3-.3.61-.61.91-.91l-66.11-57.89c-.23-.27-.45-.54-.65-.83-.07-.09-.12-.19-.18-.28-.39-.07-.74-.25-1.03-.53-.46-.45-.9-.92-1.32-1.4,1.42.05,2.84.17,4.25.37,3.74-.37,7.35-1.54,10.59-3.45.24-.41.44-.84.65-1.26.15-.28.34-.54.57-.76-.55,0-1.1.02-1.66-.02-.39-.03-.79-.06-1.19-.12-.96.52-1.95,1.02-2.97,1.48-2.45,1.06-5.07,1.68-7.73,1.83-.63.04-1.27.02-1.89-.07-.77.03-1.54-.02-2.3-.15-.59-.92-1.01-1.96-1.62-2.87-.17-.26-.28-.56-.32-.87-.46-.59-.62-1.35-.46-2.08.06-.58.3-1.13.67-1.58-.03-.05-.05-.1-.08-.15l.3-.12c.34-.38.77-.68,1.25-.87.36-.21.75-.36,1.16-.44.1-.02.21-.04.31-.06.26-.08.51-.16.77-.25.54-.19,1.07-.42,1.59-.65,1.02-.45,2.03-.92,3.07-1.33.54-.22,1.09-.46,1.63-.66.11-.05.17-.08.19-.09l.18-.1c.28-.16.55-.32.82-.49.44-.27.87-.56,1.3-.85-4.04.93-7.91,1.92-11.15,1.81-5.14-.17-2.48-7.08-3.35-11.8l17.99,2.32.86-1.33c-5.86-2.32-14.94-.09-19.75-5.15l17.29-4.07c-5.16-1.55-14.03,3.27-18.21-.89l-.04-.21,21.27-4.31c-6.89-.9-16.59,3.12-22.19-.56l-.02-.1c12.08-4.24,24.9-5.97,37.68-5.09.51.03.99.23,1.38.55.4.07.77.22,1.1.45.18.08.36.15.52.24.31.18.62.38.92.59.18.08.36.14.53.23.51.24,1,.54,1.45.89,0,.03.01.06.01.1.57.68,1.02,1.45,1.35,2.27.18.51.19,1.06.04,1.57,0,.17-.02.34-.06.51-.02.53,0,1.07-.02,1.6,0,.56-.06,1.12-.14,1.67-.12.58-.29,1.15-.52,1.7-.2.36-.46.68-.78.93-.49,1.66-1.12,3.27-1.89,4.81-.57,1.17-1.2,2.29-1.84,3.39,0,.05.03.09.03.15.06.24.08.48.05.72,0,.15,0,.29.03.44,1-.6,2.03-1.15,3.08-1.65.65-1.26,1.24-2.56,1.79-3.91,1.39-3.26,2.02-6.8,1.85-10.34-.09-.38-.15-.77-.23-1.15.1-.13.19-.26.29-.39-.14-.36-.2-.74-.16-1.12-.18-.14-.34-.3-.49-.48v-.04l67.98,66.11c.3-.3.6-.61.9-.91"/>
  </g>
</svg>