<?xml version="1.0" encoding="UTF-8"?>
<svg id="Layer_1" data-name="Layer 1" xmlns="http://www.w3.org/2000/svg" xmlns:xlink="http://www.w3.org/1999/xlink" viewBox="0 0 105 105">
  <defs>
    <style>
      .cls-1 {
        fill: none;
      }

      .cls-1, .cls-2 {
        stroke-width: 0px;
      }

      .cls-2 {
        fill: #fff;
      }

      .cls-3 {
        clip-path: url(#clippath);
      }
    </style>
    <clipPath id="clippath">
      <rect class="cls-1" x="-.41" y="2.91" width="105.82" height="99.18"/>
    </clipPath>
  </defs>
  <g id="Group_874" data-name="Group 874">
    <g class="cls-3">
      <g id="Group_340" data-name="Group 340">
        <path id="Path_2783" data-name="Path 2783" class="cls-2" d="m69.36,25.02l-.53.6.6-.53-.07-.07Z"/>
        <path id="Path_2784" data-name="Path 2784" class="cls-2" d="m104.32,16.07c-2.19-.02-4.36.43-6.36,1.33-.03.01-.07,0-.11,0,.02-.22.03-.44.05-.66-.86-.11-2.06.35-4.96,1.91v-1.4c-1.42.34-2.76.98-3.91,1.88-.04-.53-.07-.98-.11-1.5-1.99.38-3.31,1.73-4.87,2.84.21-.75.4-1.43.6-2.13-.65-.2-1.35-.09-1.9.31-.88.59-1.7,1.24-2.55,1.88-.14.1-.26.22-.5.41.08-.66.14-1.21.2-1.75-1.02-.1-2.64.81-4.09,2.31-.06-.6-.11-1.14-.16-1.75-.66.1-1.27.43-1.72.93-.48.48-.92,1.01-1.43,1.58v-1.3c-1.54.28-2.23,1.48-3.03,2.38-.24-.03-.49-.03-.73.01-.77.32-1.43.87-1.88,1.57-.13.2-.35.32-.59.32-.32.06-.63.15-.93.29-.01-.43.23-.64.59-.89.55-.43,1.06-.9,1.53-1.41.11-.12.25-.23.39-.32.69-.24,1.26-.72,1.63-1.35.05-.1.18-.16.28-.23.15-.1.32-.16.45-.27.72-.7,1.56-1.28,2.47-1.71.22-.08.39-.25.49-.46.28-.59.8-1.03,1.42-1.22.3-.15.58-.33.83-.55.12-.08.19-.22.2-.36-.01-.1-.19-.18-.34-.3.14-.07.3-.15.46-.23.98-.43,1.78-1.17,2.29-2.11.07-.14.24-.24.36-.36.41-.46.83-.9,1.19-1.39.12-.26.19-.54.21-.82-2.36.23-4.57,1.22-6.31,2.82-.02-.21-.04-.34-.05-.48-.05-.75-.32-1.02-1.13-.55-.74.53-1.42,1.14-2.03,1.81-.07.08-.13.16-.18.24-.06-.23-.1-.4-.13-.56-.13-.58-.31-.71-.77-.33-.6.53-1.16,1.11-1.69,1.71-.12.17-.23.34-.32.53-.21-.56-.4-1.05-.61-1.62-.77.6-1.26,1.49-1.35,2.46l-.6-.7c-.55.42-.76,1.19-1.6,1.26,1.37-1.28.92-2.88,1-4.54l-1.32.69c.1-.63.14-1.27.12-1.91-.13-.62-.31-1.23-.56-1.82h-.19c-.28.49-.57.98-.85,1.47.2-1.35-.04-2.72-.68-3.92l-1.14.89c-.19-1.02-.37-2.01-.58-3.15l-.86.57c-.33-.77-.65-1.59-1.04-2.37-.24-.4-.52-.78-.83-1.13h-.32c-1.37,1.24-1.46,2.92-1.59,4.63l-.6-.77c-.57.8-.82,1.8-.68,2.78-.24.11-.47.15-.53.26-.16.25-.25.54-.26.84.02.72.12,1.43.19,2.15v.16l-.42-.27c-.18.67-.12,1.37.17,2,.21.63.45,1.25.62,1.74-.14.21-.29.33-.27.43.04.44.14.86.28,1.28.35.84.78,1.66,1.17,2.48h-.14c-.06.2-.08.42-.06.63.17.76.45,1.48.82,2.16.49.72.17,1.5.52,2.19-.43-.16-.44-.84-1.04-.62-.02,0-.08-.1-.12-.15-.32-.43-.59-.9-.8-1.4-.3-.58-.65-1.13-1.05-1.66l-.4.71c-.03-.2-.04-.32-.07-.43-.17-.81-.31-1.62-.52-2.42-.06-.45-.43-.79-.88-.81-.07.11-.15.23-.23.34s-.17.19-.24.27c-1.2-1.5-2.06-3.23-3.79-4.19-.04-.02-.06-.09-.08-.13-.48-.82-1.15-1.52-1.95-2.04l-.44.8c-.12-.17-.21-.31-.31-.45-.92-1.44-2.03-2.76-3.3-3.91-.38-.29-.78-.54-1.19-.77l-.15.13c-.13,1.95.89,3.48,1.99,5.07h-1.24l2.66,3.73-.1.08c-.83-.85-1.78-1.58-2.82-2.17-.07.61-.13,1.11-.2,1.72-1.17-1.32-2.56-2.41-4.12-3.23l-.28.95c-.86-.7-1.9-1.15-3.01-1.3v.46c-2.21-1.25-4.35-2.63-7.14-2.82.07.33.17.64.3.95.47.73,1.13,1.32,1.91,1.71.8.48,1.61.94,2.45,1.42l-.26.37,2.89,1.53-.14.15c.11.18.17.43.33.53.55.35,1.13.64,1.7.96,1.37.76,2.74,1.51,4.1,2.28.34.19.63.47.99.63.6.28,1.24.48,1.86.74.11.05.19.14.24.25.11.4.19.81.29,1.22-1.34-1.21-2.92-2.12-4.65-2.67l-.12.11.48,1.39c-1.52-1.2-2.94-2.27-4.93-2.45.3.76.56,1.4.81,2.04-1.41-1.15-3.05-2-4.8-2.49-.5-.09-1.01-.15-1.51-.16l1.15,2.39-.12.07c-1.23-.93-2.6-1.63-4.07-2.09-.84-.29-1.74-.34-2.6-.14-.67.19-.73.42-.25.92.65.64,1.2,1.38,1.62,2.19-1.14-.29-2.26-.61-3.38-.87-1.72-.47-3.52-.61-5.29-.41-.16.05-.31.11-.45.2.09.14.2.26.32.37.43.25.76.63.96,1.08-1.01-.32-2.04-.59-3.08-.8-1.24-.19-2.52-.24-3.78-.31-.16,0-.33.2-.49.31-1.53-.01-3.13-.52-4.74.11.9.69,1.95,1.14,3.06,1.31,1.1.25,2.23.39,3.39.58l-.49.64,4.06.83c.02-.08.04-.16.06-.23l-3.44-.96.55-.5c-.43-.1-.86-.18-1.3-.23-1.48-.1-2.93-.41-4.33-.91-.24-.09-.46-.21-.68-.32.4-.12.8-.32,1.09-.04.27.05.55.2.69.12.42-.27.8.07,1.2,0,.13-.02.36.25.43.21.42-.27.47.02.53.19l1.07-.14-.51-.58.05-.09.52.19.39-.24c-.09.29-.14.44-.19.59l.63-.51.1.13-.42.85c.44-.27.39-.84.96-.89-.16.33-.28.58-.41.84.18-.14.33-.32.46-.51.12-.12.26-.22.4-.31l.1.14c-.12.24-.23.49-.37.77.44-.14.29-.9.96-.76-.11.25-.2.45-.29.66l.09.04.42-.68.8.16c-.1.3-.19.55-.28.8l.1.04c.13-.26.25-.52.42-.86l2.86.94c-.02-.76-.54-1.19-.96-1.75,3.04-.16,6.08.36,8.89,1.53-.41-1.26-1.13-2.41-2.08-3.34,3.09-.39,5.36,1.27,7.71,2.8l-1.44-3.15c2.1.36,4.04,1.38,5.54,2.9l.15.37c1.17,1.19,2.35,2.38,3.51,3.58.41.47.97.77,1.59.86.56.06,1.11.17,1.67.27,2.97.53,5.93,1.05,8.89,1.59.61.11,1.2.31,1.8.47-.01.04-.02.08-.03.12-.14-.05-.28-.08-.42-.11-.32-.09-.65-.11-.98-.06-.41.13-.85.11-1.24-.07-.69-.2-1.38-.42-2.08-.59-.29-.04-.59-.05-.88-.03-.27.02-.53.03-.8.01-.91-.26-1.85-.4-2.8-.42-.87.05-1.73-.05-2.57-.29-.57-.12-1.12-.33-1.68-.46-.43-.1-.88-.14-1.39-.22.09.25.15.39.22.58-.15,0-.3-.02-.46-.05-1.22-.28-2.43-.57-3.65-.84-.17-.01-.33,0-.49.05-.33.09-.67.14-1.01.16-.75-.07-1.5-.24-2.25-.33-.89-.11-1.78-.45-2.67.05-.14.08-.38.01-.56-.03-.84-.18-1.68-.4-2.53-.54-.56-.07-1.11-.11-1.67-.12.16.3.23.45.35.68l-6.16-1.07c-.15-.73-.8-.23-1.12-.52l-.05.14.68.17c-.29.43-.08.58.3.63.73.1,1.48.14,2.2.3,2.56.51,5.16.79,7.76.82,1.76.06,3.53.08,5.28.25,2.72.25,5.43.6,8.14.91,2.68.31,5.36.61,8.04.93.22.04.43.1.63.18l-.04.1-2.98-.22.55,1.12c-1.19-.62-2.62-.6-3.79.06l.86,1.3-4.64,1.17c0,.06,0,.12,0,.18l1.24.87c-1.48.25-2.93.26-4.09,1.32l1.05.76c-1.59.28-3.09.9-4.43,1.8-.45.28-.79.71-.96,1.22l5.98-.34c.03.12.08.34.14.59l5-.69c0,.08,0,.15,0,.23-.07.61-.01.71.61.6,1.7-.28,3.43-.5,4.58-2.04.12.14.23.25.34.37.66.75.91.83,1.64.14.6-.63,1.15-1.31,1.66-2.02l.67.56c.73-.57,1.12-1.46,1.07-2.38.52,0,1.07.31,1.32-.31.14-.44.26-.9.34-1.36.47.27.43-.37.67-.48.03.51.04,1.02.08,1.52.06.28.1.55.12.83-.03.7.19,1.14.7,1.25-.06.69.16,1.38.63,1.91.26.28.73.71.95.63.38-.2.66-.55.79-.96.17-.6.29-1.21.36-1.83l.45-.1c-.26,3.13-.51,6.21-.77,9.33-.29-.16-.56-.32-.84-.45-.64-.36-1.38-.49-2.1-.35-.67.17-.75.38-.37.94.09.13.17.27.31.48-.21-.06-.31-.08-.41-.11-.8-.2-1.6-.45-2.41-.58-.6-.1-.89.25-.85.89l-.55-.19c-.78-.3-1.62-.37-2.44-.22-.17.03-.31.22-.46.34.09.13.19.26.3.37.56.4.98.97,1.18,1.63-.73-.12-1.46-.2-2.19-.24-1.04-.09-2.06.36-2.69,1.2-.2.29-.23.45.17.62.49.24.97.52,1.42.82-.08.12-.09.15-.1.15-.12.01-.24.02-.37.04-1.17.1-2.28.51-3.24,1.19-.39.3-.75.64-.71,1.12l1.75,1.2-.38.08c-1.15.23-2.2.82-2.99,1.68-.28.32-.5.68-.4.94l1.92.68c-2.12,1.18-3,2.09-2.94,3.06l1.51.79c-.47.78-1.05.44-1.58.24l-.45,1.2-1.87-1.71c-.03.4-.05.61-.07.88-.13-.13-.27-.25-.41-.35-.8-.53-1.63-1.02-2.49-1.46-.56-.26-.7-.08-.58.53.19,1.02.61,1.99,1.24,2.82-.43.07-.46.26-.25.55.44.61.88,1.22,1.31,1.83l-.42.33c.33.56.86.97,1.48,1.14.33.07.55.39.49.72-.08.44.2.86.64.96.45.17.89.36,1.32.58-.08.13-.17.25-.27.37-.35.37-.25.63.18.85.52.25,1.04.53,1.55.79.11.06.21.12.32.18-.12.11-.23.21-.33.31,1.98,1.53,4.12,2.84,6.38,3.91-.07.07-.11.09-.14.08-2.74-1.08-5.32-2.53-7.68-4.3-.43-.36-.59-.3-.79.24-.03.08-.07.16-.14.33-.39-.72-.73-1.35-1.08-1.98-.25-.46-.56-.48-.88-.07-.15.19-.28.4-.4.58-.55-.48-1.13-.91-1.74-1.31-.63-.31-1.28-.55-1.96-.73-.38-.12-.65.05-.7.49-.05.41-.12.81-.17,1.16-.89-.47-1.8-.89-2.73-1.26-.69-.18-1.4-.28-2.12-.32-.3-.04-.45.11-.45.43.01.43,0,.86,0,1.35-.15-.1-.25-.17-.35-.23-1.08-.68-2.31-1.07-3.59-1.13-.58,0-.65.09-.56.66.08.47.14.95.23,1.51-.22-.1-.33-.16-.44-.2-1.47-.64-3.09-.81-4.66-.5-.35.08-.47.2-.38.57.13.57.2,1.16.31,1.81-1.77-.26-3.48-1.02-5.18-.17.08.44.17.89.24,1.28-.85.12-1.56.24-2.27.32-.57.09-1.15.14-1.73.14-.37,0-.47.12-.45.45,0,.14,0,.27,0,.4-.84.37-1.84.15-2.61.71.08.2.14.33.21.51-1.01.17-1.92.7-2.56,1.5v.21l2.75.91c-.07.13-.13.26-.25.49,1.1.5,2.3.73,3.51.68-.03.3-.05.6-.08.96l3.99.19c0,.11-.01.22-.03.33-.16.72-.16.76.56.83,1.32.2,2.67.11,3.95-.28l-.67,1.58c1.99.34,3.76-.38,5.6-.9.05.75.11,1.5.16,2.28,2.04-.57,4.12-1.06,5.73-2.6l.12.11c-.08.34-.17.68-.26,1.04,2.45.35,4.06-1.15,5.72-2.52.04.02.08.02.09.04.45.82.49.88,1.34.46.89-.44,1.72-1.01,2.59-1.53.52.69.86.76,1.75.25.32-.19.62-.41.9-.64.27-.22.52-.47.77-.7q.6.97,1.62.28c.28-.19.54-.4.81-.6s.54-.39.85-.61l.5.46c-.97.47-2.08.62-2.76,1.57l.6.89c-.38.15-.76.27-1.12.44-.89.41-.84.29-.54,1.28.07.18.16.35.26.52-.42.17-.81.37-1.22.5-1,.31-1.35.39-.64,1.74.03.06.06.12.12.22-1.37.41-2.51,1.35-3.17,2.61l1.05.59c-1.07.7-1.91,1.72-2.38,2.91-.17.39-.3.79-.38,1.2-.08.33.02.54.42.33l3.59-1.91.64.95c1.16-.99,2.51-1.65,3.1-3.18l1.03,1.37c1.35-.93,2.16-2.45,2.19-4.09.39.03.79.03,1.19.08.53.08.84-.14.85-.65.01-.8-.04-1.59-.07-2.45l1.06.39c.49-1.05.08-2.11,0-3.21l.82.2v-3.79c1.27.6,2.57,1.2,3.86,1.82.65.31,1.28.68,1.94.98.29.08.46.38.39.68-.26,2.81-.51,5.62-.72,8.43-.09,1.21-.12,2.43-.16,3.65-.07,2.68-.13,5.36-.19,8.04.02.07.04.14.08.21.09-.12.2-.2.21-.29.1-.44.17-.9.21-1.35.11-3.21.16-6.42.3-9.62.1-2.41.32-4.82.46-7.23.04-.7,0-1.41,0-2.26l1.14.42s.02-.04.03-.06l-.49-.3s.02-.05.03-.07l.3.08c.01-.25.03-.48.05-.83-.19.16-.4.3-.61.43-.14.04-.29.02-.42-.05-.57-.27-1.12-.56-1.67-.86-.07-.04-.08-.2-.16-.42l2.05.77c.05-.48.08-.86.14-1.22.38-2.29.77-4.58,1.16-6.88.04-.23.08-.46.14-.8.16.36.27.6.37.81-.07.08-.2.16-.19.22.05.2.11.4.19.59l-.28-.05c-.04.12-.08.25-.14.4l.4.21c.13-.11.22-.18.31-.25.05-.04.09-.09.12-.13.11-.17.25-.31.42-.41-.37,1.75-.57,3.53-.59,5.32.46-2.19.93-4.39,1.4-6.65l1.12.37c-.96,1.07-1.38,2.52-1.13,3.93.2.93-.23,1.88-1.05,2.35-.66.4-.62,1.01-.55,1.66.1-.4.19-.8.3-1.25.43.27.48.47.22.8-.65.74-1.06,1.65-1.2,2.63l-.88-.42s-.03.04-.05.06l.92.62-.13.17-.7-.37s-.03.05-.05.08l.76.56-.04.11-.56-.07.54.38-.05.12-.49-.18-.04.04.53.42-.07.12-.51-.25-.05.05.61.5-.06.12-.62-.16.63.52-.11.15-.44-.2s-.01.04-.02.07c.64.28.49.82.45,1.32-.05.74-.1,1.47-.15,2.3l-.74-.3-.05.08.7.37v8.89l-.72-.19-.03.1.82.29c.06,1.66.11,3.38.17,5.13.05,0,.1,0,.15,0,.03,0,.07-.01.1-.02h0c.26-1.04.32-2.13.16-3.19-.37-5.85-.23-11.71.43-17.53.03-.26.12-.51.26-.73.71-1.06,1.45-2.11,2.09-3.03l2.38.4c-.04.12-.08.23-.12.35-.37.98-.39,2.06-.06,3.06.25.71.54,1.41.82,2.12.09.23.22.37.53.27.86-.29,1.74-.55,2.65-.83-.02,3.97,2.03,6.97,4.83,9.62.25-3.12.98-6.19.37-9.39.73.35,1.39.64,2.03.96.27.14.47.09.53-.19.1-.44.16-.9.16-1.36-.06-1.49-.57-2.93-1.48-4.11-.18-.24-.32-.5-.48-.75l.11-.09c.5.31.97.8,1.49.86.6-.04,1.19-.19,1.74-.45.6,1.1,1.06,1.39,1.5.95.75.39,1.47.8,2.22,1.14.41.16.84.26,1.27.3.32.04.51-.13.48-.51-.06-1.38-.73-2.65-1.83-3.49-.13-.1-.27-.2-.41-.31.1-.11.18-.19.24-.27.58-.67.57-.74-.12-1.17-.8-.5-1.61-.98-2.47-1.5.04-.18.14-.5.2-.82.02-.15,0-.42-.09-.46-.47-.23-.44-.63-.49-1.05-.07-.43-.18-.86-.33-1.27-.07-.22-.17-.44-.22-.58.7-.08,1.38-.29,2-.62.99-.83,2.17-.88,3.29-1.24.67-.23,1.41-.14,2,.25l.46.26c1.36.79,2.83,1.35,4.38,1.66.05,0,.1,0,.15-.03.03-.14.06-.27.1-.46.35.22.66.42.96.62.56.4,1.14.77,1.73,1.11.38.21.82.31,1.25.28.31-.05.63.04.86.26.63.47,1.28.91,1.96,1.31.25.15.58.17.59-.31.23.13.47.24.71.34,1.05.31,2.08.67,3.15.88.84.1,1.66.35,2.41.73.11.06.22.1.35.12.43.09.64-.13.43-.52-.21-.41-.48-.77-.82-1.08-.58-.46-1.07-1.01-1.45-1.64-.47-.59-1.02-1.11-1.65-1.53-.1-.26-.12-.6-.3-.75-.49-.38-1.01-.71-1.55-.99-.48-.22-.96-.42-1.46-.59.01-.15.01-.27.03-.39.12-.79.12-.81-.61-1.17-.29-.14-.58-.26-.88-.36-.21-.08-.48-.08-.64-.22-.78-.66-1.53-1.36-2.26-2.02l2.01-.48c-2.12-2.09-4.18-3.93-6.97-4.88l2.92-1.05c-1.69-1.8-4.1-2.74-6.56-2.58.66-.57,1.14-1.34,2.13-1.31-.48-1.02-3.3-1.7-6.58-1.69.61-.36,1.25-.66,1.88-.96.11-.06.22-.13.32-.2-.09-.1-.16-.24-.27-.28-.8-.31-1.62-.56-2.46-.75-.76-.07-1.52-.08-2.28-.03.02-.02.04-.03.06-.04l.58-.46c-.2-.21-.4-.42-.62-.61-.11-.09-.24-.15-.39-.17-1.04-.12-2.09-.23-3.13-.33-.17.01-.35,0-.53-.01-.54-.16-1.07-.42-1.62-.53-1.39-.34-2.84-.38-4.25-.12-1.08.23-2.07.79-2.82,1.6-.85-.41-.83-1.1-.77-1.83.22-2.95.43-5.91.65-8.86,0-.04.05-.08.08-.12.13.09.26.18.42.29.13-.2.24-.41.33-.64.12-.51.47-.63.93-.66,1.18-.08,2.35-.18,3.52-.29.37-.06.73-.15,1.08-.26l-.66-.6c.56-.24,1.18-.27,1.75-.07.68.28,1.39.5,2.12.65.56.19,1.17.15,1.7-.11.15-.95-.49-1.46-1.12-1.95.62-.21,1.21-.38,1.77-.61.26-.14.58-.14.83.01.53.36,1.19.47,1.81.3v-.56c1.59.97,3.32.97,5.11,1.1-.09-.31-.15-.5-.21-.72,1.19.39,5.44.69,5.98.42-.06-.13-.12-.26-.19-.42,1.44.21,2.83.44,4.22.62,1.17.22,2.36.19,3.52-.06.48-.13.55-.34.16-.63-.47-.37-.98-.68-1.53-.92-.82-.31-1.67-.56-2.53-.75-.85-.19-1.72-.29-2.71-.45l1.39-.71c-1.32-.72-2.82-1.02-4.32-.87l.95-.45c-1.5-1.17-3.08-.71-4.65-.4-.04-.05-.08-.11-.12-.16l1.02-.71-.57-.23c.53-.27,1.18-.42,1.49-.82.49-.66,1.23-.67,1.83-1,.34-.18.68-.37,1.04-.52.49-.21,1-.4,1.51-.56.67-.2,1.37-.33,2.04-.53.31-.07.6-.22.83-.43.25-.25.57-.4.92-.42,1.4-.17,2.76-.64,3.97-1.36,1.03-.66,2.15-1.17,3.33-1.51.03-.01.07-.02.1-.04,1.75-.78,3.54-1.45,5.37-2,.19-.05.37-.13.54-.23.1-.06.19-.14.28-.22.14-.12.25-.32.41-.37.96-.3,1.92-.56,2.89-.83v-.23c-.35-.15-.72-.24-1.09-.28M20.49,27.42c.17.01.34.02.51.05.47.06.93.15,1.38.27-.64-.02-1.33.24-1.9-.32m15.08,1.13l1.87.47c-1.23.1-1.77-.03-1.87-.47m65.84-11.93l-.1.47-.35-.11-.24.32-.35-.48,1.05-.2m-1.63.35c.08.2.14.37.21.54l-.14.17-.62-.44.55-.26m-35.14.31l.66,1.13.15-.03c.09-.95.43-1.86.99-2.64l.71,1.78c.76-.98,1.14-2.18,2.31-2.67l.53,1.35c.84-1.33,1.63-2.42,3.18-2.72.03.47.06.9.09,1.48,1.86-1.45,3.69-2.82,6.13-3.07-.15.54-.47,1.02-.92,1.36-.32.33-.6.71-.93,1.03-.44.45-.91.87-1.41,1.26-.52.34-1.05.66-1.61.95l.64.37c-.8.81-1.93.94-2.94,1.56l.82.08c-.72,1.37-2.24.92-3.25,1.6l1.24-.2c-.61.8-1.49,1.35-2.48,1.54l.05.12h.47q-.24.5-2.22,1.3l.41.23c-.46.43-.87.85-1.32,1.22-.42.25-.77.6-1,1.03-.45.84-.98,1.63-1.57,2.37-.47.66-.95,1.31-1.43,1.96-.1.09-.21.17-.32.23.08-1.76-.45-3.43.07-5.13l.43.35c.05-.93.09-1.75.14-2.62l.44.15c-.03-1.12.13-2.24.49-3.3.16.29.27.49.43.78.33-.99.24-2.06,1.02-2.84m-1.26,13.36l-.28.35c.02-.24.03-.43.05-.62h-.07s-.24.65-.24.65h-.08c.01-.19.03-.37.04-.58l-.47-.1,1.36-.37-.33.67h0m-2.14-2.16c-.59-1.04-.75-2.26-.47-3.41l-.19.36c-.03-.05-.07-.09-.07-.13.03-.95.1-1.89.23-2.84.1-.58-.18-1.03-.24-1.58l-.42.12c.03-.2.09-.38.18-.56.17-.16.37-.29.58-.4.15-.74.51-1.42,1.03-1.96.12.75-.06,1.52-.49,2.15.63.89-.24,1.49-.43,2.31.22-.21.38-.35.53-.5l.1.05c-.16.57-.32,1.14-.48,1.71l.09.03.28-.46c.23.29.25.7.04,1.01-.24.52-.37,1.09-.38,1.67-.03.77.07,1.54.12,2.41m-8.66-14.17l-.28-.07.2-.52.58.62-.37.63c-.57-.12-.22-.43-.13-.66m2.19,6.89c-.64-.64.03-1.07.17-1.63-.1.13-.22.26-.31.4s-.18.3-.3.5c-.49-.67.35-.94.38-1.54l-.73.96c-.45-.66.38-.89.38-1.44l-.67.86-.16-.06.21-.78-.28.34c-.34,0-.1-.69.33-.99l.22-.15c-.77-.54-.59-1.11-.11-1.73-.1.11-.22.22-.31.34s-.18.26-.29.41c-.44-.64-.66-1.23.11-1.82l-.16-.04-.49.63-.13-.03c.03-.15.06-.3.08-.45l.82-.59c-.07-.11-.13-.23-.19-.35-.28-.64-.58-1.28-.82-1.93-.18-.5.16-.82.58-1.07l-.29.56.04.05.35-.33.12.05c-.1.26-.2.52-.3.78l.05.03.38-.53q.24.16-.05.98l.65-.91c-.72-.92-1.01-2.11-.8-3.26.03-.24.35-.45.56-.7l.33.41-.61.47c.84-.22,1.04-.52,1.07-1.19.04-.75.12-1.51.22-2.26,0-.39.2-.76.54-.96.13-.07.24-.21-.01-.3l.51-.65c1.05,1.14,1.65,2.63,1.7,4.18l.94-1.08c.37.78.52,1.65.44,2.51-.01.28-.08.63.28.68l1.29-1.01c.34,1,.41,2.08.19,3.12-.17.64.07,1.32.62,1.71l-.39-.74.07-.06.41.36.05-.05-.24-.36.93-1.3c.46.88.5,1.92.1,2.82l-.21-.19c-.02.26-.04.56-.07.94l-.37-.18c.09.36.28.46.59.32.49-.23.97-.47,1.46-.7.22,1.49-.14,3.02-1.01,4.25l.16.09.91-.27-.12.71-.58-.18c-.56,1.5-.6,3.06-1.31,4.46.01.01-.12-.05-.12-.1.06-.7.13-1.4.22-2.1,0-.06.11-.11.2-.19-.27-.34-.3-.82-.07-1.19.3-.55.32-1.22.05-1.79-1.04.44-.91,1.77-1.86,2.31l-.36-.47-.06.03c.12.24.24.47.42.83l-.62-.23c-.02-.24-.01-.48.03-.71.13-.45.31-.89.49-1.32s.37-.87.61-1.44c.07.19.11.32.16.45l.13-.11c-.08-.17-.16-.35-.24-.52l.09-.07.4.48.09-.05-.56-.93c-.73,1.46-1.02,3.12-2.15,4.42,0-.11,0-.21,0-.32.1-.59.43-1.18,0-1.78-.04-.06.05-.2.06-.3.12-.98.25-1.95.33-2.93-.03-.33.09-.65.33-.87.2-.21.36-.46.48-.72l.47.62.08-.05-.47-.87.13-.08.36.31-.35-.67c-.31.48-.61.95-.95,1.48-.08-.23-.14-.39-.26-.71-.14.18-.25.38-.35.58-.25.95-.48,1.91-.71,2.87-.03.13-.07.27-.13.53-.98-1.75-1.4-3.68-2.63-5.01.47,1.06.99,2.24,1.52,3.43.1.3.24.59.41.86.63.77.76,1.84.33,2.74-1.35-1.18-1.77-3-2.97-4.3.05.09.09.19.14.28l1.38,2.5c.1.26.24.51.42.73.84.72.61,1.61.44,2.56-.36-.62-.7-1.19-1.03-1.76l-.1.05c.22.47.41.96.67,1.41.53.92.38.94-.4,1.59l.43-.78-.4.31-.12-.05c.11-.26.21-.52.32-.79l-.3.18c-.1-.3-.2-.59-.33-.95l-.55.59m4.27.13c.09.23.55.33.15.77l-.57-.79.14-.12.28.14m-.36,1.02l.7.76-.23.17-.64-.8.16-.12m.36-1.03l-.28-.48c.08-.1.17-.2.26-.3h0l.56.95-.54-.16m-.02-.79c.1-.21.22-.33.44-.16.06.28.73.25.31.82l-.75-.66m-19.14-6.29l.81.14c-.04.13-.07.23-.12.37l.52-.26c-.07.19-.1.29-.14.4l.07.05.33-.32c-1.07-1.75-2.59-3.19-2.58-5.41,2.06,1.34,3.25,3.41,4.68,5.39l.57-1.21c.62.69,1.17,1.44,1.63,2.25.42,1.06.73,2.16.92,3.28.07.37-.2.8-.33,1.27-1.01-1.13-2.22-2.08-3.56-2.81-.08.31-.13.55-.18.73-.85-1.25-1.72-2.52-2.63-3.85m9.57,15.54l-1.4-.34c.06-.16.11-.29.16-.43l-.06-.05-.31.43-.13-.06v-.61l-.24.3c-.51-.2-.14-.56-.15-.97l-.29.5h-.14c-.02-.27-.04-.54-.06-.88l-.2.49c-.28-.34-.56-.67-.84-1l-.16.15,1.66,1.96-2.26-.4v-.48l-.38.35-.12-.51-.26.12c-.06-.17-.12-.33-.18-.51l-.22.14c-.06-.22-.13-.44-.19-.67l-.13.31h-.1s.79.76.79.76l-.23.29c-.97-.02-1.92-.27-2.78-.72-.72-.53-1.42-1.1-2.11-1.67-.58-.47-1.13-.97-1.7-1.46l-.08.1,3.47,3.23c-.78-.1-1.53-.25-2.28-.26-1.08-.06-2.09-.57-2.78-1.4-.66-.69-1.3-1.39-1.95-2.09l-.12.09.19-.74-.08-.03-.24.6c-.66-.38.07-.84-.16-1.28-.1.3-.19.56-.3.89l-.41-.34c.43-.99-.18-1.76-.49-2.68,1.82.5,3.44,1.52,4.69,2.94l.12-.12c-.12-.56-.24-1.13-.38-1.78,1.77.8,3.38,1.9,4.78,3.25-.17-.78-.31-1.49-.48-2.25,1.75,1.07,3.28,2.48,4.48,4.14l.16-.9-.08-.02-.24.53c-.14-.59-.26-1.08-.42-1.71,1.72,1.42,3.31,2.99,4.75,4.68l-.09.12m.8-1.09c-.07.33-.11.53-.16.78l.41-.36v.95c-.91-.25-1.03-.58-.25-1.37m-5.56,2.2l-.44.9c-.34-.47-.2-.78.44-.9m6,1.18l.18.03s0,.09,0,.13c-.25.04-.51.06-.76.04-.69-.14-1.36-.35-2.05-.49-.23-.05-.57-.05-.47.39,0,.01.02.03.05.06l.35-.33.08.05c-.07.13-.14.26-.2.39l.05.04.5-.47.1.07-.25.57.58-.52.11.1c-.08.16-.16.32-.26.53.3-.09.36-.67.77-.33.09.1.16.22.21.35.04-.02.17-.1.31-.18l.08.15c-.62.36-1.06,1.04-1.99.78-1.1-.31-2.23-.52-3.34-.78-.13-.03-.26-.06-.39-.09-.01.05-.03.1-.04.15l3.94,1.16c-.72.36-1.44.74-2.18,1.08-.12.06-.33-.06-.5-.11-.87-.3-1.77-.55-2.67-.75l2.73,1.07-.95.48s.03.06.04.09l.64-.18c-.72,1-1.4,1.95-2.09,2.9l.05.06c.33-.37.67-.72.98-1.1.4-.49.78-1,1.16-1.51.43-.56,1.05-.96,1.74-1.13l.9-.49.1.06c-.16.33-.32.65-.48.98-.02.16-.04.32-.08.58-.25-.22-.42-.36-.59-.51l-.07.05.56.67c-.09.22-.2.5-.33.83l-.88-.71c.05.52.85.57.65,1.24l-.85-.54-.07.08c.16.1.3.22.44.35.09.12.17.25.23.39-.14-.02-.27-.06-.4-.1-.14-.09-.3-.14-.46-.15l1,.78c.07-.2.13-.39.2-.56.18-.46.37-.91.57-1.36.27-.63.54-1.26.82-1.88.33-.6.87-1.06,1.51-1.3-.31,1.11.78,1.11,1.16,1.8l-.83-.43s.02.12.03.19l-.47-.05c.37.68.23,1.53-.35,2.05l-1.23-.36c-.1.93-.61,1.78-1.39,2.3l-1.25-.76-.08.12,1.1.74q-.27.23-1.78-.64c-.1.12-.22.25-.32.38-.62.74-1.49,1.22-2.44,1.35-.15.03-.35-.1-.5-.19-.27-.19-.56-.35-.87-.47l1.04.83c-.2-.02-.39-.05-.59-.1-.1-.04-.19-.1-.26-.18-.41-.57-1.2-.7-1.77-.29,0,0-.02.01-.02.02-.19.1-.4.15-.61.14-.58.05-1.17.04-1.74.12-.55.08-1.09.26-1.67.4-.04-.18-.1-.36-.19-.53-.1-.13-.25-.23-.41-.27-.31-.08-.63-.11-.92-.16,0,0,.05.1.1.19l-.05.13-.74-.32s.02-.09.03-.13l4.8-1.14c-.02-.08-.04-.16-.06-.24l-5.77,1.33c.23.21.39.35.61.55h-2.93c.68-.65,1.48-1.15,2.36-1.48.9-.25,1.81-.45,2.73-.61-.16-.21-.34-.42-.53-.6-.33-.28-.23-.48.04-.75.04.13.07.21.09.28l.45-.51.1.05c-.03.15-.06.29-.12.58.22-.33.36-.54.51-.75l.08.04c-.07.21-.13.41-.2.62l.05.03.62-.9.14.08c-.06.24-.12.47-.21.81l.64-.97.15.08-.29.86.08.05.55-.97.11.05c-.07.21-.14.42-.21.63l.06.04.52-.71.15.08-.2.73c.64-.82.62-.9-.65-2.05l.78-.09.1.22.26-.58.18.14-.05.42.57-.66.11.09c-.06.17-.12.34-.18.52.34-.24.36-.86,1.01-.72-.05.12-.1.24-.17.39l.74-.58.09.11-.27.7.09.04c.07-.11.14-.23.2-.34.27-.52.33-.58.67-.26.4.37.83.09,1.25.25-.04-.26-.68-.1-.07-.67l-.32.05-.21.47-.15-.07c.18-.37.03-.81-.34-.99,0,0-.02,0-.02-.01-.46-.29-.28-.87.39-1.24-.08.2-.13.34-.24.61.29-.3.49-.5.69-.71l.12.1c-.07.16-.15.32-.22.47.28-.61.72-.44,1.18-.26.35.13.7.23,1.06.3.37.08.53-.16.64-.46.17-.43.39-.76.97-.46l-.1.42s.09-.03.09-.05c.13-.35.36-.37.67-.24.27.12.55.23.83.33.08.02.18-.03.27-.05-.04-.09-.05-.2-.11-.26-.21-.19-.44-.36-.74-.59,1.02-.14,1.87.1,2.11.58l.31-.41-.32-.28c.08-.05.13-.1.16-.09.43.13.86.28,1.27.46.31.14.51.32.85-.03.16-.16.64,0,.99.1-.73.05-.87.64-1.12,1.11m.77-3.81c.03-.15.06-.3.1-.46l-.41-.05.23-.3c-.31-.12-.51-.31-.13-.76l-.35.16v-.4s-.08,0-.08.02c-.02.27-.06.53-.13.79-.13.31-.28.61-.45.89l-.18-.08c.12-.29.23-.58.35-.87l-.06-.03-.44.65-.14-.06c.13-.37.26-.75.41-1.2l-.3.24-.11-.03c.08-.28.16-.57.25-.89l-.34.24c.08-.35.15-.63.25-1.03l-.23.26c.32-.82-.49-1.2-.75-1.81.14.65.29,1.31.41,1.97.07.36.1.73.1,1.1-.03.2-.09.39-.17.58l-.2-.06c.04-.17.08-.33.13-.58-.14.16-.23.27-.33.38l-.08-.04.19-.55-.06-.04-.32.45c-.39-.25-.77-.35-1,.19l-3.12-2.6-.15.1c.03.16.05.31.08.46s.07.3.12.54c-1.66-1.9-3.84-3.27-6.27-3.93l.05-.27c-.32-.16-.58-.27-.82-.42-.34-.21-.65-.49-1.01-.68-1.58-.81-3.17-1.6-4.77-2.41l.37-.42-2.9-1.52.4-.28c-.91-.5-1.81-.93-2.63-1.46-.66-.46-1.29-.97-1.87-1.52-.16-.21-.28-.45-.37-.7,2.64.51,5.11,1.66,7.2,3.34l.11-.11-.38-.88c1.15.32,2.21.89,3.11,1.68v-1.27c1.37.79,2.61,1.79,3.66,2.98.14.14.3.26.47.36.07-.17.13-.34.17-.51.08-.37.14-.75.22-1.16,1.36.83,2.51,1.96,3.37,3.3l.17-.11v-1.56c1.34.81,2.54,1.83,3.55,3.02.15-.4.26-.72.37-1.03l.16-.05c.53,1.18,1.06,2.37,1.63,3.63.16-.38.28-.67.44-1.07.59,1.22,1.12,2.32,1.65,3.43.1.22.17.47.51.08.29.88.57,1.72.9,2.71l-.57-.31m1,.84c-.19-1.06-.55-2.08-1.06-3.02-.85-1.22-1.37-2.6-2.21-3.81-.08-.14-.16-.28-.22-.43l-.22.16c-.08.17-.15.35-.24.54-1.08-2.15-1.92-4.41-2.49-6.74,1.01.55,2.46,2.44,2.45,3.19l.17-.31c.29.42.57.82.9,1.3.23-.27.43-.52.72-.86.25.42.45.86.61,1.32.17.74.23,1.5.33,2.25.03.19.06.37.1.56l.15.07.61-.81c.55.76.93,1.63,1.1,2.55l.38-.24c.08.21.16.42.27.7l-.46-.19s0,.07,0,.1c.71.25.65.87.69,1.44.01.26,0,.53-.05.79-.07.46-.21.93.47,1.15l-.52.62-.7-.48-.06.08.67.57-.04.08-.79-.38-.04.07.75.48-.17.54c-.5-.27-.89-.72-1.09-1.26m4.17,2.33l-.49-.19c.33.62.26,1.37-.18,1.92h-.17v-2.05l-.14-.03.33-.22-.45-.18c.24-.14.54-.41.66-.35.3.16.76.25.74.83l-.44-.26c.05.2.08.34.13.53m-.48,2.7l-.85-.46v-.21c.7.6.73-.2,1.17-.43.05.23.06.47.04.71-.01.06-.31.07-.51.1l.14.29m-.09-4.11c-.27.15-.64.23-.79.46-.12.19,0,.55.02.77l-1.52-.54c.2-.42.39-.9.64-1.34.2-.35.33-.65-.04-.97-.08-.08-.12-.2-.12-.31.02-.47.07-.93.17-1.39.06.18.14.35.19.54.03.15.06.3.12.45.25.36.41.77.45,1.2,0,.24.32.48.52.69.15.13.32.25.49.35-.07.05-.1.07-.14.09m-1.47,3.51l-1.51.75c-.06-.76.6-.95,1.51-.75m.69,5.35l-.82-.62.43-.33.7.6-.31.36m.57-3.11c.03.37.05.67.07,1l-.5-.05.7.31-.19.24-.42-.04c.69.24.21.67.2,1.02q-.44-.06-.54-.84l-.29.51-.52.23-.08-.1.72-.68-.07-.08-.78.6-.3-1.74-.44.03c-.47-.88-.06-1.84,1.15-2.44l-.29.54c.39,0,.45.15.12.42-.15.1-.28.23-.39.37l.84-.33c0-.2-.02-.43-.04-.72l.97.34s0,.05-.01.08l-.72-.09c.34.14.66.33.96.57.25.34.46.71.62,1.1l-.76-.24m.9-2.69c-.25-.2-.24-.19-.15-.65.07-.39.06-.78.46-1.05.13-.2.16-.45.06-.67-.34-.43-.71-.85-1.1-1.23-.22-.23-.46-.44-.68-.66l.08-.12h.36c-.03-.08-.07-.15-.12-.22-.31-.39-.75-.68-.73-1.31.01-.28-.34-.56-.48-.86-.16-.33-.27-.68-.4-1.03l.17-.08,1.79,2.81.13-.06c-.01-.09,0-.21-.05-.27-.49-.73-.81-1.56-.91-2.43-.1-.59-.12-1.19-.09-1.79,0-.62.04-1.24.06-1.85h.16c.01.14.03.27.04.4-.02.68.15,1.36.49,1.95.19.25.13.71.16,1.08.03.33.15.65.35.91.34.41.45.96.31,1.48-.06.16.08.39.12.58l.23-.05c-.08-.56-.16-1.12-.23-1.69-.03-.26-.29-.55.1-.78.06-.04,0-.3-.02-.45-.1-.83-.21-1.65-.32-2.48l.13-.02c.1.34.21.67.31,1.01l.15-.02c-.1-1.16-.19-2.33-.29-3.49l.22-.03.25,1.93h.23c-.09-2.34.24-4.68.97-6.9.09,1.62-.11,3.25-.6,4.8l.13.03c.1-.25.21-.49.31-.74l.14.04-.75,2.98.1.05c.16-.28.32-.56.48-.84l.11.03c-.2,1.18-.41,2.37-.62,3.6l.31-.47.06.02-.31,1,.08.04.28-.33.15.05-.51,1.87c.08.27.19.45.16.59-.13.54-.34,1.06-.46,1.6-.1.45.22.25.41.22.12-.85.22-1.7.36-2.54.03-.17.18-.31.27-.46.04-.05.06-.11.08-.17-.07-.53.03-1.08.28-1.56.18-.29,0-.75.45-.97.11-.05.07-.36.13-.55.17-.61.36-1.21.54-1.82l.26.07-.45,1.93.45-.6v3.7l-.35-.47-.08.04,1.49,3.13-.25.15c-.55-.7-1.1-1.4-1.64-2.11-.06-.13-.07-.27-.02-.4.17-.59.36-1.17.53-1.76.02-.16.02-.33,0-.49-.27.48-.69.88-.63,1.18.11.58-.44,1.02-.33,1.33.18.5-.21.8-.13,1.36l.51-.79,1.72,2.06c-1.1.41-.47,1.45-.85,2.14-.07-.21-.12-.43-.21-.64-.14-.45-.54-.77-1.01-.82-.19-.03-.38-.07-.57-.12.12-.24.23-.49.36-.72.2-.36.43-.7.61-1.06.04-.09-.03-.24-.18-.37-.03.11-.07.21-.1.32-.02.16-.07.31-.13.45-.31.47-.64.93-.94,1.36,0-.1.01-.27.02-.47-.67.29-.72.26-.74-.42,0-.16-.05-.31-.15-.43-.03.17-.06.35-.1.54-.24-.54-.48-1.07-.72-1.59l-.11.05.29.9-.1.06-.6-.66-.12.09c.63.67.76,1.71,1.62,2.16l-.74,2.51m5.04.36l-.81.33s-.03.15-.07.35l-.33-.28c0,.06,0,.1,0,.14-.02.14-.03.28-.05.42-.08-.01-.19,0-.22-.04-.1-.1-.17-.24-.2-.38,0-.41.04-.81.12-1.21.07-.23.21-.44.4-.59.13-.11.36-.09.49-.11l.67,1.38m-5.2,14.06l-.27-.62-.1.19-.13.06c-.09-.27-.18-.53-.3-.87.87.3,1.01.5.82,1.25m-2.8-2.2c.03.23.06.45.08.68,0,.09-.02.19-.04.28-.1-.05-.15-.06-.15-.08-.03-.28-.05-.55-.06-.83,0-.01.11-.03.17-.05m-10.6,3.86l.64.76-.72-.69.08-.07m1.93,2.38l-1.76-2.49.13-.13,1.22,1.28.08-.06-1.06-1.27.13-.14c.59.28.82,1,1.44,1.27l-1.07-1.31.1-.12c.58.05.68.77,1.22.94l-.77-.94c.5-.21.67.19.77.43.28.67.8.68,1.39.62-.67-.04-1.24-.5-1.42-1.15l.62.47c-.06-.14-.1-.24-.17-.42l2,.41.12-.15-1.16-2.28.12-.07c.31.49.62.99.93,1.48l.12-.07-.83-1.43c.65.1.56.62.77.91.21.34.44.65.71.94-.28-.56-.57-1.11-.86-1.68.79-.08,1.06.12,1.31.92l-.11.09-.64-.78-.1.05.87,1.58.14-.07-.29-.58.12-.1.77.79.05-.02c-.27-.49-.55-.98-.88-1.57.97.27.78,1.36,1.51,1.76l-.69-1.21.08-.1.8.44c.2-.74-.47-1.07-.69-1.67,1.34.07,2.65.41,3.85.99.04-.58.09-1.16.13-1.74h.17v1.35h.13c.04-.4.08-.81.13-1.36.49.58.08,1.14.26,1.72.07-.53.12-.96.18-1.39h.12s0,1.63,0,1.63h.12c.02-.21.04-.42.07-.65.56.12.43.56.49.92.05-.14.1-.28.15-.42l.12-.03c.08.24.15.48.22.71l.13-.28c.42.16.38.46.3.77-1.61-.79-3.33-1.33-5.1-1.62.44.06.87.2,1.26.41.32.26.44.76.75,1.11l-.46-.97s.09-.06.14-.09l.62,1.01.07-.03c-.1-.24-.21-.49-.38-.9l3.3,1.43c-.96.69-2.17.92-3.32.62-.84-.21-1.66-.48-2.46-.8-.25-.1-.42-.41-.63-.62.07.38.34.7.7.84.99.38,1.97.79,2.9,1.17-.89.78-2.12,1.03-3.25.67-.74-.23-1.5-.38-2.27-.44l3.42.93c-1.13,1.01-2.61,1.54-4.12,1.45-1.39-.05-2.78,0-4.16,0-.17-.02-.33-.11-.43-.24-.17-.28-.33-.58-.46-.88l2.33.13m12.33-.89c-.04.05-.08.1-.12.15l-.96-.77-.04.05.83.88-.11.12-.92-.81-.07.05.82.92-.13.12-.77-.62-.07.05.68.74c-.05.05-.09.11-.14.16l-.74-.59-.06.04.65.74-.08.09-.62-.45-.05.05c.18.19.36.38.54.58-.62-.15-.79-.34-.63-.91.15-.54.36-1.06.61-1.56.29-.6.52-.6.95-.12.06.05.12.1.19.14l.44.65-.09.1-.7-.62s-.04.03-.06.04l.62.77Zm-.59,2.49l-.7.67c-.1-.74.07-.92.7-.67m-.92.03l-.59-.15.28.33c-.44.22-.78.31-1.16-.12-.34-.36-.75-.66-1.2-.87l1.23,1.11-.07.17-1.47-.94c.19.45.92.48.72,1.19l-.65-.54s-.03.03-.05.05c.27.31.55.63.82.94l-.13.12-.83-.56c.15.51.96.49.77,1.22-.33-.22-.63-.41-.92-.62-.07-.07-.1-.17-.08-.27.11-.84.2-1.68.36-2.51.12-.75.64-1.37,1.36-1.62.47-.18.94-.39,1.38-.58-.26,1.1-.52,2.2-.78,3.29l.18.05.28-.95.62.71-.31.13.24.43m-2.67,2.91q-.92-.59-.63-1.48c.27.33.78.41.88.87l-.14.12c-.21-.14-.42-.28-.65-.44-.04.43.78.36.54.93m3.96-6.37l-.29-.5.1-.1.83.91-.07.09-.57-.39m-.55-1.34h0l.23-.3c.25.17.48.33.74.51-.43.3-.68-.05-.97-.21m-14.72,3.7c.03-.11.05-.22.08-.33.1.04.19.1.26.18.19.24.35.49.53.74l-.48-.92.07-.14c.13.06.3.09.39.19.12.17.22.36.3.55.18.33-.02.35-.27.32-.58.35-.6-.26-.85-.49.07.21.14.42.22.64q-.33.06-.73-.91l.49.18m-.41,2.95c.21-.04.41-.11.62-.16-.11-.18-.24-.36-.38-.52-.22-.22-.48-.4-.72-.6-.23-.26-.46-.52-.68-.79.08-.09.17-.17.26-.25l.68-.66.6,1.09c2.51-.86,5.06-.39,7.3-.31-.56.64-1.27,1.45-2,2.25-.05.06-.19.04-.29.06-.74.13-1.49.21-2.21.39-.83.2-1.65.48-2.47.74-.42.18-.9,0-1.08-.43,0,0,0,0,0,0-.07-.15-.2-.27-.35-.34l.51.86-.14.1-.74-1.09-.09.04.52.97-.19.11-.72-1.21c.61-.1,1.1-.17,1.59-.26m-1.62.43l.48.98c-.45.2-.5-.19-.62-.41-.06-.18-.09-.36-.09-.55l.22-.02m-1.15.67l.47,1.13c-.42-.12-.65-.56-.53-.98.02-.05.04-.1.06-.15m.74,2.45l.44.68c-.55.25-.49-.18-.58-.38-.03-.06.09-.2.15-.31m-.37.16c.05.09.09.19.11.29,0,.18,0,.36-.02.54-.1-.06-.26-.11-.28-.19-.05-.22-.31-.54.2-.65m-.36,1.07h-.15s-.43-.64-.43-.64l.49-.19c.03.29.06.56.08.83m-2.41,5.39c-.55-.73.06-1.13.42-1.63l.43.56.08-.05c-.13-.21-.25-.42-.4-.67l.87-.79.38.7.1-.05c-.08-.15-.15-.3-.2-.46,0-.12.02-.23.07-.34.09.04.22.06.27.14.07.12.12.25.16.38l.31-.12c-.77-.5-.14-.63.18-.95-.89-.45-1.52-1.06-1.33-2.14.22.53.44,1.06.66,1.59l.13-.05c-.15-.39-.28-.78-.45-1.16-.19-.32-.13-.72.15-.96h0c.12.75.38,1.46.75,2.12.09.17.22.32.39.42-.19-.41-.39-.81-.55-1.22-.03-.16-.03-.33,0-.49.11.11.22.22.32.35.05.08.1.17.14.26.19-.29-.45-.71.21-.9.12.22.25.44.37.66l.08-.03-.26-.74c.56-.21.45.51.82.56-.11-.26-.21-.49-.31-.72.04-.04.08-.08.12-.12l.69.62-.36-.63s.06-.09.1-.13l.63.47.04-.04-.32-.42.09-.11.31.22c.31-.53.94-.38,1.36-.73-.25,0-.49.04-.73.11-.33.15-.74-.05-1.03.25-.02.02-.22-.14-.33-.21-.03.1-.08.23-.12.36-.08-.05-.22-.1-.22-.15,0-.26.02-.51.05-.76-.92-.25-1.11-1.29-1.67-2.01.1-.06.2-.12.31-.19l.89,1.67c-.06-.68-.64-1.17-.71-1.85l.16-.07.96,1.74.1-.05-.25-.6c1.24-.26,2.49-.49,3.72-.77,1.25-.28,2.49-.61,3.67-.9-.08,1.12-.18,2.38-.28,3.65l.1.02c.09-.47.19-.93.26-1.4.07-.49.07-.99.15-1.47.25-1.51.82-2.24,2.57-3.37-.11.42-.21.79-.32,1.2l-.49-.28c.15.24.3.46.44.69l-.26.06c.08.18.16.37.25.56l-.13.07-.46-.35-.05.06.6.69-.13.11-.71-.53-.07.06c.12.12.22.29.37.34.52.2.49.6.45,1.03-.06.69-.11,1.38-.16,2.08h.15c.08-.8.17-1.61.22-2.42,0-1.24.29-2.46.83-3.57.41-.74,1.17-.99,1.83-1.39-.14,1.46-.26,2.86-.44,4.24-.05.25.06.51.27.65.19.16.36.34.53.51l-.13.16-1.01-.73-.07.07.96.85-.07.11c-.18-.09-.36-.17-.53-.28s-.33-.24-.49-.36l-.08.1.64.55c-.9-.03-1.12-.91-1.92-1.16l.72.67c-.03.17-.06.37-.11.61l-.44-.3-.04.05.6.69-.13.12-.49-.35-.04.03.63.77-.13.11-.52-.23c.24.24.41.41.57.57l-.11.12-.67-.4c.04.43.89.38.53,1.02l-.75-.51c-.02.46.78.36.62,1.04l-1.15-.97-.03.03,1.04,1.1-.09.13-1.25-.94-.06.07,1.26,1.14-.07.12-1.42-.84s-.03.03-.04.04l.68.62-.07.1-1.1-.83-.39.56-.28-.14.32.49s-.05.07-.08.1l-.58-.31-.04.04.57.54-.1.15-.66-.3-.05.05.61.45c-.05.12-.11.25-.19.41l-.7-.44c0,.39.86.35.38.97l-.71-.59-.07.06.65.73-.1.09-.92-.78-.08.07.85.9s-.08.09-.12.14c-.22-.18-.44-.35-.64-.55-.18-.23-.41-.42-.66-.58l1.08,1.31c-.58-.11-.87-.6-1.33-.9l.97,1.15c-.64-.08-.87-.64-1.27-1.15l-.38,1.69-.41-.21.3.55c-.62-.14-.68-.28-.6-.78.11-.68.19-1.36.22-2.04.04-.87,0-1.74,0-2.7l-1.48,1.62.09.09.91-1.03.16.1c.07,1.62.41,3.25-.39,4.85l.57.6-.12.15-.95-.63-.05.03.85.79q-.29.12-1.29-.65l1.02,1.05-.1.14-1.01-.74-.06.08.97.86-.15.17c-.29-.23-.56-.48-.8-.76-.23-.35-.43-.72-.6-1.1-.23.3-.4.52-.58.76l-.55-.42-.08.07.61.46-.12.15-.61-.24.47.43s-.03.08-.04.11l-.73-.27-.03.05.58.39q-.16.21-1.31-.26l.98.71c-.55.55-.76-.27-1.24-.22l.74.57q-.18.19-1.04-.13l.56.49-.09.14-1.35-.92-.06.06,1.11.93q-.17.12-1.42-.59c.15.14.3.3.47.43.19.13.36.29.51.46-.59.11-.86-.55-1.48-.64l1,.79q-.28.21-1.16-.2l.27.25.26.23s-.04.08-.07.12l-.92-.45s-.03.04-.04.07l.51.38s-.01.08-.02.12l-.73-.08s.04.1.11.28l-.63-.18c.16-.29.28-.53.41-.76l-.11-.08c-.24.28-.49.56-.74.86-.12-.76.03-1.19.36-1.23-.03-.2-.07-.41-.13-.75l.38.29c-.03-.28-.07-.53-.1-.78l.15-.04c.11.15.22.29.38.52,0-.46-.59-.82,0-1.19l.34.47m8.89-2.11s-.01,0,0,0m-10.58,3.36c-.12.33-.16.68-.27,1.15l-1.49-.82c.01-.06.03-.11.04-.17l.67-.24-1.75-2.02.69-.04-1.75-3.42c1.61.14,2.46,1.34,3.6,2.25.04-.35.08-.6.13-1.01.31.52.94.64.83,1.24l.33.07c0,.1-.03.2-.07.3-.14.16-.26.35-.34.55l.51-.65.11.11c-.26.48-.52.95-.79,1.46l-.34-.28c.38.46.08.99-.11,1.51m7.14,8.25l-.42-.78c.04.27.05.39.07.51l-.09.03-.28-.57c-.03.1-.06.16-.07.19-.17-.53-.35-1.09-.53-1.63.36-.03.43.04.51.6.07.51.22.61.71.36.07.46.13.85.19,1.24l-.09.05m-.21-2.03c.7.58.47,1.55.87,2.24q-.36-.07-.87-2.24m.94,1.79l-.52-1.54.18-.06.44,1.55-.11.05m.47.09s-.08.05-.12.07c-.16-.49-.32-.98-.49-1.5.64.17.64.17.76,1.22-.1-.28-.21-.55-.32-.83l-.08.02c.08.34.16.68.24,1.02m-.47-3.93v1.92l-1.02-1.08-.08.06.89,1.09-2.6-.55c.97.35.68,1.28.9,1.98l-.93-.66.08-.12.54.31c-.1-.38-.1-.77-.28-.93s-.57-.09-.92-.12c0,.16.01.28.02.39l-.63-.34.45-.2c.02-.05.03-.1.05-.15l-2.83-1.44.75-.87-2.07-.92c2.36-.62,4.62-1.33,6.24-3.29l.14.15-1.19,1.32v.04c.23-.17.46-.32.66-.5s.37-.41.56-.61l.15.12-1,1.05.07.07.92-.81.12.04-.52.95.63-.59c.2.59-.36.8-.42,1.26.17-.19.34-.38.62-.69.03.62-.38.87-.52,1.28l.59-.55.12.08-.62,1.01.61-.51.09.08-.65.75.07.07.59-.57c.03.16.05.28.1.57l.85-1.07c.4.5-.15.71-.29,1.08l.31.53.12-.08c-.1.38-.19.75-.28,1.08h.57l-.48.56.08.1.59-.47.06.03-.44.78.07.1.4-.38.08.04-.42.77c.04.1.09.23.17.43l.38.02c-.03.15-.06.31-.11.56.13-.15.2-.24.25-.31.03.34.05.68.08,1.02-1.12-.97-1.74-2.4-1.66-3.88m2.1,8.79c.01.28.03.52.04.68l-.42.4c.02.11.05.32.08.52.03.39.72.23.58.91-.31-.23-.83-.42-.9-.71-.24-.67.02-1.42.62-1.8m-.47,3.06l.84.11q-.85-.4-.88-.85c.97.2,1.04.29,1.07,1.4l-.45-.03-.58-.63m-13.69-12.6l-1.1.85h0s-.29.06-.29.06c.21-.57.77-.94,1.38-.91m-1.1.85c.38-.2.76-.41,1.15-.6.15-.07.32-.07.47,0l-1.88,1.13-.08-.06c.11-.16.23-.32.34-.47m-4.74-.99l-.92.69c-.09-.5.31-.81.92-.69m16.29,7.3c-.31.01-.62-.06-.89-.21-.79-.45-1.54-.95-2.36-1.37l1.86,1.48c-2.2.56-4.54-.08-6.14-1.69-.45-.43-.92-.85-1.38-1.27-.03.04-.07.07-.1.11.58.54,1.14,1.11,1.75,1.61s1.29.95,1.99,1.46c-.58.03-1.13.07-1.68.09-1.06.04-2.12.08-3.17.08-.23-.02-.45-.13-.61-.3-1.05-1.09-2.27-2-3.6-2.71l2.47,1.9-.23.36c.4-.19.86.11,1.22.8-.97,0-1.9-.06-2.82.02-.81.04-1.59-.26-2.18-.81-1-.77-2.1-1.41-3.15-2.1-.06-.03-.13-.04-.2-.02,1.43.75,2.73,1.73,3.84,2.9l-.93.08v.12l1.36.06-2.39,2.22.08.1c.23-.17.47-.33.69-.52.35-.3.68-.61,1.03-.91.65-.63,1.54-.97,2.45-.93.54.04,1.08,0,1.68,0-1.28,1.67-2.25,3.5-4.2,4.4,1.06-.41,2-1.1,2.71-1.99.48-.61.94-1.23,1.42-1.85.29-.41.78-.62,1.28-.57.84.05,1.69.01,2.58.01l-1.87,2.42.06.07c.11-.09.21-.18.3-.28.28-.34.54-.69.81-1.04.49-.82,1.4-1.3,2.36-1.24.51.04,1.04,0,1.51,0l-1.65,1.72.13.17c1.05-1.48,2.81-2.28,4.61-2.11l-1.46,1.36.11.15c.73-.79,1.67-1.35,2.71-1.62.02.37.03.67.05,1l-.61-.55.28,1.26h-.1s-.54-1-.54-1l-.09.03c.1.31.21.61.3.92,0,.11,0,.21-.04.31-.09-.06-.23-.09-.27-.17-.14-.28-.25-.58-.38-.87-.25.48.46.88.23,1.35l-.18.04c-.16-.33-.32-.67-.47-1.01l-.08.03c.13.4.26.8.39,1.19l-.17.05c-.15-.34-.3-.68-.45-1.02l-.09.02.35,1.17-.11.06c-.15-.27-.29-.53-.44-.8l-.07.03c.09.24.2.48.28.74,0,.1,0,.2-.04.3-.08-.04-.2-.07-.24-.14-.19-.27-.35-.56-.55-.89-.85.6-1.26,1.66-2.38,1.94l-.53-.79-.08.04.42.82c-.59-.09-.76-.45-.56-1.13q-.51,0-1.3-1.03l.79,1.28-.27.18-.71-1.04-.08.04.65,1.23-.18.1-.76-1.01-.07.05.69,1.1q-.34.3-1.22-.85c.25.4.51.8.77,1.22q-.19.2-1.14-1l.83,1.33c-.12.03-.23.08-.35.13q-.76.43-1.34-.25l.44.79-.1.08c-.2-.2-.38-.41-.53-.64-.2-.38-.41-.36-.7-.12-.37.3-.75.58-1.15.89l-.62-.76-.09.06.58.83q-.34.15-1.14-.87l.81,1.3c-.61-.1-.75-.59-1.11-.86.23.33.46.67.71,1.04l-.75.42-.6-.71-.06.04.46.73q-.28.16-1.2-.93l.67,1.15c-.56-.06-.63-.61-.99-.91l.53,1.04-.12.09c-.22-.31-.44-.63-.67-.94l-.07.03c.14.29.28.57.43.86l-.16.08-.61-1.3-1.31.79-.46-.42.3.55c-.35.07-.36.07-.72-.61l-1.38.75c-.15-.26-.32-.55-.48-.84.09.6.41,1.15.89,1.52-.1-.16-.2-.32-.29-.47l.08-.14.55.21-.02-.44.62.4s-.02.1-.04.15l-.46.13-.42.21c-.26.3-.46.22-.65-.09-.2-.36-.45-.68-.75-.96l.82,1.4c-.77-.2-.79-.91-1.23-1.26l.65,1.28-.09.09c-.13-.15-.28-.3-.4-.47-.12-.2-.27-.38-.44-.53l.6,1.11-.48-.18-.04.27-.31-.22s-.03.04-.03.07c0,.08-.01.17-.02.25-.06-.07-.15-.13-.16-.21-.05-.6-.08-1.19-.12-1.79,0-.07,0-.14-.02-.26-.94.4-.93-.6-1.53-1l.66,1.08c-.37.23-.37.23-.7-.22-.17-.27-.39-.51-.63-.72l.74,1.16c-.24.22-.43.2-.61-.07-.29-.46-.64-.88-1.03-1.26l1.02,1.54q-.39.15-1.4-.93c.28.37.55.74.83,1.1-.39.19-.39.19-.66-.18-.15-.24-.35-.46-.58-.63.2.31.4.62.64,1.01-.72.05-.82-.62-1.27-.87.2.29.4.59.6.89l-1.38.16c.16-.53.34-1.12.56-1.85-.62.2-1.12.53-1.55.45-.4-.07-.72-.56-1.17-.93.29.38.52.69.75,1-.98-.07-1.14-1.05-1.83-1.46.36.49.73.97,1.09,1.46-.51.12-.51.12-.82-.27-.19-.26-.43-.48-.7-.65l.65.85c-.66.13-.81-.05-1.12-1.37-.98.28-1.98.67-2.68-.53l.36.6s-.03.07-.05.1c-.15-.05-.29-.12-.42-.22-.11-.15-.21-.32-.28-.5l-.2.19.34.4h-1.04c.15-.41.29-.78.48-1.29-1.36.69-2.56.26-3.82-.11.36-.58-.05-.74-.48-.86-.64-.18-1.29-.33-1.93-.49l-.07-.19c.38-.28.78-.53,1.19-.76.45-.19.9-.36,1.37-.51-.11-.19-.2-.34-.34-.57.37-.08.69-.17,1.03-.22.3-.05.6-.07.89-.1.75-.09.82-.18.73-.93l4.35-.53c.1-.53-.24-1.22.53-1.65-.1.34-.18.59-.29.96.39-.31.24-.98.9-.93-.13.32-.25.61-.4.97.48-.25.33-1.05,1.07-.94l-.41.99c.49-.21.23-1.15,1.05-.88-.08.27-.14.51-.24.85.37-.27.23-1.02.92-.69-.05.23-.1.45-.17.74l.58-.7.27.44.25-.38.12.04.07.5.39-.46.36.45c-.05-.61-.06-1.12-.14-1.62-.11-.57.25-1.13.82-1.26l-.5.83c.51-.24.5-.9,1.12-.87l-.46.72.08.05.76-.83.11.1-.55.71s.04.04.06.06l.85-.87.1.1-.53.93.12.08c.27-.41.41-.99,1.17-.9l-.67.93c.54-.08.51-.95,1.17-.75l-.44.77c.41-.1.31-.87.97-.56-.12.23-.22.44-.33.65l.08.05c.14-.19.28-.39.42-.59l.15-.02c.05.19.09.39.14.6l.2-.34.51.07c-.05-.57-.07-1.14-.06-1.71,0-.18.26-.36.4-.54l.12.08c-.1.19-.2.38-.36.67l.87-.69.1.12-.6.78c.45-.18.6-.78,1.23-.74l-.98,1.26.12.09c.26-.31.52-.61.77-.93.17-.26.51-.33.77-.17.02.01.04.03.06.05.53.35,1.04.72,1.56,1.06.13.07.27.12.41.15.02-.14.05-.28.08-.42.03-.14.09-.27.18-.38.4-.34.82-.67,1.23-.99l-.08-.11-1.4,1.1c-.25-.29-.13-.51.11-.71.87-.7,1.12-.8,1.98-.33l-1.12.71s.04.07.06.11c.32-.17.63-.35.93-.55.22-.22.58-.23.8,0,.02.02.04.05.06.07l.4.12-1.72,1.11.04.07c.66-.33,1.32-.66,1.99-.97.05-.02.16.1.27.18l-1.66,1.08.05.08c.62-.33,1.24-.67,1.88-.99.04-.02.16.11.27.18l-1.55,1c.73-.07,1.2-1.02,2.21-.58l-1.22.8.04.07c.48-.24,1.22-.36,1.38-.74.43-.98,1.42-.95,2.08-1.47.06-.03.13-.05.19-.05.03,0,.06.03.13.08l-2.12,1.27.05.11,2.31-1.25.05.1-1.76,1.12.09.14c.57-.5,1.27-.83,2.02-.94l-1.54.95.06.11c.46-.25.92-.52,1.39-.75.11-.05.3.05.45.09h0s.7.48.7.48l1.24-.46s.03.08.05.13l-.91.39s.02.06.04.1l1.04-.33.85,1.74h-.01c.21.17.24.29-.06.44-.39.2-.75.45-1.09.74.93-.3,1.75-.88,2.35-1.65.08,0,.15.02.22.06,1.76,1.27,3.65,2.34,5.65,3.18.23.11.46.21.22.53l-.28-.23v.43l-.42-.4-.06.04.57.85-.08.08-.45-.29-.17.28s-.08-.02-.1-.04c-.17-.29-.5-.43-.83-.36m-.16,3.19l.21.95h.09v-1.08h.11s.29.95.29.95c.16-.4-.35-.81.17-1.17l.26,1.02c.14-.43-.34-.94.25-1.27-.4-.59-.38-.78.06-.87.06.3.12.61.18.88l1.74-.12c-.84,1.09-2.06,1.83-3.41,2.06-.05-.45-.09-.89-.14-1.34l.19-.03m-8.04,11.56l.83,1.2c-.53-.14-.89-.65-.83-1.2m11.39-5.74c-.03.33-.06.66-.1,1.07l-1.52-.74-.05.09,1.04.58s-.03.09-.04.13c-.3-.1-.59-.19-.89-.29s-.58-.43-.83.04c-.1-.03-.19-.06-.29-.1l.61.92-.14.12-.48-.4c.96.82.28,1.53-.12,2.32l-.97-.83.82,1.02s-.05.07-.08.11l-.61-.44s-.07.08-.1.12l.64.4-.1.13-.28-.07c0,.13.02.27.03.41-.12-.02-.24-.05-.35-.11-.41-.27-.8-.56-1.27-.89-.3.89-.89,1.67-1.67,2.19l-1.07-1.17s-.06.05-.09.07l1.06,1.35c-.24-.07-.43-.06-.51-.16-.33-.42-.68-.81-1.07-1.18l1.06,1.58-.12.1-1.22-1.53-.08.05,1.13,1.64-.09.08c-.22-.2-.44-.42-.64-.64-.13-.16-.15-.4-.46-.22-.06.03-.3-.26-.5-.43l.32.74-.17.08-.46-.43.26.51-.62.44c-.35.18-.78-.19-1.11-.94-.13-.29-.04-.39.25-.39.06-.16.08-.38.2-.47.45-.35.93-.66,1.43-1.01-.26-.4-.99-.53-.89-1.35l.39.59.06-.03-.24-.71.11-.06.36.47-.21-.72.16-.12.18.34c-.28-.69.54-.54.61-1.04l.43.64.05-.02-.2-.61.13-.06.33.58.06-.02c-.02-.08-.04-.17-.06-.25-.02-.14-.03-.28-.04-.42.13.08.26.15.31.19l.39-.67c-.12-.41-.28-.94-.43-1.46.07-.04.13-.07.21-.1.11.37.21.71.31,1.04l.1-.02-.21-1.08.15-.06.37.75h.07c-.05-.28-.09-.55-.14-.82l.14-.04c.12.21.24.43.36.66.19-.29-.44-.69.19-.89l.27.63c.05-.49-.28-.97.32-1.08-.11-.5-.21-.94-.31-1.38l.16-.04c.07.27.15.53.23.84.2-.36-.34-.79.23-1.07.11.29.21.56.31.82l.06-.02-.15-.84.17-.08.37.63c-.02-.3-.04-.54-.06-.78l.15-.03.21.47c-.04-.39.15-.78-.16-1.17-.22-.2-.24-.53-.04-.75.05-.05.11-.1.18-.13.09.36.18.69.28,1.1.26-.48-.4-1.03.2-1.36.15.44.29.82.43,1.21h0l-.24.18s.03.09.04.13l2.43-.85c-.32.91-.72,1.23-3.23,2.68l2.14-.89c-.66,1.85-2.19,3.59-4.27,3.66q.39.25,2.41-.54l-.56.91.03.03.94-1.16v3.04l.92.42s.01-.05,0-.06c-.99-.55-.84-1.49-.79-2.38.12-1.33.64-2.6,1.51-3.62.11.47.22.94.33,1.43.13-.12.24-.25.27-.23.47.25.94.51,1.4.77l-.12.24-1.28-.57s-.03.07-.04.1c.34.2.69.37,1.06.5.29.04.49.31.45.61,0,.02,0,.03,0,.05m1.16-1.86l-1.36-.5s-.02.05-.03.07l.42.29-1.15-.11.73.61-.13.19c-.4-.2-.81-.38-1.18-.62-.11-.07-.14-.31-.15-.47-.03-1.13.4-2.23,1.2-3.04.26.92.51,1.83.78,2.79l.39-.28v-.02s.49.25.49.25v.82Zm-.63-9.03c-.3-.56-.36-.92.22-1.19l-.28.66.17.08c.15-.31.29-.63.44-.94l.14.06-.7,1.34m6.02,4.46l-1.92-.94.08-.2c.62.26,1.24.51,1.85.79.03.01,0,.19-.02.36m1.83-.12l-6.66-2.71c.53-1.51-.26-2.82-.58-4.25l-.91.53c0-1.82-.42-3.62-1.25-5.25l-.58,1.03c-.37-1.32-.72-2.59-1.09-3.92.49.5.9.96,1.35,1.35.19.17.57.41.52-.22,0-.06.1-.14.15-.21.61-.89,1.21-1.77,1.86-2.73.85.68,1.3.64,1.88-.3.54-.88.95-1.83,1.42-2.75.22.19.46.37.7.53.46.4,1.15.36,1.55-.1.13-.15.22-.33.25-.52.19-.75.32-1.51.4-2.28.02-.21.02-.42,0-.63.07,0,.11-.01.13,0,1.27.64,1.63.51,2.08-.85.23-.71.36-1.46.54-2.22h1.56c-.11.18-.19.33-.29.48-.24.32-.44.66-.62,1.02-.22.55-.16.62.42.72.1.02.2.04.47.1-.17.3-.35.59-.54.87-.24.3-.55.55-.77.86-.45.63-.37.92.29,1.3.2.12.56.26.56.38-.01.4-.1.79-.26,1.15-.25.54-.64,1.02-.87,1.56-.43,1.03-.2,1.59.81,2.14-.83,4.94-1.66,9.9-2.5,14.9m20.07-7.6c.28.01.51.25.5.54,0,.1-.04.2-.1.28-.11.32-.19.66-.23,1,1.18.22,2.27.77,3.15,1.58l-.7.94c.52.58,1.08,1.14,1.55,1.76.46.66.72,1.44.74,2.24-1.38-.23-2.68-.8-3.79-1.65l-.3.35c-1.07-.51-.78-1.26-.24-2.05h-.17l-.44.76-.15-.08.54-1.18-.11-.05c-.26.47-.51.94-.77,1.41l-.08-.07c.24-.5.48-1,.73-1.5l-.11-.09-.25.36-.11-.25-.3.5-.13-.03c.07-.31.14-.61.21-.95-.1.11-.2.21-.29.31-.03-.02-.07-.04-.1-.06l.28-.67.47.14c.03-.05.05-.1.07-.15l-.9-.46.17.66-.19.05c-.13-.53-.62-.98-.37-1.6l-.22.02c0-.17-.06-.36.01-.49.18-.35.42-.67.64-1l-.11-.07-.67.94-.11-.05c.03-.14.08-.28.14-.41.19-.31.34-.73.62-.89.35-.15.74-.19,1.12-.1m22.24-2.74l-.33.6c.32.16.62.29.9.46.65.4,1.34.78,1.37,1.71,0,.1.21.21.34.29.66.35,1.2.9,1.53,1.57-.52-.1-1.04-.26-1.53-.47-.38-.18-.8-.27-1.22-.28-.86-.12-1.66-.5-2.29-1.11-.17-.15-.35-.28-.52-.42l-.1.1.86.93c-1.09-.19-2.08-.75-2.82-1.57l-.13.13c.19.29.37.58.56.88-.02.03-.04.06-.06.09-.34-.21-.7-.39-1.03-.62s-.63-.51-.94-.77c-.22-.23-.56-.31-.86-.18-.45.05-.9-.06-1.28-.32-.76-.44-1.45-1-2.19-1.48-.29-.16-.59-.31-.9-.44.03.32.05.5.09.86l-5.5-2.36c-.02-.39-.04-.67-.05-.97-.13.03-.18.04-.19.05-.15.72-.79,1.23-1.52,1.22-.72.09-1.45.13-2.2.19l.22.32c-.77.6-1.7.95-2.68.99-.17.01-.33-.04-.46-.15-.44-.54-.86-1.11-1.3-1.69l.9-.53-.08-.16-1.11.48-1.52-1.21c-.05.04-.1.08-.15.12l.48.39-.57,1.32.14.07.58-1.23.35.38c.8.67.86.6.39,1.71-.14.28-.29.54-.46.8l.14.07.88-1.61c.1.69-.33,1.27-.39,1.96.22-.53.45-1.05.72-1.68.54.93-.36,1.51-.38,2.27l.82-1.61c.59.88-.31,1.39-.34,2.1.25-.44.5-.87.75-1.32.15.34.16.34-.15,1.06-.17.34-.3.71-.38,1.08.26-.5.53-1,.84-1.59.04.15.07.3.07.45-.04.17-.09.34-.15.5-.11.68-.64,1.22-1.31,1.34-.25.01-.44.22-.43.48,0,.04.01.08.02.12.08.41.17.82.29,1.23.26.99.54,1.97.78,2.96.03.25.03.51,0,.76h-2.87c.08.24.17.48.28.71.28.49.59.96.88,1.45.67,1.19.89,2.58.63,3.92l-2.47-.84c.16,1.44.24,2.89.25,4.33-.11,1.43-.3,2.86-.56,4.28l-.14.07c-.17-.26-.33-.54-.52-.78-.13-.13-.28-.23-.44-.31-.36-.22-.3-.48-.08-.77.08-.11.11-.25.07-.38l-.39.59h-.14c.01-.17.04-.34.08-.49.09-.17.14-.35.16-.53l-.44.66c-.25-.36-.49-.74-.71-1.12-.34-.68-.63-1.38-.94-2.06-.15-.24-.11-.56.1-.75.39-.39.74-.82,1.11-1.23l-.1-.1-1.3,1.35c-.64-1.25.65-1.65,1.15-2.39-.04-.04-.07-.07-.11-.11l-1.3,1.28c-.27-.77,0-1.62.65-2.1l-.14-.07-.62.74c-.08-.53-.29-.75-.78-.28.06-.19.08-.28.12-.42l-.81.87-.14-.12.58-.95c-.6.35-.74,1.24-1.62,1.26.34-.45.65-.87.97-1.3l-.09-.07-1.3,1.61-.14-.11.68-.93-.08-.07-.61.7-.15-.09,1.01-1.41-.08-.06-.95,1.17c-.15-.31-.15-.3.46-1.14.26-.36.51-.74.77-1.11l-.12-.09-1.36,1.81-.13-.06c.05-.16.12-.31.2-.45.41-.56.83-1.11,1.25-1.66l-.15-.11-1.35,1.81-.18-.1c.13-.79.96-1.21,1.12-2.01l-1.17,1.49c-.05-.83.85-1.17,1-2.07l-1.2,1.49c0-.87.78-1.16.94-1.91-.31.38-.54.67-.78.96l-.15-.1c.26-.42.53-.84.81-1.29l-.28.06s-.04-.05-.07-.08l.64-.59-1.13-.1.37-.62c-.51.23-.5.96-1.15.82l.81-1.19-.1-.08c-.25.33-.48.69-.75,1-.12.13-.37.27-.5.23-.32-.11-.83-.28-.88-.51-.3-1.19-.31-2.42-.05-3.61.17-.73.62-1.37,1.25-1.78-.31-.24-.66-.43-1.02-.57-.82-.2-1.51-.75-1.88-1.51.22.39.44.78.65,1.15-.65.04-.97-.73-.66-1.68l.92,1.03.13-.1c-.46-.51-1.05-.94-.92-1.86l.79,1.34c.11-.28.22-.56.33-.84l-.09-.05-.29.39c-.43-.41-.63-1.01-.52-1.59.17.28.28.47.4.67-.72-1.18.31-1.86.77-2.75-.93-.7-2.05-1.29-1.96-2.74.1.3.21.59.32.9l.31.04c.04-.19.11-.38.21-.55.96-.99,1.95-1.94,2.89-2.94.79-.84,1.53-1.73,2.3-2.6.05.44.14.87.26,1.29.52,1.44-.12,2.49-.91,3.63-1.22,1.74-2.26,3.61-3.37,5.42-.01.02.01.06.06.23,1.44-2.39,2.63-4.84,4.71-6.68.26,1.48.92,2.98.02,4.52-.36.61-.67,1.24-1.03,1.85-1.28,2.2-2.19,4.59-2.7,7.08-.02.1-.04.21-.05.31,0,.1.01.2.03.3.08-.24.14-.36.17-.48.54-2.67,1.59-5.21,3.07-7.49.44-.65.77-1.37,1.21-2.16.1.82.19,1.54.27,2.27.03.51.09,1.02.19,1.52.28,1.3.08,2.66-.56,3.83-.38.81-.78,1.62-1.12,2.45-.2.48-.31,1-.47,1.5l.13.05.22-.53c.11.12.2.23.29.34l.07-.03c-.08-.16-.14-.33-.19-.5,0-.21,0-.43.03-.64.18.31.29.49.39.66,0-.49-.36-.98.12-1.46l.41.74c-.04-.6-.54-1.06,0-1.51l.37.71c.08-.48-.45-.9-.02-1.43l.35.6c-.07-.49-.12-.87-.17-1.25l.17-.05.18.29.08-.03c-.04-.25-.2-.57-.1-.72.68-1.09.06-2.15-.01-3.22-.09-1.28-.32-2.55-.48-3.83,0-.08,0-.16,0-.24,2.64,3.23,5.61,6.16,7.44,9.95-.06-.17-.1-.34-.17-.5-1.03-2.21-2.37-4.26-3.97-6.09-1.06-1.3-2.22-2.51-3.25-3.83-.19-.42-.25-.88-.18-1.33,0-.23.22-.45.34-.68.12,0,.27-.03.35.03.43.34.85.69,1.25,1.06.12.12.14.34.21.52l.27-.1v.37c.36-.13.5-.04.34.23-.08.12-.17.24-.26.35l.64-.27c-.01.17-.03.33-.04.51l.26-.25.15.02c0,.2-.02.4-.03.58l.28-.2,1.27,1.03.12-.13c-.87-.81-1.74-1.62-2.6-2.44s-1.73-1.69-2.56-2.5l1.01-1.32q.57.27.29,1.21l.38-.68q.35.17-.06,1.1c.09-.12.19-.24.27-.37.09-.14.17-.29.32-.55l.24.54c.34-.18.41-.12.23.29-.07.13-.11.27-.11.42l.39-.58.11.03c-.04.21-.09.42-.16.76.16-.25.25-.4.38-.6l1.88,1.42.07-.06c-.1-.15-.21-.28-.34-.41-.75-.61-1.51-1.21-2.28-1.8-.74-.57-1.51-1.11-2.22-1.71-1.06-.8-1.74-1.99-1.9-3.3-.05-.45-.16-.89-.21-1.36.36.64,1.13.98,1.37,1.69l-.13.12.56-.26c-.13.32-.19.48-.25.62l.56-.25s.06.1.08.14c-.08.15-.17.29-.33.58.34-.19.5-.68.83-.23l-.31.52.65-.42s.07.09.11.13c-.08.19-.17.38-.3.67.34-.22.45-.74.84-.34-.11.22-.21.42-.31.62.3-.21.46-.63.92-.3l-.36.52.07.06c.11-.11.23-.22.36-.31.14-.07.3-.07.44,0-.07.09-.14.18-.2.27s-.12.2-.22.38c.38-.1.49-.76.97-.38l-.39.76c.37-.14.37-.83.98-.49-.1.25-.19.48-.28.71.3-.17.3-.81.87-.42l-.45.71.08.06.55-.68.11.03-.11.58.09.06c.08-.27.19-.52.33-.76.25-.27.51-.52.8-.75l.14.13-.34.52.73-.32c.04.06.09.12.13.17-.73.57-1.19,1.42-1.27,2.35l.41.21-.7,1.45.1.06.85-1.45,1.35,1.39c.29.11.36.28.23.57-.09.23-.17.46-.22.7,0,.07.01.13.03.2.16-.38.28-.67.4-.97.28.3.21.82-.37,1.55-.36.38-.77.72-1.21,1.01l3.38-.87c-.12-.15-.31-.41-.53-.65-.22-.18-.25-.5-.08-.72.02-.02.04-.05.06-.07.35-.37.69-.74,1.12-1.2l.52,1.37,1.14-1.45,2.73,2.4c-1.77.05-3.48.61-4.94,1.6.08-.01.15-.03.23-.06,1.4-.68,2.9-1.11,4.45-1.27.93-.03,1.86.04,2.77.22.16.02.29.23.44.35.92.73,1.79,1.53,2.77,2.17.73.48.92.31.93-.59v-.53c.8.57,1.57,1.11,2.33,1.67.12.11.19.26.22.42.05.33.14.65.28.95l-.14-1.13c.89.13,1.45.51,1.35,1.52l.14-.08c-.02-.13-.03-.26-.05-.39-.02-.15-.05-.31-.09-.5l4.79.99.15-.16-1.13-1.79c1.18.28,2.28.85,3.18,1.66m-32.64-8.43l-.07-.31,1.08-.94-.87,1.29-.14-.05m.04.96l.23-.02c.06.18.11.36.17.53l-.61.57c.09-.43.15-.76.22-1.08m.51-2.14c-.2.3-.41.58-.62.87-.14-.06-.27-.11-.45-.18.29-.33.54-.62.8-.89.07-.07.21-.07.32-.11,0,.1-.02.21-.05.31m-1.06.34q-.1-.35.53-1.08c.33.3.21.52-.53,1.08m.5-6.65l-.28.43.05.04.47-.38.09.08-.33.6.61-.5s.06.05.09.07l-.13.48.49-.34.09.09-.29.54.66-.41.1.13c-.07.18-.13.37-.21.58l.51-.45.1.1c-.12.22-.24.43-.36.65l.07.04c.29-.32.59-.64.88-.97-.01-.02-.02-.04-.03-.06l-.38.19-3.65-1.79c.3-.6.76-1.1,1.34-1.44l.12.12-.93.76c.05.05.1.1.14.16l1.01-.83.08.1-.84.95.06.05,1.04-.9.13.15-.93.8.11.12,1.01-.77.07.09-.8.74c.53-.1.77-.9,1.37-.33l-.98.71,2.64,1.01-1.04,1.25.1.09c.43-.38.64-1.02,1.33-1.15l-1.12,1.61.14.12c.43-.51.64-1.26,1.5-1.53-.41.7-1.38,1.07-.76,2.07l-.26.25.74-.28c-.22.28-.36.45-.49.62l.04.06.69-.47.09.14-.5.65c.38-.07.47-.7,1-.44l-.65.88c-2.46-1.24-4.95-2.48-6.11-5.45l2.12.99m-1.71-2.06c.29-.38.44-.78.95-.64-.27.22-.36.71-.95.64m2.23-1.42s.06.1.1.14l-.4.66-.61-.36.38-.61.11.05c0,.11-.02.21-.03.31l.45-.19m5.02,7.46s.05.07.08.11l-.58.76h-.36c-.03-.05-.05-.11-.07-.16l.93-.71m-.96.59c-.08.05-.17.07-.27.04-.03,0-.07-.14-.06-.2.12-.42.56-.67.98-.55-.24.26-.44.5-.66.71m1.07-.16c.15-.06.31-.11.47-.13l.05.13c-.14.12-.28.24-.41.37s-.26.28-.45.48l-.27-.4c.19-.16.39-.31.6-.44m-2.05-1.69l1.18-.76,1.17,1.85-2.36-1.1m.6-2.09l.24-.47-.06-.05-.38.43-.6-.26.66-1.02c.24.34.48.67.77,1.07l-.5.44-.13-.14m-.8-.68c-.07.07-.22.06-.34.08,0-.12-.03-.26.03-.35.2-.26.37-.54.48-.85l-.78.89-.14-.11c.28-.37.56-.74.91-1.21l.51.85c-.22.24-.43.48-.66.7m-.98-.63c.06-.16.14-.31.23-.45.14-.15.24-.34.3-.53l-.62.65-.14-.05.31-1.08-.04-.03-.44.69-.41-.29.57-.89s.04,0,.05,0c1.71.74,1.43.72.2,1.98m-1.04-1.26c-.2-.06-.16-.51-.51-.32-.03-.14-.14-.31-.09-.42.12-.19.26-.35.42-.5l.96.52-.79.72m4.65,9.15l2.4-.98-.97-1.55.5-.38c.55,1.74,1.76,3.19,3.36,4.04.15-.32.27-.57.41-.87l.41.62c-.31.38-.61.76-.91,1.14-.21-.32-.42-.64-.7-1.08l-1.58,1.57c-.75-1.07-1.75-1.93-2.92-2.51m1.97,4.01c.21-.45.4-.85.59-1.26.24.39.12.9-.27,1.14-.1.06-.21.1-.32.12m-.45-5.63l-.8,1.04-.21-.16.82-1.04.19.16m-1.48,1.37l-.19-.14,1.19-1.71.14.09-1.13,1.75m9.66,3.88c.12-.4.22-.73.33-1.12l1.11,1.26-1.44-.14m10.36,3.93c.55-.21.81-.7,1.3-.79-.29.67-.75.96-1.3.79m1.64-.55l.11.14c-.25.29-.44.66-1.1.68l.99-.82m1.5-.29l-1.17-1.56c1.15.08,1.51.53,1.17,1.56m-16.79-17.9c.14.19.28.37.48.63-.03-.17-.05-.27-.08-.45l.72.27-.93.44c-.13-.26-.25-.52-.38-.78l.18-.12m-2.96.76l-.37-.67c.4-.13.82-.18,1.24-.15.29.09.48.54.76.88-.12-.33-.23-.62-.34-.91l.14-.1c.11.15.23.3.32.46.09.19.21.36.36.51l-.34-.88c.66-.15.38.56.73.72-.05-.24-.09-.45-.14-.66l.09-.04c.23.32.47.64.7.96l-1.38,1.31.78.26c.17-.06.35-.16.37-.14.12.19.26.36.43.51-.08-.2-.16-.4-.28-.69.62.13.5.76.98,1.07l-.48-1.09c.64.13.56.77.98.99l-.4-.88c.34-.05.34-.05.53.39.1.23.22.45.34.67l.12-.06c-.14-.33-.29-.65-.47-1.08.69.16.51.85.99,1.2-.15-.4-.26-.71-.43-1.15.65.16.43.81.82,1.09l-.22-.89c.67-.12.28.63.66.75-.03-.2-.05-.4-.09-.66.42.13.96-.01.94.69.01-.06.03-.12.04-.17s.01-.13.02-.19l.98.36-2.25,1.87c1.1.1,2.33.15,3.54.34,1.25.22,2.4.84,3.29,1.75l-3.04,1.28v.17c.28.11.56.22.84.33.81.33,1.62.66,2.44.97.35.11.55.48.44.83,0,.02-.01.03-.02.05-.06.24-.06.5,0,.74l.23-1.11c.32.16.31.16.26.63-.03.27-.05.55-.08.82l.13.02c.05-.37.1-.75.15-1.2.61.31.27.81.36,1.23l.26-.75c.62.3.16.88.38,1.42.07-.38.11-.64.16-.9h.11v1.21l.12.02.21-.8c.17.34.12,1.08-.1,1.14-.4.11-.82.17-1.39.28.17.13.35.25.54.37,1.24.65,2.33,1.55,3.21,2.63.05.07.08.15.11.23.22.19.41.41.56.65.06.13-.14.38-.22.58-.06-.07-.18-.15-.18-.22.04-.13.07-.27.09-.42-.06.09-.12.17-.2.24-.08.04-.17.06-.26.07-.01-.09-.02-.18,0-.28.06-.21.13-.42.2-.63l-.46.67-2.12-1.13-.07.12,1.59,1.02-.92.96.04.06,1.09-.89.09.13c-.25.7-1.02,1.07-1.72.82-.06-.02-.12-.05-.17-.08-1.15-.43-2.17-1.12-3-2.02-.17-.22-.33-.46-.46-.7-.36.61-.91,1.08-1.57,1.34l-.12-.18.9-.73c-.55,0-.76.84-1.42.42l1.79-1.38c-.31-.66-.63-1.34-1-2.13l3.75,2.66c.05-.07.09-.13.14-.2l-4.82-3.4c.6,1.04,1.15,2,1.73,3.02-.54.42-1.03.81-1.55,1.17-.06.04-.26-.12-.4-.19h.01c-.33-.26-.68-.52-.98-.82-.62-.65-1.21-1.32-1.83-1.98-.24-.26-.43-.36-.67.08-.16.29-.53.47-.8.7l-.11-.13.8-.89-.08-.08-.96.91-.58-.65h.01c-.34-.25-.65-.54-.95-.85-.43-.5-.81-1.05-1.46-1.76l-.56,1.02-.2-.19.89-1.08c-.49.16-.67.8-1.14.95l-.13-.21.96-1.13-.1-.08c-.27.3-.54.62-.83.91-.07.07-.22.06-.34.09.02-.11.05-.21.1-.31.32-.39.64-.76.97-1.14l-.1-.08-1.15,1.31c-.14-.47.28-.62.46-.9.22-.29.4-.61.53-.94l-1.28,1.51c-.07-.05-.13-.1-.19-.15l1.11-1.49-.11-.08c-.35.43-.71.86-1.13,1.38-.43-.83-.83-1.61-1.26-2.44l-.66.88-.18-.17.39-.54-.05-.04-.39.48-.48-.34.62-.74-.06-.04-.75.63-.13-.16.83-.95-.08-.08-.79.86-.1-.07.89-1.2-.11-.08-.9,1.08c.1-.38.26-.75.47-1.08l-.78.7-.12-.09c.11-.21.22-.41.33-.62l-.07-.06-.28.42-.17-.12c-.02-.56.7-.71.85-1.34l-.91,1.06-.23-.17c.11-.17.22-.34.33-.51.14-.18.24-.4.28-.62-.18.19-.35.39-.56.61l-.56-.45c.6-.65.02-1.15-.23-1.69-.18-.34-.38-.67-.59-.98,2.38.89,3.37,2.87,4.19,4.99l.12-.04c-.18-.51-.34-1.04-.55-1.54-.22-.53-.5-1.03-.74-1.53,2.62,1.01,3.85,3.25,4.94,5.61l.12-.05c-.22-.53-.42-1.06-.66-1.57-.26-.53-.56-1.04-.77-1.62.49.33,1,.62,1.46.99.64.49,1.41.79,2.21.86,1.34.18,2.69.29,4.04.43l.03-.19c-.69-.1-1.38-.21-2.07-.29-1.01-.12-2.03-.21-3.04-.32-.05,0-.1-.02-.14-.05-.94-.7-1.88-1.4-2.9-2.15,1.64,0,3.18,0,4.71.02.11,0,.27.22.31.37.04.31.12.62.24.91-.02-.39-.04-.78-.06-1.2l1.89.09.02-.11c-.11-.03-.23-.06-.35-.07-2.09-.11-4.18-.24-6.28-.33-.65.01-1.29-.19-1.82-.58-.67-.52-1.4-.97-2.08-1.56h1.45l.04-.19c-1.31,0-2.62.02-3.56-1.04l4.31-1.3-.3-.47c.58-.2.52.46.91.54m-5.31-2.73l-1.52.25c-.04-.06-.12-.18-.23-.34.13.68.22.7.81.64,1.18-.13,2.37-.22,3.55-.26.3.06.57.22.76.46.25.31.48.63.68.98l.11-.07-.86-1.36c.71.19.71.93,1.15,1.27l-.45.58.38.32-.06.13-.43-.15c-.05.07-.11.25-.2.27-1.19.31-2.39.58-3.59.88-.53.13-.9-.21-1.32-.41-.28-.13-.56-.28-.91-.46,1.38-.47,2.68-.93,3.99-1.35.19-.06.43.06.64.1-.01-.03-.05-.15-.08-.26l.08-.06.42.39.08-.07-.7-.85-.09.05.12.24c-.62.2-1.25.41-1.87.62-.52.17-1.03.35-1.55.53-.61.21-1.19.37-1.43-.6l-.11.18.33.51c-.37.13-.52.02-.9-.7l1.21-.11c.13-.25.18-.23.7.38-.07-.17-.14-.34-.22-.55.59-.24.39.5.79.57l-.39-.83c-1,.16-2,.34-3.01.47-1.43.19-1.44.18-2.2-1.03,1.27-1.04,4.05-1.22,6.33-.37m-7.66,4.47l.1-.08-.22-.28.72-.5q.33.45-.84,2.36l1.24-1.37c.15.65.53,1.26.05,1.95-.72,1.02-1.42,2.04-2.17,3.11l.54.45s.04-.05.06-.07l-.49-.52c.25-.23.46-.42.67-.62l.46.62.13-.12c-.08-.27-.66-.39-.27-.83l.46.39c-.06-.23-.11-.47-.17-.71.37.13.18-.88.63-.48.13-.36.28-.77.43-1.18l.16.02c.15.77.31,1.54.44,2.31,0,.15-.06.3-.15.43-.74,1.41-1.7,2.68-2.86,3.78-.46.46-.91.94-1.38,1.38-.13.09-.27.15-.42.19l-.18.59c-.63-.5-.68-.91-.23-1.4.19-.21.4-.39.61-.58s.4-.34.64-.53l-.24-.39-.1-.1c-.65-.2-.88-.76-1.15-1.31.04.21.09.41.13.61-.42-.19-.53-.46-.24-.76.54-.57,1.14-1.08,1.76-1.65-.15-.56-.95-.91-.86-1.82l.83,1.3.09-.05-.69-1.36.12-.06.91,1.46.12-.08c-.18-.29-.36-.58-.55-.86-.32-.46-.37-.86.3-1.18.02.15.05.29.07.43h-.33c-.11.51.39.7.63,1.04l-.33-.82.17-.06c.14.16.28.33.44.51-.07-.28-.13-.53-.18-.77h.29c-.18-.5-.38-1.04-.61-1.67l.47.37-.62-1.1.09-.05.67.96.08-.06-.6-1.03.08-.05.69.82.12-.09c-.26-.3-.67-.54-.55-1.14l.71.97.09-.06-.58-.97.12-.08c.23.27.45.54.68.81m-1.05-4.83c-.36-.29-.72-.56-1.05-.87-.08-.11-.11-.25-.09-.38.19-2.49.38-4.99.58-7.48,0-.07.02-.14.05-.2.23-.05.46-.03.52-.13.13-.25.22-.52.29-.8-.64.36-.69.35-.73.06.21-.07.42-.17.61-.29.06-.05.01-.25-.11-.41l.51-.47.16.04c-.24,3.62-.49,7.25-.74,10.92m.67-11.13l-.35-.05c.07-.45.14-.88.2-1.29q.32.26.15,1.35m1.47-1.11c.08.86-.13,1.72-.6,2.45-.48-1.01-.55-2.17-.2-3.24l-.37.32-.17-.05c.09-.49.19-.98.29-1.53l-.44.36q-.4-.48.14-1.18l-.72.26c.13-.3.24-.54.37-.82l-.48.04c.09-.13.18-.25.29-.35.56-.31,1.24-.26,1.75.13h-.52c.66.3,1.1.59.94,1.33l-.59-.5-.06.04.68,1.2-.12.07-.34-.36c.05.66.1,1.25.15,1.83m5.41-.05l-1.36.31.65.59-4.51.43c.02-.22.05-.49.09-.86l.52.59.06-.04-.37-.66.17-.09c.16.19.32.39.53.65l-.3-.91.22-.12.28.51.13-.1-.35-.71.66.27-.25-.35.05-.07.44.28.06-.04-.35-.44.83.37s.05-.08.08-.12l-.22-.44.07-.09.41.25-.03-.35c.75.67,1.3,1.66,2.54.92,0,.08,0,.15-.01.23m4.6.91c-.51,0-1.02-.05-1.52-.15-.97-.3-1.91-.69-2.87-1.04-.15-.06-.35-.14-.47-.09-.52.23-1.13.06-1.47-.4-.17-.17-.33-.37-.51-.53-.08-.07-.24-.16-.3-.12-.55.31-.74-.11-.92-.47-.12-.26-.21-.54-.28-.82l.72-.29c-.08.24-.15.44-.19.56.09.18.16.32.21.42l.87-1.3c.04.08.08.15.13.27l.2-.33.15.34c.07-.16.12-.29.24-.55.04.26.06.38.1.58l.29-.77-.73.06c0-.07,0-.16-.01-.26.7-.18,1.44-.12,2.1.17-.1.15-.17.26-.28.43l1.44.33-.48.55,1.73.56-.03.16-.77.1c.63.35,1.18.62,1.7.94.6.31.98.94.98,1.62m-1.89-4.7l.32-.26.14.07-.41.75c-.27-.1-.68-.06-.57-.56l-.37.2c.29-.81.62-.99,1.08-.62-.07.12-.15.25-.23.37l.05.04m-1.18.05l-.13-.1c.09-.16.18-.32.27-.47l-.1-.09c-.11.17-.22.34-.41.62.11-.69.25-.77,1.04-.66l-.67.7m1.25,2.41l.5-.47-1.62-.83.27-.62c.43.25.9.49,1.34.77.39.26.7.27.96-.15.05-.06.11-.12.18-.17l1.19.9c-.89.38-1.85.58-2.82.58m9.41-4.32c.2.01.4.01.6,0,.73-.12,1.45-.31,2.19-.36.75-.02,1.49,0,2.23.05l.04.2-1.4,1.05c1.61-.3,3.28-.19,4.84.31l-1.69.91,5.16.84.03.24-1.01.49s-.04-.05-.06-.07l.28-.43-.07-.05-.52.49-.09-.09.5-.56-1.34.61.31-.53-.64.42-.07-.08.15-.29-.05-.05c-.1.11-.21.2-.34.28-.06.03-.17-.04-.25-.06,0-.05.01-.1.02-.15l-.45.23c-.02-.13-.03-.22-.03-.22l-.89.17,6.17.88c0,.08,0,.16,0,.24-.15.02-.31.06-.46.07-1.75.05-3.49-.12-5.2-.49-.58-.1-1.18-.16-1.82-.25.04.23.06.35.08.43-1.27,0-2.54.04-3.8-.02-.52-.07-1.04-.21-1.52-.41-.25-.13-.57-.05-.72.19-.17.19-.37.36-.58.5-.04-.04-.07-.08-.11-.12l.69-.79c-.51.11-.61.82-1.35.77l.49-.57-.28-.17c.03.31-.2.59-.51.62-.09,0-.19,0-.28-.04.04-.09.07-.17.12-.26l-.67.24s-.04-.08-.06-.11l.25-.42-.54.38-.06-.05.29-.47-.62.39c-.04-.1-.07-.18-.1-.26-.01.04-.03.08-.04.13l-1.19-.43-.52.68-.12-.07.32-.62-.04-.07c-.15.1-.37.17-.44.32-.14.3-.33.29-.55.17-.63-.35-1.24-.71-1.91-1.09l.52-.73-.04-.04-1.4,1.19-.88-.64c.17-.15.34-.31.51-.46l.13-.12c.1.15.2.3.37.55-.1-.26-.15-.41-.23-.61l.37-.23s.07-.03.1-.02c1.12-.55,1.8.18,2.48.92l.1-.13-.91-.97,1.84-.48c.23-.15.49-.25.75-.31.25-.02.65-.4.85.15l-.16-.51.51.24c.02-.1.04-.21.06-.33l.44.13c0-.06.01-.18.03-.4l.49.38.06-.05c-.15-.25-.31-.5-.47-.76-.06.14-.11.24-.16.34l-.34-.22c-.04.09-.09.23-.14.36l-.41-.17c-.02.06-.03.3-.09.32-.29.06-.57.09-.86.1,0-.02.02.09.08.38l-.68-.4.16.53-.66-.27c.03.23.06.5-.38.29-.08-.04-.26.21-.42.24-.52.08-1.04.13-1.56.15-.41.01-.83-.03-1.22-.14l.73-.27c-.19-.3-.4-.62-.6-.95l-.09.04.37.73-.13.14-.66-.58.31.64s-.04.05-.06.08l-.36-.21q-.31.23-.7-.17l.24.52h-1.33c.11-.18.24-.35.39-.51.35-.27.71-.51,1.07-.76s.71-.44,1.07-.67l-.06-.12-1.37.67c-.08-.16-.17-.33-.25-.5h-.06c.06.21.11.42.17.62q-.27.07-.53-.45l.14.77-.16.05c-.1-.23-.2-.46-.3-.69h-.06c.04.28.07.57.11.86l-.14.04c-.08-.23-.17-.47-.25-.7h-.05c.03.29.05.57.08.85l-.11.04c-.11-.25-.22-.51-.32-.76h-.07s.21.9.21.9l-.16.07-.35-.49c.06.21.1.36.2.71-.32-.12-.66-.15-.74-.31-.15-.3-.3-.67.18-.93,1.49-.84,3.14-1.37,4.85-1.55.19-.01.38,0,.69,0-.14.11-.24.16-.25.22,0,.18,0,.35,0,.53.13-.02.27-.04.4-.08.95-.26,1.89-.56,2.85-.76.29-.06.64.14,1.07.25l-.63,1.03c1.54-.41,3.15-.51,4.74-.3l-1.29,1.04m24.51-11.53c-1.13.82-2.47.91-3.69,1.39-.27.1-.48.36-.75.46-1.23.49-2.44,1.02-3.71,1.38-.43.12-.61.44-.94.59-.94.44-1.88.86-2.85,1.23-.5.17-1.02.3-1.54.38-.26.04-.53.06-.79.06-.04.56-.55.71-1.04.84-.64.19-1.3.34-1.96.43-.76.17-1.48.47-2.15.87-.76.33-1.52.65-2.28.97l.06.09c-.13.17-.22.43-.38.5-.65.27-1.32.48-2,.63-1.07.2-2.15.31-3.23.45,0-.02,0-.04,0-.06.46-.88.36-1.11-.67-1-1.09.11-2.17.38-3.25.58.01-.07.05-.23.09-.46l-.91-.06c.72-.9,1.4-1.76,2.09-2.62l-.09-.09c-.13.14-.25.28-.38.42-.34.36-.65.74-.95,1.14-.67.99-1.82,1.56-3.01,1.5l1.26-1.44c-.49.42-.97.85-1.46,1.27-.27.23-.55.44-.86.61-.37.19-.76.33-1.17.4l2.18-2.42-.11-.1-3.24,3.35c-.18-.38-.32-.68-.46-.98l.11-.07.42.56.05-.04c-.1-.26-.3-.55-.26-.79.1-.28.28-.53.52-.71.49-.44,1.02-.84,1.53-1.25l.13.11c-.06.25-.11.51-.17.76.95-.96,1.49-2.3,2.96-2.83-.1.39-.17.7-.25,1.01l.16.11c.3-.31.57-.64.82-.99.53-.92,1.29-1.69,2.22-2.21.09-.05.19-.08.42-.17-.19.79-.36,1.47-.53,2.15.02.03.04.06.06.08l2.77-3.18c.37.74.68,1.34,1,1.98.76-1.24,1.92-2.18,3.29-2.67.47.49.61,1.21.37,1.85l.17.07c.49-.41,1.01-.79,1.48-1.23.76-.77,1.69-1.34,2.72-1.68.17-.05.33-.08.61-.15-.21.78-.4,1.49-.62,2.33.19-.06.38-.15.55-.24.71-.51,1.4-1.08,2.14-1.56.62-.37,1.25-.71,1.91-1.01.36-.18.53-.07.48.36-.04.38-.05.77-.07,1.24l3.89-2.08.14.14c-.07.51-.14,1.02-.23,1.66,1.53-1.13,3.28-1.93,5.14-2.36-.07.25-.11.45-.18.63-.1.18-.16.38-.18.59l.44-.28.28.33-3.15,1.14c-.1-.32-.19-.61-.28-.9l-.08.02c.06.28.12.56.19.86-.31.18-.39.11-.69-.56.07.26.14.51.21.79l-.81.29-.23-.62-.1.02c.05.23.1.45.15.68l-.12.06-.34-.53h-.07l.13.62-.08.08-.4-.35c.01.12.03.26.06.46l-.24-.15c-.16.17-.26.33-.4.4-.72.35-1.45.68-2.14,1.09,4.08-1.63,8.19-3.18,12.39-4.57l-.21-.53,2.43-.13v.08c-.81.21-1.59.52-2.32.92"/>
        <path id="Path_2785" data-name="Path 2785" class="cls-2" d="m40.82,25.12l-.5-.48c.15.18.31.34.5.48"/>
        <path id="Path_2786" data-name="Path 2786" class="cls-2" d="m43.13,27.19h-.08c-.03-.21-.07-.43-.11-.71l-.22.44c-.09-.31-.15-.52-.21-.75-.04.07-.08.15-.14.26-.44-.52-.96-.96-1.54-1.31l2.59,2.48c-.03-.27-.07-.54-.11-.91-.08.22-.12.36-.17.5"/>
        <path id="Path_2787" data-name="Path 2787" class="cls-2" d="m34.49,64.62l.33.27c-.09-.11-.21-.2-.33-.27"/>
        <path id="Path_2788" data-name="Path 2788" class="cls-2" d="m30.2,24.99c1.59,1.28,3.45,2.18,5.44,2.63-.67.24-18.38-1.79-20.76-2.33l.02-.13,11.9,1.43c.02-.06.05-.12.07-.17l-3.61-2.13c.3.06.58.15.86.27.61.32,1.2.67,1.77,1.05.95.68,2.06,1.09,3.22,1.2,1.3.08,2.59.25,4.03.4l-3.06-2.06.12-.15"/>
        <path id="Path_2789" data-name="Path 2789" class="cls-2" d="m26.05,22.43l3.65,2.26s-.04.08-.06.12c-.08-.02-.15-.05-.22-.09-1.15-.7-2.3-1.41-3.45-2.12l.09-.17"/>
        <path id="Path_2790" data-name="Path 2790" class="cls-2" d="m32.23,23.11l.15.37c-1.02-.86-2.23-1.48-3.52-1.81.02-.06.05-.12.08-.18.56.21,1.14.38,1.68.65.56.28,1.08.64,1.61.97"/>
        <path id="Path_2791" data-name="Path 2791" class="cls-2" d="m17.3,23.02c1.24,0,2.44.4,3.45,1.13l-3.45-1.13"/>
        <path id="Path_2792" data-name="Path 2792" class="cls-2" d="m56.32,59.53c-.3-.51-.6-1.02-.9-1.54l.15-.08.85,1.72-.1-.1"/>
        <path id="Path_2793" data-name="Path 2793" class="cls-2" d="m69.21,30.48l-.04.03h-.05s.07-.04.1-.03"/>
        <path id="Path_2794" data-name="Path 2794" class="cls-2" d="m19.68,77.54l-2.85-2.22.07-.1c.67.45,1.34.92,2.03,1.36.67.55,1.47.93,2.33,1.09-.38.15-.74.33-1.1.52-1.69,1.05-3.38,2.09-5.06,3.16-.59.38-.69.4-1.09-.19-.24-.36-.42-.76-.54-1.18.33.52.67,1.04,1.02,1.59.21-.15.36-.26.49-.35l-.83-1.44.1-.07.9,1.37,4.87-3.25c-.48,0-.83-.01-1.17,0-1.41.05-2.82.09-4.23.17-.29.02-.58.11-.82.28-.81.59-1.59,1.23-2.38,1.85-.34.27-.68.53-1.02.8l-.09-.11,3.2-2.75-3.22.2v-.12s3.04-.3,3.04-.3l-3.27-2.4.06-.1c.2.12.39.25.59.37,1.03.64,2.05,1.29,3.1,1.91.23.12.49.17.76.15,1.66-.06,3.31-.14,4.96-.22.05,0,.1-.02.14-.04"/>
        <path id="Path_2795" data-name="Path 2795" class="cls-2" d="m4.46,78.46c.13-.02.27-.05.4-.07.9-.08,1.81-.15,2.71-.22,0,.06.01.11.02.17l-3.13.29v-.17"/>
        <path id="Path_2796" data-name="Path 2796" class="cls-2" d="m37.79,74l-.87.67-.43-.56.83-.52.07.11-.78.49c.5.49.75-.33,1.18-.19"/>
        <path id="Path_2797" data-name="Path 2797" class="cls-2" d="m26.73,70.35c-.56.37-1.11.74-1.67,1.11.4-.57,1-.96,1.67-1.11h0"/>
        <path id="Path_2798" data-name="Path 2798" class="cls-2" d="m25.81,73.53l-1.25-.85.09-.13,1.27.86-.1.13"/>
        <path id="Path_2799" data-name="Path 2799" class="cls-2" d="m35.49,73.31l-1.39.9s-.04-.07-.07-.11c.47-.3.83-.77,1.47-.78h-.01"/>
        <path id="Path_2800" data-name="Path 2800" class="cls-2" d="m21.63,70.81l-.88,1.25c.05-.54.39-1.02.88-1.25"/>
        <path id="Path_2801" data-name="Path 2801" class="cls-2" d="m32.5,71.27l-1.38.98-.11-.18,1.5-.79h0"/>
        <path id="Path_2802" data-name="Path 2802" class="cls-2" d="m21.07,72.33l1.04-1.29.11.09c-.34.43-.68.87-1.03,1.3l-.13-.1"/>
        <path id="Path_2803" data-name="Path 2803" class="cls-2" d="m67.5,76.29c-1.34-1.9-2.69-3.79-4-5.64.78.36,3.59,4.2,4,5.64"/>
        <path id="Path_2804" data-name="Path 2804" class="cls-2" d="m68.87,81.36l-3.74-5.95c.71.4,3.44,4.61,3.74,5.95"/>
        <path id="Path_2805" data-name="Path 2805" class="cls-2" d="m65.54,83.97l-1.07-5.76c.7,1.84,1.07,3.79,1.07,5.76"/>
        <path id="Path_2806" data-name="Path 2806" class="cls-2" d="m63.73,75.23c-.04.35-.11.7-.21,1.04-.24.64-.54,1.26-.8,1.89-.42,1.02-.83,2.04-1.26,3.06.41-2.11,1.69-3.93,2-6.07l.27.07"/>
        <path id="Path_2807" data-name="Path 2807" class="cls-2" d="m67.88,62.8l.78-1.45.15.08-.76,1.47-.18-.09"/>
        <path id="Path_2808" data-name="Path 2808" class="cls-2" d="m57.65,77.08c.38-.53.76-1.07,1.21-1.69-.16.7-.59,1.31-1.21,1.69"/>
        <path id="Path_2809" data-name="Path 2809" class="cls-2" d="m69.67,61.91l-.72,1.63-.14-.06c.23-.55.46-1.1.69-1.64l.18.07"/>
        <path id="Path_2810" data-name="Path 2810" class="cls-2" d="m63.88,84.57l1.04-1.03.13.13-1.07,1-.1-.09"/>
        <path id="Path_2811" data-name="Path 2811" class="cls-2" d="m69.95,62.16l-.52,1.7-.22-.08c.25-.53.5-1.07.75-1.61h-.01"/>
        <path id="Path_2812" data-name="Path 2812" class="cls-2" d="m60.22,69.53c.23.39.46.79.76,1.31-.49-.25-.79-.76-.76-1.31"/>
        <path id="Path_2813" data-name="Path 2813" class="cls-2" d="m69.63,66.28l-.51,1.48-.21-.09c.24-.46.49-.92.73-1.38h-.01"/>
        <path id="Path_2814" data-name="Path 2814" class="cls-2" d="m64.44,73.87l.07-1.32h.15c-.02.45-.05.88-.07,1.32h-.16"/>
        <path id="Path_2815" data-name="Path 2815" class="cls-2" d="m61.66,68.99l-.65-1.26.13-.07.67,1.25-.15.09"/>
        <path id="Path_2816" data-name="Path 2816" class="cls-2" d="m62.1,68.38c-.58-.22-.6-.72-.66-1.19.21.38.42.75.66,1.19"/>
        <path id="Path_2817" data-name="Path 2817" class="cls-2" d="m65.29,84.88l-1.08,1.27-.1-.08,1.05-1.31.13.12"/>
        <path id="Path_2818" data-name="Path 2818" class="cls-2" d="m69.19,61.69l-.59,1.33-.13-.06.54-1.32.18.05"/>
        <path id="Path_2819" data-name="Path 2819" class="cls-2" d="m69.29,68.28c.21-.48.43-.96.64-1.44l.15.06c-.22.48-.43.96-.64,1.43l-.14-.06"/>
        <path id="Path_2820" data-name="Path 2820" class="cls-2" d="m76.25,57.95l1.77,3.13c-.06.03-.12.07-.18.1-.5-1.1-1.46-1.93-1.75-3.15l.15-.08"/>
        <path id="Path_2821" data-name="Path 2821" class="cls-2" d="m85.27,62.39c-.98-.03-1.93-.29-2.79-.74l2.83.59-.03.15"/>
        <path id="Path_2822" data-name="Path 2822" class="cls-2" d="m71.72,52.25h3.46v.08h-3.44s-.01-.05-.02-.08"/>
        <path id="Path_2823" data-name="Path 2823" class="cls-2" d="m80.32,54.99c.19.1.33.56.51.06l.42.45c-.06.11-.1.22-.13.35,0,.15,0,.29-.02.44l-.34-.86-.16.05.04.74h-.05l-.28-1.23"/>
        <path id="Path_2824" data-name="Path 2824" class="cls-2" d="m84.39,59.09c-.09.61-.18,1.22-.27,1.83l-.15-.02c.08-.61.17-1.22.25-1.83l.17.03"/>
        <path id="Path_2825" data-name="Path 2825" class="cls-2" d="m81.28,65.35l1.47-1.22s.07.09.1.13c-.44.47-.98.84-1.59,1.07h.01"/>
        <path id="Path_2826" data-name="Path 2826" class="cls-2" d="m83.85,59.09c-.06.5-.12.99-.17,1.49l-.17-.02c.05-.5.11-.99.16-1.49l.18.02"/>
        <path id="Path_2827" data-name="Path 2827" class="cls-2" d="m84.9,59.31l-.21,1.8-.13-.02c.06-.6.11-1.2.17-1.8l.16.02"/>
        <path id="Path_2828" data-name="Path 2828" class="cls-2" d="m76.1,62.49l1.32-1.25.1.12c-.39.47-.88.85-1.43,1.13h.01"/>
        <path id="Path_2829" data-name="Path 2829" class="cls-2" d="m82.6,55.33l.3,1.45-.16.03c-.1-.48-.19-.96-.28-1.44l.15-.04"/>
        <path id="Path_2830" data-name="Path 2830" class="cls-2" d="m79.59,60.29l-1.18-.69.08-.14,1.21.68-.11.15"/>
        <path id="Path_2831" data-name="Path 2831" class="cls-2" d="m82.27,63.44l-1.39,1.02-.09-.12,1.39-1.03.09.13Z"/>
        <path id="Path_2832" data-name="Path 2832" class="cls-2" d="m72.25,56.62l-1.08,1.33-.09-.07,1.07-1.35.1.09"/>
        <path id="Path_2833" data-name="Path 2833" class="cls-2" d="m80.07,56.57c-.07-.46-.13-.92-.2-1.38l.12-.02.25,1.39-.17.02"/>
        <path id="Path_2834" data-name="Path 2834" class="cls-2" d="m84.2,23.72l1.88-.43c.01.06.03.13.04.19-1.85.35-3.7.7-5.55,1.07s-3.71.78-5.72,1.21l.59.21-3.69.35c1.42-.39,2.15-1.61,3-2.69.16-.2.31-.39.46-.59l.11.09-1.94,2.61c1.82-.29,3.61-.67,4.94-2.16l.1.16-1.4,1.2c2.35-.06,4.1-1.35,5.82-2.76-.23.24-.45.48-.7.7-.28.24-.58.46-.88.68-.3.2-.57.44-.8.72.77-.19,1.54-.38,2.31-.58.31-.08.61-.18.91-.26.92-.2,1.78-.64,2.49-1.27.72-.58,1.48-1.1,2.29-1.56l.08.12-2.68,1.94h.47s.02.07.03.1l-2.17.88v.07"/>
        <path id="Path_2835" data-name="Path 2835" class="cls-2" d="m76.29,26l2.72-.15c0,.06,0,.12,0,.17h-2.72v-.02"/>
        <path id="Path_2836" data-name="Path 2836" class="cls-2" d="m57.55,15.2c-.15-1.11-.29-2.22-.44-3.33l.2-.03.47,3.33-.24.03"/>
        <path id="Path_2837" data-name="Path 2837" class="cls-2" d="m56.68,7.95c.09.57.19,1.15.28,1.73l-.16.03c-.1-.58-.19-1.16-.29-1.74h.17"/>
        <path id="Path_2838" data-name="Path 2838" class="cls-2" d="m41.09,62.27l-.58.55-.06-.04.31-.56-.69.04,1.41-.62c-.15.72-.32,1.5-.49,2.29l-.17-.03c.08-.51.16-1.01.26-1.62"/>
        <path id="Path_2839" data-name="Path 2839" class="cls-2" d="m49.7,55.95l-1.17-.94.08-.11,1.17.92-.08.13"/>
        <path id="Path_2840" data-name="Path 2840" class="cls-2" d="m36.94,65.6l.96-1.09.13.11-.96,1.09-.12-.11"/>
        <path id="Path_2841" data-name="Path 2841" class="cls-2" d="m42.8,36.23c-.95.48-1.78,1.16-2.46,1.98l1.12-1.38-2.28-.71c.01-.06.03-.12.04-.19,1.1.57,2.39.68,3.57.3"/>
        <path id="Path_2842" data-name="Path 2842" class="cls-2" d="m41.8,38.58l.64.41-.44.26.19.23s-.05.06-.07.09l-1.06-.83c.4-.05.53.64,1.07.26-.14-.12-.26-.24-.37-.35l.05-.07"/>
        <path id="Path_2843" data-name="Path 2843" class="cls-2" d="m45.51,22.06l.21-.28-.12.72.25-.11v.72l.31-.32c-.04.23-.07.41-.12.67l.25-.22c.03.22.06.45.09.69l.13-.1c.1.32.21.65.32.98l.14-.05v1.01l-.13.03c-.12-.22-.26-.44-.37-.67-.56-1.25-1.11-2.51-1.65-3.77-.09-.21-.24-.46.16-.53,0,.11.01.23.02.34l.19-.13v.69c.1-.23.14-.31.23-.51-.02.36-.03.61-.04.85h.14"/>
        <path id="Path_2844" data-name="Path 2844" class="cls-2" d="m48.52,25.44l.26-.06c-.07.35-.12.67-.18.99l-.13.03c-.59-1.76-1.18-3.53-1.77-5.3l.07-.04c.19.33.39.67.6,1.05h.08s.13.78.13.78l.14-.1c.17.24-.3.72.24.76.19.63.38,1.25.57,1.88"/>
        <path id="Path_2845" data-name="Path 2845" class="cls-2" d="m44.19,24.07c-.04-.2-.07-.4-.13-.59-.09-.36-.21-.71-.36-1.05-.39-.8-.82-1.58-1.18-2.42.12.13.23.26.37.42l.23-.33c-.03.29-.05.52-.07.75l.15.03c.06-.1.11-.2.2-.37v.85l.15.09.2-.42v.99s.09.02.13.03c.07-.09.15-.18.23-.28-.02.32-.03.61-.05.91l.15.05c.04-.09.09-.19.13-.29.21.25-.41.66.21.73-.05.27-.1.55-.15.82l-.21.05"/>
        <path id="Path_2846" data-name="Path 2846" class="cls-2" d="m33.29,17.13c-.13-.04-.26-.08-.38-.14-1.36-.83-2.72-1.66-4.05-2.54,1.71.49,3.01,1.68,4.5,2.56l-.07.12"/>
        <path id="Path_2847" data-name="Path 2847" class="cls-2" d="m43.46,23.31l-5.4-3.3c.59,0,4.33,2.26,5.4,3.3"/>
        <path id="Path_2848" data-name="Path 2848" class="cls-2" d="m39.87,19.44l.78,1.5-.18.09c-.26-.5-.52-1-.78-1.49l.19-.1"/>
        <path id="Path_2849" data-name="Path 2849" class="cls-2" d="m35.09,17.99l1.73.97-.08.16-1.74-.97.09-.16"/>
        <path id="Path_2850" data-name="Path 2850" class="cls-2" d="m35.45,17.94l-.53-1.09.15-.08.56,1.08-.18.08"/>
        <path id="Path_2851" data-name="Path 2851" class="cls-2" d="m43.94,19.15l.56,1.06-.14.08c-.19-.34-.39-.69-.58-1.03l.17-.11"/>
        <path id="Path_2852" data-name="Path 2852" class="cls-2" d="m80.9,31.43c-1.87.11-3.76-.1-5.55-.65,1.64.42,3.37.32,4.95-.29,0,.07.01.14.02.21l-1.61.37v.12s2.19.23,2.19.23"/>
        <path id="Path_2853" data-name="Path 2853" class="cls-2" d="m69.99,29.17c-.15-.25-.3-.51-.46-.78l.07-.05c.16.2.32.4.49.62l1.26-.66c-.06-.11-.11-.2-.21-.36l.54.29.07-.08c-.08-.13-.16-.25-.31-.49.28.19.46.31.7.48v-.41l.48.35c-.86.35-1.73.71-2.63,1.08"/>
        <path id="Path_2854" data-name="Path 2854" class="cls-2" d="m74.32,30.51c.56-.21,1.11-.42,1.67-.64.02.05.04.1.06.15l-1.65.62-.07-.13"/>
        <path id="Path_2855" data-name="Path 2855" class="cls-2" d="m62.59,24.42l.23,1.22h.11c.1-.88.19-1.78.29-2.67h.06s0,2.42,0,2.42c.49-.51.79-1.17.86-1.87-.01-.74-.01-1.48,0-2.22,0-.29.05-.58.14-.86.05,1.04.1,2.09.15,3.27.59-.73,1.27-1.17,1.25-2.16.04-.8.15-1.59.32-2.37l.17.02-.26,2.79c1.33-.97,1.54-2.49,1.89-3.93.08,1.06-.2,2.12-.79,3.01-.76.92-1.5,1.85-2.33,2.88l1.35-.65.06.11c-.28.17-.56.37-.85.52-.75.39-1.36,1.02-1.74,1.78-.49.97-.92,1.97-1.3,2.99-.07.19-.17.36-.26.54l-.14-.04c.02-.23.06-.45.14-.66.61-1.28.83-2.71.63-4.12"/>
        <path id="Path_2856" data-name="Path 2856" class="cls-2" d="m74.59,15.09l3.61-2.73c-.31.7-2.12,2.06-3.61,2.73"/>
        <path id="Path_2857" data-name="Path 2857" class="cls-2" d="m72.63,16.55l-2.44,1.74-.11-.15,2.41-1.79.14.2"/>
        <path id="Path_2858" data-name="Path 2858" class="cls-2" d="m68.99,19.15l.84-2.27.17.06-.8,2.28-.21-.08"/>
        <path id="Path_2859" data-name="Path 2859" class="cls-2" d="m67.74,20.27l1-.99-.05-.05-1,.99.05.05"/>
        <path id="Path_2860" data-name="Path 2860" class="cls-2" d="m36.41,24.31l-1.47-1.3.09-.1,1.48,1.3-.1.1"/>
        <path id="Path_2861" data-name="Path 2861" class="cls-2" d="m39.5,86.84l-2.09,3.51h-.03c.2-.48.4-.96.64-1.51l-.59.35-.03-.04c.69-.78,1.38-1.56,2.07-2.33l.03.03"/>
        <path id="Path_2862" data-name="Path 2862" class="cls-2" d="m40.85,68.55l.14,1.72c-.31-.52-.37-1.16-.14-1.72"/>
        <path id="Path_2863" data-name="Path 2863" class="cls-2" d="m39.65,69.39l-1.2-1.12s.08-.09.13-.14l1.19,1.11-.11.14"/>
        <path id="Path_2864" data-name="Path 2864" class="cls-2" d="m57.31,58.94l-.82-.99c-.41.28-.4.31.45,1.26-.49-.21-.85-.66-.94-1.19l.88-.58.03.03-.31.35.81,1.02-.1.08"/>
        <path id="Path_2865" data-name="Path 2865" class="cls-2" d="m69.06,47.62l1.03,1.39-.12.09-1.03-1.39s.08-.06.12-.08"/>
        <path id="Path_2866" data-name="Path 2866" class="cls-2" d="m76.07,79.02l-2.94-3.27c1.48.7,2.09,2.1,3.1,3.11l-.15.15"/>
        <path id="Path_2867" data-name="Path 2867" class="cls-2" d="m62.64,32.43c.22-.37.37-.74.98-.67.49.05,1-.1,1.53-.08l-2.12.64s0,.09,0,.13c.05-.12.1-.25.2-.47l-.47.58s-.08-.09-.12-.13"/>
        <path id="Path_2868" data-name="Path 2868" class="cls-2" d="m66.02,33.45l2.87,1.34-.08.17-2.86-1.36s.04-.09.06-.14"/>
        <path id="Path_2869" data-name="Path 2869" class="cls-2" d="m65.12,32.74l-.99-.05c.03.27.05.57.08.86l-.12.02c-.08-.32-.15-.65-.25-1.05l1.29.07v.16"/>
        <path id="Path_2870" data-name="Path 2870" class="cls-2" d="m59.33,36.02c-.1-1.33-.19-2.6-.28-3.84.4,1.24.5,2.55.28,3.84"/>
      </g>
    </g>
  </g>
</svg>