<?xml version="1.0" encoding="UTF-8"?>
<svg id="Layer_1" data-name="Layer 1" xmlns="http://www.w3.org/2000/svg" viewBox="0 0 122 105.38">
  <defs>
    <style>
      .cls-1 {
        fill: #fff;
        stroke-width: 0px;
      }
    </style>
  </defs>
  <path id="Path_6259" data-name="Path 6259" class="cls-1" d="m98.63,42.49c5.24,1.08,10.49,2.13,15.72,3.24,1.58.31,3.13.76,4.63,1.34.95.46,1.82,1.09,2.54,1.87.7.67.62.98-.26,1.45-.78.41-1.62.68-2.43,1.03-2.31,1-4.68,1.9-6.92,3.05-1.89.94-4.01,1.31-6.11,1.06-.15-.01-.3-.04-.45-.05-.02,0-.04.02-.14.07,1.07.59,2.09,1.19,3.14,1.72,2.68,1.35,4.99,3.33,6.73,5.77.29.42.5.9.61,1.4.15.5-.13,1.02-.63,1.17-.06.02-.12.03-.19.04-1.45.33-2.9.69-4.37.94-3.14.51-6.35-.29-8.88-2.22-4.42-2.99-9.17-5.45-14.17-7.32-1.94-.77-3.99-1.26-5.99-1.87-.03.07-.05.14-.08.21,1.37.68,2.71,1.42,4.11,2.02,5.68,2.4,9.97,6.47,13.72,11.22.38.42.82.78,1.31,1.06.79.38,1.55.83,2.26,1.36,2.23,2.16,4.36,4.42,6.52,6.65.14.18.25.38.34.59-1.47,1.03-2.96.4-4.55.18.35,1.97,1.07,3.94-.38,5.78-2.15-1.5-4.47-2.75-6.91-3.71-1.37-.72-2.69-1.53-3.94-2.44-.49-.39-1.03-.72-1.6-.97.17.25.36.49.52.75,1.4,2.28,2.83,4.55,4.18,6.86.33.62.55,1.29.64,1.99.21,1.38-.43,2.16-1.82,2.06-1.24-.14-2.46-.37-3.67-.67-.69-.2-1.39-.33-2.11-.4.32.59.6,1.2.97,1.75.61.91,1.31,1.76,1.94,2.66.66.93.92,2.09.73,3.21-.08.79-.08,1.58,0,2.36.06,1.01-.44,1.5-1.38,1.13-.92-.39-1.82-.84-2.68-1.36-.95-.53-1.88-1.1-2.67-1.56-.33,1.37-.61,2.69-1,3.97-.18.29-.5.46-.84.45-1.01-.19-1.97-.54-2.86-1.05-1.04-.8-1.98-1.71-2.81-2.72-1.27-1.44-2.54-2.89-3.66-4.44-1.39-1.92-2.62-3.95-3.92-5.93-.09-.18-.23-.32-.4-.41.16,1.52.25,3.05.5,4.55.45,2.72.08,5.52-1.07,8.03-.77,1.75-1.57,3.49-2.36,5.23-.11.25-.24.49-.39.72-.78,1.25-1.5,1.38-2.74.57-.45-.3-.94-.53-1.45-.69-.95-.3-1.7-1.03-2.02-1.98-1.07-2.81-2.15-5.62-3.06-8.49-.77-2.43-1.22-4.97-1.96-7.42-.72-2.94-.97-5.97-.75-8.98v-.6l-.24-.04c-.42,2-.88,4-1.24,6.01-.92,4.82-1.45,9.71-1.59,14.62.08,1.43-.46,2.83-1.48,3.83-1.39-.99-2.23-2.57-2.28-4.28-.19-2.65.03-5.31.66-7.89.55-2.84,1.21-5.66,1.81-8.49.06-.29.11-.58.16-.87l-.3-.13c-.89,1.88-1.78,3.76-2.66,5.64s-1.66,3.78-2.61,5.61c-.93,1.74-2.48,3.07-4.34,3.73-1.74.56-3.33,1.53-4.62,2.83-.98,1.09-1.99.66-2.33-.81-.15-.64-.37-1.27-.56-1.94-1.2.71-2.37,1.32-3.6.62-1.73-.83-2.81-2.6-2.75-4.52-.09-2.3.34-4.58,1.24-6.7-2.22.66-4.6.24-6.42,1.93l-.22-.18.76-6.54c-.6.42-1.24.9-1.91,1.34-2.21,1.66-4.9,2.56-7.66,2.57-.09,0-.18,0-.27,0-1.08.26-1.44.06-1.48-1.06,0-.97.08-1.94.26-2.9.27-1.59.62-3.16.96-4.89-1.26.46-2.65.41-3.87-.14-.51-.08-1.03-.1-1.54-.07-1.01-.08-1.4-.57-1.67-1.51-1.08-3.76.15-7.08,1.87-10.31.4-.74.88-1.44,1.25-2.05-.83-.26-1.64-.57-2.48-.75-.67-.1-1.35-.17-2.03-.2-.61-.06-1.22-.15-1.83-.22.05-.55.19-1.08.43-1.58.56-.78,1.25-1.47,2.03-2.04,4.27-2.87,9.23-4.56,14.37-4.89,2.44-.19,4.89-.41,7.35-.77-1.43-.22-2.85-.54-4.3-.66-3.99-.35-7.86-1.56-11.34-3.54-.81-.42-1.65-.77-2.52-1.06-1.34-.45-2.53-1.24-3.48-2.28-1.39-1.59-2.85-3.12-4.09-4.81-.63-1.03-1.13-2.14-1.47-3.29-.23-.51,0-1.11.5-1.34.05-.02.11-.04.17-.06,1.16-.52,2.36-.92,3.6-1.21,4.86-.74,9.8-.76,14.66-.07.24.03.48.04.85.07-.14-.2-.3-.4-.46-.58-2.08-1.87-4.28-3.64-6.23-5.64-1.46-1.59-2.79-3.29-3.98-5.09-.64-.91-.42-1.18.59-1.56,1.21-.34,2.51-.23,3.65.31.65.22,1.3.45,1.98.68-.36-1.76-.69-3.41-1.05-5.06-.26-1.19,0-1.44,1.18-1.29,1.14.15,2.3.18,3.52.27-.09-1.39-.2-2.71-.27-4.04-.05-.94-.1-1.89-.07-2.83.03-.84.34-1.51,1.37-1.39.36-1.03.67-1.28,1.71-.88,2.02.76,4,1.63,5.98,2.5,2.28,1,4.54,2.06,6.97,3.16-.56-2.95-1.06-5.76-1.64-8.54-.21-1,.03-1.52,1.07-1.48,2.06.01,4.07.62,5.78,1.76,1.56,1.16,3.04,2.41,4.46,3.75.94.85,1.76,1.83,2.64,2.75l.24-.11c-.2-1.77-.4-3.54-.61-5.41.92.08,1.75.56,2.28,1.32,2.91,4.06,6.26,7.81,8.4,12.39.46.99,1,1.93,1.63,3.14.13-1.41.21-2.57.35-3.72.18-2.28,1.3-4.39,3.09-5.82,1.39-1.29,2.5-2.85,3.27-4.58.42-1.03,1.21-1.85,2.22-2.31.25-.09.4-.43.67-.75.24.27.4.47.59.64.69.67,1.44,1.29,2.08,2,.7.7,1.31,1.49,1.82,2.33.82,1.53,1.55,3.1,2.2,4.71.43,1.03.75,2.12.93,3.22.32,2.03.48,4.08.72,6.28,1.63-1.75,3.55-3.21,5.68-4.3.77-.54,1.5-1.14,2.17-1.79.35-.3.64-.66,1-.93.49-.51,1.3-.53,1.81-.04.17.16.29.36.35.58.3.7.47,1.44.49,2.2,0,2.42-.11,4.84-.18,7.32.87-.23,1.89-.53,2.92-.75.94-.24,1.91-.38,2.88-.42,1.41,0,1.83.7,1.6,2.08-.17,1.05-.26,2.12-.27,3.18-.02,2.43-.81,4.79-2.25,6.74-.15.21-.3.43-.6.88,1.04-.42,1.87-.71,2.66-1.08,2-.94,4.27-1.15,6.42-.62,1.32.23,2.65.37,3.99.4.68.05.88.38.64.96-.19.54-.48,1.04-.85,1.48-.58.58-1.22,1.1-1.91,1.55-1.64,1.1-3.3,2.15-4.96,3.22l.1.22m-27.2-2.93l-.34.49,1.97,1.99c-.04.12-.07.25-.11.37.62-.19,1.25-.35,1.86-.56.8-.35,1.63-.66,2.47-.9,1.51-.36,3.05-.6,4.6-.71,6.2-.27,12.91-5.87,12.4-13.56-.97.82-1.58,2.06-2.92,2.38,1.27-1.54,2.96-2.74,3.56-5.01-.62-.05-1.24-.05-1.86.02-2.29.47-4.56,1.13-6.86,1.51-7.29,1.18-12.08,5.5-15.23,11.92-.2.58-.34,1.19-.39,1.8,3.68-3.56,7.42-6.73,12.12-8.57,0,.1-.07.19-.16.23-3.85,1.72-6.89,4.56-9.99,7.3-.4.4-.77.84-1.1,1.3m49.07,9.09c-1.27-1.05-2.8-1.74-4.43-2.01-5.39-1.18-10.77-2.34-16.17-3.44-3.93-.95-8.05-.85-11.93.3-2.28.75-4.65,1.23-6.96,1.89-1.17.34-2.31.74-3.43,1.21-.31.13-.5.57-.74.86l.21.18c5.42-1.31,10.94-2.11,16.51-2.41-2.07.35-4.15.63-6.22.96-2.03.32-4.05.69-6.07,1.04,6.09-.52,12.23-.24,18.25.83-7.32-.67-14.62-1.04-21.91.48,0-.09-.02-.18-.03-.28l2.03-.59s-.02-.08-.03-.11l-2.52.47c.77,1.39,2.13,2.35,3.69,2.61,2.35.5,4.73.86,7.12,1.1,5.77.48,11.56.71,17.08,2.75,2.33.87,4.94.57,7.01-.82,2.65-1.63,5.54-2.84,8.56-3.59.26-.11.5-.27.72-.46l-.55-.76-.2-.21m-67.78,1.91c-.36-.55-.79-1.06-1.27-1.51-.52-.25-1.08-.4-1.66-.46.35.55.76,1.62,1.06,1.58,1.04-.11.66.6.81,1.01.18.47.38.93.57,1.39l.26-.11c-.07-.31-.11-.63-.1-.95.08-.34.2-.67.35-.99.22.53.5,1.03.83,1.49.41.36.86.66,1.35.91l.03.23-2.1.17c.15.81.46,1.01,1.21.75l1.4,1.62c.27-.53.45-.86.62-1.19l-.02-.02c.14.23.26.48.36.73.37,1.18.84,1.53,2.04,1.5.24.02.48.07.71.13l-1.05.76c.43.88,1.13.68,1.83.47.27.89,1.19,1.41,2.08,1.18v-1.38l-.02.02c.32.07.63.18.92.34.96.73,1.43.65,1.86-.47.9,1.11,1.89,1.05,2.95.07l.12.3-.67.89c1.13.77,1.52.7,2.1-.36-.56-.16-1.23-.21-1.38-.9.71.07,1.43.35,1.93.13.48-.21.73-.94,1.08-1.44l.25.08c-.2.62-.41,1.23-.67,2.04l1.73-.51c-.13-.68-.22-1.14-.33-1.7,1.45.6,1.79.38,2.63-1.63.21.43.37.75.53,1.06.7-.24,1.09-.99.87-1.7.27-.57.51-1.15.71-1.74.16-.6.28-1.22.34-1.84.15-.69-.11-1.41-.67-1.84l-.83.53v-2.6l-.36.03c.1,1.03.2,2.07.31,3.1s.48,2.18-.45,2.92c-.67.58-1.19,1.31-1.5,2.14-.32.94-1.34,1.44-2.28,1.12-.13-.04-.25-.1-.36-.17-.16-.11-.22-.35-.33-.53.83.23,1.55.55,2.14-.16.38-.39.61-.9.66-1.44-.03-.37-.65-.69-1.1-1.11,2.1.09,2.65-.39,2.63-2.12l-1.11.28c.39-.65,1.05-1.25.96-1.71-.26-1.43.31-3.19-1.44-4.07.56-.8.01-1.01-.69-1.44.27,1.01.61,1.99,1.02,2.95.45.9.6,1.98.02,2.52-.13-1.21.02-2.53-1.23-2.79.09-.54.27-.93.16-1.2-.22-.38-.49-.72-.81-1.01.57-.55.53-.61-1.41-1.99.22-.15.42-.28.54-.37-.03-1.22-1.09-1.26-1.83-1.65.03-.07.06-.13.09-.2l1.08-.11c-.29-1.29-.62-1.66-1.47-1.75.13.43.27.86.4,1.3l-.24.18c-.74-.28-.8-1.67-1.67-1.31-.04-.54-.07-.99-.1-1.43l-.79.11c-.81-.54-1.57-1.03-2.31-1.56-.17-.12-.3-.3-.35-.51-.64-4.49-.52-9.06.36-13.51.05.27.07.54.06.81-.07,3.75-.1,7.49-.23,11.24-.04,1.13.28,1.79,1.7,1.83.94-8.32,1.89-16.71,2.83-25.02-.13,2.38-.16,4.85-.43,7.3-.65,5.81-1.42,11.61-2.12,17.42.02.37.1.73.23,1.08.44-.13,1.05-.11,1.28-.4,2.07-2.63,4.14-5.28,6.09-8,2.29-3.3,3.13-7.4,2.31-11.34-.54-3.3-2.13-6.21-3.53-9.18-.44-.93-1.51-1.56-2.29-2.32l-.25.2c.91,2.25,1.24,4.69.94,7.1-.09-2.84-.77-5.63-1.99-8.2-1.28.84-2.25,2.06-2.78,3.5-.51,1.38-1.47,2.55-2.72,3.32-1.36.8-2.31,2.16-2.59,3.72-1.13,5.18-.77,10.57,1.03,15.56.44,1.21.72,2.48.83,3.77.05.64-.19.69-.73.68-.64.02-1.29.08-1.93.17-.18,0-.37-.02-.55-.05.17-.29.24-.55.42-.67.64-.46.87-1.3.58-2.03-.14-.66-.14-1.34-.29-1.99-.2-1.19-.54-2.36-1.01-3.48-1.6-3.05-3.31-6.04-5.09-8.98-.9-1.45-1.92-2.83-3.06-4.1-2.25-2.56-4.58-5.04-6.9-7.54-2.41-2.58-5.17-4.55-8.8-4.95-.46-.03-.92-.03-1.38-.01.39,1.78.76,3.31,1.06,4.87.54,3.39,2.15,6.52,4.6,8.93,3.83,3.66,7.56,7.41,10.36,12.01,1.43,2.35,3.41,4.37,5.07,6.59.4.64,1.09,1.05,1.85,1.07.52.08,1.02.22,1.51.41-.03.12-.06.25-.09.38-.48-.09-.96-.15-1.45-.19-.36,0-.93.02-1.04.23-.51.93-1.21.75-1.95.49-.85-.3-1.26.06-1.47.85-.06.26-.17.5-.3.87-.75-1.27-.57-1.85.57-2.44-.28-.68-.59-1.34-.83-2.02-1.4-4.24-3.62-8.16-6.55-11.54-3.08-3.49-6.48-6.71-9.76-10.02-.43-.38-.92-.69-1.45-.91-1.21-.57-2.45-1.08-3.67-1.63-2.69-1.21-5.38-2.44-8.09-3.61-.32-.14-.77.04-1.16.08.08.35.21.7.39,1.01,1.51,1.76,3.3,3.27,5.31,4.44.6.38,1.21.74,1.81,1.11-2.82-.99-5.33-2.72-7.25-5.01-.33-.55-.98-.82-1.6-.67-.06.98-.16,1.95-.16,2.92-.06,2.39.61,4.75,1.91,6.76.42.64.86,1.25,1.29,1.88-.19-.14-.45-.23-.56-.42-1.6-2.73-4.38-2.76-7.1-3.11,1.17,3.41,3.65,6,5.22,9.15l-4.88-6.43c.36,1.36.84,2.68,1.44,3.96,1.24,2.41,2.7,4.7,3.93,7.1,2.51,4.93,6.59,8.89,11.59,11.24,4.42,2.17,9.25,2.99,13.95,4.24.35.09.71.12,1.14.19l1.56-3.71c-.12-.82-.22-1.54-.31-2.2-1.41-.6-2.78-1.32-4.08-2.13-3.53-2.55-6.94-5.25-10.42-7.88-.92-.74-1.89-1.41-2.92-1.98-2.58-1.38-4.91-3.2-6.87-5.38-.54-.69-1.02-1.43-1.42-2.21.23.24.46.48.67.72,2.7,3.25,6.15,5.79,10.05,7.42,2.46,1,4.75,2.37,6.8,4.06,2.55,2.03,5.11,4.04,7.65,6.09.51.53,1.34.59,1.92.15-1.66-3.31-3.89-6.3-6.58-8.84.36.16.68.38.96.66,1.34,1.32,2.61,2.72,3.8,4.18,1.03,1.52,1.98,3.1,2.84,4.73-1.67.21-1.85.54-.99,1.96l.65-.82.25.14c-.26.66-.45,1.35-.56,2.05.04.74.16,1.48.36,2.2-1.1-.72-1.07-1.66-1.01-2.75-1.42,1.38-.86,2.67-.09,3.97l-.27.11-.99-.66c-.41.6-.32,1.41.21,1.9.28.29.49.55.22,1.02-.33.57-.14,1.31.43,1.64.01,0,.03.02.04.02.11-.13.25-.22.25-.32.06-1.03.15-2.07.14-3.11-.01-.94.18-1.33,1.04-1.36-.81,1.27-.33,2.27.57,3.19l.81-1.37c.25,1.53.41,2.88,2.19,2.98l-.12.31-1.54.37c-.14,1.24,1.08,1.51,1.71,2.2l-.15.22c-.46-.13-.92-.27-1.38-.4M1.9,35.13c.15.44.35.87.58,1.28,1.07,1.48,2.11,2.99,3.3,4.38.74.92,1.65,1.7,2.66,2.31,2.58,1.43,5.23,2.74,7.94,3.91,1.63.6,3.31,1.03,5.02,1.28,1.88.37,3.84.43,5.68.92,3.53.88,7.21.99,10.78.33,2.17-.34,4.31-.82,6.48-1.15.94-.08,1.88-.12,2.82-.1.62-.03.78-.45.66-.96s-.14-1.17-.9-1.14c-5.13.15-10.25-.32-15.26-1.4-2.04-.41-4.06-.94-6.09-1.42,3.53.53,7.02,1.25,10.55,1.69s7.11.62,10.67.92c.03-.13.06-.26.1-.38-1.01-.45-2.02-.91-3.03-1.34-2.13-.9-4.27-1.77-6.4-2.67-.74-.41-1.51-.77-2.31-1.07-3.2-.91-6.18-2.48-8.75-4.6-2.43-1.96-5.28-3.34-8.32-4.03-4.27-.89-8.57-.01-12.85,0-1.12.06-2.15.64-2.77,1.57,4.27.14,7.97,1.84,11.72,3.35-4-1.06-7.82-2.83-12.04-2.84-.05.15-.11.29-.16.43l4.04,2.09-.06.15-4.04-1.53m36.73,59.6c3.52-.83,7.22-2.98,8.75-7.14,1.04-2.82,2.45-5.49,3.7-8.24,1.85-4.07,3.87-8.08,4.89-12.47.44-1.89.7-3.83,1.12-5.73.39-1.79.43-1.78-.26-3.7-1.37,5.59-3.39,11-6,16.14.41-1.26.97-2.47,1.4-3.73,1.4-4.03,2.75-8.07,4.13-12.1.17-.51.12-.87-.47-1.05s-1.15-.41-1.92-.69c-.6.67-1.11,1.41-1.53,2.2-.79,1.9-2.16,3.5-3.92,4.58-2.6,1.71-5,3.71-7.15,5.96-2.11,2-3.75,4.44-4.79,7.15-1.01,3-1.86,6.05-2.55,9.13-.75,3.3-.28,6.76,1.32,9.75l1.45-4.15.21.07c-.18.47-.33.96-.45,1.45-.26,1.3-.52,2.61-.68,3.92-.04.31.31.66.48.99.28-.23.72-.41.83-.7.53-1.29.96-2.62,1.28-3.98.77-3.46,2.25-6.72,4.36-9.57-2.19,3.65-3.62,7.7-4.22,11.92m26.08,1.64c.08.15.14.3.19.46.24,1.26.48,2.51.68,3.77.16,1.05.21,2.13.41,3.17.1.4.35.74.7.94.15.08.65-.32.87-.6.29-.35.51-.77.62-1.21.38-1.86,1.05-3.65,2-5.29,1.69-2.89,1.4-6.15.92-9.28-.51-3.12-1.18-6.21-2-9.26-.79-3.07-1.8-6.08-2.66-9.12-.4-1.37-.71-2.76-.95-4.16-.22-1.35-.22-2.73-.41-4.08-.2-1.38-1.18-2.35-2.77-1.67-.3.14-.65.18-.97.11-.74-.22-.95.09-1.08.76-.36,1.85-.78,3.69-1.19,5.54-.99,4.45-2.4,8.85-1.71,13.51.16,1.11.18,2.25.38,3.36.54,2.96,1.1,5.92,1.73,8.86.29,1.33.78,2.62,1.19,3.93.65,2.02.96,4.19,2.28,5.93.53.57,1.11,1.1,1.73,1.56.68-2.62-.32-4.89.04-7.23m-10.77-41.1l-.18-.36c-5.13.47-9.64,2.9-14.28,4.89l-.12-.28,9.38-4.28c-2.21.39-4.38.95-6.5,1.67-2.1.75-4.11,1.74-6.17,2.62,4.97-2.97,10.19-5.15,16.19-5.15-.29-.45-.61-1.08-.98-1.11-1.24-.09-2.49-.06-3.73.08-2.67.32-5,1.68-7.46,2.65-.7.29-1.43.5-2.17.64-3.23.5-6.35,1.56-9.21,3.13-1.72.99-3.46,1.94-5.12,3.01-1.79,1.09-3.5,2.32-5.1,3.68-2.76,2.46-4.3,6.02-4.18,9.73,1.22-1.86,2.75-3.49,4.53-4.82-2.23,2.32-4.12,4.96-5.61,7.82-.47.84-.55,1.85-.22,2.75,1.39-2.41,3.34-4.44,5.69-5.93-1.6,1.96-3.41,3.77-3.72,6.62.99-.21,1.97-.47,2.92-.8,3.24-1.43,6.16-3.51,8.56-6.11,1.09-1.19,2.25-2.31,3.46-3.38,2.65-2.19,5.39-4.29,8.09-6.42,4.35-3.43,8.67-6.92,13.83-9.16.75-.42,1.46-.93,2.1-1.51m-42.29,11.52l.13.08c-.46.98-.87,1.98-1.39,2.93s-1.14,1.83-1.75,2.77c.36.09.77.19,1.18.28,1.51.54,3.19-.19,3.83-1.66.72-1.23,1.62-2.35,2.66-3.32,1.93-1.95,4.08-3.67,6.4-5.13,1.55-.92,3.13-1.78,4.63-2.76,2.93-1.82,6.18-3.07,9.58-3.67.63-.08,1.26-.22,1.87-.41,2.45-1,4.85-2.12,7.33-3.06,1.36-.43,2.74-.79,4.14-1.06.29-.07.56-.17.85-.26-.33-.24-.71-.39-1.12-.43-1.33-.29-2.68-.43-4.03-.44-3.58.38-7.09,1.22-10.46,2.5-.3.11-.6.21-.9.32.03-.17.09-.24.17-.27,4.82-1.87,9.64-3.73,15.17-2.82-.32-.28-.66-.53-1.01-.76-1.63-.79-3.48-1.03-5.26-.66-2.56.41-5.08,1.04-7.65,1.34-4.45.53-8.92.83-13.38,1.32-2.47.27-4.77,1-6.36,3.15-.33.4-.74.73-1.2.97-2.86,1.73-5.18,4.23-6.68,7.22-1.09,1.84-1.75,3.91-1.93,6.04.05.74.18,1.47.38,2.18,2.69-5.2,8.93-11.52,12.2-12.13-.89.6-1.76,1.16-2.6,1.76-3.8,2.59-6.85,6.14-8.82,10.29-.27.59-.23.96.63,1.22l3.39-5.51m64.01,3.28l-.02.05c-1-1.05-2.05-2.06-2.99-3.17-1.63-1.74-2.94-3.74-3.9-5.92-.17-.26-.45-.42-.76-.42-.28.06-.71.41-.71.64-.12,1.54-.06,3.08.17,4.61.76,2.65,2.1,5.09,3.92,7.16,3.18,4.1,7.17,7.39,11.07,10.75.83.62,1.77,1.08,2.76,1.37,2.38.86,4.76,1.68,7.18,2.4,1.14.33,2.31.52,3.49.56,1.06.04,1.42-.48,1.19-1.54-.15-.75-.4-1.47-.76-2.14-2.29-4.39-5.25-8.39-8.78-11.86-.92-.83-1.94-1.55-3.04-2.12-3.71-1.9-7.21-4.2-10.42-6.85-.68-.61-1.43-1.14-2.23-1.58-.85-.39-1.73-.73-2.62-1.01-.07.09-.14.19-.21.28l6.66,8.79m2.36-16.26c1.98.22,3.95.55,5.89.99,4.81,1.56,9.45,3.62,13.83,6.13,1.66.88,3.17,2.04,4.81,2.98,2.51,1.51,5.5,2.01,8.36,1.39,1.21-.25,2.47-.28,3.69-.47.26-.12.44-.36.47-.64-.1-.38-.28-.73-.54-1.03-1.75-2.28-3.96-4.15-6.5-5.49-3.02-1.57-5.93-3.44-9.37-3.98-2.58-.41-5.19-.69-7.8-.92-1.38-.12-2.77-.02-4.16-.02l.02.1,7.19,2.13c-.03.09-.06.19-.08.28-.74-.23-1.47-.46-2.21-.68-4.14-1.31-8.5-1.78-12.82-1.38-.44.05-.99-.03-.79.6m30.69,24.02l.15-.09c-1.55-1.59-3.1-3.18-4.63-4.78-1.55-1.56-3.43-2.75-5.51-3.48-2.64-1.01-5.2-2.21-7.82-3.28-2.46-1.01-4.95-1.97-7.66-3.04,2.82,2.17,5.43,4.17,8.04,6.17l-.15.2-7.43-5.42-.24.28c.35.24.7.48,1.05.73l-.17.19c-.23-.17-.47-.33-.69-.51-2.32-2.04-5.15-3.43-8.19-4.02-.63-.06-1.27-.06-1.9-.02.25.6.56,1.17.92,1.71,2,2.23,4.41,4.06,7.1,5.37,3.43,1.73,6.58,3.96,9.34,6.64,1.84,1.96,4.57,2.82,7.2,2.29,1.36-.16,2.74-.15,4.09.05,1.6.16,3.18.51,4.78.78l.09-.29-6.59-2.83c1.45.3,2.87.72,4.25,1.27,1.37.59,2.65,1.39,3.98,2.1m-59.52-17.11l-.17-.17c-3.9,2.99-8.1,5.58-11.52,9.18,3.46-4.29,8.09-7.22,12.38-10.57-1.24.31-2.45.73-3.61,1.28-2.91,1.61-5.61,3.57-8.03,5.84-2.67,2.31-5.32,4.65-8.08,6.85-3.67,2.75-6,6.92-6.43,11.48,1.02-.31,2.07-.55,3.12-.71,1.75-.09,3.31-1.11,4.11-2.67.98-1.72,2.2-3.29,3.62-4.68.7-.73,1.31-1.53,1.83-2.39,1.78-2.99,4.03-5.68,6.66-7.96,1.4-1.22,2.89-2.34,4.3-3.55.64-.61,1.26-1.25,1.83-1.92m21.08,13.02l-.2.11c.45.88.86,1.78,1.35,2.64,1.5,2.65,2.97,5.31,4.55,7.91,1.12,1.95,2.38,3.82,3.79,5.57,1.7,1.98,3.89,3.48,6.35,4.36,2.49.9,5.08,1.49,6.91,3.89-.08-.87-.07-1.74.03-2.61.3-1.23.03-2.53-.73-3.54-.61-.87-1.31-1.69-1.9-2.57-.98-1.48-2.42-2.59-4.1-3.17-1.45-.55-2.84-1.24-4.15-2.07-1.14-.77-2.24-1.6-3.3-2.49l-.09.09,4.44,6.22-.19.15c-3.2-4.52-6.8-8.74-10.75-12.61l6.06,9.13-.21.14-7.84-11.14m3.7-41.8c.29-.31.6-.61.88-.93,2.31-2.67,5.4-4.55,8.84-5.37.95-.23,1.89-.5,2.85-.66.68-.11,1.04-.43,1.07-1.1.11-2.4.24-4.8.29-7.19-.05-.51-.22-1.01-.49-1.45-.24-.48-.54-.62-1.06-.15-.98.95-2.06,1.8-3.22,2.52-3.07,1.79-5.6,4.37-7.34,7.47-1.24,2.1-2.67,4.08-3.94,6.16-.93,1.52-2.17,2.87-2.5,4.72-.1.6-.01.94.64,1.11,1.14-5.19,4.46-9.08,7.6-13.08-2.11,3.3-4.49,6.42-6.03,10.07,2.64-4.11,6.07-7.66,10.08-10.45-2.94,2.39-5.53,5.2-7.67,8.33m9.84,11.44l.09.22,8.4-3.06c.02.06.05.12.07.18l-3.12,1.39c1.08-.08,2.12-.34,3.18-.42,1.06-.06,2.13-.04,3.19.06,1.54.22,3.08-.42,4.01-1.66.93-1.27,2.36-2.1,3.93-2.27,1.24-.14,1.73-1.08,2.17-2.13-.17-.1-.36-.17-.55-.22-1.87-.21-3.74-.44-5.61-.59-2.94-.22-5.31,1.56-7.96,2.36-2.84,2.6-6.47,3.82-9.79,5.57-.53.28-1.03.61-1.54.92.05.12.1.24.15.37.6-.11,1.19-.28,1.76-.49,2.33-1.12,4.63-2.3,6.96-3.44.56-.27,1.15-.48,1.73-.71l.04.11-7.1,3.82m-6.5,12.44l-.32.18c.09.52.26,1.01.5,1.48,1.75,2.29,3.66,4.43,6.47,5.44,3.61,1.2,7.12,2.69,10.5,4.46,1.1.52,2.23.96,3.39,1.33-4.72-6.58-14.6-13.16-19.37-13.02,2.36.9,4.53,2.23,6.41,3.91l-4.71-2.63c-.03.06-.07.11-.1.17l3.68,3.24-.14.16-6.3-4.72m7.78,44.15c.09-.52.26-1.03.5-1.5.42-.44.45-1.12.07-1.59-.58-.76-1.26-1.43-2.03-2-1.6-.89-3.01-2.07-4.18-3.48-2.42-3.51-4.8-7.04-7.15-10.59-1.04-1.57-1.96-3.21-2.93-4.82.08.8.25,1.6.5,2.36,2.62,7.15,5.96,13.89,11.59,19.21,1.14.91,2.35,1.72,3.62,2.42m-28.17-33.54c-.97,2.72-1.92,5.34-2.85,7.97-1.83,5.62-3.19,11.39-4.06,17.23-.46,2.19-.4,4.45.18,6.61.21.57.45,1.13.72,1.67h.36c.33-.81.59-1.64.76-2.49.33-2.88.51-5.77.83-8.64.43-4.09,1.15-8.14,2.15-12.13.79-3.09,1.23-6.27,1.82-9.42.05-.25.05-.51.08-.81M3.86,58.19c.57.04,1.02.03,1.46.1.74.06,1.47.22,2.17.45.9.54,2.05.34,2.72-.47.79-.71,1.62-1.37,2.49-1.98.71-.51,1.55-.88,2.22-1.43,2.01-1.65,3.8-3.65,6.66-3.92-1.89.11-3.77.33-5.64.65-3.75.72-7.31,2.21-10.44,4.38-.87.44-1.48,1.26-1.64,2.22M47.92,3.61l-.2.08c.2,1.1.5,2.19.6,3.29.27,2.16,1.25,4.16,2.79,5.7,2.65,2.9,5,6.06,7.01,9.43.15.27.35.52.62.9.44-1.08.35-2.3-.23-3.31-2.09-3.99-4.13-8.01-7.1-11.46-.69-.8-1.22-1.75-1.85-2.6-.52-.7-1.09-1.36-1.64-2.04m-13.07,74.32c-2.34,2.65-4.54,5.32-5.24,8.87-.18.93-.39,1.85-.52,2.78-.17,1.56.33,3.13,1.37,4.3.33.42,1,.56,1.79.97.14-1.43.31-2.56.34-3.7-.04-2.77.25-5.53.86-8.24.45-1.67.93-3.33,1.4-4.99M9.92,18.91l-.2.39c2.76,4.09,5.58,8.12,10.53,10.18-.88-2.63-1.75-5.15-3.55-7.19-.54-.57-1.18-1.04-1.87-1.39-.99-.53-2-1.01-3.05-1.44-.61-.22-1.23-.4-1.86-.54m94.54,64.33c-.02-1.68-.42-3.34-1.18-4.84-.15-.25-.38-.44-.66-.54-2.08-.38-4.21-.39-6.29-.02.59.75,1.15,1.65,1.94,1.98,2.25.75,4.35,1.92,6.19,3.42m-23.66-41.25c-.92.1-1.83.15-2.72.31-1.01.18-2.01.43-3,.7-.5.14-.69.47-.46,1.05.42,1.07.62,1.24,1.64.67,1.54-.85,3.01-1.81,4.55-2.74m-6.6,15.4c.14.26.37.5.33.65-.18.93-.97,1.63-1.92,1.68.91.3,1.91-.13,2.31-1,.34-.72.54-1.34,1.21-1.25.25-.62.47-1.07.61-1.56.26-.88.47-1.78.7-2.67l-.39-.1c-.13.44-.23.88-.3,1.34-.07.73-.88,2.18-1.44,2.16-.51-.07-.98.25-1.12.74m-2.6,2.45l.06-.44-1.71-.57c-.17.45-.3.79-.52,1.37l2.17-.35m9.41-7.58c-.94-.24-1.83-.49-2.74-.67-.17-.03-.39.22-.59.34.17.15.33.44.5.44.93,0,1.86-.06,2.83-.11m-14.43,8.05c-.93-1.6-.96-1.61-1.57-.49l1.57.49m-16.43-13.71l1.19,1.78.28-.18c.02-.84-.63-1.55-1.47-1.6"/>
  <path id="Path_6260" data-name="Path 6260" class="cls-1" d="m71.42,39.57l10.64-6.46.07.07c-2.24,1.58-4.44,3.23-6.75,4.71-1.39.8-2.83,1.53-4.3,2.18l.34-.49"/>
  <path id="Path_6261" data-name="Path 6261" class="cls-1" d="m120.69,48.86c-.15.06-.33.2-.45.16-2.47-.92-5.07-.89-7.64-1.09-.57-.04-1.14-.11-1.71-.2,3.23-.35,6.5-.03,9.6.93l.2.21"/>
  <path id="Path_6262" data-name="Path 6262" class="cls-1" d="m66.09,43.65c.04.3.07.6.14.9.22,1,.87,1.36,1.95,1.04-.11.89-.21,1.75-.32,2.6l-.27.04c-.09-.56-.17-1.11-.26-1.69q-.71-.1-1.63,1.47c-.39-.91-.92-1.42-1.87-.69l.97.78s-.07.1-.1.15l-1.85-.27c.28-1.42-.14-2.01-1.62-2.14.2.61.4,1.2.59,1.79l-.25.11-1.71-2.71,1.59.27c.06-.1.11-.19.17-.29l-1.02-1.5-.7.77-.2-.08.45-1.96c.27,1,1,1.08,1.76.95.41-.15.8-.37,1.16-.63l-1.36-.61.06-.28,2.7.35c-.39,1.18.41,1.07,1.17,1,.01.08.02.15.03.23l-1.09.6.99.58.56-.76-.03-.03Zm-.79,2.67l-1.26-.07c-.04-.68-.07-1.23-.1-1.77h-.31c.02.42-.02.83-.11,1.23-.15.41-.5.74-.04,1.04l1.82-.42m-3.07-.93l.81-1.38-1.48-.32c.27.68.46,1.18.67,1.7"/>
  <path id="Path_6263" data-name="Path 6263" class="cls-1" d="m58.76,34.04c-.31-.64-.5-1.04-.69-1.44-1.54-3.31-3-6.66-4.65-9.91-1.57-3.01-3.65-5.71-6.16-8-.37-.35-.75-.69-1.08-1.07,4.03,1.88,12.11,14.91,12.58,20.41"/>
  <path id="Path_6264" data-name="Path 6264" class="cls-1" d="m41.53,21.99c4.63,3.45,7.93,8.38,9.36,13.97-1.95-5.34-5.16-10.13-9.36-13.97"/>
  <path id="Path_6265" data-name="Path 6265" class="cls-1" d="m59.07,53.83c.13,1.18.49,1.3,2.08.71.12,1-.08,1.22-1.38,1.51.38,1.2.62,1.26,3.11.63-.37.51-.61.85-.86,1.2l.02-.02c-1.81.51-2.35.1-2.91-1.78-.18-.6-.72-1.09-.67-1.84.03-.55.26-.51.63-.4l-.02-.02Z"/>
  <path id="Path_6266" data-name="Path 6266" class="cls-1" d="m66.14,34.93c1.6-4.34,2.57-8.89,2.87-13.5-.09,4.69-.37,9.33-2.87,13.5"/>
  <path id="Path_6267" data-name="Path 6267" class="cls-1" d="m57.53,33.69l-5.65-9.48c2.36,2.84,4.34,5.98,5.89,9.33l-.24.15"/>
  <path id="Path_6268" data-name="Path 6268" class="cls-1" d="m65.65,55.67c.63.64.25,1-.12,1.29-.85.54-1.97.39-2.65-.35-.48-.6-.1-.89.43-1.28.64.83,1.36,1.54,2.34.34"/>
  <path id="Path_6269" data-name="Path 6269" class="cls-1" d="m55.1,49.02c.16,1.07.97,1.92,2.02,2.14-.37.59-1.15.76-1.74.39-.03-.02-.06-.04-.09-.07-.73-.55-.87-1.59-.32-2.32.04-.05.08-.1.13-.15"/>
  <path id="Path_6270" data-name="Path 6270" class="cls-1" d="m56.08,54.5c-.72-.67-1.03-1.68-.8-2.64.63,1.1.91,2.82,2.76,1.53.04,1.05-.7,1.44-1.98,1.09l.02.02"/>
  <path id="Path_6271" data-name="Path 6271" class="cls-1" d="m53.81,44.32c.46.85.89,1.63,1.3,2.43.06.13.06.28,0,.41-.07.1-.33.19-.37.15-.46-.38-.85-.82-1.16-1.32-.37-.53-.26-1.25.24-1.66"/>
  <path id="Path_6272" data-name="Path 6272" class="cls-1" d="m51.64,39.78c-.25,1.01.22,2.06,1.14,2.55-.55.58-.81.55-1.48-.1-.73-.72-.66-1.59.34-2.44"/>
  <path id="Path_6273" data-name="Path 6273" class="cls-1" d="m54.76,37.66c-1.67.37-1.45,1.57-1.54,2.67-.62-.2-.96-.87-.76-1.48.03-.09.07-.17.12-.25.31-.85,1.25-1.28,2.09-.97.03.01.06.02.08.03"/>
  <path id="Path_6274" data-name="Path 6274" class="cls-1" d="m70.01,55.79c.04.29-.38.69-.81,1.03-.46.48-1.2.56-1.76.2-.26-.27-.47-.58-.64-.91.71.22,1.24.55,1.7.48.54-.18,1.05-.45,1.5-.8"/>
  <path id="Path_6275" data-name="Path 6275" class="cls-1" d="m60.84,36.03c-.56-.14-1.14-.2-1.72-.17-.49.1-.91.5-1.46.68.3-.95,1.31-1.47,2.26-1.17.37.12.69.35.92.67"/>
  <path id="Path_6276" data-name="Path 6276" class="cls-1" d="m59.09,53.85c-1.13-.99-1.22-1.18-.92-1.94.32.42.55.95.95,1.18.47.16.97.22,1.47.2l.05.28-1.57.27.02.02"/>
  <path id="Path_6277" data-name="Path 6277" class="cls-1" d="m70.42,44.16c1.26.34,1.47,2.05.39,3.36,0-1.24.65-2.4-.39-3.36"/>
  <path id="Path_6278" data-name="Path 6278" class="cls-1" d="m64.21,37.33q-.54-.83-2.33-1.26c.53-.54,1.39-.58,1.97-.08.57.41.68.77.37,1.34"/>
  <path id="Path_6279" data-name="Path 6279" class="cls-1" d="m69.22,42.91l-1.4-2.74c.92.03,1.74,1.51,1.4,2.74"/>
  <path id="Path_6280" data-name="Path 6280" class="cls-1" d="m59.66,50.78l3.1.6c-.47.67-2.25.41-3.1-.6"/>
  <path id="Path_6281" data-name="Path 6281" class="cls-1" d="m69.18,54.15l2.45-1.31c-.14.37-.34.71-.58,1.02-.47.53-1.25.65-1.87.3"/>
  <path id="Path_6282" data-name="Path 6282" class="cls-1" d="m66.12,43.67c-.19-.54-.38-1.08-.57-1.62l.27-.13c.5.8,1.01,1.6,1.51,2.4l-.17.21c-.35-.3-.71-.59-1.07-.89l.03.03"/>
  <path id="Path_6283" data-name="Path 6283" class="cls-1" d="m73.29,49.08c.03.5,0,1.01-.12,1.51-.22.43-.6.75-1.05.91.31-.78.62-1.56.93-2.34l.25-.07"/>
  <path id="Path_6284" data-name="Path 6284" class="cls-1" d="m54.95,38.48c-.12-.61.36-.9.82-1.12.46-.33,1.08-.32,1.52.03l-2.35,1.09"/>
  <path id="Path_6285" data-name="Path 6285" class="cls-1" d="m55.69,47.89c.8.52,1.49.96,2.17,1.4v.21c-.35-.02-.7-.08-1.04-.18-.64-.19-1.09-.76-1.13-1.43"/>
  <path id="Path_6286" data-name="Path 6286" class="cls-1" d="m61.62,53.52l2.31.81c-.26.54-.8.43-1.25.27-.5-.18-1.05-.4-1.06-1.08"/>
  <path id="Path_6287" data-name="Path 6287" class="cls-1" d="m65.31,54.68l2.74-.38c-.24.25-.37.5-.58.6-.69.39-1.56.3-2.16-.22"/>
  <path id="Path_6288" data-name="Path 6288" class="cls-1" d="m67.22,52.14c-.24.78-1.34.85-2.26,0h2.26Z"/>
  <path id="Path_6289" data-name="Path 6289" class="cls-1" d="m70.33,50.44l1.11-1.78c.31.59.08,1.33-.51,1.64-.19.1-.39.15-.6.14"/>
  <path id="Path_6290" data-name="Path 6290" class="cls-1" d="m67.38,50.7l2.14-.93c-.29.83-1.19,1.27-2.02.98-.04-.01-.08-.03-.12-.05"/>
  <path id="Path_6291" data-name="Path 6291" class="cls-1" d="m31.06,47.91l15.69-1.08c0,.1.01.19.02.29-5.2.78-10.46,1.05-15.71.79"/>
  <path id="Path_6292" data-name="Path 6292" class="cls-1" d="m55.65,57.06c-1.19,4.16-3.05,8.1-5.51,11.66l5.51-11.66Z"/>
  <path id="Path_6293" data-name="Path 6293" class="cls-1" d="m63.88,82.61c-1.43-7.34-2.61-14.69-.81-22.15-1.02,7.43-.26,14.79.81,22.15"/>
  <path id="Path_6294" data-name="Path 6294" class="cls-1" d="m66.08,81.67c-1.44-7.02-2.16-14.17-2.14-21.33l2.14,21.33"/>
  <path id="Path_6295" data-name="Path 6295" class="cls-1" d="m29.43,32.44c5.44,4.22,11.51,7.56,17.99,9.89-6.7-1.81-12.88-5.2-17.99-9.89"/>
  <path id="Path_6296" data-name="Path 6296" class="cls-1" d="m38.62,36.3c2.59,2.1,5.53,3.71,8.7,4.74-3.61-.27-6.21-2.41-8.7-4.74"/>
  <path id="Path_6297" data-name="Path 6297" class="cls-1" d="m76.42,73.69c-3.96-3.32-6.84-7.75-8.27-12.72,1.94,4.72,4.74,9.03,8.27,12.72"/>
  <path id="Path_6298" data-name="Path 6298" class="cls-1" d="m96.49,86.6l-5.83-7.13c2.42,1.53,5.85,5.87,5.83,7.13"/>
  <path id="Path_6299" data-name="Path 6299" class="cls-1" d="m92.02,83.34l3.48,3.27-.25.24c-1.19-1.06-2.27-2.24-3.23-3.51"/>
</svg>