<?xml version="1.0" encoding="UTF-8"?>
<svg id="Layer_1" data-name="Layer 1" xmlns="http://www.w3.org/2000/svg" viewBox="0 0 142.57 131.75">
  <defs>
    <style>
      .cls-1 {
        fill: #fff;
        stroke-width: 0px;
      }
    </style>
  </defs>
  <path id="Path_6300" data-name="Path 6300" class="cls-1" d="m57.22,101.02l-.2-.83c2.18-.39,3.9-2.08,4.35-4.25.32-1.54.53-3.1.65-4.67.01-.27-.04-.54-.17-.78-.11-.38-.51-.6-.9-.49-.21.06-.38.21-.47.42-.48.84-.91,1.7-1.3,2.58-.58,1.5-1.86,2.63-3.43,3.03-.53.05-.92.51-.87,1.04,0,.06.01.11.03.16.12.87.28,1.75.43,2.68l-.75.64h.03l.1-1.25-.18-.14c-.67.62-1.3,1.28-1.88,1.98-.42.58-.97,1.06-1.61,1.39-1.15.6-1.39,1.86-1.77,2.98l-.59,1.03-.98,1.61-.16-.06,2.19-4.72-.09-.13c-.24.22-.59.39-.71.66-2.71,5.61-4.04,11.79-3.85,18.03.02.45.42.89.64,1.33-.55.26-1.11-.06-1.12-.94-.02-1.77-.03-3.55.12-5.31.44-4.28,1.57-8.47,3.33-12.4.1-.24.2-.49.34-.82-1.66.15-3.31.45-4.48-1.14-.14.15-.28.25-.34.38-.82,1.82-2.06,3.42-3.62,4.66-.29.25-.49.6-.56.99-.3,3.02-1.53,5.87-3.52,8.15-1.43,1.65-2.43,3.64-2.9,5.78-.66,3.14-2.85,5.1-5.39,6.73-2.6,1.67-5.64,2.51-8.73,2.4-.23-.02-.46-.06-.68-.11.21-.31.35-.55.52-.76,2.24-2.36,4.16-5,5.73-7.85.89-1.92,1.65-3.91,2.27-5.93.83-2.65,2.15-5.11,3.9-7.26.34-.31.4-.82.13-1.19-.47-1.02-.51-2.19-.11-3.24l-14.78,2.34-.11-.18c.16-.22.33-.42.52-.61,3.99-3.84,8.43-7.19,13.22-9.96.22-.16.37-.39.44-.66.05-.29.08-.58.08-.88.05-.29.13-.57.19-.8-1.48.74-3.02,1.41-4.45,2.25-3.29,1.96-6.14,4.56-8.41,7.64-1.05,1.39-2.31,2.61-3.49,3.89-.3.25-.61.48-.95.67-.14-1.3-.24-2.43-.37-3.56-.52-2.96.71-5.96,3.16-7.71.96-.72,1.86-1.53,2.84-2.35-1.35-.21-2.64-.35-3.91-.61-3.99-.82-7.78-2.39-11.17-4.65-1.41-.91-2.55-2.17-3.31-3.66-.28-.56-.11-.86.44-.88.8-.08,1.6-.03,2.38.16,3.12.98,6.44,1.13,9.63.42,4.22-.83,8.55-.99,12.82-.47,3.37.37,6.79.06,10.04-.93.02-.08.03-.16.05-.24-1.44-.28-2.88-.62-4.33-.81-1.2-.13-2.41-.2-3.62-.19-3.95-.04-7.63-2.01-9.85-5.27-.49-.65-.95-1.33-1.46-2.04.14-.07.28-.13.43-.18,1.99-.39,4.02-.67,5.98-1.19,3.31-.89,6.83-.48,9.84,1.14l1.42.72c1.14-1.3,2.67-2.2,4.36-2.55.52-.42.78-1.09.68-1.76-1.63-2.31-2.71-4.96-3.16-7.75l-3.01,2.47c-.05-.02-.1-.05-.15-.07.05-.22.12-.42.22-.62.79-1.15,1.62-2.27,2.41-3.42.19-.28.31-.6.33-.94-.02-2.01.4-4.01,1.21-5.85.11-.22.39-.36.65-.59.32,1.27.61,2.39.95,3.71,4.11-4.41,9.35-7.61,15.16-9.25-2.6-2.12-5.12-4.04-8.63-4.25.57-.96,1.5-1.65,2.59-1.91,3.6-.9,7.32-1.24,11.02-1.01,2.46.1,4.84.92,6.84,2.36,1.07.81,2.07,1.7,3.11,2.55.22.18.46.34.7.52,0-2.6.01-5.16.02-7.95l-2.12,1.75-.25-.23c1.86-3.93,4.01-7.67,7.66-10.28,3.67-2.63,8.01-3.21,12.46-3.75-2.04-2.33-4.61-4.14-7.49-5.26-.03-.09-.05-.18-.08-.27.38-.31.8-.56,1.26-.73.58-.1,1.18-.07,1.74.09,3.46.9,6.94,1.72,10.34,2.81,1.76.65,3.44,1.5,5.01,2.51.71.41,1.23.62,1.91.08.17-.11.36-.21.55-.28-.28-1.38-.62-2.73-.8-4.1-.13-.98-.03-1.98-.07-2.97-.01-.33-.1-.65-.26-.93-.78-1.34-1.62-2.65-2.38-4.01-.23-.41-.44-.63-.91-.59-1.2.1-2.4.17-3.61.27-.24.02-.5.15-.71.09-.37-.04-.73-.2-1-.46-.12-.18.09-.72.31-.95,1.15-1.18,2.6-2.03,4.19-2.46l.27-.08c.04-1.72,0-3.38.14-5.03.14-1.04.37-2.06.69-3.06.09-.31.25-.59.46-.83.31-.34.67-.35.71.2.26,3.24,2.28,5.48,4.35,7.69.5.55,1.06,1.04,1.67,1.47.21.14.7.02.99-.12.94-.47,1.85-1.01,2.83-1.57.31.91.28,1.9-.1,2.78-.21.41-.05.91.36,1.13,2.33,1.66,4.19,3.9,5.39,6.49.73,1.74,1.86,3.29,3.3,4.51,1.64,1.3,3.87,1.58,5.77.7,1.4-.45,2.46-1.6,2.78-3.04.53-2,1.24-3.95,1.83-5.93.57-1.83.75-3.76.52-5.66-.45-2.21.59-4.46,2.57-5.55.46-.28.88-.62,1.33-.9,1.43-.81,2.67-1.92,3.64-3.24.32-.47.75-.99,1.47-.65.61.4.85,1.18.56,1.85-.24.54-.57,1.03-.98,1.45-2.65,2.66-4.53,5.99-5.44,9.64-.14.55-.28,1.1-.46,1.63-.71,1.77-1,3.68-.85,5.58-.03.88-.13,1.76-.3,2.62-.08.82-.03,1.64.14,2.45.75,2.71,2.31,5.13,4.47,6.94,1.07.93,2.09,1.93,3.08,2.95,1.99,1.97,2.88,4.79,2.36,7.54-.03.51-.12,1.01-.27,1.5-.41.82-.11,1.82.68,2.29.99.73,2.01,1.41,3,2.13.26.19.63.45.65.7-.05.33-.25.63-.54.79-1.12.74-2.52.89-3.77.41-1.31-.56-2.66-1.01-4.04-1.36-4.2-.92-6.71-3.51-8.04-7.52-.69-2.08-1.69-4.06-2.54-6.09-.29-.71-.55-1.43-.84-2.18-.9,2.47-1.38,4.92-.06,7.4.66,1.23,1.28,2.49,1.95,3.71.14.22.34.4.57.52,1.45.86,2.52,2.24,2.99,3.85.34,1.16.78,2.28,1.33,3.36,1.81,3.31,1.17,6.27-1.96,8.47-.43.3-.91.53-1.52.88.13-.68.23-1.37.28-2.06-.03-.58-.11-1.15-.22-1.72-.75,1.98-1.48,3.92-2.22,5.86h-.32c-.17-.22-.32-.44-.47-.66-1.62-3.13-2.69-6.52-3.17-10.01-.38-2.21-1.03-4.38-1.59-6.56-.07-.28-.23-.54-.44-.74-.74-.68-1.53-1.3-2.36-1.86.18.42.36.85.56,1.27.43.87.88,1.73,1.3,2.6.93,1.85,1.07,4,.39,5.95-.28.84-.66,1.65-.92,2.49-.59,1.67-1.08,3.36-1.48,5.08-.5,2.79-1.53,5.45-3.04,7.84-2.25,3.49-4.7,6.86-7.14,10.22-.66.77-1.43,1.45-2.27,2.03-.2.16-.58.11-.88.16,0-.27.05-.54.14-.8.96-1.75,1.58-3.66,1.82-5.64.31-1.89.94-3.71,1.88-5.37.86-1.75,1.35-3.65,1.44-5.6-.63-.05-1.25-.11-1.88-.14-.15,0-.3.07-.4.19-1.4,1.84-3.59,2.92-5.9,2.92.14.91.2,1.83.19,2.76-.32,3.54-.66,7.1-3.79,9.53-.19.15-.39.29-.6.41-1.9,1.09-2.62.84-3.38-1.22-.06-.17-.12-.35-.18-.5l-3.28,1.26s-.03.05,0,.07c2.22,2.5,4.76,4.39,8.31,4.42.98-.09,1.96.17,2.78.72-2.31,2.97-5.91,4.64-9.67,4.48-3.87-.04-7.08-1.71-10.09-4.44,2.76,7.02,2.39,13.61-1.36,19.95-1.41-2.29-2.36-4.84-2.79-7.49-.44-2.63-.81-5.26-1.21-7.9l-.25.02c-.03.09-.06.19-.08.29-.35,2.57-1.82,4.85-4.01,6.24-.42.2-.59.69-.4,1.11.02.04.04.07.06.11,1.27,2.59,1.12,5.65-.39,8.11-.65,1.17-1.43,2.27-2.13,3.41-.4.65-.78,1.33-1.28,2.04-.2-2.33-.76-4.61-1.68-6.77-.81,1.06-1.91,1.86-3.16,2.3-1.28.49-2.72.03-3.48-1.11-.06.03-.13.04-.14.07-.68,3.99-2.95,7.23-5.1,10.5-1.43,2.18-2.98,4.27-4.49,6.39-.2.23-.41.45-.64.64l-.21-.15c.14-.25.27-.51.42-.74,2.32-3.45,4.7-6.87,6.96-10.36,1.82-2.69,2.78-5.88,2.75-9.13.05-.38.15-.76.31-1.11.43.02.4.26.35.6-.12.58-.17,1.16-.16,1.75-.02,1.25.98,2.28,2.23,2.3.03,0,.06,0,.08,0,1.68-.17,3.17-1.15,4-2.62.02-.05-.03-.14-.05-.22-2.56,2.49-4.07,3.04-5.1,1.83,1.29.68,2.32.13,3.31-.61l-1.78.67c.78-.6,1.44-1.05,2.04-1.56.99-.63,1.29-1.95.66-2.95-.16-.37-.27-.76-.32-1.16-.19-.87-.37-1.74-.59-2.75-.16.36-.24.59-.35.8-.74,1.47-1.65,2.74-3.4,3.15-.34.08-.6.52-.9.8m12.9-25.29h.67c-.05-.17-.08-.35-.09-.53,0-.25.03-.51.12-.74,1.05-2.06,1.92-4.26,4-5.57l-4.91,2.88c.01.09-.04.55.14.68.9.62.36,1.21.05,1.82-.06.14-.12.29-.17.44.01-.49.03-.99.04-1.47l-1.03-.06c.69-1.1.68-1.08-.47-1.32-.17-.04-.29-.31-.53-.58,2.32-.31,4.39-.75,5.61-2.79.44-.73,1.68-1.06,1.19-2.29-.02-.04.08-.13.12-.19.51-.79.28-1.42-.66-1.5-2.67-.21-5.32-.15-7.62,1.53-.13.06-.27.1-.41.12l-.11-.2c.56-.7,1.34-1.19,2.22-1.39.87-.27,1.78-.43,2.66-.64-.32-.51-.64-.97-.9-1.46-.31-.71-.99-1.19-1.76-1.25-1.17-.07-2.34-.08-3.51-.02-.77.07-1.53.19-2.29.35-.29.31-.59.59-.92.86-.19-.14-.37-.31-.53-.48-3.26,1.4-6.27,3.3-8.94,5.63,1.9-.71,3.76-1.45,5.65-2.11.69-.24,1.46-.26,1.77-1.09.07,0,.13.02.2.03-.03.13-.07.25-.1.37-.39,1.49-.13,2.54.88,3.15.56.29,1.15.53,1.75.72v-.03c-1.3.46-3.17-.22-3.35-2.9-3.15.58-5.89,2.21-8.82,3.39,3.93-4.3,9-7.37,14.63-8.87-.52-.15-1.05-.27-1.59-.35-3.39-.74-6.94-.27-10.01,1.34-1.93.97-4.04,1.53-6.2,1.66-1.76.16-3.51.29-5.43.45.33.38.53.65.77.89,1.83,1.71,3.28,3.79,4.25,6.1.14.4.57.62.98.48.03,0,.06-.02.08-.03,1.31-.29,2.67.05,3.69.92.65.43,1.3.86,1.98,1.23.23.1.49.09.71-.03,1.78-1.28,3.89-2.02,6.08-2.12,1.72-.18,3.38-.71,4.89-1.56-.03.27-.07.58-.11.9-.16,0-.32.01-.48.04-.57.15-1.58.25-1.61.48-.15.96-.86.63-1.25.62-2.29-.12-4.56.43-6.55,1.57-1.84.99-2.79,3.09-2.32,5.13.17,1.06,1.17,1.78,2.23,1.6.06-.01.13-.02.19-.04.58-.1,1.15-.27,1.72-.41,2.98-.67,5.34-2.94,6.15-5.88.06-.19-.08-.46-.12-.68l.9-.94.12.1c-.19.98-.38,1.96-.57,2.94l-.28-.07c.19-.21.37-.43.57-.63.25-.28.54-.51.85-.71.91-.46,1.87-.86,2.78-1.32.15-.08.21-.35.35-.62l.64.71c-.22.11-.34.16-.45.22-2.07,1.12-4.23,2.11-5.72,4.06-.87,1.02-.86,2.53.04,3.53.93,1.1,2.43,1.54,3.8,1.1,2.21-.57,4.28-3.14,4.15-5.15l.49.76c-.09.46-.16.93-.2,1.39-.01.27.16.54.17.82.02.37-.09.75-.05,1.12.07.36.18.71.31,1.05l.22.05c.46-1.22.92-2.44,1.37-3.66.74-2.01,1.46-4.03,2.2-6.04.14-.38.29-.75.43-1.12l-.23-.09c-.47,1.1-.89,2.22-1.42,3.28-.38.72-.84,1.41-1.36,2.04-.4.55-1.15.71-1.74.36m44.96-25.86c-.52.76-1,1.55-1.58,2.26-.38.37-.53.91-.42,1.43.26,1.07.15,2.2-.31,3.21-.56,1.18-1.09,2.37-1.63,3.55l.19.11c.2-.13.39-.27.59-.4.22-.15.44-.29.67-.44-.22.27-.46.52-.72.75-1.14.82-2.01,1.96-2.52,3.26-.07-.19-.12-.32-.13-.37-1.2.2-1.33,1.08-1.5,2.1-.14,1.34-.5,2.64-1.07,3.85-1.74,3.14-2.09,6.65-3.01,10.02.35-.55.65-1.14.89-1.75.21-.67.36-1.34.47-2.03.12-.62.2-1.26.3-1.89.09.91.05,1.83-.12,2.73-.17.85-.49,1.68-.76,2.58l.86-1.15.11.08-.94,1.6c2.64-3.02,5-6.26,7.06-9.69,1.53-2.32,2.61-4.9,3.19-7.62.42-2.44,1.13-4.81,2.11-7.08.66-1.54,1.3-3.19.81-4.85-.61-2.03-1.54-3.96-2.32-5.93l-.27.07c-.09.46-.18.92-.26,1.37-.53,1.48-1.08,2.95-1.57,4.44-.18.66-.31,1.33-.41,2.01l.29.1c.67-.78,1.34-1.57,2.01-2.35m2.73-15.93l.71-1.01c-1.8.86-3.93.58-5.44-.72-.13-.09-.28-.13-.44-.11-.68.1-1.36.22-2.04.33l-.12.24,1.75,1.55.13-.13c-.04-.25-.08-.5-.09-.57.46.43.99.76,1.57.99.77.08,1.55.03,2.3-.14.57-.11,1.14-.26,1.7-.43-.27.11-.54.22-.81.33-1.62.78-3.49.81-5.14.1-.57-.18-1.16-.27-1.76-.26-.3.02-.59.08-.88.17-.02-.07-.03-.14-.05-.21l1.64-.44-.84-1.08-2.54.96c1.5,1.48,3.46,2.39,5.55,2.61-.65.07-1.31.03-1.95-.1-1.28-.33-2.44-1.01-3.37-1.96-.19-.15-.4-.28-.62-.39l-.14.25c.66.5,1.3,1.02,1.99,1.48,2.77,2.06,6.68,1.49,8.74-1.28.05-.07.1-.13.14-.2m-7.94,27.71c1.16-1.72,1.85-3.72,1.97-5.8.02-.59-.06-1.18-.23-1.74-.12-.43-.34-.91-.96-.43-.1.08-.35-.06-.47-.08l-4.53,9.9c1.44.32,2.92-.24,3.79-1.42l.42-.43m-44.14-1.5c.05.13.09.36.15.37.9.16,1.81.2,2.71.12,1.7-.31,3.46.05,4.9,1.01.66.35,1.35.66,2.05.9.09.04.23-.06.38-.11l-.43-.49,1.05-.63c-.2-.31-.35-.55-.5-.78.78-.59.78-1.02-.15-1.58-2.5-1.61-5.59-2-8.41-1.06-1.17.36-2,1.39-2.11,2.61l.36-.37h-.02Zm64.56-13.28l.55.48c1.7,1.08,3.67,1.33,5.51,1.98l.07-.19-.93-.4,1.01.02-.96-1.19c-.05-.28,0-.62-.15-.82-1.21-1.73-2.44-3.45-3.71-5.14-1.48-1.96-2.52-4.21-4.48-5.88-1.49-1.27-2.04-3.3-2.43-5.24-.17-.83-.29-1.66-.44-2.49l-.32-.07c0,.19.01.37.02.56-.15.21-.38.4-.42.63-.56,2.09-.41,4.3.43,6.29.95,2.01,1.72,4.1,2.61,6.13.5,1.24,1.1,2.44,1.78,3.59.55.66,1.17,1.24,1.87,1.74m-21.23-26.03l-1.2-.55c.49,1.74,1.85,3.09,3.59,3.58-.73-.77-1.43-1.46-2.08-2.2-.16-.26-.27-.54-.34-.83.4.35.82.68,1.21,1.04,1.49,1.38,2.96,2.79,4.49,4.14.37.35.86.56,1.37.59,1.84-.08,3.68-.26,5.51-.46.48-.11.94-.27,1.38-.48-.76,0-1.52.09-2.26.27-2.03.47-4.17-.15-5.63-1.64-1.23-1.32-2.24-2.82-3.01-4.44-.66-1.25-1.44-2.43-2.34-3.53-.96-1.03-1.98-2-3.05-2.91-.46,1.74-.39,1.9,1.12,2.73-.03-.27-.05-.54-.09-.96l5.74,8.36-.28.18c-.73-1.19-1.49-2.36-2.18-3.57-.29-.7-.9-1.21-1.64-1.39-.36-.06-.72-.14-1.08-.21l.02-.17,1.26.06.09-.16-3.01-2.4-.27.18c.21.95.52,1.87.91,2.76.51.74,1.11,1.42,1.77,2.02m-31.23,44.85l.05.03c.11.11.23.2.37.28,2.56.75,5.32-.07,7.04-2.1.36-.51.55-1.05.01-1.6-.09-.12-.12-.27-.1-.42.22-.92-.36-1.84-1.28-2.06-.12-.03-.24-.04-.36-.05-2.08-.09-4.14.49-5.86,1.66-.74.45-1.27,1.19-1.46,2.04-.16,1.04.54,2.03,1.58,2.21m11.51-4.33l.43-.2c1.58.25,4.23-1.32,4.72-2.83.25-.79.46-1.59.65-2.26-.22-.28-.42-.58-.58-.89-.18-.59-.74-.99-1.36-.94-1.42.08-2.83.25-4.23.51-2.01.5-3.51,2.2-3.76,4.26-.22,1.08.47,2.14,1.55,2.36.09.02.17.03.26.04.77.05,1.54.04,2.31-.04m-4.79,19.91v-.03s-.86-.45-.86-.45c.07.38.13.68.19.99l-.15.04c-.2-.79-.4-1.57-.6-2.36l-.4.29c.49-1.79,1-3.67,1.53-5.58l-1.23.62c1.12-.71,1.96-1.8,2.35-3.07l-1.59-2.28c-1.05,1.29-1.78,2.81-2.11,4.44,0-1.67.63-3.28,1.77-4.5.18-.24.34-.49.46-.77l-.27-.12c-2.77,2.5-2.6,5.9-2.58,9.19.01,2.99,2.4,4.51,4.23,6.34-.26-1.15-.18-2.35.22-3.45.25-.79.59-1.56.83-2.36.6-2,1.17-4.01,1.72-6.02.05-.29.07-.59.05-.89l-2.21.36c-.03.95-.05,1.89-.08,2.82-.14-.49-.3-1.02-.46-1.57-.7,1.6-1.58,3.18-.97,5.07l-.5-1.18c-.19,1.55-.96,3,.52,4.2.07.06.09.19.13.29m45.54-25.43c.1-.91-.12-1.83-.61-2.6-.59-1.35-1.25-2.68-1.7-4.07-.6-2.11-2.28-3.74-4.4-4.29-1.51-.45-2.99-1.03-4.49-1.55-.76-.26-1.52-.52-2.29-.76-.26-.05-.53-.08-.8-.08-.04.17-.09.34-.13.51.31-.05.63-.05.95,0,1.27.38,2.5.9,3.65,1.56.9.62,1.52,1.65,2.72,1.9-.45-.06-.89-.12-1.37-.18.47,1.06,1.29,1.93,2.31,2.47.85.75,1.89,1.26,3.01,1.46l-.83.13c2.37,3.02,2.78,4.02,2.28,5.62-.06-.67-.12-1.27-.19-2.02-.17.33-.27.51-.34.65-.02-.66-.15-1.31-.39-1.93-.93-1.36-2.13-2.51-3.54-3.37.09.5.17.91.24,1.31-.48-.72-.91-1.42-1.38-2.08-.61-.69-1.16-1.44-1.64-2.23-.76-1.48-2.16-2.53-3.79-2.85,1.3.82,2.61,1.65,3.15,3.18.64,1.86,1.77,3.52,3.27,4.8.21.2.41.42.59.66,2.02,2.38,3.15,5.04,2.53,8.24-.01.06.04.13.1.28,1.31-1.04,2.53-2.06,2.8-3.8l.29-.96m-46.31-33.06l-.79-.27c-1.28-.53-2.17-.54-2.77,0,3.29,1.43,6.16,3.67,8.35,6.52,1.06,1.4,2.49,2.48,4.12,3.12.26.09.54.07.78-.06.61-.46,1.17-.99,1.91-1.63-1.97-.41-3.07-2.33-5.14-2.29l.71-.2-2.03-1.42s.07-.09.1-.14l3.01,1.88.05-.08-.97-1.2c.74.52,1.33,1.19,2.02,1.72.67.48,1.37.91,2.11,1.27.19.1.48-.02.85-.04l-.67-1.12.07-.06.78.8,1.5-1.31-4.97-2.46c.03-.07.07-.13.1-.2l5.14,2.46c-1.48-1.31-3.23-2.3-5.11-2.89-2.92-.84-5.85-1.61-8.78-2.4-.13-.01-.26,0-.39.02m36.92,8.28c-1.26,2-2.52,4-3.77,5.99-.57.61-.87,1.42-.85,2.25.05.32-.22.7-.39,1.03-.2.4-.45.77-.68,1.16.25-.1.45-.27.59-.5.67-.97,1.35-1.94,2.01-2.92,4.55-6.72,8.22-13.99,10.9-21.65.32-.94.61-1.89.85-2.86.9-4.04,2.95-7.73,5.91-10.62.35-.36.61-.81.73-1.3.08-.29-.18-.67-.28-1.01-.29.13-.69.17-.85.39-1.3,1.69-2.95,3.07-4.84,4.04-1.98,1.01-3.06,3.21-2.64,5.4.01.11.01.22.02.32.16,1.82-.02,3.66-.51,5.42-1.23,4.56-2.95,8.97-5.12,13.17l-1.08,1.67m-58.23,65.11l.33,1.47c-.04.25-.04.51,0,.77,1.01,3.19,2.05,6.38,3.08,9.57.12-.79.1-1.58-.04-2.36-.23-.73-.52-1.44-.88-2.13l.1-.04,1.51,3.01,1.47-1.94c-.33.74-.72,1.45-1.17,2.12-.39.65-.74,1.33-1.1,1.99l.24.12c1.3-1.56,2.36-3.31,3.15-5.18.87-1.97.85-4.22-.07-6.17-.67-1.43-1.5-2.79-2.2-4.21-.72-1.35-1.32-2.75-1.81-4.19-.2-.91-.77-1.7-1.58-2.17-.25,1.37.26,2.77,1.33,3.67l-.9-.14c1.35,2.11,1.62,4.62,3.57,6.21l-.08.23c-.26-.16-.52-.33-.8-.51.35,2.11.68,4.1,1.02,6.15l-.51-.66c-.07.38-.12.7-.18,1.01-.06.28-.14.56-.2.81,0-1.55.02-3.08.03-4.62h-.19s-.8,1.28-.8,1.28l-.21-.08c1.68-2.64.01-4.82-.84-7.23-.26.71-.47,1.29-.69,1.86-.08-.26-.08-.55.01-.81.3-.93.25-1.93-.13-2.83-.58-1.37-.81-2.85-.67-4.33-.04-.39-.13-.77-.28-1.13-.67.85-.76,2.02-.23,2.97.42.91.47,1.95.15,2.9-.66,1.45-.8,3.07-.41,4.61m-9.54-16.3c-2.39-1.14-4.78-2.28-7.18-3.41-.33-.17-.67-.31-1.02-.42-.8-.14-1.53-.58-2.03-1.22l1.87.94c-.95-1.2-1.85-2.36-2.77-3.5-.16-.19-.44-.29-.64-.45-.61-.51-1.21-1.04-1.82-1.56.07-.07.13-.15.2-.22l1.61,1.58c-1.56-2.56-2.65-5.37-3.22-8.31.26-.1.46-.17.62-.22-.52,2.07.76,3.64,1.53,5.35.03-.48.06-.96.09-1.45l.2-.04c-.18,2.35.96,4.12,2.48,5.92-.11-.43-.21-.7-.25-.98s-.05-.58-.07-.87c.47,2.5,2.14,4.62,4.47,5.64l-.92-1.83c1.32,2.85,4.06,3.62,6.67,4.57-.34-.28-.71-.51-1.11-.68-2.75-1.32-4.7-3.27-5.19-6.41-.39-2.21-1.41-4.26-2.95-5.9-.76-.86-1.62-1.66-2.31-2.57-1.17-1.53-2.3-3.09-3.33-4.72-.36-.76-.63-1.57-.79-2.39-.06.08-.11.16-.15.25-1.64,4.87-.92,10.24,1.96,14.5,3.3,5.04,8.51,7.07,14.04,8.51l3.06.79c.02-.11.04-.22.06-.33l-3.1-.56m20.59-42.72c.34-.29.72-.53,1.14-.7,1.36-.39,2.76-.66,4.17-.81,3.59-.23,7.01.9,10.51,1.45,1.9.37,3.85.42,5.76.14,1.07-.19,2.11-.56,3.16-.85l-.05-.23c-.77-.21-1.56-.34-2.36-.4-3.9.01-7.79-.27-11.64-.85-2.76-.47-5.6-.34-8.31.38-1.55.36-2.95,1.17-4.04,2.33-.03.03-.1.02-.19.04-.11-.17-.23-.35-.38-.58-1.01.63-1.65,1.72-1.72,2.92,0,2.17.03,4.35.03,6.52-.06,2.38.95,4.66,2.74,6.22,2.43,2.18,4.93,4.3,7.39,6.45.35.43.98.51,1.43.19-1.8-.92-3.2-2.46-3.95-4.33-.48-1.12-1.46-1.96-2.64-2.25-.01-.07-.02-.13-.01-.2l1.39.33c-.59-1.9-2-3.44-3.85-4.19.47.1.94.21,1.64.37l-2.94-4.08c.11.06.38.21.62.34-.19-1.26-.38-2.51-.57-3.76l.21-.04c.08.45.16.9.25,1.39l.5-.47c-.44,1.53-.08,3.18.97,4.37l.74-1.26c-.09.71-.46,1.53-.22,2.06.62,1.15,1.33,2.24,2.12,3.28.1-.63.18-1.19.27-1.75.15.05.3.1.45.15-.36,2.15.3,4.34,1.78,5.93l.28-.69c-.34,1.58.6,2.54,1.58,3.48.87,1.07,2.31,1.48,3.61,1.05-.32-.23-.62-.44-.91-.67-1.95-1.53-3.54-3.29-3.81-5.92-.07-.64-.19-1.27-.36-1.89-.64-1.91-1.63-3.69-2.92-5.25-1.61-1.91-2.84-4.11-3.61-6.49-.1-.39-.12-.62.31-.71.16.71.39,1.41.69,2.08.93,1.68,1.96,3.3,2.97,4.99,1.17-2.46,2.25-4.71,3.31-6.94l-1.86-.99c1.49-.7,3.01-.12,4.34-1.11-2.04-.29-4.12-.14-6.1.46-.62.2-1.28.31-1.92.46m17.14,51.14l.42.09c2.91-.23,5.62-1.62,7.5-3.85-.89-.09-1.58-.12-2.25-.25-1.35-.19-2.67-.51-3.96-.94-2.04-.98-3.83-2.43-5.21-4.22-.11-.13-.25-.24-.38-.36-.05.05-.1.1-.15.15l1.46,1.8-.12.11-1.51-1.41c-.57,1.15-.83,2.43-.76,3.71.08.65.36.98,1.04.89.43-.06.87-.1,1.31-.14l.03.12-1.57.45c1.83.54,3.46,1.44,5.35.68-.18.69-.61.73-1.16.63-.57-.1-1.15-.15-1.77-.22l1.31,1.56c-.71-.46-1.28-1.09-1.96-1.55-.49-.27-1.04-.45-1.6-.51-.28-.05-.65.23-.89.14-.99-.38-1.95-.86-2.92-1.29-.11-.05-.23-.09-.36-.11l-3.8-6.01-.63,1.4c.12-.77.13-1.55.05-2.32-.37-1.46-.93-2.87-1.4-4.24l-.49.48c.3-.92.63-1.94.96-2.97.24-.98.78-1.85,1.55-2.5-.83,1.07-1.39,2.19-.74,3.6l-.52-.5-.24.06c.06,1.11.2,2.21.4,3.31.33,1.1,1.25,1.92,2.38,2.12l-.11.24-1.63-.41,2.28,3.81c.04-.16.07-.31.09-.47.02-1.9.05-3.8.04-5.7-.05-.25-.17-.48-.35-.66-1.36-1.51-1.59-3.72-.57-5.47.11-.2.21-.4.35-.68-1.9-.09-2.97,1.05-3.98,2.29l.75-.64c-.03.18-.11.34-.22.48-1.23,1.71-2.11,3.51-1.55,5.72.14.57.18,1.17.29,1.75.52,2.62,1.8,5.03,3.69,6.91-.36-.61-.79-1.19-1.17-1.79s-.73-1.24-1.09-1.86c1.78,2.41,3.38,4.95,6.22,6.33l-.12.16-1.76-.9c2.35,2,5.31,3.14,8.4,3.23.37-.03.73-.1,1.08-.21m-52.1-3.17c1.16.44,2.41.56,3.63.36,1.16-.09,1.94-.53,2.06-1.71-1.43-.8-2.88-1.55-4.27-2.41-2.51-1.54-4.94-3.24-7.49-4.7-2.13-1.36-4.66-1.95-7.17-1.67-2.73.42-5.42,1.12-8.15,1.7,2.55,4.08,6.04,6.47,10.98,6.41,3.12-.08,6.23.51,9.1,1.73l1.32.29Zm12.6-37.5c1.02.82,2.08,1.6,3.06,2.46,3.22,2.81,7.22,4.58,11.46,5.07,3.49.45,6.95,1.03,10.43,1.54.03,0,.06-.06.15-.14-.81-.63-1.63-1.22-2.4-1.87-.32-.33-.82-.41-1.23-.2-.6.2-1.22.37-1.84.49l-.04-.19,1.93-.69c-1.01-.33-2-.72-2.97-1.16-1.13-.58-2.46-.6-3.61-.05-.74.21-1.5.34-2.27.39,0-.05,0-.1-.01-.15l3.81-.98c-1.71-.86-3.34-1.57-4.85-2.49-1.18-.84-2.75-.89-3.99-.14-.62.25-1.27.43-1.93.54l-.04-.18,3.66-1.28.07-.19-7.64-2.77,3.57.84.06-.13-2.26-1.39c.04-.07.08-.14.12-.21.7.28,1.34.67,1.92,1.16.68.68,1.51,1.18,2.43,1.46.69.29,1.38.59,2.07.9s1.38.66,2.07.99l.13-.15c-.91-1.32-1.83-2.64-2.68-3.88.85.49,1.52,1.24,1.92,2.14.73,1.6,2.07,2.85,3.71,3.47,1.29.49,2.52,1.13,3.78,1.7.04-.06.08-.12.13-.17-.98-1.25-1.96-2.51-2.89-3.7,1.09.66,1.96,1.62,2.52,2.76.39.93,1.23,1.6,2.23,1.76-.71-1.22-1.44-2.51-2.19-3.79-.11-.15-.25-.28-.4-.38-.78-.62-1.59-1.19-2.32-1.86-2.07-2.04-4.76-3.31-7.65-3.62-1.31-.16-2.62-.19-3.93-.1-2.61.27-5.2.68-7.79,1.1-.53.17-1.03.41-1.49.72l.14.34c1.51-.92,3.23-1.43,5-1.47l-3.03.84,3.51,2.43-.1.15h-.3c-1.17-.96-2.26-2.07-4.05-2.01l4.03,2.07m-11.01,38.53c-1.05-.28-1.81-.42-2.53-.68-.68-.25-1.42-.28-2.11-.1-3.64.97-7.43,1.25-11.17.82-3.28-.45-6.61-.37-9.85.26-4.07.76-8.13,1.17-12.17-.26-.61-.12-1.22-.16-1.84-.13.56,1.24,1.42,2.32,2.5,3.14,2.01,1.53,4.25,2.74,6.63,3.6,5.18,2.03,10.49,2.88,15.92,1.28,3.88-1.11,7.58-2.78,10.99-4.94,1.27-.93,2.49-1.93,3.65-2.99m7.65-32.51l-.07-.15c1.05-.53,2.07-1.12,3.16-1.56,1.11-.44,2.29-.72,3.44-1.07-.3-.16-.64-.21-.97-.13-5.46,1.54-10.4,4.54-14.27,8.69-.16.23-.2.53-.1.79.49.77,1.03,1.51,1.62,2.2.25.25.59.38.94.38,1.39-.07,2.78-.24,4.17-.32,2.83-.14,5.59-.87,8.12-2.15,1.67-.89,3.55-1.32,5.44-1.25,1.69.07,3.37.31,5.04.51.41.05.66.06.91-.37.56-.96,1.48-1.67,2.56-1.96,1.57-.4,3.2-.44,4.78-.12.72.06,1.44.08,2.16.05,0-.08,0-.17.01-.25-.47-.09-.94-.2-1.41-.27-3.43-.5-6.85-1.01-10.28-1.48-1.28-.33-2.63.17-3.4,1.25-.43.49-.91.92-1.44,1.29l-.12-.15c.76-.77,1.51-1.53,2.31-2.34-3.34-.07-6.67.37-9.88,1.3-2.11.47-3.97,1.72-5.2,3.5-.13.17-.27.33-.44.47-.23.2-.47.38-.7.57l-.09-.1,2.58-3.03s-.03-.08-.05-.12l-6.39,3.2-.04-.08c.43-.32.85-.63,1.42-1.06h-2.14v-.28c.61,0,1.23.03,1.84,0,.46,0,.92-.07,1.36-.22,1.67-.73,3.32-1.52,4.98-2.28.47-.21.96-.38,1.44-.56,0-.05-.02-.1-.03-.15l-3.89-.12v-.22c1.2,0,2.39.03,3.59-.02.96-.04,1.91-.13,2.86-.27,2.09-.31,4.17-.67,6.26-1,.11-.02.22-.05.33-.07.01-.07.03-.13.04-.2l-4.74-1.63c.92-.12,1.86.04,2.69.47.78.35,1.51.85,2.32,1.12.72.18,1.46.29,2.2.34.01-.08.03-.16.05-.24-2.05-.73-3.97-1.8-5.69-3.15-.3-.19-.67-.24-1.01-.15-1.38.44-2.74.93-4.1,1.43-.74.28-1.45.63-2.18.94m-19.13,65.88l-.12-.17c.65-.45,1.28-.92,1.94-1.35.74-.48,1.58-.85,1.85-1.81.47-1.64.93-3.28,1.45-5.12l-2.63,2.12c.45-1.29,1.85-1.63,2.55-2.37l-2.03-.8-3.01,4.56-.2-.13,2.96-4.75c-.16.08-.31.19-.42.33-1.66,2.05-2.93,4.39-3.75,6.89-.53,1.66-1.05,3.34-1.73,4.94-1.49,3.13-3.46,6.02-5.82,8.56-.19.22-.37.46-.55.69l.21.18,2.71-2.75.09.08-1.23,1.65,2.75-.51s.02.09.03.13l-3.8,1.1c1.58.15,3.18-.11,4.63-.75,3.9-1.65,7.16-3.94,8.1-8.45.4-1.65,1.15-3.2,2.21-4.53.78-1.05,1.57-2.11,2.29-3.21.99-1.63,1.51-3.51,1.51-5.42-.33.3-.55.7-.64,1.14-.11,1.75-.68,3.44-1.66,4.9-.12.15-.24.29-.37.42,1-1.74,1.56-3.7,1.62-5.7-.24.24-.4.56-.44.9-.06,1.58-.33,2.47-.88,2.97l.65-3.36c-.96.28-1.85.3-2.34.75-.48.58-.77,1.3-.81,2.05-.03.68.08,1.36.32,1.99.28.9.3,1.32,0,1.73-.13-.72-.29-1.57-.45-2.41l-.21-.03c-.28,1.98-1.18,3.83-2.57,5.27-.63.59-.93,1.45-.8,2.3.19.87-.01,1.79-.56,2.49.14-1.02.27-2.05.41-3.08l-.17-.03c-1.09,2.24-2.18,4.47-3.27,6.71l-.15-.07c.14-.36.28-.72.47-1.2l-1.26.99-.05-.06,1.83-2.07-.11-.12-1.49.75c.33-.31.67-.59,1.04-.85.57-.42,1.04-.96,1.39-1.58.63-1.92,1.63-3.69,2.95-5.22.07-.12.12-.26.16-.39l-2.57,1.69M121.26,26.9c-.15-.04-.23-.09-.29-.08-2.49.4-5.03.43-7.54.11-2.72-.22-5.45-.49-8.18-.51-2.72-.09-5.37.83-7.46,2.57-1.79,1.52-3.54,3.09-5.35,4.67.32.16.68.36,1.07.54,2.59,1.18,5.26,2,8.11,1.22,1.44-.42,2.84-.97,4.18-1.64,2.12-1.11,4.41-1.85,6.78-2.19.88-.1,1.75-.26,2.62-.44,2.49-.57,4.67-2.09,6.07-4.24m-44.07,70.9c1.82-2.15.77-4.4.77-6.79l-1.19,2.11-.22-.12c.19-.34.37-.7.51-1.06.22-.68.67-1.45.51-2.04-.51-1.97-1.26-3.89-1.98-6.03l-1.26,2.16-.21-.12c.25-.54.53-1.07.85-1.58.32-.4.39-.94.21-1.42-.54-1.59-.62-3.29-.24-4.92.06-.26.09-.54.14-.8l-.19-.06-1,1.57c.02-.53.2-1.04.53-1.45.65-.64.47-1.27.22-2.07-.21.33-.36.58-.51.82-1.45,2.56-1.77,5.61-.87,8.41.99,3.37,1.75,6.81,2.27,10.28.33,2.14.81,4.26,1.43,6.34.32.94.71,1.86,1.16,2.75.21-.39.33-.57.42-.76,3.01-5.84,3.08-12.75.2-18.65-1.04-1.99-2.18-3.92-3.42-5.79-.43,1.1-.14,2.35.73,3.14.57.55,1.11,1.14,1.62,1.75l-.15.14-2.09-2.04c-.06.05-.09.06-.09.07,0,.08.02.16.04.24.72,2.39,1.31,4.82,3.15,6.69.39.49.72,1.02,1,1.58l-.17.09-1.75-2.31c.03.33.04.45.06.58.26,1.5.5,3.01.78,4.51.12.56.28,1.12.48,1.66.23.68.5,1.35.76,2.02l-.21.08c-.27-.65-.54-1.29-.82-1.94-.32,1.05.05,2.3-1.46,2.99m59.52-50.17c.85-2.1,1.32-4.33,1.39-6.6.07-1.58-.44-3.12-1.44-4.34-1.15-1.34-2.46-2.53-3.66-3.83-1.23-1.19-2.35-2.49-3.34-3.88-1.38-2.2-2.39-4.56-1.53-7.32.16-.87.22-1.76.16-2.64l-.25-.04c-.38.99-.82,1.96-1.14,2.97-1,2.55-1.15,5.35-.44,7.99.37,1.12.81,2.22,1.3,3.29,1.15,2.9,2.63,5.65,4.42,8.21,1.56,2.04,3.03,4.15,4.51,6.2m-35.73-21.04l-.64-3.84.17-.03c.29,1.24.58,2.47.87,3.72l2.78-.55-1.36-.77.05-.12,2.21.93c-1.21-2.69-1.7-5.65-1.42-8.59.03.67.06,1.34.1,2.16l.9-1.05c-1.54,1.98-.28,3.78.19,5.55l1.19-1.88c-.32.8-.57,1.64-.74,2.49-.04.38.37,1.15.64,1.18,1.5.17,3.03.17,4.7.23-.6-.95-1.14-1.8-1.69-2.65-2.36-3.67-3.9-7.49-2.31-11.93.09-.42.14-.84.14-1.27-3.2,1.35-5.6,4.1-6.51,7.45-.88,2.97-.63,6.16.69,8.96m-8.43,6.2c0-.09,0-.18-.01-.27-.81-.09-1.63-.16-2.44-.27-2.01-.26-4.01-.57-5.94.51l1.53-.88c-2.44.01-5-.92-7.18,1.02.13-.23.25-.46.46-.84-.89.31-1.64.54-2.35.84-.68.29-1.33.66-2,.99,2.04-1.72,4.52-2.29,7.07-2.82-.72-.17-1.43-.35-2.15-.52.5-.14,1.03-.12,1.51.05,1.13.5,2.36.72,3.59.65.86.02,1.71.16,2.56.26.49.06.97.12,1.46.19l.06-.2-3.31-1.79c.89.03,1.55.29,3.09,1.42.66.54,1.48.82,2.33.81-1.02-1.04-2.06-2.14-3.15-3.19-.25-.19-.56-.27-.87-.23-2.22.35-4.46.67-6.65,1.14-2.38.51-4.59,1.62-6.42,3.22-1.72,1.51-3.17,3.32-4.28,5.32.37-.34.65-.76,1.02-1.08.31-.23.66-.4,1.04-.51.3-.11.65-.1.94-.24.46-.22.86-.55,1.32-.77,2.44-1.17,5.15-1.66,7.84-1.4,3.21.24,6.41.64,9.62.94,1.02.09,2.06.07,3.09.1v-.12l-3.1-1.52,1.34-.82m-56.77,68.41c-2.27,1.21-3.88,2.43-4.67,4.45-.74,1.52-.1,3.35,1.42,4.09.48.23,1.02.34,1.55.3.7,0,1.39-.14,2.03-.42,2.03-.94,3.82-2.33,5.24-4.05.38-.59.62-1.27.71-1.97.15-.64.13-1.32.24-1.98.16-.54-.15-1.11-.69-1.26-.08-.02-.17-.04-.25-.04-.48,0-.95.07-1.41.19-.18.03-.36.18-.53.17-1.24-.14-2.49.05-3.63.53m.52-11.41c-1.24.85-2.51,1.64-3.7,2.56-.59.46-1.09,1.03-1.49,1.67-1.14,1.4-.93,3.45.46,4.59.88.72,2.07.93,3.14.56,2.13-.53,4.01-1.79,5.31-3.56.12-.17.18-.37.17-.58-.04-1.39.51-2.73,1.51-3.68.2-.22.44-.68.34-.83-.23-.29-.55-.51-.91-.61-.47-.16-1.02-.12-1.48-.31-1.09-.46-2.33-.39-3.35.19m3.67,8.48c-1.13-.14-2.27.11-3.24.72-2.25,1.07-4.43,1.32-6.35-.81l-3.59,1.8-.13-.25c1.03-.54,2.06-1.1,3.11-1.6.42-.2.64-.36.24-.76-2.73,1.07-11.76,7.82-12.91,9.64l13.87-2.2-.03-.25h-1.4s-.01-.15-.01-.15l1.79-.26c0-.06-.01-.11-.02-.17l-.92-.09c.89-.13,1.72-.56,2.33-1.22.82-.64,1.68-1.23,2.58-1.77.26-.18.54-.33.81-.49-1.29.08-2.51.36-3.73.41-2.1.01-4.08.94-5.43,2.54-.02.02-.08,0-.27-.02.57-.63,1.08-1.2,1.59-1.76l-.08-.15-4.02,2.01c-.06-.11-.11-.22-.17-.33,1.12-.62,2.26-1.19,3.44-1.69,1.25-.4,2.52-.74,3.81-1.02-.42-.12-.8-.22-1.19-.33-.36-.1-.71-.21-1.07-.31,0-.1.01-.19.02-.29,3.88,1.39,7.48.5,10.97-1.21m-17.66-2.7c-.03-.09-.07-.18-.1-.27-.58.03-1.17.1-1.75.08-.62-.05-1.23.15-1.69.56-1.22,1.05-2.54,2-3.67,3.13-.75.72-1.34,1.6-1.72,2.57-.75,2.1-.29,4.26-.03,6.57.55-.53,1.01-.9,1.39-1.34,1.38-1.64,2.7-3.34,4.11-4.96,3.09-3.56,7.06-5.9,11.21-7.98.54-.34,1.04-.74,1.49-1.19l-.22-.3-2.42,1.49c.11-.21.19-.37.27-.53l-.16-.18-3.99,2.27.65-.78c-2.64-.06-3.67,2.04-5.14,3.58l1.02-1.66c-1.86,1.54-4.09,2.71-4.95,5.2.02-.2.04-.4.08-.8l-1.06,1.48-.16-.12,2.1-3-.98.16.11.07,4.03-2.86-.14-.18-1.18.1v-.09l2.9-1.03m42.16-13.99c-.74,1.1-1.15,2.48-2.39,2.94l2.04-2.87-1.96-.88c-.1.55-.19,1.08-.28,1.6h-.13c-.06-.29-.11-.59-.2-1.09l-3.3,3.92-.2-.04.65-1.19-4.02,2.25.58-.59-2.6.25s0-.04.01-.06l3.88-1.09c0-.09,0-.17-.01-.26l-1.4-.36c.8.08,1.61.05,2.4-.07,1.44-.67,2.72-1.64,3.75-2.86l-2.19.37v-.1s2.68-1.01,2.68-1.01l-.88-1.55c-2.24.69-3.58,2.51-5.2,3.95,1.27-1.94,3.07-3.48,5.18-4.42-.26-.05-.53,0-.77.12-2.04,1.08-3.91,2.47-5.54,4.1-1.47,1.31-2.83,2.79-5.02,3.1,1.65.73,3.34,1.34,5.08,1.83.71.16,1.45.11,2.12-.16,1.81-.73,3.58-1.57,5.29-2.51,1.27-.69,2.16-1.9,2.46-3.31m38.12-38.2c.18-.39.5-.8.41-.94-.23-.27-.55-.46-.9-.53-.27-.08-.58.06-.87.05-2.29-.16-4.57.38-6.54,1.54-1.8.99-2.75,3.03-2.34,5.05.12,1.06,1.08,1.82,2.14,1.7.04,0,.08-.01.13-.02,3.85-.6,6.84-2.32,8.03-6.3.02-.18,0-.37-.06-.54m-41.17,42.7c-.12,0-.23.01-.35.04-2.35,1.1-4.68,2.29-7.34,2.48-.17.01-.36.22-.47.39-.46.71-.88,1.44-1.32,2.16l-.17-.07,1.27-2.68c-.21.14-.41.3-.6.47-1.02,1.12-1.46,2.64-1.21,4.13.38,2.01,1.2,2.82,2.67,2.83,1.79.15,3.51-.74,4.42-2.3,1.05-1.87,1.99-3.81,2.9-5.75.15-.55.22-1.12.2-1.69m-10.69,7.66c-2.09,1.77-4.45,3.28-5.94,5.66-.32.56-.51,1.18-.55,1.82-.2.94.39,1.86,1.33,2.06.13.03.25.04.38.04,1.01.07,2.03-.04,3-.33,3.14-1.03,4.31-3.61,4.91-6.65-1.36-.05-2.53-1-2.85-2.33l-2.74,2.39-.15-.16,2.62-2.51m56.91-49.71c-.06-.08-.11-.16-.17-.24-.73.12-1.44.32-2.13.58-1.58.68-2.97,1.74-4.03,3.1-.32.4-.69.75-1.1,1.06-.82.53-1.08,1.61-.58,2.45.58,1.25,1.85,2.04,3.23,2,2.57-.04,4.31-2.15,5.09-4.18.02-.08.03-.15.03-.23-.04-1.13-.07-2.25-.11-3.39l-.87-.11.64-1.03m-23.42,6.49c-1.72.86-3.07,2.3-3.83,4.06-.29.63-.02,1.38.62,1.68.12.06.26.09.39.11,1.19.14,2.37.3,3.56.41.24.02.49-.07.66-.24,1.05-1.46,2.68-2.39,4.48-2.55.2-.02.39-.12.53-.27.36-.53.69-1.09.98-1.66.49-1,.19-1.77-.87-1.86-1.68-.12-3.36-.15-5.03-.07-.51.06-1.01.2-1.48.4m5.09-8.96c0-.06,0-.11,0-.17l2.18-.29c0-.08.02-.15.03-.22-1.56-.4-2.85-1.82-4.7-1.15-.04.01-.09-.04-.18-.08l.69-.49-3.56-1.09s.01-.03.02-.05l4.81,1.21.06-.16-1.25-.85.07-.1,5.83,3.44.17-.16c-.43-.68-.85-1.36-1.28-2.05.37.22.69.51.95.86.23.45.42.93.55,1.41.23.65.96,1.28,1.34,1.11.51-.22,1-.49,1.53-.76-.08-.13-.17-.26-.27-.38-1.56-1.79-3.62-3.08-5.91-3.72-3.26-.84-6.65-1.04-9.98-.57-.55.05-1.1.11-1.64.17v.21c.79.13,1.58.27,2.37.37,3.04.4,5.4,2.12,7.68,3.98,1.2.98,2.4,1.95,3.63,2.95l.69-.89-.76-.42c.75.3,1.61,0,2.01-.71-.41-.32-.83-.61-1.2-.95-.62-.61-1.53-.82-2.36-.54-.5.09-1.01.12-1.51.08m8.46,17.28c-.8-.43-1.78-.27-2.4.38-.31.25-.65.48-1,.67-1.34.73-2.7,1.42-3.13,3.08-.17.36-.37.71-.6,1.04-.23.48-.43.98-.57,1.49-.17.51.1,1.07.62,1.24.05.02.1.03.16.04,2.64.83,5.49-.34,6.8-2.77.54-1.08,1.01-2.19,1.47-3.31.1-.39.16-.79.18-1.19l-1.76.53.23-1.22m-7.55,19.24c.46-.29.79-.47,1.1-.69,2.43-1.71,2.87-4.42,3.43-7.03.24-1.12-.45-1.62-1.63-1.41-.5.09-.99.25-1.49.33-1.22.18-1.82,1.35-2.88,1.78-.05.02-.07.19-.07.3-.17,2.14-.68,4.25-1.52,6.23-.21.38-.06.85.32,1.06.2.11.44.12.66.04.75-.18,1.49-.44,2.08-.61m-41.43,10.94c-.48-.08-.97-.07-1.46.01-1.55.66-3.1,1.33-4.57,2.14-.99.57-1.7,1.53-1.96,2.65-.34.96-.08,2.04.65,2.75.71.61,1.72.73,2.56.32,2.81-.94,4.23-3.14,5.23-5.72.14-.32,0-.69-.33-.83-.07-.03-.15-.05-.23-.05-.22-.01-.44,0-.65.03l.06-.34.69-.95m55.24-30.72c-.93,1.21-2.26,2.06-3.75,2.38-.42.05-.78.34-.91.74-.6,1.28-1.26,2.54-1.85,3.83-.05.25.02.5.2.68.89.64,2.03.81,3.07.47,2.52-.66,4.52-2.57,5.3-5.05.23-.6.36-1.23.39-1.87-.05-.34-.27-.63-.57-.78-.61-.19-1.24-.32-1.87-.41m-12.65,3.34l-.18-.24c-.8.25-1.57.57-2.3.97-1.17.79-2.24,1.74-3.35,2.61-.18.15-.44.26-.54.45-.78,1.38-.88,3.04-.29,4.51.23.79,1.04,1.27,1.85,1.08,1.83-.14,3.49-1.11,4.51-2.63.5-.7.45-.83-.36-1.11-.79-.13-1.32-.87-1.19-1.65.01-.09.04-.17.07-.25.18-.64.44-1.26.76-1.85.31-.64.68-1.26,1.03-1.89m-43.47,23.33c.05-.08.1-.16.15-.24,1.21.53,2.62.37,3.67-.43,1.03-.78,2-1.65,3-2.48l-.05-.35c-.63-.23-1.28-.4-1.94-.53-2.87-.46-5.78.59-7.69,2.77-.94.92-.95,2.42-.04,3.36.31.31.69.54,1.12.64,1.26.39,2.61.34,3.84-.14-.46-.48-.86-.86-1.21-1.3-.33-.41-.58-.88-.87-1.32m48.32-16.72c-.25.88-.39,1.48-.58,2.06-.43,1.24-.82,2.5-1.36,3.7-.43,1-.97,1.96-1.62,2.84-.76,1.01-.85,1.07-.29,2.19.49.96.81,1.08,1.79.63,2.67-1.23,4.88-5.33,4.4-8.2-.17-1.06-.6-1.51-1.3-1.46l-1.04-1.76m13.47-19.21c-1.25.09-1.28.11-1.79,1.01-.84,1.69-2.37,2.92-4.2,3.37-.28.11-.51.33-.62.61-.46,1.49.2,3.1,1.57,3.85,1.18.66,2.66.24,3.32-.94.02-.04.05-.09.07-.13.69-1.27,1.27-2.59,1.75-3.95.07-.29.08-.59.03-.88-.05-.62-.16-1.22-.2-1.84,0-.37.02-.74.07-1.1m-17.72.34c-.15-.56-.24-1.13-.25-1.71.1-.95-.51-1.26-1.18-1.57-.25-.1-.51-.16-.78-.2-2.74-.54-5.35-.38-7.59,1.5-1.42,1.19-1.36,1.74.13,2.85.33.33.84.37,1.21.1,1.08-.61,2.3-.92,3.54-.88,1.63,0,3.26-.06,4.92-.1m27.39-2.24s-.04.05-.06.07c.4,1.91.79,3.83,1.2,5.73.43,1.99.81,4,1.38,5.95.46,1.32.99,2.62,1.6,3.88.94-1.55,1.62-3.24,2.02-5,.49-1.81-.67-2.85-1.68-4.02.03.4.06.8.08,1.21l-.11.02c-.07-.15-.13-.31-.19-.44-.17.42-.34.83-.51,1.24.62-1.75.38-3.1-1.31-4.15-.97-.66-1.64-1.68-1.85-2.83-.16-.56-.36-1.11-.58-1.65m-49.49,31.16c-.14.09-.22.12-.25.18-.88,1.57-2.4,2.67-4.17,3.02-.1.02-.24.05-.28.12-.49.85-1,1.7-1.43,2.59-.07.29-.03.59.09.86.4,1.3,1.23,1.84,2.96,1.92-.98.47-1.74.08-2.63-.5.75,1.05,2.2,1.29,3.25.54.19-.13.35-.3.5-.48,1.08-1.34,1.81-2.93,2.13-4.62.08-.2.08-.43,0-.63-.5-.73-.15-1.5-.17-2.25,0-.23,0-.45,0-.75m-34.26-.48l3.51,2.36c1.41-1.86,3.42-2.42,5.61-2.69-1.01-.62-1.97-1.32-2.87-2.09-.8-.81-1.98-1.11-3.08-.79-1.71.21-3.27,1.12-4.28,2.51.23,0,.46-.08.63-.24,1.16-1.17,2.75-1.79,4.39-1.71-1.65.42-3.27.89-4.36,2.36.22.04.46-.03.62-.19.55-.7,1.36-1.15,2.25-1.25l-2.42,1.71M103.25,11.77c-4.88-2.07-10.71-.51-12.51,2.5,3.36-.8,6.89-.62,10.15.54l.86-1.35c-2.32-.64-4.48-1.63-6.9-1.02,1.01-.45,2.13-.55,3.21-.31,1.16.23,2.29.56,3.44.83.21.05.52.09.65-.02.39-.37.75-.76,1.09-1.17m-30.81,67.24c-1.31,1.55-1.66,3.03-.32,4.61.19.26.33.55.41.87.09.4.16.81.21,1.22l-1.61-3.21c-.03,1.43,0,2.77-.1,4.1-.12.71,0,1.43.36,2.06.36.64.4,1.42.13,2.1l-.49-2.56h-.28c-.04,1.82-1.71,3.2-1.25,5.21.03.65-.05,1.29-.22,1.92,2.06-1.17,3.49-3.19,3.9-5.52.3-1.03.34-2.12.13-3.17-.9-2.44-1.2-5.05-.88-7.63m5.4-32.45c1.99-.59,3.97-1.26,5.99-1.74s4.07-.78,6.16-1.16c-.87-.7-1.78-1.39-2.63-2.15-.45-.42-1.11-.55-1.69-.33-3.24.87-5.65,2.96-7.83,5.39m-37.24,34.69c1.31.65,2.53,1.27,3.76,1.84.21.05.44.01.62-.11,1.07-.65,2.13-1.31,3.16-2.01.4-.27,1.03-.51.47-1.2-.06-.07.13-.33.3-.74-.81-.36-1.69-.58-2.58-.64-1.58.25-3.14.64-4.66,1.17-.6.29-1.15.65-1.65,1.09l.19.28c.53-.47,1.12-.87,1.74-1.21.74-.25,1.5-.43,2.27-.55-1.13.77-2.71.56-3.62,2.08M122.87,31.12l-.22-.06c-.63,1.54-2.03,2.78-1.81,4.68-.08-.26-.16-.51-.29-.94-.61,1.53-.84,3.18-.68,4.82.14.67.39,1.3.75,1.88.27.39.58.75.93,1.08l-.11.11-1.14-1.01-.17.11c.36.64.57,1.51,1.11,1.85.88.42,1.81.72,2.77.9-.01-.12-.03-.24-.07-.35-.26-.56-.55-1.1-.87-1.63-1.79-2.6-2.13-5.93-.91-8.84.17-.45.33-.91.46-1.37.11-.4.17-.82.25-1.23M96.7,2.5c-.97,2.54-1.25,5.29-.8,7.97.96.14,1.81-.33,2.72-.16,1,.17,2.02.22,3.13.34-2.25-2.44-4.48-4.77-5.05-8.14m-20.2,43.65c.09.02.18.04.27.06,1.81-2.97,4.58-5.24,7.84-6.43-.95-.56-1.71-1.01-2.61-.24-.41.3-.84.57-1.29.81-.02-.03-.04-.05-.05-.08l1.89-1.43c-.73-.13-1.33-.22-1.92-.35-.44-.14-.92.06-1.13.47-1.28,1.96-2.27,4.09-2.95,6.33-.05.28-.07.57-.04.86m32.81-6.47c-1.25-.4-2.48-.86-3.69-1.39-1.69-.88-3.52-1.47-5.41-1.74-.63-.02-1.26.02-1.89.12v.28c1.26.78,2.33,1.89,3.99,1.97.83.05,1.65.28,2.39.65,1.5.76,2.96.44,4.61.1m-2.42-3.85c-.49-.38-.87-.7-1.28-.98-.17-.11-.37-.15-.57-.11-.72.27-1.42.59-2.12.9-.01.07-.03.14-.04.2,1.98.64,3.93,1.4,5.95,1.87,1.55.3,3.12.45,4.69.47.59-.05,1.18-.18,1.74-.39-2.17.24-4.36-.35-6.11-1.64-.82-.56-1.58-1.2-2.41-1.75-.28-.11-.58-.16-.88-.15l-.09.32,3.56,2.56-4.14-1.51,1.71.21m15.37-8.99c-2.24,2.74-4.83,4.82-8.61,5.08,1.62,1.34,3.96,1.33,5.56-.02,1.58-1.29,2.1-3.29,3.05-5.06m-11.96,24.77l.37.04c.53-1.22.99-2.47,1.38-3.75.64-2.67,1.69-5.22,3.11-7.57.18-.32.34-.65.49-.99l-.31-.15c-.73,1.51-1.55,2.98-2.16,4.54-.42,1.29-1.31,2.37-2.49,3.03-.44.21-.86.45-1.25.73-.34.3-.65.63-.94.97l.18.19c.13-.02.26-.04.38-.07.96-.21,1.15-.02,1.14.94-.01.69.07,1.39.11,2.09m-15.37,7.21l.13.08c1.61-1.72,3.21-3.45,4.75-5.1-1.74,1.04-3.68-.55-5.54.02.34.52.54,1.15.98,1.44.65.42.49.84.32,1.37-.23.73-.43,1.47-.64,2.2m13.3-11.52l.12.03c.77-1.6,1.67-3.14,2.68-4.6,1.22-1.31,2.54-2.51,3.95-3.61l-.17-.22c-.37.21-.72.46-1.03.74-.99,1.13-2.32,1.92-3.79,2.25-.97.3-1.91.7-2.8,1.19.37.4.65.68.89.98.07.09,0,.35.06.37.83.27.39.86.33,1.33-.06.51-.16,1.03-.25,1.54m-16.55-1.95c.03-.14.05-.29.08-.43-.49-.27-1.02-.45-1.57-.53-4.42.13-8.57,1.51-12.71,2.93.1.65.37.83,1,.65.85-.25,1.73-.36,2.59-.56.26-.08.51-.19.75-.33l-.07-.14-.69-.09c.55-.1,1.09-.24,1.62-.43,2.03-1.14,4.4-1.52,6.68-1.09.77.06,1.55.07,2.33.03m-41.68,28.74c.72-.61.78-.99-.03-1.46-.97-.5-1.96-.95-2.98-1.32-.02,0-.07.04-.14.09l.39.21c-.6.78-.05,1.52.16,2.19.56,1.75,1.35,2.39,2.43,2.12l-.42-.46,1.04-.62c-.19-.31-.33-.54-.46-.75m68.81-34.56c.32-1.09.66-2.26,1-3.43l-.2-.07c-.74.91-1.36,1.91-1.84,2.98-.17,1.07-.17,2.15,0,3.22,0,.06.09.14.16.17.75.31,1.5.6,2.24.89-.32-1.45-.63-2.82-.93-4.19-.16.17-.33.35-.42.44m-48.11,46.04c-.59.63-1.05,1.13-1.51,1.63l-.26-.14c1.49-1,2.14-2.86,1.61-4.58-.04.05-.08.1-.11.16-.57,1.59-1.01,3.24-2.28,4.48-.08.12-.1.28-.05.42.48,1,.98,1.99,1.56,3.14.68-1.62,1.04-3.35,1.05-5.1m68.29-37.19l.08-.11,2,.99c0,.1,0,.2-.01.31l-2.97.3c1.26.87,3.28.63,3.89-.36l-4.28-3.21c-.24.88-.5,1.81-.81,2.96,1.25.08,2.3.15,3.35.21,0-.06,0-.13,0-.19l-1.26-.9m-70.97,44.4c.54.79-.11,1.86.9,2.54-.08-.95-.09-1.78-.22-2.59-.08-1.24-.53-2.42-1.28-3.41-.33-.37-.69-.87-1.16-.08-.07.12-.38.09-.64.15l2.18,4.36.14-.05c.02-.28.04-.55.07-.92m10.76-42.76c.18.67.31,1.36.38,2.05,0,.68.43,1.28,1.08,1.47.74-.88,1.44-1.72,2.11-2.53-.77-1.2-2.31-1.62-3.58-.99m-2.99,13.45l.04-.15c-.99-.49-2-.94-2.97-1.47-.93-.63-2.06-.9-3.18-.78.56.82,1.07,1.58,1.58,2.32.23.44.74.66,1.22.52.52-.18,1.06-.32,1.6-.42.57-.04,1.14-.05,1.71-.03m4.94,9.14c.52-1.12.95-2.24,1.53-3.27s1.3-1.97,2.02-3.04c-1.26-.05-1.29-.07-1.82.66-.78,1.08-1.5,2.21-2.27,3.3-.37.49-.35,1.16.04,1.63.16.25.34.48.51.71m13.61-33.51c.5.64,1.32.94,2.11.78,2.93-.42,5.87-.71,8.75.34.03.01.08-.04.12-.06-1.89-1.2-9.42-1.84-10.99-1.06m34.1-2.69l.18-.13c-1.14-2.78-2.72-5.39-3.16-8.48-.23.33-.36.72-.38,1.12.18,2.04.85,4.01,1.94,5.74.44.61.91,1.19,1.42,1.74m-2.61,19.19l.25-.14c-.44-.82-.95-1.6-1.51-2.35-1.89-2.15-3.84-4.21-4.89-6.99-.46-1.22-1.8-1.82-3.04-2.29.45.49.94.94,1.47,1.35,1.18.91,2.03,2.17,2.43,3.6.26.84.72,1.6,1.34,2.22,1.48,1.4,3.1,2.65,3.95,4.59m-23.21.72c-1.75.69-1.59,2.53-2.43,3.88,1.42-.3,2.67-1.13,3.51-2.31-.4-.58-.76-1.1-1.08-1.57m-6.01-2.96c.09-.46.17-.79.22-1.13.03-.19.07-.52,0-.55-.57-.25-1.17-.7-1.79-.26-1.08.76-2.11,1.58-3.16,2.38,1.5-.58,3.14-.73,4.72-.44m16.58-6.47l-.1-.03c-.37,1.03-.68,2.09-1.12,3.09s-.99,1.96-1.51,2.98c2.27.12,1.74,1.87,2.06,3.12.61-1.42-.1-2.45-.89-3.46l.17-.12.7.92c-.05-1.05-.05-2.1.01-3.14.17-1.13.39-2.26.67-3.37m-75.59,53.02c.77-.19,1.79-.46,2.82-.68.71-.15,1.44-.17,2.15-.31,1.18-.27,2.22-.97,2.91-1.97-.76.32-1.57.53-2.4.62-.81,0-1.61.24-2.27.71-1.12.66-2.32,1.19-3.2,1.63m75.17-60.93c-1.61-.32-3.33-.57-4.99-1.03-1.83-.51-3.6-1.23-5.41-1.83-.35-.08-.7-.12-1.05-.12,1.25.53,2.47,1,3.7,1.44,1.66.59,3.32,1.16,4.99,1.75.92.24,1.89.17,2.76-.2m-5.02,1.58c-.92.04-1.82.24-2.67.59-.72.34-1.74.04-2.63.02,1.16.81,1.2.81.93,2.14-.19.65-.42,1.29-.71,1.9.8-.87,1.52-1.79,2.17-2.77.7-.97,1.74-1.64,2.91-1.89m-7.69,18.9c.13-.63.32-1.25.58-1.84.37-.57.8-1.1,1.28-1.59.02.06.04.12.06.18l-4.69,1.8,1.37,1.1,1.41.35m-2.07-2.46c.08.09.16.18.24.27.37-.33.73-.65,1.1-.98.12-.1.25-.29.37-.28,1.1.1,1.61-.81,2.33-1.35.34-.35.63-.75.87-1.17-2.83-.13-3.38,2.33-4.91,3.51m.73,9.8l-1.39.56c.18-.23.32-.42.47-.61l-.16-.14-1.27,1.09c.36.58.76,1.13,1.2,1.65.43.39.89.73,1.38,1.04-.07-1-.15-2.19-.24-3.59m-59.24,22.11l-.04.12c.44.17.91.28,1.38.33.86-.12,1.68.42,1.91,1.26,1-.89,1.92-1.71,2.62-2.33l-5.88.62m13.62-15.25l.08-.17-3.79-2.32-.15.24c.4.25.78.52,1.14.81.59.4.83,1.15.59,1.82-.14.44-.06,1.05-.18,1.58,0,.02.08.06.12.08.93-.32,1.76-.75,1.98-1.73l-1.63-.91.08-.15,1.76.74m-11.65,26.09c1.44.58,1.56.85,1.23,2.45-.06.46-.08.93-.07,1.39l.53.11c.37-1.72.74-3.43,1.03-4.82l-2.72.86m.22-11.58l.65-1.21-1.36-.13.46-.69-.17-.16c-1.26.41-1.72,1.78-2.88,2.47l3.3-.28m58.13-35.94c-.19-.3-.29-.63-.52-.78-.2-.13-.54-.04-.8-.12-.18-.05-.32-.28-.5-.31-.2-.02-.4-.01-.59.03-.02.67-.04,1.19-.07,1.83.12.06.22.15.29.26.36.75.74.48,1.15.06.32-.32.65-.63,1.03-.98m.02-13.79s.03-.08.05-.12c-.38-.23-.74-.48-1.13-.68-.37-.19-.8-.49-1.15-.44-1.33.22-2.64.58-3.95.88,0,.04-.01.08-.02.12l6.2.23m-21.32,6.5c2.09-2.04,4.62-3.56,7.41-4.43-.3-.18-.65-.26-1-.22-.57.16-1.12.37-1.65.63-1.9.91-3.54,2.3-4.76,4.02m6.15,14.4c.37-1.49.42-1.59-.64-2.1-.74-.25-1.51-.4-2.29-.46-.04.1-.09.21-.13.31.99.72,1.97,1.45,3.06,2.25m19-18.68v-.26c-1.56-.56-6.47-.44-7.7.25.29,0,.46.01.63.01,1.36,0,2.72.01,4.09.01.99,0,1.99-.01,2.98-.02m-27.36,25.95c.25-.35.39-.55.5-.71-.29-.4-.69-.71-.77-1.09-.19-.86-.76-.88-1.67-.89.92.24,1.5,1.16,1.32,2.09-.07.94-.71,1.46-1.06,2.38,1.06-.77,1.96-1.43,2.86-2.09-.05-.07-.09-.15-.14-.22l-1.04.52m19.18,2.83c.09-.9.17-1.73.25-2.6-.37.11-.72.25-1.07.41-.31.2-.6.43-.87.68l-.17-.09.24-.36s-.08-.1-.13-.15l-1.48,1.17c1.59-.26,2.36-.07,3.23.94m-3.87-16.36l.19.14,3.11-2.33-.16-.22-1.71,1.29-.1-.14,1.08-.93-2.06-1.1c.61,1.06.48,2.39-.34,3.3m8.14-35.51l.92-2.34-2.46-.66-.13.18,1.68,2.83m8.18,24.54c-2.11-.34-2.52-.08-3.69,2.35l3.69-2.35m-27.28,6.31l-1.25.55-.06-.14c.47-.31.94-.61,1.42-.92-.02-.04-.04-.09-.06-.13l-2.91.5c.4.48.64,1.03.95,1.08.64.03,1.27-.02,1.89-.15,0-.27.01-.48.02-.78m7.75,13.75l-.22-.28-1.22.98-.06-.05c.17-.25.33-.5.52-.78l-1.46-.41c.06.84.11,1.63.17,2.44.29-.21.64-.44.97-.71.45-.38.87-.78,1.31-1.18m-48.61,18.45c.73-.93,1.76-1.57,2.92-1.81,1.13-.24,2.28-.41,3.5-.62-1.77-.81-6.12.82-6.42,2.42m9.27,9.09l.8-.07c0,.24.01.42.02.6l.26.09c.33-.71.66-1.43,1.02-2.19-.92-.36-1.45.35-2.22.43l.62.38-.49.76M99.29,18.51c.37-.64.36-.64-.27-1.55-.32-.46-.61-.95-.88-1.44-.54-1.01-.53-1.01-1.2-.97l2.35,3.96m-58.9,77.53l-1.75,1.76c.03.07.06.15.09.22l2.69-.67-1.03-1.31m28.42-5.47l.13-.06c-.48-.96-.96-1.93-1.43-2.86-.36.12-.73.22-1.1.3-.33.04-.67.05-1,.04l-.03.27c.33.02.65.07.97.13.47.05.93.22,1.32.48.44.52.82,1.09,1.14,1.69m40.95-43.97c1.57-.51,2.73-1.87,2.98-3.5l-2.98,3.5m-8.99-5.3c0-.07-.02-.13-.03-.2l-3.97-.03c-.02.12-.04.25-.06.38.28.13.57.39.84.36,1.08-.12,2.15-.33,3.23-.5m9.58,3.84l2.96-3.72c-1.46.78-2.53,2.12-2.96,3.72m-47.6,45.51c-.27-1.02-.51-1.95-.81-3.1-.36.75-.63,1.29-.8,1.65l1.61,1.44m19.17-23.93c-1.52-.03-1.74,1.14-2.17,2.21,1.31-.24,1.42-1.53,2.17-2.21m-.32,14.22c.43,1.55,1.57,2.8,3.08,3.35l-3.08-3.35m-32.08,5.43c1.06,1.19,2.63,1.81,4.22,1.66l-4.22-1.66m28.97-25.97l-1.79-1.76c.19.47.35.95.48,1.44.01.31-.02.62-.09.92.33-.12.66-.22.99-.35.14-.07.28-.15.41-.25m-36.25,25.71l-.06.26c.85-.11.71.43.69.88,1.16-.54,1.25-.69.9-1.63l-1.53.49m74.93-43.99c-.07-.67-.14-1.28-.23-2.05-.47.68-.86,1.23-1.28,1.83l1.5.22m-3.34-4.92c1.66.14,2.98-.48,3.37-1.69l-3.37,1.69m-66.87,59.05l2.83-2.66-.18-.19c-1.22.6-1.84,1.82-2.65,2.84m27.35-23.61c-.27,1.12-.52,2.14-.82,3.38.8-1.12,1.42-2.05.82-3.38m39.41-46.54c.03-.07.05-.14.08-.21l-3.21-1.17c-.03.07-.05.13-.08.2.9.84,2.15.75,3.21,1.17m-59.32,71.22l-.76,2.25c1.34-.39.73-1.5.76-2.25m-9.39-9.62l-.74-.77-1.34,1.08c.03.05.06.1.08.15l1.99-.47m33.63-28.67c-.62-.86-1.21-1.77-2.56-1.67l2.56,1.67m-26.57,17.93l-2.5-.29c.62.75,1.72.88,2.5.29m-2.57,2.65c-.02.31-.05.64-.08,1.05l1.49-.46c-.01-.08-.03-.16-.04-.24l-1.37-.35m-.17,12.47c.06.08.11.17.16.25.51-.16,1.34.17,1.21-1.12l-1.38.86m-13.73-28.6l-1.03,1.39q1.19-.43,1.03-1.39m43.63-3.5c-.54-.32-1.09-.63-1.63-.94.41.56.76,1.19,1.63.94m-6.13,12.35l-.25-.1c-.26.66-.52,1.31-.77,1.97l.22.1.8-1.96"/>
  <path id="Path_6301" data-name="Path 6301" class="cls-1" d="m54.6,100.55s.07.02.07.03c.41,1.84.53,3.73.37,5.6-.14-1.18-.28-2.36-.4-3.39-.83,1.99-1.74,4.05-2.55,6.14-.1.52-.14,1.06-.09,1.59-.05.66-.12,1.31-.19,1.97l-.23-.02.09-2.57-.17-.06c-1.04,1.68-2.13,3.33-3.08,5.05-.26.47-.08,1.18-.22,1.81-.05-.31-.09-.62-.16-1.1-.26.63-.48,1.15-.69,1.66l-.13-.04c.36-.99.72-1.97,1.15-3.16l-1.51,1.15c-.05-.06-.1-.12-.15-.18.56-.47,1.12-.93,1.66-1.41.31-.25.58-.53.8-.86,1.01-1.68,1.98-3.38,2.96-5.07.17-.29.29-.61.48-1.03l-3.51,2.59-.08-.05c.28-.32.56-.64.85-.96.09-.1.2-.19.32-.25,2.69-1.14,3.45-3.54,4.01-6.08.1-.46.28-.9.42-1.35h-.02"/>
  <path id="Path_6302" data-name="Path 6302" class="cls-1" d="m45.97,118.15c-.02,1.09-.03,2.18-.05,3.27l3.87-5.01.17.11c-.12.21-.24.42-.38.61-1.01,1.41-2.01,2.83-3.06,4.22-.32.32-.67.61-1.05.86.14-1.52.25-2.79.37-4.07h.13"/>
  <path id="Path_6303" data-name="Path 6303" class="cls-1" d="m53.66,110.65l2.49-5.11c0,1.98-1.41,3.47-2.49,5.11"/>
  <path id="Path_6304" data-name="Path 6304" class="cls-1" d="m59.87,97.41l1.13-1.8c-.1,1.74-1.7,3.75-2.73,3.69.47-.56,1.04-1.24,1.61-1.93v.04Z"/>
  <path id="Path_6305" data-name="Path 6305" class="cls-1" d="m59.88,97.37c-.43.43-.84.88-1.31,1.27-.21.13-.44.23-.68.28l2.23-2.42-.25.91v-.04"/>
  <path id="Path_6306" data-name="Path 6306" class="cls-1" d="m48.68,106.55l.59-1.03.36-.41.08.05c-.38.79-.76,1.58-1.14,2.37l-.1-.03.2-.95"/>
  <path id="Path_6307" data-name="Path 6307" class="cls-1" d="m90.69,88.29c.66-.27,1.35-.49,1.98-.82,1.21-.63,2.39-1.32,3.68-2.04l-3.08-.57,4.45.1c-2.06,1.41-4.28,2.56-6.61,3.42l-.42-.09"/>
  <path id="Path_6308" data-name="Path 6308" class="cls-1" d="m83.81,22.78l1.25.52s-.02.08-.03.12l-2.54-.7c.87.55,1.71,1.15,2.5,1.8,1.13,1.1,2.21,2.25,3.22,3.46-2.16-1.84-3.78-4.34-6.75-5.14.03-.07.06-.14.09-.21l1.48-.12.79.27"/>
  <path id="Path_6309" data-name="Path 6309" class="cls-1" d="m77.87,65.69c-1.76-1.1-1.29-2.72-.21-3.68.71-.69,1.6-1.16,2.58-1.35l-1.85,1.44-.4.21c-1.35,1-1.26,2.25.25,3.39l-.32.02-.05-.03Z"/>
  <path id="Path_6310" data-name="Path 6310" class="cls-1" d="m37.27,84.85c-1.91-1.27-4.08-2.1-6.35-2.41,1.11-.24,2.26-.1,3.28.41,1.44.64,2.85,1.37,4.27,2.07.06.03.08.13.12.2l-1.32-.27Z"/>
  <path id="Path_6311" data-name="Path 6311" class="cls-1" d="m109.49,62.07l-2.01,1.2c-.06-.08-.12-.15-.18-.23,2.57-.8,2.72-3.19,3.47-5.18l.19.07c-.28.96-.55,1.92-.82,2.89l-.24.83-.42.43"/>
  <path id="Path_6312" data-name="Path 6312" class="cls-1" d="m62.5,96.17c.03-.26.07-.51.12-.96.44,1.81.83,3.45,1.22,5.09l-.17.06-.85-2.72c-.11-.49-.22-.98-.33-1.47"/>
  <path id="Path_6313" data-name="Path 6313" class="cls-1" d="m130.32,46.87l-2.01-2.32.19-.17c1.08,1.25,2.05,2.62,3.73,3.25-.22-.04-.44-.08-.66-.12s-.46-.1-.69-.15l-.55-.48"/>
  <path id="Path_6314" data-name="Path 6314" class="cls-1" d="m121.81,29.39c.04.07.13.16.11.2-.8,1.52-1.61,3.03-2.42,4.55l-.2-.11c.48-.99.95-1.97,1.43-2.96l1.08-1.67"/>
  <path id="Path_6315" data-name="Path 6315" class="cls-1" d="m89.37,61.36l-1.25-.17,3.54-.94.08.1-1.94.81-.43.2"/>
  <path id="Path_6316" data-name="Path 6316" class="cls-1" d="m129.83,56.8l-.18.2c0-.83,0-1.61,0-2.4l.07-.04c.13.42.27.85.4,1.28-.1.32-.19.64-.29.96"/>
  <path id="Path_6317" data-name="Path 6317" class="cls-1" d="m62.05,79.38l1.51,1.08c.04-.05.08-.1.12-.16l-.49-.4c1.45.53,2.65-.14,3.94-.61l-1.26.9.14.19,2.78-2.12c-.87,1.6-2.57,2.58-4.39,2.52-1,.06-1.93-.5-2.36-1.41"/>
  <path id="Path_6318" data-name="Path 6318" class="cls-1" d="m58.85,71.85q-4.37,1.79-5.57,3.55c.07-1.68,3.22-3.69,5.57-3.55"/>
  <path id="Path_6319" data-name="Path 6319" class="cls-1" d="m57.19,72.79l-3.03,2.1c.66-1.1,1.76-1.87,3.03-2.1"/>
  <path id="Path_6320" data-name="Path 6320" class="cls-1" d="m60.51,76.67l-2.5,1.62c-.05-.08-.1-.15-.15-.23l2.48-1.6.17.21"/>
  <path id="Path_6321" data-name="Path 6321" class="cls-1" d="m71.72,69.94l-2.72,1-.09-.24,2.73-1.03c.02.09.05.18.07.28"/>
  <path id="Path_6322" data-name="Path 6322" class="cls-1" d="m62.23,68.63l1.5-.29c0,.13.02.26.03.39l-1.52-.13v.03"/>
  <path id="Path_6323" data-name="Path 6323" class="cls-1" d="m66.01,69.04c.28-.66.56-1.31.85-1.97.06.03.12.05.18.07-.25.66-.51,1.32-.76,1.98l-.27-.09"/>
  <path id="Path_6324" data-name="Path 6324" class="cls-1" d="m9.88,88.85c.07.01.13.04.19.08,1.66,1.6,3.71,1.9,5.89,1.82,1.23-.05,2.46-.06,3.76-.1l-2.46-1.74.14-.2c.18.13.35.27.53.39,1.28,1.04,2.93,1.53,4.58,1.34,1.95-.3,3.93-.45,5.91-.85l-1.19-.32v-.31c2.4.82,4.55.06,6.68-.86-1.85,1.1-3.9,1.81-6.04,2.08-2.35.31-4.59,1.2-6.5,2.6-.04-.06-.08-.12-.11-.18l2.47-1.77c-1.69.11-3.36.29-5.03.31-1.67.12-3.28.66-4.68,1.56l-.1-.18,2.06-1.27-7.66-.86q.4-.29,2.92-.13l-1.45-1.33.08-.09"/>
  <path id="Path_6325" data-name="Path 6325" class="cls-1" d="m19.16,94.43c4.07-.34,8.07-.92,11.7-2.95-3.54,2.4-7.54,3.03-11.7,2.95"/>
  <path id="Path_6326" data-name="Path 6326" class="cls-1" d="m2.34,87.2c.84.9,1.69,1.79,2.53,2.69-1.31-.67-2.36-1.76-2.99-3.09.03-.09.07-.18.1-.27l4.43,1.12c0,.06-.02.12-.03.17l-3.9-.81-.15.18"/>
  <path id="Path_6327" data-name="Path 6327" class="cls-1" d="m23.11,93.49c2.65-.43,5.2-1.34,7.52-2.69-2.13,1.73-4.78,2.68-7.52,2.69"/>
  <path id="Path_6328" data-name="Path 6328" class="cls-1" d="m22.07,86.63l-6.9.65c0-.07-.01-.13-.02-.2,2.27-.24,4.51-.96,6.91-.45"/>
  <path id="Path_6329" data-name="Path 6329" class="cls-1" d="m44.68,62.06c3.83-.26,7.27-1.83,10.76-3.23-3.38,1.77-6.81,3.4-10.76,3.23"/>
  <path id="Path_6330" data-name="Path 6330" class="cls-1" d="m51.93,59.33l4.12-3.7.2.24c-1.65.94-2.37,3.03-4.32,3.47"/>
  <path id="Path_6331" data-name="Path 6331" class="cls-1" d="m67.35,56.21c-.58.75-2.49,1.54-4.4,1.71l4.4-1.71"/>
  <path id="Path_6332" data-name="Path 6332" class="cls-1" d="m66.6,47.69c-1.26-.86-2.58-1.64-3.94-2.32-1.44-.54-2.92-.97-4.42-1.31,1.79-.51,6.01,1.3,8.37,3.63"/>
  <path id="Path_6333" data-name="Path 6333" class="cls-1" d="m65.71,54.3c-2.52.42-5.94-.49-7.35-1.95,2.26,1.24,4.78,1.91,7.35,1.95"/>
  <path id="Path_6334" data-name="Path 6334" class="cls-1" d="m29.57,126.49l2.22-3.65c-.21,1.47-1.01,2.79-2.22,3.65"/>
  <path id="Path_6335" data-name="Path 6335" class="cls-1" d="m106.32,28.71l-2.5-.97c.87-.06,1.73.15,2.46.61,2.49,1.2,5.15.9,7.98,1l-2.84-1.47c1.46.38,2.99,1.13,4.48,1.08,1.46-.22,2.88-.65,4.22-1.27-1.87,1.26-4.06,1.95-6.31,1.98-1.96.08-3.79.32-5.25,1.82l-.12-.2,2.07-1.71c-1.75-.14-3.51-.17-5.26-.08-1.15.13-1.77,1.29-2.39,2.24-.27.42-.53.84-.79,1.27l-.22-.14,1.92-3.1-5.37,3.19-.09-.16,2.43-1.5-.03-.18-1.78-.21-.02-.17c.43-.06.86-.07,1.29,0,.65.18,1.34.03,1.86-.4,1.29-.84,2.74-1.4,4.26-1.63"/>
  <path id="Path_6336" data-name="Path 6336" class="cls-1" d="m99.71,35.15c-2.39.47-4.31-.96-6.41-1.59l2.13-1.32.06.05-1.32,1.15c1.68,1.02,3.58,1.6,5.54,1.7"/>
  <path id="Path_6337" data-name="Path 6337" class="cls-1" d="m107.7,26.84l-6.68.95c2.12-.85,4.41-1.18,6.68-.95"/>
  <path id="Path_6338" data-name="Path 6338" class="cls-1" d="m112.88,31.03l4.61-.95c-1.41.76-3.01,1.09-4.61.95"/>
  <path id="Path_6339" data-name="Path 6339" class="cls-1" d="m107.18,32.7l-2.96,1.48c.81-.78,1.84-1.3,2.96-1.48"/>
  <path id="Path_6340" data-name="Path 6340" class="cls-1" d="m23.64,79.91l1.41-.92-2.43-.24c-.15-.34-.26-.6-.39-.91,2.01,1.43,4.32.54,6.49.92l-.99-.84.09-.12c.17.09.34.18.5.29.87.58,1.86.96,2.89,1.13,1.43.27,2.82.75,4.19,1.14l-1.82-2.31.1-.1c.52.44.98.95,1.38,1.5.93,1.52,2.35,2.69,4.02,3.31.63.29,1.28.53,2.15.89l-1.28-1.56c1.18.66,1.77,2.11,3.31,2.26-2.33-.28-4.45-1.79-6.94-.96v-.28l2-.31c-1.57-.87-3.03-1.75-4.56-2.49-.93-.42-2.02-.32-2.85.27-.18.14-.41.2-.63.18l1.55-1.06c-2.83-.19-5.52-1.54-8.12.46-.02-.08-.04-.17-.06-.25"/>
  <path id="Path_6341" data-name="Path 6341" class="cls-1" d="m24.56,81.92c-3.16-.47-4.58-3.4-7.05-4.98l3.71-.27s.01.04.02.06l-2.67.54c2,1.6,3.36,3.91,5.99,4.64"/>
  <path id="Path_6342" data-name="Path 6342" class="cls-1" d="m31.2,76.44l-4.93-.85c1.69-.3,3.44,0,4.93.85"/>
  <path id="Path_6343" data-name="Path 6343" class="cls-1" d="m78.78,81.56l2.25,2.54-.16.14c-.75-.85-1.5-1.69-2.25-2.54l.16-.14"/>
  <path id="Path_6344" data-name="Path 6344" class="cls-1" d="m70.33,47.8c.55,3.04,2.69,4.92,4.88,6.76-2.54-1.6-4.69-3.48-4.88-6.76"/>
  <path id="Path_6345" data-name="Path 6345" class="cls-1" d="m76.05,47.47c1.68,1.12,1.91,2.85,1.94,4.67-.46-1.63-.63-3.38-1.94-4.67"/>
  <path id="Path_6346" data-name="Path 6346" class="cls-1" d="m70.39,42.45c0-1.37-1.17-2.82.02-4.03,0,1.28-.01,2.65-.02,4.03"/>
  <path id="Path_6347" data-name="Path 6347" class="cls-1" d="m73.57,37.13l-1.46,1.1-.53-.26,1.98-.85"/>
  <path id="Path_6348" data-name="Path 6348" class="cls-1" d="m79.05,98.44c-.35,1.44-.7,2.89-1.09,4.5l-1.62-5.02.17-.06,1.47,4.01c.48-1.17.92-2.26,1.36-3.35l-.29-.08"/>
  <path id="Path_6349" data-name="Path 6349" class="cls-1" d="m74.97,88c1.04,1.44.65,3.17.65,4.83-.22-1.63-.44-3.25-.65-4.83"/>
  <path id="Path_6350" data-name="Path 6350" class="cls-1" d="m80.38,91.28c.07,1.09.13,2.19.2,3.28l-.27.02-.22-3.28.29-.02"/>
  <path id="Path_6351" data-name="Path 6351" class="cls-1" d="m115.09,49.9c-.04-.84-.08-1.67-.1-2.51,0-.31.02-.62.03-.92.5,2.76,1.13,5.52.11,8.31-.07.28-.09.57-.07.86-.02.82-.03,1.63-.05,2.45h-.22v-1.99c-1.17,2.05-1.9,4.33-2.14,6.68v.04c-.13.23-.23.47-.3.72-.57,2.55-1.66,4.96-3.19,7.08-.2.38-.31.81-.32,1.24-.06.59-.05,1.18-.07,1.78h-.23c.01-.66.03-1.31.04-1.96l-.13-.07c-.42.64-.84,1.28-1.26,1.92l-.17-.1c1.02-1.65,2.05-3.31,3.07-4.96l-.18-.21-2.32,1.86c.37-.85,1.05-1.52,1.9-1.87.78-.33,1.34-1.02,1.53-1.84.57-2.21,1.16-4.42,1.73-6.62.01-.06-.04-.14-.07-.21.79-1.95,1.69-3.87,2.31-5.87.23-1.17.32-2.36.27-3.56,0-.08-.12-.16-.18-.24"/>
  <path id="Path_6352" data-name="Path 6352" class="cls-1" d="m116.15,47.49c1.53,2.13,1.58,4.99.12,7.17,1.03-2.29.98-4.92-.12-7.17"/>
  <path id="Path_6353" data-name="Path 6353" class="cls-1" d="m112.64,62.81v-.04c.47.77.56,1.71.26,2.55l-.26-2.51"/>
  <path id="Path_6354" data-name="Path 6354" class="cls-1" d="m46.14,72.59c-.88-3.1-2.89-5.45-5-7.73,2.5,2.05,4.47,4.43,5,7.73"/>
  <path id="Path_6355" data-name="Path 6355" class="cls-1" d="m37.12,58.51c.25.73.49,1.46.74,2.19l-.06.05-.68-.98c-.17.68-.31,1.24-.45,1.8l-.2-.04c.17-1.01.35-2.03.52-3.04l.13.02Z"/>
  <path id="Path_6356" data-name="Path 6356" class="cls-1" d="m128.35,32.3c-.3-.97-.57-1.96-.91-2.93-.74-2.46-.75-5.08-.04-7.55,0,.22,0,.44-.02.66-.06.88-.12,1.77-.18,2.65-.21,1.28.22,2.59,1.16,3.48l-.84-.41c.98,2.86,2.21,5.33,5.4,6.16-.04.06-.08.12-.12.19l-1.69-.47c.48,1.15,3.39,3.99,5.07,5.06l-1.2-.29c.26.46.49.93.7,1.41.19.51.29,1.05.28,1.6-.38-1-.83-1.97-1.35-2.9-.7-.95-1.46-1.86-2.27-2.72.03.68.04,1.2.07,1.71h-.17c-.04-.19-.07-.39-.11-.6-.15-1.01-.59-1.96-1.26-2.73-.82-.88-1.51-1.87-2.29-2.86-.09.23-.17.43-.21.54"/>
  <path id="Path_6357" data-name="Path 6357" class="cls-1" d="m131.08,39.1c.97,1.03,2,2.01,2.89,3.1s1.65,2.28,2.52,3.53c.22-.74.43-1.43.64-2.12l.18.05c-.24.92-.49,1.83-.71,2.67l-5.55-7.2.02-.02"/>
  <path id="Path_6358" data-name="Path 6358" class="cls-1" d="m136.64,37.76l-3.77-4.37c1.75,1.33,3.21,2.62,3.77,4.37"/>
  <path id="Path_6359" data-name="Path 6359" class="cls-1" d="m106.11,11.1l-1.12,3h-.11c.14-.67.29-1.33.45-2.09-1.65,1.34-2.99,3.02-3.93,4.93.38-1.93,2.73-4.83,4.71-5.84"/>
  <path id="Path_6360" data-name="Path 6360" class="cls-1" d="m101.5,19.95l2.04,1.03-.12.24-2.02-1.07.1-.2"/>
  <path id="Path_6361" data-name="Path 6361" class="cls-1" d="m69.54,100.6l-1.95-5.11c.85,1.69,2.25,3.2,1.95,5.11"/>
  <path id="Path_6362" data-name="Path 6362" class="cls-1" d="m34.99,109.23l-1.85-.39c0-.07,0-.15-.01-.22,1.69.47,3.5.02,4.77-1.19-.34.35-.68.69-1.02,1.03l.11.14,3.19-2.56c-1.58,2.31-4.91,4.36-6.95,3.36l1.78-.06s0-.08-.01-.12"/>
  <path id="Path_6363" data-name="Path 6363" class="cls-1" d="m32.45,104.11c.87-1.31,2.21-2.24,3.75-2.6l-3.75,2.6"/>
  <path id="Path_6364" data-name="Path 6364" class="cls-1" d="m31.01,95.44c.13,2.71,1.63,3.74,4,2.86,1.1-.47,2.17-.99,3.21-1.58-1.13,1.14-2.59,1.9-4.17,2.19-1.39.35-2.79-.5-3.14-1.89-.13-.52-.1-1.07.1-1.58"/>
  <path id="Path_6365" data-name="Path 6365" class="cls-1" d="m36.62,97.02c-.99,1.03-2.44,1.48-3.84,1.17-.85-.33-1.37-1.19-1.27-2.09.95,2.26,1.71,2.4,5.1.92"/>
  <path id="Path_6366" data-name="Path 6366" class="cls-1" d="m22.02,103.42l-2.34,2.19c.94-.05,1.7-.09,2.45-.11.75-.04,1.51,0,2.26.13-.89.07-1.79.12-2.68.21-.93.09-1.85.23-2.92.24l3.1-2.82.14.18"/>
  <path id="Path_6367" data-name="Path 6367" class="cls-1" d="m133.35,3.91c-.72.57-1.48,1.09-2.26,1.56-2.88,1.48-3.11,1.85-2.79,5.09.04.45.07.91.09,1.36,0,.15-.05.29-.15.4-.13-1.16-.29-2.31-.38-3.47-.13-1.3.6-2.54,1.81-3.05,1.2-.62,2.38-1.28,3.57-1.92l.11.03"/>
  <path id="Path_6368" data-name="Path 6368" class="cls-1" d="m129.11,10.58c-.85-2.93-.43-4,1.22-4.23-.36.43-1.11.99-1.33,1.71-.11.84-.07,1.69.1,2.52"/>
  <path id="Path_6369" data-name="Path 6369" class="cls-1" d="m125.7,21.99c.29-1.07.74-2.73,1.18-4.4l.24.08c-.23,1.51-.71,2.97-1.42,4.32"/>
  <path id="Path_6370" data-name="Path 6370" class="cls-1" d="m13.52,107c.09-1.78.17-3.56.28-5.34.01-.23.2-.45.19-.64l-.05,5.19.18.1,1.75-1.8.14.12c-.75.83-1.49,1.67-2.24,2.5l-.24-.13"/>
  <path id="Path_6371" data-name="Path 6371" class="cls-1" d="m128.51,58.71l-.95,1.03c.62-1.74-.31-3.24-.67-4.81l.22-.06c.37,1.3.73,2.6,1.1,3.9l.22-.15.08.1"/>
  <path id="Path_6372" data-name="Path 6372" class="cls-1" d="m127.03,48.65q-1.39-2.06-3.16-2.89c1.23-.19,2.53.95,3.16,2.89"/>
  <path id="Path_6373" data-name="Path 6373" class="cls-1" d="m57.73,86.82l-3.14.7-.06-.25,3.14-.7.06.25"/>
  <path id="Path_6374" data-name="Path 6374" class="cls-1" d="m98.36,42.77c-.74.24-1.48.44-2.2.72-2.59.99-3.46,2.51-3.05,5.21-1.52-2.7,1.11-5.71,5.26-5.93"/>
  <path id="Path_6375" data-name="Path 6375" class="cls-1" d="m97.2,43.67c-1.83.32-3.29,1.7-3.71,3.51.07-1.99,1.72-3.56,3.71-3.51"/>
  <path id="Path_6376" data-name="Path 6376" class="cls-1" d="m97.68,48.82l2.79-2.05c-.49,1.13-1.56,1.92-2.79,2.05"/>
  <path id="Path_6377" data-name="Path 6377" class="cls-1" d="m59.4,90.08c-1.1,3.62-2.8,5.47-4.92,5.35,2.98-.57,3.58-3.27,4.92-5.35"/>
  <path id="Path_6378" data-name="Path 6378" class="cls-1" d="m55.07,94.69c.57-.43,1.11-.9,1.62-1.4.48-.6.93-1.22,1.34-1.87-.38,1.78-1.8,3.25-2.97,3.27"/>
  <path id="Path_6379" data-name="Path 6379" class="cls-1" d="m84.58,81.27l1.82-4.74.25.09-1.84,4.94c-.06-.08-.14-.2-.22-.31v.03"/>
  <path id="Path_6380" data-name="Path 6380" class="cls-1" d="m44.88,101.44c.15.98,1.06,1.65,2.04,1.5.1-.02.2-.04.3-.07,1.55-.22,2.98-.98,4.03-2.15.21-.23.4-.47.7-.82-1.05,2.16-3.31,3.46-5.7,3.29-.82-.05-1.44-.75-1.39-1.57,0-.06.01-.12.02-.18"/>
  <path id="Path_6381" data-name="Path 6381" class="cls-1" d="m50.44,100.62c-1.39,1.92-4.2,2.57-4.88,1.46,1.81.68,3.26-.33,4.88-1.46"/>
  <path id="Path_6382" data-name="Path 6382" class="cls-1" d="m104.18,52.12l2.01-1.01c-1.02,1.56-3.06,2.07-4.69,1.17l2.71-.15h-.03"/>
  <path id="Path_6383" data-name="Path 6383" class="cls-1" d="m104.21,52.12l-1.97-.06v-.15l3-.33c-.45.23-.76.38-1.07.54h.03"/>
  <path id="Path_6384" data-name="Path 6384" class="cls-1" d="m92.3,54.99c-2.85-.04-5.38.49-6.56,3.54.33-2.62,2.86-4.01,6.56-3.54"/>
  <path id="Path_6385" data-name="Path 6385" class="cls-1" d="m91.24,55.6c-1.73-.12-3.41.62-4.49,1.97.82-1.66,2.71-2.5,4.49-1.97"/>
  <path id="Path_6386" data-name="Path 6386" class="cls-1" d="m80.78,55.39c-.5-1.9,3.13-5.03,5.76-4.79-3.06.29-4.55,2.41-5.76,4.79"/>
  <path id="Path_6387" data-name="Path 6387" class="cls-1" d="m85.3,51.28l-2.68,2.08c.51-1.08,1.5-1.86,2.68-2.08"/>
  <path id="Path_6388" data-name="Path 6388" class="cls-1" d="m91.69,66.35c2.02.11,3.37-1.03,4.56-2.46l.18.19-1.79,1.8c1.29-.26,1.97-1.64,2.81-2.83-.56,2.43-2.99,3.95-5.42,3.39-.11-.03-.22-.06-.33-.09"/>
  <path id="Path_6389" data-name="Path 6389" class="cls-1" d="m92.21,75.28c-.23.34-.51.77-.86,1.29,1.51-.92,1.63-2.46,2.06-3.93.18,3.28-2.12,5.23-5.42,5.68.8-.31,1.48-.57,2.15-.83l-.03-.09-.98.26,3.09-2.38"/>
  <path id="Path_6390" data-name="Path 6390" class="cls-1" d="m84.55,63.85c-.92,1.13-2.28,1.8-3.73,1.87l3.73-1.87"/>
  <path id="Path_6391" data-name="Path 6391" class="cls-1" d="m77.98,62.31l.4-.21.43-.33c-.65.9-1.44,1.73-.79,3.08-.76-.82-.75-1.22-.03-2.54"/>
  <path id="Path_6392" data-name="Path 6392" class="cls-1" d="m41.78,93.38c-.2.5-.41,1-.57,1.41-.43-2.15,1.58-3.99,4.42-4.54-.71.31-1.4.67-2.08,1.06-.47.37-.9.78-1.29,1.24l-.49.83"/>
  <path id="Path_6393" data-name="Path 6393" class="cls-1" d="m46.63,94.41c-.59,1.21-1.72,2.05-3.05,2.27.64-.41,1.18-.7,1.67-1.07s.92-.8,1.38-1.2"/>
  <path id="Path_6394" data-name="Path 6394" class="cls-1" d="m41.78,93.38l.49-.83,1.7-1.18.12.17c-.48.32-.93.68-1.35,1.08-.36.46-.67.95-.94,1.47,0-.24,0-.47,0-.7"/>
  <path id="Path_6395" data-name="Path 6395" class="cls-1" d="m105.25,61.69c-.96,2.75-3.83,4.7-6.39,4.19,3.08-.2,4.96-1.84,6.39-4.19"/>
  <path id="Path_6396" data-name="Path 6396" class="cls-1" d="m103.76,62.8c-.64,1.31-1.88,2.23-3.32,2.44.64-.33,1.27-.69,1.87-1.09.51-.42.99-.87,1.45-1.35"/>
  <path id="Path_6397" data-name="Path 6397" class="cls-1" d="m91.02,67.89c-.78,1.3-2.01,2.25-3.46,2.68-1.78.52-2.76-.32-2.6-2.48.11.5.17.77.24,1.04.07.79.76,1.37,1.55,1.31.17-.01.33-.06.48-.13,1.27-.37,2.42-1.07,3.34-2.01.14-.14.3-.27.44-.41"/>
  <path id="Path_6398" data-name="Path 6398" class="cls-1" d="m85.71,68.5c.57,1.09,1.04,1.34,1.95,1,.72-.27,1.39-.68,2.16-1.06-.97.79-1.82,1.65-3.16,1.42-.53-.09-.8-.47-.95-1.36"/>
  <path id="Path_6399" data-name="Path 6399" class="cls-1" d="m51.64,81.42c-2.04.19-4,.91-5.68,2.09,1.46-1.55,3.56-2.32,5.68-2.09"/>
  <path id="Path_6400" data-name="Path 6400" class="cls-1" d="m50.85,82.03l-3.08,1.06c.82-.79,1.95-1.18,3.08-1.06"/>
  <path id="Path_6401" data-name="Path 6401" class="cls-1" d="m45.32,86.7l2.42.76c-.88.43-1.94.09-2.42-.76"/>
  <path id="Path_6402" data-name="Path 6402" class="cls-1" d="m93.06,79.35c1.55-.4,2.89-1.37,3.76-2.72-.57,1.7-2.48,3.04-3.76,2.72"/>
  <path id="Path_6403" data-name="Path 6403" class="cls-1" d="m93.79,78.74l2.06-1.58.13.17-2.04,1.64-.15-.23"/>
  <path id="Path_6404" data-name="Path 6404" class="cls-1" d="m98.2,71.87c-.11.86-.23,1.72-.34,2.57l-.31-.04c.13-.87.26-1.73.38-2.6l.26.07"/>
  <path id="Path_6405" data-name="Path 6405" class="cls-1" d="m124.1,28.92c.21,1.53.41,3.07.63,4.6.16,1.21.76,2.32,1.69,3.11.57.37,1.19.66,1.84.86l-.75.04c.56,1.3,1.21,2.57,1.95,3.78.63.65,1.35,1.19,2.15,1.61l-1.65-.44c.57.77,1.19,1.5,1.86,2.18.72.58,1.53,1.03,2.4,1.35l-.76.12,2.14,1.42-3.46-1.83c0,.21-.01.58-.02.94-.3-1.05-.84-2.02-1.57-2.83-.83-1.07-1.49-2.27-2.2-3.36-.09.43-.21.95-.32,1.47l-.25.03c.78-2.31-.42-3.83-1.88-5.28-.84-.82-1.36-1.9-1.48-3.07-.15-1.57-.21-3.15-.32-4.72"/>
  <path id="Path_6406" data-name="Path 6406" class="cls-1" d="m124.67,35.73c1.3,1.52,2.1,3.41,2.29,5.41-.78-1.84-1.56-3.69-2.29-5.41"/>
  <path id="Path_6407" data-name="Path 6407" class="cls-1" d="m108.71,54.31c-.39,1.31-.65,2.76-2.2,3.26-.82.28-1.73.06-2.33-.56,2.05.69,2.91.34,3.85-1.44.22-.42.46-.84.68-1.26"/>
  <path id="Path_6408" data-name="Path 6408" class="cls-1" d="m105.4,56.92c1.18.04,1.65-.86,2.2-1.72.04.95-.7,1.75-1.66,1.79-.18,0-.37-.02-.54-.07"/>
  <path id="Path_6409" data-name="Path 6409" class="cls-1" d="m89.8,46.34c-2.38-.42-4.84-.03-6.97,1.12,1.97-1.58,4.61-2,6.97-1.12"/>
  <path id="Path_6410" data-name="Path 6410" class="cls-1" d="m84.6,46.98l3.14-.64c.02.09.04.17.06.26l-3.14.63-.05-.24"/>
  <path id="Path_6411" data-name="Path 6411" class="cls-1" d="m123.54,61.65l-2.2-6.33.16-.06c.7,1.75,1.4,3.5,2.15,5.37l.6-1.38.05.02c-.27.83-.54,1.65-.77,2.38"/>
  <path id="Path_6412" data-name="Path 6412" class="cls-1" d="m65.82,86.5c-1.33-.21-1.86-.95-1.64-2.44.07,1.05.7,1.98,1.64,2.44"/>
  <path id="Path_6413" data-name="Path 6413" class="cls-1" d="m69.4,58.2c-1.21,0-2.36.53-3.16,1.44-.16.17-.32.34-.48.51h.02c.27-.93,1-1.66,1.93-1.94,1.56-.62,3.3-.66,4.88-.09l-2.24.02-.96.07"/>
  <path id="Path_6414" data-name="Path 6414" class="cls-1" d="m69.4,58.2l.96-.07.31.15-3.42,1c.32-.47.41-.52,2.16-1.08"/>
  <path id="Path_6415" data-name="Path 6415" class="cls-1" d="m70.72,93.52c1.87-1.71,1.69-4.19,2.33-6.36-.21,2.32-.06,4.78-2.33,6.36"/>
  <path id="Path_6416" data-name="Path 6416" class="cls-1" d="m107.55,62.64l2.04-2.04c-.3.97-1.06,1.74-2.04,2.04"/>
  <path id="Path_6417" data-name="Path 6417" class="cls-1" d="m98.56,8.36l-1.84-2.91c-.12,1.21-.23,2.26-.33,3.3-.22-1.27-.14-2.57.24-3.8l.28-.05,1.69,3.38s-.03.05-.04.08"/>
  <path id="Path_6418" data-name="Path 6418" class="cls-1" d="m80.18,41.74l-2.66,2.62-.2-.09.79-2.3.27.09-.56,1.25.18.09,2.09-1.77.1.11"/>
  <path id="Path_6419" data-name="Path 6419" class="cls-1" d="m111.96,47.14c-.26.99-.52,1.99-.77,2.99l-.21-.06c.26-1,.52-1.99.78-2.98l.2.06"/>
  <path id="Path_6420" data-name="Path 6420" class="cls-1" d="m72.23,70.97l-1.15,2.06-.18-.1,1.14-2.07.19.11"/>
</svg>