<?xml version="1.0" encoding="UTF-8"?>
<svg id="Layer_1" data-name="Layer 1" xmlns="http://www.w3.org/2000/svg" xmlns:xlink="http://www.w3.org/1999/xlink" viewBox="0 0 105 105">
  <defs>
    <style>
      .cls-1 {
        fill: none;
      }

      .cls-1, .cls-2 {
        stroke-width: 0px;
      }

      .cls-2 {
        fill: #fff;
      }

      .cls-3 {
        clip-path: url(#clippath);
      }
    </style>
    <clipPath id="clippath">
      <rect class="cls-1" x="1.4" y="2.73" width="102.2" height="99.55"/>
    </clipPath>
  </defs>
  <g id="Group_875" data-name="Group 875">
    <g class="cls-3">
      <g id="Group_352" data-name="Group 352">
        <path id="Path_3082" data-name="Path 3082" class="cls-2" d="m19.2,11.79c.92-1.11,1.91-2.14,2.98-3.11,1.53-1.21,3.15-2.31,4.85-3.28,1.69-.98,3.59-1.79,5.4-2.68l.23.11c-.05.2-.12.39-.22.56-.98,1.37-1.97,2.74-2.98,4.11-1.28,1.75-2.49,3.52-3.89,5.23-1.1,1.35-2.45,2.61-3.69,3.91l1.91-2.4-.16-.05-2.58,2.77.18.08.45-.25c-.17.23-.36.44-.56.64-1,.73-1.48,1.97-1.22,3.18.33,1.59.43,3.21.83,4.8.28.77.73,1.47,1.32,2.03.62.6,1.28,1.15,1.97,1.66l.32-.06c.06-1.49.2-2.97.15-4.45-.09-2.68-.3-5.37-.43-8.05,0-.16.23-.32.36-.48.14.16.38.31.42.48.08.46.14.92.17,1.38h.21s.3-.75.3-.75l.22-.02c.12.21.21.43.26.66.15,2.11.31,4.22.39,6.32.06,1.36.02,2.72-.04,4.08-.07.45-.21.88-.41,1.29-.12.34.08.41.6.43,2.17.1,4.34.25,6.52.36.28,0,.56-.02.84-.05-.03-.17-.04-.33-.08-.5-.11-.29-.2-.59-.25-.9-.05-2.53-.09-5.07-.1-7.6,0-.61.15-1.22.2-1.84,0-.17-.02-.34-.05-.51h-.35v6.05c-.24-.18-.29-.19-.29-.21-.02-1.86-.06-3.72-.05-5.58,0-.31-.16-.7.57-.86.13-.03.11-.34.16-.52s.12-.39.18-.58l.31.02v9.48l.22.06c.18-.14.35-.29.52-.45,1.21-1.31,1.39-2.79,1.81-4.24.32-1.25.33-2.57.02-3.83-.6-3.01.57-5.77,3.08-8.32-.49.7-.99,1.39-1.45,2.09-.14.22-.33.53-.2.7.41.53.1,1.05.04,1.55-.04.33-.35.64-.55.96l-.21-.05c-.02-.2-.04-.41-.06-.61-.61,1.28-.65,2.76-.12,4.07.09-.3.12-.61.1-.92-.06-.47-.08-.95-.06-1.42.02-.16.52-.28.6-.46.88-2.1,2.05-4.06,3.47-5.83.16-.16.32-.31.5-.45-.13.19-.27.38-.38.57-.84,1.41-1.69,2.82-2.49,4.24-.11.2.05.47.11.85l1.06-.64c.09-.44.15-.77.22-1.1l.31.02v1.12c.25-.27.42-.39.47-.53.11-.29.01-.66.83-.52.11.02.39-.36.59-.56l-.1-.04-.57.27c-.14-.26-.19-.56,0-.65,1.23-.63,2.17-1.73,2.6-3.04.3-.67.62-1.33.98-1.99.23-.42.54-.82.81-1.24l-.14-.03-1.03.81-.21-.34c-.15.13-.29.23-.4.34-.91.83-1.81,1.66-2.7,2.49.28-.4.52-.81.85-1.19s-.06-1.09,1.19-1.03c.05,0,.09-.04.11-.08.08-.3.14-.59.21-.89l-.18-.09c-.26.2-.53.4-.78.61-1.03.88-2.04,1.77-3.06,2.66.54-.66,1.13-1.28,1.76-1.85,1.48-1.17,3.06-2.29,4.65-3.4.51-.3,1.04-.57,1.58-.8l.27.08c-.08.36-.14.73-.23,1.09-.93,3.27-2.79,6.2-5.35,8.44-.39.39-.76.81-1.1,1.25-.35.42-.41.78.64.89-1.25,1.26-.84,2.61-1.01,4l4.42-2.64c-.25.19-.48.39-.75.57-.93.51-1.6,1.39-1.84,2.43l2.14-1.36.07.05c-.13.14-.27.28-.4.42l.1.05,6.27-3.6.15.11-5.92,3.42.63.28c-.82.25-1.63.54-2.41.89-.67.39-1.32.82-1.93,1.29l.29.18,1.21-.82c.31.44.73.26,1.22.12,2.94-.88,5.2-2.47,8.22-3.27.6-.17,1.17-.41,1.72-.72,3.32-1.73,6.65-3.46,7.49-6.47l-1.28.4,2.16-1.65-.25-.14-1.86,1.34-.15-.09.56-.44-.09-.09-1.89.69c.62-.32,1.21-.67,1.88-.93,1.29-.51,2.63-.97,3.96-1.44.26-.08.53-.14.8-.19.05.09.1.13.09.15-2.56,2.92-5.08,5.87-9.11,8.1-1.56.86-3.18,1.67-4.85,2.43-.99.45-1.53.96-1.51,1.75-.02,1.11.28,2.2.87,3.15.18.24.22.56.11.84-.69,1.45-.35,2.94-.55,4.4-.3,2.24.73,4.19,2.18,6.2,1.26,2.01,2.33,4.13,3.18,6.34.5,1.06.9,2.15,1.33,3.22.02.14.03.29,0,.43-2.45-1.37-4.77-2.97-6.94-4.76l-.32.03c0,1.46.01,2.91,0,4.37-.02,1.5-.08,2.99-.09,4.49-.01,1.46-.5,2.93.1,4.37l.29.07c.43-.4.9-.78,1.3-1.19,1.03-1.08,2.06-2.15,3.02-3.25,1.19-1.26,2.29-2.6,3.29-4.01.35-.8.51-1.67.47-2.54.02-.44-.02-.89-.1-1.32-.02-.81-.34-1.58-.91-2.16-.99-1.02-1.59-2.36-1.72-3.77-.31-2.04-.69-4.08-1.01-6.12-.13-.86-.15-1.73-.28-2.58-.1-.65-.31-1.28-.46-1.93-.04-.18-.05-.36-.11-.73.29.12.57.25.84.42,3.06,2.53,5.27,5.94,6.35,9.76.57,1.47.35,3.13-.58,4.4-.12.22-.28.4-.48.54-.59.24-.9.9-.71,1.51.12.79.13,1.59.19,2.37.06,0,.12,0,.19,0,1.41-1.37,2.9-2.71,4.17-4.13.36-.55.55-1.19.55-1.85.3-1.59,1.2-3,2.53-3.92,1.69-1.31,3.31-2.67,5.07-3.94,1-.72,2.23-1.31,3.35-1.96-.33.22-.66.44-.97.67-2.07,1.5-4.16,3-6.19,4.52-.33.25-.42.62-.62.94l.24.07.79-.43c0,.4-.76.72.07,1.01l1.34-1.22.45.8c.87-.55,1.8-1.13,2.7-1.72.15-.1.18-.27.3-.39.56-.59,1.13-1.18,1.7-1.77l.21.09-1.07,1.05c.31-.08.62-.18.91-.32.45-.32,1.42-.49,1.11-1.06-.26-.49.11-.72.56-1,.36-.23.67-.48,1.01-.72.5-.34,1.01-.67,1.51-1.01l.15.11c-.58.52-1.54.88-1.77,1.68,3.5-2.33,6.94-4.54,9.26-7.42l-1.89.99v-.77l-9.49,5.74c1.04-.73,2.01-1.51,3.14-2.18,3.08-1.83,6.23-3.62,9.35-5.42.82-.47,1.61-.97,2.42-1.44.29-.17.62-.31,1.04-.53.05.22.12.32.08.39-1.8,3.64-4.31,6.88-7.39,9.53-2.82,2.17-5.79,4.13-8.89,5.89-2.2,1.32-4.34,2.68-6.53,4.01-.72.46-1.47.87-2.25,1.22-1.86.81-3.45,2.14-4.59,3.82.6-.15,1.22-.28,1.81-.45,1.09-.31,2.21-.58,3.22-.98.57-.22,1.07-.57,1.47-1.03,2.02-2.51,5.29-4.18,9.02-5.47,2.64-.91,5.49-1.56,8.18-2.4,4.15-1.29,8.24-2.66,12.38-3.95,1.33-.42,2.76-.7,4.15-1.04.26-.06.56-.07,1.04-.13-.19.21-.25.34-.39.4-2.63,1.39-5.19,2.9-7.67,4.55-2.93,1.73-6.13,3.27-9.24,4.88-2.93,1.56-6.05,2.72-9.29,3.47-.72.16-1.39.44-2.09.65-1.44.46-2.97.64-4.48.51-1.05,0-2.1.11-3.13.33-.45.08-.89.2-1.32.34-5.91,1.65-4.24.88-7.31,4.29-2.62,2.92-5.08,5.9-7.79,8.79-.69.76-1.1,1.74-1.14,2.77-.23,1.95-.57,3.9-.83,5.85-.2,1.51-.34,3.02-.42,4.55,2.7-2.59,4.67-5.49,8.32-7.62l.24.06c-.16.8-.24,1.61-.48,2.4-.62,2.07-1.4,4.12-1.94,6.19-1.26,4.76-3.69,9.33-5.34,14.02-.35.99-.42,2.01-.7,3.01-.29,1.02.28,1.93.7,2.87.47,1.07.88,2.15,1.31,3.22.06.24.21.45.42.6.13-.61.23-1.23.28-1.85.03-2.13-.18-4.27.07-6.38.2-1.76,0-3.61,1.2-5.27,1.14-1.62,2.37-3.18,3.7-4.65,2.13-2.31,4.41-4.55,6.68-6.8.59-.51,1.22-.98,1.87-1.41l.38.12c-.06.28-.14.55-.24.82-1.53,3.53-3.1,7.05-4.58,10.58-.77,1.83-1.38,3.69-2,5.56,3.37-4.85,7.93-8.76,13.23-11.36.04.24.08.33.06.41-1.22,3.87-3.22,7.45-5.88,10.51-2.18,2.58-4.56,4.97-7.12,7.16-2.39,1.93-3.17,4.17-4.24,6.37-.85,1.73-1.46,3.52-2.18,5.28-.06.2-.19.38-.37.5-.24.08-.49.07-.72-.01-.17-.1-.26-.29-.22-.49.52-1.32,1.06-2.63,1.64-3.94.51-1.16,1.05-2.32,1.6-3.47.36-.75.77-1.49,1.14-2.24.11-.21.27-.46.2-.66-.19-.95-.05-1.93.4-2.78.3-.92.63-1.83.97-2.79-.87,1.24-1.83,2.41-2.87,3.52-1.12,1.12-1.83,2.59-2.03,4.16-.43,2.09-.92,4.18-1.36,6.27-.07.32-.08.65-.04.98.07.45-.24.58-.77.56.3-2.2.42-4.42.38-6.63-.3-2.34-1.18-4.56-2.57-6.46-.08.18-.19.37-.25.56-.93,2.92-1.19,6.01-.77,9.05.09.8.19,1.61.26,2.41.02.22.24.53-.4.57-.62.04-.63-.27-.69-.53-.09-.51-.24-1.01-.44-1.49l-.17.97-.31-.02c.41-.76-.42-1.55.41-2.33.25-.24.42-.76-.26-1.06.6-.47.51-1.12-.4-1.51v2.76h-.3c-.05-.1-.15-.2-.15-.31,0-.88,0-1.76.07-2.64.01-.17.27-.34.52-.63-.25-.74.41-1.52.76-2.34.06-.15-.12-.35-.13-.52,0-.89-.03-1.78-.13-2.67-.18.57-.36,1.14-.57,1.81-.58-.65-.63-1.61-.13-2.31l-1.43.61-.75-1.12,1.4.57s-.03-.09-.05-.13l1.98-.15v.7c.23-.05.46-.11.68-.18.12-.04.21-.13.27-.24.02-.04-.16-.12-.27-.17-1.08-.4-2.23-.58-3.39-.53-.73-.04-1.47-.15-2.2-.14-1.27.02-2.53.1-3.73.16.26.48.46.98.6,1.5.16,1.08.2,2.17.32,3.26.05.46-.09.94.66,1.29.45.21.06.81-.73,1.18-.11-.14-.21-.27-.38-.47-.14,1.85-.27,3.61-.4,5.37l-.29.04c-.14-.35-.24-.7-.31-1.07-.08-.72-.07-1.44-.17-2.16-.04-.26-.3-.51-.45-.77l-.21.03c.07.67.14,1.33.21,2h-.33c-.07-2.11-.13-4.21-.2-6.32l-.19-.02-.3.29c-.28-.49-.52-.97-.84-1.44-.17-.18-.4-.29-.65-.31-1.32.14-2.63.34-4.01.53.12.1.23.25.32.25.88-.04.93.38,1.01.75.46,2.15.94,4.29,1.34,6.44.12.88.2,1.77.22,2.67,0,.06-.05.12-.24.18-.29-1.8-.57-3.61-.86-5.41l-.36.02c.14,1.04.28,2.08.43,3.11.12.8.31,1.6.35,2.4.01.3-.31.6-.47.9h-.28c-.23-.55-.42-1.11-.56-1.68-.49-3.01-.93-6.03-1.39-9.05,0-.22-.08-.43-.2-.62-.57-.54-.72-1.39-.39-2.1.09-.19-.1-.51-.33-.67-1.85-1.35-3.7-2.71-5.66-3.99-.72-.44-1.54-.71-2.38-.79-3.28-.2-6.41-1.43-8.94-3.51-2.45-2.08-4.54-4.54-6.19-7.29-.78-1.16-1.59-2.31-2.34-3.48-.31-.47-.82-.94-.44-1.55.12.02.24.05.36.1,3.61,2.31,7.19,4.63,10.82,6.93,3.17,1.89,6.05,4.24,8.53,6.98.11.1.21.22.29.36.77,1.89,2.96,3.16,4.8,4.58.23.17.51.27.8.29-.15-.34-.29-.69-.44-1.03-1.41-3.27-3.22-6.36-5.39-9.18-1.08-1.18-2.29-2.23-3.6-3.13-3.06-2.39-5.66-5.33-7.66-8.65-1.7-2.86-3.63-5.67-5.46-8.5-1.2-1.85-2.4-3.7-3.59-5.56-.11-.2-.11-.45.01-.65.33.11.65.25.95.41,2.09,1.42,4.19,2.82,6.21,4.28,3.44,2.47,6.38,5.56,8.69,9.12,1.35,2.07,2.88,4.09,4.2,6.16.96,1.44,1.44,3.15,1.38,4.89.02.63.19,1.24.48,1.8.34.74.79,1.42,1.33,2.02l.1-.4c.32-1.91.22-3.86-.28-5.72-.34-2.37-.86-4.71-1.57-7-1.2-3.37-2.98-6.51-5.26-9.26-1.59-1.95-2.83-4.16-3.67-6.53-.06-.17-.1-.35-.14-.53l.28-.11c1.81,1.35,3.7,2.66,5.4,4.06,1.69,1.39,3.19,2.88,4.75,4.3.04-.18.07-.37.08-.56-.04-2.42-.07-4.83-.14-7.25-.12-4.2-.23-8.4-.4-12.6-.05-1.26-.37-2.52-.4-3.78-.17-.85-.08-1.74.27-2.53.11-.18-.16-.5-.38-.71-1.39-1.29-2.8-2.56-4.22-3.84-.45-.4-1-.76-1.41-1.18-.83-.86-1.59-1.75-2.38-2.62.23.15.44.32.65.5.54.54,1.06,1.09,1.58,1.63l.32-.1c-.48-.79-.91-1.59-1.45-2.35-.77-1.09-1.64-2.15-2.42-3.24-.22-.3-.52-.78-.31-.97.71-.63.02-1.08-.23-1.6-.37-.71-.69-1.44-.95-2.18-.31-.99-.47-1.99-.75-2.98-.16-.32-.37-.61-.62-.87-.06.45-.1.79-.16,1.22l-.52-.36c.03.3.08.59.15.88.29,1,.69,1.99,1.04,2.98.82,2.24,2,4.34,3.5,6.2.1.14.17.31.18.49,0,.18-.01.36-.05.54l-1.59-1.8c.44.08.42-.07.32-.26-.23-.43-.44-.87-.71-1.3-.23-.38-.53-.75-.79-1.12l-.08.04,1.3,2.67c-1.53-1.99-2.64-4.27-3.26-6.7-.52-2.77.13-5.51.12-8.27,0-.16.27-.32.41-.48.2.12.38.26.54.42.66.84,1.34,1.67,1.91,2.53.56.82,1.06,1.68,1.51,2.57.85,1.69,1.63,3.4,2.44,5.11.06.12.15.24.33.52.31-.99.53-1.84.84-2.67.18-.38.4-.75.66-1.09-.26.74-.51,1.49-.78,2.23-.56,1.49-.37,3.16.5,4.49l.26-3.48.26.08c.3-.24.72-.46.87-.73.94-1.6,2.14-3.03,3.55-4.23,1.76-1.54,3.6-3.05,5.39-4.57.25-.22.46-.45.78-.76l-1.77.36-1.12.97-.14-.19c-.18-.01-.36,0-.53.04-.91.37-1.64,1.09-2.02,2-.16.3-.36.59-.58.86l-.15-.05c.04-.19.08-.38.12-.56l-.26-.07-3.07,2.96-.12-.3-1.23.98m29.29,63.2c.76-.86.69-1.86,1.07-2.79l-1.1,1.82c.37-.76.75-1.51,1.12-2.27.04-.09.17-.17.16-.25-.03-.39-.09-.77-.14-1.12l-.48.58-.24-.07c.16-.22.29-.46.4-.71.08-.27.33-.4.61-.57.24-.15.27-.45.39-.68l-.13-.02-.33.29-.16-.04,1.02-2.03c-.56.33-.8.85-1.34,1.07-1.03.43-.98,1.03-1.04,1.64-.1,1.05-.2,2.11-.27,3.16-.03.54,0,1.08,0,1.75l.45-.75c.01.33.03.67.04,1-1.09.37-.53,1.02-.57,1.58.24-.1.43-.3.53-.54.04-.35.04-.7.02-1.05m-30.43,6.35l-2.46-.6-.05.04.58.27-.64.17,4.57,1.1.15-.21-1.51-.63c.08-.07.24-.19.22-.2-.29-.22-.59-.42-.91-.62-1.22-.77-2.44-1.54-3.67-2.3l-.18.12c.11.21.12.56.34.62,1.02.29,1.4.96,2.22,1.36.22.14.46.25.72.31.56.07.64.29.62.58M40.15,16.35c.05-.25.1-.5.15-.75l-.33-.06c-.27.55-.55,1.09-.82,1.64l.18.04.85-.89c-.11.2-.21.4-.33.59-.63.81-1.18,1.68-1.64,2.6-.46,1.43-.84,2.88-1.14,4.36-.01.06.04.12.08.23,2.78-1.97,4.28-5.3,3.9-8.69l-.9.93m13.21,52.8c.12-.12.29-.23.34-.36.59-1.7,1.16-3.4,1.72-5.11.05-.22.07-.45.07-.67-.22.06-.3.12-.33.19-1.6,3.27-3.25,6.52-4.78,9.8-.49,1.04-.54,2.16-1.06,3.19-.43.81-.72,1.69-.85,2.6,0,.21.01.43.05.64.61-.93,1.15-1.9,1.6-2.92.26-.58.35-1.18.58-1.77.34-.87.75-1.73,1.12-2.59.05-.12.12-.34.03-.38-.54-.25-.11-.46.03-.67.5-.78,1-1.56,1.51-2.34l.12.02c-.04.12-.09.25-.12.37-.3.47-.55.97-.74,1.5-.26,1.06-.34,2.14-.62,3.2-.25.76-.55,1.5-.89,2.22-.05.14-.08.29-.11.44l.29.06c.17-.21.32-.44.44-.68.76-1.85,1.69-3.68,1.58-5.64-.02-.37.02-.75.03-1.12m-25.41,14.67c-.11.04-.33.1-.32.12.19.52.4,1.04.6,1.55l.28-.04-.52-1.45.19.3.28-.12-1.36-10.06-.36-.04c-.28.51-.51,1.05-.69,1.61-.23,1.02-.36,2.05-.5,3.07-.06.27-.04.54.06.79.75,1.43,1.55,2.85,2.33,4.27m28.33-.46l1-.33.3.25c.08-.17.15-.35.2-.53.13-.79.24-1.58.39-2.37.04-.2.1-.51.3-.58.86-.31.77-.85.97-1.34.38-.91.86-1.81,1.19-2.72.32-.89,1.29-1.71.77-2.71-.1-.19.1-.45.16-.67h.16c.08.19.15.38.25.64l1.89-4.25c-.8.53-.58,1.38-1.67,1.83l-.41-.81c-.11.11-.22.23-.33.35-1.83,2.52-3.6,5.05-5.49,7.54-.95,1.29-1.49,2.83-1.56,4.43,0,.12,0,.24,0,.48l2.36-5.26.26.05c-.03.12-.06.25-.11.36-.54,1.18-1.17,2.34-1.61,3.53-.32,1-.59,2.02-.8,3.06-.06.25,0,.58-.22.72-.7.45-.54.98-.67,1.55l1.01-.32-.4-.43c.24-.32.46-.66.65-1.02.2-.48.3-.98.46-1.46.04-.12.19-.33.26-.33.77.04.42-.25.44-.5.02-.32.07-.81.37-.92.67-.24.71-.63.87-.99.36-.79.65-1.6,1-2.39.21-.46.5-.9.76-1.35l.36.08c-1.04,2.13-2.08,4.27-3.12,6.41-.34.59-.7,1.17-1.01,1.76-.08.16-.01.36-.01.54h.28c.22-.58.45-1.17.65-1.76.04-.18.07-.37.07-.56m-9.38-27.88c0,.07,0,.13,0,.2-.62,0-1.24-.09-1.83-.29-.63-.35-1.36-.48-2.07-.38-.89-.01-1.78.02-2.66.1-1.4.09-1.47.11-1.25,1.02.33,1.78.35,3.61.07,5.4-.47,5.06-.9,10.11-1.35,15.17-.25,2.87-.49,5.74-.78,8.61-.05.5.33.52.86.43,1.76-.23,3.54-.22,5.3.03,1.14.13,2.26.32,3.39.48.25.03.5.05.61.06-.11-2.01-.3-3.97-.29-5.94s.23-3.95.37-5.92.34-3.94.47-5.92c-.02-1.95.1-3.9.36-5.84.47-1.9.78-3.84.93-5.8l-.34-.03c-.45,2.58-.9,5.16-1.35,7.74l-.29-.02c.49-2.85.97-5.7,1.49-8.55.02-.09.43-.16.69-.24.19-.83-.99-.44-1.53-.61-.15-.05-.53.2-.81.31m-21.29,3.49c.79,4.84,1.65,9.67,2.34,14.51.7,4.86,1.64,9.72,1.43,14.62.67-.07,1.24-.14,1.82-.17,1.05-.06,2.1-.1,3.15-.14.28-.03.57-.04.85,0,.78.16.91-.19.76-.49-.44-.87.2-1.64.38-2.45.18-.57.33-1.16.45-1.75.15-1.39.21-2.79.33-4.19.15-1.15.13-2.32-.05-3.47-.4-2.06-1.54-4.03-1.33-6.17,0-1.6-.17-3.19-.52-4.76-.05-.25-.13-.48-.23-.72l-.19.03c.1.95.2,1.9.3,2.85l-.31.03c-.12-.62-.28-1.24-.35-1.87-.16-1.65-.27-3.31-.44-4.96-.01-.11-.25-.25-.43-.3-.68-.19-1.37-.34-2.06-.51l.05-.17-.56.22c-.67-.62-2.83-.69-5.41-.14m6.8-7.77l-.28.02c-.17-1.68-.4-3.35-.5-5.03-.03-1.09,0-2.19.11-3.28.17-2.45.34-4.9.59-7.35.24-.86.16-1.78-.21-2.6-.26-.42-.51-.85-.7-1.16-.36,0-.72-.03-1.08-.09-.48-.18-.96-.34-1.46-.46-.88-.1-1.77-.15-2.66-.16-1.79-.05-2.1.16-1.96,1.31.11.89.23,1.78.34,2.66h-.1l-.1-.14c.07,1.35.15,2.74.21,4.13.11,2.59.2,5.18.31,7.77.06,1.42.14,2.83.16,4.25.04,1.76.04,3.53.03,5.29-.03.36-.08.72-.16,1.08l.27.03.69-1.31.11.03c-.17.47-.34.94-.52,1.45,3.16-.67,6.24-.23,9.22-.21-1.32-5.89-.78-11.83-.99-17.76-1.23,2.3-.35,4.73-1.07,7.06h-.22s.66-11.43.66-11.43h.17v4.06c.16-.16.23-.21.23-.25.14-1.22.3-2.44.4-3.66.02-.2-.23-.4-.34-.61-.17-.24-.31-.51-.41-.78-.04-.26-.05-.53-.02-.79-1.17,5.97-1.77,11.94-.75,17.94m4.93,20.82c.11-.69.24-1.31.31-1.94.33-2.81.7-5.62.97-8.44.19-1.93.58-3.86-.2-5.79-.16-.53-.23-1.08-.23-1.63-.01-.13.09-.26.15-.38.3-.46.55-.95.73-1.47.39-1.88.7-3.77,1.03-5.65.56-3.17-.13-6.34.41-9.53.49-3.25.55-6.56.16-9.83-.12-1.2-.6-1.89-2.28-2.27-.08-.02-.16-.05-.24-.08-.34-.2-.77-.14-1.04.14-.6.64-1.24,1.24-1.91,1.8-.88.63-1.2,1.78-.78,2.77.19.87.28,1.76.27,2.66.02.61-.17,1.23-.16,1.84.08,6,.14,12.01.3,18.02-.02,1.97.42,3.91,1.28,5.68.12.31.16.64.11.97-.15,1.01-.22,2.03-.22,3.04.3,3.24.72,6.47,1.1,9.7.05.14.11.28.2.4m4.19-45.34l-.16.08c.25,2.64.3,5.3.14,7.95-.38,3.05-.36,6.09-.63,9.14-.22,2.49-.48,4.98-.79,7.46-.16.76-.39,1.51-.67,2.23h10.47c-.05-.26.02-.63-.16-.69-.85-.31-.49-.8-.48-1.2,0-1.13.15-2.25.22-3.38.17-2.86.32-5.71.47-8.57.04-.19,0-.4-.12-.56-.99-.95-2.03-1.88-3.05-2.82l-.09.02c.26.46.51.91.76,1.37-.75-.55-1.6-1.07-1.1-1.91.08-.13-.1-.33-.19-.49-.28-.51-.61-1-.85-1.51-.84-1.74-1.61-3.49-2.48-5.22-.39-.66-.81-1.3-1.28-1.91m37.29,10.73c7.69-2.69,13.83-6.59,20.86-9.71-.48.04-.96.14-1.42.29-4.24,1.34-8.46,2.7-12.72,4.02-2.43.75-4.94,1.4-7.35,2.19-1.29.47-2.55,1.01-3.78,1.61-.35.16-.67.4-.03.59l-3.06,2.06.61.65-1.78.66.11.12c.56-.2,1.17-.36,1.68-.61,1.44-.68,2.83-1.41,4.27-2.1.62-.29,1.33-.52,2.01-.77l.07.08-3.14,1.51c1.97.27,2.8-.62,3.92-1.25-.07.17-.14.35-.26.65m-28.28-2.5c.13.18.29.36.4.54.87,1.43,1.73,2.86,2.61,4.28.2.34.62.66.63.99.16.77.59,1.45,1.21,1.93.01.01.1,0,.16,0-.04-.13-.09-.27-.14-.43l.41.11.19-.11c-.23-.22-.48-.42-.68-.65-.17-.19-.43-.41-.41-.61.04-1.07-.45-2.09-1.31-2.73-.1-.1-.16-.23-.18-.37-.12-1.27-.83-2.4-1.92-3.06-.19-.11-.19-.35-.32-.52-.22-.35-.48-.66-.79-.93-.48-.3-.98-.57-1.5-.8l1.16,1.79-.09.02-.78-.82-.13.05.51.93-.31.07c-.3-.52-.82-1.03-.84-1.56.01-.79-.52-1.49-1.29-1.68.13.24.26.48.39.72-.9-.51-.78-1.59-2.66-1.67.25.7.46,1.31.68,1.91l-.32.04c-.15-.52-.28-1.06-.47-1.58-.15-.41-.39-.8-.58-1.2l-.45.1,2.4,5.2.35-.06c-.23-.54-.47-1.08-.7-1.62.47.36.85.83,1.08,1.37.29.92.83,1.74,1.57,2.36.25.24.64.48.67.73.08.62.82.94,1.26,1.4l.6.6.26-.45,2.39,1.74.32-.14c-1.56-1.85-2.25-3.91-3.35-5.87M5.36,52.24l-.34.16c1.98,1.62,3.7,3.54,5.1,5.68l-1.39-1.42-.15.06,5.19,5.92.19-.06-1.77-2.44.21-.06c.15.15.28.32.4.49.78,1.31,1.54,2.63,2.34,3.95.5.82,1.03,1.63,1.57,2.45.21.32.25.71.96.82.18.08.29.25.28.44-.26,1.09,1.02,1.78,1.43,2.69l.23-.06-.54-1.08.25-.05c.01.51,1.11.71.73,1.38-.19.33.47.65,1.18.58-1.41-2.19-2.8-4.36-4.21-6.56l.48-.03,1.86,3.03c.26-.99-3.61-6.63-6.03-8.69.47,1.04.95,2.08,1.42,3.12h-.06s-2.57-4.06-2.57-4.06l.07-.04.74.54.14-.06-3.71-4.06-.2.08.67.63-.21.09-4.25-3.44m45.25-26.9c-.84.29-.88.59-.71,1.01.13.33.55.82-.52,1.07v-2.38l-.29.1-1.1-.66c-.04.15-.08.33-.11.45l-1.9-.47c-.37-.05-.71-.24-1.06-.25-1.15-.05-2.31-.04-3.47-.04-.5,0-.82.17-.65.51.18.56.61,1.02,1.16,1.23.56.21,1.03.51,1.55.77,2.08,1.13,4.03,2.48,5.82,4.03.19.15.41.28.77.53.03-.3.02-.61-.01-.91-.04-.18-.33-.35-.32-.52.06-.77.17-1.55.31-2.32.13-.69.32-1.37.51-2.15m16.42,11.47l.34.2c.33-.27.65-.55,1.01-.8.23-.16.48-.28.74-.38.34-.08.67-.2.98-.35.85-.69,1.83-1.19,2.89-1.48.58-.23,1.14-.53,1.67-.87l-.14-.1-.75.36c.93-.81,1.91-1.56,2.94-2.25.3-.16.58-.36.84-.59.33-.47.97-.59,1.44-.27.74-.57,1.77-.83,2.11-1.68.31-.76,1.34-1.4,2.07-2.08.65-.6,1.34-1.18,2.14-1.88l-.74.05.89-1.3c-.24.06-.47.17-.66.33-3.59,2.58-7.19,5.15-10.76,7.74-1.06.77-2.04,1.58-3.01,2.4-.62.52-1,1.3-1.81,1.56-1.07.34-1.33,1-2.16,1.38m32.43-8.46c-.06-.03-.11-.07-.17-.11-1.77.8-3.66,1.51-5.3,2.41-6.25,3.53-12.87,6.37-19.74,8.46-1.08.32-2.16.65-3.24.97.03.06.06.11.09.17.3-.04.6-.08.9-.12,1.02-.17,2.06-.33,3.06-.54.32-.11.63-.25.92-.42.52-.23,1.05-.45,1.58-.68l.07.08-.44.36.09.07,1.43-.38s.03.05.05.08l-1.36.63c.05.05.1.1.14.15l2.73-.78c-.12-.25-.33-.54-.26-.57.79-.37,1.19-1.12,2.6-1.14l-2.03.99c.3.13.54.29.61.26.76-.2,1.49-.52,2.14-.95.37-.45.88-.78,1.45-.93.81-.19,1.58-.53,2.26-1.01.9-.62,1.85-1.16,2.84-1.61,1.01-.48,2.27-.78,3.18-1.32,2.2-1.3,4.26-2.69,6.37-4.04m-39.53,59.1c.51-.57.98-1.18,1.56-1.72.51-.48,1.24-.87,1.71-1.36,1.05-1.12,1.99-2.27,2.97-3.42.36-.42.67-.85,1.02-1.27.28-.33.64-.65.88-.99.16-.24.14-.52.26-.77.42-.92.86-1.83,1.29-2.74.02-.04-.07-.1-.1-.14-.92.3-6.9,6.16-6.68,6.54l.66-.4c-.17.25-.22.34-.28.42-1.14,1.21-2.06,2.61-2.72,4.14-.09.25-.25.66-.97.35-.12.42-.87.8-.05,1.26l.25-.51h.12c.03.24.07.47.09.64m-41.29-16.32l.13-.07c-.56-.97-1.07-1.96-1.69-2.91-1.17-1.8-2.29-3.63-3.65-5.37-1.65-2.1-3.52-4.14-5.3-6.19-.17-.22-.38-.41-.62-.56-.33-.13-.67-.22-1.01-.29.13-.96-1.12-1.59-1.95-2.39-.13.31-.11.66.04.96.16.24.35.46.58.64.93.89,1.98,1.73,2.78,2.67,1.06,1.24,1.93,2.54,2.87,3.83.18.29.33.59.46.9,1.08.06.81.93,1.49,1.3.08.04-.19.35-.27.48.04.26.09.53.16.78.09.27.22.53.38.76.16.21.34.41.52.59l.22-.09c-.19-.28-.79-.59.19-.81.39.34.77.7,1.12,1.08.6.71,1.17,1.44,1.71,2.18.27.37.39.78.67,1.15.35.46.8.9,1.2,1.35m-1.86-52.4l.31-.04c.14.21.28.43.43.64-.14-.97-.45-1.91-.9-2.79-1.02-1.85-1.76-3.83-2.19-5.9-.14-.69-.52-1.31-1.08-1.74l-.3.05c.45,1.56.91,3.12,1.36,4.68l-.24.03c-.73-2.39-1.46-4.77-2.21-7.19-.44.02-.36.25-.24.54.23.53.41,1.07.61,1.61-.11,0-.21-.03-.29-.1,0,0-.05.01-.08.02-.03,2.23.55,4.43,1.67,6.35,1.03,1.73,2.1,3.46,3.16,5.18.07.08.16.14.25.2-.1-.55-.18-1.05-.27-1.55m.13,58.8c-1.17-1.26-1.39-1.37-2.13-1.1-.66-.52-1.85-.82-1.65-1.53l-2.6-1.78-.1.07.96.9c-.58-.3-.99-.68-1.5-1-.74-.46-1.57-.87-2.33-1.32-.41-.25-.76-.54-1.14-.8.84,2.09,11.03,9.2,14.54,10.25-.33-.58-.72-1.12-1.16-1.62-.51-.47-1.09-.86-1.71-1.15-.81-.26-1.54-.73-2.1-1.38l.92.46M50.45,22.32c-.15-.87-.31-1.86-.49-2.88-2.98,1.07-5.85,2.09-8.72,3.13-.19.07-.28.26-.46.43,1.03,0,1.88-.01,2.73,0,1.77.04,3.54.09,5.31.13.56.01.97-.09,1.05-.52.02-.1.32-.17.57-.29m-26.84,36.84l-.16.03c-.61-1-1.23-2-1.94-3.15-.08.29-.11.39-.17.61-.58-.67-1.1-1.24-1.59-1.82-.5-.6-.92-1.23-1.45-1.81-.5-.55-1.11-1.06-1.67-1.59,3.41,4.24,6.51,8.73,9.25,13.43-.15-1.36-.38-2.71-.69-4.05-.22-1.46-.92-2.81-1.99-3.83-.12-.11-.26-.2-.4-.3l-.17.06.97,2.42m45.55,14.9c-3.85,1.16-12.36,10.49-12.14,13.21.46-.78.86-1.52,1.34-2.24.25-.38.74-.71.93-1.1.81-1.43,1.94-2.64,3.3-3.56l-1.47,2.04.38.12c.84-1.13,1.97-2.16,2.2-3.48l.21.07.19.28,4.11-3.98-.16-.08-1.25.93-.12-.07,2.48-2.12m-13.37-43.22c.15.75.29,1.41.42,2.06l.2-.02c.06-.39.11-.78.17-1.17l1.26,1.69c-1.3.79-.55,1.72.06,2.61l.99-.19c.07-.49.06-.99-.03-1.48-.3-.94-.76-1.87-1.17-2.8-.5-1.14-1.03-2.26-1.5-3.4-.2-.57-.36-1.14-.49-1.73l-.2-.08c-.12.16-.37.33-.35.49.07.9.21,1.8.33,2.69.01.11,0,.3.1.33.83.26.42.76.69,1.22l-.48-.22M22.24,14.52l.24.07c.47-.65.93-1.3,1.4-1.95.14-.19.35-.54.44-.52.75.09.7-.32.88-.55.3-.43.58-.87.84-1.32l.3.08-2.18,3.29.3.08c.4-.55.83-1.09,1.19-1.65.55-.85,1.03-1.72,1.59-2.56.39-.6,1.19-1.16,0-1.82-.1.22-.21.43-.34.64-.14.22-.3.41-.49.59-.35.33-.74.64-1.11.95-.16.14-.3.33-.51.38-.81.2-1.49.76-1.83,1.52-.27.41-.56.8-.87,1.18.02.2.05.5.09.84l.51-.28.13.05-.57.97m29.69,52.26l.18.1c-.45.65-.94,1.29-1.33,1.96-.94,1.6-.94,1.67-.59,2.1,1.9-2.72,3.75-5.45,4.49-8.42l-.29-.1-3.84,3.8.39.21.56-.74.29.15c-.48.8-.96,1.6-1.44,2.4l.18.04,1.41-1.49M25.98,18.14l-.46-.02c-.06.64-.16,1.28-.17,1.93.05.33.13.66.24.97.02.11-.05.22-.07.33-.16.58-.28,1.16-.36,1.75-.15,2.12-.25,4.25-.34,6.37,0,.16.17.33.27.49.2-.11.53-.2.58-.34.3-.58.49-1.2.56-1.85-.01-2.51-.12-5.02-.22-7.53,0-.22-.3-.43-.29-.65.06-.49.15-.98.27-1.46m31.11,10.22c.91,2.63,1.8,5.19,2.67,7.7.4-.31.46-.44.3-1.29-.21-1.07-.45-2.13-.68-3.19-.02-.11-.07-.3-.15-.31-.75-.12-.48-.53-.56-.82-.12-.5-.21-1.01-.27-1.52l-.24.02c.11.33.22.65.33.98l-.14.03-1.24-1.6m-4.14,52.68l.39.1c.12-.12.23-.25.33-.39.18-.34.28-.69.48-1.03.47-.78.99-1.56,1.47-2.34.08-.18.14-.36.19-.55.07-.24.19-.47.36-.66.52-.48.69-.93.32-1.4-.86,1.03-1.71,2.01-2.51,3.01-.11.18-.17.39-.17.6,0,.29-.04.57-.1.86-.22.6-.5,1.19-.75,1.79m-27-6.72l.34.06c.25-.48.72-.96.71-1.44-.08-1.28-.22-2.55-.43-3.82-.03-.14-.08-.27-.14-.4h-.33c-.05.35-.09.72-.1,1.08.01.93.08,1.86.08,2.78,0,.58-.09,1.16-.14,1.73m20.12,12.93c.3-.34,0-.46-.51-.48-.98-.05-1.95-.08-2.93-.14-.28-.03-.55-.08-.82-.14.01-.05.03-.11.04-.16h1.37c-.7-.38-1.5-.51-2.28-.37-.57.12-1.11.31-1.63.57l.35.25c.31-.14.63-.23.97-.29.17,0,.35.22.56.35l4.88.4m-22.26-23.91c.16-1.04-2.22-4.59-3.38-5,.09.2.2.4.33.58.46.44.9.91,1.31,1.4.32.53.61,1.07.87,1.63.26.47.58.92.88,1.38M59.83,31.01c.25,2.07,1.78,4.05.95,6.19.77-2.09.41-4.43-.95-6.19m-19.69-7.89l-.3-.11c-.54.4-1.09.79-1.6,1.2-.06.05.06.27.18.32.56.23,1.15.44,1.73.65.6-.77-1.28-1.35-.01-2.07m4.66,30.98c.92.24,1.93-.1,2.26.61.02.04.22.06.33.05.79-.03,1.59-.06,2.38-.09v-.27c-.34-.03-.69-.06-1.05-.08-.35.02-.69.01-1.04-.01-.67-.12-1.31-.33-1.99-.44-.31.03-.61.12-.89.24m-4.82-32.49l1.63-1.57.32.14-1.26,1.16c1.03-.14,2.15-1.53,1.88-2.35-1.09.61-1.97,1.53-2.56,2.63m-22.93-5.58l.41-.1c-.67-1.22-1.34-2.45-2.01-3.67l-.31.05c.29.75.56,1.51.89,2.25.06.13.38.21.52.28.17.4.34.79.5,1.18m11.68,14.88c1.64-.01,3.25.57,4.9.08-1.61-.38-3.28-.4-4.9-.08m-20.14,43.31l-.19.11c.69.44,1.32.99,1.86,1.61.52.66,1.21,1.18,1.99,1.51l.26-.13-3.91-3.1M88,21.55l-2.17,2c.88.19,1.84-.66,2.17-2m-38.7,2.39c0-.05,0-.1.01-.15-.7-.08-1.16-.7-2.15-.3l.67.21c-.81.37-1.76-.49-2.43.24h3.9Zm40.17-4.28l-3.16,2.82c.63-.34,1.06-.81,1.7-1.09.72-.33,1.26-.96,1.46-1.73M11.38,64.77l.29-.06c-.18-.33-.35-.67-.53-1-.15-.28-.42-.56-.44-.85-.05-.64-.04-.69-1.05-1.21l1.72,3.12m4.48,15.67l-2.61-1.76c-.03.65.95,1.35,2.61,1.76m32.29-3.35l-.29-.02c-.45,1.17-.13,2.38-.29,3.56l.58-3.54M30.78,5.09l-.21-.1c-1.39.49-.71,1.49-1.16,2.22l1.37-2.12m3.87,57.2h.21v-2.37h-.21v2.37Zm18.59,16.72l-.24-.03c-.33.99-.66,1.98-.99,2.96l.25.04c.33-.99.66-1.98.98-2.97m-33.74-22.73l.29-.11c-.72-.83-1.44-1.66-2.17-2.49l-.19.07,2.07,2.52m-3.15-35.03l.28-.07-1.1-1.94-.36.09c.39.64.79,1.28,1.18,1.92m20.93,67.46h-.29c.07.79.14,1.57.22,2.35h.28c-.07-.79-.14-1.57-.21-2.35m-7.15-30.66v.16h3.48v-.16h-3.48Zm-9.07-2.77l.34-.14-1.42-1.5-.3.12,1.39,1.52m13.87,33.9v-.25h-2.4c.52-.19,1.46.5,2.4.25m49.72-63.6l.33.14,1.38-1.7-.25-.09-1.46,1.65m-32.97,58.76l.31.07c.46-.46,1.08-.88.74-1.58l-1.05,1.51m6.04,3.29l.23.06,1.14-1.65-.38-.1c-.33.56-.66,1.12-.99,1.68m16.07-47.3c.04.06.07.13.11.19l2.67-.86-.08-.11-2.7.78M20.13,15.5l.33.09.7-1.54-.25-.06-.78,1.5Zm13.03,42.83c.01.06.03.13.05.2.72-.05,1.44-.1,2.15-.17.03,0,0-.24,0-.37-.55.68-1.48.29-2.2.34m32.87-23.37l.28.1,1.16-1.35-.21-.08-1.24,1.32m16.64-7.54l.17.09,1.69-1.27-.22-.11-1.64,1.3m-20.66-16.31l.23.1,1.26-1.08-.33-.15-1.16,1.13m-14.07,18.97l-.26.09,1.22,1.46.21-.07-1.17-1.48"/>
        <path id="Path_3083" data-name="Path 3083" class="cls-2" d="m33.4,98.88c-.32-.24-.6-3.59-.26-4.35h.26s0,4.35,0,4.35Z"/>
        <path id="Path_3084" data-name="Path 3084" class="cls-2" d="m52.09,13.13l-4.31,2.26c0-.06-.03-.14.02-.16.84-.4,1.29-.91,1.12-1.6,0-.03.12-.07.26-.16v.82c1.6-.17,1.06-1.19,1.89-1.71.05.25.1.5.15.79l.87-.24"/>
        <path id="Path_3085" data-name="Path 3085" class="cls-2" d="m32.08,18.97l.32,7.72h-.2c-.11-2.57-.22-5.14-.33-7.71h.22"/>
        <path id="Path_3086" data-name="Path 3086" class="cls-2" d="m39.72,98.22c-.19-1.18-.05-2.39.4-3.5v3.49h-.4"/>
        <path id="Path_3087" data-name="Path 3087" class="cls-2" d="m32,91.88l.45,3.7h-.3c-.21-1.21-.42-2.44-.63-3.66l.48-.04"/>
        <path id="Path_3088" data-name="Path 3088" class="cls-2" d="m43.07,16.97v-2.29c.63.61.65,1.62.04,2.25-.01.01-.03.03-.04.04"/>
        <path id="Path_3089" data-name="Path 3089" class="cls-2" d="m38.66,92.03v-1.76h.26v1.76h-.26"/>
        <path id="Path_3090" data-name="Path 3090" class="cls-2" d="m27.58,25.31c-.07.69-.13,1.38-.19,2.07h-.07v-2.06h.26"/>
        <path id="Path_3091" data-name="Path 3091" class="cls-2" d="m53.86,16.59l4.59-3.25.17.1-4.53,3.28-.24-.13"/>
        <path id="Path_3092" data-name="Path 3092" class="cls-2" d="m47.49,15.97l1.8-1.04.11.07c-.55.38-1.11.75-1.66,1.13l-.25-.16"/>
        <path id="Path_3093" data-name="Path 3093" class="cls-2" d="m79.55,24.7l-4.49,2.82.19.12c1.35-1.15,2.85-2.1,4.46-2.85-.05-.03-.11-.06-.16-.1"/>
        <path id="Path_3094" data-name="Path 3094" class="cls-2" d="m73.7,30.43c-.39.88-1.67,1.34-2.4,2.06l-.26-.12,2.46-2,.2.07"/>
        <path id="Path_3095" data-name="Path 3095" class="cls-2" d="m84.3,22.19l-1.15,1.04-.36-.18,1.29-1,.22.13"/>
        <path id="Path_3096" data-name="Path 3096" class="cls-2" d="m39.63,55.41c.12.23.33.46.35.7.11,1.08.16,2.17.15,3.26-.08,2.44-.23,4.89-.35,7.33,0,.17-.05.34-.12.5-.03-3.91.85-7.84-.32-11.74l.29-.06"/>
        <path id="Path_3097" data-name="Path 3097" class="cls-2" d="m46.03,85.24c-.67-2.35-.09-4.68.51-7.01-.17,2.33-.34,4.67-.51,7.01"/>
        <path id="Path_3098" data-name="Path 3098" class="cls-2" d="m40.19,64.37c.25-2.02.5-4.03.76-6.05h.31c-.28,2.02-.55,4.03-.83,6.03h-.24"/>
        <path id="Path_3099" data-name="Path 3099" class="cls-2" d="m46.4,73.11c-.25,1.42-.5,2.84-.76,4.26h-.18s.61-4.29.61-4.29l.33.02"/>
        <path id="Path_3100" data-name="Path 3100" class="cls-2" d="m39.1,81.74c-.08.97-.17,1.94-.25,2.91h-.31l.22-2.9h.35"/>
        <path id="Path_3101" data-name="Path 3101" class="cls-2" d="m48.4,55.53c-.18.44-.35.87-.53,1.31-.22-.5-.4-.99.53-1.31"/>
        <path id="Path_3102" data-name="Path 3102" class="cls-2" d="m45.39,82.65c-.05.67-.1,1.34-.15,2.01h-.33s.18-2.01.18-2.01h.3"/>
        <path id="Path_3103" data-name="Path 3103" class="cls-2" d="m46.67,62.17l-.38,2.31h-.17s.24-2.32.24-2.32h.31"/>
        <path id="Path_3104" data-name="Path 3104" class="cls-2" d="m38.82,76.83c-.08.47-.15.94-.23,1.41h-.11v-1.44l.34.02"/>
        <path id="Path_3105" data-name="Path 3105" class="cls-2" d="m31.01,86.91c-.2-.95-.18-1.93.04-2.87h.23v2.86h-.27"/>
        <path id="Path_3106" data-name="Path 3106" class="cls-2" d="m36.34,80c-.15-.65-.31-1.31-.44-1.96-.02-.1.14-.21.22-.32.13.06.38.11.38.17.03.71.02,1.41.02,2.12h-.17"/>
        <path id="Path_3107" data-name="Path 3107" class="cls-2" d="m26.58,62.26c-.2-1.02-.4-2.04-.59-3.05l.34-.03c.43,1,.03,2.06.47,3.06l-.22.02"/>
        <path id="Path_3108" data-name="Path 3108" class="cls-2" d="m27.88,68.1c.29,1.24.58,2.47.87,3.71l-.17.02c-.31-1.23-.63-2.47-.94-3.7l.24-.03"/>
        <path id="Path_3109" data-name="Path 3109" class="cls-2" d="m35.7,75.63c-.08-.49-.17-.98-.28-1.59.79.46.87.91.28,1.59"/>
        <path id="Path_3110" data-name="Path 3110" class="cls-2" d="m29.47,82.89l-.27-1.81.28-.02.2,1.81-.21.02"/>
        <path id="Path_3111" data-name="Path 3111" class="cls-2" d="m26.48,49.4c.98-5.2.38-10.43.41-15.65.13,5.21,1.03,10.43-.41,15.65"/>
        <path id="Path_3112" data-name="Path 3112" class="cls-2" d="m25.9,41.4c.51,3.62-.16,7.23-.45,10.98-.09-.6-.14-1.2-.15-1.81.15-3,.33-6.01.51-9.01,0-.05.06-.1.08-.16"/>
        <path id="Path_3113" data-name="Path 3113" class="cls-2" d="m25.68,35.86c-.18-1.37-.35-2.74-.52-4.01.6.34.81,1.45.52,4.01"/>
        <path id="Path_3114" data-name="Path 3114" class="cls-2" d="m25.98,55.26c.12-.57.23-1.14.35-1.71l.32.03-.48,1.7-.19-.02"/>
        <path id="Path_3115" data-name="Path 3115" class="cls-2" d="m40.97,51.97c.16-2.53.34-5.32.52-8.12.64,1.74.11,7.26-.52,8.11"/>
        <path id="Path_3116" data-name="Path 3116" class="cls-2" d="m47.68,46.94v5.71h-.23v-5.71h.23"/>
        <path id="Path_3117" data-name="Path 3117" class="cls-2" d="m47.32,44.98v-4.83h.2v4.83h-.2"/>
        <path id="Path_3118" data-name="Path 3118" class="cls-2" d="m48.52,40.36l-.71-2.05c1.01.96,1.13,1.31.71,2.05"/>
        <path id="Path_3119" data-name="Path 3119" class="cls-2" d="m42.32,30.51c.07.67.13,1.34.2,2.01h-.21c-.14-.65-.28-1.32-.42-1.98l.43-.03"/>
        <path id="Path_3120" data-name="Path 3120" class="cls-2" d="m47.32,39.21c-.61-.33-.5-.69,0-1.05v1.05Z"/>
        <path id="Path_3121" data-name="Path 3121" class="cls-2" d="m49.35,40.26c-.06.37-.11.74-.17,1.11h-.19v-1.14l.36.03"/>
        <path id="Path_3122" data-name="Path 3122" class="cls-2" d="m90.01,31.67l-8.14,4.07-.17-.14,8.13-4.08.18.15"/>
        <path id="Path_3123" data-name="Path 3123" class="cls-2" d="m60.35,73.55l.84-1.87.29.05-.88,1.87-.25-.05"/>
        <path id="Path_3124" data-name="Path 3124" class="cls-2" d="m47.5,33.63l2.85,4.74-.24.06c-1.12-1.46-2-3.07-2.62-4.8"/>
        <path id="Path_3125" data-name="Path 3125" class="cls-2" d="m18.98,14.27c.33-.73.66-1.47.99-2.2l.2.03-.89,2.22-.3-.05"/>
        <path id="Path_3126" data-name="Path 3126" class="cls-2" d="m90.71,32.92l-5.78,3.05c.13-.22.16-.39.3-.47,1.75-.92,3.53-1.83,5.29-2.73l.18.15"/>
        <path id="Path_3127" data-name="Path 3127" class="cls-2" d="m62.86,83.5c1.43-1.87,2.87-3.73,4.3-5.59l.19.06c-1.15,2.1-2.67,3.98-4.49,5.53"/>
        <path id="Path_3128" data-name="Path 3128" class="cls-2" d="m16.91,79l-3.44-2.64.26-.14,3.44,2.63-.26.15"/>
        <path id="Path_3129" data-name="Path 3129" class="cls-2" d="m58.11,35.43c-.58-.45-.26-.97-.06-1.64l.4,1.6-.33.05"/>
      </g>
    </g>
  </g>
</svg>