<?xml version="1.0" encoding="UTF-8"?>
<svg id="Layer_1" data-name="Layer 1" xmlns="http://www.w3.org/2000/svg" viewBox="0 0 132.69 65.91">
  <defs>
    <style>
      .cls-1 {
        fill: #bababa;
        stroke-width: 0px;
      }
    </style>
  </defs>
  <path id="Path_7334" data-name="Path 7334" class="cls-1" d="m85.42,45.54c3.62,5.74,3.14,9.76-2.75,12.38-6.59,2.99-13.53,5.13-20.66,6.38-15.94,2.81-32.3,1.97-47.86-2.47-3.49-1-6.8-2.52-9.84-4.5-5.73-3.81-5.8-9.23.21-12.64,4.77-2.71,10.29-4.1,15.49-6.02,1.17-.32,2.35-.56,3.55-.73-1.67-1.14-2.82-1.88-3.92-2.67-6.09-4.36-6.3-9.93.29-13.51,5.63-2.9,11.59-5.12,17.75-6.62,6.12-1.62,12.51-2.19,19.07-3.27.36-3.94,3.22-6.2,6.75-7.42,16.68-5.9,34.87-5.93,51.58-.09.12.05.24.11.35.17,7,3.26,7.78,6.61,2.8,12.3,3.16,1.37,6.25,2.91,9.26,4.6,6.85,4.28,7.12,10.56-.14,14.09-7.02,3.41-14.77,5.54-22.4,7.38-6.26,1.51-12.82,1.79-19.51,2.64m-5.75-1.06l.35-1.13c1.23-.12,2.46-.2,3.68-.35,8.25-.99,16.62-1.4,24.7-3.19,6.53-1.55,12.84-3.92,18.79-7.05,4.31-2.19,4.18-5.91.06-8.55-3.45-2.21-7.46-3.54-11.22-5.26-1.04-.48-2.1-.94-3.6-1.62,1.01-.85,1.41-1.14,1.77-1.49,1.68-1.64,3.34-3.29,5.01-4.93-1.96-1.57-3.69-3.87-5.92-4.57-5.05-1.65-10.25-2.79-15.53-3.4-11.2-1.15-22.35-.65-33.01,3.52-3.19,1.25-6.43,2.78-4.73,7.61-2.59.31-4.93.4-7.17.9-9.1,1.99-18.25,3.86-27.23,6.31-3.5.96-7.79,2.79-7.88,7.13-.1,4.42,4.4,5.61,7.67,7.36,1.51.8,3.07,1.5,4.6,2.25-.04.35-.09.7-.13,1.04-1.16.28-2.31.6-3.48.85-3.8.82-7.72,1.29-11.38,2.51-3.57,1.15-6.97,2.78-10.09,4.86-3.42,2.34-3.36,5.16.03,7.58,2.61,1.92,5.53,3.39,8.62,4.34,19.97,5.79,41.17,5.78,61.12-.05,2.73-.83,5.32-2.08,7.67-3.71,4.11-2.76,4.07-5.64.23-8.69-.97-.77-1.95-1.52-2.92-2.28"/>
  <path id="Path_7335" data-name="Path 7335" class="cls-1" d="m24.06,29.5c27.91-7.83,56.07-14.65,84.96-21.86-1.93,3.29-81.05,23.44-84.96,21.86"/>
  <path id="Path_7336" data-name="Path 7336" class="cls-1" d="m105.95,20.9l-66.4,16.57c-.09-.37-.18-.75-.28-1.12,2.5-2.52,63.05-17.45,66.68-15.45"/>
  <path id="Path_7337" data-name="Path 7337" class="cls-1" d="m42.93,57.88l35.19-5.46c-2.53,4.23-30.09,8.83-35.19,5.46"/>
  <path id="Path_7338" data-name="Path 7338" class="cls-1" d="m101.01,35.3l23.4-6.52c-3,4.35-19.28,8.85-23.4,6.52"/>
  <path id="Path_7339" data-name="Path 7339" class="cls-1" d="m16.34,53.78l16.67,2.89c-2.55,2.47-13.67.88-16.67-2.89"/>
  <path id="Path_7340" data-name="Path 7340" class="cls-1" d="m94.13,37.86l-14.26.94c-.05-.7-.09-1.41-.14-2.11l14.21-.97c.07.71.13,1.43.2,2.14"/>
</svg>