<?xml version="1.0" encoding="UTF-8"?>
<svg id="Layer_1" data-name="Layer 1" xmlns="http://www.w3.org/2000/svg" viewBox="0 0 120.47 78.24">
  <defs>
    <style>
      .cls-1 {
        fill: #bababa;
        stroke-width: 0px;
      }
    </style>
  </defs>
  <path id="Path_7329" data-name="Path 7329" class="cls-1" d="m35.45,69.66l-24.67-8.4c2.16,3.92,21.6,10.29,24.67,8.4"/>
  <path id="Path_7330" data-name="Path 7330" class="cls-1" d="m44.72,41.66l-11.92-3.16c1.94,2.93,9.91,4.79,11.92,3.16"/>
  <path id="Path_7331" data-name="Path 7331" class="cls-1" d="m59.6,10.26c-.18-.38-.55-.63-.97-.67-1.98.28-3.76,1.36-4.92,3,.08.2.13.77.45.91.46.12.94.02,1.32-.26.93-.97,2.1-1.67,3.39-2.03.33-.1.78-.68.74-.94"/>
  <path id="Path_7332" data-name="Path 7332" class="cls-1" d="m113.46,31.22c-1.19-1.05-1.96-2.49-2.18-4.06-1.07-6.93-4.99-12.33-11.63-16.06-1.52-.78-2.93-1.75-4.2-2.89-1.89-1.8-4.14-3.19-6.59-4.08-.3-.11-.59-.23-.87-.37-.67-.12-1.32-.29-1.96-.53-2.5-1.88-5.49-2.99-8.61-3.2-3.41-.21-6.82.43-9.93,1.84-.25.11-.49.22-.73.33-.79.4-1.62.72-2.48.95-.33.08-.66.12-1.02.18-.38.06-.78.12-1.18.21-.56.14-1.1.32-1.64.54-.24.09-.49.18-.74.27-1.21.41-2.47.67-3.75.78-.07,0-.14.02-.21.05h-.03l-1.12.2c-3.25.49-6.31,1.86-8.83,3.96-.35.27-.77.43-1.21.48-.7.1-1.4.17-2.1.25-1.28.11-2.55.3-3.81.56-6.51,1.47-11.42,4.45-14.6,8.85-1.6,2.33-3.86,4.13-6.49,5.18-.09.04-.18.08-.26.12-7.79,4.18-12.62,9.06-15.2,15.37-3.61,8.83-2.58,16.65,3.06,23.22.86.95,1.77,1.85,2.74,2.69l.31.28c1.17.64,2.27,1.39,3.29,2.24.6.46,1.21.94,1.86,1.38,2.17,1.34,4.51,2.38,6.96,3.08,3.41,1.1,6.87,2.01,10.38,2.74,7.63,1.04,15.29,1.76,22.71,2.13,5.52.28,11.25.38,17.02.32.07-.01.14-.02.21-.02l2.38-.14c5.74-.32,11.15-.63,17.04-2.15,2.9-.8,5.75-1.76,8.54-2.87l1.18-.44c.58-.22,1.16-.47,1.74-.72,1.19-.57,2.43-1.01,3.71-1.32h.08s.58-.34.58-.34c8.27-4.69,13.07-11.38,14.28-19.88,1.2-7.1-1.33-14.32-6.71-19.11m.45,30.16c-3.18,4.19-7.66,7.43-13.69,9.9-6.49,2.67-13.38,4.25-20.39,4.67-1.91.11-3.86.2-5.86.28-3.98.15-8.15.22-12.64.21-9.31-.04-18.6-.8-27.78-2.29-8.82-1.38-15.58-3.69-21.27-7.3-4.9-3.1-8.03-6.85-9.56-11.44C-.05,47.03,3.47,37.01,11.5,30.48c.34-.28.66-.59.96-.91.15-.16.31-.31.46-.46l.31-.3.92.8-.17.33c-1.87,3.62-2.24,6.93-1.14,10.12,1.06,2.86,2.94,5.35,5.41,7.15,2.4,1.81,5.09,3.22,7.95,4.15.26.1.53.17.81.21.78.1,1.02-.23,1.14-.52s.18-.64-.38-.89c-.54-.24-1.1-.48-1.65-.71-.79-.33-1.61-.68-2.4-1.06-2.92-1.32-5.47-3.34-7.43-5.88-3.34-4.49-2.93-10.01,1.1-14.78.56-.67,1.18-1.28,1.77-1.87.26-.26.52-.51.76-.76l.74-.76.08,1.06c.05.6.08,1.19.11,1.77.08,1.33.15,2.58.33,3.82.13.91.41,1.12.5,1.17.04.02.15.08.4-.04.59-.29.55-.52.33-1.22-.05-.14-.09-.28-.12-.42-.76-3.23.16-6.4,2.89-9.99,2.83-3.66,6.76-6.31,11.21-7.57,1.41-.43,2.8-.77,4.28-1.12.66-.16,1.33-.32,2.01-.49l.71-.18-.12.72c-.07.4-.15.78-.23,1.13-.16.58-.24,1.17-.24,1.77.1,1.88,1.15,3.26,3.29,4.33,2.98,1.49,6.49,2.28,11.39,2.56.83.05.93-.37.96-.53.04-.13.03-.26-.03-.38-.16-.16-.37-.26-.6-.28-.58-.11-1.17-.2-1.76-.29-1.41-.19-2.8-.47-4.17-.84-1.94-.56-3.8-1.34-5.55-2.33-.87-.42-1.49-1.22-1.7-2.17-.11-1.22.33-2.43,1.2-3.3,1.66-1.93,3.89-3.3,6.37-3.89,1.93-.51,3.89-.91,5.87-1.21,1.59-.23,3.13-.75,4.55-1.52.28-.06.56-.1.86-.15.37-.05.75-.11,1.13-.2.95-.25,1.87-.6,2.75-1.03.24-.11.47-.22.71-.32,2.9-1.32,6.08-1.91,9.25-1.72,2.45.17,4.82.94,6.9,2.24,1.83,3.16,1.96,7.03.36,10.31-.05.1-.12.21-.18.31-.14.23-.39.66-.34.81,0,.03.07.09.24.15.15.08.33.08.49.01.37-.17.6-.84.68-1.07.4-1.14.76-2.29,1.11-3.39l.86-2.67c.04-.26.09-.51.12-.77,0,.02,0,.05,0,.07,0-.08.03-.16.06-.24,0-.04.01-.09.02-.13.06-.28.32-.47.61-.42.07,0,.14,0,.21,0,.77.19,1.35.81,1.5,1.59.08.36.14.73.17,1.09,0,.03,0,.07.01.1.01.02.02.03.03.05.17.41.28.84.33,1.27.13.84.17,1.69.11,2.54.28,2.26-.14,4.54-1.19,6.56-2.21,4.06-5.76,7.08-10.84,9.23l-.34.14c-.25.1-.5.21-.75.33-.78.42-.76.72-.68.96.05.19.17.36.34.46.24.08.5.07.73-.02,1.08-.36,2.13-.78,3.15-1.27,4.76-2.42,8.02-5.52,9.97-9.46.07-.15.36-.59.36-.59l.77-2.7.05,3.29c-.49,3.15-1.98,6.05-4.25,8.28-3.61,3.63-8.13,6.23-13.09,7.52-.96.28-1.94.52-2.89.76l-1.09.27c-.83.21-.79.56-.77.73s.08.21.1.22c.2.09.42.1.63.04,7.25-1.39,12.6-3.89,16.83-7.87,3.39-3.19,5.26-6.73,5.57-10.56-.01-1.19-.09-2.38-.24-3.56-.21-1.68-.5-3.35-.71-5.03-.08-.3-.15-.6-.21-.91-.01-.05-.02-.1-.02-.15-.02-.09-.03-.19-.03-.28,0-.05,0-.1.02-.15-.02-.05-.04-.11-.05-.17l-.3-1.09.99.55c1.72,1,3.19,2.39,4.29,4.05,4.21,6.02,3.23,14.16-2.49,20.72-4.04,4.53-9.22,7.88-15.01,9.7-7.75,2.59-15.91,3.75-24.08,3.41-4.96-.07-9.89-.63-14.74-1.68-4.75-1.01-9.31-2.81-13.46-5.33-.54-.34-.8-.44-1.23-.14-.28.16-.47.44-.51.76.05.29.23.55.5.68,1.4.9,2.86,1.73,4.36,2.47,3.88,1.93,8.33,3.17,14.43,4.03,9.12,1.36,18.4,1.17,27.45-.56,5.3-.96,10.4-2.81,15.09-5.46,6.95-4.01,11.28-9.18,13.26-15.8.03-.09.06-.18.1-.27.13-.68.32-1.35.42-2.04.12-.9.17-1.81.15-2.72,0-.46-.03-.92-.06-1.38-.01-.41-.06-.82-.15-1.23-.37-.78-.58-1.62-.62-2.48,0-.33.28-.6.61-.59.04,0,.08,0,.12.01,2.24.67,4.06,2.29,4.99,4.44l.82,1.25c.14.2.27.41.4.62,1.05,1.75,1.75,3.69,2.04,5.72.8,1.12,1.35,2.4,1.61,3.76.16.89.25,1.78.28,2.68.04.16.06.33.06.5,0,.18-.01.35-.05.52v.02l.09.9c.14,2.58-.43,5.14-1.65,7.42-2.77,5.85-7.53,10.29-14.56,13.58-2.06.92-4.17,1.72-6.31,2.42-.94.32-1.87.64-2.8.98-.11.04-.23.06-.35.08-.05,0-.11.02-.16.03-.07.08-.14.15-.22.21-.19.18-.56.51-.59.65,0,.13.04.17.06.19.21.1.45.12.67.04.47-.11.93-.22,1.4-.33,1.23-.29,2.5-.58,3.72-.97,7.75-2.44,13.58-6.28,17.82-11.75,2.55-3.06,4.18-6.78,4.7-10.73.05-.5.06-1,.05-1.5v-.88l.02-1.3.82,1.01c2.31,2.69,3.84,5.97,4.4,9.48.99,6.15-.61,12.44-4.43,17.37"/>
  <path id="Path_7333" data-name="Path 7333" class="cls-1" d="m36.55,31.26c4.57,1.92,9.82,2.98,17.04,3.43.62,0,1.23,0,1.85-.01,1.4,0,2.83,0,4.26-.08,1.82-.09,3.69-.29,5.49-.49l.33-.04c.53-.06,1.4-.27,1.36-1.05,0-.14-.05-.27-.16-.36-.12-.1-.42-.24-1.16-.14-4.28.57-8.61.7-12.92.39-4.81-.22-9.56-1.18-14.08-2.84-1.86-.57-3.54-1.61-4.89-3.01-1.57-1.9-1.34-4.16.62-6.05.37-.34.78-.65,1.21-.93.19-.12.37-.25.55-.38.78-.57.73-.83.6-1.09-.11-.22-.29-.58-1.2-.19-2.15.88-3.77,2.72-4.39,4.96-.44,1.7-.05,3.51,1.06,4.87,1.2,1.36,2.72,2.4,4.43,3.02"/>
</svg>