<?xml version="1.0" encoding="UTF-8"?>
<svg id="Layer_1" data-name="Layer 1" xmlns="http://www.w3.org/2000/svg" viewBox="0 0 132.69 65.91">
  <defs>
    <style>
      .cls-1 {
        fill: #bababa;
        stroke-width: 0px;
      }
    </style>
  </defs>
  <path id="Path_7320" data-name="Path 7320" class="cls-1" d="m85.42,45.54c3.62,5.74,3.14,9.76-2.75,12.38-6.59,2.99-13.53,5.13-20.66,6.38-15.94,2.81-32.3,1.97-47.86-2.47-3.49-1-6.8-2.52-9.84-4.5-5.73-3.81-5.8-9.23.21-12.64,4.77-2.71,10.29-4.1,15.49-6.02,1.17-.32,2.35-.56,3.55-.73-1.67-1.14-2.82-1.88-3.92-2.67-6.09-4.36-6.3-9.93.29-13.51,5.63-2.9,11.59-5.12,17.75-6.62,6.12-1.62,12.51-2.19,19.07-3.27.36-3.94,3.22-6.2,6.75-7.42,16.68-5.9,34.87-5.93,51.58-.09.12.05.24.11.35.17,7,3.26,7.78,6.61,2.8,12.3,3.16,1.37,6.25,2.91,9.26,4.6,6.85,4.28,7.12,10.56-.14,14.09-7.02,3.41-14.77,5.54-22.4,7.38-6.26,1.51-12.82,1.79-19.51,2.64m-5.75-1.06l.35-1.13c1.23-.12,2.46-.2,3.68-.35,8.25-.99,16.62-1.4,24.7-3.19,6.53-1.55,12.84-3.92,18.79-7.05,4.31-2.19,4.18-5.91.06-8.55-3.45-2.21-7.46-3.54-11.22-5.26-1.04-.48-2.1-.94-3.6-1.62,1.01-.85,1.41-1.14,1.77-1.49,1.68-1.64,3.34-3.29,5.01-4.93-1.96-1.57-3.69-3.87-5.92-4.57-5.05-1.65-10.25-2.79-15.53-3.4-11.2-1.15-22.35-.65-33.01,3.52-3.19,1.25-6.43,2.78-4.73,7.61-2.59.31-4.93.4-7.17.9-9.1,1.99-18.25,3.86-27.23,6.31-3.5.96-7.79,2.79-7.88,7.13-.1,4.42,4.4,5.61,7.67,7.36,1.51.8,3.07,1.5,4.6,2.25-.04.35-.09.7-.13,1.04-1.16.28-2.31.6-3.48.85-3.8.82-7.72,1.29-11.38,2.51-3.57,1.15-6.97,2.78-10.09,4.86-3.42,2.34-3.36,5.16.03,7.58,2.61,1.92,5.53,3.39,8.62,4.34,19.97,5.79,41.17,5.78,61.12-.05,2.73-.83,5.32-2.08,7.67-3.71,4.11-2.76,4.07-5.64.23-8.69-.97-.77-1.95-1.52-2.92-2.28"/>
  <path id="Path_7321" data-name="Path 7321" class="cls-1" d="m42.93,57.88l35.19-5.46c-2.53,4.23-30.09,8.83-35.19,5.46"/>
  <path id="Path_7322" data-name="Path 7322" class="cls-1" d="m101.01,35.3l23.4-6.52c-3,4.35-19.28,8.85-23.4,6.52"/>
  <path id="Path_7323" data-name="Path 7323" class="cls-1" d="m16.34,53.78l16.67,2.89c-2.55,2.47-13.67.88-16.67-2.89"/>
  <path id="Path_7324" data-name="Path 7324" class="cls-1" d="m94.13,37.86l-14.26.94c-.05-.7-.09-1.41-.14-2.11l14.21-.97c.07.71.13,1.43.2,2.14"/>
  <path id="Path_7325" data-name="Path 7325" class="cls-1" d="m64.59,38.9c-1.98.08-3.96,0-5.93-.21-1.41-.4-2.74-1.02-3.96-1.83-.82-.48-1.19-1.46-.9-2.35.6-3.12,3.08-6.06,7.14-5.69.24.03.49.04.74.03,4.14-.23,6.21,2.38,7.71,5.69.65,1.44.31,2.33-1.13,3.01-1.1.52-2.28.86-3.66,1.36m-6.84-1.74c.99-.73,1.71-1.34,2.5-1.84.82-.53,1.72-.93,2.56-1.44.23-.15.38-.38.43-.65.1-1.33-2.63-3.98-3.62-3.32-1.26.84-2.23,2.05-2.76,3.47-.32,1,.52,2.37.89,3.77m10.58-.2c-3.02-3.28-2.96-4.19-7.44-1.22-.21.14-.4.29-.59.45-.56.49-1.1.99-1.65,1.48l.2.38c3.2.29,6.42-.08,9.47-1.08m-2.75-6.33c-.41,1.99,1.48,4.85,3.31,5.08-.61-1.97-1.76-3.72-3.31-5.08m-9.75,2.82l-.61-.04c-.17.6-.63,1.33-.44,1.77.47.76,1.04,1.46,1.7,2.07l.35-.27c-.34-1.18-.67-2.35-1.01-3.53m5.56-4.02c1.19,1.2,2.38,1.36,3.44.44l-3.44-.44m-3.28.67c-1.2.52-2.32,1.07-2.65,2.34l.33.31,2.32-2.65"/>
  <path id="Path_7326" data-name="Path 7326" class="cls-1" d="m94.21,27.21c-2.56.23-5.13-.31-7.39-1.54-1.22-.57-1.21-.8-.32-1.74,3.17-3.35,7.14-3.85,11.41-3.27,1.12.14,2.09.82,2.62,1.81.44.78,1.04,1.46,1.46,2.24.68,1.26.55,1.57-.83,1.8-2.3.37-4.62.65-6.93.97l-.02-.28m-2.48-.97c3.36.21,6.74-.02,10.04-.7-.83-1.17-1.49-2.16-2.22-3.1-.24-.19-.55-.28-.85-.23-1.27.11-2.53.24-3.79.42-2.21.31-3.04,1.25-3.18,3.62m-5.17-1.43c1.32.51,2.29.95,3.3,1.25.93.28,1.31-.13,1.12-1.07-.38-1.89-1.64-2.38-3.18-1.21-.35.27-.68.56-1.24,1.03m4.58-.69l.38.21c1.26-2.81,4.04-2.03,6.2-2.74-1.3-.16-2.62-.17-3.93-.03-.82.24-1.57.69-2.18,1.29-.3.25-.33.83-.48,1.26m.38-2.43l-1.98.73c1.16.68,1.63.15,1.98-.73"/>
  <path id="Path_7327" data-name="Path 7327" class="cls-1" d="m65.89,16.83c.5-1.42,1.19-2.77,2.07-4,2.02-2.19,4.77-3.57,7.73-3.9.5.05.96.31,1.26.72,1.03,1.27,1.99,2.61,2.94,3.94,1.19,1.67.47,3.5.18,5.19-.32,1.88-4.9,4.11-6.75,3.61-1.35-.37-2.72-.65-4.1-.84-2.9-.41-3.33-.84-3.32-4.72m8.4-5.16c-1.76.99-3.44,1.92-5.11,2.88-.46.26-.89.57-1.28.94-1.08,1.05-.92,2.33-.66,3.66.24,1.2,1.23,1.08,2.03,1.25,1.36.35,2.74.59,4.13.73.67,0,1.3-.32,1.72-.85,1.98-3.14,1.74-5.3-.83-8.62m2.68,8.6c1.29-.6,2.21-1.79,2.47-3.19.87-3.41-2.15-4.65-3.61-6.83-.24.63-.21,1.33.07,1.94,1.49,2.5,2.21,5.08,1.07,8.08"/>
  <path id="Path_7328" data-name="Path 7328" class="cls-1" d="m44.7,31.15c-.91-.19-1.79-.49-2.62-.89-.61-.4-.98-1.07-1.01-1.8.22-1.39.76-2.7,1.56-3.86,2.12-2.39,5.04-3.92,8.21-4.3.6-.06,1.21.08,1.72.41,1.95,1.32,2.45,3.97,1.14,5.91-.23.34-.51.65-.83.91-2.21,2.13-5.1,3.42-8.17,3.62m4.45-7.6c-1.81.5-3.5.65-4.84,1.43-.98.76-1.7,1.8-2.09,2.97-.36.62-.14,1.42.48,1.77.27.16.59.21.9.15,1.61-.1,3.2-.31,4.78-.63.39-.19.66-.56.73-.99.08-1.45.03-2.91.03-4.7m.77,4.43l.58.18c.87-.82,1.8-1.58,2.59-2.46.7-.78.33-3.26-.59-3.5-.74-.05-1.45.29-1.87.89-.34,1.61-.58,3.25-.71,4.89m-5.3-4.59l.24.58c1.89-.84,4.27-.5,5.74-2.38l-.22-.53-5.75,2.33"/>
</svg>