<?xml version="1.0" encoding="UTF-8"?>
<svg id="Layer_1" data-name="Layer 1" xmlns="http://www.w3.org/2000/svg" viewBox="0 0 57.06 505.96">
  <defs>
    <style>
      .cls-1 {
        fill: none;
        stroke: #fff;
        stroke-miterlimit: 10;
      }

      .cls-2 {
        opacity: .34;
      }

      .cls-3 {
        fill: #fff;
        stroke-width: 0px;
      }
    </style>
  </defs>
  <path id="Path_5595" data-name="Path 5595" class="cls-3" d="m55.93,214.18c-.14.36-.38.67-.7.88-.11.07-.23.14-.36.19-.14.26-.34.47-.58.63-.46.45-1.02.79-1.63,1-3.34,1.16-6.83,1.87-10.36,2.11-10.36,1.13-20.81.96-31.13-.49-2.12-.31-4.22-.81-6.26-1.47-.58-.18-1.14-.43-1.66-.74h-.08c-.59-.1-1.14-.38-1.55-.81-.18-.17-.29-.4-.31-.65-.07-.22-.06-.46.04-.68-.5.45-.79,1.09-.79,1.76v.39c1.31.47,2.59,1.03,3.84,1.66,4.48,1.26,9.09,2,13.74,2.22,8.92.69,17.89.49,26.77-.61,2.88-.32,5.72-.94,8.47-1.84,1.01-.5,2.04-.95,3.1-1.35v-.77c0-.53-.2-1.04-.56-1.42"/>
  <path id="Path_5596" data-name="Path 5596" class="cls-3" d="m42.75,503.01c.49-.49,1.02-.94,1.58-1.35v-.77c.06-1.08-.48-2.1-1.41-2.65-1.1-.71-2.28-1.28-3.51-1.7-4.91-1.42-10.08-1.71-15.12-.83-2.21.27-4.35.95-6.3,2.02-1.32.64-2.15,1.99-2.12,3.46v.39c.7.5,1.35,1.05,1.95,1.66,2.15,1.22,4.53,1.97,6.99,2.22,4.54.69,9.16.49,13.62-.61,1.54-.35,3-.97,4.31-1.84m-5.64,1.27c-5.24,1.13-10.68.96-15.84-.49-1.13-.33-2.2-.83-3.18-1.47-1.66-1.08-1.62-2.41-.02-3.56,1.7-1.12,3.63-1.82,5.65-2.06,2.13-.33,4.29-.5,5.42-.62,4.29.08,7.51.35,10.55,1.47.95.34,1.85.81,2.67,1.39,1.35.97,1.33,2.21.01,3.23-1.57,1.11-3.37,1.83-5.27,2.11"/>
  <path id="Path_5597" data-name="Path 5597" class="cls-1" d="m.74,214.15c-1.37-1.85,3.61-3.25,3.74-5.31.07-1.18-1.45-2.5-.33-3.4.38-.26.81-.44,1.26-.54,3.63-1.05,7.53-2.13,11.43-1.69-.44-.73.13-1.61,1.07-2.09,1.06-.45,2.2-.66,3.34-.63,3.29.08,6.55.64,9.69,1.64,1.24-1.63,4.31-2.09,7-2.37,1.8-.27,3.64-.29,5.44-.06,1.77.32,3.42,1.28,3.54,2.51.09.92-.62,1.93.1,2.7.94,1.01,3.21.62,4.95.84,1.78.17,3.36,1.25,4.16,2.85.47,1.34.58,2.79.3,4.18"/>
  <path id="Path_5598" data-name="Path 5598" class="cls-1" d="m17.1,203.19c2.82.44,5.67.73,8.52.87,2.5.18,3.65.82,5.98,1.45,1.16.25,2.34.32,3.52.22l12.74-.43"/>
  <line id="Line_232" data-name="Line 232" class="cls-1" x1=".73" y1="213.95" x2="16.38" y2="501.12"/>
  <line id="Line_233" data-name="Line 233" class="cls-1" x1="56.47" y1="212.47" x2="43.74" y2="501.39"/>
  <path id="Path_5599" data-name="Path 5599" class="cls-1" d="m51.84,303.99c-4.35,19.82-8.7,39.66-15.4,59.18-6.47,18.83-15.11,37.28-23.75,55.71"/>
  <g class="cls-2">
    <path id="Path_5600" data-name="Path 5600" class="cls-1" d="m46.85,205.76c-4.35,19.82-8.7,39.67-15.4,59.18-6.48,18.83-15.12,37.28-23.76,55.71"/>
  </g>
  <path id="Path_5601" data-name="Path 5601" class="cls-1" d="m27.67,386.99c1.18,2.61,4.82,4.35,6.73,6.76,1.42,1.79,1.8,3.85,2.29,5.85,1.92,7.49,5.39,14.51,10.17,20.59"/>
</svg>