<?xml version="1.0" encoding="UTF-8"?>
<svg id="Layer_1" data-name="Layer 1" xmlns="http://www.w3.org/2000/svg" viewBox="0 0 63.06 505.96">
  <defs>
    <style>
      .cls-1 {
        fill: none;
        stroke: #fff;
        stroke-miterlimit: 10;
      }

      .cls-2 {
        opacity: .34;
      }

      .cls-3 {
        fill: #fff;
        stroke-width: 0px;
      }
    </style>
  </defs>
  <path id="Path_5609" data-name="Path 5609" class="cls-3" d="m61.86,27.02c-.13.54-.39,1.04-.78,1.44-.12.12-.26.22-.4.31-.14.39-.36.74-.65,1.04-.46.69-1.08,1.25-1.81,1.64-3.28,1.93-7.3,2.85-11.46,3.47-11.44,1.85-23.12,1.58-34.45-.81-2.4-.53-4.72-1.34-6.93-2.42-.67-.31-1.29-.72-1.84-1.22h-.09c-.72-.21-1.34-.69-1.72-1.33-.21-.32-.32-.69-.34-1.07-.08-.37-.07-.75.04-1.11-.59.85-.89,1.87-.87,2.9v.64c1.48.8,2.9,1.71,4.25,2.72,4.66,2.17,9.86,3.07,15.21,3.64,9.87,1.14,19.86.8,29.63-.99,3.26-.55,6.42-1.57,9.38-3.02,1.1-.81,2.24-1.55,3.43-2.22v-1.27c.02-.82-.2-1.63-.62-2.33"/>
  <path id="Path_5610" data-name="Path 5610" class="cls-3" d="m47.27,501.19c.53-.78,1.12-1.52,1.75-2.22v-1.27c.13-1.61-.44-3.2-1.56-4.36-1.15-1.11-2.46-2.05-3.89-2.78-5.26-2.32-11.16-2.8-16.73-1.37-2.57.5-4.97,1.64-6.97,3.32-1.62,1.43-2.49,3.53-2.34,5.68v.64c.79.85,1.52,1.76,2.16,2.72,2.19,1.91,4.87,3.17,7.74,3.64,5.01,1.14,10.25.79,15.07-.99,1.8-.63,3.43-1.67,4.77-3.02m-6.25,2.08c-5.75,1.85-11.97,1.57-17.53-.81-1.31-.59-2.5-1.41-3.52-2.42-1.84-1.78-1.8-3.96-.02-5.84,1.69-1.73,3.87-2.91,6.25-3.39,2.35-.55,4.75-.82,5.99-1.02,4.75.14,8.31.57,11.68,2.41,1.1.61,2.1,1.38,2.96,2.29,1.47,1.45,1.49,3.81.04,5.28,0,0-.01.02-.02.02-1.55,1.71-3.58,2.92-5.83,3.47"/>
  <path id="Path_5611" data-name="Path 5611" class="cls-1" d="m.76,26.96c-1.52-3.03,3.99-5.33,4.14-8.71.08-1.93-1.61-4.1-.37-5.58.39-.4.87-.7,1.4-.88,4.02-1.73,8.33-3.5,12.65-2.77-.4-1.28.08-2.67,1.18-3.43,1.1-.72,2.39-1.08,3.7-1.03,3.71-.08,7.29,1.29,10.72,2.7,1.37-2.67,4.77-3.42,7.74-3.88,1.98-.44,4.03-.48,6.03-.09,1.96.52,3.78,2.11,3.92,4.13.1,1.5-.69,3.17.12,4.44,1.05,1.66,3.55,1.02,5.47,1.38,2.27.42,3.95,2.48,4.61,4.68.53,2.25.64,4.57.33,6.86"/>
  <path id="Path_5612" data-name="Path 5612" class="cls-1" d="m18.88,8.98c3.1.72,6.25,1.19,9.43,1.42,2.77.3,4.04,1.34,6.62,2.38,1.26.4,2.58.53,3.89.37l14.1-.7"/>
  <line id="Line_236" data-name="Line 236" class="cls-1" x1=".75" y1="26.64" x2="18.08" y2="498.08"/>
  <line id="Line_237" data-name="Line 237" class="cls-1" x1="62.44" y1="24.21" x2="48.36" y2="498.53"/>
  <path id="Path_5613" data-name="Path 5613" class="cls-1" d="m57.33,174.46c-4.81,32.54-9.63,65.12-17.05,97.16-7.16,30.91-16.73,61.2-26.28,91.46"/>
  <g class="cls-2">
    <path id="Path_5614" data-name="Path 5614" class="cls-1" d="m51.81,13.2c-4.81,32.54-9.63,65.12-17.05,97.16-7.16,30.91-16.73,61.2-26.28,91.46"/>
  </g>
  <path id="Path_5615" data-name="Path 5615" class="cls-1" d="m30.57,310.71c1.31,4.28,5.34,7.14,7.45,11.09,1.57,2.94,1.99,6.33,2.53,9.61,1.96,11.79,5.76,23.19,11.26,33.8"/>
</svg>