<?xml version="1.0" encoding="UTF-8"?>
<svg id="Layer_1" data-name="Layer 1" xmlns="http://www.w3.org/2000/svg" viewBox="0 0 61 505.96">
  <defs>
    <style>
      .cls-1 {
        fill: none;
        stroke: #fff;
        stroke-miterlimit: 10;
      }

      .cls-2 {
        opacity: .34;
      }

      .cls-3 {
        fill: #fff;
        stroke-width: 0px;
      }
    </style>
  </defs>
  <path id="Path_5602" data-name="Path 5602" class="cls-3" d="m59.83,114.65c-.13.46-.39.87-.76,1.18-.12.1-.25.18-.38.25-.14.33-.35.62-.63.85-.47.58-1.07,1.04-1.75,1.34-3.51,1.54-7.26,2.5-11.08,2.83-11.07,1.51-22.31,1.29-33.31-.66-2.3-.43-4.54-1.09-6.7-1.98-.64-.25-1.23-.59-1.78-1h-.08c-.67-.15-1.26-.54-1.67-1.09-.2-.25-.31-.56-.33-.87-.08-.3-.06-.62.04-.91-.55.66-.85,1.5-.84,2.36v.52c1.42.64,2.8,1.39,4.11,2.23,4.74,1.68,9.69,2.68,14.71,2.97,9.55.93,19.17.66,28.65-.81,3.12-.44,6.16-1.27,9.07-2.47,1.07-.67,2.18-1.27,3.32-1.82v-1.03c.01-.68-.2-1.35-.6-1.9"/>
  <path id="Path_5603" data-name="Path 5603" class="cls-3" d="m45.72,502.04c.52-.64,1.08-1.25,1.69-1.82v-1.03c.1-1.36-.46-2.69-1.51-3.56-1.14-.93-2.41-1.69-3.76-2.27-5.18-1.9-10.79-2.29-16.18-1.11-2.42.38-4.73,1.31-6.74,2.71-1.51,1.05-2.37,2.81-2.26,4.64v.52c.76.68,1.46,1.43,2.09,2.23,2.21,1.6,4.78,2.62,7.48,2.97,4.85.93,9.86.65,14.58-.81,1.69-.49,3.26-1.34,4.61-2.47m-6.04,1.7c-5.58,1.51-11.5,1.28-16.95-.66-1.24-.47-2.39-1.13-3.41-1.98-1.78-1.46-1.74-3.24-.02-4.77,1.73-1.46,3.82-2.41,6.05-2.77,2.28-.45,4.59-.67,5.8-.83,4.59.11,8.04.46,11.29,1.97,1.04.48,2.01,1.11,2.86,1.87,1.2.91,1.43,2.63.52,3.83-.15.19-.31.36-.5.51-1.59,1.44-3.53,2.42-5.64,2.83"/>
  <path id="Path_5604" data-name="Path 5604" class="cls-1" d="m.75,114.6c-1.47-2.48,3.86-4.35,4-7.12.08-1.58-1.56-3.35-.36-4.56.39-.33.85-.58,1.35-.72,3.89-1.41,8.06-2.86,12.23-2.27-.37-1.09.12-2.28,1.15-2.8,1.09-.6,2.33-.89,3.57-.84,3.59-.06,7.05,1.05,10.37,2.2,1.33-2.18,4.62-2.8,7.49-3.17,1.92-.36,3.9-.39,5.83-.07,1.89.43,3.66,1.72,3.79,3.37.1,1.23-.67,2.59.11,3.63,1.01,1.35,3.43.83,5.29,1.13,2.07.38,3.77,1.84,4.46,3.82.51,1.82.62,3.74.32,5.61"/>
  <path id="Path_5605" data-name="Path 5605" class="cls-1" d="m18.27,99.91c3.01.59,6.06.98,9.12,1.16,2.68.24,3.9,1.09,6.4,1.95,1.23.33,2.5.43,3.77.3l13.63-.57"/>
  <line id="Line_234" data-name="Line 234" class="cls-1" x1=".74" y1="114.34" x2="17.5" y2="499.5"/>
  <line id="Line_235" data-name="Line 235" class="cls-1" x1="60.4" y1="112.35" x2="46.78" y2="499.87"/>
  <path id="Path_5606" data-name="Path 5606" class="cls-1" d="m55.45,235.1c-4.65,26.58-9.31,53.2-16.49,79.38-6.93,25.25-16.17,50-25.42,74.72"/>
  <g class="cls-2">
    <path id="Path_5607" data-name="Path 5607" class="cls-1" d="m50.11,103.36c-4.65,26.58-9.31,53.2-16.49,79.38-6.93,25.25-16.17,50-25.42,74.72"/>
  </g>
  <path id="Path_5608" data-name="Path 5608" class="cls-1" d="m29.58,346.42c1.26,3.5,5.16,5.83,7.2,9.06,1.51,2.4,1.92,5.17,2.45,7.85,1.95,9.78,5.64,19.13,10.88,27.61"/>
</svg>