<?xml version="1.0" encoding="UTF-8"?>
<svg id="Layer_1" data-name="Layer 1" xmlns="http://www.w3.org/2000/svg" viewBox="0 0 41.65 508.2">
  <defs>
    <style>
      .cls-1 {
        fill: #fff;
        stroke-width: 0px;
      }
    </style>
  </defs>
  <path id="Path_5594" data-name="Path 5594" class="cls-1" d="m20.83,2.5C9.34,2.5,0,7.58,0,13.83v483.04c0,6.25,9.34,11.33,20.83,11.33s20.83-5.08,20.83-11.33V13.83c0-6.25-9.34-11.33-20.83-11.33m19.89,494.37c0,5.73-8.92,10.4-19.89,10.4s-19.89-4.67-19.89-10.4v-135.74c2.64,4.61,10.56,7.97,19.89,7.97s17.25-3.36,19.89-7.97v135.74Zm0-139.1c0,5.73-8.92,10.4-19.89,10.4s-19.89-4.66-19.89-10.4V17.19c2.64,4.61,10.56,7.97,19.89,7.97s17.25-3.36,19.89-7.97v340.58ZM20.83,24.23C9.86,24.23.94,19.56.94,13.83S9.86,3.44,20.83,3.44s19.89,4.66,19.89,10.4-8.92,10.4-19.89,10.4"/>
</svg>