<?xml version="1.0" encoding="utf-8"?>
<!-- Generator: Adobe Illustrator 28.0.0, SVG Export Plug-In . SVG Version: 6.00 Build 0)  -->
<svg version="1.1" id="Layer_1" xmlns="http://www.w3.org/2000/svg" xmlns:xlink="http://www.w3.org/1999/xlink" x="0px" y="0px"
	 viewBox="0 0 55.1 538.1" style="enable-background:new 0 0 55.1 538.1;" xml:space="preserve">
<style type="text/css">
	.st0{fill:#FFFFFF;}
</style>
<path class="st0" d="M46.4,403.5l8.1-345.4c-0.4,0-0.7,0-1,0l-8.2,347.2l0,0c0,0-0.1,0.1-0.1,0.1c-0.2,0.6-0.5,1.2-0.9,1.7
	c0,0,0,0,0,0c-1,1.6-2.4,2.9-4,3.9c-3.9,2.2-8.3,3.3-12.7,3.3c-8.3,0-15.2-3.3-17.2-7.9c-0.2-0.3-0.4-0.6-0.5-0.9
	c-0.1-0.2-0.2-0.3-0.4-0.5L1.3,57.1c-0.3,0-0.7,0-1,0l8.2,349.1c0,0.1,0,0.2,0.1,0.2l3.5,122.8c0,5,6.9,8.9,15.6,8.9h0.1
	c3.8,0.1,7.6-0.8,11-2.6c3-1.7,4.6-3.9,4.7-6.3l3.2-125.7v0c0-0.1,0-0.1,0-0.2C46.5,403.4,46.5,403.4,46.4,403.5z M42.2,529.1
	L42.2,529.1c0,2-1.5,3.9-4.1,5.4c-3.2,1.7-6.8,2.5-10.4,2.4h-0.1c-7.9,0-14.4-3.4-14.4-7.7h-0.6l0.6,0L9.8,407.9
	c2.8,4.4,9.6,7.5,17.7,7.5h0.1c4.7,0.1,9.3-1.1,13.4-3.4c1.8-1,3.2-2.4,4.4-4.1L42.2,529.1z"/>
<path class="st0" d="M54.6,56.1c0-0.1,0-0.1,0-0.2c-0.4-2.3-1.1-4.4-2-6.6c-0.1-0.2-0.3-0.3-0.4-0.5c-0.2-0.3-0.4-0.5-0.6-0.8
	c0,0,0-0.1,0-0.1c-0.3-0.2-0.6-0.5-0.8-0.8l-0.2-0.5c-0.7-0.6-1.5-1.1-2.3-1.6c-0.5-0.3-0.8-0.8-0.8-1.4c0,0,0-0.1,0-0.1
	c-3.9-2.6-8-5.3-12.3-8.1v0l-9.9-6.4l-3.3-14.6L21,12.5h-1.4v9.2l-0.8,12.6c-2,2.4-4.3,4.6-6.8,6.6c-2.6,2.3-7,4.3-6.4,7.2
	c0,0.1-0.3,0.3-0.5,0.4c-2.1,1.1-3.7,2.7-4.6,4.5c0,0.1-0.1,0.2-0.1,0.3c0,0.1,0,0.1,0,0.2c-0.1,0.2-0.1,0.4-0.1,0.6
	c0,0.1,0,0.2,0,0.3c0,0.1,0,0.2,0,0.3c0,0,0,0,0,0l0.1,2.6h1l0-0.2c0-0.1-0.1-0.3-0.1-0.4c0-0.3,0.1-0.6,0.1-0.9
	c0.1-0.4,0.3-0.9,0.5-1.3c0.3-0.7,0.7-1.5,0.9-2.2C2.8,52,3,51.8,3.2,51.6c0.1-0.6,0.5-1,1.1-1.3c0.4-0.3,1-0.4,1.5-0.4
	c0,0,0-0.1,0.1-0.1l0.3,0.1c0.5,0,1,0.1,1.4,0.3c0.4,0.1,0.7,0.2,1,0.4c0.1,0,0.2,0.1,0.2,0.1C9,50.8,9.3,50.9,9.5,51
	c0.5,0.2,1,0.4,1.5,0.6c1,0.3,1.9,0.7,2.9,1c0.5,0.2,1,0.4,1.5,0.6c0.1,0,0.2,0.1,0.2,0.1c0.1,0,0.1,0,0.2,0
	c0.3,0.1,0.6,0.1,0.9,0.2c0.5,0.1,0.9,0.2,1.4,0.3c-3.2-1.8-6.3-3.4-8.3-5.2c-3.1-2.9,3.3-4.9,6.1-7.8l9.8,11.1l1.5-0.2
	c-2.1-4.4-9.4-8.3-8.9-13.5l13.8,7.5c-2.2-3.7-11.4-6.2-10.9-10.7l16.5,9.6c-3.8-4.3-12.8-7.6-13.7-12.6c10.6,4.5,20,10.8,27.4,18.3
	c0.3,0.3,0.5,0.7,0.5,1c0.1,0.1,0.1,0.1,0.2,0.2c0.1,0.2,0.2,0.4,0.2,0.6c0,0.1,0.1,0.3,0.2,0.4c0.1,0.3,0.1,0.5,0.2,0.8
	c0.1,0.1,0.1,0.3,0.2,0.4c0.1,0.2,0.1,0.4,0.2,0.6c0,0.1,0.1,0.1,0.1,0.2c0.1,0.1,0.1,0.3,0.2,0.4c0.1,0.2,0.2,0.4,0.3,0.7
	c0.1,0.1,0.1,0.3,0.1,0.4c0,0.2,0.1,0.5,0.1,0.7c0,0.1,0,0.3,0,0.4l0,1h1L54.6,56.1C54.6,56.1,54.6,56.1,54.6,56.1z"/>
</svg>
