<?xml version="1.0" encoding="utf-8"?>
<!-- Generator: Adobe Illustrator 28.0.0, SVG Export Plug-In . SVG Version: 6.00 Build 0)  -->
<svg version="1.1" id="Layer_1" xmlns="http://www.w3.org/2000/svg" xmlns:xlink="http://www.w3.org/1999/xlink" x="0px" y="0px"
	 viewBox="0 0 55.1 538.1" style="enable-background:new 0 0 55.1 538.1;" xml:space="preserve">
<style type="text/css">
	.st0{fill:#FFFFFF;}
</style>
<path class="st0" d="M53.9,193.8l-8.4,211.1l0,0c-0.1,0.2-0.2,0.3-0.3,0.5c-0.2,0.6-0.5,1.2-0.9,1.7c0,0,0,0,0,0
	c-1,1.6-2.4,2.9-4,3.9c-3.9,2.2-8.3,3.3-12.7,3.3c-8.3,0-15.2-3.3-17.2-7.9c-0.2-0.3-0.4-0.6-0.5-0.9c-0.1-0.1-0.2-0.3-0.3-0.4
	L1.1,193.1c-0.3,0-0.7,0-1,0l8.4,212L12,529.2c0,5,6.9,8.9,15.6,8.9h0.1c3.8,0.1,7.6-0.8,11-2.6c3-1.7,4.6-3.9,4.7-6.3l3.1-123.5
	l8.4-211.9C54.6,193.8,54.3,193.8,53.9,193.8z M42.2,529.1L42.2,529.1c0,2-1.5,3.9-4.1,5.4c-3.2,1.7-6.8,2.5-10.4,2.4h-0.1
	c-7.9,0-14.4-3.4-14.4-7.7h-0.6l0.6,0L9.8,407.9c2.8,4.4,9.6,7.5,17.7,7.5h0.1c4.7,0.1,9.3-1.1,13.3-3.4c1.8-1,3.2-2.4,4.4-4.1
	L42.2,529.1z"/>
<path class="st0" d="M55.1,191.5L55.1,191.5c0-0.1,0-0.2,0-0.3v-0.1l0-1c0-0.1,0-0.1,0-0.2v0c-0.1-0.4-0.2-0.9-0.3-1.3c0,0,0,0,0,0
	c-0.2-0.6-0.4-1.2-0.7-1.8c-0.3-0.6-0.7-1.3-1-1.9c-0.4-0.5-0.9-0.9-1.3-1.3c-1-1-2.2-1.8-3.4-2.6c-0.5-0.4-0.8-0.9-0.8-1.5
	c0-0.1,0-0.1,0-0.1c-4.1-3-8.4-5.9-12.8-9h0c-0.1,0-0.1-0.1-0.2-0.1h-0.1v0l-9.3-6.5L22,149l-1-2.2h-1.3v9.3l-0.8,13
	c-2,2.6-4.3,5-6.9,7.2c-2.6,2.5-7,4.6-6.4,7.7c0,0.2-0.3,0.3-0.5,0.5c-2.1,1.2-3.7,2.8-4.6,4.8c-0.1,0.4-0.3,0.9-0.5,1.3v0h0v0.1
	c0,0,0,0.1,0,0.1c0,0,0,0,0,0.1l0.1,2.4c0.3,0,0.7,0,1,0l0-0.4c0,0,0,0,0,0c0-0.1,0-0.2,0-0.2c0-0.3,0.1-0.5,0.2-0.8c0,0,0,0,0,0
	c0.1-0.2,0.2-0.4,0.3-0.6c0,0,0,0,0-0.1c0-0.1,0.1-0.1,0.1-0.2c0.1-0.1,0.1-0.1,0.2-0.2c0.3-0.8,0.7-1.5,0.9-2.3
	c0.1-0.2,0.2-0.5,0.4-0.7c0.1-0.6,0.5-1.1,1.2-1.4c0.4-0.3,1-0.4,1.5-0.5c0,0,0-0.1,0.1-0.1l0.3,0.1c0.5,0,1,0.1,1.4,0.3
	c0.4,0.1,0.7,0.2,1,0.5l0.2,0.2c0.2,0.1,0.4,0.2,0.7,0.3c0.5,0.2,1,0.4,1.5,0.6c1,0.4,1.9,0.7,2.9,1.1c0.5,0.2,1,0.4,1.5,0.6
	c0.1,0,0.2,0.1,0.2,0.1c0.1,0,0.1,0,0.2,0.1c0.3,0.1,0.6,0.2,0.9,0.2c0.5,0.1,0.9,0.2,1.4,0.3c-3.2-1.9-6.3-3.6-8.3-5.6
	c-3.1-3.1,3.3-5.3,6.1-8.4l9.8,11.9l1.5-0.2c-2.1-4.7-9.4-8.9-8.9-14.5l13.8,8c-2.2-4-11.4-6.6-10.9-11.5c5.9,3.7,11.2,7,16.5,10.3
	c-3.8-4.6-12.8-8.2-13.7-13.5c10.6,4.9,20,11.5,27.4,19.6c0.3,0.3,0.5,0.7,0.5,1.1c0.1,0.1,0.1,0.2,0.2,0.2c0.1,0.2,0.2,0.4,0.2,0.7
	c0.1,0.1,0.1,0.3,0.2,0.4c0.1,0.3,0.1,0.6,0.2,0.9c0,0.1,0.1,0.2,0.1,0.3c0,0,0.1,0.1,0.1,0.1c0.2,0.2,0.4,0.4,0.5,0.7
	c0,0.2,0.1,0.4,0.2,0.6l-0.3-0.5c0.2,0.3,0.3,0.6,0.5,1L54,193l0,0.8c0.3,0,0.7,0,1,0L55.1,191.5C55,191.6,55.1,191.6,55.1,191.5z"
	/>
</svg>
