<?xml version="1.0" encoding="utf-8"?>
<!-- Generator: Adobe Illustrator 28.0.0, SVG Export Plug-In . SVG Version: 6.00 Build 0)  -->
<svg version="1.1" id="Layer_1" xmlns="http://www.w3.org/2000/svg" xmlns:xlink="http://www.w3.org/1999/xlink" x="0px" y="0px"
	 viewBox="0 0 49 538.1" style="enable-background:new 0 0 49 538.1;" xml:space="preserve">
<style type="text/css">
	.st0{fill:#FFFFFF;}
</style>
<path class="st0" d="M47.9,240.1l-5.4,164.8l0,0c-0.1,0.2-0.2,0.3-0.3,0.5c-0.2,0.6-0.5,1.2-0.9,1.7c0,0,0,0,0,0
	c-1,1.6-2.4,2.9-4,3.9c-3.9,2.2-8.3,3.3-12.7,3.3c-8.3,0-15.2-3.3-17.2-7.9c-0.2-0.3-0.4-0.6-0.5-0.9c-0.1-0.2-0.2-0.4-0.4-0.5
	L1.1,239.1c-0.3,0-0.7,0-1,0l5.3,167.6c0,0.1,0,0.2,0.1,0.2L9,529.2c0,5,6.9,8.9,15.6,8.9h0.1c3.8,0.1,7.6-0.8,11-2.6
	c3-1.7,4.6-3.9,4.7-6.3l3.1-124l5.4-165.1C48.5,240.1,48.2,240.1,47.9,240.1z M39.2,529.1L39.2,529.1c0,2-1.5,3.9-4.1,5.4
	c-3.2,1.7-6.8,2.5-10.4,2.4h-0.1c-7.9,0-14.4-3.4-14.4-7.7H9.6l0.6,0L6.7,407.9c2.8,4.4,9.6,7.5,17.7,7.5h0.1
	c4.7,0.1,9.3-1.1,13.3-3.4c1.8-1,3.2-2.4,4.4-4.1L39.2,529.1z"/>
<path class="st0" d="M1.1,238.4C1.1,238.4,1.1,238.5,1.1,238.4c0-0.3,0.1-0.6,0.1-0.9c0-0.2,0.1-0.3,0.2-0.5
	c0.1-0.2,0.2-0.5,0.4-0.7c0-0.1,0.1-0.1,0.1-0.2c0.2-0.5,0.4-1,0.6-1.5c0.1-0.2,0.2-0.4,0.3-0.6c0.1-0.5,0.5-0.9,1-1.2
	c0.4-0.2,0.9-0.4,1.3-0.4c0,0,0-0.1,0-0.1l0.2,0.1c0.4,0,0.9,0.1,1.2,0.2c0.3,0.1,0.7,0.2,0.9,0.4c0.1,0,0.1,0.1,0.2,0.1
	c0.2,0.1,0.4,0.2,0.6,0.3c0.4,0.2,0.9,0.3,1.3,0.5c0.9,0.3,1.7,0.6,2.5,0.9c0.4,0.2,0.9,0.3,1.3,0.5c0.1,0,0.1,0,0.2,0.1
	c0,0,0.1,0,0.2,0c0.2,0.1,0.5,0.1,0.8,0.2c0.4,0.1,0.8,0.2,1.3,0.3c-2.8-1.6-5.6-3.1-7.4-4.8c-2.8-2.7,3-4.5,5.4-7.1l8.7,10.1
	l1.3-0.2c-1.9-4-8.3-7.6-7.9-12.3l12.2,6.8c-2-3.4-10.1-5.6-9.7-9.8l14.7,8.8c-3.3-3.9-11.4-7-12.2-11.5c9.4,4.1,17.7,9.8,24.4,16.7
	c0.3,0.3,0.4,0.6,0.4,0.9c0,0.1,0.1,0.1,0.1,0.2c0.1,0.1,0.1,0.3,0.2,0.4c0,0,0.1,0.1,0.1,0.1c0.3,0.2,0.5,0.5,0.7,0.8
	c0.2,0.3,0.4,0.6,0.5,0.9c0.2,0.3,0.3,0.7,0.3,1c0.1,0.5,0.2,1,0.2,1.5c0,0.3-0.1,0.6-0.2,0.8l0,0.6c0.3,0,0.6,0,1,0L49,236
	c0-0.1,0-0.2-0.1-0.3l0,0c-0.1-0.3-0.2-0.6-0.2-1c0,0,0,0,0,0c-0.2-0.5-0.4-1-0.6-1.5c-0.3-0.6-0.6-1.1-0.9-1.6
	c-0.4-0.4-0.8-0.8-1.2-1.2c-0.9-0.8-1.9-1.6-3-2.2c-0.5-0.3-0.7-0.8-0.7-1.2c0,0,0-0.1,0-0.1c-3.6-2.5-7.3-4.9-11.2-7.6l-0.2-0.1h0
	l0,0l-8.4-5.6l-2.8-13l-0.9-1.9h-1.2v8.2l-0.7,11.4c-1.8,2.1-3.8,4.1-6,6c-2.3,2.1-6.2,3.9-5.7,6.5c0,0.1-0.2,0.3-0.4,0.4
	c-1.8,1-3.3,2.4-4.1,4.1c-0.1,0.4-0.3,0.8-0.5,1.1v0.1c0,0,0,0,0,0.1c0,0,0,0,0,0l0.1,2.6c0.3,0,0.7,0,1,0L1.1,238.4z"/>
</svg>
