<?xml version="1.0" encoding="UTF-8"?>
<svg id="Layer_1" data-name="Layer 1" xmlns="http://www.w3.org/2000/svg" viewBox="0 0 55.09 538.09">
  <defs>
    <style>
      .cls-1 {
        fill: #fff;
        stroke-width: 0px;
      }
    </style>
  </defs>
  <path id="Path_14072" data-name="Path 14072" class="cls-1" d="m55.09,111.21h0c-.01-.12-.03-.24-.03-.36-.02-.44-.01-.88,0-1.31v-.33c-.12-.51-.23-1.01-.31-1.53,0,.01-.01.03-.02.04-.17-.72-.4-1.42-.69-2.1-.31-.76-.66-1.51-1.01-2.26-.44-.53-.88-1.06-1.33-1.58-1.01-1.13-2.15-2.14-3.38-3.03-.52-.42-.83-1.05-.83-1.72,0-.06.01-.11.01-.17-3.97-3.38-8.16-6.73-12.49-10.29l.08-.19-9.82-7.97-3.25-18.16-1.06-2.66h-1.41v11.51l-.86,16.19c-2.01,2.89-4.24,5.62-6.67,8.16-2.58,2.92-7.03,5.41-6.39,8.97.03.18-.26.39-.48.56-2.07,1.37-3.68,3.33-4.63,5.62-.15.52-.31,1.03-.5,1.53,0,.04,0,.08,0,.11,0,.03-.01.05-.02.08v.03h0s8.51,293.23,8.51,293.23c0,0-.01-.01-.02-.02v.07h0s3.55,125.58,3.55,125.58h0c.03,4.99,6.87,8.87,15.61,8.87h.11c3.81.06,7.57-.82,10.95-2.56,2.98-1.67,4.64-3.9,4.7-6.3h0l3.12-123.84,8.54-294.15h0v-.03m-12.86,417.88h0c0,2-1.44,3.92-4.09,5.4-3.21,1.64-6.77,2.47-10.37,2.4h-.1c-7.94,0-14.41-3.44-14.42-7.7h-.6l.6-.02-3.43-121.24c2.77,4.4,9.64,7.51,17.66,7.51h.12c4.68.08,9.29-1.11,13.35-3.44,1.75-1.03,3.25-2.44,4.36-4.14l-3.06,121.22Zm3.33-124.2c-.1.16-.19.32-.3.47-.18.63-.49,1.21-.92,1.71,0,0,0,.01-.01.02-1.01,1.61-2.39,2.94-4.02,3.9-3.87,2.21-8.27,3.34-12.73,3.26-8.29.02-15.22-3.34-17.25-7.91-.2-.28-.37-.58-.5-.9-.1-.13-.18-.26-.28-.39L1.06,112.47c.12.19.22.4.31.61.86,1.01,1.67,2.06,2.41,3.16,2.62,2.36,5.72,4.12,9.08,5.16.43-.09.86-.23,1.29-.34.29-.07.59-.1.89-.08-.35-.38-.71-.76-1.03-1.16-.23-.29-.46-.59-.67-.9-.97-.34-1.94-.7-2.9-1.12-2.29-1.02-4.37-2.45-6.16-4.2-.43-.41-.81-.87-1.15-1.36-.5-.52-.96-1.08-1.35-1.69.26-.99.72-1.94.96-2.93.07-.28.21-.55.4-.77.12-.69.54-1.29,1.15-1.63.44-.32.97-.51,1.52-.54.02-.05.04-.1.05-.15l.28.13c.48,0,.96.11,1.39.32.37.11.73.29,1.04.53.08.06.16.12.24.18.22.13.44.26.66.38.47.25.96.47,1.45.69.96.42,1.92.83,2.86,1.28.49.24,1,.46,1.49.71.11.04.16.07.18.08l.18.06c.28.09.57.18.86.26.47.13.94.25,1.41.36-3.2-2.21-6.34-4.27-8.31-6.58-3.13-3.67,3.34-6.2,6.06-9.79l9.77,13.95,1.47-.24c-2.1-5.53-9.39-10.42-8.92-16.95l13.75,9.42c-2.22-4.63-11.41-7.75-10.89-13.43l16.55,12.1c-3.75-5.38-12.77-9.58-13.67-15.85,10.62,5.7,19.95,13.51,27.44,22.95.29.37.47.83.49,1.3.2.32.33.68.38,1.05.06.17.12.34.16.52.07.33.13.67.17,1.01.06.17.13.34.18.51.16.51.26,1.04.3,1.57-.02.02-.04.05-.06.07-.11.82-.36,1.62-.72,2.37-.24.45-.61.8-1.07,1.02-.12.11-.25.2-.39.28-.38.32-.74.67-1.12,1-.39.35-.81.67-1.25.96-.48.29-.98.52-1.51.71-.37.09-.76.11-1.14.05-1.46.71-2.98,1.29-4.54,1.73-1.17.34-2.35.62-3.52.87-.03.04-.05.08-.08.12-.13.19-.29.36-.47.49-.1.09-.2.19-.29.3,1.05.31,2.08.67,3.09,1.09,1.28-.35,2.56-.76,3.84-1.23,2.89-1.02,5.54-2.63,7.78-4.73.21-.34.46-.66.74-.94.59-.59,1.13-1.24,1.62-1.92,0-.02,0-.05,0-.07l.03-.03v.06c.08-.11.14-.23.22-.34l-8.48,292.02Z"/>
  <path id="Path_14073" data-name="Path 14073" class="cls-1" d="m26.98,121.26c-1.11,0-2.23-.07-3.34-.16-.08.08-.17.16-.26.22-.24.21-.52.37-.83.45.13.52.13,1.08,0,1.6.94.1,1.89.18,2.83.23.07-.06.15-.11.23-.16.56-.27,1.13-.5,1.72-.7.23-.08.46-.17.69-.25.02-.01.05-.03.08-.04.04-.17.07-.35.1-.53-.29-.11-.57-.24-.85-.38-.13-.08-.25-.18-.36-.28"/>
</svg>