<?xml version="1.0" encoding="utf-8"?>
<!-- Generator: Adobe Illustrator 28.0.0, SVG Export Plug-In . SVG Version: 6.00 Build 0)  -->
<svg version="1.1" id="Layer_1" xmlns="http://www.w3.org/2000/svg" xmlns:xlink="http://www.w3.org/1999/xlink" x="0px" y="0px"
	 viewBox="0 0 55.1 523.7" style="enable-background:new 0 0 55.1 523.7;" xml:space="preserve">
<style type="text/css">
	.st0{fill:#FFFFFF;}
</style>
<path class="st0" d="M46.6,388.9c-0.1,0.1-0.1,0.2-0.2,0.3l8.1-343.5c-0.4,0-0.7,0-1,0l-8.2,345.1c0,0-0.1,0.1-0.1,0.2
	c-0.2,0.6-0.5,1.2-0.9,1.7c0,0,0,0,0,0c-1,1.6-2.4,2.9-4,3.9c-3.9,2.2-8.3,3.3-12.7,3.3c-8.3,0-15.2-3.3-17.2-7.9
	c-0.2-0.3-0.4-0.6-0.5-0.9c-0.1-0.2-0.2-0.3-0.3-0.5L1.3,44.7c-0.3,0-0.7,0-1,0l8.2,347.1c0,0.1,0,0.2,0.1,0.2l3.5,122.8
	c0,5,6.9,8.9,15.6,8.9h0.1c3.8,0.1,7.6-0.8,11-2.6c3-1.7,4.6-3.9,4.7-6.3l3.2-125.7v0l0,0C46.6,389.1,46.6,389,46.6,388.9z
	 M42.3,514.7L42.3,514.7c0,2-1.5,3.9-4.1,5.4c-3.2,1.7-6.8,2.5-10.4,2.4h-0.1c-7.9,0-14.4-3.4-14.4-7.7h-0.6l0.6,0L9.8,393.6
	c2.8,4.4,9.6,7.5,17.7,7.5h0.1c4.7,0.1,9.3-1.1,13.4-3.4c1.8-1,3.2-2.4,4.4-4.1L42.3,514.7z"/>
<path class="st0" d="M54.5,40.2c0-0.6-0.1-1.2-0.1-1.8c0-0.1-0.1-0.2-0.1-0.3c-0.3-1.2-0.8-2.4-1.2-3.5c0,0-0.1-0.1-0.1-0.1
	c-0.4-0.4-0.9-0.9-1.3-1.3c-1-0.9-2.2-1.8-3.4-2.5c-0.5-0.3-0.8-0.9-0.8-1.4c0,0,0-0.1,0-0.1c-4.1-2.9-8.4-5.7-12.8-8.7h0
	c-0.1,0-0.1-0.1-0.2-0.1c-0.6,0-1.2-0.2-1.7-0.5c-4.6-2.3-9-4.6-10.1-8c-0.2-0.2-0.4-0.5-0.6-0.8c-0.2-0.4-0.4-0.8-0.4-1.2
	c0-0.1,0-0.2,0-0.2c-0.7-0.5-1.4-1.1-2-1.6c0,0.6-0.1,1.2-0.1,1.8c0.2,1.3,0.5,2.5,0.8,3.8c0.3,0.8,0.3,1.7,0.2,2.5
	c-1.2,3.7-5.1,7-8.6,10.3c-2.6,2.4-7,4.5-6.4,7.4c0,0.1-0.3,0.3-0.5,0.5c-2.1,1.1-3.7,2.8-4.6,4.6c-0.1,0.2-0.2,0.4-0.2,0.6
	c0,0.1,0,0.1,0,0.2c0,0.4,0,0.7-0.1,1.1l0.1,4.2h1l-0.1-2.6c0,0,0-0.1,0-0.1c0-0.3,0.1-0.6,0.1-0.9c0.1-0.4,0.3-0.9,0.5-1.3
	C1.9,40,1.9,40,2,39.9c0.3-0.6,0.6-1.3,0.8-1.9c0.1-0.2,0.2-0.5,0.4-0.6c0.1-0.6,0.5-1.1,1.1-1.3c0.4-0.3,1-0.4,1.5-0.4
	c0,0,0-0.1,0-0.1c0.1,0,0.2,0.1,0.3,0.1c0.5,0,1,0.1,1.4,0.3c0.4,0.1,0.7,0.2,1,0.4c0.1,0,0.2,0.1,0.2,0.1c0.2,0.1,0.4,0.2,0.7,0.3
	c0.5,0.2,1,0.4,1.5,0.6c1,0.3,1.9,0.7,2.9,1.1c0.5,0.2,1,0.4,1.5,0.6c0.1,0,0.2,0.1,0.2,0.1c0.1,0,0.1,0,0.2,0
	c0.3,0.1,0.6,0.1,0.9,0.2c0.5,0.1,0.9,0.2,1.4,0.3c-3.2-1.8-6.3-3.5-8.3-5.4c-3.1-3,3.3-5.1,6.1-8.1l9.8,11.5l1.5-0.2
	c-2.1-4.6-9.4-8.6-8.9-14l13.8,7.8c-2.2-3.8-11.4-6.4-10.9-11.1l16.6,10c-3.8-4.5-12.8-7.9-13.7-13.1c10.6,4.7,20,11.2,27.4,19
	c0.3,0.3,0.5,0.7,0.5,1.1c0.1,0.1,0.1,0.1,0.2,0.2c0.1,0.2,0.2,0.4,0.2,0.6c0.1,0.1,0.1,0.3,0.2,0.4c0.1,0.3,0.1,0.6,0.2,0.8
	c0.1,0.1,0.1,0.3,0.2,0.4c0.1,0.2,0.1,0.4,0.2,0.6c0.4,0.4,0.7,0.9,0.7,1.4c0,0.1,0,0.1,0,0.2c0.1,0.6,0.3,1.3,0.3,1.9
	c0,0.3-0.1,0.5-0.2,0.8l0,1.4h1l0.1-4.1C54.6,41.1,54.6,40.7,54.5,40.2z"/>
</svg>
