<?xml version="1.0" encoding="utf-8"?>
<!-- Generator: Adobe Illustrator 28.0.0, SVG Export Plug-In . SVG Version: 6.00 Build 0)  -->
<svg version="1.1" id="Layer_1" xmlns="http://www.w3.org/2000/svg" xmlns:xlink="http://www.w3.org/1999/xlink" x="0px" y="0px"
	 viewBox="0 0 46.3 523.7" style="enable-background:new 0 0 46.3 523.7;" xml:space="preserve">
<style type="text/css">
	.st0{fill:#FFFFFF;}
</style>
<path class="st0" d="M45.3,253.7c0,0.7,0,1.4-0.2,2.1c0,0,0,0,0,0l-4,134.7c-0.1,0.2-0.2,0.3-0.3,0.5c-0.2,0.6-0.5,1.2-0.9,1.7
	c0,0,0,0,0,0c-1,1.6-2.4,2.9-4,3.9c-3.9,2.2-8.3,3.3-12.7,3.3c-8.3,0-15.2-3.3-17.2-7.9c-0.2-0.3-0.4-0.6-0.5-0.9
	c-0.1-0.1-0.2-0.3-0.3-0.4l-4-136.7c0-0.1,0-0.1,0-0.2c-0.3,0-0.6,0-1,0l4,135.5v0.1l3.5,125.6c0,5,6.9,8.9,15.6,8.9h0.1
	c3.8,0.1,7.6-0.8,11-2.6c3-1.7,4.6-3.9,4.7-6.3l3.1-124c0,0,0,0,0,0l4-137.1C45.9,253.7,45.6,253.7,45.3,253.7z M37.8,514.7
	L37.8,514.7c0,2-1.5,3.9-4.1,5.4c-3.2,1.7-6.8,2.5-10.4,2.4h-0.1c-7.9,0-14.4-3.4-14.4-7.7H8.2l0.6,0L5.4,393.6
	c2.8,4.4,9.6,7.5,17.7,7.5h0.1c4.7,0.1,9.3-1.1,13.4-3.4c1.8-1,3.2-2.4,4.4-4.1L37.8,514.7z"/>
<path class="st0" d="M1.6,251.7C1.6,251.7,1.6,251.7,1.6,251.7c0.3-0.6,0.6-1.1,0.7-1.7c0.1-0.2,0.2-0.3,0.3-0.5
	c0.1-0.4,0.5-0.8,1-1c0.4-0.2,0.8-0.3,1.3-0.3c0,0,0-0.1,0-0.1l0.2,0.1c0.4,0,0.8,0.1,1.2,0.2c0.3,0.1,0.6,0.2,0.9,0.3
	c0.1,0,0.1,0.1,0.2,0.1c0.2,0.1,0.4,0.2,0.6,0.2c0.4,0.2,0.8,0.3,1.2,0.4c0.8,0.3,1.6,0.5,2.4,0.8c0.4,0.2,0.8,0.3,1.2,0.5
	c0.1,0,0.1,0,0.2,0.1l0.2,0c0.2,0.1,0.5,0.1,0.7,0.2c0.4,0.1,0.8,0.2,1.2,0.2c-2.7-1.4-5.3-2.7-7-4.2c-2.6-2.3,2.8-3.9,5.1-6.2
	l8.2,8.9l1.2-0.2c-1.8-3.5-7.9-6.6-7.5-10.8l11.5,6c-1.9-2.9-9.6-4.9-9.1-8.5l13.9,7.7c-3.1-3.4-10.7-6.1-11.5-10.1
	c8.9,3.6,16.7,8.6,23,14.6c0.1,0.1,0.2,0.3,0.3,0.5c0.4,0.3,0.7,0.6,0.9,0.9c0.5,0.7,0.7,1.3,0.8,2c0.1,0.6,0.3,1.3,0.3,1.9
	c0.3,0,0.6,0,0.8,0l0.1-1.4v0l0-1c0-0.1,0-0.1-0.1-0.2c-0.1-0.3-0.2-0.7-0.3-1c0,0,0,0,0,0c-0.1-0.5-0.3-0.9-0.6-1.3
	c-0.3-0.5-0.5-1-0.8-1.4c-0.4-0.3-0.7-0.7-1.1-1c-0.9-0.7-1.8-1.4-2.8-1.9c-0.4-0.3-0.7-0.7-0.7-1.1c0,0,0-0.1,0-0.1
	c-3.4-2.2-7-4.4-10.8-6.7h0c-0.1,0-0.1-0.1-0.2-0.1c-0.5,0-1-0.2-1.4-0.4c-3.9-1.8-7.6-3.6-8.5-6.2c-0.2-0.2-0.4-0.4-0.5-0.6
	c-0.2-0.3-0.3-0.6-0.3-0.9c0-0.1,0-0.1,0-0.2c-0.6-0.4-1.1-0.8-1.7-1.2c0,0.4-0.1,0.9-0.1,1.3c0.1,1,0.4,1.9,0.7,2.9
	c0.2,0.6,0.3,1.3,0.2,1.9c-1,2.8-4.3,5.4-7.2,7.9c-2.2,1.9-5.9,3.4-5.4,5.7c0,0.1-0.2,0.3-0.4,0.3c-1.7,0.9-3.1,2.1-3.9,3.6
	c-0.1,0.3-0.3,0.7-0.4,1v0.1c0,0,0,0,0,0.1c0,0,0,0,0,0l0.1,1.9c0.3,0,0.6,0,1,0C0.8,253.1,0.9,252.4,1.6,251.7z"/>
</svg>
