<?xml version="1.0" encoding="utf-8"?>
<!-- Generator: Adobe Illustrator 28.0.0, SVG Export Plug-In . SVG Version: 6.00 Build 0)  -->
<svg version="1.1" id="Layer_1" xmlns="http://www.w3.org/2000/svg" xmlns:xlink="http://www.w3.org/1999/xlink" x="0px" y="0px"
	 viewBox="0 0 49.1 523.7" style="enable-background:new 0 0 49.1 523.7;" xml:space="preserve">
<style type="text/css">
	.st0{fill:#FFFFFF;}
</style>
<path class="st0" d="M1.3,222.7c0.1-0.2,0.2-0.5,0.4-0.7c0.2-0.7,0.6-1.4,0.8-2.1c0.1-0.2,0.2-0.4,0.4-0.6c0.1-0.5,0.5-1,1-1.3
	c0.4-0.3,0.9-0.4,1.4-0.4c0,0,0-0.1,0-0.1l0.2,0.1c0.4,0,0.8,0.1,1.2,0.2c0.3,0.1,0.7,0.2,0.9,0.4c0.1,0,0.1,0.1,0.2,0.1
	c0.2,0.1,0.4,0.2,0.6,0.3c0.4,0.2,0.8,0.4,1.3,0.5c0.8,0.3,1.7,0.6,2.5,1c0.4,0.2,0.9,0.4,1.3,0.5c0.1,0,0.1,0.1,0.2,0.1
	c0,0,0.1,0,0.2,0c0.2,0.1,0.5,0.1,0.8,0.2c0.4,0.1,0.8,0.2,1.3,0.3c-2.8-1.7-5.6-3.3-7.4-5.1c-2.8-2.8,3-4.8,5.4-7.5
	c3.1,3.9,5.9,7.3,8.7,10.7l1.3-0.2c-1.9-4.3-8.4-8-7.9-13l12.2,7.2c-2-3.6-10.1-6-9.7-10.3l14.7,9.3c-3.3-4.1-11.4-7.4-12.2-12.2
	c9.4,4.4,17.7,10.4,24.4,17.7c0.3,0.3,0.4,0.6,0.4,1c0,0.1,0.1,0.1,0.1,0.2c0.1,0.2,0.2,0.4,0.2,0.6c0,0.1,0.1,0.2,0.1,0.2
	c0.1,0.1,0.2,0.2,0.3,0.4c0.3,0.4,0.5,0.8,0.7,1.3c0.1,0.3,0.2,0.5,0.3,0.8c0.1,0.4,0.2,0.9,0.2,1.3c0,0.2,0,0.5-0.1,0.7l0,0.3
	c0.3,0,0.7,0,1,0l0.1-3.4l0,0c0-0.1,0-0.2-0.1-0.3c-0.1-0.3-0.2-0.7-0.2-1c0,0,0,0,0,0c-0.1-0.6-0.4-1.1-0.6-1.6
	c-0.3-0.6-0.6-1.2-0.9-1.7c-0.4-0.4-0.8-0.8-1.2-1.2c-0.9-0.9-1.9-1.7-3-2.3c-0.5-0.3-0.7-0.8-0.7-1.3c0,0,0-0.1,0-0.1
	c-3.6-2.7-7.4-5.3-11.4-8.1h0c-0.1,0-0.1-0.1-0.2-0.1c-0.6,0-1.1-0.2-1.5-0.5c-4.1-2.1-8-4.3-9-7.5c-0.2-0.2-0.4-0.5-0.5-0.7
	c-0.2-0.3-0.3-0.7-0.3-1.1c0-0.1,0-0.1,0-0.2c-0.6-0.5-1.2-1-1.8-1.5c0,0.5-0.1,1.1-0.1,1.6c0.2,1.2,0.4,2.4,0.8,3.5
	c0.2,0.8,0.3,1.6,0.2,2.3c-1,3.4-4.5,6.5-7.7,9.6c-2.3,2.3-6.2,4.2-5.7,6.9c0,0.1-0.2,0.3-0.4,0.4c-1.8,1.1-3.3,2.6-4.1,4.3
	c-0.1,0.4-0.3,0.8-0.5,1.2v0.1c0,0,0,0,0,0.1c0,0,0,0,0,0l0.1,1.8c0.3,0,0.7,0,1,0C1.1,223.5,1.1,223.1,1.3,222.7z"/>
<path class="st0" d="M47.9,224.7l-5.4,165.8c-0.1,0.2-0.2,0.3-0.3,0.5c-0.2,0.6-0.5,1.2-0.9,1.7c0,0,0,0,0,0c-1,1.6-2.4,2.9-4,3.9
	c-3.9,2.2-8.3,3.3-12.7,3.3c-8.3,0-15.2-3.3-17.2-7.9c-0.2-0.3-0.4-0.6-0.5-0.9c-0.1-0.2-0.2-0.4-0.4-0.5L1.1,224c0-0.1,0-0.2,0-0.3
	c0,0,0,0,0,0c-0.3,0-0.7,0-1,0l5.4,168.6c0,0.1,0,0.2,0.1,0.2L9,514.9c0,5,6.9,8.9,15.6,8.9h0.1c3.8,0.1,7.6-0.8,11-2.6
	c3-1.7,4.6-3.9,4.7-6.3l3.1-124l5.4-166.2C48.6,224.7,48.3,224.7,47.9,224.7z M39.2,514.7L39.2,514.7c0,2-1.5,3.9-4.1,5.4
	c-3.2,1.7-6.8,2.5-10.4,2.4h-0.1c-7.9,0-14.4-3.4-14.4-7.7H9.6l0.6,0L6.8,393.6c2.8,4.4,9.6,7.5,17.7,7.5h0.1
	c4.7,0.1,9.3-1.1,13.4-3.4c1.8-1,3.2-2.4,4.4-4.1L39.2,514.7z"/>
</svg>
