<?xml version="1.0" encoding="utf-8"?>
<!-- Generator: Adobe Illustrator 28.0.0, SVG Export Plug-In . SVG Version: 6.00 Build 0)  -->
<svg version="1.1" id="Layer_1" xmlns="http://www.w3.org/2000/svg" xmlns:xlink="http://www.w3.org/1999/xlink" x="0px" y="0px"
	 viewBox="0 0 55.1 523.7" style="enable-background:new 0 0 55.1 523.7;" xml:space="preserve">
<style type="text/css">
	.st0{fill:#FFFFFF;}
</style>
<path class="st0" d="M1,178.3c0-0.6,0-1.2,0.3-1.8c0.2-0.5,0.5-0.9,1-1.3c0,0,0.1-0.1,0.2-0.1c0.1-0.3,0.2-0.5,0.3-0.8
	c0.1-0.2,0.2-0.4,0.4-0.6c0.1-0.5,0.5-1,1.2-1.3c0.4-0.3,1-0.4,1.5-0.4c0,0,0-0.1,0.1-0.1l0.3,0.1c0.5,0,1,0.1,1.4,0.3
	c0.4,0.1,0.7,0.2,1,0.4c0.1,0,0.2,0.1,0.2,0.1c0.2,0.1,0.4,0.2,0.7,0.3c0.5,0.2,1,0.4,1.4,0.5c1,0.3,1.9,0.7,2.9,1
	c0.5,0.2,1,0.4,1.5,0.6c0.1,0,0.2,0.1,0.2,0.1l0.2,0c0.3,0.1,0.6,0.1,0.9,0.2c0.5,0.1,0.9,0.2,1.4,0.3c-3.2-1.8-6.3-3.4-8.3-5.2
	c-3.1-2.9,3.3-4.9,6.1-7.8l9.8,11.1l1.5-0.2c-2.1-4.4-9.4-8.3-8.9-13.5l13.8,7.5c-2.2-3.7-11.4-6.2-10.9-10.7l16.5,9.6
	c-3.8-4.3-12.8-7.6-13.7-12.6c10.6,4.5,20,10.7,27.4,18.2c0.2,0.2,0.3,0.4,0.4,0.6c1,0.8,1.9,1.8,2.3,2.9c0.3,1,0.3,2,0.2,3
	c0.3,0,0.7,0,1,0l0.1-1.5c0,0,0,0,0.1-0.1l0,0v0c0-0.1,0-0.2,0-0.3v-0.1l0-1c0-0.1,0-0.1,0-0.2v0c-0.1-0.4-0.2-0.8-0.3-1.2
	c0,0,0,0,0,0c-0.2-0.6-0.4-1.1-0.7-1.7c-0.3-0.6-0.7-1.2-1-1.8c-0.4-0.4-0.9-0.8-1.3-1.3c-1-0.9-2.2-1.7-3.4-2.4
	c-0.5-0.3-0.8-0.8-0.8-1.4c0,0,0-0.1,0-0.1c-4.1-2.7-8.4-5.5-12.8-8.4h0c-0.1,0-0.1-0.1-0.2-0.1c-0.6,0-1.2-0.2-1.7-0.5
	c-4.6-2.2-9-4.5-10.1-7.7c-0.2-0.2-0.4-0.5-0.6-0.7c-0.2-0.3-0.4-0.7-0.4-1.1c0-0.1,0-0.2,0-0.2c-0.7-0.5-1.3-1-2-1.5
	c0,0.6-0.1,1.1-0.1,1.7c0.2,1.2,0.5,2.4,0.8,3.6c0.3,0.8,0.3,1.6,0.2,2.4c-1.2,3.6-5.1,6.7-8.6,9.9c-2.6,2.3-7,4.3-6.4,7.1
	c0,0.1-0.3,0.3-0.5,0.4c-2.1,1.1-3.7,2.6-4.6,4.5c-0.1,0.4-0.3,0.8-0.5,1.2v0.1c0,0,0,0,0,0.1c0,0,0,0,0,0l0.1,2.2c0.3,0,0.7,0,1,0
	C1.1,178.6,1.1,178.4,1,178.3z"/>
<path class="st0" d="M54,178.7c0,0.3-0.1,0.6-0.1,0.9l-8.3,210.9c-0.1,0.2-0.2,0.3-0.3,0.5c-0.2,0.6-0.5,1.2-0.9,1.7c0,0,0,0,0,0
	c-1,1.6-2.4,2.9-4,3.9c-3.9,2.2-8.3,3.3-12.7,3.3c-8.3,0-15.2-3.3-17.2-7.9c-0.2-0.3-0.4-0.6-0.5-0.9c-0.1-0.1-0.2-0.3-0.3-0.4
	L1.1,179.2c0-0.1,0-0.3,0-0.4c-0.3,0-0.6,0-1,0l8.4,212L12,514.9c0,5,6.9,8.9,15.6,8.9h0.1c3.8,0.1,7.6-0.8,11-2.6
	c3-1.7,4.6-3.9,4.7-6.3l3.1-123.5l8.4-212.6C54.6,178.7,54.3,178.7,54,178.7z M42.3,514.7L42.3,514.7c0,2-1.5,3.9-4.1,5.4
	c-3.2,1.7-6.8,2.5-10.4,2.4h-0.1c-7.9,0-14.4-3.4-14.4-7.7h-0.6l0.6,0L9.8,393.6c2.8,4.4,9.6,7.5,17.7,7.5h0.1
	c4.7,0.1,9.3-1.1,13.4-3.4c1.8-1,3.2-2.4,4.4-4.1L42.3,514.7z"/>
</svg>
