<?xml version="1.0" encoding="utf-8"?>
<!-- Generator: Adobe Illustrator 28.0.0, SVG Export Plug-In . SVG Version: 6.00 Build 0)  -->
<svg version="1.1" id="Layer_1" xmlns="http://www.w3.org/2000/svg" xmlns:xlink="http://www.w3.org/1999/xlink" x="0px" y="0px"
	 viewBox="0 0 55.1 523.7" style="enable-background:new 0 0 55.1 523.7;" xml:space="preserve">
<style type="text/css">
	.st0{fill:#FFFFFF;}
</style>
<path class="st0" d="M1.1,98.6C1.1,98.6,1.1,98.6,1.1,98.6c0-0.4,0-0.8,0.1-1.1c0.2-0.7,0.6-1.4,1.1-2c0.1-0.1,0.2-0.2,0.3-0.3
	c0.1-0.2,0.1-0.3,0.2-0.5c0.1-0.2,0.2-0.4,0.4-0.6c0.1-0.6,0.5-1,1.1-1.3c0.4-0.3,1-0.4,1.5-0.4c0,0,0-0.1,0.1-0.1l0.3,0.1
	c0.5,0,1,0.1,1.4,0.3c0.4,0.1,0.7,0.2,1,0.4c0.1,0,0.2,0.1,0.2,0.1c0.2,0.1,0.4,0.2,0.7,0.3c0.5,0.2,1,0.4,1.5,0.6
	c1,0.3,1.9,0.7,2.9,1c0.5,0.2,1,0.4,1.5,0.6c0.1,0,0.2,0.1,0.2,0.1c0.1,0,0.1,0,0.2,0c0.3,0.1,0.6,0.1,0.9,0.2
	c0.5,0.1,0.9,0.2,1.4,0.3c-3.2-1.8-6.3-3.4-8.3-5.3c-3.1-3,3.3-5,6.1-7.9l9.8,11.2l1.5-0.2c-2.1-4.5-9.4-8.4-8.9-13.7L31.8,88
	c-2.2-3.7-11.4-6.2-10.9-10.8l16.5,9.8c-3.8-4.3-12.8-7.7-13.7-12.8c10.6,4.6,20,10.9,27.4,18.5c0.1,0.1,0.1,0.1,0.1,0.2
	c0.1,0.1,0.2,0.1,0.3,0.2c0.2,0.1,0.3,0.3,0.4,0.5c0.6,0.5,1,1.1,1.4,1.7c0.7,1.2,0.9,2.6,0.6,3.9l0,0.1c0.3,0,0.7,0,1-0.1l0.1-1.6
	l0,0v0c0-0.1,0-0.2,0-0.3c0-0.4,0-0.7,0-1.1V96c-0.1-0.4-0.2-0.8-0.3-1.2l0,0c-0.2-0.6-0.4-1.1-0.7-1.7c-0.3-0.6-0.7-1.2-1-1.8
	c-0.4-0.4-0.9-0.9-1.3-1.3c-1-0.9-2.2-1.7-3.4-2.4c-0.5-0.3-0.8-0.8-0.8-1.4c0,0,0-0.1,0-0.1c-4.1-2.8-8.4-5.6-12.8-8.5h0l-0.2-0.1
	c-0.6,0-1.2-0.2-1.7-0.5c-4.6-2.3-9-4.5-10.1-7.8c-0.2-0.2-0.4-0.5-0.6-0.7c-0.2-0.3-0.4-0.7-0.4-1.1c0-0.1,0-0.2,0-0.2
	c-0.7-0.5-1.4-1-2-1.6c0,0.6-0.1,1.1-0.1,1.7c0.2,1.2,0.5,2.5,0.8,3.7c0.3,0.8,0.3,1.6,0.2,2.5c-1.2,3.6-5.1,6.8-8.6,10.1
	c-2.6,2.4-7,4.4-6.4,7.2c0,0.1-0.3,0.3-0.5,0.4c-2.1,1.1-3.7,2.7-4.6,4.5c-0.1,0.4-0.3,0.8-0.5,1.2v0.1c0,0,0,0,0,0.1v0l0.1,3.8
	c0.3,0,0.7,0,1,0L1.1,98.6z"/>
<path class="st0" d="M54,98.9l-8.5,291.6c-0.1,0.2-0.2,0.3-0.3,0.5c-0.2,0.6-0.5,1.2-0.9,1.7c0,0,0,0,0,0c-1,1.6-2.4,2.9-4,3.9
	c-3.9,2.2-8.3,3.3-12.7,3.3c-8.3,0-15.2-3.3-17.2-7.9c-0.2-0.3-0.4-0.6-0.5-0.9c-0.1-0.1-0.2-0.3-0.3-0.4l-8.4-290c-0.3,0-0.7,0-1,0
	l8.4,288.5l0,0v0.1L12,514.9c0,5,6.9,8.9,15.6,8.9h0.1c3.8,0.1,7.6-0.8,10.9-2.6c3-1.7,4.6-3.9,4.7-6.3L46.5,391L55,98.9
	C54.7,98.9,54.3,98.9,54,98.9z M42.2,514.7L42.2,514.7c0,2-1.5,3.9-4.1,5.4c-3.2,1.7-6.8,2.5-10.4,2.4h-0.1
	c-7.9,0-14.4-3.4-14.4-7.7h-0.6l0.6,0L9.8,393.6c2.8,4.4,9.6,7.5,17.7,7.5h0.1c4.7,0.1,9.3-1.1,13.4-3.4c1.8-1,3.2-2.4,4.4-4.1
	L42.2,514.7z"/>
</svg>
