<?xml version="1.0" encoding="UTF-8"?>
<svg id="Layer_14" data-name="Layer 14" xmlns="http://www.w3.org/2000/svg" viewBox="0 0 140 450">
  <defs>
    <style>
      .cls-1, .cls-2 {
        fill: none;
        stroke: #fff;
        stroke-miterlimit: 10;
      }

      .cls-3 {
        fill: #fff;
        stroke-width: 0px;
      }

      .cls-2 {
        opacity: .34;
      }
    </style>
  </defs>
  <path class="cls-3" d="m96.34,34.11c-.11.47-.36.93-.68,1.25-.1.1-.22.19-.34.27-.12.34-.31.65-.56.9-.29.49-.8.97-1.57,1.42-2.85,1.68-6.34,2.47-9.95,3.01-10.06,1.51-20.08,1.47-29.92-.7-2.13-.47-4.21-1.21-6.02-2.1-.69-.34-1.21-.69-1.59-1.06-.02,0-.05,0-.07-.01-.64-.15-1.15-.61-1.49-1.15-.18-.29-.28-.6-.3-.93-.07-.32-.06-.64.04-.96-.5.73-.76,1.55-.76,2.51,0,.19,0,.37,0,.56,1.37.75,2.61,1.54,3.69,2.37,4.05,1.88,8.56,2.66,13.21,3.16,8.66.93,17.26.75,25.73-.86,2.89-.55,5.63-1.32,8.15-2.63.9-.67,1.9-1.32,2.98-1.93,0-.37,0-.73,0-1.1,0-.74-.17-1.42-.54-2.02Z"/>
  <path class="cls-3" d="m84.2,439.57c.13.58.18,1.2.15,1.83-.01.23-.06.45-.12.67.1.91-.2,1.84-.92,2.67-1.45,1.68-3.23,2.47-5.06,3.01-5.12,1.51-10.21,1.47-15.22-.7-1.08-.47-2.14-1.21-3.06-2.1-.46-.44-.76-.91-.96-1.39-.24-.26-.42-.57-.49-.94-.13-.73-.19-1.46-.15-2.18-.35.82-.54,1.77-.53,2.91,0,.19,0,.37,0,.56.7.75,1.33,1.54,1.88,2.37,2.06,1.88,4.36,2.66,6.72,3.16,4.41.93,8.78.75,13.09-.86,1.47-.55,2.86-1.32,4.14-2.63.46-.67.97-1.32,1.52-1.93,0-.37,0-.73,0-1.1,0-1.36-.31-2.5-.99-3.35Z"/>
  <path class="cls-1" d="m43.28,34.06c-1.32-2.63,3.47-4.63,3.59-7.57.07-1.68-1.4-3.56-.32-4.85.31-.37.77-.57,1.21-.76,3.49-1.5,7.23-3.04,10.99-2.41-.42-1.05.12-2.3,1.03-2.98s2.08-.87,3.21-.9c3.22-.07,6.33,1.12,9.31,2.34,1.19-2.32,4.15-2.98,6.73-3.37,1.74-.27,3.54-.53,5.24-.08,1.7.45,3.28,1.83,3.4,3.58.09,1.31-.6,2.75.1,3.86.91,1.44,3.08.89,4.75,1.2,1.97.36,3.43,2.15,4,4.07.58,1.92.43,3.97.29,5.96"/>
  <path class="cls-1" d="m59.01,18.44c2.78.73,5.37.94,8.19,1.24,2.41.26,3.51,1.16,5.75,2.07,1.06.43,2.24.38,3.38.32,4.08-.2,8.16-.41,12.24-.61"/>
  <line class="cls-1" x1="43.27" y1="33.78" x2="58.32" y2="443.24"/>
  <line class="cls-1" x1="96.85" y1="31.67" x2="84.62" y2="443.64"/>
  <path class="cls-1" d="m92.41,162.17c-4.18,28.26-8.36,56.56-14.81,84.39-6.22,26.85-14.53,53.16-22.83,79.44"/>
  <path class="cls-2" d="m87.62,22.11c-4.18,28.26-8.36,56.56-14.81,84.39-6.22,26.85-14.53,53.16-22.83,79.44"/>
  <path class="cls-1" d="m69.17,280.51c1.14,3.72,4.64,6.2,6.47,9.64,1.36,2.55,1.73,5.49,2.2,8.35,1.69,10.22,5.01,20.16,9.78,29.36"/>
</svg>