<?xml version="1.0" encoding="UTF-8"?>
<svg id="Layer_14" data-name="Layer 14" xmlns="http://www.w3.org/2000/svg" viewBox="0 0 140 450">
  <defs>
    <style>
      .cls-1 {
        fill: #fff;
        stroke-width: 0px;
      }
    </style>
  </defs>
  <path class="cls-1" d="m70,24.07c-12.28,0-22.27,5.44-22.27,12.12v401.7c0,6.68,9.99,12.12,22.27,12.12s22.27-5.44,22.27-12.12V36.18c0-6.68-9.99-12.12-22.27-12.12Zm0,1c11.73,0,21.27,4.99,21.27,11.12s-9.54,11.12-21.27,11.12-21.27-4.99-21.27-11.12,9.54-11.12,21.27-11.12Zm21.27,412.82c0,6.13-9.54,11.12-21.27,11.12s-21.27-4.99-21.27-11.12v-145.14c2.82,4.93,11.29,8.52,21.27,8.52s18.45-3.59,21.27-8.52v145.14Zm0-148.73c0,6.13-9.54,11.12-21.27,11.12s-21.27-4.99-21.27-11.12V39.78c2.82,4.93,11.29,8.52,21.27,8.52s18.45-3.59,21.27-8.52v249.38Z"/>
</svg>