<?xml version="1.0" encoding="utf-8"?>
<!-- Generator: Adobe Illustrator 28.0.0, SVG Export Plug-In . SVG Version: 6.00 Build 0)  -->
<svg version="1.1" id="Layer_14" xmlns="http://www.w3.org/2000/svg" xmlns:xlink="http://www.w3.org/1999/xlink" x="0px" y="0px"
	 viewBox="0 0 140 450" style="enable-background:new 0 0 140 450;" xml:space="preserve">
<style type="text/css">
	.st0{fill:none;stroke:#FFFFFF;stroke-miterlimit:10;stroke-dasharray:0,0,12.42,12.42;}
	.st1{clip-path:url(#SVGID_00000013873176778319307160000014416778865661400251_);}
	.st2{clip-path:url(#SVGID_00000074407908108037070630000001424766907400884637_);}
	.st3{fill:#FFFFFF;}
</style>
<g>
	<circle class="st0" cx="102.9" cy="118.4" r="35.6"/>
	<g>
		<defs>
			<polygon id="SVGID_1_" points="93.6,78.7 91.3,158.1 70.2,155.6 56.9,102.1 80.2,78.7 			"/>
		</defs>
		<clipPath id="SVGID_00000028289376521427594040000016054868739270021305_">
			<use xlink:href="#SVGID_1_"  style="overflow:visible;"/>
		</clipPath>
		<g style="clip-path:url(#SVGID_00000028289376521427594040000016054868739270021305_);">
			<g>
				<defs>
					<circle id="SVGID_00000008148879104950137150000011523817999692727189_" cx="102.7" cy="118.4" r="35.6"/>
				</defs>
				<clipPath id="SVGID_00000088855961504341472970000013767591175783338412_">
					<use xlink:href="#SVGID_00000008148879104950137150000011523817999692727189_"  style="overflow:visible;"/>
				</clipPath>
				<g style="clip-path:url(#SVGID_00000088855961504341472970000013767591175783338412_);">
					<g>
						<path class="st3" d="M22.7,60c0.4-0.5,0.7-1,1-1.4c-1.1-2.2-0.8-2.7,1.9-3.4c0.8-0.2,1.3-1.1,2.1-1.8
							c-0.5-1.4-0.4-2.8,1.5-3.2c-0.1-0.8-0.1-1.5-0.2-2.2c-0.4-0.2-1-0.2-1.1-0.5c-0.4-0.6-0.9-1.5-0.7-2.1
							c0.2-0.6,1.1-1.3,1.7-1.2c0.6,0,1.6,0.8,1.7,1.3c0.1,1.1,0.6,1.5,1.4,2c1.3,0.7,1,2.2-0.3,3.2c-0.4,0.3-0.5,0.8-0.6,1
							c1.5,0.4,2.7,0.6,3.8,0.9c1-0.1,2.2-0.5,3,0.8c0.7,1.2,0.2,2.1-0.9,2.8c-0.2,0.1-0.3,0.6-0.2,0.9c0.3,1.2-0.2,2.2-1.4,2.4
							c-0.6,0.1-1.6-0.4-2-0.9c-0.7-1.1-0.2-2,0.9-2.6c0.2-0.1,0.3-0.3,0.5-0.8c-1.8,0.5-3.5,0.8-4.1-1.5c-0.5,0.2-0.9,0.4-1.2,0.5
							c0.6,2.4,0.3,2.7-2,3.3c-0.7,0.2-1.3,1-1.9,1.5c0.9,1.2,1.4,2.3,0.1,3.3c-1.4,1-2.4,0.2-3.1-1.3c-1.1,1-2.4,1.8-3.4,0.3
							c-0.4-0.5-0.1-2.1,0.4-2.5C21,57.6,22,58.5,22.7,60L22.7,60z"/>
						<path class="st3" d="M69.7,68.4C69.7,68.4,69.7,68.4,69.7,68.4c-0.5,0.1-1,0.1-1.4,0.1c-0.3,0-0.6-0.1-0.8-0.1
							c-0.9,0-1.9,0-2.8,0c-0.1,0-0.2,0-0.2,0c-0.7,0.2-1.4,0.6-1.9-0.8l0,0c0.1,0,0.1,0,0.1-0.1c-0.4-0.4-0.5-1-0.6-1.5
							c0-0.6,0.3-1.3,0.7-1.8c0.1-0.2,0.3-0.3,0.6-0.4c-0.4-0.1-0.8-0.1-1.3,0.1c-0.3,0.1-0.6,0.3-0.8,0.6c0,0,0,0,0,0.1
							c0,0.4-0.1,0.8-0.3,1.1c0.1,0.5,0.3,1.1,0.6,1.8c-1.4,0.3-2.4,1-1.9,2.5c0.4,1.4,1.4,1.5,2.7,1.1c0.2-0.1,0.6,0,0.8,0.1
							c1.3,1.5,2.5,1,3.6-0.2c1,0.9,2.2,1.5,3.2,0.2C70.8,70,70.6,69.1,69.7,68.4z"/>
						<path class="st3" d="M91.7,71.6c-1-0.8-2.1-1.9-2.4-3.1c-0.4-1.3-0.5-2.7-0.5-4.1c-0.9,0.5-1.9,0.9-2.9,1.2
							c0.2,0.3,0.3,0.7,0.1,0.9c-0.5,1.2-0.2,2,0.8,2.7c0.2,0.1,0.5,0.6,0.4,0.8c-0.5,1.9,0.4,2.7,2.1,2.9c0,0.3,0,0.6,0.1,0.7
							c0.6,0.6,1.2,1.5,2,1.7c0.4,0.1,1.4-0.8,1.6-1.4C93.4,72.8,92.6,72.3,91.7,71.6z"/>
						<path class="st3" d="M96.8,58.4c0.2-1,0.3-2.2-0.3-2.9c-0.7-0.9-1.6-0.6-2.4-0.1c0,0,0,0,0,0c0,0,0.1,0.1,0.1,0.1l0.3,0.6
							c0.1,0.3,0.1,0.7,0.1,1c0,0.1,0,0.2-0.1,0.4c0,0.3,0,0.6,0,0.9c-0.1,0.2-0.2,0.4-0.2,0.6c0.3,0,0.7,0,1,0
							c-0.5,1.3-1.1,2.6-1.5,4c-0.2,0.5,0.1,1.4,0.5,1.8c0.4,0.4,1.3,0.6,1.8,0.4c0.5-0.2,1-1,1.3-1.6c0.2-0.5,0.2-1.1,0.3-1.7
							c0.2-0.8,0.4-1.7,0.6-2.5C97.8,59.1,97.3,58.8,96.8,58.4z"/>
						<path class="st3" d="M128.1,70.7c1.9,0.5,2.1,1.1,1.3,3.2c-0.2,0.4,0.2,1.1,0.1,1.5c-0.2,0.7-0.5,1.4-1,1.8
							c-0.4,0.3-1.4,0.2-1.8-0.1c-0.4-0.3-0.8-1.1-0.7-1.7c0.1-1.3,0.4-2.5,0.6-3.6c-1-0.5-1.8-0.9-2.6-1.4c0,0.1,0,0.3-0.1,0.4
							c-1.1-0.2-2.2-0.2-3.1-0.6c-0.3-0.2-0.1-2.2,0.2-2.3c1-0.3,2.1-0.1,3.2,0c0.9,0,2-0.3,2.6,0.1
							C127.3,68.4,127.5,69.5,128.1,70.7L128.1,70.7z"/>
						<path class="st3" d="M29.6,72.3c-0.8-0.3-1.1-0.3-1.3-0.5c-0.7-0.7-1.3-1.1-2.4-0.6c-0.4,0.2-1.5-0.3-1.5-0.7
							c-0.2-1.4-1.4-2-2.3-2.8c-0.4-0.3-1-0.5-1.4-0.9c-0.6-0.5-1.5-1.1-1.6-1.7c-0.1-0.5,0.6-1.6,1.1-1.8c0.6-0.2,1.5,0.3,2.2,0.7
							c0.5,0.2,1,0.6,1.5,0.9s1.2,0.6,1.4,1.1c0.6,1.9,1.8,2.7,3.8,2.4c1.2-0.2,2,0.7,1.8,1.8C30.8,71,30,71.7,29.6,72.3L29.6,72.3z
							"/>
						<path class="st3" d="M45.1,60.4c-0.7,0.6-1.3,1.2-2.1,1.9c0.3,1,0.5,2.4-1.1,2.7c-0.7,0.2-2-0.4-2.2-1
							c-0.7-1.5,0.3-2.4,1.8-2.7c-0.1-0.8-0.3-1.4-0.4-2.1c-1.3,0.2-2.8,0-2.8-1.7c0-0.7,0.9-1.8,1.5-1.9c1.5-0.3,2.1,0.9,2.2,2.4
							C44,57.9,45.1,58.6,45.1,60.4L45.1,60.4L45.1,60.4z"/>
						<path class="st3" d="M69.9,73.6c0.9,0,2-0.2,2.8,0.1c0.4,0.2,0.9,1.6,0.6,2c-0.5,0.7-1.5,1.1-2.4,1.8
							c-0.5,0.5-1.1,1.5-1.9,1.8c-0.5,0.2-2-0.9-1.9-1.3c0.2-1.6-2.4-3.4,0.3-4.6c0.7-0.3,1.8,0.3,2.7,0.4
							C69.9,73.7,69.9,73.6,69.9,73.6L69.9,73.6z"/>
						<path class="st3" d="M96.8,88.2c1.2,0,2.6,0,2.7,1.5c0.1,0.8-0.7,1.7-1.2,2.8c1,1.2,1.1,2.4,0,3.1c-1,0.7-1.9,0.5-2.6-0.4
							C94.9,94,95.3,93,97.1,92C95.5,90.8,95.6,89.4,96.8,88.2L96.8,88.2L96.8,88.2z"/>
						<path class="st3" d="M85.6,74.7c1.5,0.1,2.7,0.7,2.2,2.4c-0.2,0.6-1.3,1.3-2,1.3c-1.5-0.1-1.7-1.3-1.4-2.7
							c-1.3-0.3-2.8-0.7-2.3-2.5c0.2-0.6,1.7-1.5,2-1.3c0.8,0.6,1.4,1.6,2,2.4C86,74.4,85.8,74.5,85.6,74.7L85.6,74.7z"/>
						<path class="st3" d="M72.2,95.5c-1.6,0.1-2.7-0.3-2.8-1.9c0-1.2,0.8-1.8,1.9-1.8c1.7,0.1,1.8,1.4,1.7,2.8
							c1.5,0,2.9,0.4,2.6,2.2c-0.1,0.6-1.2,1.5-1.9,1.5C72.2,98.3,71.8,97.1,72.2,95.5L72.2,95.5z"/>
						<path class="st3" d="M43.3,79.3c0.8,1.2,1.2,2.5-0.3,3.2c-0.6,0.3-2-0.1-2.3-0.6c-1-1.4,0-2.4,1.4-3c-0.7-1.2-1.3-2.6,0.3-3.3
							c0.6-0.3,2,0.1,2.3,0.7C45.8,77.8,44.7,78.7,43.3,79.3z"/>
						<path class="st3" d="M63.9,104.7c-1.3,0.6-2.7,0.8-3.2-0.8c-0.2-0.6,0.5-2,1.1-2.2c1.4-0.6,2.3,0.3,2.5,1.9
							c1.4-0.5,2.8-0.9,3.3,0.9c0.2,0.6-0.5,1.9-1,2.2C65,107.3,64.2,106.2,63.9,104.7L63.9,104.7z"/>
						<path class="st3" d="M128.6,87.6c0.9-1.3,2-2,3.1-0.9c0.5,0.5,0.6,2,0.2,2.5c-0.9,1.3-2.1,0.7-3.2-0.3c-0.9,1.2-2,2.1-3.3,0.8
							c-0.4-0.5-0.5-1.9-0.1-2.4C126.3,86,127.5,86.6,128.6,87.6L128.6,87.6z"/>
						<path class="st3" d="M98.4,81.2c1.3,0,2.6,0.2,2.5,1.7c0,0.7-0.8,1.8-1.4,1.9c-1.6,0.4-2.1-0.8-2.3-2.2
							c-1.3,0-2.7-0.3-2.5-1.9c0.1-0.6,0.9-1.6,1.5-1.7C97.7,78.6,98.2,79.9,98.4,81.2z"/>
						<path class="st3" d="M128.5,119.7c-0.6-1.4-0.8-2.7,0.7-3.2c0.6-0.2,1.9,0.3,2.2,0.9c0.9,1.5-0.4,2.3-1.6,2.9
							c0.6,1.2,0.9,2.6-0.6,3.1c-0.6,0.2-2-0.3-2.4-0.9C126,121.1,127.1,120.2,128.5,119.7L128.5,119.7z"/>
						<path class="st3" d="M138.8,61.5c1.5,0.5,2.4,1.4,1.7,2.8c-0.3,0.6-1.6,1.1-2.2,0.9c-1.4-0.4-1.4-1.6-0.9-2.9
							c-1.2-0.5-2.5-1.3-1.7-2.8c0.3-0.6,1.6-1.1,2.2-0.9C139.3,58.8,139.3,60.1,138.8,61.5z"/>
						<path class="st3" d="M97.3,138c1-1,2.2-1.4,3.1-0.3c0.4,0.5,0.4,1.9,0,2.4c-1.1,1.3-2.3,0.6-3.2-0.6c-1.1,1-2.3,1.5-3.2,0.2
							c-0.4-0.5-0.3-1.9,0.1-2.4C95.3,136.1,96.4,137.1,97.3,138z"/>
						<path class="st3" d="M136.3,88.8c0.5-1.5,1.2-2.6,2.7-1.9c0.6,0.3,1.2,1.5,1.1,2.2c-0.3,1.6-1.7,1.5-3,1.1
							c-0.6,1.2-1.2,2.6-2.8,1.8c-0.6-0.3-1.2-1.5-1-2.2C133.5,88.2,134.9,88.3,136.3,88.8L136.3,88.8z"/>
						<path class="st3" d="M76.3,65.7c-0.1-0.2-0.1-0.5-0.1-0.7c-0.2-0.1-0.3-0.2-0.4-0.2c-1.6-0.3-2.1,0.9-2.1,2.5l0,0
							c-0.9-0.1-1.7-0.1-2.2,0.4c0,0-0.1,0.1-0.1,0.1C71.1,68,71,68.3,71,68.9c0,0.7,1,1.8,1.6,2c1.6,0.3,2-1,2-2.4
							c1.3,0,2.5-0.2,2.7-1.4C76.8,66.7,76.5,66.2,76.3,65.7z"/>
						<path class="st3" d="M134.1,80.2c1.4,1.8,3.2,1.6,4.7,2.2c1,0.4,1.2,1.7,0.3,2.5c-0.6,0.5-2.1,0.7-2.5,0.3
							c-0.8-0.7-1.5-0.8-2.5-0.7c-1.2,0.1-1.9-0.8-1.6-1.9C132.7,81.8,133.4,81.2,134.1,80.2L134.1,80.2z"/>
						<path class="st3" d="M133.3,69.8c0.5-1.3,1.4-2.2,2.8-1.5c0.6,0.3,1.1,1.5,0.9,2.1c-0.4,1.5-1.6,1.6-2.8,1.6
							c-1,0.4-2,0.9-3.1,1c-0.3,0-1.1-1.5-0.9-2.2C130.7,69.2,132.1,69.5,133.3,69.8L133.3,69.8z"/>
						<path class="st3" d="M91.2,92c-1.5-0.4-2.7-1.2-1.9-2.8c0.3-0.6,1.8-1.2,2.4-0.9c1.6,0.6,1.3,2,0.4,3.2
							c1.5,0.5,2.7,1.2,1.9,2.8c-0.3,0.6-1.8,1.1-2.4,0.9C90,94.6,90.3,93.2,91.2,92L91.2,92z"/>
						<path class="st3" d="M142.5,68.6c-0.6,1.2-1.2,2.6-2.8,1.7c-0.6-0.3-1.1-1.7-0.9-2.3c0.5-1.6,1.8-1.3,3.1-0.7
							c0.5-1.3,1.1-2.5,2.7-1.9c1.1,0.4,1.5,1.4,1,2.4C145.1,69.3,143.8,69.1,142.5,68.6L142.5,68.6z"/>
						<path class="st3" d="M104.2,97.9c0.2-0.1,0.4-0.4,0.6-0.4c0.9,0.1,1.9,0,2.6,0.5c0.3,0.2,0.3,1.8,0,2.1
							c-0.8,0.5-1.8,0.5-2.9,0.5c-0.8,0.9-1.5,2.4-3.2,1.3c-0.5-0.3-0.9-1.7-0.7-2.3c0.7-1.5,2-1.3,3.3-0.3
							C104.1,98.6,104.2,98.2,104.2,97.9L104.2,97.9L104.2,97.9z"/>
						<path class="st3" d="M77.8,140c-0.8,0.8-1.3,1.7-1.9,1.7c-0.7,0-1.5-0.7-2.2-1.2c-0.5-0.4-0.9-0.9-1.2-1.4
							c-0.4-0.6-1.2-1.4-1.1-2c0.1-0.6,1.1-1.4,1.7-1.5s1.3,0.8,1.9,1.3c0.4,0.4,0.8,0.8,1.2,1.3C76.6,138.8,77.1,139.2,77.8,140
							L77.8,140z"/>
						<path class="st3" d="M55.4,108.8c-0.2,1.4-0.6,2.7-2.2,2.3c-0.6-0.1-1.5-1-1.6-1.7c-0.2-1.6,1.1-1.9,2.5-2
							c0.1-1.4,0.6-2.6,2.2-2.3c0.6,0.1,1.5,1,1.6,1.7C58.1,108.4,56.8,108.7,55.4,108.8L55.4,108.8z"/>
						<path class="st3" d="M49.6,62.8c-0.1,0.2-0.2,0.3-0.3,0.5c-0.9,1.1,0.1,2.7,1.5,2.8h0c0.8,0,1.5-0.5,1.7-1.2
							C51.5,64.3,50.5,63.5,49.6,62.8z"/>
						<path class="st3" d="M141.5,74.9c-1.1,0.7-2.4,1.2-3.2-0.2c-0.3-0.6-0.1-1.9,0.4-2.4c1.2-1.1,2.2-0.3,3.1,0.8
							c1.1-0.7,2.4-1.2,3.2,0.1c0.3,0.6,0.1,1.9-0.3,2.4C143.4,76.8,142.4,76,141.5,74.9L141.5,74.9z"/>
						<path class="st3" d="M128.8,80.5c-0.4,0.7-0.5,1.2-0.8,1.5c-1.2,1-2.4,2.1-3.8,2.9c-0.2,0.1-1.5-0.7-1.6-1.3
							c-0.2-0.6,0.3-1.7,0.8-2c0.8-0.5,1.4-0.8,1.8-1.8c0.2-0.5,1.3-0.9,2-0.8C127.7,79.2,128.2,80,128.8,80.5L128.8,80.5z"/>
						<path class="st3" d="M15.3,74.8c-0.7-0.7-1.5-1.1-1.6-1.6c-0.1-0.7,0.1-1.8,0.6-2c1-0.5,1.2-1.1,1.4-2
							c0.1-0.5,1.1-1.2,1.6-1.2c0.6,0,1.5,0.7,1.8,1.2c0.2,0.5-0.1,1.7-0.5,1.9c-1,0.5-1.2,1.2-1.5,2.2C16.8,73.8,16,74.2,15.3,74.8
							z"/>
						<path class="st3" d="M109.2,122.9c-0.8,0.7-1.2,1.5-1.8,1.6c-0.9,0.2-1.6,0.2-2.2,1.2c-0.3,0.4-1.5,0.7-2.1,0.4
							s-1.1-1.3-1-1.9c0.1-0.6,0.9-1.1,1.5-1.5c0.6-0.4,1.2-0.8,1.8-1.1c0.7-0.3,1.5-0.6,2.1-0.5
							C108.1,121.3,108.5,122.1,109.2,122.9L109.2,122.9z"/>
						<path class="st3" d="M39.5,105.1c0.1,1.1,0.2,2.1,1.6,2.4c0.5,0.1,1,1.3,0.9,1.9c-0.1,0.6-1,1.3-1.6,1.4
							c-0.6,0.1-1.3-0.6-1.8-1.1c-0.4-0.3-0.5-1.1-0.9-1.3c-1.3-0.5-2-1.3-1.3-2.7c0.6-1.3,1.8-1.3,2.9-0.6
							C39.3,105.1,39.4,105.1,39.5,105.1L39.5,105.1L39.5,105.1z"/>
						<path class="st3" d="M53.1,66.2c1.7,1.4,3.2,2.5,4.5,3.9c0.2,0.2-0.4,1.7-1,2s-1.8,0-2.2-0.5c-0.5-0.7-1-1.1-1.9-1.4
							c-0.5-0.2-1.2-1.3-1.1-1.9C51.5,67.6,52.4,67,53.1,66.2z"/>
						<path class="st3" d="M81.9,81.8c0.8-0.3,1.6-0.8,2.4-0.9c0.7-0.1,1.6,0,2,0.4c0.4,0.5,0.6,1.5,0.3,2.1
							c-0.2,0.5-1.2,1.1-1.7,0.9c-0.9-0.2-1.5,0.1-2.3,0.5c-0.5,0.3-1.6,0.1-2.1-0.3c-0.4-0.3-0.6-1.4-0.4-1.9
							c0.2-0.6,0.9-0.9,1.4-1.4C81.7,81.3,81.8,81.5,81.9,81.8z"/>
						<path class="st3" d="M143.4,113c-0.5,0.5-0.9,1.3-1.5,1.4c-0.6,0.1-1.9-0.1-2-0.6c-0.5-1-1.2-1.5-2.1-2c-1-0.7-1.1-2-0.1-2.6
							c0.6-0.4,2.1-0.4,2.5,0.1c0.7,0.9,1.3,1.8,2.3,2.3C142.9,111.7,143.1,112.3,143.4,113L143.4,113z"/>
						<path class="st3" d="M65.7,63.3c0.2,0,0.5,0,0.7,0c0.5-0.3,0.9-0.6,1.3-0.9c0.6-0.5,1.2-1.1,1.6-1.7c0.4-0.6,0.8-1.3,0.7-1.9
							s-0.9-1.3-1.4-1.4c-0.6-0.1-1.3,0.4-1.9,0.8c-0.6,0.5-1.2,1.1-1.6,1.7c-0.4,0.6-0.8,1.4-0.7,2.1
							C64.5,62.5,65.1,62.9,65.7,63.3z"/>
						<path class="st3" d="M66.7,81.8c2,0.4,3.5,0.4,4.7,1c0.6,0.3,1,1.7,0.8,2.4c-0.4,1.2-1.5,1.2-2.6,0.7
							c-0.6-0.3-1.2-0.4-1.9-0.4c-1.3,0-2.2-0.6-2-1.8C65.7,82.9,66.4,82.2,66.7,81.8z"/>
						<path class="st3" d="M98.8,105.9c-0.6,0.7-0.9,1.4-1.4,1.6c-0.5,0.2-1.3,0.1-1.9-0.2c-0.8-0.3-1.6-0.7-2.2-1.2
							c-0.5-0.4-1.2-1-1.3-1.6c-0.1-0.6,0.4-1.5,0.9-1.8s1.4-0.1,2,0.2c0.8,0.3,1.6,0.7,2.2,1.2C97.7,104.6,98.2,105.2,98.8,105.9z"
							/>
						<path class="st3" d="M114.6,81.8c-0.1-0.9-0.4-1.8-0.3-2.7c0-0.7,0.3-1.5,0.8-1.8c0.5-0.3,1.5-0.3,2,0.1
							c0.5,0.3,0.6,1.2,0.8,1.9c0.1,0.8,0.2,1.6,0.1,2.3c-0.1,0.7-0.3,1.5-0.7,1.9c-0.4,0.3-1.3,0.4-1.8,0.2c-0.6-0.3-0.9-1-1.3-1.6
							C114.2,82,114.4,81.9,114.6,81.8L114.6,81.8z"/>
						<path class="st3" d="M16.2,74.9c0.3,0.3,1.3,0.7,1.3,1.1c0,1.7-0.2,3.4-0.6,5c-0.1,0.3-1.4,0.8-1.7,0.6
							c-0.6-0.4-1.6-1.7-1.4-1.9C14.9,78.2,12.7,75.2,16.2,74.9L16.2,74.9z"/>
						<path class="st3" d="M108.3,64.1c-0.7-1.2-0.8-2.4,0.7-3.1c1.2-0.6,2.1,0.2,2.6,1.9c0.1,0.5,0.7,0.9,0.8,1.3
							c0.2,0.7,0.3,1.5,0,2c-0.3,0.5-1.3,0.9-1.8,0.8c-0.6-0.1-1-0.9-1.4-1.4C108.8,65.2,108.5,64.6,108.3,64.1
							C108.3,64.1,108.3,64.1,108.3,64.1z"/>
						<path class="st3" d="M35.3,72.7c1.5-0.4,4.4,0.6,5.2,2c0.3,0.6,0.2,1.7-0.1,2.3c-0.3,0.4-1.5,0.6-2.1,0.4c-1-0.4-2-1-2.6-1.8
							C35.2,74.8,35.4,73.6,35.3,72.7L35.3,72.7L35.3,72.7z"/>
						<path class="st3" d="M108.2,132.2c0.5,0.7,1.4,1.5,1.4,2.1c-0.1,0.7-1.1,1.7-1.8,1.8c-0.6,0-1.7-1.1-1.7-1.8
							c-0.1-0.6,0.8-1.4,1.3-2.1C107.4,132.2,108.2,132.2,108.2,132.2z"/>
						<path class="st3" d="M87.3,259.2c-0.7,0.5-1.5,1.5-2.1,1.4c-0.7-0.1-1.3-1.1-1.9-1.7c0.6-0.6,1.2-1.7,1.9-1.8
							c0.6-0.1,1.4,0.8,2.2,1.3C87.3,258.6,87.3,258.9,87.3,259.2L87.3,259.2z"/>
						<path class="st3" d="M57.3,123.3c0.5,0.7,1.4,1.5,1.3,2.2c-0.1,0.7-1.1,1.8-1.8,1.8c-0.7,0-1.7-1.1-1.8-1.8
							c-0.1-0.7,0.9-1.4,1.4-2.1L57.3,123.3L57.3,123.3z"/>
						<path class="st3" d="M137.4,75.1c-0.7,0.5-1.5,1.4-2.2,1.3c-0.7-0.1-1.2-1.2-1.8-1.8c0.6-0.6,1.2-1.6,1.9-1.7
							c0.7-0.1,1.4,0.9,2.1,1.4C137.4,74.5,137.4,74.8,137.4,75.1L137.4,75.1z"/>
						<path class="st3" d="M108.3,64.1L108.3,64.1c0,0.4,0.1,0.9,0.2,1.4c0.1,1.3-0.7,2.2-1.8,2c-0.7-0.1-1.7-1.1-1.8-1.8
							c-0.2-1.2,0.8-1.8,2-1.8C107.4,63.9,107.9,64,108.3,64.1L108.3,64.1z"/>
						<path class="st3" d="M114.9,63.4c-0.5-0.7-1.5-1.4-1.4-2.1c0.1-0.7,1.1-1.8,1.7-1.8c0.6,0,1.7,1,1.8,1.7
							c0.1,0.6-0.8,1.5-1.3,2.2C115.7,63.3,114.9,63.4,114.9,63.4z"/>
						<path class="st3" d="M96.6,191.6c-0.7,0.5-1.5,1.4-2.2,1.3c-0.7-0.1-1.8-1.2-1.7-1.8c0-0.6,1.1-1.7,1.8-1.7
							c0.7-0.1,1.4,0.9,2.1,1.4C96.6,191.1,96.6,191.4,96.6,191.6L96.6,191.6z"/>
						<path class="st3" d="M19.3,150.8c-0.7,0.5-1.5,1.4-2.2,1.3c-0.7-0.1-1.7-1.2-1.7-1.8c0-0.6,1.1-1.6,1.8-1.7
							c0.6-0.1,1.4,0.9,2.1,1.4C19.3,150.2,19.3,150.5,19.3,150.8L19.3,150.8z"/>
						<path class="st3" d="M123.3,64.4c-0.4-0.7-1.3-1.5-1.2-2.2c0.1-0.7,1.2-1.2,1.8-1.8c0.6,0.7,1.6,1.3,1.7,2
							c0.1,0.7-0.9,1.4-1.4,2.1C123.8,64.5,123.6,64.5,123.3,64.4L123.3,64.4z"/>
						<path class="st3" d="M15.6,133.7c-0.7,0.5-1.5,1.4-2.2,1.3c-0.7-0.1-1.2-1.1-1.9-1.8c0.6-0.6,1.2-1.6,1.9-1.7
							c0.6-0.1,1.4,0.9,2.1,1.4C15.6,133.1,15.6,133.4,15.6,133.7L15.6,133.7z"/>
						<path class="st3" d="M85.8,231.6c-0.7,0.5-1.5,1.4-2.1,1.4c-0.7-0.1-1.3-1.1-1.9-1.7c0.6-0.6,1.2-1.7,1.8-1.8
							c0.7-0.1,1.4,0.8,2.2,1.3L85.8,231.6L85.8,231.6z"/>
						<path class="st3" d="M106.9,92.7c-0.7,0.5-1.4,1.5-2.1,1.4c-0.7-0.1-1.3-1.1-1.9-1.7c0.6-0.6,1.1-1.7,1.8-1.8
							c0.6-0.1,1.4,0.8,2.2,1.2C106.9,92.2,106.9,92.4,106.9,92.7L106.9,92.7z"/>
						<path class="st3" d="M93.4,173.4c-0.5-0.7-1.5-1.4-1.4-2.1c0.1-0.7,1.1-1.8,1.7-1.8c0.6,0,1.7,1,1.8,1.7
							c0.1,0.6-0.8,1.4-1.3,2.2C93.9,173.3,93.6,173.3,93.4,173.4L93.4,173.4z"/>
						<path class="st3" d="M76.7,81c0.3,0.3,0.7,0.5,0.9,0.9c0.7,1,0.6,2-0.4,2.7c-1,0.7-2.1,0.4-2.7-0.7c-0.6-1.1-0.2-2,1-2.6
							C75.9,81.2,76.4,81.2,76.7,81L76.7,81L76.7,81z"/>
						<path class="st3" d="M13.1,96.1c-0.7,0.5-1.4,1.5-2.1,1.4c-0.7-0.1-1.8-1.1-1.8-1.7c0-0.6,1-1.7,1.7-1.8
							c0.6-0.1,1.4,0.8,2.2,1.3C13,95.5,13,95.8,13.1,96.1L13.1,96.1z"/>
						<path class="st3" d="M48.3,82.4c0.5,0.7,1.5,1.5,1.4,2.1c-0.1,0.7-1.1,1.3-1.7,1.9c-0.6-0.6-1.7-1.2-1.8-1.9
							c-0.1-0.7,0.8-1.4,1.3-2.2C47.8,82.4,48.1,82.4,48.3,82.4L48.3,82.4z"/>
						<path class="st3" d="M69.5,112c-0.7,0.5-1.4,1.5-2.1,1.4c-0.7-0.1-1.8-1.1-1.8-1.7c0-0.6,1-1.7,1.7-1.8
							c0.7-0.1,1.4,0.8,2.2,1.3C69.5,111.5,69.5,111.8,69.5,112L69.5,112z"/>
						<path class="st3" d="M118,209.5c-0.7,0.5-1.5,1.4-2.2,1.2c-0.7-0.1-1.2-1.2-1.8-1.8c0.6-0.6,1.2-1.6,1.9-1.7
							c0.6-0.1,1.4,0.9,2.1,1.4C118,209,118,209.2,118,209.5L118,209.5z"/>
						<path class="st3" d="M18.9,102.4c-0.7,0.5-1.5,1.4-2.1,1.3c-0.7-0.1-1.3-1.1-1.9-1.7c0.6-0.6,1.2-1.7,1.9-1.8
							c0.6-0.1,1.4,0.8,2.2,1.3C18.9,101.8,18.9,102.1,18.9,102.4z"/>
						<path class="st3" d="M72.8,112.5c0.5,0.7,1.5,1.4,1.4,2.1c-0.1,0.7-1.1,1.3-1.7,2c-0.7-0.6-1.7-1.1-1.8-1.8
							c-0.1-0.7,0.8-1.5,1.3-2.2L72.8,112.5z"/>
						<path class="st3" d="M70.2,180.2c-0.7,0.5-1.5,1.4-2.2,1.3c-0.7-0.1-1.7-1.2-1.7-1.8c0-0.6,1.1-1.6,1.8-1.7
							c0.7-0.1,1.4,0.9,2.1,1.4C70.2,179.7,70.2,179.9,70.2,180.2L70.2,180.2z"/>
						<path class="st3" d="M46.1,169.2c-0.5-0.7-1.4-1.5-1.2-2.2c0.1-0.7,1.2-1.2,1.8-1.8c0.6,0.6,1.6,1.2,1.7,1.9
							c0.1,0.6-0.9,1.4-1.4,2.1C46.6,169.2,46.3,169.2,46.1,169.2L46.1,169.2z"/>
						<path class="st3" d="M98.6,154.8c-0.7,0.4-1.5,1.3-2.2,1.2c-0.6,0-1.5-1-1.7-1.7c-0.3-1.1,0.6-2,1.7-1.9
							c0.8,0.1,1.5,0.9,2.2,1.4C98.6,154.2,98.6,154.5,98.6,154.8L98.6,154.8z"/>
						<path class="st3" d="M67.5,167.9c-0.5-0.7-1.3-1.4-1.4-2.2c-0.2-1.1,0.7-2,1.8-1.8c0.7,0.1,1.6,1.1,1.7,1.7
							c0.1,0.7-0.8,1.5-1.2,2.2C68.1,167.9,67.8,167.9,67.5,167.9z"/>
						<path class="st3" d="M76.3,170.6c-0.7,0.5-1.4,1.4-2.1,1.4c-0.6,0-1.6-0.9-1.8-1.6c-0.3-1.1,0.5-2,1.6-1.9
							c0.8,0.1,1.5,0.8,2.2,1.2C76.3,170,76.3,170.3,76.3,170.6z"/>
						<path class="st3" d="M50.2,177c-0.5-0.7-1.4-1.5-1.3-2.1c0.1-0.7,1.1-1.3,1.7-1.9c0.6,0.6,1.7,1.2,1.8,1.9
							c0.1,0.6-0.8,1.4-1.3,2.2C50.8,177,50.5,177,50.2,177L50.2,177z"/>
						<path class="st3" d="M43,177.6c-0.5-0.7-1.3-1.4-1.4-2.2c-0.2-1.1,0.7-2,1.8-1.7c0.7,0.2,1.6,1.1,1.7,1.7
							c0,0.7-0.8,1.5-1.2,2.2C43.6,177.6,43.3,177.6,43,177.6L43,177.6z"/>
						<path class="st3" d="M76.6,183.8c-0.5-0.7-1.4-1.4-1.4-2.1c0-0.6,0.9-1.6,1.6-1.8c1.1-0.3,2,0.5,1.9,1.6
							c-0.1,0.8-0.8,1.5-1.3,2.2C77.2,183.7,76.9,183.8,76.6,183.8L76.6,183.8z"/>
						<path class="st3" d="M52.2,193c-0.7,0.4-1.4,1.2-2.2,1.3c-1.1,0.1-2-0.8-1.7-1.9c0.2-0.7,1.1-1.5,1.8-1.7
							C51.2,190.5,51.8,191.4,52.2,193z"/>
						<path class="st3" d="M52.8,126.6c-0.7,0.5-1.4,1.5-2.1,1.4c-0.7-0.1-1.8-1.1-1.8-1.7c0-0.6,1-1.7,1.7-1.8
							c0.7-0.1,1.5,0.8,2.2,1.3C52.8,126,52.8,126.3,52.8,126.6L52.8,126.6z"/>
						<path class="st3" d="M34.7,126.4c-0.7,0.5-1.4,1.2-2.2,1.3c-1.1,0.2-2-0.7-1.7-1.8c0.2-0.7,1.1-1.6,1.7-1.7
							c0.7-0.1,1.5,0.8,2.2,1.2C34.7,125.8,34.7,126.1,34.7,126.4z"/>
						<path class="st3" d="M24.2,195.2c0.5,0.7,1.3,1.5,1.3,2.2c0,0.6-1,1.6-1.6,1.7c-1.1,0.3-2-0.6-1.9-1.7
							c0.1-0.8,0.9-1.5,1.3-2.2C23.6,195.2,23.9,195.2,24.2,195.2L24.2,195.2z"/>
						<path class="st3" d="M41.4,210.5c-0.7,0.4-1.5,1.3-2.2,1.2c-0.6-0.1-1.5-1-1.7-1.7c-0.2-1.1,0.6-2,1.7-1.8
							c0.8,0.1,1.5,0.9,2.2,1.4C41.4,209.9,41.4,210.2,41.4,210.5L41.4,210.5z"/>
						<path class="st3" d="M135.1,224.7c-0.5-0.7-1.2-1.4-1.4-2.2c-0.2-1.2,0.7-2,1.8-1.8c0.7,0.1,1.7,1,1.7,1.7
							c0.1,0.7-0.8,1.5-1.2,2.2C135.6,224.7,135.3,224.7,135.1,224.7L135.1,224.7z"/>
						<path class="st3" d="M18.4,92.7c-0.7,0.4-1.5,1.2-2.2,1.3c-1.1,0.1-1.9-0.8-1.6-1.9c0.2-0.7,1.1-1.6,1.8-1.6
							c0.7,0,1.4,0.8,2.1,1.3C18.4,92.1,18.4,92.4,18.4,92.7z"/>
						<path class="st3" d="M49.9,119.7c-0.7,0.5-1.4,1.3-2.2,1.4c-1.1,0.2-2-0.7-1.8-1.8c0.2-0.7,1-1.7,1.7-1.7
							c0.7-0.1,1.5,0.8,2.2,1.2C49.9,119.1,49.9,119.4,49.9,119.7L49.9,119.7z"/>
						<path class="st3" d="M62.2,222.2c0.5,0.7,1.3,1.5,1.2,2.2c-0.1,0.7-1.2,1.7-1.8,1.7c-0.6,0-1.6-1.1-1.7-1.8
							c-0.1-0.6,0.9-1.4,1.4-2.1C61.7,222.2,61.9,222.2,62.2,222.2L62.2,222.2z"/>
						<path class="st3" d="M102.6,118.6c-0.4-0.7-1.3-1.5-1.2-2.2c0.1-0.7,1.2-1.7,1.7-1.7c0.7,0.2,1.7,1.1,1.8,1.8
							c0.1,0.6-0.9,1.4-1.3,2.1L102.6,118.6L102.6,118.6z"/>
						<path class="st3" d="M94.1,115.3c-0.7,0.4-1.5,1.3-2.2,1.2c-0.6-0.1-1.5-1-1.7-1.7c-0.2-1.1,0.6-2,1.7-1.8
							c0.8,0.1,1.4,0.9,2.2,1.3C94.2,114.7,94.2,115,94.1,115.3L94.1,115.3z"/>
						<path class="st3" d="M11.9,111.4c0.5,0.7,1.5,1.4,1.4,2.1c-0.1,0.7-1.1,1.8-1.7,1.8c-0.6,0-1.7-1-1.8-1.7
							c-0.1-0.7,0.8-1.4,1.3-2.2C11.4,111.4,11.6,111.4,11.9,111.4L11.9,111.4z"/>
						<path class="st3" d="M101.6,74.4c-0.7,0.5-1.4,1.3-2.1,1.3c-0.6,0-1.6-0.9-1.8-1.6c-0.3-1.1,0.5-2,1.6-1.9
							c0.8,0.1,1.5,0.8,2.2,1.3C101.5,73.8,101.6,74.1,101.6,74.4z"/>
						<path class="st3" d="M106.1,77.2c-0.5-0.7-1.3-1.5-1.3-2.2c0-0.6,0.9-1.6,1.6-1.7c1.1-0.3,2,0.5,1.9,1.7
							c-0.1,0.8-0.8,1.5-1.3,2.2C106.6,77.2,106.3,77.2,106.1,77.2L106.1,77.2z"/>
						<path class="st3" d="M56.5,96.3c-0.8,0.4-1.6,1.3-2.2,1.2c-0.7-0.1-1.5-1.2-1.6-1.9c-0.1-0.5,1.1-1.5,1.8-1.5
							c0.7,0,1.4,0.9,2.1,1.4C56.5,95.8,56.5,96,56.5,96.3L56.5,96.3z"/>
						<path class="st3" d="M76.2,103c0.4,0.7,1.3,1.5,1.2,2.2c-0.1,0.6-1,1.5-1.7,1.7c-1.1,0.2-2-0.6-1.8-1.8
							c0.1-0.8,0.9-1.4,1.4-2.2C75.6,103,75.9,103,76.2,103L76.2,103z"/>
						<path class="st3" d="M33.8,75.9c0.5,0.7,1.2,1.4,1.3,2.2c0.1,1.1-0.8,2-1.9,1.7c-0.7-0.2-1.5-1.1-1.6-1.8
							C31.3,76.9,32.2,76.3,33.8,75.9z"/>
						<path class="st3" d="M83,104.5c-0.7,0.5-1.4,1.4-2.1,1.4c-0.6,0-1.6-0.9-1.8-1.6c-0.3-1.1,0.5-2,1.6-1.9
							c0.8,0.1,1.5,0.8,2.2,1.2C82.9,103.9,82.9,104.2,83,104.5z"/>
						<path class="st3" d="M122.6,98.6c-0.7,0.5-1.5,1.4-2.1,1.3c-0.7-0.1-1.3-1.1-1.9-1.7c0.6-0.6,1.2-1.7,1.9-1.8
							c0.7-0.1,1.4,0.8,2.2,1.3C122.6,98.1,122.6,98.3,122.6,98.6z"/>
						<path class="st3" d="M72.3,98.3c0.4,0.7,1.2,1.5,1.3,2.2c0.1,1.1-0.8,2-1.9,1.7c-0.7-0.2-1.6-1.1-1.6-1.8
							c0-0.7,0.8-1.4,1.3-2.1C71.7,98.3,72,98.3,72.3,98.3L72.3,98.3z"/>
						<path class="st3" d="M123.7,104.1c-0.4-0.8-1.2-1.5-1.2-2.2c0.1-0.6,1.2-1.7,1.7-1.6c0.7,0.2,1.7,1.1,1.8,1.8
							c0.1,0.6-0.9,1.4-1.4,2.1C124.3,104.1,124,104.1,123.7,104.1L123.7,104.1z"/>
						<path class="st3" d="M111.6,103.1c-0.7,0.5-1.4,1.2-2.2,1.3c-1.2,0.2-2-0.7-1.7-1.8c0.2-0.7,1.1-1.6,1.7-1.7
							c0.7-0.1,1.5,0.8,2.2,1.3C111.6,102.5,111.6,102.8,111.6,103.1L111.6,103.1z"/>
						<path class="st3" d="M132,103c-0.7,0.5-1.4,1.2-2.2,1.3c-1.1,0.1-2-0.8-1.7-1.9c0.2-0.7,1.1-1.6,1.7-1.6
							c0.7,0,1.4,0.8,2.2,1.3C132,102.4,132,102.7,132,103L132,103z"/>
						<path class="st3" d="M139.8,79c-0.7,0.5-1.5,1.3-2.2,1.3c-0.6,0-1.5-1-1.7-1.7c-0.3-1.1,0.6-2,1.7-1.8
							c0.8,0.1,1.5,0.9,2.2,1.4C139.8,78.4,139.8,78.7,139.8,79L139.8,79z"/>
						<path class="st3" d="M89.2,105.1c-0.4-0.7-1.3-1.5-1.2-2.2c0-0.6,1-1.5,1.7-1.7c1.1-0.3,2,0.6,1.8,1.7
							c-0.1,0.8-0.9,1.4-1.4,2.2C89.8,105.1,89.5,105.1,89.2,105.1L89.2,105.1z"/>
						<path class="st3" d="M80.1,97.4c-0.7,0.5-1.5,1.4-2.1,1.4c-0.7-0.1-1.7-1-1.8-1.8c-0.1-0.5,1-1.6,1.6-1.7
							c0.7-0.1,1.5,0.8,2.2,1.2C80.1,96.8,80.1,97.1,80.1,97.4z"/>
						<path class="st3" d="M104.3,97.8c-0.3,0.1-0.7,0.3-1,0.3c-0.7-0.2-1.7-0.3-2-0.8c-0.3-0.5-0.3-1.7,0.1-2.1
							c0.4-0.4,1.5-0.7,2.1-0.4c0.5,0.2,0.8,1.2,1.1,1.9C104.6,97,104.3,97.4,104.3,97.8L104.3,97.8L104.3,97.8z"/>
						<path class="st3" d="M39.5,105.1c0.1-0.4,0.1-0.8,0.3-1.2c0.5-1.1,1.4-1.6,2.5-1c1.2,0.5,1.3,1.6,0.8,2.6
							c-0.6,1.1-1.7,1.2-2.7,0.5C40.1,105.7,39.8,105.3,39.5,105.1L39.5,105.1L39.5,105.1z"/>
						<path class="st3" d="M104.9,77.5c-0.7,0.5-1.5,1.3-2.2,1.3c-0.6,0-1.6-0.9-1.8-1.6c-0.3-1.1,0.5-2,1.7-1.9
							c0.8,0.1,1.5,0.9,2.2,1.3C104.9,76.9,104.9,77.2,104.9,77.5L104.9,77.5z"/>
						<path class="st3" d="M103.1,108.4c-0.5-0.7-1.2-1.4-1.3-2.2c-0.1-1.1,0.8-2,1.9-1.7c0.7,0.2,1.6,1.1,1.6,1.8
							c0,0.7-0.8,1.4-1.3,2.2C103.7,108.5,103.4,108.5,103.1,108.4z"/>
						<path class="st3" d="M49.6,107.2c-0.7,0.4-1.5,1.3-2.2,1.2c-0.6-0.1-1.5-1-1.7-1.7c-0.2-1.1,0.7-2,1.8-1.8
							c0.8,0.1,1.4,0.9,2.1,1.4C49.6,106.6,49.6,106.9,49.6,107.2z"/>
						<path class="st3" d="M64,261.3c-0.7,0.5-1.4,1.5-2.1,1.4c-0.7,0-1.8-1.1-1.8-1.7c0-0.6,1-1.7,1.7-1.8c0.7-0.1,1.5,0.8,2.2,1.3
							C63.9,260.8,63.9,261.1,64,261.3L64,261.3z"/>
						<path class="st3" d="M15.6,105.3c0.4,0.7,1.3,1.5,1.2,2.2c-0.1,0.6-1,1.5-1.7,1.7c-1.1,0.2-2-0.7-1.8-1.8
							c0.1-0.8,0.9-1.4,1.4-2.1L15.6,105.3L15.6,105.3z"/>
						<path class="st3" d="M25.4,109.9c-0.5-0.7-1.2-1.4-1.3-2.2c-0.1-1.2,0.8-2,1.9-1.7c0.7,0.2,1.6,1.1,1.6,1.8
							c0,0.7-0.8,1.4-1.3,2.2C26.1,110,25.8,110,25.4,109.9L25.4,109.9z"/>
						<path class="st3" d="M86.1,105.7c0.5,0.7,1.2,1.4,1.4,2.2c0.2,1.1-0.7,2-1.8,1.7c-0.7-0.2-1.6-1.1-1.7-1.7
							c-0.1-0.7,0.8-1.5,1.2-2.2C85.5,105.7,85.8,105.7,86.1,105.7L86.1,105.7z"/>
						<path class="st3" d="M94.4,77.9c-0.4-0.8-1.3-1.5-1.2-2.2c0.1-0.6,1-1.5,1.7-1.7c1.1-0.2,2,0.6,1.8,1.8
							c-0.1,0.8-0.9,1.4-1.4,2.2C95,77.9,94.7,77.9,94.4,77.9L94.4,77.9z"/>
						<path class="st3" d="M112.3,111c-0.7,0.4-1.4,1.2-2.2,1.3c-1.2,0.2-1.9-0.8-1.7-1.9c0.2-0.7,1.1-1.6,1.8-1.6
							c0.7,0,1.4,0.9,2.2,1.3L112.3,111L112.3,111z"/>
						<path class="st3" d="M129.9,112.8c-0.7,0.5-1.5,1.3-2.2,1.3c-0.6-0.1-1.6-1-1.8-1.6c-0.3-1.1,0.6-2,1.7-1.9
							c0.8,0.1,1.5,0.9,2.2,1.3C129.9,112.2,129.9,112.5,129.9,112.8z"/>
						<path class="st3" d="M108.6,113.2c-0.7,0.5-1.5,1.3-2.2,1.3c-0.6,0-1.6-1-1.7-1.6c-0.3-1.1,0.6-2,1.7-1.9
							c0.8,0.1,1.5,0.9,2.2,1.3C108.6,112.6,108.6,112.9,108.6,113.2L108.6,113.2z"/>
						<path class="st3" d="M50.5,111c0.5,0.7,1.4,1.5,1.3,2.2c-0.1,0.7-1.1,1.6-1.8,1.8c-1.1,0.2-2-0.7-1.7-1.8
							c0.2-0.8,0.9-1.4,1.4-2.1C49.9,111,50.2,111,50.5,111L50.5,111z"/>
						<path class="st3" d="M113.1,94.5c-0.7,0.5-1.5,1.3-2.2,1.2c-0.7-0.1-1.6-1.1-1.7-1.8c-0.2-1.1,0.7-1.9,1.8-1.7
							c0.8,0.2,1.4,0.9,2.1,1.4C113.1,93.9,113.1,94.2,113.1,94.5z"/>
						<path class="st3" d="M90.1,93.4c-0.4,1.6-1.1,2.4-2.2,2.1c-0.7-0.2-1.8-1.2-1.7-1.7c0.2-0.7,1.1-1.7,1.8-1.8
							C88.7,92,89.4,92.9,90.1,93.4z"/>
						<path class="st3" d="M57.7,112.5c0.5,0.7,1.5,1.4,1.4,2.1c0,0.7-1.1,1.3-1.7,2c-0.6-0.6-1.7-1.1-1.8-1.8
							c-0.1-0.7,0.8-1.5,1.2-2.2C57.1,112.6,57.4,112.5,57.7,112.5L57.7,112.5z"/>
						<path class="st3" d="M108.9,72.8c0.7-0.5,1.4-1.5,2.1-1.4c0.7,0,1.8,1.1,1.8,1.7c0,0.6-1,1.7-1.6,1.8
							c-0.7,0.1-1.5-0.8-2.2-1.3C108.9,73.3,108.9,73,108.9,72.8L108.9,72.8z"/>
						<path class="st3" d="M44.9,91.2c0.5,0.7,1.3,1.4,1.3,2.1c0,0.6-0.9,1.6-1.6,1.8c-1.1,0.3-2-0.5-1.9-1.6
							c0.1-0.8,0.8-1.5,1.3-2.2C44.3,91.2,44.6,91.2,44.9,91.2L44.9,91.2z"/>
						<path class="st3" d="M20.3,119.5c-0.5-0.7-1.4-1.4-1.4-2.1c0-0.6,0.9-1.6,1.6-1.8c1.1-0.3,2,0.4,1.9,1.6
							c-0.1,0.8-0.8,1.5-1.2,2.3C20.9,119.5,20.6,119.5,20.3,119.5L20.3,119.5z"/>
						<path class="st3" d="M62.1,118.8c-0.8,0.4-1.5,1.2-2.2,1.2c-0.6-0.1-1.5-1-1.6-1.7c-0.2-1.1,0.7-2,1.8-1.8
							c0.8,0.1,1.4,0.9,2.1,1.5C62.2,118.3,62.1,118.5,62.1,118.8L62.1,118.8z"/>
						<path class="st3" d="M117.8,116.1c0.4,0.8,1.2,1.5,1.2,2.2c-0.1,0.6-1,1.5-1.7,1.7c-1.1,0.2-2-0.7-1.8-1.8
							c0.2-0.8,0.9-1.4,1.4-2.1C117.2,116,117.5,116.1,117.8,116.1z"/>
						<path class="st3" d="M126.4,228c-0.4-0.7-1.3-1.5-1.2-2.2c0.1-0.6,1-1.5,1.7-1.7c1.1-0.3,2,0.6,1.8,1.7
							c-0.1,0.8-0.9,1.4-1.4,2.2C127,228.1,126.7,228,126.4,228L126.4,228z"/>
						<path class="st3" d="M66.2,120.8c-0.5-0.7-1.3-1.4-1.3-2.1c0-0.6,1.1-1.8,1.6-1.7c0.7,0.1,1.8,1,1.9,1.7
							c0.1,0.6-0.8,1.4-1.2,2.2C66.9,120.8,66.5,120.8,66.2,120.8L66.2,120.8z"/>
						<path class="st3" d="M87.5,119.1c-0.7,0.5-1.5,1.3-2.2,1.3c-0.6,0-1.8-1.1-1.7-1.6c0.1-0.7,1-1.8,1.7-1.9
							c0.6-0.1,1.4,0.8,2.2,1.3C87.5,118.5,87.5,118.8,87.5,119.1L87.5,119.1z"/>
						<path class="st3" d="M123.9,116.6c0.5,0.7,1.4,1.4,1.4,2.1c-0.1,0.7-1.1,1.3-1.6,2c-0.6-0.6-1.7-1.1-1.8-1.8
							c-0.1-0.6,0.8-1.5,1.2-2.2L123.9,116.6L123.9,116.6z"/>
						<path class="st3" d="M134.1,121.3c-0.4-0.7-1.3-1.6-1.2-2.2c0.1-0.7,1.2-1.2,1.8-1.8c0.6,0.7,1.6,1.3,1.6,2
							c0,0.7-0.9,1.4-1.4,2.1C134.6,121.3,134.3,121.3,134.1,121.3L134.1,121.3z"/>
						<path class="st3" d="M98.1,215.2c-0.7,0.5-1.4,1.2-2.2,1.3c-1.2,0.1-1.9-0.8-1.7-1.9c0.2-0.7,1.1-1.6,1.7-1.6
							c0.7,0,1.4,0.8,2.2,1.3C98.1,214.6,98.1,214.9,98.1,215.2L98.1,215.2z"/>
						<path class="st3" d="M37.6,118.8c0.5,0.7,1.3,1.5,1.3,2.2c0,0.6-1,1.5-1.7,1.7c-1.1,0.2-2-0.6-1.8-1.7
							c0.1-0.8,0.9-1.5,1.4-2.2C37,118.8,37.3,118.8,37.6,118.8z"/>
						<path class="st3" d="M131.2,210.1c-0.7,0.5-1.5,1.4-2.1,1.4c-0.7-0.1-1.8-1.1-1.8-1.7c0-0.6,1-1.7,1.7-1.8
							c0.6-0.1,1.4,0.8,2.2,1.3C131.2,209.6,131.2,209.8,131.2,210.1L131.2,210.1z"/>
						<path class="st3" d="M21.9,205.3c0.5,0.7,1.3,1.5,1.3,2.2c0,0.6-1,1.5-1.7,1.7c-1.1,0.3-2-0.6-1.8-1.7
							c0.1-0.8,0.9-1.5,1.4-2.2C21.3,205.3,21.6,205.3,21.9,205.3L21.9,205.3z"/>
						<path class="st3" d="M28.4,90.7c-0.7,0.5-1.4,1.4-2.1,1.3c-0.6,0-1.6-0.9-1.8-1.6c-0.3-1.1,0.5-2,1.6-1.9
							c0.8,0.1,1.5,0.8,2.2,1.3C28.3,90.1,28.4,90.4,28.4,90.7L28.4,90.7z"/>
						<path class="st3" d="M43.3,70c-0.7,0.5-1.5,1.4-2.2,1.3c-0.7-0.1-1.6-1.2-1.7-1.9c-0.1-0.5,1.1-1.5,1.7-1.6
							c0.7,0,1.4,0.8,2.2,1.3C43.4,69.4,43.3,69.7,43.3,70L43.3,70z"/>
						<path class="st3" d="M96.4,204.3c-0.8,0.4-1.5,1.2-2.2,1.1c-0.6-0.1-1.5-1-1.6-1.7c-0.2-1.1,0.7-2,1.8-1.8
							c0.8,0.1,1.4,0.9,2.1,1.4C96.4,203.7,96.4,204,96.4,204.3L96.4,204.3z"/>
						<path class="st3" d="M33.3,199.4c0.5,0.7,1.3,1.5,1.3,2.2c0,0.6-1,1.6-1.6,1.7c-1.1,0.3-2-0.5-1.9-1.7
							c0.1-0.8,0.9-1.5,1.3-2.2C32.8,199.4,33.1,199.4,33.3,199.4L33.3,199.4z"/>
						<path class="st3" d="M138.3,125.1c-0.7,0.5-1.5,1.4-2.1,1.4c-0.7-0.1-1.7-1.1-1.7-1.7c0-0.6,1-1.7,1.7-1.8
							c0.6-0.1,1.4,0.8,2.1,1.3C138.3,124.6,138.3,124.8,138.3,125.1L138.3,125.1z"/>
						<path class="st3" d="M128.8,201.6c-0.5-0.7-1.2-1.4-1.3-2.2c-0.1-1.1,0.8-2,1.9-1.7c0.7,0.2,1.6,1.1,1.6,1.7
							c0,0.7-0.8,1.4-1.3,2.2C129.4,201.6,129.1,201.6,128.8,201.6z"/>
						<path class="st3" d="M126,199.7c-0.8,0.4-1.5,1.2-2.3,1.2c-1.2,0.1-1.9-0.8-1.6-1.9c0.2-0.7,1.2-1.6,1.8-1.6
							c0.7,0,1.4,0.9,2.1,1.4C126,199.1,126,199.4,126,199.7z"/>
						<path class="st3" d="M58.6,197.9c-0.7,0.5-1.5,1.4-2.2,1.3c-0.7-0.1-1.2-1.1-1.8-1.8c0.6-0.6,1.2-1.7,1.9-1.7
							c0.6-0.1,1.4,0.9,2.1,1.4C58.6,197.4,58.6,197.7,58.6,197.9L58.6,197.9z"/>
						<path class="st3" d="M121.7,85.1c-0.7,0.4-1.6,1.3-2.2,1.2c-0.7-0.1-1.7-1.2-1.7-1.8c0-0.6,1.1-1.6,1.8-1.7
							c0.6-0.1,1.4,0.9,2.1,1.4C121.8,84.5,121.7,84.8,121.7,85.1L121.7,85.1z"/>
						<path class="st3" d="M50.2,68.8c-0.7,0.5-1.5,1.4-2.1,1.3c-0.7-0.1-1.6-1-1.8-1.8c-0.2-1.1,0.6-1.9,1.8-1.8
							c0.8,0.1,1.5,0.9,2.2,1.4C50.2,68.2,50.2,68.5,50.2,68.8z"/>
						<path class="st3" d="M73.4,92.1c-0.5-0.7-1.4-1.4-1.4-2.1c0-0.6,0.9-1.6,1.6-1.8c1.1-0.3,2,0.5,1.9,1.6
							c-0.1,0.8-0.8,1.5-1.3,2.3C74,92.1,73.7,92.1,73.4,92.1z"/>
						<path class="st3" d="M22.7,90.6c-0.8,0.4-1.5,1.3-2.2,1.2c-0.6-0.1-1.5-1-1.7-1.7c-0.2-1.1,0.6-2,1.8-1.8
							c0.8,0.1,1.5,0.9,2.2,1.4C22.7,90,22.7,90.3,22.7,90.6L22.7,90.6z"/>
						<path class="st3" d="M76.1,126.1c0.5,0.7,1.3,1.5,1.3,2.2c-0.1,0.6-1,1.6-1.7,1.7c-1.1,0.3-2-0.6-1.8-1.7
							c0.1-0.8,0.9-1.4,1.3-2.2C75.5,126.1,75.8,126.1,76.1,126.1L76.1,126.1z"/>
						<path class="st3" d="M133.9,128.7c-0.7,0.5-1.5,1.3-2.2,1.3c-0.6,0-1.6-0.9-1.7-1.6c-0.3-1.1,0.6-2,1.7-1.9
							c0.8,0.1,1.5,0.9,2.2,1.3C133.9,128.1,133.9,128.4,133.9,128.7L133.9,128.7z"/>
						<path class="st3" d="M16.2,189.5c-0.7,0.5-1.4,1.2-2.2,1.3c-1.1,0.2-2-0.7-1.7-1.8c0.2-0.7,1-1.5,1.7-1.7
							C15.1,187.1,15.8,187.9,16.2,189.5L16.2,189.5z"/>
						<path class="st3" d="M45.4,86.7c0.4,0.8,1.2,1.5,1.2,2.2c-0.1,0.6-1,1.6-1.7,1.7c-1.1,0.2-2-0.7-1.8-1.8
							c0.1-0.8,0.9-1.4,1.4-2.1C44.8,86.6,45.1,86.6,45.4,86.7L45.4,86.7z"/>
						<path class="st3" d="M37.3,185.9c0.4,0.8,1.2,1.5,1.2,2.2c-0.1,0.6-1,1.5-1.7,1.6c-1.1,0.2-2-0.7-1.8-1.8
							c0.1-0.8,0.9-1.4,1.5-2.1C36.7,185.9,37,185.9,37.3,185.9L37.3,185.9z"/>
						<path class="st3" d="M114.9,131.1c-0.5-0.7-1.3-1.5-1.3-2.2c0-0.6,0.9-1.6,1.6-1.7c1.1-0.3,2,0.6,1.9,1.7
							c-0.1,0.8-0.9,1.5-1.3,2.2C115.5,131.1,115.2,131.1,114.9,131.1L114.9,131.1z"/>
						<path class="st3" d="M45.3,183.2c0.5,0.7,1.3,1.5,1.2,2.2c-0.1,0.6-1,1.6-1.7,1.7c-1.1,0.2-2-0.6-1.8-1.8
							c0.1-0.8,0.9-1.4,1.3-2.2L45.3,183.2L45.3,183.2z"/>
						<path class="st3" d="M87.8,183.2c-0.5-0.7-1.3-1.4-1.3-2.1c0-0.6,0.9-1.6,1.6-1.8c1.1-0.3,2,0.6,1.9,1.7
							c-0.1,0.8-0.8,1.5-1.3,2.2C88.4,183.2,88.1,183.2,87.8,183.2z"/>
						<path class="st3" d="M21.1,178.5c0.5,0.7,1.2,1.5,1.3,2.2c0.1,1.1-0.8,2-1.9,1.6c-0.7-0.2-1.6-1.1-1.6-1.8
							c0-0.7,0.9-1.4,1.3-2.1C20.5,178.5,20.8,178.5,21.1,178.5L21.1,178.5z"/>
						<path class="st3" d="M131.2,65.2c-0.7,0.4-1.5,1.3-2.2,1.2c-0.6,0-1.5-1-1.7-1.7c-0.3-1.1,0.6-2,1.7-1.8
							c0.8,0.1,1.4,0.9,2.2,1.4C131.2,64.6,131.2,64.9,131.2,65.2L131.2,65.2z"/>
						<path class="st3" d="M113.4,179.1c-0.4-0.7-1.2-1.4-1.3-2.2c-0.2-1.1,0.8-2,1.8-1.7c0.7,0.2,1.6,1.1,1.7,1.7
							c0,0.7-0.8,1.4-1.3,2.2C114,179.1,113.7,179.1,113.4,179.1L113.4,179.1z"/>
						<path class="st3" d="M94.3,178.1c-0.4-0.7-1.3-1.6-1.2-2.2c0.1-0.7,1.2-1.2,1.8-1.8c0.6,0.7,1.6,1.3,1.7,2
							c0.1,0.6-0.9,1.4-1.5,2.1C94.9,178.1,94.6,178.1,94.3,178.1L94.3,178.1z"/>
						<path class="st3" d="M100.4,62.1c0.5,0.7,1.5,1.5,1.4,2.1c-0.1,0.7-1,1.6-1.8,1.8c-0.4,0.1-1.6-1-1.7-1.6
							c-0.1-0.7,0.7-1.5,1.1-2.2C99.8,62.2,100.1,62.1,100.4,62.1z"/>
						<path class="st3" d="M57.3,175.8c-0.5-0.7-1.3-1.5-1.2-2.2c0-0.6,1.1-1.8,1.6-1.7c0.7,0.1,1.7,1,1.9,1.7
							c0.1,0.6-0.8,1.4-1.3,2.1C57.9,175.8,57.6,175.8,57.3,175.8L57.3,175.8z"/>
						<path class="st3" d="M117.6,134.4c-0.7,0.5-1.4,1.5-2.1,1.4c-0.7-0.1-1.7-1-1.9-1.7c-0.3-1.1,0.5-2,1.7-1.8
							c0.8,0.1,1.5,0.8,2.2,1.2C117.6,133.9,117.6,134.2,117.6,134.4L117.6,134.4z"/>
						<path class="st3" d="M132.5,132.4c0.5,0.7,1.3,1.4,1.4,2.1c0.2,1.1-0.7,2-1.8,1.8c-0.7-0.1-1.7-1-1.7-1.6
							c-0.1-0.7,0.8-1.5,1.2-2.2C131.9,132.4,132.2,132.4,132.5,132.4L132.5,132.4z"/>
						<path class="st3" d="M86.4,85.7c0.5,0.7,1.3,1.4,1.4,2.2c0.2,1.1-0.8,2-1.8,1.7c-0.7-0.2-1.6-1.1-1.7-1.7
							c0-0.7,0.8-1.5,1.3-2.2C85.8,85.7,86.1,85.7,86.4,85.7L86.4,85.7z"/>
						<path class="st3" d="M11.3,136.6c-0.8,0.4-1.6,1.3-2.2,1.2c-0.7-0.1-1.5-1.2-1.6-1.9c-0.1-0.5,1.1-1.5,1.8-1.5
							c0.7,0,1.4,0.9,2.1,1.4C11.4,136,11.4,136.3,11.3,136.6L11.3,136.6z"/>
						<path class="st3" d="M38.4,168.9c-0.5-0.7-1.3-1.5-1.3-2.2c0-0.6,0.9-1.6,1.6-1.7c1.1-0.3,2,0.6,1.9,1.7
							c-0.1,0.8-0.9,1.5-1.3,2.2C39,168.9,38.7,168.9,38.4,168.9L38.4,168.9z"/>
						<path class="st3" d="M113.5,166.6c-0.7,0.5-1.5,1.3-2.2,1.3c-0.6,0-1.6-0.9-1.8-1.6c-0.3-1.1,0.6-2,1.7-1.9
							c0.8,0.1,1.5,0.8,2.2,1.3C113.5,166,113.5,166.3,113.5,166.6L113.5,166.6z"/>
						<path class="st3" d="M30.6,164c0.5,0.7,1.4,1.4,1.4,2.1c0,0.6-0.9,1.6-1.6,1.8c-1.1,0.3-2-0.4-1.9-1.6
							c0.1-0.8,0.8-1.5,1.2-2.3C30,164.1,30.3,164,30.6,164L30.6,164z"/>
						<path class="st3" d="M11.3,64.5c-0.7,0.5-1.4,1.2-2.2,1.3c-1.2,0.2-2-0.7-1.7-1.8c0.2-0.7,1.1-1.6,1.7-1.7
							c0.7,0,1.5,0.8,2.2,1.3C11.3,63.9,11.3,64.2,11.3,64.5z"/>
						<path class="st3" d="M103,163.5c0.5,0.7,1.4,1.5,1.3,2.1c-0.1,0.7-1.1,1.6-1.8,1.8c-0.5,0.1-1.6-1-1.7-1.7
							c-0.1-0.7,0.8-1.5,1.3-2.2C102.4,163.5,102.7,163.5,103,163.5z"/>
						<path class="st3" d="M14.7,84.1c0.5,0.7,1.4,1.5,1.4,2.1c-0.1,0.7-1.1,1.6-1.8,1.8c-0.5,0.1-1.6-1-1.7-1.6
							c-0.1-0.7,0.7-1.5,1.2-2.2C14.1,84.1,14.4,84.1,14.7,84.1z"/>
						<path class="st3" d="M18.9,140.5c-0.5-0.7-1.4-1.4-1.4-2.1c0-0.6,0.9-1.6,1.6-1.8c1.1-0.3,2,0.5,1.9,1.6
							c-0.1,0.8-0.8,1.5-1.2,2.3C19.5,140.4,19.2,140.5,18.9,140.5L18.9,140.5z"/>
						<path class="st3" d="M41.8,159.9c0.5,0.7,1.3,1.4,1.4,2.1c0.2,1.1-0.7,2-1.8,1.8c-0.7-0.1-1.6-1-1.7-1.7
							c-0.1-0.7,0.8-1.5,1.2-2.2C41.2,159.9,41.5,159.9,41.8,159.9L41.8,159.9z"/>
						<path class="st3" d="M35.7,139.7c-0.7,0.5-1.5,1.4-2.2,1.3c-0.7-0.1-1.2-1.2-1.8-1.8c0.6-0.6,1.3-1.6,1.9-1.7
							c0.7-0.1,1.4,0.9,2.1,1.4C35.7,139.2,35.7,139.5,35.7,139.7L35.7,139.7z"/>
						<path class="st3" d="M99.4,161.2c-0.7,0.5-1.5,1.5-2.1,1.4c-0.7-0.1-1.6-1-1.8-1.8c-0.1-0.4,1-1.6,1.6-1.7
							c0.7-0.1,1.5,0.7,2.2,1.1C99.4,160.6,99.4,160.9,99.4,161.2z"/>
						<path class="st3" d="M60.9,87.2c-0.7,0.5-1.5,1.5-2.1,1.4c-0.7-0.1-1.6-1.1-1.8-1.8c-0.1-0.4,1-1.6,1.7-1.7
							c0.7-0.1,1.5,0.8,2.2,1.2L60.9,87.2L60.9,87.2z"/>
						<path class="st3" d="M61.5,139.9c-0.7,0.4-1.5,1.2-2.2,1.3c-1.2,0.1-2-0.8-1.7-1.9c0.2-0.7,1.1-1.6,1.8-1.6
							c0.7,0,1.4,0.8,2.1,1.3C61.5,139.3,61.5,139.6,61.5,139.9L61.5,139.9z"/>
						<path class="st3" d="M137.3,161c-0.7,0.5-1.4,1.2-2.2,1.3c-1.1,0.1-2-0.8-1.7-1.9c0.2-0.7,1.1-1.6,1.8-1.6
							c0.7,0,1.4,0.8,2.1,1.3C137.3,160.4,137.3,160.7,137.3,161z"/>
						<path class="st3" d="M65.5,160.5c-0.7,0.5-1.4,1.3-2.2,1.4c-1.1,0.2-2-0.7-1.7-1.8c0.2-0.7,1-1.6,1.7-1.7
							c0.7-0.1,1.5,0.8,2.2,1.2C65.5,159.9,65.5,160.2,65.5,160.5L65.5,160.5z"/>
						<path class="st3" d="M120.3,138c0.5,0.7,1.2,1.4,1.3,2.2c0.2,1.2-0.8,2-1.8,1.7c-0.7-0.2-1.6-1.1-1.7-1.7
							c0-0.7,0.8-1.4,1.3-2.2C119.7,138,120,138,120.3,138z"/>
						<path class="st3" d="M28.7,160.1c-0.7,0.5-1.4,1.3-2.2,1.4c-1.1,0.2-2-0.7-1.8-1.8c0.1-0.7,1-1.6,1.7-1.7
							c0.7-0.1,1.5,0.8,2.2,1.2C28.7,159.6,28.7,159.8,28.7,160.1L28.7,160.1z"/>
						<path class="st3" d="M10.4,156.7c0.4,0.8,1.2,1.5,1.3,2.2c0.1,1.1-0.8,1.9-1.9,1.6c-0.7-0.2-1.6-1.1-1.6-1.8
							c0-0.7,0.9-1.4,1.4-2.1C9.8,156.7,10.1,156.7,10.4,156.7L10.4,156.7z"/>
						<path class="st3" d="M58.9,157.9c-0.7,0.4-1.5,1.2-2.2,1.2c-0.6-0.1-1.8-1.2-1.7-1.6c0.2-0.7,1-1.7,1.8-1.8
							c0.6-0.1,1.4,0.9,2.1,1.4C58.9,157.2,58.9,157.6,58.9,157.9L58.9,157.9z"/>
						<path class="st3" d="M41,156.5c-0.7,0.5-1.4,1.2-2.2,1.3c-1.1,0.1-2-0.8-1.7-1.9c0.2-0.7,1.1-1.6,1.8-1.6
							c0.7,0,1.4,0.8,2.2,1.3C41,155.9,41,156.2,41,156.5L41,156.5z"/>
						<path class="st3" d="M110.6,150.6c0.5,0.7,1.2,1.4,1.4,2.2c0.2,1.1-0.7,2-1.8,1.8c-0.7-0.1-1.6-1.1-1.7-1.7
							c-0.1-0.7,0.8-1.5,1.2-2.2C110,150.6,110.3,150.6,110.6,150.6L110.6,150.6z"/>
						<path class="st3" d="M46.9,153.8c-0.5-0.7-1.3-1.5-1.2-2.2c0-0.6,1.1-1.8,1.6-1.7c0.7,0.1,1.7,1,1.8,1.7
							c0.1,0.6-0.8,1.4-1.3,2.1C47.5,153.8,47.2,153.8,46.9,153.8z"/>
						<path class="st3" d="M28.1,151.4c-0.7,0.4-1.6,1.4-2.2,1.2c-0.7-0.1-1.6-1.2-1.7-1.9c-0.1-0.5,1.1-1.5,1.8-1.6
							c0.7,0,1.4,0.8,2.1,1.3C28.1,150.8,28.1,151.1,28.1,151.4L28.1,151.4z"/>
						<path class="st3" d="M123.7,147.7c0.5,0.7,1.3,1.5,1.3,2.2c0,0.6-0.9,1.6-1.6,1.7c-1.1,0.3-2-0.5-1.9-1.7
							c0.1-0.8,0.9-1.5,1.3-2.2C123.1,147.7,123.4,147.7,123.7,147.7L123.7,147.7z"/>
						<path class="st3" d="M137.5,148.4c-0.7,0.5-1.4,1.3-2.2,1.3c-0.6,0-1.6-0.9-1.8-1.6c-0.3-1.1,0.6-2,1.7-1.9
							c0.8,0.1,1.5,0.9,2.2,1.3L137.5,148.4L137.5,148.4z"/>
						<path class="st3" d="M74.2,145.8c-0.7,0.5-1.4,1.3-2.1,1.3c-0.7,0-1.8-1.1-1.7-1.6c0.1-0.7,1-1.8,1.7-1.9
							c0.6-0.1,1.4,0.8,2.2,1.2C74.1,145.2,74.1,145.5,74.2,145.8L74.2,145.8z"/>
						<path class="st3" d="M143.9,84.3c-0.7,0.5-1.5,1.4-2.1,1.3c-0.7-0.1-1.3-1.1-1.9-1.7c0.6-0.6,1.2-1.7,1.9-1.7
							c0.6-0.1,1.4,0.9,2.1,1.3C143.9,83.7,143.9,84,143.9,84.3L143.9,84.3z"/>
						<path class="st3" d="M120.1,58.9c0.5,0.7,1.3,1.5,1.3,2.2c0,0.6-0.9,1.6-1.6,1.8c-1.1,0.3-2-0.6-1.9-1.7
							c0.1-0.8,0.9-1.5,1.3-2.2L120.1,58.9L120.1,58.9z"/>
						<path class="st3" d="M77.4,62.8c0.2-0.1,0.3-0.2,0.5-0.3c0.1,0,0.1,0,0.2,0c0.4-0.3,0.6-0.8,0.5-1.4c-0.1-0.8-0.9-1.5-1.3-2.2
							c-0.3,0-0.6,0-0.9,0c-0.5,0.7-1.3,1.5-1.3,2.2c0,0.6,1,1.5,1.7,1.7C77,62.9,77.2,62.9,77.4,62.8z"/>
						<path class="st3" d="M108.2,148.6c-0.8,0.4-1.5,1.2-2.2,1.2c-0.6-0.1-1.5-1-1.7-1.7c-0.2-1.1,0.7-2,1.8-1.8
							c0.8,0.1,1.4,0.9,2.2,1.4C108.2,148,108.2,148.3,108.2,148.6L108.2,148.6z"/>
						<path class="st3" d="M41.1,150.5c-0.5-0.7-1.4-1.5-1.3-2.1c0.1-0.7,1.1-1.6,1.8-1.8c0.5-0.1,1.6,1,1.7,1.7
							c0.1,0.7-0.8,1.5-1.2,2.2C41.8,150.5,41.4,150.5,41.1,150.5L41.1,150.5z"/>
						<path class="st3" d="M131.7,148.9c-0.7,0.5-1.5,1.4-2.1,1.3c-0.7-0.1-1.3-1.1-1.9-1.8c0.6-0.6,1.2-1.6,1.9-1.7
							c0.6-0.1,1.4,0.8,2.1,1.3V148.9z"/>
						<path class="st3" d="M96.8,88.1c-0.3,0.1-0.7,0.3-0.9,0.3c-0.7-0.3-1.7-0.5-2.1-1.1c-0.3-0.5,0-1.7,0.5-2.1
							c0.5-0.4,1.7-0.4,2.1-0.1c0.5,0.4,0.5,1.4,0.6,2.2C97.2,87.6,96.9,87.9,96.8,88.1L96.8,88.1L96.8,88.1z"/>
						<path class="st3" d="M56.2,150.8c-0.5-0.7-1.3-1.5-1.3-2.2c0-0.6,0.9-1.6,1.6-1.7c1.1-0.3,2,0.6,1.9,1.7
							c-0.1,0.8-0.9,1.5-1.3,2.2C56.8,150.8,56.5,150.8,56.2,150.8L56.2,150.8z"/>
						<path class="st3" d="M65.9,149.6c-0.7,0.4-1.5,1.3-2.2,1.2c-0.6-0.1-1.8-1.2-1.7-1.6c0.1-0.7,1-1.7,1.7-1.8
							c0.6-0.1,1.4,0.8,2.1,1.3C66,149,66,149.3,65.9,149.6L65.9,149.6z"/>
						<path class="st3" d="M115.4,146.9c-0.4-0.7-1.4-1.6-1.2-2.2c0.1-0.7,1.2-1.6,1.9-1.7c0.5-0.1,1.5,1.1,1.6,1.7
							c0,0.7-0.9,1.4-1.3,2.1C116,146.9,115.7,146.9,115.4,146.9L115.4,146.9z"/>
						<path class="st3" d="M103.8,87.3c-0.7,0.5-1.4,1.3-2.2,1.4c-1.1,0.1-2-0.7-1.7-1.9c0.2-0.7,1.1-1.6,1.7-1.6
							c0.7,0,1.5,0.8,2.2,1.3C103.8,86.8,103.8,87,103.8,87.3z"/>
						<path class="st3" d="M29.5,88.2c-0.5-0.7-1.3-1.5-1.2-2.2c0-0.6,1-1.6,1.7-1.7c1.1-0.2,2,0.6,1.8,1.8
							c-0.1,0.8-0.9,1.4-1.4,2.2C30,88.3,29.8,88.2,29.5,88.2L29.5,88.2z"/>
						<path class="st3" d="M91.2,153.2c-0.4-0.7-1.3-1.5-1.2-2.2c0.1-0.7,1.2-1.2,1.8-1.8c0.6,0.6,1.6,1.2,1.7,1.9
							c0.1,0.6-0.9,1.4-1.4,2.1C91.7,153.2,91.4,153.2,91.2,153.2L91.2,153.2z"/>
						<path class="st3" d="M114.4,89.7c-0.5-0.7-1.5-1.4-1.4-2.1c0.1-0.7,1.1-1.3,1.7-2c0.6,0.6,1.7,1.1,1.8,1.8
							c0.1,0.6-0.8,1.5-1.2,2.2C115,89.7,114.7,89.7,114.4,89.7z"/>
						<path class="st3" d="M96.4,143.4c-0.7,0.5-1.4,1.3-2.2,1.4c-1.1,0.2-2-0.7-1.8-1.8c0.2-0.7,1.1-1.6,1.7-1.7
							c0.7-0.1,1.5,0.8,2.2,1.2C96.3,142.8,96.3,143.1,96.4,143.4L96.4,143.4z"/>
						<path class="st3" d="M58.5,143.7c-0.7,0.5-1.5,1.3-2.2,1.3c-0.6,0-1.5-1-1.7-1.7c-0.3-1.1,0.6-2,1.7-1.9
							c0.8,0.1,1.5,0.9,2.2,1.4C58.5,143.1,58.5,143.4,58.5,143.7z"/>
						<path class="st3" d="M75.9,150.6c0.4,0.8,1.1,1.5,1.2,2.2c0.1,1.2-0.8,1.9-1.9,1.6c-0.7-0.2-1.6-1.2-1.6-1.8
							c0-0.7,0.9-1.4,1.4-2.1C75.3,150.6,75.6,150.6,75.9,150.6L75.9,150.6z"/>
						<path class="st3" d="M63.9,153.8c-0.8,0.4-1.5,1.2-2.3,1.2c-0.6-0.1-1.5-1-1.7-1.7c-0.2-1.1,0.7-2,1.8-1.8
							c0.8,0.1,1.4,1,2.2,1.5C63.9,153.2,63.9,153.5,63.9,153.8L63.9,153.8z"/>
						<path class="st3" d="M108.5,85.7c-0.7,0.4-1.4,1.2-2.2,1.2c-1.1,0.1-1.8-0.7-1.7-1.9c0.1-1.2,0.8-1.9,1.9-1.7
							c0.8,0.2,1.4,1,2.1,1.5L108.5,85.7L108.5,85.7z"/>
						<path class="st3" d="M54.3,90.5c-0.4-0.8-1.2-1.5-1.2-2.3c-0.1-1.2,0.8-1.9,1.9-1.6c0.7,0.2,1.6,1.2,1.6,1.8
							c0,0.7-0.9,1.4-1.4,2.1C54.8,90.6,54.6,90.5,54.3,90.5L54.3,90.5z"/>
						<path class="st3" d="M131.2,157.3c-0.5-0.7-1.5-1.4-1.5-2.1c0.1-0.7,1.1-1.3,1.6-2c0.6,0.6,1.7,1.1,1.8,1.8
							c0.1,0.6-0.8,1.5-1.2,2.2C131.8,157.3,131.5,157.3,131.2,157.3L131.2,157.3z"/>
						<path class="st3" d="M25.6,144.2c-0.5-0.7-1.3-1.4-1.4-2.1c-0.2-1.1,0.7-2,1.8-1.8c0.7,0.1,1.6,1.1,1.7,1.7
							c0.1,0.7-0.8,1.5-1.2,2.2C26.3,144.2,26,144.2,25.6,144.2L25.6,144.2z"/>
						<path class="st3" d="M15.1,153.6c0.5,0.7,1.2,1.4,1.4,2.2c0.1,1.1-0.8,2-1.9,1.7c-0.7-0.2-1.6-1.1-1.6-1.7
							c0-0.7,0.8-1.4,1.3-2.2C14.5,153.6,14.8,153.6,15.1,153.6L15.1,153.6z"/>
						<path class="st3" d="M15.4,64.1c-0.5-0.7-1.4-1.4-1.4-2.2c0-0.6,0.9-1.6,1.6-1.8c1.1-0.3,2.1,0.5,1.9,1.7
							c-0.1,0.8-0.8,1.5-1.3,2.2C16,64.1,15.7,64.1,15.4,64.1z"/>
						<path class="st3" d="M116.3,154.5c0.4,0.8,1.2,1.5,1.3,2.3c0.1,1.2-0.8,1.9-1.9,1.6c-0.7-0.2-1.6-1.2-1.6-1.8
							c0-0.7,0.9-1.4,1.4-2.1C115.7,154.4,116,154.4,116.3,154.5L116.3,154.5z"/>
						<path class="st3" d="M138.4,139.5c0.5,0.7,1.4,1.5,1.3,2.2c-0.1,0.7-1.1,1.6-1.9,1.7c-0.5,0.1-1.6-1.1-1.6-1.7
							c0-0.7,0.8-1.4,1.3-2.2C137.8,139.5,138.1,139.5,138.4,139.5L138.4,139.5z"/>
						<path class="st3" d="M84.5,139.1c0.5,0.7,1.4,1.5,1.3,2.1c-0.1,0.7-1.1,1.6-1.8,1.7c-1.1,0.2-1.9-0.7-1.7-1.8
							c0.1-0.8,0.9-1.4,1.4-2.1C83.9,139.1,84.2,139.1,84.5,139.1z"/>
						<path class="st3" d="M68.3,89c-0.7,0.5-1.5,1.4-2.2,1.3c-0.7-0.1-1.2-1.1-1.9-1.8c0.6-0.6,1.2-1.6,1.9-1.7
							c0.7-0.1,1.4,0.9,2.1,1.3C68.3,88.4,68.3,88.7,68.3,89z"/>
						<path class="st3" d="M11.6,89.2c-0.7,0.5-1.5,1.4-2.2,1.3c-0.7-0.1-1.6-1.1-1.7-1.8c-0.1-0.5,1.1-1.6,1.7-1.6
							c0.7,0,1.5,0.8,2.2,1.3C11.6,88.6,11.6,88.9,11.6,89.2L11.6,89.2z"/>
						<path class="st3" d="M50.7,143.1c-0.5-0.7-1.3-1.5-1.2-2.2c0.1-0.6,1-1.6,1.7-1.7c1.1-0.2,2,0.6,1.8,1.8
							c-0.1,0.8-0.9,1.4-1.4,2.1C51.4,143.1,51,143.1,50.7,143.1L50.7,143.1z"/>
						<path class="st3" d="M78.2,156.5c0.5,0.7,1.3,1.4,1.4,2.1c0.2,1.1-0.7,2-1.8,1.8c-0.7-0.1-1.6-1-1.7-1.7
							c-0.1-0.7,0.8-1.5,1.2-2.2C77.6,156.5,77.9,156.5,78.2,156.5L78.2,156.5z"/>
						<path class="st3" d="M110.8,159.3c-0.7,0.5-1.5,1.4-2.2,1.3c-0.7-0.1-1.6-1.1-1.7-1.9c-0.1-0.5,1-1.6,1.7-1.7
							c0.7-0.1,1.5,0.8,2.2,1.3C110.8,158.7,110.8,159,110.8,159.3L110.8,159.3z"/>
						<path class="st3" d="M13.2,141.4c-0.7,0.5-1.4,1.5-2.1,1.4c-0.7-0.1-1.8-1.1-1.8-1.7c0-0.6,1-1.7,1.7-1.8
							c0.6-0.1,1.4,0.8,2.2,1.2C13.2,140.8,13.2,141.1,13.2,141.4L13.2,141.4z"/>
						<path class="st3" d="M44,85.7c-0.7,0.4-1.5,1.3-2.2,1.2c-0.6-0.1-1.5-1-1.7-1.7c-0.3-1.1,0.6-2,1.7-1.8
							c0.8,0.1,1.5,0.9,2.2,1.4C44,85.1,44,85.3,44,85.7L44,85.7z"/>
						<path class="st3" d="M107,140.8c-0.7,0.5-1.5,1.4-2.1,1.4c-0.7-0.1-1.3-1.1-1.9-1.7c0.6-0.6,1.2-1.6,1.9-1.8
							c0.7-0.1,1.4,0.8,2.2,1.3C107,140.3,107,140.6,107,140.8L107,140.8z"/>
						<path class="st3" d="M82.4,61.4c0.7-0.2,1.5-0.4,2.2-0.7c-0.3-0.6-1-1-1.8-0.8c-0.7,0.2-1.5,1.1-1.6,1.7
							C81.7,61.6,82.1,61.5,82.4,61.4z"/>
						<path class="st3" d="M40,91.1c-0.7,0.4-1.5,1.3-2.2,1.2c-0.7-0.1-1.8-1.2-1.7-1.7c0.1-0.7,1.1-1.7,1.8-1.8
							c0.6-0.1,1.4,0.9,2.1,1.4C40,90.5,40,90.8,40,91.1L40,91.1z"/>
						<path class="st3" d="M50.7,160.2c0.5,0.7,1.4,1.5,1.3,2.1c-0.1,0.7-1.1,1.6-1.9,1.7c-0.5,0.1-1.5-1-1.6-1.7
							C48.3,161.3,49.1,160.6,50.7,160.2z"/>
						<path class="st3" d="M22,85.1c-0.7,0.5-1.4,1.3-2.2,1.3c-1.1,0.1-2-0.8-1.7-1.9c0.2-0.7,1.1-1.6,1.7-1.7
							c0.7,0,1.5,0.8,2.2,1.3C22,84.5,22,84.8,22,85.1L22,85.1z"/>
						<path class="st3" d="M22.4,165.7c-0.8,0.4-1.5,1.3-2.2,1.2c-0.6-0.1-1.5-1-1.6-1.7c-0.2-1.1,0.7-2,1.8-1.8
							c0.8,0.1,1.4,0.9,2.1,1.5C22.4,165.1,22.4,165.4,22.4,165.7L22.4,165.7z"/>
						<path class="st3" d="M119.7,91.8c-0.7,0.5-1.4,1.2-2.2,1.3c-1.1,0.1-2-0.8-1.7-1.9c0.2-0.7,1.1-1.6,1.7-1.6
							c0.7,0,1.4,0.8,2.2,1.2C119.7,91.2,119.7,91.5,119.7,91.8z"/>
						<path class="st3" d="M12.4,166.2c-0.8,0.4-1.5,1.3-2.2,1.2c-0.6-0.1-1.5-1.1-1.6-1.8c-0.2-1.1,0.7-2,1.8-1.8
							c0.8,0.1,1.4,0.9,2.1,1.4C12.5,165.6,12.4,165.9,12.4,166.2L12.4,166.2z"/>
						<path class="st3" d="M53.5,92.7c-0.7,0.4-1.5,1.3-2.2,1.2c-0.7-0.1-1.2-1.2-1.8-1.8c0.7-0.6,1.3-1.6,2-1.7
							c0.7-0.1,1.4,0.9,2.1,1.4L53.5,92.7L53.5,92.7z"/>
						<path class="st3" d="M35.8,62.3c0.5,0.7,1.4,1.5,1.3,2.2c-0.1,0.7-1.2,1.7-1.8,1.7c-0.6,0-1.6-1.1-1.7-1.8
							c-0.1-0.7,0.9-1.4,1.4-2.1L35.8,62.3L35.8,62.3z"/>
						<path class="st3" d="M66.1,135.7c-0.7,0.5-1.5,1.4-2.2,1.3c-0.7-0.1-1.6-1.1-1.7-1.8c-0.2-1.1,0.7-1.9,1.8-1.7
							c0.8,0.2,1.4,0.9,2.1,1.4C66.1,135.1,66.1,135.4,66.1,135.7L66.1,135.7z"/>
						<path class="st3" d="M56.8,169.8c-0.7,0.5-1.5,1.5-2.1,1.4c-0.7-0.1-1.6-1-1.8-1.8c-0.1-0.4,1-1.6,1.6-1.7
							c0.7-0.1,1.5,0.7,2.2,1.1C56.8,169.2,56.8,169.5,56.8,169.8z"/>
						<path class="st3" d="M131.5,96.1c-0.5-0.7-1.4-1.4-1.4-2.1c0-0.6,0.9-1.6,1.6-1.8c1.1-0.3,2,0.5,1.9,1.6
							c-0.1,0.8-0.8,1.5-1.2,2.3C132.1,96.1,131.8,96.1,131.5,96.1L131.5,96.1z"/>
						<path class="st3" d="M55.4,135.5c-0.8,0.4-1.5,1.2-2.3,1.2c-1.2,0.1-1.9-0.8-1.6-1.9c0.2-0.7,1.2-1.6,1.8-1.6
							c0.7,0,1.4,0.9,2.1,1.4C55.5,134.9,55.4,135.2,55.4,135.5L55.4,135.5z"/>
						<path class="st3" d="M27.2,82.7C26.5,83.1,25.8,84,25,84c-0.6,0-1.6-0.9-1.8-1.6c-0.3-1.1,0.5-2,1.7-1.9
							c0.8,0.1,1.5,0.9,2.2,1.3L27.2,82.7z"/>
						<path class="st3" d="M88.6,136.9c-0.4-0.8-1.2-1.5-1.3-2.2c-0.1-1.1,0.8-1.9,1.9-1.6c0.7,0.2,1.6,1.2,1.6,1.8
							c0,0.7-0.9,1.4-1.4,2.1C89.2,137,88.9,136.9,88.6,136.9L88.6,136.9z"/>
						<path class="st3" d="M21.2,92.6c0.5,0.7,1.4,1.4,1.3,2.1c0,0.6-1.1,1.8-1.5,1.7c-0.7-0.1-1.8-0.9-1.9-1.6
							c-0.1-0.6,0.8-1.5,1.2-2.2C20.3,92.6,21.2,92.6,21.2,92.6z"/>
						<path class="st3" d="M140.2,171.4c-0.7,0.5-1.4,1.3-2.1,1.4c-1.1,0.2-2-0.6-1.8-1.8c0.1-0.7,1-1.7,1.6-1.8
							c0.7-0.1,1.5,0.8,2.2,1.2C140.2,170.8,140.2,171.1,140.2,171.4L140.2,171.4z"/>
						<path class="st3" d="M109.8,172.3c-0.7,0.5-1.5,1.4-2.1,1.3c-0.7-0.1-1.3-1.1-1.9-1.7c0.6-0.6,1.2-1.6,1.9-1.8
							c0.6-0.1,1.4,0.9,2.1,1.3C109.9,171.7,109.9,172,109.8,172.3L109.8,172.3z"/>
						<path class="st3" d="M129.8,171.4c0.4-0.1,0.8-0.2,1.3-0.2c1.2,0.1,1.9,0.8,1.8,2c-0.1,1.3-0.9,1.9-2.2,1.6
							c-1.2-0.2-1.7-1.1-1.4-2.3C129.4,172.1,129.6,171.7,129.8,171.4L129.8,171.4L129.8,171.4z"/>
						<path class="st3" d="M124.4,174.3c-0.7,0.5-1.4,1.4-2.1,1.4c-0.7-0.1-1.3-1.1-2-1.6c0.6-0.6,1.1-1.7,1.8-1.8
							c0.7-0.1,1.4,0.8,2.2,1.2C124.4,173.7,124.4,174,124.4,174.3L124.4,174.3z"/>
						<path class="st3" d="M12.3,172.1c0.5,0.7,1.3,1.4,1.3,2.1c0,0.6-0.9,1.6-1.6,1.8c-1.1,0.3-2-0.6-1.9-1.7
							c0.1-0.8,0.8-1.5,1.3-2.2C11.7,172.1,12,172.1,12.3,172.1z"/>
						<path class="st3" d="M126,131.3c0.4,0.7,1.3,1.5,1.2,2.2c-0.1,0.6-1.2,1.8-1.6,1.7c-0.7-0.1-1.7-1.1-1.8-1.8
							c-0.1-0.6,0.8-1.4,1.3-2.1C125.4,131.3,125.7,131.3,126,131.3L126,131.3z"/>
						<path class="st3" d="M61.4,95.7c-0.7,0.5-1.4,1.2-2.2,1.3c-1.2,0.2-2-0.7-1.7-1.8c0.2-0.7,1.1-1.7,1.7-1.7
							c0.7,0,1.5,0.8,2.2,1.3C61.4,95.1,61.4,95.4,61.4,95.7L61.4,95.7z"/>
						<path class="st3" d="M65.4,92.9c0.5,0.7,1.5,1.4,1.4,2.1c-0.1,0.7-1,1.8-1.7,1.8s-1.7-1-1.8-1.7c-0.1-0.6,0.8-1.4,1.2-2.2
							C64.8,93,65.1,92.9,65.4,92.9z"/>
						<path class="st3" d="M24.6,97.9c-0.5-0.7-1.4-1.5-1.3-2.1c0.1-0.7,1.1-1.3,1.7-1.9c0.6,0.6,1.7,1.2,1.8,1.9
							c0.1,0.7-0.9,1.4-1.3,2.2C25.2,97.9,24.9,97.9,24.6,97.9z"/>
						<path class="st3" d="M36.8,97.8c-0.5-0.7-1.3-1.4-1.3-2.2c0-0.6,0.9-1.6,1.6-1.8c1.1-0.3,2,0.6,1.9,1.7
							c-0.1,0.8-0.8,1.5-1.3,2.2C37.5,97.8,37.1,97.8,36.8,97.8z"/>
						<path class="st3" d="M129.6,95.8c-0.7,0.5-1.4,1.5-2.1,1.4c-0.7-0.1-1.3-1.1-2-1.7c0.6-0.6,1.1-1.7,1.8-1.8
							c0.7-0.1,1.5,0.8,2.2,1.2C129.6,95.3,129.6,95.5,129.6,95.8L129.6,95.8z"/>
						<path class="st3" d="M103.8,179.6c-0.5-0.7-1.3-1.5-1.3-2.2c0-0.6,1-1.6,1.7-1.7c1.1-0.2,2,0.6,1.8,1.7
							c-0.1,0.8-0.9,1.5-1.3,2.2C104.4,179.6,104.1,179.6,103.8,179.6L103.8,179.6z"/>
						<path class="st3" d="M78.7,133.2c-0.7,0.5-1.5,1.4-2.2,1.3c-0.7-0.1-1.2-1.1-1.9-1.8c0.6-0.6,1.2-1.6,1.9-1.7
							c0.7-0.1,1.4,0.9,2.1,1.4C78.7,132.6,78.7,132.9,78.7,133.2z"/>
						<path class="st3" d="M138.7,129.9c0.5,0.7,1.2,1.4,1.3,2.2c0.1,1.1-0.7,2-1.8,1.7c-0.7-0.2-1.7-1.1-1.7-1.8
							c-0.1-0.7,0.9-1.4,1.4-2.1C138.1,129.8,138.4,129.9,138.7,129.9L138.7,129.9z"/>
						<path class="st3" d="M126,179.5c-0.7,0.5-1.4,1.3-2.2,1.4c-1.1,0.1-2-0.8-1.7-1.9c0.2-0.7,1.1-1.6,1.7-1.6
							c0.7,0,1.4,0.8,2.2,1.3C126,178.9,126,179.2,126,179.5L126,179.5z"/>
						<path class="st3" d="M117.9,96.5c-0.7,0.5-1.5,1.4-2.1,1.4c-0.7-0.1-1.6-1-1.8-1.8c-0.3-1.1,0.6-1.9,1.7-1.8
							c0.8,0.1,1.4,0.9,2.2,1.3C117.9,96,117.9,96.2,117.9,96.5z"/>
						<path class="st3" d="M121.5,129.1c0.5,0.7,1.4,1.4,1.4,2.1c0,0.6-0.9,1.6-1.6,1.8c-1.1,0.3-2-0.5-1.9-1.6
							c0.1-0.8,0.8-1.5,1.3-2.2C120.9,129.2,121.2,129.1,121.5,129.1L121.5,129.1z"/>
						<path class="st3" d="M29.9,94.4c0.5,0.7,1.4,1.5,1.4,2.1c-0.1,0.7-1.1,1.8-1.8,1.8c-0.6,0-1.7-1.1-1.8-1.8
							c-0.1-0.6,0.8-1.4,1.3-2.1C29.3,94.4,29.6,94.4,29.9,94.4z"/>
						<path class="st3" d="M49.1,131.4c-0.8,0.4-1.5,1.2-2.3,1.2c-1.2,0.1-1.9-0.8-1.6-1.9c0.2-0.7,1.2-1.6,1.8-1.6
							c0.7,0,1.4,0.9,2.1,1.4C49.1,130.8,49.1,131.1,49.1,131.4L49.1,131.4z"/>
						<path class="st3" d="M39.9,131.5c-0.7,0.4-1.5,1.3-2.2,1.2c-0.6-0.1-1.8-1.2-1.7-1.6c0.1-0.7,1-1.7,1.7-1.8
							c0.6-0.1,1.4,0.8,2.1,1.3C39.9,130.9,39.9,131.2,39.9,131.5L39.9,131.5z"/>
						<path class="st3" d="M13.1,180.8c0.5,0.7,1.3,1.5,1.3,2.2c0,0.6-1,1.5-1.7,1.7c-1.1,0.3-2-0.6-1.9-1.7
							c0.1-0.8,0.9-1.5,1.4-2.2L13.1,180.8L13.1,180.8z"/>
						<path class="st3" d="M26.9,185.2c-0.5-0.8-1.2-1.5-1.3-2.3c-0.1-1.1,0.8-1.9,1.9-1.6c0.7,0.2,1.6,1.2,1.6,1.8
							c0,0.7-0.9,1.4-1.4,2.1C27.5,185.3,27.2,185.2,26.9,185.2L26.9,185.2z"/>
						<path class="st3" d="M89.9,78.5c0.4,0.7,1.3,1.5,1.2,2.2c-0.1,0.7-1,1.6-1.7,1.7c-1.1,0.2-2-0.6-1.8-1.8
							c0.1-0.8,0.9-1.4,1.4-2.1L89.9,78.5L89.9,78.5z"/>
						<path class="st3" d="M89.6,95.9c0.5,0.7,1.5,1.5,1.4,2.1c-0.1,0.7-1.1,1.6-1.8,1.8c-0.5,0.1-1.6-1-1.7-1.7
							c-0.1-0.7,0.8-1.5,1.2-2.2L89.6,95.9L89.6,95.9z"/>
						<path class="st3" d="M111.6,184.4c0.5,0.7,1.4,1.5,1.3,2.1c-0.1,0.7-1.1,1.6-1.8,1.8c-0.5,0.1-1.6-1-1.7-1.6
							c-0.1-0.7,0.8-1.5,1.2-2.2C111,184.4,111.3,184.4,111.6,184.4L111.6,184.4z"/>
						<path class="st3" d="M133.8,190c-0.5-0.7-1.3-1.5-1.3-2.2c0-0.6,1.1-1.8,1.6-1.7c0.7,0.1,1.7,1,1.9,1.7
							c0.1,0.6-0.8,1.4-1.3,2.2C134.4,190,134.1,190,133.8,190L133.8,190z"/>
						<path class="st3" d="M84.5,131.2c-0.5-0.7-1.2-1.4-1.3-2.2c-0.2-1.1,0.7-2,1.8-1.7c0.7,0.2,1.6,1.1,1.7,1.7
							c0.1,0.7-0.8,1.5-1.2,2.2C85.2,131.2,84.8,131.2,84.5,131.2L84.5,131.2z"/>
						<path class="st3" d="M59.3,185.9c0.5,0.7,1.3,1.4,1.4,2.2c0.2,1.1-0.7,2-1.8,1.7c-0.7-0.2-1.6-1.1-1.7-1.7
							c0-0.7,0.8-1.5,1.2-2.2C58.7,185.9,59,185.9,59.3,185.9L59.3,185.9z"/>
						<path class="st3" d="M36.1,99.2c-0.8,0.4-1.5,1.2-2.3,1.2c-1.2,0.1-2-0.8-1.6-1.9c0.2-0.7,1.2-1.6,1.8-1.6
							c0.7,0,1.4,0.9,2.1,1.4C36.2,98.6,36.1,98.9,36.1,99.2L36.1,99.2z"/>
						<path class="st3" d="M84.4,188.7c0.4,0.7,1.3,1.6,1.2,2.2c-0.1,0.7-1.2,1.2-1.8,1.8c-0.6-0.6-1.6-1.3-1.7-2
							c-0.1-0.6,0.9-1.4,1.4-2.1C83.9,188.7,84.1,188.7,84.4,188.7L84.4,188.7z"/>
						<path class="st3" d="M40.8,129.6c-0.5-0.7-1.2-1.4-1.3-2.2c-0.1-1.1,0.7-2,1.8-1.7c0.7,0.2,1.7,1.2,1.7,1.8
							c0.1,0.6-0.9,1.4-1.4,2.1C41.4,129.7,41.1,129.6,40.8,129.6L40.8,129.6z"/>
						<path class="st3" d="M131.6,101c-0.4-0.8-1.3-1.5-1.2-2.2c0.1-0.6,1-1.5,1.7-1.7c1.1-0.2,2,0.6,1.8,1.8
							c-0.1,0.8-0.9,1.4-1.4,2.2C132.1,101,131.9,101,131.6,101L131.6,101z"/>
						<path class="st3" d="M90.7,124.6c0.5,0.7,1.4,1.4,1.4,2.1c-0.1,0.7-1.1,1.7-1.7,1.8c-0.6,0-1.7-1-1.8-1.7
							c-0.1-0.6,0.8-1.4,1.3-2.2C90.2,124.6,90.4,124.6,90.7,124.6z"/>
						<path class="st3" d="M40.4,98.4c0.5,0.7,1.4,1.4,1.4,2.1c0,0.6-0.9,1.6-1.6,1.8c-1.1,0.3-2-0.5-1.9-1.6
							c0.1-0.8,0.8-1.5,1.3-2.3C39.8,98.4,40.1,98.4,40.4,98.4L40.4,98.4z"/>
						<path class="st3" d="M47,98.2c0.4,0.8,1.3,1.5,1.2,2.2c-0.1,0.6-1.2,1.7-1.7,1.6c-0.7-0.2-1.7-1.1-1.8-1.8
							c-0.1-0.6,0.9-1.4,1.4-2.1C46.4,98.2,46.7,98.2,47,98.2L47,98.2z"/>
						<path class="st3" d="M79.2,193.7c-0.7,0.5-1.5,1.3-2.2,1.3c-0.6,0-1.6-0.9-1.7-1.6c-0.3-1.1,0.5-2,1.7-1.9
							c0.8,0.1,1.5,0.9,2.2,1.3C79.2,193.1,79.2,193.4,79.2,193.7L79.2,193.7z"/>
						<path class="st3" d="M108.2,195.5c-0.5-0.7-1.2-1.4-1.4-2.1c-0.2-1.2,0.7-2,1.8-1.8c0.7,0.1,1.6,1.1,1.7,1.7
							c0.1,0.7-0.8,1.4-1.2,2.2L108.2,195.5L108.2,195.5z"/>
						<path class="st3" d="M51.3,98.3c0.5,0.7,1.3,1.4,1.4,2.2c0.2,1.1-0.7,2-1.8,1.7c-0.7-0.2-1.7-1.1-1.8-1.8
							c-0.1-0.7,0.9-1.4,1.3-2.1C50.8,98.3,51.1,98.3,51.3,98.3z"/>
						<path class="st3" d="M58.5,101.3c-0.7,0.5-1.5,1.4-2.1,1.4c-0.7-0.1-1.6-1-1.8-1.7c-0.3-1.1,0.6-1.9,1.7-1.8
							c0.8,0.1,1.5,0.9,2.2,1.3C58.4,100.7,58.4,101,58.5,101.3L58.5,101.3z"/>
						<path class="st3" d="M11.3,99.3c0.4,0.8,1.2,1.5,1.1,2.2c-0.1,0.6-1.2,1.7-1.7,1.6c-0.7-0.2-1.7-1.1-1.8-1.8
							c-0.1-0.6,0.9-1.4,1.4-2.1C10.7,99.3,11,99.3,11.3,99.3L11.3,99.3z"/>
						<path class="st3" d="M68.7,127.6c-0.4-0.8-1.2-1.5-1.2-2.3c-0.1-1.2,0.9-1.9,1.9-1.6c0.7,0.2,1.6,1.2,1.6,1.8
							c0,0.7-0.9,1.4-1.4,2.1C69.3,127.7,69,127.6,68.7,127.6L68.7,127.6z"/>
						<path class="st3" d="M65.8,197.2c0.5,0.7,1.3,1.5,1.3,2.2c0,0.6-1.2,1.8-1.6,1.7c-0.7-0.1-1.8-1-1.8-1.7
							c-0.1-0.6,0.9-1.4,1.4-2.2C65.3,197.2,65.6,197.2,65.8,197.2z"/>
						<path class="st3" d="M38,69.6c-0.7,0.5-1.4,1.4-2.1,1.4c-0.6,0-1.6-0.9-1.8-1.6c-0.3-1.1,0.5-2,1.6-1.9
							c0.8,0.1,1.5,0.8,2.3,1.2C37.9,69.1,38,69.3,38,69.6L38,69.6z"/>
						<path class="st3" d="M21.7,99.9c0.5,0.7,1.5,1.5,1.4,2.1c-0.1,0.7-1.1,1.6-1.8,1.8c-0.5,0.1-1.6-1-1.7-1.6
							c-0.1-0.7,0.8-1.5,1.2-2.2C21.2,99.9,21.5,99.9,21.7,99.9L21.7,99.9z"/>
						<path class="st3" d="M115.4,198.6c0.5,0.7,1.2,1.4,1.3,2.2c0.1,1.1-0.7,2-1.9,1.7c-0.7-0.2-1.6-1.1-1.7-1.7
							c0-0.7,0.8-1.4,1.2-2.2C114.8,198.6,115.1,198.6,115.4,198.6L115.4,198.6z"/>
						<path class="st3" d="M62.3,126.9c-0.5-0.7-1.4-1.4-1.4-2.1c0.1-0.7,1.1-1.3,1.7-1.9c0.6,0.6,1.7,1.1,1.8,1.8
							c0.1,0.7-0.8,1.4-1.2,2.2C62.9,126.9,62.6,126.9,62.3,126.9L62.3,126.9z"/>
						<path class="st3" d="M47.5,124.9c-0.7,0.5-1.5,1.4-2.2,1.3c-0.7-0.1-1.6-1.1-1.7-1.9c-0.1-0.4,1.1-1.6,1.7-1.6
							c0.7,0,1.4,0.8,2.2,1.3C47.5,124.3,47.5,124.6,47.5,124.9L47.5,124.9z"/>
						<path class="st3" d="M13,202.9c-0.7,0.5-1.4,1.4-2.1,1.4c-0.7-0.1-1.3-1.1-1.9-1.7c0.6-0.6,1.1-1.7,1.8-1.8
							c0.6-0.1,1.4,0.8,2.2,1.2C13,202.3,13,202.6,13,202.9L13,202.9z"/>
						<path class="st3" d="M76.8,81.1c-0.2-0.2-0.5-0.5-0.5-0.7c0-0.8-0.1-1.8,0.3-2.3c0.3-0.4,1.6-0.5,2.1-0.2c0.5,0.3,1,1.5,0.8,2
							c-0.2,0.6-1.2,1-1.9,1.3C77.4,81.2,77,81.1,76.8,81.1C76.7,81,76.8,81.1,76.8,81.1z"/>
						<path class="st3" d="M80.2,122c0.5,0.7,1.3,1.3,1.4,2.1c0.2,1.1-0.6,2-1.7,1.8c-0.7-0.2-1.7-1-1.8-1.7
							c-0.1-0.6,0.8-1.4,1.3-2.2C79.7,122.1,80,122,80.2,122L80.2,122z"/>
						<path class="st3" d="M82.9,202.5c0.4,0.7,1.3,1.6,1.2,2.2c-0.1,0.7-1.2,1.2-1.8,1.8c-0.6-0.6-1.6-1.3-1.7-2
							c-0.1-0.6,0.9-1.4,1.4-2.1C82.4,202.4,82.6,202.5,82.9,202.5L82.9,202.5z"/>
						<path class="st3" d="M116.4,123.3c-0.7,0.5-1.4,1.3-2.2,1.4c-1.1,0.2-2-0.7-1.8-1.8c0.2-0.7,1.1-1.6,1.7-1.7
							c0.7-0.1,1.5,0.8,2.2,1.2C116.4,122.7,116.4,123,116.4,123.3L116.4,123.3z"/>
						<path class="st3" d="M98.9,69.8c-0.7,0.5-1.4,1.4-2.1,1.4c-0.6,0-1.6-0.9-1.8-1.6c-0.3-1.1,0.4-2.1,1.6-1.9
							c0.8,0.1,1.5,0.8,2.3,1.2C98.9,69.2,98.9,69.5,98.9,69.8z"/>
						<path class="st3" d="M74.7,205.9c-0.7,0.5-1.5,1.4-2.2,1.3c-0.6,0-1.6-0.9-1.7-1.6c-0.3-1.1,0.5-2,1.7-1.9
							c0.8,0.1,1.5,0.9,2.2,1.3C74.7,205.3,74.7,205.6,74.7,205.9L74.7,205.9z"/>
						<path class="st3" d="M139.1,104.1c-0.7,0.4-1.5,1.3-2.2,1.2c-0.7-0.1-1.7-1.2-1.7-1.8c0-0.6,1.1-1.6,1.8-1.7
							c0.6-0.1,1.4,0.9,2.1,1.4C139.1,103.5,139.1,103.8,139.1,104.1L139.1,104.1z"/>
						<path class="st3" d="M25.3,78.8c-0.8,0.5-1.5,1.2-2.2,1.3c-1.1,0.1-2-0.8-1.7-1.9c0.2-0.7,1.1-1.6,1.8-1.6
							c0.7,0,1.4,0.9,2.2,1.3C25.3,78.3,25.3,78.5,25.3,78.8L25.3,78.8z"/>
						<path class="st3" d="M82.6,70.6c-0.7,0.5-1.5,1.3-2.2,1.2c-0.7-0.1-1.7-1.2-1.7-1.8c0-0.6,1.1-1.6,1.8-1.7
							c0.7-0.1,1.4,0.9,2.1,1.4C82.6,70.1,82.6,70.3,82.6,70.6L82.6,70.6z"/>
						<path class="st3" d="M52.1,210.2c-0.5-0.7-1.3-1.5-1.2-2.2c0-0.6,1-1.5,1.7-1.7c1.1-0.3,2,0.6,1.8,1.7
							c-0.1,0.8-0.9,1.5-1.4,2.2C52.7,210.2,52.4,210.2,52.1,210.2L52.1,210.2z"/>
						<path class="st3" d="M97.7,120.6c0.5,0.7,1.2,1.4,1.4,2.1c0.2,1.1-0.6,2-1.7,1.8c-0.7-0.2-1.7-1.1-1.8-1.7
							c-0.1-0.6,0.8-1.4,1.3-2.2C97.2,120.6,97.4,120.6,97.7,120.6L97.7,120.6z"/>
						<path class="st3" d="M134.4,78.4c-0.7,0.5-1.4,1.3-2.1,1.4c-1.1,0.2-2-0.7-1.8-1.8c0.1-0.7,1.1-1.6,1.7-1.7
							c0.7-0.1,1.5,0.8,2.2,1.2C134.4,77.9,134.4,78.2,134.4,78.4L134.4,78.4z"/>
						<path class="st3" d="M141.5,121.6c-0.7,0.4-1.5,1.3-2.2,1.2c-0.7-0.1-1.2-1.2-1.8-1.8c0.6-0.6,1.3-1.6,2-1.7
							c0.6-0.1,1.4,0.9,2.1,1.4C141.5,121.1,141.5,121.4,141.5,121.6L141.5,121.6z"/>
						<path class="st3" d="M16.5,121.2c-0.7,0.5-1.4,1.3-2.2,1.4c-1.1,0.1-2-0.8-1.7-1.9c0.2-0.7,1.1-1.6,1.7-1.7
							c0.7,0,1.5,0.8,2.2,1.3C16.5,120.6,16.5,120.9,16.5,121.2L16.5,121.2z"/>
						<path class="st3" d="M116.6,67.7c0.5,0.7,1.5,1.4,1.4,2.1c-0.1,0.7-1,1.8-1.7,1.8c-0.6,0-1.7-1-1.8-1.7
							c-0.1-0.6,0.8-1.4,1.2-2.2C116.1,67.7,116.3,67.7,116.6,67.7L116.6,67.7z"/>
						<path class="st3" d="M56.3,121.1c-0.7,0.4-1.5,1.2-2.2,1.2c-0.6-0.1-1.7-1.2-1.6-1.7c0.2-0.7,1.1-1.7,1.8-1.8
							c0.6-0.1,1.4,0.9,2.1,1.4C56.3,120.5,56.3,120.8,56.3,121.1L56.3,121.1z"/>
						<path class="st3" d="M106.6,258.6c0.5,0.7,1.3,1.5,1.3,2.1c0,0.6-1.1,1.8-1.6,1.7c-0.7-0.1-1.7-1-1.9-1.7
							c-0.1-0.6,0.8-1.4,1.3-2.2L106.6,258.6L106.6,258.6z"/>
						<path class="st3" d="M137.6,210.8c0.5,0.7,1.2,1.4,1.3,2.2c0.1,1.1-0.8,2-1.9,1.7c-0.7-0.2-1.6-1.1-1.7-1.7
							c0-0.7,0.8-1.4,1.3-2.2C137,210.8,137.3,210.8,137.6,210.8L137.6,210.8z"/>
						<path class="st3" d="M44.3,261.1c-0.7,0.5-1.4,1.3-2.2,1.4c-1.1,0.2-2-0.7-1.7-1.8c0.2-0.7,1.1-1.7,1.7-1.7
							c0.7,0,1.5,0.8,2.2,1.2C44.3,260.5,44.3,260.8,44.3,261.1L44.3,261.1z"/>
						<path class="st3" d="M9.5,105.1c0.5,0.7,1.4,1.4,1.4,2.2c0,0.6-0.9,1.6-1.6,1.8c-1.1,0.3-2.1-0.5-1.9-1.7
							c0.1-0.8,0.8-1.5,1.3-2.2C8.9,105.1,9.2,105.1,9.5,105.1L9.5,105.1z"/>
						<path class="st3" d="M111.2,218c-0.7,0.4-1.5,1.3-2.2,1.2c-0.6,0-1.5-1-1.7-1.7c-0.3-1.1,0.6-2,1.7-1.8
							c0.8,0.1,1.5,0.9,2.2,1.4C111.2,217.4,111.2,217.7,111.2,218L111.2,218z"/>
						<path class="st3" d="M12,76.5c-0.7,0.5-1.5,1.3-2.2,1.3c-0.6,0-1.5-1-1.7-1.7c-0.3-1.1,0.6-2,1.7-1.8c0.8,0.1,1.5,0.9,2.2,1.4
							C12,75.9,12,76.2,12,76.5L12,76.5z"/>
						<path class="st3" d="M32.7,218.6c-0.7,0.5-1.4,1.2-2.2,1.4c-1.2,0.2-2-0.8-1.8-1.8c0.1-0.7,1.1-1.6,1.7-1.7
							c0.7-0.1,1.5,0.8,2.2,1.2C32.6,218,32.6,218.3,32.7,218.6z"/>
						<path class="st3" d="M30,120.7c-0.7,0.5-1.5,1.3-2.2,1.2c-0.6,0-1.8-1.2-1.7-1.6c0.1-0.7,1-1.7,1.7-1.8
							c0.6-0.1,1.4,0.8,2.2,1.3C30,120.1,30,120.4,30,120.7L30,120.7z"/>
						<path class="st3" d="M49.9,219.3c-0.7,0.5-1.5,1.3-2.2,1.3c-0.6,0-1.5-0.9-1.7-1.6c-0.3-1.1,0.5-2,1.7-1.9
							c0.8,0.1,1.5,0.9,2.2,1.3C49.9,218.8,49.9,219,49.9,219.3L49.9,219.3z"/>
						<path class="st3" d="M10.2,120.2c-0.7,0.5-1.4,1.4-2.1,1.3c-0.6,0-1.6-0.9-1.8-1.6c-0.3-1.1,0.5-2,1.6-1.9
							c0.8,0.1,1.5,0.8,2.2,1.3C10.1,119.6,10.2,119.9,10.2,120.2L10.2,120.2z"/>
						<path class="st3" d="M130.5,248.2c0.5,0.7,1.4,1.5,1.3,2.1c-0.1,0.7-1.1,1.6-1.8,1.8c-1.1,0.2-1.9-0.7-1.7-1.8
							c0.1-0.8,0.9-1.4,1.4-2.1C130,248.2,130.2,248.2,130.5,248.2L130.5,248.2z"/>
						<path class="st3" d="M114.2,119.6c-0.8,0.4-1.5,1.2-2.2,1.2c-0.6-0.1-1.7-1.2-1.6-1.7c0.2-0.7,1.1-1.7,1.8-1.8
							c0.6-0.1,1.4,0.9,2.1,1.4C114.2,119.1,114.2,119.3,114.2,119.6L114.2,119.6z"/>
						<path class="st3" d="M93.7,110.8c-0.7,0.5-1.4,1.2-2.2,1.3c-1.1,0.1-2-0.7-1.7-1.9c0.2-0.7,1.1-1.6,1.7-1.7
							c0.7,0,1.5,0.8,2.2,1.3C93.7,110.2,93.7,110.5,93.7,110.8L93.7,110.8z"/>
						<path class="st3" d="M122.8,111c-0.7,0.5-1.5,1.4-2.1,1.3c-0.7-0.1-1.7-1.1-1.7-1.7c0-0.6,1.1-1.7,1.8-1.7
							c0.6-0.1,1.4,0.8,2.1,1.3C122.8,110.4,122.8,110.7,122.8,111L122.8,111z"/>
						<path class="st3" d="M143.5,245.6c-0.7,0.5-1.4,1.4-2.1,1.4c-0.6,0-1.6-0.9-1.8-1.6c-0.3-1.1,0.5-2,1.6-1.9
							c0.8,0.1,1.5,0.8,2.3,1.3C143.5,245.1,143.5,245.4,143.5,245.6L143.5,245.6z"/>
						<path class="st3" d="M110.6,245.8c-0.8,0.4-1.5,1.3-2.2,1.2c-0.6-0.1-1.6-1-1.7-1.7c-0.2-1.1,0.7-2,1.8-1.8
							c0.8,0.1,1.4,0.9,2.2,1.4C110.7,245.2,110.7,245.5,110.6,245.8z"/>
						<path class="st3" d="M79.8,75.4c-0.7,0.5-1.4,1.5-2.1,1.4c-0.7-0.1-1.3-1.1-2-1.6c0.6-0.6,1.1-1.7,1.8-1.8
							c0.6-0.1,1.5,0.7,2.2,1.2C79.8,74.8,79.8,75.1,79.8,75.4L79.8,75.4z"/>
						<path class="st3" d="M71.8,229.8c-0.5-0.7-1.3-1.5-1.3-2.2c0-0.6,1-1.5,1.7-1.7c1.1-0.3,2,0.6,1.8,1.7
							c-0.1,0.8-0.9,1.5-1.4,2.2C72.4,229.8,72.1,229.8,71.8,229.8L71.8,229.8z"/>
						<path class="st3" d="M51.5,75.4c-0.7,0.5-1.5,1.3-2.2,1.3c-0.6,0-1.6-0.9-1.7-1.6c-0.3-1.1,0.6-2,1.7-1.9
							c0.8,0.1,1.5,0.9,2.2,1.3C51.5,74.5,51.5,75.4,51.5,75.4z"/>
						<path class="st3" d="M93.7,240c-0.7,0.5-1.4,1.3-2.2,1.4c-1.1,0.1-2-0.8-1.7-1.9c0.2-0.7,1.1-1.6,1.7-1.7
							c0.7,0,1.4,0.8,2.2,1.3C93.7,239.4,93.7,239.7,93.7,240z"/>
						<path class="st3" d="M49.5,233c-0.7,0.5-1.4,1.4-2.1,1.4c-0.6,0-1.6-0.9-1.8-1.6c-0.3-1.1,0.5-2,1.6-1.9
							c0.8,0.1,1.5,0.8,2.3,1.3C49.4,232.5,49.5,232.8,49.5,233L49.5,233z"/>
						<path class="st3" d="M100.6,233.5c-0.7,0.5-1.5,1.4-2.1,1.3c-0.7-0.1-1.6-1.1-1.8-1.8c-0.1-0.5,1-1.6,1.7-1.7
							c0.7-0.1,1.5,0.8,2.2,1.2L100.6,233.5L100.6,233.5z"/>
						<path class="st3" d="M26.4,110.6c0.5,0.7,1.4,1.4,1.4,2.1c0,0.6-0.9,1.6-1.6,1.8c-1.1,0.3-2-0.5-1.9-1.6
							c0.1-0.8,0.8-1.5,1.3-2.2C25.8,110.6,26.1,110.6,26.4,110.6z"/>
						<path class="st3" d="M99.8,112.1c0.5,0.7,1.4,1.4,1.4,2.1c0,0.6-0.9,1.6-1.6,1.8c-1.1,0.3-2-0.5-1.9-1.6
							c0.1-0.8,0.8-1.5,1.3-2.2C99.2,112.1,99.5,112.1,99.8,112.1L99.8,112.1z"/>
						<path class="st3" d="M81.9,111.7c0.5,0.7,1.4,1.5,1.3,2.2c-0.1,0.7-1.1,1.6-1.8,1.7c-1.1,0.2-1.9-0.7-1.7-1.8
							c0.1-0.8,0.9-1.4,1.4-2.1C81.3,111.6,81.6,111.7,81.9,111.7L81.9,111.7z"/>
						<path class="st3" d="M131.6,237.9c-0.5-0.7-1.4-1.4-1.3-2.1c0-0.6,1.1-1.8,1.6-1.7c0.7,0.1,1.8,1,1.9,1.7
							c0.1,0.6-0.8,1.4-1.2,2.2C132.2,237.9,131.9,237.9,131.6,237.9L131.6,237.9z"/>
						<path class="st3" d="M72.2,62.1c-0.3,0-0.6,0-0.9,0c-0.3,0.4-0.8,0.9-1.1,1.4c0.4,0.1,0.8,0.3,1.2,0.6
							c0.4,0.4,0.6,0.9,0.7,1.4c0,0.1,0,0.2,0,0.4c0.5-0.3,1.2-1.1,1.2-1.6C73.5,63.6,72.6,62.8,72.2,62.1z"/>
						<path class="st3" d="M135.5,113.3c-0.7,0.5-1.5,1.4-2.1,1.4c-0.7-0.1-1.6-1.1-1.8-1.8c-0.1-0.5,1-1.6,1.6-1.7
							c0.7-0.1,1.5,0.8,2.2,1.2C135.5,112.8,135.5,113,135.5,113.3L135.5,113.3z"/>
						<path class="st3" d="M118.3,235.2c0.5,0.7,1.4,1.5,1.3,2.1c-0.1,0.7-1.1,1.7-1.8,1.7c-0.6,0-1.7-1.1-1.7-1.8
							c-0.1-0.6,0.8-1.4,1.3-2.1C117.7,235.2,118,235.2,118.3,235.2L118.3,235.2z"/>
						<path class="st3" d="M61.5,74.6c-0.7,0.5-1.5,1.3-2.2,1.3c-0.6,0-1.5-1-1.7-1.7c-0.3-1.1,0.6-2,1.7-1.9
							c0.8,0.1,1.5,0.9,2.2,1.3C61.5,74,61.5,74.3,61.5,74.6L61.5,74.6z"/>
						<path class="st3" d="M102.9,132.1c0.5,0.7,1.3,1.4,1.4,2.2c0.2,1.1-0.7,2-1.8,1.8c-0.7-0.2-1.7-1.1-1.7-1.7
							c0-0.7,0.8-1.5,1.3-2.2C102.4,132.2,102.6,132.2,102.9,132.1L102.9,132.1z"/>
						<path class="st3" d="M39.7,118c-0.5-0.7-1.4-1.5-1.3-2.2c0.1-0.7,1.1-1.6,1.9-1.7c0.5-0.1,1.6,1.1,1.6,1.7
							c0,0.7-0.8,1.4-1.3,2.2C40.2,118,40,118,39.7,118z"/>
						<path class="st3" d="M35.3,72.6c-0.2,0.4-0.4,0.8-0.7,1.1c-0.9,0.9-1.9,1-2.7,0.1c-0.9-0.9-0.8-2,0.2-2.7
							c1.1-0.8,2.1-0.5,2.8,0.6C35,72,35.2,72.4,35.3,72.6C35.3,72.7,35.3,72.6,35.3,72.6z"/>
						<path class="st3" d="M31.6,134.5c-0.7,0.5-1.4,1.3-2.2,1.4c-1.1,0.2-2-0.7-1.7-1.8c0.2-0.7,1.1-1.6,1.7-1.7
							c0.7,0,1.5,0.8,2.2,1.3C31.7,133.9,31.7,134.2,31.6,134.5L31.6,134.5z"/>
						<path class="st3" d="M24,73.2c-0.7,0.4-1.5,1.3-2.2,1.2c-0.6-0.1-1.7-1.2-1.6-1.7c0.1-0.7,1.1-1.7,1.8-1.8
							c0.6-0.1,1.4,0.9,2.1,1.4C24,72.6,24,72.9,24,73.2L24,73.2z"/>
						<path class="st3" d="M37.2,241c-0.7,0.5-1.5,1.4-2.1,1.4c-0.7-0.1-1.6-1-1.8-1.8c-0.3-1.1,0.6-1.9,1.7-1.8
							c0.8,0.1,1.5,0.9,2.2,1.3C37.2,240.5,37.2,240.7,37.2,241L37.2,241z"/>
						<path class="st3" d="M59.7,243.1c-0.5-0.7-1.4-1.5-1.3-2.1c0.1-0.7,1.1-1.6,1.8-1.8c0.5-0.1,1.6,1,1.6,1.7
							c0.1,0.7-0.8,1.5-1.2,2.2C60.3,243,60,243,59.7,243.1L59.7,243.1z"/>
						<path class="st3" d="M48,60.8c-0.2,0-0.5-0.1-0.7-0.2c-0.3-0.1-0.6-0.3-0.8-0.5c-0.2-0.2-0.4-0.5-0.5-0.7c0,0-0.1,0-0.1,0.1
							c-0.3,0.3-0.5,0.6-0.7,0.9c0.1,0.4,0.2,0.8,0.4,1.2c0.7,1.1,1.6,1.3,2.7,0.7c0.2-0.1,0.3-0.2,0.4-0.4c0,0,0,0-0.1-0.1
							C48.3,61.5,48.1,61.2,48,60.8z"/>
						<path class="st3" d="M33.6,146.6c0.5,0.7,1.3,1.4,1.4,2.2c0.2,1.1-0.8,2-1.8,1.7c-0.7-0.1-1.6-1.1-1.7-1.7
							c0-0.7,0.8-1.5,1.3-2.2C33.1,146.7,33.4,146.7,33.6,146.6L33.6,146.6z"/>
						<path class="st3" d="M101.4,149.2c-0.7,0.5-1.5,1.3-2.2,1.3c-0.6,0-1.6-1-1.7-1.7c-0.2-1.1,0.6-2,1.7-1.8
							c0.8,0.1,1.5,0.9,2.2,1.4C101.4,148.6,101.4,148.9,101.4,149.2L101.4,149.2z"/>
						<path class="st3" d="M22.2,226.6c-0.7,0.5-1.5,1.4-2.1,1.3c-0.7-0.1-1.6-1.1-1.7-1.8c-0.1-0.4,1-1.6,1.7-1.6
							c0.7-0.1,1.5,0.8,2.2,1.2C22.2,226.1,22.2,226.4,22.2,226.6L22.2,226.6z"/>
						<path class="st3" d="M12.6,149.8c-0.7,0.5-1.4,1.4-2.1,1.4c-0.7-0.1-1.3-1.1-1.9-1.7c0.6-0.6,1.1-1.7,1.8-1.8
							c0.6-0.1,1.4,0.8,2.2,1.2C12.6,149.2,12.6,149.5,12.6,149.8L12.6,149.8z"/>
						<path class="st3" d="M116.4,226.5c-0.7,0.5-1.4,1.4-2.1,1.4c-0.6,0-1.6-0.9-1.8-1.6c-0.3-1.1,0.5-2,1.6-1.9
							c0.8,0.1,1.5,0.8,2.3,1.3C116.3,225.9,116.4,226.2,116.4,226.5L116.4,226.5z"/>
						<path class="st3" d="M92.1,119.4c-0.7,0.5-1.4,1.2-2.2,1.3c-1.2,0.1-1.9-0.8-1.7-1.9c0.2-0.7,1.1-1.6,1.8-1.6
							c0.7,0,1.4,0.9,2.2,1.3C92.2,118.8,92.1,119.1,92.1,119.4z"/>
						<path class="st3" d="M122.6,73.5c0.4,0.8,1.2,1.5,1.3,2.2c0.1,1.2-0.8,1.9-1.9,1.7c-0.7-0.2-1.6-1.2-1.6-1.8
							c0-0.7,0.9-1.4,1.4-2.2C122,73.5,122.3,73.5,122.6,73.5L122.6,73.5z"/>
						<path class="st3" d="M47.7,143.7c-0.7,0.5-1.4,1.3-2.2,1.4c-1.1,0.2-2-0.7-1.8-1.8c0.2-0.7,1-1.6,1.7-1.7
							c0.7-0.1,1.5,0.8,2.2,1.2C47.6,143.1,47.6,143.4,47.7,143.7L47.7,143.7z"/>
						<path class="st3" d="M84.9,152.4c-0.7,0.4-1.6,1.3-2.2,1.2c-0.7-0.1-1.7-1.2-1.7-1.8c0.1-0.6,1.1-1.6,1.8-1.7
							c0.6-0.1,1.4,0.9,2.1,1.4C84.9,151.8,84.9,152.1,84.9,152.4L84.9,152.4z"/>
						<path class="st3" d="M85.2,244.8c0.5,0.7,1.4,1.5,1.3,2.1c-0.1,0.7-1.1,1.6-1.8,1.8c-0.4,0.1-1.6-1-1.6-1.7
							c-0.1-0.7,0.8-1.5,1.2-2.2C84.6,244.8,84.9,244.8,85.2,244.8z"/>
						<path class="st3" d="M82.2,168.2c0.4,0.8,1.3,1.5,1.2,2.2c-0.1,0.6-1,1.5-1.7,1.7c-1.1,0.2-2-0.6-1.8-1.8
							c0.1-0.8,0.9-1.4,1.4-2.2L82.2,168.2L82.2,168.2z"/>
						<path class="st3" d="M121.1,249.4c-0.8,0.4-1.6,1.3-2.2,1.1c-0.7-0.1-1.5-1.2-1.6-1.9c-0.2-1.1,0.9-1.9,1.9-1.6
							c0.8,0.2,1.4,1,2,1.6C121.2,248.9,121.2,249.1,121.1,249.4L121.1,249.4z"/>
						<path class="st3" d="M129.8,171.3c-0.9-0.2-1.9-0.1-2.6-0.6c-0.3-0.2-0.3-1.6,0.1-2.1c0.3-0.4,1.3-0.7,1.9-0.6
							C130.7,168.3,130.9,169.8,129.8,171.3L129.8,171.3L129.8,171.3z"/>
						<path class="st3" d="M32.8,174.7c0.5,0.7,1.4,1.5,1.3,2.1c-0.1,0.7-1.1,1.6-1.8,1.7c-0.5,0.1-1.6-1-1.6-1.7
							c-0.1-0.7,0.8-1.5,1.2-2.2C32.2,174.8,32.5,174.7,32.8,174.7L32.8,174.7z"/>
						<path class="st3" d="M91.9,219c0.5,0.7,1.3,1.4,1.4,2.2c0.1,1.1-0.8,2-1.9,1.7c-0.7-0.2-1.6-1.1-1.7-1.7
							c0-0.7,0.8-1.5,1.3-2.2C91.3,219,91.6,219,91.9,219L91.9,219z"/>
						<path class="st3" d="M82.4,95.7c-0.4-0.8-1.2-1.5-1.2-2.2c0.1-0.6,1-1.5,1.7-1.7c1.1-0.2,2,0.7,1.8,1.8
							c-0.1,0.8-1,1.4-1.5,2.2C83,95.7,82.7,95.7,82.4,95.7L82.4,95.7z"/>
						<path class="st3" d="M137.4,109c-0.8,0.4-1.5,1.2-2.3,1.2c-1.1,0.1-1.9-0.9-1.6-1.9c0.2-0.7,1.2-1.6,1.8-1.6
							c0.7,0,1.4,0.9,2.1,1.4C137.5,108.4,137.4,108.7,137.4,109L137.4,109z"/>
						<path class="st3" d="M130.4,217.8c-0.7,0.5-1.4,1.4-2.2,1.4c-0.6,0-1.6-0.9-1.8-1.6c-0.3-1.1,0.5-2,1.7-1.9
							c0.8,0.1,1.5,0.8,2.3,1.3C130.4,217.2,130.4,217.5,130.4,217.8L130.4,217.8z"/>
						<path class="st3" d="M12.7,81.8c-0.7,0.5-1.6,1.3-2.2,1.2c-0.7-0.1-1.7-1.2-1.6-1.8c0-0.6,1.1-1.6,1.8-1.7
							c0.6-0.1,1.4,0.9,2.1,1.4C12.7,81.2,12.7,81.5,12.7,81.8z"/>
						<path class="st3" d="M138,252.9c0.5,0.7,1.2,1.5,1.3,2.2c0.1,1.1-0.8,2-1.9,1.6c-0.7-0.2-1.6-1.1-1.6-1.8
							c0-0.7,0.9-1.4,1.4-2.1C137.5,252.8,137.8,252.9,138,252.9L138,252.9z"/>
						<path class="st3" d="M116.1,106c0.5,0.7,1.4,1.5,1.3,2.2c-0.1,0.7-1.1,1.6-1.8,1.7c-0.5,0.1-1.6-1.1-1.6-1.7
							c-0.1-0.7,0.8-1.4,1.2-2.2C115.4,106,115.7,106,116.1,106z"/>
						<path class="st3" d="M16.8,170.1c-0.7,0.5-1.5,1.3-2.2,1.2c-0.6,0-1.5-1-1.7-1.7c-0.3-1.1,0.6-2,1.7-1.9
							c0.8,0.1,1.5,0.9,2.2,1.4L16.8,170.1z"/>
						<path class="st3" d="M126.8,105.6c0.4,0.7,1.3,1.5,1.2,2.2c-0.1,0.6-1.2,1.7-1.7,1.6c-0.7-0.1-1.7-1.1-1.8-1.8
							c-0.1-0.6,0.9-1.4,1.4-2.1C126.2,105.6,126.5,105.6,126.8,105.6z"/>
						<path class="st3" d="M137.3,180.4c-0.7,0.5-1.4,1.3-2.1,1.3c-0.6,0-1.8-1.1-1.7-1.6c0.1-0.7,1-1.8,1.7-1.9
							c0.6-0.1,1.4,0.8,2.2,1.2C137.3,179.8,137.3,180.1,137.3,180.4L137.3,180.4z"/>
						<path class="st3" d="M23.1,108.3c-0.7,0.5-1.5,1.3-2.2,1.3c-0.6,0-1.8-1.1-1.7-1.6c0.1-0.7,1-1.8,1.7-1.9
							c0.6-0.1,1.5,0.8,2.2,1.3C23.1,107.8,23.1,108.1,23.1,108.3L23.1,108.3z"/>
						<path class="st3" d="M79.1,90.8c-0.4-0.7-1.3-1.6-1.2-2.2c0.1-0.7,1.2-1.2,1.8-1.8c0.6,0.7,1.6,1.3,1.7,2
							c0.1,0.7-0.9,1.4-1.4,2.1C79.7,90.9,79.4,90.9,79.1,90.8z"/>
						<path class="st3" d="M71.1,155.6c0.4,0.8,1.2,1.6,1.1,2.3c-0.1,0.6-1.1,1.5-1.7,1.6c-1.1,0.2-2-0.7-1.8-1.8
							c0.2-0.8,1-1.4,1.5-2.1C70.5,155.6,70.8,155.6,71.1,155.6z"/>
						<path class="st3" d="M93.6,85.6c-0.7,0.5-1.5,1.4-2.1,1.3c-0.7-0.1-1.3-1.1-1.9-1.7c0.6-0.6,1.2-1.7,1.9-1.7
							c0.7-0.1,1.4,0.8,2.1,1.3C93.6,85.1,93.6,85.4,93.6,85.6z"/>
						<path class="st3" d="M81.3,211.6c0.5,0.7,1.3,1.5,1.3,2.2c0,0.6-0.9,1.6-1.6,1.7c-1.1,0.3-2-0.6-1.9-1.7
							c0.1-0.8,0.9-1.5,1.4-2.2C80.8,211.6,81,211.6,81.3,211.6L81.3,211.6z"/>
						<path class="st3" d="M62.7,131.7c-0.7,0.5-1.4,1.2-2.2,1.3c-1.2,0.2-2-0.8-1.7-1.8c0.2-0.7,1.1-1.6,1.7-1.6
							c0.7-0.1,1.5,0.8,2.2,1.3C62.7,131.1,62.7,131.4,62.7,131.7z"/>
						<path class="st3" d="M31.1,77.7c-0.3,1.7-1,2.5-2.1,2.2c-0.7-0.2-1.8-1.2-1.7-1.6c0.1-0.7,1-1.8,1.7-1.9
							C29.5,76.3,30.4,77.3,31.1,77.7z"/>
						<path class="st3" d="M130,141.3c-0.8,0.4-1.6,1.3-2.2,1.1c-0.7-0.1-1.6-1.3-1.6-1.9c0.1-0.6,1.2-1.6,1.9-1.6
							c0.6,0,1.3,1,2,1.5C130.1,140.7,130.1,141,130,141.3L130,141.3z"/>
						<path class="st3" d="M139,97.7c-0.7,0.4-1.5,1.2-2.2,1.3c-1.1,0.1-2-0.8-1.6-1.9c0.2-0.7,1.1-1.6,1.8-1.6
							c0.7,0,1.4,0.9,2.1,1.4C139,97.1,139,97.4,139,97.7L139,97.7z"/>
						<path class="st3" d="M122.8,105.1c-0.7,0.5-1.5,1.4-2.1,1.3c-0.7-0.1-1.7-1.2-1.7-1.8c0-0.6,1.1-1.6,1.8-1.7
							c0.6-0.1,1.4,0.8,2.1,1.3C122.8,104.6,122.8,104.9,122.8,105.1L122.8,105.1z"/>
						<path class="st3" d="M91.8,160.6c-0.7,0.5-1.4,1.2-2.2,1.3c-1.1,0.1-2-0.8-1.7-1.9c0.2-0.7,1.1-1.6,1.7-1.6
							c0.7,0,1.4,0.8,2.2,1.3C91.8,160.1,91.8,160.3,91.8,160.6L91.8,160.6z"/>
						<path class="st3" d="M107.1,70.5c-0.7,0.5-1.4,1.4-2.2,1.4c-0.6,0-1.6-0.9-1.8-1.6c-0.3-1.1,0.6-2,1.7-1.9
							c0.8,0.1,1.5,0.9,2.2,1.3C107.1,69.9,107.1,70.2,107.1,70.5L107.1,70.5z"/>
						<path class="st3" d="M35.8,104.5c-0.7,0.5-1.6,1.4-2.2,1.3c-0.7-0.1-1.5-1.2-1.6-1.9c-0.1-0.5,1.1-1.5,1.7-1.6
							c0.7,0,1.4,0.8,2.2,1.3C35.8,103.9,35.8,104.2,35.8,104.5L35.8,104.5z"/>
						<path class="st3" d="M9.4,67.9c0.5,0.7,1.3,1.4,1.5,2.1c0.2,1.1-0.7,2-1.8,1.8c-0.7-0.1-1.7-1-1.7-1.6
							c-0.1-0.7,0.7-1.5,1.2-2.2C8.8,67.9,9.1,67.9,9.4,67.9L9.4,67.9z"/>
						<path class="st3" d="M118.2,63.2c0.4,0.7,1.3,1.6,1.2,2.2c-0.1,0.7-1.2,1.2-1.8,1.8c-0.6-0.7-1.6-1.3-1.6-2
							c-0.1-0.6,0.9-1.4,1.4-2C117.7,63.2,117.9,63.2,118.2,63.2L118.2,63.2z"/>
						<path class="st3" d="M134,204.9c0.7-0.4,1.5-1.3,2.2-1.2c0.6,0.1,1.7,1.2,1.6,1.7c-0.1,0.7-1.1,1.7-1.8,1.8
							c-0.6,0.1-1.4-0.9-2.1-1.4C134,205.5,134,205.2,134,204.9L134,204.9z"/>
						<path class="st3" d="M52.1,81.5c-0.5-0.7-1.4-1.4-1.3-2.1c0-0.6,1.1-1.8,1.6-1.7c0.7,0.1,1.8,1,1.9,1.7
							c0.1,0.6-0.8,1.4-1.2,2.2C52.7,81.5,52.4,81.5,52.1,81.5L52.1,81.5z"/>
						<path class="st3" d="M120.7,123.3c-0.7,0.5-1.5,1.5-2.1,1.4c-0.7-0.1-1.6-1.1-1.8-1.8c-0.1-0.5,1-1.6,1.6-1.7
							c0.7-0.1,1.5,0.7,2.2,1.2C120.6,122.7,120.6,123,120.7,123.3L120.7,123.3z"/>
						<path class="st3" d="M30.6,102.9c-0.7,0.5-1.4,1.2-2.2,1.3c-1.1,0.1-2-0.8-1.7-1.9c0.2-0.7,1.1-1.6,1.7-1.6
							c0.7,0,1.4,0.8,2.2,1.3C30.7,102.4,30.7,102.7,30.6,102.9z"/>
						<path class="st3" d="M121.5,170.1c-0.5-0.7-1.4-1.4-1.4-2.2c0-0.6,0.9-1.6,1.6-1.8c1.1-0.3,2,0.5,1.9,1.6
							c-0.1,0.8-0.8,1.5-1.3,2.2C122.1,170,121.8,170.1,121.5,170.1L121.5,170.1z"/>
						<path class="st3" d="M36.5,82.2c0.5,0.7,1.3,1.4,1.3,2.2c0,0.6-0.9,1.6-1.6,1.8c-1.1,0.3-2-0.6-1.9-1.7
							c0.1-0.8,0.8-1.5,1.3-2.2C35.9,82.2,36.2,82.2,36.5,82.2L36.5,82.2z"/>
						<path class="st3" d="M143.1,200.1c-0.7,0.5-1.4,1.3-2.1,1.5c-1.1,0.2-2-0.6-1.8-1.8c0.1-0.7,1-1.7,1.6-1.7
							c0.7-0.1,1.5,0.7,2.3,1.2C143,199.5,143.1,199.8,143.1,200.1L143.1,200.1z"/>
						<path class="st3" d="M89,167.9c-0.7,0.5-1.5,1.4-2.1,1.4c-0.7-0.1-1.6-1.1-1.7-1.8c-0.1-0.5,1-1.6,1.7-1.7
							c0.7-0.1,1.5,0.8,2.2,1.2C89,167.3,89,167.6,89,167.9L89,167.9z"/>
						<path class="st3" d="M26.9,125.6c-0.7,0.5-1.4,1.3-2.2,1.4c-1.1,0.1-2-0.8-1.7-1.9c0.2-0.7,1.1-1.6,1.7-1.7
							c0.7,0,1.4,0.8,2.2,1.3C26.9,125,26.9,125.3,26.9,125.6L26.9,125.6z"/>
						<path class="st3" d="M80.1,147.1c-0.7,0.4-1.5,1.3-2.2,1.2c-0.6-0.1-1.8-1.2-1.7-1.6c0.1-0.7,1.1-1.7,1.8-1.8
							c0.6-0.1,1.4,0.9,2.1,1.4C80.1,146.5,80.1,146.8,80.1,147.1z"/>
						<path class="st3" d="M68.9,133.8c0.4,0.7,1.3,1.6,1.2,2.2c-0.1,0.7-1.2,1.7-1.8,1.7c-0.6,0-1.6-1.1-1.7-1.8
							c-0.1-0.6,0.9-1.4,1.4-2.1L68.9,133.8L68.9,133.8z"/>
						<path class="st3" d="M85.4,200.1c-0.5-0.7-1.3-1.4-1.4-2.2c-0.1-1.1,0.8-2,1.9-1.7c0.7,0.2,1.6,1.1,1.6,1.7
							c0,0.7-0.8,1.4-1.3,2.2C85.9,200.1,85.6,200.1,85.4,200.1L85.4,200.1z"/>
						<path class="st3" d="M27.6,130.8c-0.7,0.5-1.4,1.3-2.2,1.4c-1.1,0.1-2-0.7-1.7-1.9c0.2-0.7,1.1-1.6,1.7-1.7
							c0.7,0,1.5,0.8,2.2,1.3C27.6,130.2,27.6,130.5,27.6,130.8z"/>
						<path class="st3" d="M112.5,83.2c-0.7,0.5-1.5,1.5-2.1,1.4c-0.7-0.1-1.6-1.1-1.8-1.8c-0.1-0.5,1-1.6,1.6-1.7
							c0.7-0.1,1.5,0.7,2.2,1.2C112.5,82.6,112.5,82.9,112.5,83.2L112.5,83.2z"/>
						<path class="st3" d="M60.8,162.5c0.5,0.7,1.2,1.4,1.3,2.2c0.1,1.1-0.8,2-1.9,1.7c-0.7-0.2-1.6-1.1-1.6-1.7
							c0-0.7,0.8-1.4,1.3-2.2C60.2,162.5,60.5,162.5,60.8,162.5L60.8,162.5z"/>
						<path class="st3" d="M130.6,193.1c-0.7,0.4-1.5,1.3-2.2,1.2c-0.6-0.1-1.8-1.2-1.7-1.6c0.2-0.7,1.1-1.7,1.8-1.8
							c0.6-0.1,1.4,0.9,2.1,1.4C130.7,192.5,130.7,192.8,130.6,193.1L130.6,193.1z"/>
						<path class="st3" d="M122.4,89c0.4,0.7,1.3,1.5,1.2,2.2c-0.1,0.6-1,1.5-1.7,1.7c-1.1,0.2-2-0.7-1.8-1.8
							c0.1-0.8,0.9-1.4,1.4-2.1L122.4,89L122.4,89z"/>
						<path class="st3" d="M130.4,81.4c0.5,0.7,1.3,1.5,1.3,2.2c-0.1,0.6-1.1,1.8-1.6,1.7c-0.7-0.1-1.7-1-1.9-1.7
							c-0.1-0.6,0.8-1.4,1.3-2.2C129.8,81.4,130.1,81.4,130.4,81.4L130.4,81.4z"/>
						<path class="st3" d="M142.9,127.9c-0.7,0.5-1.5,1.4-2.1,1.3c-0.7-0.1-1.6-1.1-1.7-1.8c-0.1-0.5,1-1.6,1.7-1.6
							c0.7-0.1,1.4,0.8,2.2,1.2C142.9,127.3,142.9,127.6,142.9,127.9L142.9,127.9z"/>
						<path class="st3" d="M115.2,138.2c-0.7,0.5-1.4,1.3-2.2,1.4c-1.1,0.2-2-0.7-1.7-1.8c0.2-0.7,1.1-1.6,1.7-1.7
							c0.7,0,1.5,0.8,2.2,1.3C115.2,137.6,115.2,137.9,115.2,138.2L115.2,138.2z"/>
						<path class="st3" d="M16.8,128.9c-0.8,0.4-1.5,1.2-2.2,1.3c-1.1,0.1-1.9-0.8-1.6-1.9c0.2-0.7,1.1-1.6,1.8-1.6
							c0.7,0,1.4,0.9,2.2,1.4C16.8,128.3,16.8,128.6,16.8,128.9z"/>
						<path class="st3" d="M33.3,66.4c-0.7,0.5-1.5,1.3-2.2,1.3c-0.6,0-1.8-1.1-1.7-1.6c0.1-0.7,1-1.8,1.7-1.9
							c0.6-0.1,1.4,0.8,2.2,1.3C33.3,65.8,33.3,66.1,33.3,66.4z"/>
						<path class="st3" d="M96.4,126.6c0.5,0.7,1.3,1.5,1.3,2.2c0,0.6-1,1.5-1.7,1.7c-1.1,0.3-2-0.7-1.8-1.8
							c0.1-0.8,0.9-1.4,1.4-2.2C95.8,126.5,96.1,126.5,96.4,126.6z"/>
						<path class="st3" d="M122.9,189.4c-0.7,0.4-1.4,1.2-2.2,1.3c-1.2,0.1-1.9-0.8-1.7-1.9c0.2-0.7,1.2-1.6,1.8-1.6
							c0.7,0,1.4,0.9,2.1,1.4C122.9,188.8,122.9,189.1,122.9,189.4L122.9,189.4z"/>
						<path class="st3" d="M11.9,243.5c0.5,0.7,1.4,1.4,1.3,2.1c0,0.6-0.9,1.6-1.6,1.8c-1.1,0.3-2-0.5-1.9-1.6
							c0.1-0.8,0.8-1.5,1.3-2.2L11.9,243.5L11.9,243.5z"/>
						<path class="st3" d="M73.8,80.9c-0.7,0.4-1.5,1.3-2.2,1.2C71,82,69.9,80.9,70,80.5c0.1-0.7,1-1.7,1.7-1.8
							c0.6-0.1,1.4,0.8,2.2,1.3C73.8,80.3,73.8,80.6,73.8,80.9L73.8,80.9z"/>
						<path class="st3" d="M57.8,79.4c0.5,0.8,1.3,1.6,1.2,2.2c-0.1,0.7-1.2,1.5-1.9,1.6c-0.5,0.1-1.5-1.1-1.5-1.7
							c0-0.7,0.9-1.4,1.3-2.1C57.2,79.3,57.5,79.4,57.8,79.4L57.8,79.4z"/>
						<path class="st3" d="M141.3,162.4c0.5,0.7,1.4,1.5,1.3,2.1c-0.1,0.7-1.1,1.6-1.8,1.7c-0.5,0.1-1.6-1-1.6-1.7
							c-0.1-0.7,0.8-1.4,1.2-2.2H141.3L141.3,162.4z"/>
						<path class="st3" d="M117.2,164.1c0.5,0.7,1.2,1.4,1.3,2.2c0.1,1.1-0.8,2-1.9,1.7c-0.7-0.2-1.6-1.1-1.6-1.7
							c0-0.7,0.9-1.4,1.4-2.2C116.6,164,116.9,164,117.2,164.1L117.2,164.1z"/>
						<path class="st3" d="M33.3,112.1c0.5,0.7,1.3,1.4,1.4,2.2c0.2,1.1-0.8,2-1.9,1.7c-0.7-0.2-1.6-1.1-1.6-1.7
							c0-0.7,0.8-1.5,1.3-2.2C32.7,112.1,33,112.1,33.3,112.1L33.3,112.1z"/>
						<path class="st3" d="M104.2,193.5c-0.7,0.5-1.4,1.3-2.2,1.4c-1.1,0.1-2-0.7-1.7-1.9c0.2-0.7,1.1-1.6,1.7-1.7
							c0.7-0.1,1.5,0.8,2.2,1.2C104.1,192.9,104.1,193.2,104.2,193.5L104.2,193.5z"/>
						<path class="st3" d="M125.2,126.2c-0.7,0.4-1.5,1.3-2.2,1.2c-0.7-0.1-1.6-1.1-1.7-1.8c-0.2-1.1,0.7-1.9,1.8-1.7
							c0.8,0.2,1.4,1,2.1,1.5C125.2,125.7,125.2,125.9,125.2,126.2L125.2,126.2z"/>
						<path class="st3" d="M131.5,65.3c0.7-0.5,1.4-1.5,2.1-1.4c0.7,0,1.6,1,1.8,1.7c0.3,1.1-0.6,2-1.7,1.8
							c-0.8-0.1-1.5-0.8-2.2-1.3C131.6,65.9,131.5,65.6,131.5,65.3L131.5,65.3z"/>
						<path class="st3" d="M123.2,162.6c-0.7,0.4-1.5,1.3-2.2,1.2c-0.6-0.1-1.6-1-1.7-1.7c-0.2-1.1,0.6-2,1.8-1.8
							c0.8,0.1,1.4,0.9,2.2,1.4C123.2,162,123.2,162.3,123.2,162.6L123.2,162.6z"/>
						<path class="st3" d="M62,114c-0.5-0.7-1.2-1.4-1.3-2.2c-0.1-1.1,0.8-2,1.9-1.7c0.7,0.2,1.6,1.1,1.6,1.8c0,0.7-0.9,1.4-1.4,2.2
							C62.6,114,62.3,114,62,114L62,114z"/>
						<path class="st3" d="M31.2,104.8c0.4,0.7,1.3,1.5,1.2,2.2c-0.1,0.6-1,1.6-1.7,1.7c-1.1,0.2-2-0.6-1.8-1.8
							c0.1-0.8,0.9-1.4,1.4-2.2C30.6,104.8,30.9,104.8,31.2,104.8L31.2,104.8z"/>
						<path class="st3" d="M109.2,86.3c0.5,0.7,1.2,1.4,1.4,2.2c0.2,1.1-0.7,2-1.8,1.8c-0.7-0.2-1.7-1.1-1.7-1.7
							c-0.1-0.7,0.8-1.5,1.2-2.2C108.6,86.3,108.9,86.3,109.2,86.3z"/>
						<path class="st3" d="M73.9,108.2c-0.7,0.5-1.5,1.4-2.2,1.3c-0.7-0.1-1.2-1.1-1.9-1.8c0.6-0.6,1.2-1.6,1.9-1.7
							c0.7-0.1,1.4,0.8,2.1,1.3C73.9,107.6,73.9,107.9,73.9,108.2z"/>
						<path class="st3" d="M116.5,72.6c0.4,0.7,1.3,1.6,1.2,2.2c-0.1,0.7-1.2,1.2-1.8,1.8c-0.6-0.7-1.6-1.3-1.7-2
							c-0.1-0.6,0.9-1.4,1.4-2.1C115.9,72.5,116.2,72.6,116.5,72.6L116.5,72.6z"/>
						<path class="st3" d="M11.8,221.4c-0.7,0.5-1.5,1.4-2.1,1.3c-0.7-0.1-1.6-1.1-1.7-1.9c-0.1-0.5,1-1.6,1.7-1.6
							c0.7-0.1,1.4,0.8,2.2,1.2C11.8,220.8,11.8,221.1,11.8,221.4L11.8,221.4z"/>
						<path class="st3" d="M126.5,156.8c-0.8,0.4-1.5,1.2-2.2,1.2c-0.6-0.1-1.7-1.2-1.6-1.7c0.2-0.7,1.1-1.7,1.8-1.8
							c0.6-0.1,1.4,0.9,2.1,1.4C126.5,156.2,126.5,156.5,126.5,156.8z"/>
						<path class="st3" d="M15.5,67.5c-0.7,0.5-1.5,1.3-2.2,1.2c-0.6-0.1-1.8-1.2-1.7-1.6c0.1-0.7,1-1.7,1.7-1.8
							c0.6-0.1,1.4,0.8,2.1,1.3C15.5,66.9,15.5,67.2,15.5,67.5z"/>
						<path class="st3" d="M60.6,81.6c0.7-0.5,1.4-1.3,2.2-1.4c1.1-0.2,2,0.7,1.7,1.8c-0.2,0.7-1.1,1.7-1.7,1.7
							c-0.7,0-1.5-0.8-2.2-1.3C60.6,82.2,60.6,81.9,60.6,81.6L60.6,81.6z"/>
						<path class="st3" d="M40.8,137.7c-0.7,0.5-1.5,1.5-2.1,1.4c-0.7-0.1-1.7-1.1-1.8-1.8c-0.1-0.5,1-1.6,1.6-1.7
							c0.7-0.1,1.5,0.8,2.2,1.2C40.8,137.2,40.8,137.5,40.8,137.7L40.8,137.7z"/>
					</g>
				</g>
			</g>
		</g>
	</g>
</g>
<path class="st3" d="M95.4,56.1c0-0.4,0-0.7,0-1.1v-0.3c-0.1-0.4-0.2-0.8-0.3-1.3c0,0,0,0,0,0c-0.1-0.6-0.4-1.1-0.6-1.7
	c-0.3-0.6-0.6-1.2-0.9-1.8c-0.4-0.4-0.8-0.9-1.2-1.3c-0.9-0.9-2-1.7-3.1-2.5c-0.5-0.3-0.7-0.9-0.8-1.4c0,0,0-0.1,0-0.1
	c-3.8-2.8-7.7-5.6-11.8-8.6c0,0,0,0,0,0c0,0-0.1,0-0.1-0.1L67.9,30l-3-14.7l-1-2.1h-1.3v9.3l-0.8,12.7c-1.6,2.3-4,4.6-6.3,6.8
	c-2.4,2.4-6.5,4.4-5.9,7.3c0,0.1-0.2,0.3-0.5,0.4c-2.3,1.4-3.6,3-4.3,4.6c-0.1,0.4-0.3,0.8-0.5,1.3v0.1c0,0,0,0,0,0.1v0c0,0,0,0,0,0
	l0.2,5.4c0,0,0,0,0,0l7.7,264.6c0,0,0,0,0,0v0.1c0,0,0,0,0,0l3.3,116c0,4.6,6.4,8.2,14.4,8.2h0.1c3.8,0,7.4-0.8,10.1-2.4
	c2.8-1.5,4.3-3.6,4.3-5.8h0l2.9-114.4L95.3,62l0.2-5.6C95.4,56.3,95.4,56.2,95.4,56.1z M83.6,441.7L83.6,441.7c0,1.8-1.4,3.6-3.8,5
	c-2.6,1.4-6,2.2-9.6,2.2h-0.1c-7.3,0-13.3-3.2-13.3-7.1h-0.6l0.6,0l-3.2-112c2.6,4.1,8.9,6.9,16.3,6.9H70c4.7,0,9-1.1,12.3-3.2
	c1.8-1.1,3.1-2.4,4-3.8L83.6,441.7z M86.6,326.9c-0.1,0.1-0.2,0.3-0.3,0.4c-0.2,0.6-0.4,1.1-0.8,1.6c0,0,0,0,0,0
	c-0.8,1.3-2,2.5-3.7,3.6c-3.1,1.9-7.3,3-11.8,3c-7.7,0-14.1-3.1-15.9-7.3c-0.2-0.3-0.3-0.5-0.5-0.8c-0.1-0.1-0.2-0.2-0.3-0.4
	L45.7,61c0,0,0,0,0,0l-0.1-3.6c0,0,0,0,0,0c0-0.2,0-0.5,0.1-0.7c0.1-0.2,0.2-0.5,0.3-0.7c0,0,0-0.1,0-0.1c0.1-0.3,0.2-0.5,0.4-0.7
	c0.2-0.6,0.5-1.2,0.7-1.8c0.1-0.2,0.2-0.4,0.4-0.6c0.1-0.5,0.5-1,1.1-1.3c0.4-0.2,0.8-0.4,1.4-0.4c0,0,0-0.1,0-0.1
	c0.1,0,0.2,0.1,0.3,0.1c0.5,0,0.9,0.1,1.3,0.3c0.3,0.1,0.7,0.2,1,0.4c0.1,0.1,0.2,0.1,0.2,0.1c0.2,0.1,0.4,0.2,0.6,0.3
	c0.4,0.2,0.9,0.4,1.3,0.6c0.9,0.3,1.8,0.7,2.6,1c0.5,0.2,0.9,0.4,1.4,0.6c0.1,0,0.2,0.1,0.2,0.1c0.1,0,0.1,0,0.2,0.1
	c0.3,0.1,0.5,0.1,0.8,0.2c0.4,0.1,0.9,0.2,1.3,0.3c-2.9-1.8-5.8-3.5-7.7-5.4c-2.9-3,3.1-5,5.6-8c3.2,4.1,6.1,7.7,9,11.3
	c0.5-0.1,0.9-0.1,1.4-0.2c-1.9-4.5-8.7-8.5-8.2-13.8c4.7,2.8,8.7,5.2,12.7,7.7c-2-3.8-10.5-6.3-10.1-10.9c5.4,3.5,10.3,6.7,15.3,9.8
	c-3.5-4.4-11.8-7.8-12.6-12.9C78,38.3,85.6,44.7,91.8,51.4c0.3,0.3,0.4,0.7,0.4,1.1c0.1,0.1,0.1,0.1,0.1,0.2c0,0.1,0.1,0.1,0.1,0.2
	c0.4,0.3,0.8,0.7,1,1.2c0.3,0.7,0.5,1.5,0.6,2.3c0,0,0.1,0.1,0.1,0.1l0.3,0.5c0.1,0.3,0.1,0.6,0.1,0.9c0,0.1,0,0.2-0.1,0.3
	c0,0.3,0,0.5,0,0.8L94.3,62L86.6,326.9z"/>
</svg>
