<?xml version="1.0" encoding="UTF-8"?>
<svg id="Layer_14" data-name="Layer 14" xmlns="http://www.w3.org/2000/svg" xmlns:xlink="http://www.w3.org/1999/xlink" viewBox="0 0 140 450">
  <defs>
    <style>
      .cls-1 {
        stroke: #fff;
        stroke-dasharray: 0 0 12.42 12.42;
        stroke-miterlimit: 10;
      }

      .cls-1, .cls-2 {
        fill: none;
      }

      .cls-2, .cls-3 {
        stroke-width: 0px;
      }

      .cls-4 {
        clip-path: url(#clippath-1);
      }

      .cls-3 {
        fill: #fff;
      }

      .cls-5 {
        clip-path: url(#clippath);
      }
    </style>
    <clipPath id="clippath">
      <polygon class="cls-2" points="93.56 78.7 91.32 158.14 70.24 155.55 56.9 102.14 80.16 78.7 93.56 78.7"/>
    </clipPath>
    <clipPath id="clippath-1">
      <circle class="cls-2" cx="102.74" cy="118.41" r="35.58"/>
    </clipPath>
  </defs>
  <g>
    <circle class="cls-1" cx="102.95" cy="118.42" r="35.58"/>
    <g class="cls-5">
      <g class="cls-4">
        <g>
          <path class="cls-3" d="m22.66,60.04c.38-.54.67-.95,1-1.42-1.15-2.19-.84-2.69,1.86-3.44.77-.21,1.34-1.11,2.14-1.81-.53-1.43-.36-2.76,1.54-3.24-.06-.79-.12-1.51-.18-2.25-.39-.15-.98-.18-1.15-.47-.38-.63-.88-1.48-.71-2.06.17-.57,1.12-1.26,1.71-1.25.6.01,1.62.78,1.67,1.29.11,1.08.57,1.46,1.44,1.95,1.26.71,1.02,2.2-.29,3.18-.35.26-.51.78-.63.98,1.51.36,2.66.64,3.81.91,1.04-.14,2.23-.51,3.01.8.69,1.16.23,2.1-.93,2.78-.19.11-.26.63-.2.93.26,1.25-.17,2.2-1.39,2.36-.62.08-1.6-.39-1.96-.92-.73-1.06-.17-1.97.9-2.58.19-.11.33-.3.55-.76-1.8.48-3.49.8-4.1-1.52-.49.22-.87.39-1.23.55.56,2.43.29,2.71-2.03,3.3-.71.18-1.26,1-1.89,1.54.93,1.15,1.43,2.35.07,3.28-1.41.96-2.41.15-3.09-1.3-1.09,1.04-2.36,1.83-3.38.29-.36-.54-.09-2.12.43-2.5,1.36-1.02,2.39-.16,3.06,1.38Z"/>
          <path class="cls-3" d="m62.49,67.43c.64,1.95,1.84.55,2.66.71.13-.85.03-1.76.43-2.32.33-.47,1.35-.85,1.87-.68.6.2,1.06,1.01,1.45,1.63.22.35.02,1.12.27,1.27,1.32.78,1.79,1.82.81,3.04-1.03,1.29-2.18.63-3.21-.25-1.16,1.17-2.34,1.66-3.62.21-.13-.15-.54-.17-.77-.1-1.22.37-2.3.26-2.67-1.12-.42-1.57.57-2.25,1.95-2.52-.97-1.84-.85-3.12.4-3.55,1.04-.36,1.98-.13,2.44,1.01.5,1.24-.16,2.13-2,2.68Z"/>
          <path class="cls-3" d="m87.16,61.96c-.34-1.41-.19-2.69,1.4-2.89.62-.08,1.71.59,1.97,1.18.67,1.52-.52,2.18-1.89,2.69.19,1.86.12,3.79.65,5.54.36,1.2,1.38,2.39,2.42,3.14.91.65,1.69,1.22,1.31,2.28-.22.61-1.24,1.49-1.6,1.37-.77-.26-1.36-1.08-1.98-1.71-.13-.14-.08-.46-.11-.72-1.73-.27-2.64-1.07-2.1-2.93.06-.21-.2-.63-.43-.78-1.03-.7-1.31-1.55-.79-2.71.11-.24,0-.67-.16-.92-1.13-1.88-.91-2.59,1.31-3.53Z"/>
          <path class="cls-3" d="m98.27,59.45c-.21.85-.44,1.69-.64,2.54-.13.55-.1,1.17-.34,1.66-.3.61-.71,1.36-1.26,1.6-.47.2-1.4-.05-1.8-.43-.39-.38-.63-1.26-.48-1.8.37-1.38,1-2.69,1.5-3.97-1.4,0-2.65.16-3.81-.09-.37-.08-.51-1.24-.85-2.15-1.04-.29-2.55-.72-1.91-2.52.21-.6,1.27-1.29,1.91-1.26,1.47.08,1.77,1.29,1.6,2.73.56,0,1.21.2,1.56-.04.96-.66,2.03-1.12,2.79-.14.53.68.45,1.82.27,2.86.5.35,1,.7,1.5,1.05l-.04-.05Z"/>
          <path class="cls-3" d="m128.07,70.72c1.85.52,2.1,1.05,1.3,3.25-.16.45.19,1.07.05,1.54-.2.65-.49,1.45-1.01,1.78-.44.28-1.4.21-1.84-.11-.44-.32-.77-1.14-.74-1.72.07-1.27.4-2.52.6-3.63-1.02-.53-1.81-.94-2.61-1.36-.02.14-.03.28-.05.42-1.06-.18-2.21-.17-3.11-.64-.29-.15-.1-2.2.2-2.29.98-.3,2.12-.1,3.22.02.9,0,1.97-.3,2.64.09.61.35.77,1.46,1.34,2.67Z"/>
          <path class="cls-3" d="m29.57,72.34c-.78-.27-1.14-.29-1.34-.48-.68-.66-1.29-1.08-2.35-.62-.37.16-1.47-.34-1.53-.67-.25-1.41-1.36-2.01-2.28-2.8-.41-.35-.96-.52-1.37-.87-.61-.51-1.47-1.05-1.6-1.7-.11-.53.59-1.64,1.12-1.78.64-.17,1.5.35,2.23.67.54.23,1.02.58,1.51.91.49.33,1.23.61,1.38,1.06.62,1.93,1.75,2.7,3.79,2.4,1.16-.17,1.98.71,1.8,1.81-.13.77-.93,1.44-1.37,2.06Z"/>
          <path class="cls-3" d="m45.12,60.42c-.65.59-1.31,1.18-2.07,1.87.34,1.01.52,2.37-1.08,2.74-.65.15-1.95-.41-2.2-.98-.65-1.51.29-2.42,1.81-2.66-.14-.75-.26-1.39-.39-2.12-1.35.18-2.75.03-2.76-1.69,0-.65.9-1.76,1.54-1.88,1.54-.29,2.09.91,2.24,2.41,1.78-.23,2.86.47,2.89,2.37l.04-.05Z"/>
          <path class="cls-3" d="m69.9,73.59c.94,0,1.98-.24,2.78.09.44.18.87,1.59.61,1.99-.48.73-1.47,1.11-2.45,1.78-.48.5-1.07,1.5-1.92,1.81-.46.17-1.99-.91-1.94-1.29.2-1.56-2.38-3.41.28-4.6.69-.31,1.77.26,2.67.42-.02-.07-.03-.14-.05-.21Z"/>
          <path class="cls-3" d="m96.78,88.15c1.19,0,2.59-.03,2.7,1.5.06.81-.68,1.68-1.16,2.75.97,1.2,1.07,2.36-.04,3.12-.98.66-1.89.48-2.58-.44-.8-1.07-.35-2.09,1.36-3.09-1.59-1.22-1.43-2.55-.2-3.9l-.07.07Z"/>
          <path class="cls-3" d="m85.64,74.66c1.51.13,2.7.74,2.2,2.39-.19.61-1.34,1.35-2,1.3-1.48-.11-1.73-1.31-1.43-2.7-1.3-.34-2.82-.73-2.28-2.51.18-.61,1.67-1.46,1.96-1.27.84.55,1.38,1.56,2.04,2.39-.16.14-.32.27-.48.41Z"/>
          <path class="cls-3" d="m72.19,95.49c-1.57.06-2.74-.3-2.75-1.93,0-1.16.76-1.84,1.94-1.76,1.72.12,1.83,1.37,1.66,2.85,1.47.03,2.93.36,2.58,2.2-.12.63-1.25,1.52-1.88,1.5-1.57-.06-1.97-1.25-1.54-2.86Z"/>
          <path class="cls-3" d="m43.35,79.34c.85,1.22,1.21,2.53-.34,3.25-.58.27-1.98-.11-2.32-.64-.95-1.44,0-2.39,1.43-2.96-.72-1.23-1.27-2.57.34-3.31.59-.27,1.98.12,2.34.66.99,1.46-.12,2.35-1.45,3Z"/>
          <path class="cls-3" d="m63.87,104.67c-1.34.57-2.74.84-3.19-.83-.17-.63.5-1.99,1.11-2.24,1.43-.6,2.29.33,2.49,1.9,1.38-.51,2.85-.88,3.31.91.16.62-.46,1.9-1.04,2.16-1.55.68-2.33-.41-2.68-1.89Z"/>
          <path class="cls-3" d="m128.56,87.61c.86-1.3,1.97-1.97,3.1-.88.48.46.61,1.96.23,2.51-.92,1.31-2.13.73-3.2-.28-.9,1.17-2.02,2.09-3.26.75-.43-.47-.49-1.88-.1-2.4.95-1.28,2.14-.75,3.24.31Z"/>
          <path class="cls-3" d="m98.41,81.2c1.28-.04,2.57.18,2.5,1.71-.03.69-.82,1.76-1.45,1.92-1.57.39-2.1-.84-2.29-2.22-1.34-.04-2.7-.27-2.53-1.94.06-.64.87-1.58,1.49-1.72,1.61-.36,2.05.92,2.28,2.25Z"/>
          <path class="cls-3" d="m128.46,119.66c-.61-1.4-.84-2.71.74-3.18.63-.19,1.93.32,2.25.88.85,1.53-.37,2.29-1.64,2.86.62,1.23.94,2.56-.59,3.1-.64.23-2.03-.27-2.37-.86-.82-1.4.27-2.23,1.61-2.81Z"/>
          <path class="cls-3" d="m138.75,61.49c1.54.48,2.44,1.39,1.72,2.78-.3.57-1.57,1.09-2.22.92-1.45-.36-1.45-1.61-.93-2.94-1.21-.55-2.5-1.29-1.69-2.83.3-.57,1.57-1.07,2.23-.92,1.47.34,1.46,1.6.89,2.99Z"/>
          <path class="cls-3" d="m97.34,138.03c1-1.02,2.16-1.45,3.06-.29.41.52.4,1.93-.02,2.42-1.13,1.33-2.29.59-3.21-.58-1.08,1-2.28,1.53-3.21.25-.38-.53-.3-1.93.14-2.42,1.19-1.34,2.3-.3,3.24.62Z"/>
          <path class="cls-3" d="m136.27,88.83c.46-1.48,1.19-2.58,2.67-1.87.6.28,1.22,1.5,1.08,2.15-.32,1.6-1.69,1.47-3.02,1.09-.58,1.18-1.23,2.55-2.8,1.75-.59-.3-1.16-1.53-1.02-2.18.36-1.58,1.68-1.5,3.08-.94Z"/>
          <path class="cls-3" d="m73.67,67.27c0-1.56.43-2.8,2.06-2.5.65.12,1.57,1.14,1.61,1.79.08,1.61-1.25,1.87-2.69,1.85,0,1.39-.46,2.66-2.02,2.4-.67-.11-1.62-1.25-1.64-1.95-.03-1.46,1.18-1.83,2.67-1.6Z"/>
          <path class="cls-3" d="m134.08,80.23c1.45,1.79,3.22,1.61,4.71,2.18,1.01.38,1.24,1.74.34,2.46-.59.47-2.08.71-2.51.32-.82-.74-1.46-.83-2.48-.74-1.17.11-1.89-.79-1.65-1.91.16-.74.89-1.35,1.58-2.32Z"/>
          <path class="cls-3" d="m133.34,69.77c.53-1.3,1.42-2.22,2.81-1.46.55.3,1.07,1.47.93,2.09-.37,1.54-1.62,1.62-2.78,1.61-1.01.36-2.02.92-3.05.96-.31.01-1.08-1.5-.94-2.16.35-1.65,1.77-1.31,3.04-1.03Z"/>
          <path class="cls-3" d="m91.15,91.96c-1.49-.44-2.67-1.21-1.91-2.77.29-.59,1.76-1.16,2.37-.92,1.57.61,1.35,1.96.45,3.23,1.51.46,2.7,1.22,1.92,2.78-.29.58-1.75,1.13-2.36.9-1.58-.61-1.32-1.95-.46-3.22Z"/>
          <path class="cls-3" d="m142.54,68.56c-.56,1.23-1.23,2.58-2.79,1.72-.59-.32-1.12-1.7-.91-2.34.51-1.55,1.84-1.28,3.1-.65.47-1.29,1.07-2.47,2.74-1.87,1.12.41,1.46,1.38,1.03,2.4-.64,1.5-1.89,1.26-3.17.74Z"/>
          <path class="cls-3" d="m104.23,97.86c.21-.13.42-.39.61-.37.88.09,1.9.03,2.57.47.34.22.32,1.83-.03,2.07-.76.5-1.84.52-2.87.46-.78.94-1.5,2.45-3.22,1.34-.53-.34-.92-1.73-.66-2.31.69-1.51,2-1.32,3.29-.32.16-.59.26-1,.37-1.4l-.07.07Z"/>
          <path class="cls-3" d="m77.79,139.98c-.78.75-1.32,1.7-1.92,1.73-.7.04-1.49-.66-2.16-1.16-.49-.37-.87-.89-1.22-1.4-.45-.65-1.21-1.4-1.13-2.01.09-.59,1.05-1.45,1.66-1.47.61-.02,1.27.81,1.86,1.33.44.38.8.84,1.2,1.26.48.49.97.98,1.7,1.71Z"/>
          <path class="cls-3" d="m55.42,108.78c-.16,1.37-.59,2.65-2.2,2.31-.63-.13-1.49-1.03-1.57-1.66-.19-1.62,1.11-1.95,2.48-2.04.12-1.39.64-2.58,2.19-2.32.62.11,1.48,1.04,1.56,1.69.2,1.61-1.08,1.97-2.47,2.02Z"/>
          <path class="cls-3" d="m50.79,66.09c-1.41-.05-2.35-1.65-1.48-2.79.6-.79.58-1.37.47-2.26-.07-.59.5-1.6,1.05-1.84.54-.24,1.67.03,2.04.48.38.46.23,1.43.19,2.17-.04.68-.39,1.36-.36,2.03.04,1.27-.73,2.26-1.9,2.21Z"/>
          <path class="cls-3" d="m141.5,74.95c-1.14.68-2.41,1.22-3.21-.17-.33-.57-.11-1.93.37-2.39,1.17-1.13,2.22-.28,3.05.79,1.15-.71,2.41-1.25,3.21.14.33.57.14,1.93-.34,2.39-1.16,1.13-2.22.3-3.08-.75Z"/>
          <path class="cls-3" d="m128.76,80.49c-.35.7-.46,1.25-.8,1.54-1.2,1.03-2.41,2.06-3.76,2.86-.24.14-1.48-.72-1.63-1.29-.16-.58.26-1.68.77-1.99.79-.48,1.4-.85,1.82-1.77.22-.49,1.35-.91,1.97-.8.6.11,1.08.93,1.63,1.46Z"/>
          <path class="cls-3" d="m15.28,74.79c-.7-.68-1.49-1.09-1.6-1.64-.13-.65.13-1.82.58-2.04.96-.48,1.18-1.11,1.42-2.03.14-.53,1.07-1.21,1.6-1.17.64.04,1.5.66,1.75,1.24.21.49-.11,1.69-.53,1.9-1.01.5-1.22,1.25-1.53,2.17-.19.56-.96.93-1.69,1.57Z"/>
          <path class="cls-3" d="m109.16,122.87c-.75.7-1.22,1.48-1.83,1.62-.9.2-1.6.25-2.17,1.2-.26.43-1.53.65-2.06.4-.53-.25-1.06-1.28-.97-1.87.09-.57.92-1.08,1.5-1.52.55-.42,1.16-.81,1.79-1.06.68-.27,1.49-.63,2.13-.47.54.13.92.95,1.6,1.71Z"/>
          <path class="cls-3" d="m39.49,105.06c.13,1.07.18,2.08,1.61,2.45.46.12,1,1.33.88,1.91-.12.57-1.01,1.32-1.61,1.36-.59.05-1.3-.62-1.85-1.1-.4-.34-.51-1.14-.93-1.31-1.31-.53-1.99-1.34-1.35-2.68.64-1.34,1.76-1.34,2.94-.62.09.05.23.02.34.03l-.04-.04Z"/>
          <path class="cls-3" d="m53.06,66.19c1.73,1.42,3.25,2.54,4.55,3.87.2.21-.41,1.73-.96,2-.55.27-1.82-.03-2.19-.52-.54-.72-.97-1.13-1.87-1.4-.55-.16-1.16-1.3-1.11-1.95.05-.64.91-1.21,1.58-2Z"/>
          <path class="cls-3" d="m81.94,81.75c.8-.32,1.57-.79,2.4-.93.65-.11,1.63-.03,1.98.37.41.48.57,1.52.33,2.11-.2.5-1.23,1.07-1.73.95-.95-.23-1.5.06-2.27.5-.52.29-1.62.13-2.11-.26-.42-.33-.59-1.36-.42-1.94.17-.56.93-.94,1.44-1.4.13.2.25.4.38.6Z"/>
          <path class="cls-3" d="m143.4,113.02c-.51.52-.93,1.3-1.49,1.41-.65.13-1.85-.14-2.04-.58-.46-1.02-1.19-1.47-2.05-2.04-1.02-.68-1.05-1.98-.05-2.64.6-.4,2.14-.37,2.5.08.7.88,1.28,1.75,2.33,2.29.34.18.46.81.79,1.47Z"/>
          <path class="cls-3" d="m66,63.61c-.62-.6-1.45-1.04-1.58-1.63-.13-.62.31-1.45.7-2.06.41-.65.99-1.24,1.61-1.7.54-.4,1.3-.88,1.87-.78.56.1,1.29.82,1.41,1.38.12.56-.35,1.32-.72,1.89-.43.65-1.01,1.2-1.59,1.73-.42.39-.95.67-1.69,1.18Z"/>
          <path class="cls-3" d="m66.67,81.85c2.01.39,3.46.43,4.65,1,.55.27,1,1.72.78,2.4-.37,1.15-1.49,1.25-2.62.69-.57-.28-1.25-.43-1.89-.45-1.26-.04-2.16-.59-2.02-1.83.09-.77.86-1.45,1.1-1.81Z"/>
          <path class="cls-3" d="m98.8,105.92c-.6.71-.93,1.41-1.45,1.62-.53.21-1.29.05-1.88-.16-.79-.28-1.56-.69-2.23-1.19-.54-.41-1.22-1-1.28-1.57-.07-.57.4-1.5.91-1.77.51-.27,1.38-.05,2.03.17.79.26,1.56.67,2.24,1.16.58.42,1.02,1.05,1.66,1.74Z"/>
          <path class="cls-3" d="m114.55,81.78c-.13-.89-.39-1.79-.33-2.66.04-.65.33-1.54.81-1.85.49-.31,1.52-.27,1.99.07.47.33.63,1.21.75,1.89.14.75.18,1.55.08,2.3-.09.67-.28,1.51-.73,1.9-.39.34-1.35.4-1.85.16-.55-.27-.86-1.02-1.27-1.56.18-.08.37-.16.55-.24Z"/>
          <path class="cls-3" d="m16.2,74.86c.34.27,1.27.69,1.26,1.08-.03,1.67-.25,3.36-.63,4.99-.08.33-1.37.78-1.69.56-.65-.44-1.55-1.73-1.4-1.92,1.12-1.41-1.01-4.32,2.45-4.72Z"/>
          <path class="cls-3" d="m108.32,64.12c-.71-1.23-.78-2.38.69-3.07,1.19-.56,2.08.2,2.58,1.94.14.48.7.86.8,1.34.15.66.3,1.54-.01,2.02-.32.48-1.27.9-1.83.78-.55-.11-1.03-.87-1.43-1.42-.36-.5-.58-1.1-.86-1.65,0,0,.06.06.06.06Z"/>
          <path class="cls-3" d="m35.31,72.66c1.49-.4,4.39.56,5.2,1.99.33.58.25,1.74-.14,2.28-.31.43-1.48.63-2.07.4-.97-.37-2.04-1-2.58-1.83-.48-.73-.29-1.9-.4-2.87v.04Z"/>
          <path class="cls-3" d="m108.21,132.23c.5.72,1.44,1.49,1.36,2.13-.09.69-1.13,1.73-1.77,1.75-.61.01-1.66-1.06-1.74-1.75-.08-.64.85-1.42,1.33-2.13h.82Z"/>
          <path class="cls-3" d="m87.28,259.17c-.71.5-1.46,1.46-2.11,1.39-.69-.07-1.29-1.11-1.92-1.72.61-.63,1.17-1.68,1.86-1.78.64-.09,1.43.82,2.16,1.29,0,.28,0,.55.01.83Z"/>
          <path class="cls-3" d="m57.3,123.31c.48.72,1.4,1.5,1.32,2.15-.09.69-1.14,1.77-1.75,1.75-.65-.02-1.68-1.07-1.76-1.76-.08-.65.88-1.42,1.38-2.13h.82Z"/>
          <path class="cls-3" d="m137.43,75.05c-.74.47-1.54,1.37-2.19,1.27-.69-.1-1.23-1.16-1.83-1.81.64-.6,1.25-1.63,1.94-1.69.66-.06,1.4.9,2.1,1.41,0,.27-.02.54-.02.81Z"/>
          <path class="cls-3" d="m108.32,64.12s-.06-.06-.06-.06c.08.48.2.96.22,1.45.06,1.27-.67,2.17-1.83,1.96-.71-.13-1.67-1.12-1.77-1.83-.18-1.17.77-1.85,2.01-1.79.48.03.96.18,1.43.28Z"/>
          <path class="cls-3" d="m114.9,63.38c-.52-.7-1.48-1.44-1.43-2.09.06-.69,1.07-1.8,1.69-1.81.64-.02,1.72,1,1.83,1.69.1.64-.81,1.45-1.28,2.18l-.81.03Z"/>
          <path class="cls-3" d="m96.56,191.65c-.73.48-1.51,1.41-2.16,1.32-.69-.09-1.75-1.16-1.73-1.78.01-.63,1.09-1.67,1.78-1.74.65-.07,1.41.89,2.12,1.39,0,.27,0,.54,0,.81Z"/>
          <path class="cls-3" d="m19.29,150.8c-.73.47-1.52,1.38-2.16,1.28-.69-.11-1.72-1.18-1.7-1.8.02-.63,1.1-1.64,1.79-1.71.64-.07,1.39.89,2.09,1.4,0,.28-.01.55-.02.83Z"/>
          <path class="cls-3" d="m123.3,64.45c-.45-.74-1.34-1.54-1.24-2.19.11-.69,1.16-1.23,1.8-1.83.6.65,1.63,1.27,1.68,1.96.05.65-.91,1.39-1.43,2.09-.27,0-.54-.02-.82-.02Z"/>
          <path class="cls-3" d="m15.58,133.7c-.73.47-1.51,1.39-2.17,1.3-.69-.09-1.24-1.15-1.85-1.78.63-.61,1.22-1.65,1.91-1.72.65-.07,1.41.88,2.12,1.37,0,.27,0,.55-.01.82Z"/>
          <path class="cls-3" d="m85.8,231.65c-.71.5-1.46,1.44-2.1,1.38-.7-.07-1.29-1.09-1.93-1.7.61-.64,1.16-1.7,1.85-1.8.65-.09,1.44.83,2.17,1.3l.02.82Z"/>
          <path class="cls-3" d="m106.92,92.74c-.7.51-1.44,1.47-2.08,1.41-.7-.07-1.3-1.08-1.95-1.69.6-.64,1.14-1.69,1.83-1.81.64-.11,1.44.79,2.17,1.24,0,.28.02.56.02.84Z"/>
          <path class="cls-3" d="m93.36,173.36c-.51-.7-1.46-1.44-1.4-2.09.06-.69,1.07-1.8,1.68-1.8.64,0,1.72,1,1.82,1.68.1.64-.81,1.45-1.28,2.18-.27,0-.54.02-.81.03Z"/>
          <path class="cls-3" d="m76.73,81.02c.31.29.69.53.92.87.7,1.01.63,2.03-.41,2.72-1.03.67-2.07.44-2.65-.67-.57-1.1-.18-2.04.96-2.56.38-.18.83-.2,1.24-.29l-.07-.06Z"/>
          <path class="cls-3" d="m13.06,96.06c-.7.51-1.43,1.47-2.08,1.42-.69-.05-1.78-1.05-1.81-1.67-.02-.63.98-1.71,1.66-1.82.65-.1,1.45.8,2.19,1.26.01.27.02.54.04.82Z"/>
          <path class="cls-3" d="m48.31,82.42c.51.71,1.46,1.46,1.4,2.11-.07.69-1.1,1.29-1.71,1.93-.64-.61-1.7-1.17-1.8-1.86-.09-.65.84-1.44,1.33-2.17.26,0,.52,0,.79-.01Z"/>
          <path class="cls-3" d="m69.48,112.04c-.71.51-1.45,1.47-2.11,1.41-.69-.06-1.79-1.09-1.8-1.71-.01-.63,1.02-1.71,1.71-1.81.65-.09,1.45.83,2.18,1.31,0,.26.01.53.02.79Z"/>
          <path class="cls-3" d="m118.03,209.54c-.72.46-1.52,1.36-2.15,1.25-.7-.12-1.24-1.16-1.85-1.8.64-.61,1.24-1.62,1.94-1.7.63-.07,1.38.89,2.07,1.39,0,.29-.01.57-.02.86Z"/>
          <path class="cls-3" d="m18.93,102.39c-.71.49-1.47,1.42-2.13,1.35-.69-.08-1.28-1.1-1.91-1.71.62-.63,1.18-1.69,1.88-1.78.65-.08,1.43.85,2.16,1.33,0,.27,0,.54,0,.81Z"/>
          <path class="cls-3" d="m72.78,112.5c.51.7,1.46,1.43,1.41,2.09-.05.69-1.06,1.31-1.65,1.97-.65-.6-1.72-1.14-1.83-1.83-.1-.65.81-1.46,1.27-2.2l.8-.03Z"/>
          <path class="cls-3" d="m70.21,180.21c-.74.47-1.54,1.37-2.19,1.28-.68-.1-1.69-1.18-1.68-1.81.01-.61,1.11-1.62,1.8-1.67.66-.05,1.39.89,2.09,1.4,0,.27-.02.54-.03.81Z"/>
          <path class="cls-3" d="m46.06,169.2c-.46-.73-1.36-1.53-1.25-2.17.11-.69,1.16-1.23,1.8-1.83.61.65,1.63,1.25,1.69,1.95.06.64-.9,1.38-1.42,2.08-.28,0-.55-.02-.83-.02Z"/>
          <path class="cls-3" d="m98.59,154.78c-.73.45-1.49,1.28-2.19,1.23-.63-.04-1.54-.97-1.71-1.66-.27-1.12.61-1.99,1.72-1.85.77.1,1.46.88,2.18,1.36,0,.3,0,.61,0,.91Z"/>
          <path class="cls-3" d="m67.51,167.92c-.48-.72-1.26-1.39-1.38-2.17-.18-1.14.73-1.99,1.82-1.75.69.15,1.63,1.06,1.68,1.7.06.69-.77,1.47-1.21,2.2-.3,0-.61.01-.91.02Z"/>
          <path class="cls-3" d="m76.3,170.61c-.71.49-1.42,1.37-2.12,1.36-.63-.01-1.59-.89-1.79-1.58-.33-1.1.49-2.03,1.62-1.92.78.07,1.5.8,2.25,1.24.01.3.03.6.04.9Z"/>
          <path class="cls-3" d="m50.24,177c-.49-.71-1.41-1.48-1.34-2.13.08-.69,1.1-1.28,1.71-1.92.63.62,1.69,1.19,1.78,1.88.09.65-.84,1.43-1.32,2.16-.27,0-.55,0-.82,0Z"/>
          <path class="cls-3" d="m43,177.56c-.48-.72-1.27-1.4-1.38-2.17-.16-1.12.72-1.99,1.84-1.73.69.16,1.62,1.07,1.67,1.69.05.7-.78,1.47-1.22,2.2-.3,0-.61,0-.91,0Z"/>
          <path class="cls-3" d="m76.63,183.75c-.51-.71-1.41-1.43-1.41-2.14,0-.62.92-1.57,1.62-1.77,1.1-.32,2.03.53,1.94,1.64-.07.78-.85,1.51-1.31,2.25-.28,0-.55.02-.83.03Z"/>
          <path class="cls-3" d="m52.19,192.98c-.73.45-1.42,1.2-2.19,1.29-1.13.13-1.98-.77-1.7-1.87.17-.68,1.06-1.51,1.76-1.66,1.14-.25,1.76.62,2.13,2.24Z"/>
          <path class="cls-3" d="m52.79,126.57c-.7.51-1.44,1.47-2.1,1.42-.68-.05-1.76-1.08-1.77-1.7-.01-.64,1-1.72,1.67-1.82.65-.09,1.45.82,2.18,1.3,0,.27.02.54.02.81Z"/>
          <path class="cls-3" d="m34.74,126.45c-.72.47-1.4,1.23-2.18,1.34-1.15.18-1.98-.73-1.73-1.83.16-.69,1.07-1.62,1.71-1.67.69-.05,1.46.79,2.19,1.24,0,.31,0,.61.01.92Z"/>
          <path class="cls-3" d="m24.17,195.19c.46.72,1.31,1.47,1.27,2.17-.04.63-.95,1.56-1.63,1.73-1.1.27-2.01-.55-1.87-1.69.1-.78.85-1.47,1.31-2.2.31,0,.62,0,.92,0Z"/>
          <path class="cls-3" d="m41.38,210.53c-.74.44-1.51,1.27-2.2,1.22-.63-.05-1.53-.99-1.68-1.68-.25-1.11.62-1.99,1.74-1.83.77.11,1.45.9,2.17,1.38,0,.3-.01.6-.02.9Z"/>
          <path class="cls-3" d="m135.05,224.7c-.48-.72-1.24-1.39-1.38-2.16-.2-1.16.69-1.99,1.79-1.75.69.15,1.66,1.04,1.7,1.66.05.71-.78,1.48-1.23,2.23-.3,0-.59.02-.89.03Z"/>
          <path class="cls-3" d="m18.35,92.71c-.74.44-1.45,1.18-2.23,1.26-1.13.11-1.95-.83-1.65-1.92.19-.68,1.15-1.56,1.79-1.58.69-.02,1.42.85,2.13,1.33-.01.3-.02.61-.04.91Z"/>
          <path class="cls-3" d="m49.93,119.68c-.71.49-1.37,1.28-2.15,1.42-1.13.2-2.01-.66-1.77-1.79.15-.7,1.03-1.66,1.65-1.72.7-.06,1.48.76,2.23,1.19.01.3.02.6.04.89Z"/>
          <path class="cls-3" d="m62.23,222.19c.45.73,1.35,1.54,1.23,2.17-.12.69-1.2,1.7-1.82,1.67-.63-.03-1.62-1.12-1.69-1.82-.06-.63.91-1.36,1.43-2.05.28.01.56.02.85.03Z"/>
          <path class="cls-3" d="m102.59,118.56c-.43-.74-1.26-1.52-1.18-2.21.07-.65,1.2-1.74,1.67-1.65.72.15,1.68,1.08,1.78,1.78.09.63-.86,1.4-1.34,2.11l-.92-.03Z"/>
          <path class="cls-3" d="m94.14,115.35c-.74.45-1.5,1.3-2.2,1.24-.63-.05-1.54-1-1.7-1.69-.25-1.1.6-2,1.74-1.82.77.12,1.45.88,2.17,1.35,0,.3,0,.61-.01.91Z"/>
          <path class="cls-3" d="m11.91,111.37c.51.7,1.46,1.44,1.4,2.1-.06.68-1.08,1.76-1.7,1.77-.64,0-1.71-1-1.81-1.68-.09-.65.82-1.44,1.29-2.17.27,0,.54-.01.81-.02Z"/>
          <path class="cls-3" d="m101.57,74.45c-.71.48-1.43,1.35-2.12,1.34-.64-.02-1.6-.89-1.79-1.57-.32-1.1.52-2.02,1.63-1.93.78.06,1.5.81,2.25,1.26.01.3.02.6.03.9Z"/>
          <path class="cls-3" d="m106.06,77.24c-.47-.73-1.33-1.46-1.31-2.17.02-.62.94-1.56,1.62-1.74,1.1-.29,2.02.53,1.87,1.67-.1.78-.85,1.48-1.31,2.22-.3,0-.59,0-.89.01Z"/>
          <path class="cls-3" d="m56.45,96.31c-.76.45-1.6,1.35-2.25,1.23-.68-.13-1.53-1.2-1.62-1.94-.06-.47,1.14-1.53,1.77-1.53.71,0,1.43.9,2.14,1.41-.02.28-.03.56-.05.84Z"/>
          <path class="cls-3" d="m76.2,103.04c.44.74,1.27,1.52,1.2,2.21-.06.64-1.02,1.53-1.71,1.68-1.1.23-1.99-.63-1.8-1.77.13-.77.91-1.43,1.39-2.15.3,0,.61.02.91.03Z"/>
          <path class="cls-3" d="m33.79,75.92c.45.73,1.19,1.43,1.29,2.21.14,1.14-.78,1.97-1.87,1.69-.68-.17-1.49-1.07-1.65-1.77-.26-1.14.59-1.78,2.23-2.13Z"/>
          <path class="cls-3" d="m82.96,104.47c-.72.49-1.44,1.37-2.14,1.36-.63-.01-1.59-.91-1.77-1.6-.3-1.08.48-2.03,1.64-1.9.78.09,1.5.81,2.24,1.25.01.3.02.59.03.89Z"/>
          <path class="cls-3" d="m122.59,98.61c-.72.48-1.48,1.4-2.13,1.32-.69-.08-1.27-1.1-1.9-1.71.62-.62,1.19-1.67,1.88-1.75.65-.08,1.43.84,2.15,1.32,0,.27,0,.54,0,.82Z"/>
          <path class="cls-3" d="m72.33,98.3c.45.74,1.22,1.46,1.29,2.24.1,1.11-.81,1.96-1.92,1.65-.68-.19-1.57-1.14-1.59-1.77-.02-.7.84-1.42,1.32-2.14.3,0,.6.02.9.03Z"/>
          <path class="cls-3" d="m123.71,104.08c-.42-.75-1.23-1.54-1.15-2.22.08-.64,1.22-1.72,1.68-1.62.73.16,1.69,1.09,1.77,1.79.08.63-.88,1.39-1.39,2.1-.3-.01-.61-.03-.91-.04Z"/>
          <path class="cls-3" d="m111.57,103.08c-.72.47-1.41,1.21-2.18,1.33-1.16.18-1.98-.72-1.72-1.82.17-.69,1.08-1.63,1.7-1.67.7-.05,1.46.8,2.19,1.26,0,.3,0,.61,0,.91Z"/>
          <path class="cls-3" d="m131.97,103.04c-.74.46-1.44,1.22-2.22,1.31-1.13.13-1.97-.78-1.67-1.89.18-.68,1.11-1.59,1.74-1.62.7-.03,1.44.83,2.16,1.3,0,.3,0,.6-.01.9Z"/>
          <path class="cls-3" d="m139.76,78.96c-.73.46-1.49,1.3-2.2,1.26-.62-.04-1.53-.98-1.7-1.67-.27-1.11.56-2.01,1.71-1.84.78.12,1.47.88,2.2,1.36,0,.3-.01.59-.02.89Z"/>
          <path class="cls-3" d="m89.23,105.06c-.45-.74-1.28-1.51-1.23-2.21.04-.62,1-1.52,1.69-1.67,1.12-.26,2,.61,1.82,1.74-.12.78-.91,1.45-1.4,2.17-.29,0-.59-.01-.88-.02Z"/>
          <path class="cls-3" d="m80.08,97.43c-.71.49-1.47,1.44-2.1,1.36-.71-.09-1.66-1.04-1.81-1.76-.1-.46,1-1.62,1.64-1.69.7-.08,1.49.75,2.24,1.18.01.3.02.61.03.91Z"/>
          <path class="cls-3" d="m104.3,97.79c-.35.1-.72.35-1.03.28-.72-.16-1.71-.28-2.02-.77-.33-.51-.26-1.68.13-2.14.39-.45,1.54-.7,2.08-.44.54.25.83,1.21,1.05,1.91.11.34-.18.81-.29,1.22,0,0,.07-.07.07-.07Z"/>
          <path class="cls-3" d="m39.53,105.1c.09-.41.11-.85.28-1.23.5-1.14,1.42-1.55,2.54-1.04,1.19.54,1.35,1.63.76,2.63-.62,1.05-1.66,1.18-2.7.47-.34-.24-.62-.58-.92-.88,0,0,.04.04.04.04Z"/>
          <path class="cls-3" d="m104.9,77.5c-.72.46-1.47,1.31-2.17,1.28-.64-.03-1.57-.94-1.75-1.62-.28-1.09.54-2.02,1.68-1.88.78.1,1.48.86,2.22,1.32,0,.3,0,.6.01.9Z"/>
          <path class="cls-3" d="m103.06,108.45c-.46-.73-1.21-1.43-1.3-2.21-.14-1.13.77-1.97,1.87-1.69.68.18,1.59,1.11,1.63,1.75.04.7-.82,1.44-1.29,2.16-.3,0-.6,0-.91-.01Z"/>
          <path class="cls-3" d="m49.61,107.25c-.74.43-1.53,1.26-2.21,1.18-.64-.07-1.53-1.03-1.67-1.73-.22-1.11.66-1.97,1.8-1.77.77.14,1.42.91,2.12,1.39-.01.31-.02.62-.04.93Z"/>
          <path class="cls-3" d="m63.96,261.34c-.7.52-1.43,1.48-2.08,1.43-.68-.05-1.77-1.06-1.8-1.68-.03-.63.98-1.72,1.65-1.82.65-.1,1.45.81,2.19,1.27.01.27.02.54.04.81Z"/>
          <path class="cls-3" d="m15.62,105.3c.43.74,1.26,1.53,1.18,2.21-.07.64-1.03,1.53-1.73,1.67-1.1.22-1.98-.66-1.77-1.79.14-.77.91-1.42,1.39-2.12l.92.04Z"/>
          <path class="cls-3" d="m25.44,109.94c-.46-.73-1.2-1.43-1.3-2.21-.14-1.15.78-1.96,1.88-1.69.68.17,1.59,1.11,1.62,1.75.03.7-.82,1.44-1.29,2.16-.3,0-.6,0-.91,0Z"/>
          <path class="cls-3" d="m86.08,105.66c.48.72,1.25,1.4,1.36,2.17.16,1.13-.71,1.99-1.83,1.73-.69-.16-1.62-1.07-1.67-1.7-.05-.69.78-1.46,1.23-2.19.31,0,.61,0,.92-.01Z"/>
          <path class="cls-3" d="m94.45,77.91c-.45-.75-1.29-1.52-1.23-2.23.05-.62,1.02-1.51,1.71-1.66,1.1-.24,2.01.6,1.8,1.75-.14.78-.92,1.45-1.42,2.16-.29,0-.58-.02-.86-.03Z"/>
          <path class="cls-3" d="m112.28,110.97c-.74.44-1.45,1.17-2.24,1.27-1.18.15-1.94-.81-1.66-1.89.18-.69,1.13-1.61,1.76-1.62.71-.02,1.44.86,2.15,1.35l-.02.89Z"/>
          <path class="cls-3" d="m129.88,112.8c-.72.46-1.47,1.31-2.16,1.26-.64-.05-1.58-.96-1.75-1.64-.26-1.09.59-2,1.72-1.86.77.1,1.46.86,2.19,1.32,0,.31,0,.61,0,.92Z"/>
          <path class="cls-3" d="m108.61,113.16c-.73.46-1.48,1.31-2.18,1.27-.63-.04-1.56-.96-1.73-1.64-.27-1.1.57-2.01,1.7-1.87.78.1,1.47.87,2.2,1.34,0,.3,0,.6,0,.9Z"/>
          <path class="cls-3" d="m50.46,111.02c.47.73,1.38,1.51,1.29,2.16-.09.68-1.06,1.61-1.79,1.76-1.06.22-1.95-.66-1.73-1.79.15-.78.91-1.43,1.4-2.14.27,0,.55.01.82.02Z"/>
          <path class="cls-3" d="m113.08,94.53c-.72.46-1.51,1.35-2.15,1.25-.68-.11-1.58-1.07-1.74-1.8-.23-1.09.68-1.92,1.79-1.71.76.15,1.42.89,2.12,1.37,0,.3-.01.59-.02.89Z"/>
          <path class="cls-3" d="m90.13,93.43c-.4,1.63-1.13,2.41-2.23,2.11-.7-.19-1.75-1.25-1.65-1.7.16-.73,1.08-1.7,1.78-1.79.63-.08,1.39.88,2.1,1.38Z"/>
          <path class="cls-3" d="m57.66,112.54c.52.7,1.48,1.43,1.44,2.08-.05.69-1.07,1.31-1.67,1.96-.64-.6-1.68-1.13-1.79-1.82-.11-.65.77-1.46,1.21-2.2.27-.01.54-.02.81-.03Z"/>
          <path class="cls-3" d="m108.88,72.78c.7-.52,1.42-1.48,2.08-1.43.67.04,1.77,1.06,1.78,1.67.02.64-.97,1.74-1.63,1.84-.65.1-1.46-.81-2.2-1.27-.01-.27-.02-.54-.03-.8Z"/>
          <path class="cls-3" d="m44.91,91.19c.48.71,1.35,1.43,1.33,2.13-.01.63-.9,1.58-1.57,1.78-1.1.32-2.02-.52-1.93-1.63.07-.78.82-1.5,1.27-2.24.3-.01.6-.02.9-.03Z"/>
          <path class="cls-3" d="m20.33,119.54c-.5-.71-1.39-1.42-1.39-2.13,0-.62.88-1.6,1.56-1.8,1.07-.31,2.05.44,1.94,1.61-.08.79-.81,1.52-1.24,2.27-.29.01-.57.03-.86.04Z"/>
          <path class="cls-3" d="m62.13,118.84c-.75.43-1.54,1.24-2.25,1.17-.62-.06-1.49-1.03-1.64-1.72-.23-1.13.67-1.98,1.78-1.78.78.14,1.43.95,2.14,1.46-.01.29-.03.58-.04.88Z"/>
          <path class="cls-3" d="m117.79,116.06c.43.75,1.25,1.54,1.18,2.23-.07.64-1.04,1.53-1.74,1.66-1.1.21-1.98-.66-1.77-1.8.15-.77.93-1.42,1.42-2.13.3.01.6.03.91.04Z"/>
          <path class="cls-3" d="m126.37,228.03c-.44-.74-1.27-1.5-1.22-2.2.05-.62.99-1.52,1.68-1.68,1.12-.26,1.99.61,1.82,1.74-.12.78-.9,1.45-1.38,2.17-.3,0-.6-.02-.9-.02Z"/>
          <path class="cls-3" d="m66.25,120.82c-.48-.71-1.35-1.44-1.32-2.13.03-.64,1.1-1.81,1.55-1.74.74.11,1.77.96,1.91,1.66.12.62-.78,1.45-1.24,2.19-.3,0-.61.01-.91.02Z"/>
          <path class="cls-3" d="m87.47,119.11c-.72.47-1.46,1.32-2.15,1.29-.64-.03-1.78-1.11-1.71-1.57.11-.74.98-1.76,1.67-1.89.63-.12,1.45.8,2.19,1.26,0,.31,0,.61.01.92Z"/>
          <path class="cls-3" d="m123.95,116.63c.5.69,1.44,1.43,1.39,2.07-.06.7-1.05,1.32-1.63,1.97-.64-.6-1.7-1.13-1.81-1.81-.11-.64.77-1.46,1.22-2.19l.84-.04Z"/>
          <path class="cls-3" d="m134.07,121.26c-.44-.74-1.3-1.56-1.19-2.21.12-.68,1.17-1.21,1.81-1.8.59.66,1.6,1.28,1.64,1.98.04.65-.92,1.38-1.45,2.07-.28-.01-.55-.03-.83-.04Z"/>
          <path class="cls-3" d="m98.14,215.24c-.74.46-1.44,1.21-2.23,1.31-1.16.15-1.95-.79-1.66-1.88.18-.68,1.12-1.6,1.73-1.62.71-.02,1.45.84,2.17,1.31,0,.29-.01.58-.02.87Z"/>
          <path class="cls-3" d="m37.59,118.78c.46.74,1.3,1.5,1.26,2.21-.04.62-.99,1.53-1.68,1.69-1.1.25-2.01-.59-1.83-1.73.12-.78.9-1.46,1.39-2.18.29,0,.58,0,.86.01Z"/>
          <path class="cls-3" d="m131.17,210.11c-.71.5-1.46,1.43-2.11,1.37-.69-.07-1.78-1.09-1.77-1.7,0-.64,1.02-1.71,1.7-1.8.65-.09,1.44.84,2.16,1.32,0,.27.01.54.02.81Z"/>
          <path class="cls-3" d="m21.91,205.29c.46.74,1.3,1.5,1.26,2.2-.04.62-.98,1.52-1.67,1.69-1.11.27-2.01-.56-1.83-1.71.12-.78.89-1.46,1.37-2.19.29,0,.59,0,.88,0Z"/>
          <path class="cls-3" d="m28.38,90.72c-.71.49-1.44,1.36-2.14,1.35-.63-.02-1.58-.92-1.77-1.6-.31-1.09.49-2.03,1.64-1.9.78.09,1.49.81,2.24,1.26,0,.3.02.6.03.9Z"/>
          <path class="cls-3" d="m43.33,69.96c-.73.46-1.55,1.38-2.17,1.26-.7-.13-1.57-1.15-1.68-1.88-.07-.47,1.08-1.54,1.72-1.58.69-.04,1.43.82,2.15,1.29,0,.31-.01.61-.02.92Z"/>
          <path class="cls-3" d="m96.36,204.29c-.75.42-1.54,1.22-2.23,1.14-.63-.07-1.5-1.03-1.64-1.72-.23-1.13.69-1.97,1.8-1.78.77.13,1.42.94,2.12,1.45-.01.3-.03.61-.04.91Z"/>
          <path class="cls-3" d="m33.35,199.35c.48.73,1.34,1.47,1.32,2.18-.02.62-.95,1.55-1.63,1.73-1.1.29-2.03-.52-1.87-1.67.11-.79.86-1.49,1.32-2.23.29,0,.57,0,.86,0Z"/>
          <path class="cls-3" d="m138.29,125.12c-.71.5-1.47,1.43-2.11,1.36-.68-.07-1.74-1.11-1.74-1.73,0-.63,1.02-1.69,1.7-1.78.65-.09,1.43.84,2.15,1.31,0,.28,0,.55.01.83Z"/>
          <path class="cls-3" d="m128.78,201.62c-.47-.74-1.24-1.44-1.33-2.23-.13-1.13.79-1.96,1.89-1.67.68.18,1.6,1.12,1.62,1.74.02.71-.83,1.45-1.31,2.18-.29,0-.58-.01-.87-.02Z"/>
          <path class="cls-3" d="m126.02,199.73c-.75.44-1.47,1.16-2.26,1.25-1.17.13-1.94-.83-1.63-1.91.19-.68,1.16-1.58,1.79-1.59.71,0,1.43.88,2.14,1.37-.01.29-.03.59-.04.88Z"/>
          <path class="cls-3" d="m58.62,197.93c-.72.46-1.51,1.36-2.15,1.26-.69-.1-1.24-1.14-1.85-1.76.64-.62,1.23-1.66,1.92-1.73.64-.07,1.4.89,2.1,1.4,0,.28-.01.56-.02.84Z"/>
          <path class="cls-3" d="m121.72,85.11c-.73.45-1.55,1.35-2.18,1.23-.69-.12-1.7-1.21-1.67-1.83.04-.64,1.13-1.62,1.83-1.69.64-.06,1.37.91,2.06,1.43-.01.28-.02.56-.04.85Z"/>
          <path class="cls-3" d="m50.18,68.77c-.72.49-1.48,1.42-2.13,1.35-.68-.08-1.62-1.04-1.79-1.77-.25-1.07.64-1.95,1.76-1.76.78.13,1.45.88,2.16,1.36,0,.27,0,.55,0,.82Z"/>
          <path class="cls-3" d="m73.44,92.09c-.5-.71-1.38-1.42-1.38-2.13,0-.62.89-1.59,1.57-1.79,1.08-.32,2.04.46,1.93,1.62-.08.79-.82,1.51-1.26,2.27-.29.01-.58.02-.86.03Z"/>
          <path class="cls-3" d="m22.72,90.56c-.75.45-1.52,1.28-2.23,1.23-.62-.05-1.51-1.01-1.67-1.71-.24-1.11.63-2,1.75-1.81.78.13,1.45.92,2.17,1.42,0,.29-.02.58-.03.86Z"/>
          <path class="cls-3" d="m76.11,126.09c.46.73,1.31,1.49,1.26,2.18-.05.64-.98,1.56-1.68,1.72-1.1.26-2-.58-1.83-1.73.11-.77.86-1.45,1.33-2.18.31,0,.61,0,.92,0Z"/>
          <path class="cls-3" d="m133.85,128.74c-.72.46-1.47,1.31-2.17,1.28-.63-.03-1.55-.95-1.73-1.63-.29-1.11.57-2.01,1.69-1.87.78.09,1.48.86,2.21,1.33,0,.3,0,.6,0,.9Z"/>
          <path class="cls-3" d="m16.17,189.54c-.72.47-1.4,1.24-2.17,1.34-1.13.16-1.99-.74-1.73-1.84.16-.69,1.03-1.53,1.73-1.7,1.14-.28,1.76.6,2.18,2.2Z"/>
          <path class="cls-3" d="m45.4,86.67c.43.75,1.25,1.53,1.17,2.22-.07.64-1.03,1.55-1.72,1.68-1.09.2-1.99-.66-1.78-1.8.14-.77.92-1.43,1.42-2.14.3.01.61.02.91.03Z"/>
          <path class="cls-3" d="m37.28,185.94c.43.75,1.24,1.54,1.17,2.24-.06.62-1.03,1.49-1.73,1.63-1.14.23-1.96-.69-1.78-1.79.13-.77.94-1.42,1.45-2.13.3.01.59.03.89.04Z"/>
          <path class="cls-3" d="m114.89,131.13c-.46-.72-1.31-1.47-1.26-2.17.04-.64.95-1.57,1.64-1.74,1.1-.28,2.01.57,1.87,1.7-.1.78-.86,1.47-1.33,2.2-.31,0-.61,0-.92,0Z"/>
          <path class="cls-3" d="m45.29,183.23c.45.73,1.3,1.5,1.24,2.19-.06.64-1.01,1.56-1.7,1.71-1.08.23-2-.59-1.81-1.76.13-.77.87-1.44,1.34-2.16h.92Z"/>
          <path class="cls-3" d="m87.8,183.22c-.47-.71-1.33-1.45-1.3-2.14.03-.64.93-1.6,1.61-1.77,1.08-.28,2.02.55,1.89,1.68-.08.77-.83,1.48-1.28,2.21-.31,0-.61.01-.92.02Z"/>
          <path class="cls-3" d="m21.11,178.52c.45.74,1.21,1.46,1.28,2.24.1,1.12-.81,1.96-1.92,1.65-.68-.19-1.58-1.14-1.59-1.77-.02-.7.85-1.43,1.34-2.15.3.01.6.02.9.04Z"/>
          <path class="cls-3" d="m131.18,65.22c-.74.45-1.51,1.29-2.21,1.24-.62-.04-1.52-1-1.68-1.69-.26-1.11.58-2,1.73-1.81.78.13,1.45.9,2.18,1.38,0,.29-.01.59-.02.88Z"/>
          <path class="cls-3" d="m113.42,179.06c-.45-.73-1.19-1.42-1.3-2.2-.16-1.15.76-1.97,1.85-1.7.69.17,1.61,1.1,1.65,1.74.04.7-.82,1.45-1.29,2.17-.31,0-.61,0-.92-.01Z"/>
          <path class="cls-3" d="m94.32,178.09c-.43-.74-1.3-1.56-1.18-2.2.12-.69,1.17-1.21,1.81-1.8.59.66,1.6,1.28,1.65,1.98.05.65-.93,1.37-1.46,2.06-.28-.01-.55-.02-.83-.04Z"/>
          <path class="cls-3" d="m58.15,65.17c-.74.44-1.59,1.34-2.2,1.2-.69-.15-1.53-1.19-1.63-1.93-.06-.46,1.07-1.42,1.78-1.56,1.16-.23,1.75.66,2.05,2.3Z"/>
          <path class="cls-3" d="m100.42,62.12c.51.7,1.48,1.46,1.41,2.09-.08.7-1.04,1.62-1.78,1.79-.44.1-1.6-.98-1.67-1.61-.08-.69.72-1.49,1.14-2.23.3-.01.6-.03.9-.04Z"/>
          <path class="cls-3" d="m57.29,175.76c-.45-.72-1.3-1.48-1.25-2.16.05-.64,1.14-1.78,1.59-1.7.74.13,1.74,1.01,1.86,1.71.11.62-.82,1.43-1.29,2.15-.31,0-.61,0-.92,0Z"/>
          <path class="cls-3" d="m117.6,134.45c-.69.51-1.41,1.47-2.06,1.41-.69-.06-1.67-.96-1.87-1.67-.29-1.05.53-1.98,1.67-1.83.78.1,1.48.79,2.21,1.22.01.29.03.59.04.88Z"/>
          <path class="cls-3" d="m132.48,132.38c.49.7,1.26,1.35,1.41,2.12.22,1.15-.66,2.01-1.76,1.8-.7-.13-1.67-1.02-1.74-1.65-.07-.69.75-1.48,1.18-2.23.3-.01.61-.03.91-.04Z"/>
          <path class="cls-3" d="m86.4,85.69c.48.73,1.26,1.41,1.38,2.2.17,1.14-.75,1.97-1.85,1.71-.69-.16-1.62-1.08-1.65-1.69-.04-.71.8-1.47,1.26-2.2.29,0,.58,0,.87,0Z"/>
          <path class="cls-3" d="m11.34,136.57c-.75.43-1.59,1.32-2.21,1.18-.69-.15-1.54-1.19-1.62-1.92-.06-.47,1.12-1.52,1.76-1.54.69-.02,1.41.87,2.11,1.36-.01.3-.03.61-.04.91Z"/>
          <path class="cls-3" d="m38.38,168.93c-.48-.72-1.34-1.46-1.31-2.17.02-.63.94-1.57,1.63-1.74,1.09-.28,2.02.55,1.89,1.68-.09.78-.86,1.48-1.33,2.22-.29,0-.58,0-.87,0Z"/>
          <path class="cls-3" d="m113.51,166.64c-.72.46-1.46,1.31-2.15,1.28-.64-.03-1.58-.93-1.76-1.6-.28-1.09.55-2.02,1.68-1.89.78.09,1.48.84,2.21,1.3,0,.31.01.61.02.92Z"/>
          <path class="cls-3" d="m30.6,164.02c.51.71,1.41,1.41,1.41,2.12,0,.63-.9,1.6-1.58,1.8-1.08.32-2.04-.44-1.92-1.61.08-.79.79-1.51,1.22-2.26.29-.01.58-.03.88-.04Z"/>
          <path class="cls-3" d="m11.28,64.46c-.73.47-1.41,1.22-2.19,1.34-1.15.17-1.99-.71-1.71-1.83.17-.69,1.08-1.64,1.7-1.68.7-.04,1.46.81,2.2,1.27,0,.3,0,.6,0,.9Z"/>
          <path class="cls-3" d="m102.97,163.5c.49.72,1.44,1.5,1.35,2.13-.1.7-1.1,1.62-1.83,1.75-.48.08-1.61-1.03-1.66-1.67-.06-.69.8-1.46,1.26-2.19.29,0,.59-.01.88-.02Z"/>
          <path class="cls-3" d="m14.69,84.07c.5.71,1.45,1.48,1.37,2.1-.09.7-1.06,1.62-1.79,1.77-.46.09-1.6-.99-1.67-1.63-.08-.69.74-1.47,1.17-2.21.31-.01.61-.02.92-.03Z"/>
          <path class="cls-3" d="m18.94,140.46c-.5-.71-1.4-1.42-1.39-2.12,0-.64.91-1.61,1.59-1.8,1.07-.3,2.04.46,1.92,1.63-.08.79-.79,1.51-1.22,2.26-.3.01-.6.02-.89.04Z"/>
          <path class="cls-3" d="m41.84,159.9c.49.71,1.27,1.38,1.39,2.15.18,1.13-.69,2-1.8,1.75-.69-.15-1.64-1.04-1.7-1.67-.06-.69.77-1.47,1.21-2.21.3,0,.6-.02.9-.03Z"/>
          <path class="cls-3" d="m35.66,139.73c-.73.47-1.53,1.38-2.18,1.29-.69-.1-1.23-1.17-1.83-1.81.64-.6,1.25-1.62,1.94-1.68.65-.06,1.4.9,2.1,1.4,0,.27-.02.54-.03.81Z"/>
          <path class="cls-3" d="m99.45,161.23c-.7.5-1.46,1.47-2.08,1.39-.71-.09-1.63-1.04-1.8-1.77-.11-.44.98-1.6,1.62-1.67.69-.08,1.48.73,2.23,1.14.01.3.02.61.03.91Z"/>
          <path class="cls-3" d="m60.89,87.25c-.71.51-1.48,1.49-2.13,1.41-.7-.09-1.63-1.07-1.79-1.81-.1-.45,1.01-1.61,1.65-1.67.7-.07,1.49.77,2.23,1.21l.03.87Z"/>
          <path class="cls-3" d="m61.49,139.87c-.74.44-1.45,1.18-2.23,1.27-1.15.12-1.95-.83-1.67-1.9.18-.68,1.14-1.57,1.79-1.6.69-.03,1.42.84,2.13,1.31,0,.31-.02.62-.03.92Z"/>
          <path class="cls-3" d="m137.26,160.96c-.73.46-1.43,1.22-2.2,1.31-1.12.13-1.98-.77-1.7-1.87.17-.68,1.11-1.59,1.75-1.63.69-.04,1.43.81,2.15,1.27,0,.31,0,.61,0,.92Z"/>
          <path class="cls-3" d="m65.48,160.46c-.72.49-1.39,1.29-2.16,1.41-1.11.17-2-.69-1.74-1.82.16-.69,1.05-1.64,1.67-1.69.71-.05,1.48.77,2.22,1.22,0,.29.01.58.02.87Z"/>
          <path class="cls-3" d="m120.33,138.03c.46.73,1.2,1.42,1.31,2.2.16,1.16-.75,1.97-1.85,1.69-.69-.17-1.62-1.09-1.65-1.72-.04-.7.82-1.45,1.29-2.17.3,0,.6,0,.9,0Z"/>
          <path class="cls-3" d="m28.68,160.14c-.72.5-1.38,1.29-2.16,1.43-1.14.2-2-.68-1.76-1.8.15-.69,1.04-1.65,1.66-1.7.71-.06,1.48.76,2.23,1.2.01.29.02.58.03.87Z"/>
          <path class="cls-3" d="m10.39,156.68c.45.75,1.19,1.46,1.28,2.25.13,1.15-.82,1.94-1.91,1.64-.68-.19-1.58-1.15-1.59-1.77,0-.71.87-1.43,1.36-2.14.29.01.58.02.86.03Z"/>
          <path class="cls-3" d="m58.9,157.85c-.74.43-1.51,1.25-2.2,1.19-.64-.06-1.75-1.19-1.66-1.63.16-.74,1.05-1.72,1.75-1.82.63-.09,1.41.86,2.12,1.35,0,.31-.01.61-.02.92Z"/>
          <path class="cls-3" d="m41.01,156.54c-.74.46-1.44,1.21-2.22,1.3-1.13.13-1.96-.79-1.68-1.89.18-.68,1.12-1.59,1.75-1.62.7-.03,1.44.83,2.16,1.3,0,.3,0,.61-.01.91Z"/>
          <path class="cls-3" d="m110.59,150.61c.48.72,1.25,1.39,1.37,2.16.18,1.14-.71,1.99-1.82,1.75-.69-.15-1.64-1.05-1.69-1.68-.06-.69.78-1.46,1.22-2.2.31,0,.61-.01.92-.02Z"/>
          <path class="cls-3" d="m46.89,153.84c-.45-.72-1.3-1.48-1.25-2.16.05-.65,1.14-1.77,1.61-1.7.73.12,1.72,1.01,1.84,1.71.11.63-.81,1.43-1.28,2.15-.31,0-.62,0-.92,0Z"/>
          <path class="cls-3" d="m28.08,151.37c-.74.45-1.57,1.35-2.19,1.22-.7-.14-1.56-1.16-1.66-1.9-.06-.47,1.1-1.53,1.75-1.56.69-.03,1.42.84,2.13,1.32,0,.31-.02.62-.03.92Z"/>
          <path class="cls-3" d="m123.67,147.71c.47.73,1.33,1.47,1.31,2.18-.02.62-.95,1.55-1.63,1.73-1.1.29-2.02-.54-1.87-1.68.1-.78.86-1.48,1.33-2.22.29,0,.58,0,.87,0Z"/>
          <path class="cls-3" d="m137.53,148.42c-.72.48-1.45,1.34-2.16,1.32-.63-.02-1.57-.92-1.76-1.6-.31-1.11.55-2.02,1.66-1.91.78.08,1.49.85,2.24,1.31l.02.88Z"/>
          <path class="cls-3" d="m74.15,145.82c-.71.47-1.45,1.33-2.14,1.3-.65-.03-1.81-1.11-1.74-1.56.12-.74.98-1.75,1.67-1.89.62-.12,1.45.78,2.18,1.23,0,.31.01.62.02.92Z"/>
          <path class="cls-3" d="m143.86,84.26c-.72.46-1.5,1.36-2.14,1.27-.7-.1-1.27-1.12-1.89-1.74.64-.62,1.22-1.65,1.92-1.74.64-.08,1.41.86,2.12,1.35,0,.29,0,.57,0,.86Z"/>
          <path class="cls-3" d="m120.05,58.88c.47.72,1.33,1.46,1.29,2.16-.03.64-.95,1.57-1.63,1.75-1.1.28-2.01-.57-1.89-1.69.09-.77.86-1.47,1.32-2.21h.91Z"/>
          <path class="cls-3" d="m77.26,58.92c.47.72,1.22,1.4,1.35,2.18.19,1.15-.69,1.99-1.81,1.72-.7-.17-1.67-1.06-1.7-1.68-.04-.71.81-1.47,1.27-2.21.3,0,.6,0,.9-.01Z"/>
          <path class="cls-3" d="m108.21,148.57c-.75.43-1.53,1.25-2.23,1.19-.63-.06-1.51-1.01-1.66-1.71-.24-1.13.68-1.97,1.77-1.8.77.12,1.44.93,2.15,1.43-.01.3-.02.59-.04.89Z"/>
          <path class="cls-3" d="m41.14,150.54c-.49-.71-1.43-1.49-1.34-2.12.1-.7,1.08-1.61,1.81-1.75.47-.09,1.59,1.01,1.65,1.66.07.69-.77,1.46-1.21,2.19-.3,0-.61.01-.91.02Z"/>
          <path class="cls-3" d="m131.71,148.94c-.71.47-1.49,1.39-2.12,1.3-.7-.1-1.26-1.12-1.88-1.75.62-.62,1.19-1.65,1.88-1.74.63-.09,1.41.84,2.12,1.32v.87Z"/>
          <path class="cls-3" d="m96.85,88.09c-.29.1-.65.35-.87.26-.74-.29-1.72-.53-2.05-1.1-.27-.48.04-1.69.5-2.06.47-.38,1.71-.43,2.12-.07.49.43.51,1.45.63,2.23.04.24-.26.53-.41.8,0,0,.07-.07.07-.07Z"/>
          <path class="cls-3" d="m56.16,150.78c-.46-.73-1.31-1.47-1.27-2.17.03-.63.94-1.55,1.63-1.73,1.13-.3,2,.59,1.88,1.69-.09.78-.87,1.48-1.34,2.21-.3,0-.6,0-.89,0Z"/>
          <path class="cls-3" d="m65.94,149.62c-.73.44-1.5,1.27-2.19,1.21-.64-.06-1.75-1.17-1.66-1.64.13-.73,1.04-1.71,1.74-1.81.63-.09,1.42.84,2.13,1.32,0,.31-.01.61-.02.92Z"/>
          <path class="cls-3" d="m115.41,146.85c-.45-.74-1.36-1.57-1.23-2.19.14-.7,1.17-1.56,1.91-1.66.47-.07,1.54,1.1,1.56,1.74.02.7-.86,1.42-1.35,2.14-.3,0-.59-.02-.89-.02Z"/>
          <path class="cls-3" d="m103.76,87.34c-.73.48-1.42,1.27-2.2,1.36-1.11.14-1.99-.73-1.7-1.86.18-.69,1.09-1.61,1.71-1.64.71-.04,1.46.8,2.19,1.26,0,.29,0,.59,0,.88Z"/>
          <path class="cls-3" d="m29.47,88.23c-.45-.74-1.28-1.52-1.23-2.22.05-.63,1-1.55,1.69-1.69,1.08-.22,2.01.61,1.81,1.77-.14.78-.92,1.45-1.41,2.17-.29,0-.58-.02-.87-.03Z"/>
          <path class="cls-3" d="m91.15,153.18c-.45-.73-1.35-1.53-1.24-2.17.11-.69,1.15-1.23,1.79-1.84.6.64,1.6,1.25,1.67,1.94.06.65-.87,1.39-1.37,2.09-.28,0-.57-.02-.85-.03Z"/>
          <path class="cls-3" d="m114.43,89.72c-.52-.69-1.49-1.42-1.45-2.07.05-.69,1.07-1.32,1.66-1.97.64.6,1.68,1.12,1.8,1.81.11.64-.75,1.46-1.18,2.19-.28.01-.56.02-.83.04Z"/>
          <path class="cls-3" d="m96.36,143.38c-.71.5-1.38,1.29-2.16,1.41-1.11.17-2.01-.69-1.76-1.81.15-.69,1.05-1.64,1.68-1.69.7-.06,1.47.76,2.21,1.2,0,.3.02.6.03.9Z"/>
          <path class="cls-3" d="m58.45,143.71c-.73.47-1.48,1.33-2.18,1.29-.63-.04-1.54-.98-1.71-1.67-.28-1.12.59-2.01,1.7-1.87.78.1,1.46.88,2.19,1.36,0,.3,0,.59,0,.89Z"/>
          <path class="cls-3" d="m75.86,150.63c.43.75,1.14,1.46,1.22,2.24.11,1.16-.84,1.94-1.92,1.63-.68-.19-1.57-1.16-1.58-1.8-.01-.7.87-1.41,1.37-2.12.3.01.61.03.91.04Z"/>
          <path class="cls-3" d="m63.89,153.77c-.76.43-1.55,1.25-2.26,1.18-.63-.06-1.52-1.03-1.65-1.73-.22-1.12.7-1.98,1.81-1.78.78.14,1.43.96,2.15,1.48-.01.28-.02.56-.04.84Z"/>
          <path class="cls-3" d="m108.51,85.72c-.74.44-1.44,1.15-2.22,1.25-1.14.14-1.78-.7-1.73-1.86.05-1.16.79-1.94,1.89-1.69.77.17,1.4.96,2.1,1.48l-.05.82Z"/>
          <path class="cls-3" d="m54.29,90.53c-.44-.75-1.16-1.48-1.24-2.26-.11-1.16.83-1.94,1.92-1.61.68.2,1.58,1.17,1.58,1.79,0,.71-.9,1.42-1.41,2.13-.29-.01-.57-.03-.86-.04Z"/>
          <path class="cls-3" d="m131.2,157.31c-.53-.69-1.5-1.41-1.46-2.06.05-.7,1.06-1.32,1.65-1.98.65.59,1.7,1.11,1.82,1.8.12.64-.75,1.46-1.18,2.2-.28.01-.56.03-.84.04Z"/>
          <path class="cls-3" d="m25.64,144.23c-.49-.71-1.29-1.37-1.41-2.14-.18-1.12.7-2.01,1.81-1.78.69.14,1.64,1.05,1.71,1.69.07.69-.76,1.47-1.19,2.21-.3,0-.6.02-.91.02Z"/>
          <path class="cls-3" d="m15.09,153.62c.47.73,1.25,1.43,1.35,2.21.14,1.12-.77,1.98-1.87,1.7-.68-.17-1.6-1.1-1.64-1.73-.04-.7.8-1.45,1.26-2.18.3,0,.6,0,.9,0Z"/>
          <path class="cls-3" d="m15.45,64.12c-.49-.72-1.37-1.44-1.35-2.15.02-.64.92-1.62,1.59-1.79,1.05-.27,2.05.5,1.91,1.67-.09.79-.83,1.5-1.29,2.24-.29,0-.57.02-.86.03Z"/>
          <path class="cls-3" d="m116.28,154.46c.44.75,1.17,1.47,1.26,2.26.12,1.17-.84,1.93-1.92,1.62-.68-.2-1.58-1.16-1.58-1.78,0-.72.89-1.43,1.39-2.14.28.01.57.03.85.04Z"/>
          <path class="cls-3" d="m138.37,139.47c.47.73,1.4,1.54,1.3,2.16-.12.69-1.13,1.58-1.87,1.7-.47.08-1.57-1.06-1.61-1.7-.04-.69.82-1.44,1.28-2.17.3,0,.6,0,.9,0Z"/>
          <path class="cls-3" d="m84.48,139.14c.48.72,1.4,1.51,1.31,2.15-.09.68-1.07,1.57-1.81,1.74-1.12.25-1.92-.7-1.74-1.78.13-.77.91-1.43,1.4-2.13.28,0,.56.02.84.02Z"/>
          <path class="cls-3" d="m68.32,88.99c-.73.46-1.51,1.36-2.16,1.27-.69-.1-1.25-1.13-1.86-1.76.64-.6,1.23-1.62,1.92-1.69.65-.07,1.41.86,2.12,1.35,0,.28-.01.55-.02.83Z"/>
          <path class="cls-3" d="m11.56,89.2c-.73.48-1.53,1.41-2.17,1.31-.69-.1-1.58-1.12-1.71-1.85-.08-.46,1.06-1.56,1.7-1.6.7-.04,1.46.81,2.19,1.27,0,.29,0,.58,0,.87Z"/>
          <path class="cls-3" d="m50.74,143.1c-.45-.74-1.29-1.52-1.22-2.21.06-.64,1.03-1.55,1.73-1.69,1.09-.22,1.99.64,1.79,1.78-.13.77-.91,1.43-1.39,2.14-.3,0-.61-.02-.91-.03Z"/>
          <path class="cls-3" d="m78.2,156.49c.49.71,1.28,1.37,1.41,2.14.19,1.14-.7,2-1.8,1.78-.69-.14-1.64-1.04-1.71-1.69-.07-.68.75-1.47,1.18-2.21.3,0,.61-.02.91-.03Z"/>
          <path class="cls-3" d="m110.83,159.33c-.72.49-1.51,1.44-2.15,1.34-.69-.1-1.6-1.12-1.71-1.85-.07-.5,1.03-1.61,1.66-1.66.7-.05,1.46.82,2.19,1.28,0,.29,0,.59,0,.88Z"/>
          <path class="cls-3" d="m13.2,141.4c-.69.51-1.43,1.46-2.07,1.4-.69-.07-1.77-1.06-1.8-1.69-.03-.62.98-1.69,1.66-1.81.64-.11,1.44.78,2.17,1.24.01.29.02.58.03.86Z"/>
          <path class="cls-3" d="m43.98,85.65c-.74.45-1.51,1.29-2.2,1.24-.63-.05-1.53-1-1.69-1.69-.26-1.11.6-1.99,1.74-1.81.78.12,1.45.88,2.17,1.36,0,.3-.01.6-.02.91Z"/>
          <path class="cls-3" d="m106.97,140.84c-.71.49-1.47,1.43-2.12,1.36-.69-.08-1.28-1.1-1.92-1.72.62-.62,1.18-1.65,1.87-1.75.65-.09,1.43.81,2.16,1.28,0,.28,0,.55,0,.83Z"/>
          <path class="cls-3" d="m82.59,63.86c-.48-.72-1.35-1.44-1.32-2.14.02-.63.92-1.58,1.6-1.77,1.1-.31,2.03.53,1.91,1.65-.08.78-.84,1.5-1.29,2.24l-.89.02Z"/>
          <path class="cls-3" d="m40.02,91.05c-.74.44-1.53,1.29-2.21,1.22-.65-.07-1.75-1.21-1.65-1.68.14-.73,1.08-1.72,1.78-1.81.63-.09,1.4.89,2.11,1.39,0,.3-.02.59-.03.89Z"/>
          <path class="cls-3" d="m50.73,160.22c.47.72,1.41,1.53,1.3,2.15-.12.7-1.12,1.58-1.86,1.71-.45.08-1.48-1-1.64-1.7-.25-1.11.55-1.81,2.2-2.16Z"/>
          <path class="cls-3" d="m22.02,85.05c-.73.47-1.43,1.26-2.21,1.34-1.11.12-1.98-.76-1.68-1.89.19-.7,1.11-1.64,1.72-1.66.71-.02,1.45.85,2.18,1.34,0,.29,0,.58-.01.86Z"/>
          <path class="cls-3" d="m22.36,165.69c-.75.44-1.53,1.27-2.24,1.21-.62-.05-1.49-1.03-1.64-1.74-.25-1.14.68-1.98,1.77-1.8.77.13,1.43.95,2.14,1.46-.01.29-.02.57-.04.86Z"/>
          <path class="cls-3" d="m119.73,91.81c-.73.47-1.42,1.25-2.19,1.34-1.12.14-1.98-.75-1.7-1.87.17-.68,1.09-1.59,1.72-1.63.7-.04,1.45.79,2.17,1.25,0,.3,0,.6,0,.91Z"/>
          <path class="cls-3" d="m12.43,166.2c-.75.44-1.54,1.28-2.23,1.2-.63-.07-1.51-1.05-1.65-1.76-.22-1.11.66-1.97,1.8-1.76.77.15,1.42.91,2.12,1.4-.01.3-.03.61-.04.91Z"/>
          <path class="cls-3" d="m53.45,92.73c-.73.45-1.54,1.33-2.18,1.22-.69-.11-1.23-1.15-1.84-1.79.65-.59,1.26-1.6,1.96-1.66.65-.06,1.38.89,2.08,1.39l-.03.84Z"/>
          <path class="cls-3" d="m35.85,62.27c.47.73,1.37,1.52,1.27,2.16-.1.68-1.17,1.69-1.8,1.67-.62-.02-1.64-1.08-1.7-1.76-.06-.65.88-1.39,1.38-2.09l.85.03Z"/>
          <path class="cls-3" d="m66.13,135.7c-.73.46-1.53,1.36-2.18,1.27-.68-.1-1.6-1.08-1.74-1.81-.2-1.06.69-1.94,1.81-1.71.78.16,1.43.93,2.13,1.43,0,.27-.02.54-.03.81Z"/>
          <path class="cls-3" d="m56.79,169.75c-.7.51-1.46,1.49-2.1,1.42-.7-.08-1.64-1.03-1.81-1.76-.11-.45.98-1.62,1.62-1.69.7-.08,1.49.73,2.25,1.15.01.29.03.59.04.88Z"/>
          <path class="cls-3" d="m131.51,96.14c-.51-.71-1.41-1.42-1.41-2.13,0-.62.91-1.57,1.6-1.78,1.1-.33,2.04.46,1.92,1.62-.08.79-.81,1.51-1.25,2.26-.29.01-.57.03-.86.04Z"/>
          <path class="cls-3" d="m55.42,135.5c-.75.44-1.47,1.16-2.26,1.24-1.17.13-1.93-.84-1.61-1.92.2-.68,1.16-1.58,1.79-1.58.71,0,1.42.89,2.13,1.39-.01.29-.03.58-.04.86Z"/>
          <path class="cls-3" d="m27.2,82.66c-.72.48-1.45,1.35-2.16,1.33-.62-.01-1.56-.93-1.75-1.61-.31-1.11.55-2.02,1.66-1.9.78.08,1.49.86,2.23,1.32l.02.86Z"/>
          <path class="cls-3" d="m88.63,136.92c-.45-.75-1.21-1.47-1.29-2.25-.12-1.14.83-1.95,1.92-1.64.68.19,1.58,1.16,1.59,1.79,0,.71-.87,1.43-1.37,2.15-.28-.01-.56-.02-.85-.04Z"/>
          <path class="cls-3" d="m21.18,92.61c.48.71,1.35,1.43,1.32,2.13-.02.64-1.07,1.81-1.53,1.74-.74-.1-1.78-.94-1.92-1.63-.13-.63.77-1.46,1.21-2.21l.92-.03Z"/>
          <path class="cls-3" d="m140.21,171.41c-.7.49-1.36,1.27-2.12,1.41-1.13.21-2.02-.62-1.79-1.75.14-.71,1.01-1.69,1.64-1.76.7-.07,1.49.76,2.24,1.2.01.3.03.6.04.9Z"/>
          <path class="cls-3" d="m109.85,172.27c-.71.47-1.49,1.39-2.12,1.3-.7-.1-1.27-1.12-1.89-1.74.63-.62,1.21-1.65,1.91-1.75.63-.09,1.4.85,2.11,1.34,0,.28,0,.57,0,.85Z"/>
          <path class="cls-3" d="m129.79,171.37c.42-.08.84-.24,1.26-.21,1.23.09,1.94.76,1.83,2.02-.11,1.28-.95,1.85-2.16,1.63-1.22-.23-1.7-1.12-1.43-2.33.09-.4.36-.77.54-1.15l-.05.04Z"/>
          <path class="cls-3" d="m124.43,174.27c-.7.5-1.43,1.44-2.08,1.38-.7-.06-1.31-1.06-1.96-1.65.6-.64,1.14-1.69,1.82-1.8.65-.11,1.45.78,2.19,1.23,0,.28.02.56.03.83Z"/>
          <path class="cls-3" d="m12.32,172.14c.48.72,1.34,1.45,1.31,2.15-.03.63-.93,1.57-1.61,1.76-1.12.31-2.01-.57-1.9-1.67.08-.78.84-1.49,1.3-2.23.3,0,.6,0,.9-.01Z"/>
          <path class="cls-3" d="m126.04,131.27c.44.74,1.28,1.51,1.21,2.2-.06.64-1.18,1.76-1.64,1.67-.73-.14-1.72-1.05-1.83-1.75-.09-.63.85-1.42,1.34-2.13.3,0,.61,0,.91.01Z"/>
          <path class="cls-3" d="m61.36,95.68c-.73.47-1.41,1.22-2.19,1.34-1.16.18-1.98-.73-1.71-1.83.17-.69,1.08-1.65,1.7-1.68.71-.04,1.46.82,2.19,1.29,0,.29,0,.59,0,.88Z"/>
          <path class="cls-3" d="m65.39,92.93c.52.69,1.49,1.41,1.43,2.05-.06.7-1.04,1.8-1.66,1.83-.62.03-1.7-.97-1.84-1.66-.12-.63.77-1.45,1.21-2.18.29-.01.57-.03.86-.04Z"/>
          <path class="cls-3" d="m24.64,97.91c-.48-.72-1.39-1.49-1.31-2.14.08-.69,1.1-1.27,1.71-1.9.62.63,1.67,1.2,1.75,1.89.08.65-.85,1.43-1.34,2.15-.27,0-.54,0-.81,0Z"/>
          <path class="cls-3" d="m36.84,97.79c-.48-.72-1.34-1.45-1.31-2.15.03-.64.93-1.6,1.61-1.78,1.09-.28,2.01.57,1.9,1.69-.08.77-.84,1.48-1.29,2.22-.3,0-.61.01-.91.02Z"/>
          <path class="cls-3" d="m129.61,95.82c-.69.52-1.42,1.48-2.07,1.43-.69-.05-1.32-1.06-1.97-1.65.6-.64,1.12-1.69,1.81-1.81.65-.11,1.46.76,2.2,1.19.01.28.02.55.03.83Z"/>
          <path class="cls-3" d="m103.83,179.55c-.47-.73-1.32-1.48-1.28-2.18.04-.64.97-1.59,1.66-1.74,1.07-.24,2.02.56,1.85,1.73-.12.78-.87,1.47-1.34,2.2-.3,0-.59,0-.89,0Z"/>
          <path class="cls-3" d="m78.71,133.16c-.72.47-1.5,1.37-2.15,1.28-.69-.09-1.25-1.13-1.87-1.75.63-.61,1.22-1.64,1.91-1.72.65-.07,1.41.86,2.12,1.35,0,.28,0,.56-.01.84Z"/>
          <path class="cls-3" d="m138.68,129.87c.46.73,1.2,1.42,1.3,2.2.14,1.1-.73,1.99-1.82,1.7-.73-.2-1.67-1.14-1.72-1.82-.05-.66.9-1.4,1.41-2.1.28,0,.55.02.83.02Z"/>
          <path class="cls-3" d="m126.03,179.49c-.73.47-1.43,1.26-2.21,1.35-1.11.13-1.98-.77-1.69-1.88.18-.68,1.11-1.6,1.73-1.63.71-.03,1.45.82,2.18,1.29,0,.29,0,.58,0,.88Z"/>
          <path class="cls-3" d="m117.86,96.52c-.71.5-1.46,1.44-2.11,1.37-.68-.07-1.61-1.02-1.79-1.75-.28-1.1.64-1.95,1.72-1.8.77.11,1.45.87,2.18,1.35,0,.28,0,.55,0,.83Z"/>
          <path class="cls-3" d="m121.5,129.12c.51.71,1.4,1.42,1.4,2.13,0,.62-.92,1.58-1.61,1.78-1.1.33-2.04-.5-1.94-1.62.07-.78.82-1.5,1.27-2.25.29-.01.58-.02.88-.04Z"/>
          <path class="cls-3" d="m29.87,94.42c.49.71,1.43,1.48,1.35,2.11-.09.7-1.12,1.75-1.75,1.76-.62,0-1.66-1.05-1.76-1.75-.09-.63.83-1.41,1.31-2.12.28,0,.56,0,.85,0Z"/>
          <path class="cls-3" d="m49.08,131.38c-.75.44-1.47,1.16-2.26,1.24-1.17.12-1.93-.83-1.62-1.92.2-.68,1.16-1.58,1.78-1.58.71,0,1.43.89,2.14,1.39-.02.29-.03.58-.05.87Z"/>
          <path class="cls-3" d="m39.93,131.46c-.73.44-1.5,1.27-2.18,1.22-.64-.05-1.75-1.16-1.67-1.62.14-.73,1.03-1.73,1.72-1.84.63-.1,1.42.84,2.14,1.32,0,.31,0,.61-.01.92Z"/>
          <path class="cls-3" d="m13.12,180.78c.47.74,1.32,1.5,1.28,2.21-.03.62-.99,1.52-1.69,1.69-1.12.27-2-.61-1.85-1.72.11-.78.91-1.46,1.41-2.19h.86Z"/>
          <path class="cls-3" d="m26.92,185.24c-.45-.75-1.2-1.47-1.28-2.26-.11-1.13.83-1.95,1.93-1.63.68.2,1.58,1.16,1.58,1.78,0,.71-.87,1.43-1.37,2.14-.29-.01-.57-.02-.86-.04Z"/>
          <path class="cls-3" d="m89.94,78.47c.44.74,1.27,1.52,1.2,2.21-.07.65-1.02,1.56-1.71,1.69-1.07.21-2-.63-1.8-1.78.14-.77.92-1.43,1.41-2.14l.91.02Z"/>
          <path class="cls-3" d="m89.64,95.93c.5.71,1.46,1.49,1.37,2.12-.1.7-1.07,1.63-1.81,1.78-.46.1-1.61-1.01-1.67-1.65-.07-.7.77-1.48,1.21-2.22l.89-.03Z"/>
          <path class="cls-3" d="m111.63,184.36c.49.71,1.44,1.48,1.35,2.12-.09.7-1.07,1.62-1.79,1.77-.46.09-1.59-1-1.66-1.64-.07-.69.76-1.47,1.19-2.21.3,0,.61-.02.91-.03Z"/>
          <path class="cls-3" d="m133.82,189.99c-.47-.73-1.32-1.49-1.28-2.19.04-.64,1.15-1.79,1.6-1.71.74.13,1.74,1.03,1.85,1.72.1.65-.83,1.45-1.3,2.18-.29,0-.58,0-.87,0Z"/>
          <path class="cls-3" d="m84.53,131.24c-.47-.72-1.24-1.4-1.35-2.17-.17-1.14.74-1.98,1.83-1.74.69.15,1.62,1.08,1.68,1.72.06.69-.79,1.46-1.24,2.19-.3,0-.61,0-.91,0Z"/>
          <path class="cls-3" d="m59.29,185.93c.48.73,1.26,1.41,1.37,2.19.16,1.12-.72,1.99-1.84,1.72-.69-.17-1.62-1.07-1.66-1.7-.05-.7.79-1.46,1.24-2.2.3,0,.6,0,.89,0Z"/>
          <path class="cls-3" d="m36.13,99.15c-.75.44-1.47,1.17-2.26,1.25-1.16.12-1.95-.82-1.63-1.91.2-.69,1.16-1.6,1.78-1.6.71,0,1.43.89,2.14,1.39-.01.29-.03.58-.04.87Z"/>
          <path class="cls-3" d="m84.41,188.71c.44.74,1.31,1.55,1.2,2.2-.11.68-1.16,1.21-1.8,1.8-.59-.65-1.6-1.27-1.65-1.96-.05-.65.91-1.38,1.42-2.07.28.01.55.03.83.04Z"/>
          <path class="cls-3" d="m40.79,129.65c-.45-.73-1.2-1.42-1.29-2.19-.12-1.09.73-2,1.83-1.7.72.2,1.65,1.15,1.71,1.83.06.65-.89,1.39-1.39,2.08-.29,0-.58-.02-.86-.03Z"/>
          <path class="cls-3" d="m131.57,100.96c-.45-.75-1.27-1.52-1.22-2.23.05-.62,1.01-1.51,1.7-1.66,1.11-.24,1.99.63,1.8,1.76-.13.78-.93,1.44-1.43,2.16-.29,0-.57-.02-.86-.03Z"/>
          <path class="cls-3" d="m90.72,124.6c.5.7,1.45,1.45,1.39,2.08-.07.69-1.08,1.75-1.72,1.78-.61.02-1.68-1-1.79-1.69-.1-.63.8-1.43,1.26-2.15.29,0,.57-.01.86-.02Z"/>
          <path class="cls-3" d="m40.42,98.37c.51.71,1.4,1.42,1.4,2.13,0,.63-.9,1.59-1.58,1.8-1.09.32-2.03-.49-1.94-1.62.07-.79.82-1.51,1.26-2.26.29-.01.57-.03.86-.04Z"/>
          <path class="cls-3" d="m46.97,98.25c.44.75,1.26,1.53,1.19,2.22-.06.63-1.2,1.72-1.67,1.62-.73-.15-1.71-1.07-1.8-1.76-.08-.64.88-1.41,1.38-2.12.3.01.6.02.89.04Z"/>
          <path class="cls-3" d="m79.23,193.71c-.72.47-1.46,1.33-2.16,1.3-.63-.02-1.56-.93-1.74-1.62-.29-1.1.54-2.02,1.67-1.89.78.09,1.48.86,2.22,1.32,0,.3,0,.59.01.89Z"/>
          <path class="cls-3" d="m108.24,195.49c-.48-.71-1.23-1.38-1.36-2.15-.2-1.16.73-1.99,1.8-1.77.69.14,1.64,1.06,1.7,1.71.07.68-.78,1.45-1.22,2.19l-.92.02Z"/>
          <path class="cls-3" d="m51.35,98.29c.48.71,1.26,1.38,1.38,2.16.17,1.1-.68,2.01-1.77,1.74-.73-.18-1.71-1.09-1.79-1.77-.08-.65.86-1.42,1.35-2.13.28,0,.56,0,.83,0Z"/>
          <path class="cls-3" d="m58.45,101.31c-.71.5-1.45,1.45-2.11,1.38-.67-.06-1.6-1.01-1.8-1.74-.3-1.11.63-1.95,1.71-1.82.77.1,1.46.86,2.19,1.33,0,.28,0,.56.01.84Z"/>
          <path class="cls-3" d="m11.3,99.3c.42.75,1.23,1.54,1.14,2.23-.08.64-1.23,1.72-1.69,1.62-.73-.16-1.68-1.1-1.76-1.8-.07-.63.89-1.38,1.4-2.08.3.01.61.03.91.04Z"/>
          <path class="cls-3" d="m68.72,127.63c-.44-.76-1.16-1.49-1.24-2.28-.11-1.17.88-1.93,1.94-1.62.68.2,1.58,1.19,1.57,1.82-.01.72-.92,1.42-1.44,2.13-.28-.01-.55-.03-.83-.04Z"/>
          <path class="cls-3" d="m65.83,197.19c.46.74,1.32,1.5,1.28,2.21-.03.63-1.16,1.75-1.63,1.66-.73-.13-1.75-1.03-1.85-1.72-.09-.65.86-1.44,1.36-2.16.28,0,.56,0,.84.01Z"/>
          <path class="cls-3" d="m37.95,69.62c-.71.5-1.42,1.39-2.12,1.39-.63,0-1.6-.88-1.8-1.56-.33-1.1.5-2.03,1.62-1.93.78.07,1.51.81,2.27,1.25.01.29.03.57.04.86Z"/>
          <path class="cls-3" d="m21.74,99.9c.5.71,1.46,1.48,1.39,2.12-.08.69-1.06,1.63-1.78,1.78-.46.1-1.61-1-1.67-1.64-.07-.7.76-1.49,1.2-2.24.29-.01.58-.02.87-.03Z"/>
          <path class="cls-3" d="m115.39,198.56c.47.73,1.25,1.41,1.35,2.19.14,1.11-.74,1.99-1.86,1.71-.69-.17-1.61-1.08-1.65-1.71-.04-.7.8-1.45,1.25-2.18.3,0,.6,0,.9,0Z"/>
          <path class="cls-3" d="m62.31,126.89c-.5-.7-1.44-1.44-1.39-2.09.06-.69,1.07-1.3,1.66-1.95.64.6,1.69,1.14,1.79,1.83.1.65-.79,1.45-1.24,2.19-.28,0-.55.02-.83.02Z"/>
          <path class="cls-3" d="m47.48,124.89c-.73.47-1.55,1.4-2.18,1.28-.7-.13-1.58-1.14-1.71-1.88-.08-.45,1.09-1.55,1.73-1.58.7-.04,1.44.82,2.17,1.29,0,.3,0,.59,0,.89Z"/>
          <path class="cls-3" d="m12.99,202.87c-.7.5-1.45,1.44-2.1,1.38-.69-.06-1.3-1.07-1.94-1.67.61-.63,1.15-1.67,1.84-1.78.65-.1,1.45.79,2.18,1.24,0,.28.02.56.02.83Z"/>
          <path class="cls-3" d="m76.8,81.08c-.18-.25-.52-.5-.51-.74.02-.79-.08-1.8.35-2.31.35-.41,1.59-.53,2.09-.22.51.31.99,1.46.79,1.96-.24.61-1.19.97-1.89,1.35-.22.12-.6-.06-.9-.1,0,0,.07.06.07.06Z"/>
          <path class="cls-3" d="m80.25,122.04c.49.7,1.27,1.34,1.41,2.1.21,1.1-.6,2.04-1.7,1.81-.74-.15-1.73-1.04-1.84-1.72-.1-.64.81-1.44,1.27-2.17.28,0,.57-.02.85-.03Z"/>
          <path class="cls-3" d="m82.92,202.47c.44.74,1.31,1.55,1.2,2.19-.11.69-1.15,1.22-1.79,1.82-.59-.65-1.6-1.27-1.66-1.96-.05-.65.9-1.38,1.42-2.08.28.01.56.02.84.03Z"/>
          <path class="cls-3" d="m116.43,123.35c-.71.49-1.38,1.28-2.15,1.39-1.11.17-2.01-.7-1.76-1.82.15-.69,1.05-1.63,1.68-1.69.69-.06,1.46.76,2.2,1.2,0,.31.02.61.02.92Z"/>
          <path class="cls-3" d="m98.92,69.77c-.71.52-1.41,1.42-2.13,1.43-.62,0-1.58-.91-1.79-1.59-.32-1.08.42-2.05,1.61-1.92.79.09,1.52.79,2.27,1.22.01.29.03.58.04.86Z"/>
          <path class="cls-3" d="m74.73,205.9c-.73.48-1.47,1.35-2.17,1.32-.62-.02-1.55-.95-1.73-1.64-.28-1.09.51-2.02,1.68-1.86.79.11,1.48.85,2.22,1.31,0,.29,0,.58.01.87Z"/>
          <path class="cls-3" d="m139.09,104.05c-.73.45-1.53,1.34-2.16,1.23-.69-.12-1.71-1.19-1.68-1.81.03-.63,1.1-1.63,1.8-1.7.63-.07,1.37.89,2.06,1.4,0,.29-.02.58-.03.87Z"/>
          <path class="cls-3" d="m25.27,78.84c-.75.47-1.46,1.24-2.25,1.32-1.12.12-1.96-.81-1.66-1.91.19-.68,1.14-1.59,1.76-1.6.71-.01,1.44.86,2.16,1.34,0,.28-.01.56-.02.84Z"/>
          <path class="cls-3" d="m82.58,70.63c-.73.46-1.53,1.35-2.17,1.25-.68-.11-1.68-1.18-1.66-1.81.02-.62,1.1-1.63,1.78-1.68.65-.05,1.39.89,2.08,1.4-.01.28-.02.56-.03.85Z"/>
          <path class="cls-3" d="m52.08,210.19c-.45-.74-1.28-1.5-1.24-2.21.04-.62.98-1.53,1.67-1.69,1.12-.26,2,.61,1.84,1.73-.11.78-.9,1.46-1.39,2.18-.3,0-.59,0-.89-.01Z"/>
          <path class="cls-3" d="m97.71,120.57c.48.7,1.25,1.36,1.39,2.13.2,1.1-.62,2.03-1.72,1.79-.73-.16-1.71-1.06-1.81-1.74-.09-.64.82-1.43,1.29-2.16.29,0,.57-.01.86-.02Z"/>
          <path class="cls-3" d="m134.39,78.44c-.71.49-1.38,1.28-2.15,1.41-1.12.18-2-.72-1.78-1.81.14-.69,1.06-1.62,1.7-1.68.69-.06,1.47.76,2.21,1.2,0,.3.02.6.02.89Z"/>
          <path class="cls-3" d="m141.49,121.64c-.73.45-1.54,1.35-2.18,1.24-.69-.11-1.22-1.17-1.82-1.81.65-.59,1.26-1.59,1.96-1.65.65-.06,1.38.89,2.08,1.39-.01.28-.02.55-.03.83Z"/>
          <path class="cls-3" d="m16.5,121.15c-.73.48-1.42,1.26-2.2,1.36-1.11.14-1.99-.76-1.72-1.86.17-.69,1.09-1.62,1.72-1.65.71-.04,1.46.81,2.2,1.27,0,.3,0,.59,0,.89Z"/>
          <path class="cls-3" d="m116.64,67.72c.52.69,1.48,1.42,1.42,2.05-.06.7-1.04,1.79-1.67,1.82-.62.03-1.7-.97-1.83-1.66-.12-.63.76-1.44,1.21-2.18.29-.01.58-.03.87-.04Z"/>
          <path class="cls-3" d="m56.32,121.05c-.74.43-1.53,1.24-2.22,1.17-.64-.07-1.72-1.21-1.62-1.67.15-.73,1.08-1.69,1.78-1.78.63-.08,1.39.88,2.1,1.38-.01.3-.02.61-.04.91Z"/>
          <path class="cls-3" d="m106.6,258.62c.46.72,1.32,1.47,1.27,2.15-.04.65-1.12,1.79-1.59,1.71-.73-.12-1.74-1-1.87-1.69-.11-.62.8-1.44,1.26-2.17h.92Z"/>
          <path class="cls-3" d="m137.58,210.76c.47.73,1.25,1.42,1.34,2.19.13,1.11-.76,1.99-1.87,1.72-.7-.17-1.64-1.1-1.68-1.73-.04-.7.83-1.45,1.31-2.17.3,0,.6,0,.9,0Z"/>
          <path class="cls-3" d="m44.31,261.08c-.72.5-1.4,1.29-2.18,1.41-1.12.18-2-.7-1.74-1.82.16-.7,1.06-1.66,1.68-1.7.71-.05,1.48.79,2.22,1.24,0,.29.01.58.02.86Z"/>
          <path class="cls-3" d="m9.51,105.05c.49.72,1.37,1.44,1.36,2.15,0,.63-.91,1.6-1.59,1.78-1.07.28-2.05-.47-1.9-1.65.1-.79.83-1.5,1.28-2.25.29,0,.57-.02.86-.03Z"/>
          <path class="cls-3" d="m111.15,217.97c-.74.45-1.5,1.3-2.2,1.25-.62-.04-1.53-.99-1.69-1.68-.26-1.12.61-2,1.73-1.84.78.11,1.46.91,2.18,1.4,0,.29,0,.58-.01.87Z"/>
          <path class="cls-3" d="m12.02,76.49c-.73.46-1.49,1.3-2.2,1.26-.62-.04-1.53-.98-1.7-1.68-.28-1.13.62-1.99,1.72-1.84.78.11,1.46.9,2.19,1.38,0,.29-.01.59-.02.88Z"/>
          <path class="cls-3" d="m32.65,218.56c-.72.48-1.39,1.23-2.17,1.37-1.17.2-1.98-.76-1.78-1.81.13-.69,1.08-1.64,1.72-1.69.7-.06,1.47.79,2.21,1.24,0,.3.01.59.02.89Z"/>
          <path class="cls-3" d="m30.03,120.65c-.73.46-1.49,1.3-2.19,1.25-.64-.04-1.79-1.16-1.7-1.61.14-.74,1.04-1.74,1.73-1.85.64-.1,1.44.84,2.17,1.33,0,.29,0,.59,0,.88Z"/>
          <path class="cls-3" d="m49.87,219.34c-.73.47-1.47,1.32-2.18,1.29-.62-.02-1.54-.95-1.72-1.63-.29-1.11.55-2.02,1.68-1.87.78.1,1.48.87,2.22,1.34,0,.29,0,.58,0,.87Z"/>
          <path class="cls-3" d="m10.18,120.22c-.71.49-1.44,1.36-2.14,1.34-.63-.02-1.56-.92-1.77-1.6-.33-1.13.54-2.01,1.64-1.92.78.07,1.5.83,2.24,1.29,0,.3.02.6.02.9Z"/>
          <path class="cls-3" d="m130.54,248.25c.48.72,1.4,1.5,1.31,2.13-.1.69-1.06,1.61-1.79,1.77-1.09.25-1.93-.66-1.74-1.77.13-.77.88-1.43,1.35-2.14.29,0,.58,0,.87,0Z"/>
          <path class="cls-3" d="m114.17,119.64c-.75.43-1.54,1.24-2.24,1.17-.63-.07-1.69-1.22-1.59-1.7.15-.72,1.09-1.7,1.78-1.78.64-.07,1.39.9,2.09,1.42-.02.3-.03.59-.05.89Z"/>
          <path class="cls-3" d="m93.73,110.77c-.73.47-1.42,1.25-2.2,1.34-1.12.14-1.99-.73-1.7-1.86.18-.69,1.1-1.62,1.72-1.65.71-.03,1.46.81,2.19,1.28,0,.29,0,.59,0,.88Z"/>
          <path class="cls-3" d="m122.76,111.03c-.71.46-1.49,1.36-2.13,1.27-.69-.1-1.74-1.14-1.72-1.74.02-.64,1.06-1.65,1.75-1.74.63-.08,1.39.85,2.1,1.34,0,.29,0,.58,0,.88Z"/>
          <path class="cls-3" d="m143.48,245.65c-.71.49-1.43,1.37-2.13,1.36-.63,0-1.58-.89-1.78-1.57-.33-1.1.48-2.04,1.62-1.93.79.07,1.51.82,2.26,1.27.01.29.03.58.04.87Z"/>
          <path class="cls-3" d="m110.63,245.75c-.75.44-1.54,1.27-2.24,1.2-.64-.06-1.55-1.04-1.68-1.73-.19-1.07.66-2,1.81-1.78.78.15,1.44.93,2.15,1.44-.01.29-.02.58-.04.87Z"/>
          <path class="cls-3" d="m79.81,75.37c-.69.52-1.41,1.49-2.06,1.44-.7-.05-1.33-1.05-1.99-1.64.59-.64,1.11-1.68,1.8-1.81.64-.12,1.46.74,2.2,1.16.01.28.03.57.04.85Z"/>
          <path class="cls-3" d="m71.81,229.82c-.46-.73-1.31-1.49-1.27-2.2.03-.62.98-1.53,1.67-1.69,1.11-.27,2,.59,1.84,1.72-.11.78-.9,1.46-1.38,2.19-.29,0-.57,0-.86-.01Z"/>
          <path class="cls-3" d="m51.48,75.36c-.72.47-1.47,1.33-2.16,1.29-.63-.03-1.57-.95-1.74-1.63-.29-1.11.6-2.01,1.7-1.89.77.08,1.47.86,2.2,1.33v.9Z"/>
          <path class="cls-3" d="m93.73,239.97c-.73.48-1.43,1.27-2.21,1.36-1.1.12-1.99-.76-1.69-1.88.19-.7,1.1-1.64,1.72-1.66.71-.02,1.45.84,2.18,1.32,0,.29,0,.58,0,.86Z"/>
          <path class="cls-3" d="m49.45,233.04c-.71.49-1.43,1.37-2.14,1.36-.63,0-1.58-.9-1.78-1.58-.32-1.11.53-2.03,1.64-1.93.79.07,1.51.84,2.26,1.29,0,.28.02.57.03.85Z"/>
          <path class="cls-3" d="m100.56,233.51c-.71.49-1.49,1.44-2.11,1.34-.7-.1-1.64-1.08-1.77-1.8-.09-.49,1-1.63,1.65-1.69.69-.07,1.47.78,2.21,1.23l.02.91Z"/>
          <path class="cls-3" d="m26.39,110.56c.5.71,1.38,1.43,1.37,2.14,0,.62-.91,1.57-1.6,1.77-1.11.33-2.03-.52-1.94-1.63.07-.78.84-1.5,1.3-2.25.29-.01.58-.02.87-.03Z"/>
          <path class="cls-3" d="m99.76,112.05c.49.72,1.37,1.44,1.37,2.14,0,.62-.91,1.58-1.6,1.77-1.09.31-2.04-.47-1.9-1.64.09-.79.82-1.5,1.26-2.25.29,0,.58-.02.87-.03Z"/>
          <path class="cls-3" d="m81.89,111.67c.47.73,1.38,1.53,1.28,2.17-.11.68-1.1,1.55-1.85,1.71-1.11.23-1.92-.73-1.72-1.8.14-.76.94-1.41,1.44-2.11.28.01.56.02.84.03Z"/>
          <path class="cls-3" d="m131.6,237.87c-.48-.72-1.36-1.45-1.33-2.14.03-.65,1.11-1.81,1.57-1.74.74.11,1.76.98,1.9,1.68.12.63-.79,1.45-1.25,2.19-.3,0-.59.01-.89.02Z"/>
          <path class="cls-3" d="m72.16,62.11c.45.73,1.29,1.5,1.24,2.19-.05.64-1.17,1.76-1.62,1.68-.74-.14-1.73-1.04-1.84-1.73-.1-.63.85-1.43,1.33-2.15.3,0,.59,0,.89.01Z"/>
          <path class="cls-3" d="m135.5,113.35c-.71.49-1.49,1.45-2.12,1.36-.7-.09-1.62-1.07-1.76-1.8-.09-.46,1.01-1.6,1.65-1.66.69-.07,1.47.77,2.21,1.21,0,.3.02.59.02.89Z"/>
          <path class="cls-3" d="m118.26,235.21c.48.72,1.41,1.49,1.33,2.13-.1.69-1.14,1.74-1.77,1.74-.62,0-1.65-1.07-1.74-1.76-.08-.64.85-1.4,1.34-2.11.28,0,.56,0,.84,0Z"/>
          <path class="cls-3" d="m61.47,74.62c-.73.46-1.48,1.31-2.17,1.26-.64-.04-1.55-.96-1.73-1.65-.29-1.12.61-1.99,1.71-1.87.77.09,1.46.87,2.19,1.34,0,.3,0,.61,0,.91Z"/>
          <path class="cls-3" d="m102.92,132.15c.5.72,1.3,1.39,1.42,2.17.18,1.13-.7,2-1.82,1.75-.71-.16-1.69-1.06-1.73-1.68-.04-.71.82-1.48,1.29-2.23.28,0,.56,0,.84-.01Z"/>
          <path class="cls-3" d="m39.67,117.97c-.48-.73-1.4-1.54-1.3-2.18.11-.69,1.13-1.59,1.86-1.71.47-.08,1.58,1.07,1.61,1.7.03.71-.83,1.45-1.31,2.19-.29,0-.57,0-.86,0Z"/>
          <path class="cls-3" d="m35.32,72.63c-.24.36-.43.75-.72,1.06-.86.93-1.87,1.01-2.73.11-.85-.88-.82-1.98.18-2.72,1.06-.79,2.08-.53,2.79.64.18.3.31.64.47.95,0,0,.01-.04.01-.04Z"/>
          <path class="cls-3" d="m31.65,134.51c-.73.49-1.41,1.28-2.19,1.4-1.13.17-1.98-.72-1.71-1.84.17-.69,1.08-1.63,1.69-1.66.72-.03,1.48.8,2.22,1.26,0,.28,0,.56,0,.84Z"/>
          <path class="cls-3" d="m23.98,73.22c-.74.43-1.53,1.26-2.22,1.18-.64-.07-1.72-1.21-1.63-1.68.15-.73,1.07-1.71,1.77-1.8.63-.08,1.4.88,2.1,1.39-.01.3-.02.6-.03.9Z"/>
          <path class="cls-3" d="m37.22,241.02c-.71.49-1.46,1.43-2.11,1.36-.68-.07-1.61-1.02-1.79-1.75-.27-1.09.63-1.95,1.73-1.79.77.11,1.45.87,2.17,1.34,0,.28,0,.55,0,.83Z"/>
          <path class="cls-3" d="m59.73,243.06c-.49-.72-1.43-1.5-1.33-2.13.11-.7,1.09-1.6,1.83-1.75.45-.09,1.58,1.03,1.63,1.67.06.69-.78,1.46-1.23,2.19-.3,0-.59.01-.89.02Z"/>
          <path class="cls-3" d="m45.09,60.47c.26-.34.47-.73.78-1.01.92-.84,1.94-.87,2.72.1.75.93.67,2.02-.37,2.7-1.01.65-2,.43-2.65-.67-.21-.36-.29-.79-.44-1.19,0,0-.04.06-.04.06Z"/>
          <path class="cls-3" d="m33.63,146.65c.49.73,1.28,1.41,1.4,2.19.17,1.13-.75,1.98-1.84,1.74-.69-.15-1.63-1.08-1.66-1.7-.04-.71.8-1.47,1.26-2.21.28,0,.57-.01.85-.02Z"/>
          <path class="cls-3" d="m101.42,149.17c-.74.46-1.5,1.3-2.21,1.26-.63-.04-1.56-.98-1.71-1.66-.24-1.08.59-2.02,1.74-1.84.79.12,1.47.91,2.19,1.4,0,.28,0,.56,0,.84Z"/>
          <path class="cls-3" d="m22.21,226.64c-.72.48-1.52,1.42-2.15,1.32-.7-.11-1.6-1.1-1.74-1.84-.09-.45,1.05-1.57,1.69-1.62.69-.05,1.46.79,2.19,1.25,0,.3,0,.6,0,.9Z"/>
          <path class="cls-3" d="m12.59,149.77c-.7.5-1.44,1.44-2.09,1.37-.7-.07-1.3-1.08-1.94-1.68.61-.63,1.15-1.66,1.84-1.78.64-.1,1.44.78,2.17,1.23,0,.28.01.57.02.85Z"/>
          <path class="cls-3" d="m116.37,226.47c-.71.51-1.41,1.42-2.13,1.42-.62,0-1.57-.91-1.78-1.6-.34-1.11.49-2.03,1.61-1.94.78.06,1.51.82,2.26,1.26.01.29.03.58.04.86Z"/>
          <path class="cls-3" d="m92.13,119.4c-.74.46-1.45,1.21-2.24,1.31-1.15.14-1.94-.82-1.67-1.9.18-.68,1.14-1.59,1.77-1.6.71-.01,1.44.86,2.16,1.34,0,.28-.01.56-.02.85Z"/>
          <path class="cls-3" d="m122.57,73.51c.45.75,1.19,1.46,1.28,2.25.14,1.16-.83,1.94-1.9,1.66-.68-.18-1.59-1.15-1.6-1.78-.01-.71.87-1.43,1.36-2.15.28,0,.57.02.85.03Z"/>
          <path class="cls-3" d="m47.66,143.74c-.72.5-1.39,1.31-2.16,1.42-1.11.17-2-.71-1.75-1.83.16-.69,1.05-1.64,1.68-1.69.7-.06,1.47.77,2.21,1.21,0,.29.01.59.02.88Z"/>
          <path class="cls-3" d="m84.87,152.35c-.73.43-1.55,1.3-2.18,1.18-.69-.13-1.7-1.22-1.65-1.82.05-.64,1.13-1.62,1.83-1.68.64-.05,1.36.92,2.05,1.44-.01.29-.03.58-.04.87Z"/>
          <path class="cls-3" d="m85.23,244.82c.49.72,1.45,1.5,1.35,2.13-.1.7-1.09,1.6-1.83,1.76-.45.09-1.58-1.03-1.63-1.67-.06-.69.78-1.46,1.22-2.2.3,0,.59-.01.89-.02Z"/>
          <path class="cls-3" d="m82.23,168.17c.45.75,1.28,1.53,1.23,2.24-.05.62-1.02,1.51-1.72,1.66-1.12.24-1.99-.65-1.8-1.76.13-.78.94-1.44,1.44-2.16l.85.03Z"/>
          <path class="cls-3" d="m121.14,249.41c-.76.42-1.61,1.27-2.25,1.14-.67-.15-1.48-1.19-1.59-1.95-.17-1.14.86-1.86,1.91-1.59.76.19,1.36,1.03,2.03,1.58-.03.27-.06.55-.09.82Z"/>
          <path class="cls-3" d="m129.84,171.32c-.88-.17-1.91-.14-2.57-.61-.34-.24-.27-1.57.08-2.1.29-.44,1.3-.69,1.92-.58,1.47.25,1.66,1.72.52,3.34,0,0,.05-.04.05-.04Z"/>
          <path class="cls-3" d="m32.84,174.73c.49.72,1.44,1.5,1.34,2.13-.1.7-1.1,1.61-1.83,1.74-.47.09-1.59-1.02-1.65-1.66-.06-.69.78-1.46,1.23-2.19.3,0,.6-.01.9-.02Z"/>
          <path class="cls-3" d="m77.36,64.29c.73-.47,1.47-1.33,2.18-1.3.62.02,1.56.95,1.73,1.63.27,1.09-.54,2.03-1.69,1.87-.79-.11-1.48-.88-2.22-1.35,0-.28,0-.56,0-.85Z"/>
          <path class="cls-3" d="m91.92,219.01c.48.73,1.28,1.42,1.38,2.2.14,1.11-.76,1.98-1.87,1.7-.69-.17-1.62-1.09-1.65-1.72-.04-.7.82-1.46,1.28-2.19.29,0,.58,0,.87,0Z"/>
          <path class="cls-3" d="m82.45,95.7c-.44-.75-1.25-1.54-1.19-2.25.05-.62,1.02-1.5,1.71-1.65,1.12-.23,1.98.67,1.79,1.78-.14.78-.96,1.44-1.47,2.15-.28-.01-.56-.02-.84-.04Z"/>
          <path class="cls-3" d="m137.43,108.99c-.76.44-1.49,1.19-2.28,1.25-1.13.09-1.93-.86-1.6-1.95.2-.68,1.18-1.56,1.81-1.55.71,0,1.41.9,2.12,1.41-.01.28-.03.56-.04.84Z"/>
          <path class="cls-3" d="m130.41,217.81c-.72.49-1.45,1.38-2.16,1.36-.63-.01-1.61-.92-1.79-1.6-.28-1.07.51-2.04,1.66-1.91.79.09,1.51.84,2.26,1.3,0,.28.01.56.02.85Z"/>
          <path class="cls-3" d="m12.71,81.77c-.74.46-1.55,1.35-2.19,1.25-.67-.11-1.67-1.2-1.64-1.83.02-.62,1.12-1.62,1.8-1.67.65-.05,1.38.91,2.07,1.42-.01.28-.02.55-.04.83Z"/>
          <path class="cls-3" d="m138.03,252.86c.46.74,1.23,1.46,1.31,2.24.1,1.11-.81,1.96-1.92,1.65-.69-.2-1.6-1.14-1.61-1.77-.01-.71.87-1.43,1.36-2.14.29.01.58.02.87.03Z"/>
          <path class="cls-3" d="m116.06,105.96c.48.72,1.41,1.52,1.31,2.15-.11.7-1.11,1.59-1.85,1.72-.46.08-1.57-1.05-1.62-1.69-.05-.69.8-1.45,1.25-2.18.3,0,.6,0,.91,0Z"/>
          <path class="cls-3" d="m16.82,170.11c-.74.46-1.5,1.3-2.2,1.25-.63-.04-1.52-.99-1.69-1.68-.28-1.14.63-1.99,1.73-1.85.78.1,1.46.91,2.18,1.41l-.02.87Z"/>
          <path class="cls-3" d="m126.83,105.64c.44.74,1.27,1.53,1.19,2.21-.07.64-1.21,1.72-1.68,1.63-.73-.14-1.7-1.07-1.8-1.77-.08-.63.88-1.4,1.38-2.1.3.01.61.02.91.03Z"/>
          <path class="cls-3" d="m137.28,180.4c-.71.47-1.44,1.33-2.13,1.3-.65-.03-1.8-1.1-1.73-1.55.11-.74.96-1.77,1.66-1.91.62-.12,1.45.79,2.19,1.24,0,.31.02.61.02.92Z"/>
          <path class="cls-3" d="m23.1,108.34c-.73.48-1.47,1.35-2.18,1.33-.62-.02-1.77-1.12-1.7-1.59.11-.74.99-1.79,1.67-1.89.65-.1,1.46.83,2.2,1.31,0,.28,0,.56.01.85Z"/>
          <path class="cls-3" d="m79.14,90.84c-.44-.74-1.32-1.55-1.21-2.2.11-.68,1.17-1.21,1.81-1.8.59.65,1.61,1.27,1.66,1.96.05.66-.92,1.38-1.45,2.08-.27-.01-.54-.02-.81-.04Z"/>
          <path class="cls-3" d="m71.1,155.6c.42.76,1.22,1.56,1.14,2.26-.07.62-1.05,1.49-1.74,1.62-1.11.2-1.98-.69-1.75-1.81.15-.78.97-1.42,1.49-2.12.29.02.57.03.86.05Z"/>
          <path class="cls-3" d="m93.61,85.63c-.72.48-1.48,1.4-2.14,1.32-.68-.08-1.26-1.11-1.88-1.72.62-.62,1.2-1.66,1.88-1.74.66-.07,1.42.85,2.14,1.34,0,.27,0,.53,0,.8Z"/>
          <path class="cls-3" d="m81.32,211.64c.48.73,1.34,1.47,1.32,2.18-.02.62-.94,1.56-1.63,1.74-1.1.28-2.02-.58-1.88-1.69.09-.78.88-1.48,1.36-2.22.28,0,.55,0,.83,0Z"/>
          <path class="cls-3" d="m62.7,131.66c-.73.47-1.41,1.21-2.19,1.33-1.17.18-1.96-.78-1.73-1.84.15-.68,1.1-1.61,1.74-1.65.69-.05,1.45.8,2.18,1.26,0,.3,0,.6,0,.9Z"/>
          <path class="cls-3" d="m31.08,77.74c-.33,1.65-1,2.47-2.13,2.23-.7-.15-1.8-1.17-1.72-1.62.13-.74.99-1.75,1.69-1.88.62-.12,1.43.81,2.16,1.27Z"/>
          <path class="cls-3" d="m130.04,141.29c-.76.42-1.61,1.27-2.25,1.13-.67-.14-1.61-1.29-1.55-1.9.07-.63,1.2-1.57,1.88-1.58.65-.02,1.33.98,2,1.53-.03.27-.06.55-.09.82Z"/>
          <path class="cls-3" d="m138.96,97.66c-.74.45-1.46,1.19-2.24,1.28-1.15.13-1.96-.79-1.64-1.9.2-.69,1.14-1.62,1.76-1.62.71,0,1.43.89,2.15,1.39,0,.28-.02.57-.03.85Z"/>
          <path class="cls-3" d="m122.75,105.14c-.72.48-1.5,1.4-2.13,1.31-.69-.1-1.71-1.15-1.72-1.78,0-.61,1.07-1.63,1.76-1.72.63-.08,1.39.85,2.1,1.33,0,.29,0,.58-.01.87Z"/>
          <path class="cls-3" d="m91.77,160.62c-.74.47-1.43,1.23-2.22,1.33-1.14.15-1.97-.78-1.69-1.87.17-.69,1.12-1.61,1.74-1.63.71-.02,1.45.84,2.18,1.32,0,.28,0,.57,0,.85Z"/>
          <path class="cls-3" d="m107.07,70.51c-.72.5-1.44,1.39-2.15,1.38-.62,0-1.55-.94-1.75-1.64-.33-1.13.56-2.02,1.65-1.92.78.07,1.49.86,2.24,1.33,0,.28.01.57.02.85Z"/>
          <path class="cls-3" d="m35.8,104.47c-.74.46-1.57,1.38-2.2,1.26-.68-.12-1.54-1.17-1.64-1.91-.07-.47,1.08-1.54,1.72-1.56.7-.02,1.43.84,2.15,1.32,0,.3-.01.59-.02.89Z"/>
          <path class="cls-3" d="m9.37,67.88c.52.71,1.33,1.36,1.47,2.14.2,1.11-.66,2.01-1.78,1.79-.7-.14-1.68-1.01-1.73-1.63-.06-.71.75-1.5,1.19-2.25.28-.01.57-.03.85-.04Z"/>
          <path class="cls-3" d="m118.22,63.21c.43.74,1.3,1.55,1.18,2.19-.13.69-1.17,1.22-1.81,1.81-.59-.66-1.58-1.28-1.64-1.98-.06-.64.9-1.37,1.41-2.05.29.01.58.03.86.04Z"/>
          <path class="cls-3" d="m134,204.85c.74-.44,1.51-1.27,2.2-1.2.64.06,1.74,1.19,1.65,1.66-.14.73-1.05,1.72-1.75,1.82-.63.09-1.4-.87-2.11-1.37,0-.3.02-.61.02-.91Z"/>
          <path class="cls-3" d="m52.09,81.49c-.48-.72-1.36-1.45-1.33-2.14.03-.64,1.1-1.81,1.56-1.74.74.11,1.77.97,1.9,1.67.12.63-.79,1.45-1.24,2.19-.3,0-.6.02-.9.02Z"/>
          <path class="cls-3" d="m120.65,123.29c-.7.51-1.46,1.48-2.1,1.41-.69-.08-1.63-1.05-1.79-1.78-.1-.47.98-1.62,1.62-1.69.69-.08,1.48.74,2.23,1.17.01.29.02.59.04.88Z"/>
          <path class="cls-3" d="m30.65,102.95c-.73.47-1.43,1.24-2.2,1.33-1.11.12-1.98-.77-1.7-1.88.17-.69,1.11-1.6,1.74-1.63.7-.04,1.44.82,2.17,1.28,0,.3,0,.6-.01.9Z"/>
          <path class="cls-3" d="m121.5,170.05c-.5-.72-1.39-1.44-1.38-2.16,0-.61.94-1.55,1.64-1.75,1.11-.31,2.03.52,1.9,1.65-.09.78-.85,1.49-1.31,2.24-.28,0-.56.02-.84.02Z"/>
          <path class="cls-3" d="m36.48,82.22c.47.72,1.33,1.45,1.3,2.15-.03.64-.93,1.59-1.61,1.76-1.09.28-2.02-.55-1.9-1.68.08-.78.85-1.48,1.31-2.22.3,0,.6,0,.91-.01Z"/>
          <path class="cls-3" d="m143.08,200.1c-.71.52-1.36,1.33-2.13,1.48-1.11.21-2.02-.63-1.79-1.77.14-.7,1.01-1.68,1.62-1.74.71-.07,1.5.74,2.26,1.17.01.29.03.57.04.86Z"/>
          <path class="cls-3" d="m88.99,167.88c-.72.49-1.5,1.44-2.13,1.35-.69-.1-1.61-1.09-1.74-1.82-.09-.48,1.02-1.6,1.65-1.66.69-.06,1.47.78,2.21,1.22,0,.3.01.6.02.9Z"/>
          <path class="cls-3" d="m26.88,125.58c-.73.48-1.43,1.27-2.2,1.36-1.1.12-1.99-.76-1.69-1.88.18-.69,1.1-1.62,1.73-1.65.7-.04,1.44.82,2.17,1.29,0,.29,0,.59,0,.88Z"/>
          <path class="cls-3" d="m80.09,147.07c-.74.45-1.51,1.28-2.2,1.22-.64-.06-1.75-1.18-1.66-1.65.14-.73,1.05-1.72,1.75-1.82.63-.09,1.41.86,2.13,1.35,0,.3-.01.6-.02.9Z"/>
          <path class="cls-3" d="m68.95,133.84c.44.73,1.33,1.55,1.21,2.18-.13.69-1.2,1.7-1.82,1.66-.63-.03-1.62-1.12-1.68-1.82-.05-.64.91-1.37,1.43-2.06l.86.03Z"/>
          <path class="cls-3" d="m85.37,200.11c-.48-.73-1.28-1.43-1.37-2.21-.13-1.1.77-1.98,1.88-1.69.69.18,1.62,1.11,1.64,1.73.03.71-.84,1.45-1.32,2.17-.28,0-.56,0-.84,0Z"/>
          <path class="cls-3" d="m27.59,130.75c-.73.49-1.41,1.28-2.19,1.39-1.12.15-1.99-.74-1.72-1.85.17-.69,1.08-1.64,1.71-1.68.7-.04,1.46.81,2.2,1.27,0,.29,0,.58,0,.87Z"/>
          <path class="cls-3" d="m112.48,83.17c-.71.51-1.47,1.48-2.11,1.41-.69-.08-1.62-1.06-1.78-1.79-.1-.46.99-1.61,1.62-1.68.7-.07,1.48.74,2.23,1.17.01.29.02.59.03.88Z"/>
          <path class="cls-3" d="m60.75,162.54c.47.73,1.25,1.43,1.34,2.2.12,1.1-.75,1.99-1.88,1.68-.69-.19-1.61-1.1-1.64-1.73-.03-.7.82-1.44,1.29-2.17.3,0,.59,0,.89,0Z"/>
          <path class="cls-3" d="m130.64,193.14c-.74.45-1.51,1.3-2.2,1.24-.64-.06-1.77-1.19-1.68-1.65.15-.74,1.06-1.73,1.77-1.84.63-.09,1.41.87,2.13,1.36,0,.29-.01.59-.02.88Z"/>
          <path class="cls-3" d="m122.39,88.99c.44.74,1.26,1.52,1.19,2.21-.06.63-1.01,1.52-1.71,1.67-1.14.25-1.97-.69-1.8-1.78.11-.77.92-1.43,1.42-2.14l.9.03Z"/>
          <path class="cls-3" d="m130.44,81.42c.46.73,1.31,1.49,1.26,2.18-.05.64-1.15,1.78-1.61,1.7-.74-.14-1.73-1.03-1.85-1.73-.1-.63.83-1.43,1.3-2.16.3,0,.6,0,.9,0Z"/>
          <path class="cls-3" d="m142.89,127.92c-.72.47-1.51,1.39-2.14,1.29-.7-.12-1.61-1.1-1.73-1.82-.08-.47,1.04-1.57,1.68-1.63.68-.06,1.45.79,2.17,1.24,0,.31,0,.61,0,.92Z"/>
          <path class="cls-3" d="m115.18,138.19c-.73.49-1.41,1.29-2.19,1.4-1.11.16-1.99-.73-1.73-1.84.16-.69,1.08-1.64,1.71-1.67.71-.04,1.47.8,2.2,1.26,0,.28,0,.57,0,.85Z"/>
          <path class="cls-3" d="m16.77,128.89c-.75.45-1.46,1.19-2.25,1.28-1.15.13-1.95-.8-1.64-1.9.2-.69,1.15-1.63,1.76-1.62.72,0,1.44.9,2.16,1.4,0,.28-.02.56-.03.84Z"/>
          <path class="cls-3" d="m33.32,66.44c-.72.47-1.47,1.32-2.17,1.28-.64-.04-1.78-1.14-1.7-1.6.13-.74,1.01-1.75,1.71-1.87.62-.11,1.43.82,2.16,1.29,0,.3,0,.6,0,.9Z"/>
          <path class="cls-3" d="m96.38,126.55c.46.74,1.32,1.51,1.27,2.22-.04.62-1.03,1.5-1.74,1.67-1.14.27-1.99-.66-1.82-1.75.12-.77.93-1.44,1.44-2.16.28,0,.57.01.85.02Z"/>
          <path class="cls-3" d="m122.86,189.37c-.74.44-1.44,1.17-2.22,1.27-1.17.14-1.95-.82-1.68-1.89.18-.69,1.15-1.61,1.79-1.63.7-.02,1.43.87,2.14,1.36,0,.3-.01.59-.02.89Z"/>
          <path class="cls-3" d="m11.92,243.52c.49.71,1.36,1.44,1.34,2.14-.02.63-.92,1.57-1.6,1.77-1.11.32-2.02-.53-1.92-1.65.07-.78.84-1.49,1.3-2.24l.88-.03Z"/>
          <path class="cls-3" d="m73.83,80.86c-.73.45-1.49,1.3-2.18,1.24-.65-.05-1.78-1.16-1.69-1.62.14-.74,1.04-1.73,1.74-1.84.63-.1,1.42.84,2.15,1.32,0,.3,0,.6,0,.89Z"/>
          <path class="cls-3" d="m57.83,79.36c.45.75,1.35,1.58,1.23,2.22-.13.68-1.19,1.52-1.93,1.61-.47.06-1.52-1.11-1.54-1.74-.02-.7.86-1.42,1.34-2.12.3.01.6.03.9.04Z"/>
          <path class="cls-3" d="m141.29,162.42c.48.72,1.43,1.51,1.33,2.14-.11.7-1.11,1.6-1.84,1.73-.46.09-1.58-1.04-1.63-1.68-.05-.69.8-1.45,1.25-2.19h.9Z"/>
          <path class="cls-3" d="m117.17,164.06c.47.74,1.25,1.45,1.33,2.23.12,1.11-.78,1.97-1.9,1.66-.69-.19-1.63-1.12-1.64-1.74-.02-.71.86-1.44,1.36-2.17.29,0,.57.01.86.02Z"/>
          <path class="cls-3" d="m33.26,112.13c.49.73,1.29,1.42,1.39,2.21.15,1.11-.76,1.98-1.86,1.71-.69-.17-1.63-1.1-1.65-1.72-.03-.71.83-1.46,1.3-2.2.28,0,.55,0,.83,0Z"/>
          <path class="cls-3" d="m104.16,193.52c-.72.49-1.4,1.28-2.18,1.38-1.1.14-2-.72-1.73-1.85.17-.69,1.07-1.63,1.7-1.68.7-.05,1.46.8,2.19,1.25,0,.3,0,.59.01.89Z"/>
          <path class="cls-3" d="m125.17,126.2c-.74.45-1.54,1.33-2.2,1.23-.68-.1-1.59-1.09-1.72-1.8-.19-1.06.72-1.94,1.83-1.7.78.16,1.42.96,2.12,1.47-.01.27-.02.54-.03.81Z"/>
          <path class="cls-3" d="m131.53,65.35c.7-.52,1.43-1.47,2.09-1.42.68.05,1.63.98,1.83,1.7.3,1.08-.57,1.98-1.67,1.85-.78-.09-1.48-.85-2.22-1.3,0-.27-.02-.55-.03-.82Z"/>
          <path class="cls-3" d="m123.23,162.56c-.74.44-1.52,1.28-2.22,1.21-.64-.06-1.57-1.02-1.7-1.71-.2-1.07.64-2,1.79-1.79.77.14,1.44.91,2.15,1.39-.01.3-.02.6-.03.9Z"/>
          <path class="cls-3" d="m62.04,113.99c-.45-.74-1.2-1.44-1.29-2.23-.13-1.13.77-1.97,1.88-1.67.69.19,1.63,1.13,1.64,1.75.02.71-.87,1.44-1.36,2.16-.29,0-.58-.02-.87-.02Z"/>
          <path class="cls-3" d="m31.21,104.82c.44.74,1.29,1.51,1.22,2.2-.06.64-1.01,1.57-1.7,1.7-1.06.21-2-.61-1.8-1.78.14-.77.89-1.43,1.36-2.15.3,0,.61.01.91.02Z"/>
          <path class="cls-3" d="m109.24,86.3c.48.71,1.25,1.38,1.37,2.15.18,1.13-.69,2.01-1.8,1.77-.7-.15-1.66-1.05-1.72-1.69-.07-.69.78-1.47,1.23-2.21.31,0,.61-.02.92-.02Z"/>
          <path class="cls-3" d="m73.91,108.17c-.72.48-1.5,1.41-2.15,1.32-.69-.09-1.25-1.14-1.87-1.78.63-.61,1.22-1.62,1.91-1.7.65-.07,1.4.85,2.11,1.34,0,.27,0,.55,0,.82Z"/>
          <path class="cls-3" d="m116.48,72.57c.44.73,1.33,1.56,1.2,2.18-.14.71-1.18,1.24-1.83,1.84-.59-.66-1.59-1.29-1.66-2-.06-.63.9-1.37,1.41-2.06.29.01.58.03.87.04Z"/>
          <path class="cls-3" d="m11.75,221.38c-.72.48-1.52,1.43-2.14,1.33-.7-.11-1.59-1.11-1.72-1.85-.08-.46,1.04-1.58,1.68-1.62.69-.05,1.45.79,2.18,1.25,0,.3,0,.6,0,.9Z"/>
          <path class="cls-3" d="m126.46,156.81c-.75.43-1.54,1.25-2.23,1.17-.64-.07-1.72-1.22-1.62-1.69.16-.73,1.09-1.7,1.79-1.79.64-.08,1.39.9,2.1,1.41-.01.3-.03.6-.04.9Z"/>
          <path class="cls-3" d="m15.54,67.51c-.73.46-1.48,1.31-2.17,1.25-.65-.05-1.79-1.15-1.71-1.6.14-.74,1.03-1.74,1.73-1.85.63-.1,1.43.83,2.15,1.31,0,.3,0,.6,0,.89Z"/>
          <path class="cls-3" d="m60.6,81.63c.72-.49,1.41-1.3,2.18-1.4,1.1-.15,2.01.72,1.73,1.85-.17.71-1.08,1.68-1.7,1.71-.71.04-1.47-.83-2.21-1.3,0-.28,0-.57,0-.85Z"/>
          <path class="cls-3" d="m40.85,137.74c-.71.52-1.47,1.5-2.11,1.43-.7-.08-1.65-1.05-1.81-1.79-.1-.46,1-1.62,1.64-1.69.7-.07,1.5.75,2.25,1.19.01.29.02.57.04.86Z"/>
        </g>
      </g>
    </g>
  </g>
  <g>
    <path class="cls-3" d="m95.44,55.66s0,0,0,0h0c-.01-.11-.02-.22-.03-.33-.02-.41-.01-.81,0-1.21,0-.1,0-.2,0-.3-.11-.47-.21-.94-.28-1.42,0,.01-.01.03-.02.04-.15-.66-.38-1.3-.64-1.94-.29-.7-.61-1.4-.93-2.09-.41-.49-.81-.98-1.23-1.46-.94-1.02-1.95-1.98-3.12-2.8-.53-.37-.74-1.03-.77-1.59,0-.05.01-.1.01-.15-3.76-3.2-7.73-6.36-11.84-9.75,0,0,0,0,.01,0-.04-.02-.08-.04-.12-.06l-8.55-6.94-2.98-16.67-.98-2.44h-1.29v10.56l-.76,14.44c-1.64,2.66-4.04,5.18-6.27,7.71-2.38,2.7-6.5,5-5.9,8.29.03.17-.24.36-.45.51-2.27,1.63-3.57,3.38-4.28,5.19-.13.48-.29.95-.46,1.42,0,.04,0,.07,0,.1,0,.02-.01.05-.01.07v.02s0,0,0,.01c0,0,0,0,0,0l7.86,270.87s0-.01-.01-.02c0,.02,0,.04,0,.06,0,0,0,0,0,.01h0l3.28,115.99h0c.03,4.61,6.35,8.2,14.42,8.2.03,0,.07,0,.1,0,3.82-.01,7.41-.85,10.11-2.37,2.75-1.54,4.29-3.6,4.34-5.82h.01l2.89-114.4,7.89-271.73s0,0,0,0c0,0,0-.01,0-.02Zm-11.88,386.02h0c0,1.85-1.34,3.62-3.78,4.99-2.55,1.42-5.95,2.21-9.58,2.23-.03,0-.06,0-.09,0-7.34,0-13.31-3.18-13.32-7.11h-.55s.55-.01.55-.01l-3.17-112.01c2.56,4.06,8.91,6.94,16.32,6.94.04,0,.07,0,.11,0,4.65-.02,9.03-1.15,12.33-3.18,1.79-1.1,3.14-2.4,4.03-3.82l-2.83,111.98Zm3.08-114.73c-.09.14-.18.29-.27.44-.17.58-.45,1.13-.85,1.58,0,0,0,.01-.01.02-.78,1.33-2.03,2.55-3.72,3.6-3.13,1.93-7.3,3-11.76,3.02-7.66.02-14.06-3.09-15.93-7.31-.19-.26-.34-.53-.46-.83-.09-.12-.17-.24-.26-.36l-7.84-270.28c.11.18.21.37.29.56.79.94,1.55,1.91,2.23,2.92,2.62,2.39,5.46,3.81,8.39,4.77.4-.08.79-.21,1.19-.32.27-.07.55-.09.82-.08-.33-.35-.66-.7-.95-1.07-.21-.27-.43-.54-.62-.83-.9-.31-1.79-.65-2.68-1.04-2.01-.87-3.98-2.24-5.69-3.88-.42-.41-.77-.83-1.06-1.25-.47-.48-.88-1-1.25-1.56.25-.92.67-1.79.89-2.71.07-.27.2-.51.37-.71.11-.6.46-1.16,1.07-1.51.36-.27.82-.45,1.4-.5.02-.05.04-.09.05-.14.09.04.17.08.26.12.51,0,.93.12,1.28.29.35.11.68.27.96.49.07.06.15.11.22.16.2.12.4.24.61.35.44.23.89.44,1.34.64.88.39,1.78.76,2.64,1.19.46.22.93.43,1.38.66.1.04.15.06.17.07.05.02.11.04.16.06.26.08.53.16.79.24.43.12.87.23,1.31.33-2.95-2.04-5.85-3.94-7.67-6.08-2.89-3.39,3.09-5.73,5.6-9.04,3.25,4.64,6.14,8.76,9.03,12.88.45-.08.91-.15,1.36-.23-1.94-5.11-8.67-9.62-8.24-15.66,4.69,3.21,8.7,5.95,12.7,8.7-2.05-4.27-10.54-7.16-10.06-12.41,5.42,3.96,10.35,7.57,15.29,11.18-3.47-4.97-11.8-8.85-12.63-14.64,11.55,6.28,19.14,13.55,25.35,21.2.3.37.42.78.45,1.2.05.08.11.17.14.26.14.22.19.46.21.71.05.16.12.32.15.48.06.31.12.62.16.93.05.16.12.31.16.47.14.47.24.96.27,1.45-.02.02-.03.04-.05.07-.1.77-.32,1.46-.67,2.19-.19.41-.57.72-.98.94-.11.1-.23.19-.36.26-.35.3-.69.62-1.04.93-.36.32-.75.62-1.15.88-.43.28-.92.47-1.39.66-.35.09-.7.09-1.06.04-1.35.67-2.76,1.18-4.19,1.6-1.08.32-2.17.57-3.25.8-.03.03-.05.07-.07.11-.12.18-.27.33-.43.46-.1.08-.18.18-.27.27.98.28,1.92.63,2.86,1.01,1.18-.32,2.37-.7,3.55-1.14,2.54-.95,4.95-2.25,7.19-4.37.18-.3.41-.59.69-.87.55-.55,1.04-1.15,1.49-1.77,0-.02,0-.04,0-.07,0,0,.02-.02.02-.03v.05c.07-.1.13-.21.2-.31l-7.83,269.76Z"/>
    <path class="cls-3" d="m69.47,64.95c-1.03,0-2.06-.06-3.08-.15-.08.07-.15.15-.24.2-.22.2-.48.33-.76.42.12.48.12.99,0,1.47.87.09,1.74.17,2.61.21.07-.05.13-.11.21-.15.51-.25,1.05-.46,1.59-.65.22-.07.43-.15.64-.23.02-.01.05-.03.07-.04.04-.16.06-.32.09-.49-.27-.11-.53-.22-.79-.35-.13-.07-.23-.17-.34-.26Z"/>
  </g>
</svg>