<svg xmlns="http://www.w3.org/2000/svg" xmlns:xlink="http://www.w3.org/1999/xlink" width="51" height="434" viewBox="0 0 51 434">
  <defs>
    <clipPath id="clip-path">
      <rect id="Rectangle_875" data-name="Rectangle 875" width="51" height="434" transform="translate(4892 5211)" stroke="#707070" stroke-width="1"/>
    </clipPath>
    <clipPath id="clip-path-2">
      <rect id="Rectangle_224" data-name="Rectangle 224" width="49.047" height="432.245" fill="none"/>
    </clipPath>
  </defs>
  <g id="Mask_Group_5" data-name="Mask Group 5" transform="translate(-4892 -5211)" clip-path="url(#clip-path)">
    <g id="Group_60" data-name="Group 60" transform="translate(4892.819 5212)" clip-path="url(#clip-path-2)">
      <path id="Path_33" data-name="Path 33" d="M41.052,310.885a22.64,22.64,0,0,1,1.855-2.36q0-.672,0-1.344a5.955,5.955,0,0,0-1.658-4.627,17.214,17.214,0,0,0-4.133-2.957,27.238,27.238,0,0,0-17.779-1.447,16.326,16.326,0,0,0-7.409,3.528,7.368,7.368,0,0,0-2.489,6.036v.681a22.452,22.452,0,0,1,2.3,2.893,16.568,16.568,0,0,0,8.224,3.866A28.17,28.17,0,0,0,35.981,314.1a13.429,13.429,0,0,0,5.071-3.212M34.413,313.1a26.622,26.622,0,0,1-18.627-.861,12.885,12.885,0,0,1-3.745-2.568c-1.958-1.893-1.91-4.207-.02-6.2a12.759,12.759,0,0,1,6.644-3.6c2.5-.584,5.044-.868,6.37-1.085,5.047.145,8.836.6,12.408,2.561a12.821,12.821,0,0,1,3.147,2.43,3.965,3.965,0,0,1,.017,5.635,12.321,12.321,0,0,1-6.194,3.684" transform="translate(0 -0.151)" fill="#fff"/>
      <path id="Path_34" data-name="Path 34" d="M38.334,428.4a18.41,18.41,0,0,1,1.516-1.928c0-.367,0-.733,0-1.1A4.864,4.864,0,0,0,38.5,421.6a14.069,14.069,0,0,0-3.378-2.417A22.253,22.253,0,0,0,20.587,418a13.341,13.341,0,0,0-6.056,2.884,6.024,6.024,0,0,0-2.034,4.932v.557a18.267,18.267,0,0,1,1.878,2.365,13.556,13.556,0,0,0,6.722,3.159,23.03,23.03,0,0,0,13.092-.864,10.957,10.957,0,0,0,4.145-2.626m-5.426,1.807a21.75,21.75,0,0,1-15.224-.7,10.535,10.535,0,0,1-3.061-2.1,3.311,3.311,0,0,1-.016-5.067,10.422,10.422,0,0,1,5.43-2.94c2.045-.477,4.122-.709,5.206-.887,4.125.118,7.222.494,10.142,2.092a10.5,10.5,0,0,1,2.571,1.987,3.241,3.241,0,0,1,.015,4.606,10.074,10.074,0,0,1-5.063,3.01" transform="translate(0 -0.211)" fill="#fff"/>
      <line id="Line_55" data-name="Line 55" x2="3.056" y2="117.356" transform="translate(9.918 307.316)" fill="#fff"/>
      <line id="Line_56" data-name="Line 56" x2="3.056" y2="117.356" transform="translate(9.918 307.316)" fill="none" stroke="#fff" stroke-miterlimit="10" stroke-width="1"/>
      <line id="Line_57" data-name="Line 57" x1="9.13" y1="272.85" transform="translate(0.788 34.466)" fill="#fff"/>
      <line id="Line_58" data-name="Line 58" x1="9.13" y1="272.85" transform="translate(0.788 34.466)" fill="none" stroke="#fff" stroke-miterlimit="10" stroke-width="1"/>
      <line id="Line_59" data-name="Line 59" x1="3.463" y2="115.355" transform="translate(38.925 307.659)" fill="#fff"/>
      <line id="Line_60" data-name="Line 60" x1="3.463" y2="115.355" transform="translate(38.925 307.659)" fill="none" stroke="#fff" stroke-miterlimit="10" stroke-width="1"/>
      <line id="Line_61" data-name="Line 61" x1="6.052" y2="271.376" transform="translate(42.266 34.362)" fill="#fff"/>
      <line id="Line_62" data-name="Line 62" x1="6.052" y2="271.376" transform="translate(42.266 34.362)" fill="none" stroke="#fff" stroke-miterlimit="10" stroke-width="1"/>
      <path id="Path_35" data-name="Path 35" d="M48.683,32.041c-.016.03-.03.061-.046.09a13.788,13.788,0,0,1-.759,1.721,7.826,7.826,0,0,1-1.037,1.464,6.962,6.962,0,0,1-.638,2.1,2.091,2.091,0,0,1-.941.906,2,2,0,0,1-.344.248c-.339.286-.656.6-.989.889a9.822,9.822,0,0,1-1.1.849,7.311,7.311,0,0,1-1.329.629,2.521,2.521,0,0,1-1.011.043,24.579,24.579,0,0,1-4,1.535c-1.036.3-2.07.55-3.1.772-.026.033-.043.071-.071.1a1.87,1.87,0,0,1-.412.439,2.762,2.762,0,0,0-.255.264,27.821,27.821,0,0,1,2.729.971c1.132-.31,2.262-.671,3.389-1.092a19.481,19.481,0,0,0,7.36-4.663,33.065,33.065,0,0,1,2.692-3.425q0-.976,0-1.951a13.783,13.783,0,0,0-.133-1.889" transform="translate(0 -0.016)" fill="#fff"/>
      <path id="Path_36" data-name="Path 36" d="M12.729,44.16a2.536,2.536,0,0,1,.787-.073c-.311-.338-.628-.669-.911-1.03-.2-.258-.407-.522-.592-.8-.856-.3-1.71-.624-2.563-.993A18.724,18.724,0,0,1,4.014,37.54,7.755,7.755,0,0,1,3,36.335a9.6,9.6,0,0,1-1.558-2.046c-.381-.369-.762-.738-1.126-1.121-.046.492-.078,1-.077,1.536,0,.33,0,.659,0,.988a32.537,32.537,0,0,1,3.334,4.2,21.405,21.405,0,0,0,8.02,4.573c.384-.078.757-.2,1.135-.3" transform="translate(0 -0.017)" fill="#fff"/>
      <path id="Path_37" data-name="Path 37" d="M24.364,44.6a2.565,2.565,0,0,1-.323-.249c-.983-.006-1.965-.06-2.947-.143a1.893,1.893,0,0,1-.232.2,1.868,1.868,0,0,1-.732.4,2.85,2.85,0,0,1,0,1.415c.833.088,1.666.164,2.5.2a1.867,1.867,0,0,1,.2-.144,12.955,12.955,0,0,1,1.52-.621c.206-.07.409-.148.613-.222.023-.011.044-.024.067-.035.038-.155.061-.312.085-.469-.255-.1-.506-.215-.75-.336" transform="translate(0 -0.022)" fill="#fff"/>
      <path id="Path_38" data-name="Path 38" d="M48.585,32.463a10.825,10.825,0,0,0-.652-2c-.276-.674-.579-1.338-.889-2-.389-.47-.774-.943-1.178-1.4a18.437,18.437,0,0,0-2.985-2.685,1.972,1.972,0,0,1-.732-1.525c0-.05.012-.1.014-.147-3.594-3.07-7.385-6.107-11.31-9.351l.012-.007c-.063-.032-.126-.066-.19-.1a2.308,2.308,0,0,1-1.5-.586C25.084,10.185,21.2,7.68,20.245,4.042c-.193-.262-.377-.53-.545-.81a2.49,2.49,0,0,1-.342-1.26c.012-.084.023-.168.034-.252C18.789,1.16,18.2.583,17.615,0c-.033.625-.058,1.249-.055,1.875A27.853,27.853,0,0,0,18.3,5.922a6.644,6.644,0,0,1,.172,2.7c-1.043,3.969-4.5,7.5-7.623,11.053-2.274,2.59-6.207,4.8-5.643,7.954.028.159-.227.347-.427.491C.012,31.567-.368,35.557.2,39.611c.093.664.195,1.326.29,1.99.28-.025.56-.046.84-.07a5.674,5.674,0,0,1,.163-1.68c.02-.09.049-.179.072-.269a1.707,1.707,0,0,1-.254-.928,21.23,21.23,0,0,1,.409-3.521c.211-.994.7-1.921.936-2.91a1.655,1.655,0,0,1,.357-.682,2.058,2.058,0,0,1,1.018-1.447,2.489,2.489,0,0,1,1.341-.476c.017-.045.035-.089.049-.134l.245.116a2.734,2.734,0,0,1,1.227.283,2.925,2.925,0,0,1,.918.466c.069.053.139.106.21.157.194.112.386.228.585.333.417.222.849.421,1.284.614.844.376,1.7.734,2.526,1.138.435.213.885.412,1.315.632.1.04.141.06.16.07l.157.053c.25.082.5.158.757.23.412.117.831.219,1.249.32-2.824-1.96-5.593-3.785-7.334-5.836-2.761-3.255,2.95-5.5,5.352-8.675,3.106,4.45,5.865,8.4,8.625,12.361l1.3-.217c-1.852-4.9-8.288-9.232-7.875-15.029l12.14,8.347c-1.962-4.1-10.074-6.867-9.613-11.908L33.257,23.666C29.944,18.9,21.984,15.172,21.191,9.615A78.083,78.083,0,0,1,45.411,29.96a2.029,2.029,0,0,1,.433,1.155,1.5,1.5,0,0,1,.136.249,1.441,1.441,0,0,1,.2.68,4.771,4.771,0,0,1,.144.459c.062.295.111.594.149.895.052.15.112.3.156.452A5.7,5.7,0,0,1,46.9,35.7a5.16,5.16,0,0,1-.692,2.277,1.393,1.393,0,0,1-.187.243c.012.115.024.232.037.348.35-.033.7-.071,1.048-.107a2.043,2.043,0,0,1,.6-.73,2.08,2.08,0,0,1,1.248-2.166c.012-.137.019-.274.034-.411a10.761,10.761,0,0,0,.066-1.1,7.8,7.8,0,0,1-.462-1.6" fill="#fff"/>
    </g>
    <rect id="Rectangle_250" data-name="Rectangle 250" width="82.833" height="473.249" transform="translate(4879.819 5177)" fill="none"/>
  </g>
</svg>
