<?xml version="1.0" encoding="utf-8"?>
<!-- Generator: Adobe Illustrator 28.0.0, SVG Export Plug-In . SVG Version: 6.00 Build 0)  -->
<svg version="1.1" id="Layer_14" xmlns="http://www.w3.org/2000/svg" xmlns:xlink="http://www.w3.org/1999/xlink" x="0px" y="0px"
	 viewBox="0 0 140 450" style="enable-background:new 0 0 140 450;" xml:space="preserve">
<style type="text/css">
	.st0{fill:#FFFFFF;}
</style>
<path class="st0" d="M92.4,45.1c0-0.2,0-0.3-0.1-0.5c0-0.1,0-0.2,0-0.3c-0.1-0.4-0.2-0.8-0.3-1.2c-0.1-0.2-0.1-0.5-0.3-0.7l0.1,0.3
	c0-0.1-0.1-0.2-0.2-0.3c-0.2-0.4-0.4-0.8-0.6-1.1c-0.1-0.2-0.2-0.4-0.4-0.6c-0.2-0.2-0.4-0.4-0.6-0.5c-0.8-0.8-1.8-1.5-2.8-2.1
	c-0.5-0.3-0.7-0.8-0.7-1.2c0,0,0-0.1,0-0.1c-3.4-2.4-7-4.7-10.7-7.3c0,0,0,0,0,0c-0.1,0-0.1,0-0.2-0.1l-8.2-5.5l-2.7-12.6L64,9.4
	h-1.2v8L62,29.5c-1.4,1.7-3.2,3.3-4.9,4.9c-2.2,2-5.9,3.7-5.3,6.2c0,0.1-0.2,0.3-0.4,0.4c-2,1.2-3.2,2.5-3.9,3.9
	c-0.1,0.2-0.1,0.4-0.2,0.5c0,0.2,0,0.4-0.1,0.6c0,0.1,0,0.2,0,0.3c0,0,0,0,0,0l0.1,2.7l6.9,290.9c0,0.1,0,0.1,0.1,0.2l2.9,102.6
	c0,4.2,5.7,7.4,13,7.4h0.1c3.5,0,6.7-0.8,9.1-2.1c2.5-1.4,3.9-3.2,3.9-5.3l2.7-105c0,0,0,0,0,0c0-0.1,0-0.1,0-0.2
	c0,0.1-0.1,0.2-0.2,0.2L92.6,49l0.1-1.9c0,0,0,0,0-0.1C92.6,46.4,92.5,45.8,92.4,45.1z M82.3,442.5c0,1.7-1.2,3.3-3.4,4.5
	c-2.3,1.3-5.4,2-8.7,2h-0.1c-6.6,0-12-2.9-12-6.4h-0.5l0.5,0l-2.9-101.2c2.3,3.7,8,6.3,14.8,6.3H70c4.2,0,8.2-1,11.1-2.9
	c1.6-1,2.8-2.2,3.6-3.5L82.3,442.5z M84.9,339.1L84.9,339.1c0,0,0,0.1-0.1,0.1c-0.1,0.5-0.4,1-0.8,1.4c0,0,0,0,0,0
	c-0.7,1.2-1.8,2.3-3.4,3.2c-2.8,1.7-6.6,2.7-10.6,2.7c-6.9,0-12.7-2.8-14.4-6.6c-0.2-0.2-0.3-0.5-0.4-0.8c-0.1-0.1-0.2-0.3-0.3-0.4
	L48.1,49l0-1c0,0,0-0.1,0-0.1c0-0.1,0-0.2,0-0.3c0-0.1,0-0.1,0-0.2c0-0.2,0-0.5,0.1-0.7c0,0,0-0.1,0-0.1c0.1-0.2,0.2-0.4,0.3-0.6
	c0-0.1,0.1-0.1,0.1-0.1c0.2-0.6,0.5-1.1,0.7-1.7c0.1-0.2,0.2-0.4,0.3-0.5c0.1-0.4,0.4-0.9,1-1.1c0.3-0.2,0.7-0.3,1.3-0.4
	c0,0,0-0.1,0-0.1c0.1,0,0.2,0.1,0.2,0.1c0.5,0,0.8,0.1,1.2,0.2c0.3,0.1,0.6,0.2,0.9,0.4c0.1,0,0.1,0.1,0.2,0.1
	c0.2,0.1,0.4,0.2,0.5,0.3c0.4,0.2,0.8,0.3,1.2,0.5c0.8,0.3,1.6,0.6,2.4,0.9c0.4,0.2,0.8,0.3,1.2,0.5c0.1,0,0.1,0,0.1,0.1
	c0.1,0,0.1,0,0.2,0c0.2,0.1,0.5,0.1,0.7,0.2c0.4,0.1,0.8,0.2,1.2,0.2c-2.7-1.5-5.3-2.9-6.9-4.5c-2.6-2.5,2.8-4.3,5.1-6.7
	c2.9,3.5,5.5,6.5,8.2,9.6c0.4-0.1,0.8-0.1,1.2-0.2c-1.8-3.8-7.8-7.2-7.5-11.7c4.2,2.4,7.9,4.4,11.5,6.5c-1.9-3.2-9.5-5.3-9.1-9.3
	c4.9,3,9.4,5.6,13.8,8.3c-3.1-3.7-10.7-6.6-11.4-10.9c10.4,4.7,17.3,10.1,22.9,15.8c0.3,0.3,0.4,0.6,0.4,0.9c0,0.1,0.1,0.1,0.1,0.2
	c0.1,0.2,0.2,0.3,0.2,0.5c0,0.1,0.1,0.2,0.1,0.4c0,0.2,0.1,0.4,0.1,0.5c0.2,0.2,0.4,0.5,0.4,0.7c0.1,0.5,0.4,1.1,0.5,1.6
	c0.1,0.3,0.1,0.7,0.1,1c0,0,0,0,0,0l0,0.8L84.9,339.1z"/>
</svg>
