<?xml version="1.0" encoding="UTF-8"?>
<svg id="Layer_1" data-name="Layer 1" xmlns="http://www.w3.org/2000/svg" viewBox="0 0 650 470">
  <defs>
    <style>
      .cls-1 {
        stroke-dasharray: 0 0 11.38 11.38;
      }

      .cls-1, .cls-2, .cls-3 {
        fill: none;
        stroke: #fff;
        stroke-linecap: square;
        stroke-miterlimit: 10;
      }

      .cls-4 {
        fill: #fff;
        stroke-width: 0px;
      }

      .cls-2 {
        stroke-dasharray: 0 0 12.42 12.42;
      }
    </style>
  </defs>
  <line id="Line_351" data-name="Line 351" class="cls-3" x1="291.32" y1="339.26" x2="291.88" y2="333.85"/>
  <line id="Line_352" data-name="Line 352" class="cls-1" x1="292.96" y1="323.58" x2="311.75" y2="143.84"/>
  <line id="Line_353" data-name="Line 353" class="cls-3" x1="312.29" y1="138.7" x2="312.85" y2="133.29"/>
  <line id="Line_354" data-name="Line 354" class="cls-3" x1="175.88" y1="400.43" x2="172.77" y2="395.97"/>
  <line id="Line_355" data-name="Line 355" class="cls-2" x1="166.32" y1="386.72" x2="79.3" y2="261.91"/>
  <line id="Line_356" data-name="Line 356" class="cls-3" x1="76.07" y1="257.29" x2="72.96" y2="252.82"/>
  <g>
    <path id="Path_14078" data-name="Path 14078" class="cls-4" d="m220.68,443.63c.1-.25.17-.52.21-.79.26-1.49.3-3.01.14-4.52-.91-5.6-3.39-10.82-7.16-15.05-1.56-1.98-3.56-3.58-5.83-4.67-.64-.3-1.33-.48-2.03-.53l83.7-52.04-.45-.79-85.64,53.25c-.3.12-.6.26-.88.42l-.47.26c-.23,1.02-.54,2.03-.94,3-.32,2.78.07,5.6,1.11,8.2,1.62,4.81,4.39,9.16,8.08,12.65,1.3,1.27,2.84,2.25,4.54,2.89.84.14,1.67.34,2.48.6.31-.17.62-.35.93-.52.37-.21.73-.45,1.05-.73l88.98-46.07-.45-.79-87.37,45.22Zm-.94-.85c-.21,1.54-1.63,2.61-3.17,2.4-.24-.03-.48-.1-.71-.2-2.09-.69-3.95-1.95-5.38-3.62-4.17-4.24-6.95-9.65-7.96-15.52-.21-1.34-.19-2.71.05-4.05.41-2.33,2.02-3.19,4.26-2.42,2.17.81,4.09,2.2,5.53,4.02,1.55,1.81,2.91,3.77,3.67,4.77,2.22,4.17,3.64,7.44,3.93,11.11.1,1.17.02,2.36-.23,3.51"/>
    <g>
      <path id="Path_14079" data-name="Path 14079" class="cls-4" d="m623.84,214.92c-.71-1.94-1.75-3.74-3.08-5.33-1.92-2.57-4.05-4.97-6.6-5.26-.66-3.61-1.43-7.1-3.25-10.2-.63-1.21-1.57-2.23-2.73-2.95-.97-.58-2.17-.58-3.14,0-1.77-3.96-5.24-6.95-8.07-9.37-.43-.42-.94-.74-1.5-.94-1.32-.36-2.16.6-2.91,1.45-.36.48-.81.88-1.32,1.2-.99.49-2.42.06-3.8-.37-1.74-.53-3.7-1.13-4.71.45l-249.84,155.35.45.79,10.13-6.3.14.89c15.07-2.35,30.43-4.76,45.72-7.61-1.22,1.84-2.1,3.9-2.57,6.06-.4,1.62-.97,3.19-1.7,4.69-1.32,2.13-3.03,3.98-5.04,5.48l-.65.55c-7.82,6.71-14.38,14.77-19.35,23.8l.45.25-8.79,4.55.45.79,263.23-136.27c1.72-.67,3.28-1.7,4.57-3.02,1.54-1.74,2.02-4.18,1.26-6.38-.24-.59-.51-1.16-.82-1.71-.5-.77-.83-1.64-.98-2.55l.11-.07-.09-.15c.01-.17.05-.33.11-.48.27-.6.91-.84,1.65-1.11.48-.15.95-.36,1.38-.63,1.7-1.14,1.86-3.7,1.29-5.6m-262.72,152.3c4.88-8.72,11.25-16.52,18.84-23.03l.65-.55c2.1-1.56,3.88-3.51,5.25-5.74.76-1.55,1.36-3.19,1.77-4.87.66-2.3,1.28-4.47,2.66-6.07l-.4-.34c11.26-2.11,22.48-4.46,33.51-7.22,26.5-6.63,52.53-15.77,77.74-24.67l-140.01,72.48Zm258.45-141.28c.29.52.55,1.05.77,1.6.65,1.89.23,3.98-1.1,5.46-1.22,1.23-2.68,2.19-4.3,2.81h0l-.41.19v.02s-111.76,57.87-111.76,57.87l-.22-.62c-25.72,9.09-52.31,18.49-79.38,25.25-26.15,6.54-53.38,10.8-79.71,14.91l240.06-149.27-.04-.06c.6-.95,1.8-.67,3.7-.09,1.55.48,3.16.97,4.47.31.62-.36,1.16-.84,1.6-1.41.75-.86,1.26-1.38,1.98-1.17.43.17.82.43,1.15.75,2.89,2.48,6.49,5.57,8.07,9.63l.31.79.03-.05c.83,2.46,1.81,4.88,2.92,7.23l.47,1.05c.62,1.41,1,2.91,1.12,4.44.09.66.18,1.37.33,2.18.33,1.32.9,2.57,1.69,3.68l7.15,11.54c.14,1.05.51,2.06,1.08,2.96m2.47-6.17c-.37.22-.77.4-1.18.53-.85.2-1.59.71-2.09,1.43l-6.67-10.76c-.72-1.02-1.25-2.16-1.57-3.37-.15-.79-.24-1.48-.32-2.13-.14-1.62-.54-3.21-1.2-4.69l-.47-1.05c-1.19-2.48-2.21-5.03-3.06-7.65l-.14.04c.68-.57,1.66-.63,2.4-.14,1.02.64,1.84,1.54,2.38,2.61,1.8,3.07,2.54,6.6,3.2,10.25l.07.36h.37c2.33.09,4.39,2.43,6.27,4.94,1.26,1.5,2.25,3.21,2.93,5.04.49,1.64.33,3.74-.93,4.59"/>
      <path id="Path_14080" data-name="Path 14080" class="cls-4" d="m538.5,247.3c-26.15,6.54-53.38,10.8-79.71,14.91l.14.9c26.35-4.12,53.6-8.38,79.79-14.93,27.11-6.78,53.72-16.19,79.46-25.28l-.3-.86c-25.72,9.09-52.31,18.48-79.38,25.25"/>
    </g>
    <path id="Path_14081" data-name="Path 14081" class="cls-4" d="m64.47,226.58c1.37-.09,2.74-.22,4.1-.31.2-.11.4-.23.61-.34.94-.52,1.82-1.14,2.64-1.84l223.1-115.49-1.12-1.98-219.05,113.39c.25-.63.42-1.29.52-1.97.64-3.74.76-7.55.35-11.32-2.1-14.44-8.7-26.78-17.96-37.74-4.04-4.78-8.64-9.02-14.62-11.71-1.6-.74-3.32-1.19-5.08-1.33L247.79,25.47l-1.13-1.98L31.95,157c-.47.19-.95.41-1.43.65-.63,1.11-1.35,2.16-2.15,3.15-.19.26-.37.53-.56.8-.45,1.57-.98,3.11-1.6,4.62-1.08,7.39.51,14.06,2.78,20.57,4.05,12.07,11.01,22.96,20.26,31.71,3.25,3.18,7.13,5.64,11.39,7.24,1.27.22,2.55.51,3.82.84m-15.28-12.26c-10.39-11-17.47-23.79-19.94-38.9-.52-3.37-.47-6.8.13-10.15,1.02-5.84,5.07-7.99,10.69-6.07,5.77,1.98,10.15,5.74,13.86,10.08,3.89,4.55,7.3,9.46,9.2,11.96,5.56,10.45,9.13,18.64,9.86,27.84.24,2.94.05,5.91-.58,8.79-1.09,4.9-4.87,6.93-9.71,5.52-5.58-1.63-9.76-5.12-13.49-9.07"/>
    <path id="Path_14082" data-name="Path 14082" class="cls-4" d="m36.05,158.05c-9.61,1.14-10.64,17.21-2.28,35.81,8.35,18.6,22.97,32.81,32.58,31.67s10.63-17.21,2.28-35.82-22.97-32.81-32.58-31.66m30.4,31.92c.37.82.71,1.64,1.04,2.45l3.64,20.73-21.14-45.86c6.05,4.97,12.2,13.17,16.47,22.69m-18.49-24.23l11.78,50.33-19.7-53.78c2.88.49,5.6,1.68,7.92,3.46m-9.15-3.53l-.05,33.97-5.48-31.2c1.09-1.53,2.79-2.52,4.66-2.72.29-.03.58-.05.87-.05m-6.31,4.03l5.57,31.71c-.75-1.41-1.46-2.86-2.13-4.35-5.17-11.51-6.23-21.9-3.44-27.37m7.4,34.96l.06-36.62,20.64,56.36c-6.57-1.84-14.57-9.48-20.7-19.74m22.01,20.04l-12.4-52.99,21.37,46.35c-.92,3.85-3.08,6.32-6.42,6.71-.85.09-1.7.07-2.54-.08m9.47-12.34l-1.89-10.8c1.09,3.5,1.72,7.13,1.89,10.79"/>
  </g>
</svg>