<?xml version="1.0" encoding="UTF-8"?>
<svg id="Layer_1" data-name="Layer 1" xmlns="http://www.w3.org/2000/svg" viewBox="0 0 80.14 80.14">
  <defs>
    <style>
      .cls-1 {
        fill: #fff;
        stroke-width: 0px;
      }
    </style>
  </defs>
  <path id="Path_6429" data-name="Path 6429" class="cls-1" d="m40.07,0C17.94,0,0,17.94,0,40.07c0,22.13,17.94,40.07,40.07,40.07s40.07-17.94,40.07-40.07h0C80.11,17.95,62.19.03,40.07,0M5,40.07c0-11.66,5.8-22.55,15.46-29.06h.77v.06l1.23-.06h1.16v-.06l14.54-.7c4.32-.21,8.78-.43,12.93.69,1.17.31,5.02,1.56,5.67,4.49.03.15.04.27.05.33-.29,0-.57-.04-.85-.12l-18.06-4.18-.27,1.57c-.53,3.06.91,5.68,2.3,8.21,1.15,2.09,2.23,4.07,2.05,6.05-.44,2.63-2.92,4.4-5.55,3.96-.14-.02-.27-.05-.41-.09-.52-.15-.98-.45-1.31-.87-.67-.94-.24-2.2.51-4.17.61-1.36.98-2.82,1.1-4.31.11-3.79-3.01-6.66-6.15-7.53-2.63-.73-5.65-.44-9.23.87-4.72,1.73-8.13,4.29-10.14,7.59-2.55,4.2-2.3,9.61.58,12.88l.58.66.86-.19c3.24-.71,5.01-2.13,5.27-4.21.07-1.06-.17-2.13-.68-3.06-.15-.32-.28-.65-.39-.98-.48-1.68.8-3.51,2.25-4.38,1.8-1.08,4.1-1.3,6.31-1.43.76-.14,1.54-.03,2.24.31.41.53.59,1.21.48,1.88-.06.9-.18,1.79-.37,2.67-.41,1.66-.5,3.38-.28,5.07.47,2.36,1.99,4.38,4.12,5.49,2.6,1.46,5.71,1.73,8.53.72,2.78-1.14,5.09-3.19,6.55-5.81-.45.98-.81,2.01-1.05,3.06l-.35,1.53,1.54.28c.29.05.58.1.87.14l-12.88,1.98c-1.2.29-2.45.29-3.65,0-1.21-.66-2.21-1.64-2.9-2.83-.41-.56-.84-1.14-1.32-1.69-1.32-1.53-3.22-2.43-5.24-2.47-1.21.02-2.35.59-3.08,1.55-1.78,2.34-.39,5.34,1.33,7.2,1.08,1.16,2.29,2.17,3.63,3.02-1.62-.55-3.22-1.18-4.8-1.9l-.46-.21c-1.49-.79-3.11-1.31-4.79-1.53-2.11-.17-4.7.69-5.73,2.98-.49,1.22-.57,2.57-.23,3.84.93,3.71,3.26,6.91,6.5,8.93,3.07,1.89,6.51,3.12,10.08,3.6,3.19.47,6.4.76,9.61.88,2.4.13,4.89.27,7.29.56,4.55.55,9,1.68,13.27,3.35-2.07.57-4.24.72-6.37.43-8.91-.64-17.75-1.98-26.44-4.01l-2.11-.49.28,2.15c.58,3.17,2.69,5.85,5.65,7.15,2.61,1.12,5.39,1.81,8.23,2.04,4.38.67,8.81,1.06,13.24,1.15,2.02,0,4.03-.13,6.03-.41-17.98,7.17-38.37-1.6-45.54-19.58-1.65-4.14-2.49-8.55-2.49-13m48.88-20.58c-2.31.28-4.92.61-6.49,2.83-.64,1.03-1.06,2.18-1.23,3.38l-.09.45c-.75,3.49-2.94,7.74-6.82,9.22-1.98.69-4.16.5-5.99-.53-1.35-.69-2.32-1.94-2.64-3.42-.14-1.34-.05-2.69.28-3.99.21-1.02.35-2.05.42-3.09.18-1.58-.38-3.16-1.52-4.27-.98-.76-2.19-1.14-3.42-1.07-.36,0-.69.02-.96.04-2.67-.01-5.3.62-7.67,1.85-2.47,1.48-4.49,4.62-3.6,7.77.14.47.32.94.53,1.38.26.45.41.96.44,1.48-.07.55-.78,1.04-2.02,1.42-1.69-2.6-1.2-6.2.27-8.63,2.05-3.37,5.81-5.3,8.6-6.33,2.97-1.09,5.39-1.35,7.39-.8s4.02,2.41,3.96,4.55c-.13,1.15-.43,2.27-.91,3.33-.83,2.19-1.78,4.68-.16,6.97.7.94,1.69,1.64,2.81,1.98,4.14,1.2,8.47-1.19,9.67-5.33.1-.36.18-.73.23-1.11.27-2.89-1.09-5.37-2.41-7.77-.9-1.43-1.56-2.99-1.97-4.63l14.7,3.4c.69.19,1.41.24,2.12.15-1.13.45-2.32.71-3.53.79m6.48.76c.23-.22.44-.47.64-.72.2-.28.44-.53.73-.72.08-.04.17-.06.26-.06.88.21,1.67.7,2.24,1.4,1.16,1.12,1.1,1.54,1.07,1.61-.07.23-.58.49-2.62.45-6.19.07-11.9,3.36-15.06,8.69.61-1.32,1.07-2.7,1.37-4.12l.1-.48c.1-.79.35-1.56.74-2.26.8-1.13,2.47-1.34,4.4-1.58,2.08-.26,4.43-.55,6.12-2.21m3.65,45.4l-.06-.09c-1.25.9-2.65,1.58-4.12,2.03-.31.07-.62.12-.94.17-.42.07-.84.14-1.25.24-.69.19-1.36.42-2.02.7-.75.35-1.54.58-2.36.68v.15c-6.28,1.05-12.8.22-19.12-.62-2.51-.19-4.97-.78-7.28-1.76-1.22-.59-2.28-1.48-3.08-2.57,7.96,1.72,16.04,2.88,24.17,3.46,2.76.19,5.67.29,8.3-.88.87-.37,1.56-1.07,1.92-1.94.21-.6.15-1.26-.16-1.82-.35-.57-.89-1-1.53-1.22-4.76-1.95-9.76-3.26-14.87-3.88-2.5-.3-5.03-.44-7.49-.58-3.11-.11-6.21-.4-9.29-.85-3.16-.42-6.21-1.49-8.93-3.15-2.58-1.59-4.45-4.12-5.21-7.05-.19-.65-.18-1.34.03-1.99.6-.91,1.67-1.38,2.75-1.22,1.32.2,2.6.63,3.78,1.27l.47.22c6.15,2.8,12.76,4.43,19.51,4.8h.12c.94-.04,1.87.15,2.71.58.25.2.39.51.38.83-.07.06-.3.12-1.01.08-6.1-.3-12.09-1.65-17.72-4.01-1.75-.73-6.39-2.68-8.93.43l-.86,1.06.97.96c3.21,3.16,7.63,3.85,11.92,4.51.7.11,1.39.22,2.07.33,1.77.31,3.58.73,5.32,1.13,2.75.7,5.54,1.22,8.35,1.56,4.06.4,9.83.14,14.21-3.43,2.34-1.91,3.52-4.35,3.24-6.69-.47-2.67-2.46-4.83-5.08-5.52-2.26-.55-4.63-.53-6.88.06-1.34.29-2.67.65-3.96,1-2.49.79-5.06,1.29-7.67,1.48-4.56.12-8.95-1.72-12.08-5.05-.98-1.06-1.72-2.6-1.14-3.35.19-.25.49-.39.8-.37,1.12.07,2.16.59,2.88,1.44.39.45.76.95,1.16,1.49,1.01,1.67,2.49,3.01,4.25,3.85,1.68.51,3.47.57,5.18.17l20.51-3.15c1.72-.26,3.24-.44,4.35.18.69.39,1.19,1.06,1.35,1.84.36,1.94-.03,3.94-1.08,5.6-.56.91-1.22,1.79-1.92,2.71-1.56,2.07-3.18,4.21-3.71,6.94-.34,1.34-.12,2.76.59,3.95.65.95,1.66,1.58,2.8,1.74,1.5.21,3.02-.19,4.21-1.11,1.49-1.36,2.59-3.08,3.21-5l.07-.18c1.81-4.34,3.98-8.53,6.48-12.52l.33-.53-.14-.61c-.42-1.79-2.26-2.03-3.25-2.16-.14-.02-.28-.04-.41-.06-.7-.15-1.31-.6-1.65-1.23-.63-1.11-.78-2.44-.4-3.67.8-2.39,3.15-4.25,5.03-5.75l.88-.7-.42-1.04c-.5-1.19-1.49-2.09-2.71-2.48-1.74-.56-3.64-.35-5.22.56-1.42.92-2.67,2.09-3.7,3.43-.46.54-.89,1.05-1.35,1.51-2.68,2.64-6.33,4.06-10.09,3.9,2.14-5.55,7.46-9.22,13.41-9.26,1.51.02,4.67.08,5.52-2.52.73-2.21-1.14-4.02-1.84-4.7-2.17-2.11-4.16-2.74-5.91-1.89-.24.12-.47.26-.68.43.12-.59.11-1.2-.03-1.78-.7-3.14-3.55-5.59-7.82-6.74-4.6-1.24-9.31-1.01-13.86-.79l-11.72.57c17.8-7.61,38.4.66,46,18.46,5.8,13.57,2.48,29.31-8.3,39.38m-22.2-17.73c-1.24-.77-2.67-1.16-4.13-1.13,1.77-.31,3.49-.78,5.18-1.24,1.25-.34,2.53-.69,3.79-.97,1.76-.48,3.61-.52,5.39-.12,1.48.36,2.63,1.52,2.96,3.01.16,1.28-.65,2.78-2.15,4.01-3.59,2.92-8.52,3.12-12.02,2.77l-.26-.03c.62-.07,1.2-.31,1.7-.68.76-.61,1.19-1.54,1.15-2.51-.03-1.23-.63-2.38-1.62-3.12m-19.31,2.87c-1.95-.3-3.84-.91-5.6-1.81,1.26.14,2.49.49,3.64,1.03.65.27,1.3.53,1.96.78m42.15-10.54c.79,1.39,2.16,2.36,3.73,2.64.16.03.33.05.5.07l.12.02c-2.26,3.74-4.24,7.65-5.92,11.68l-.08.18c-.44,1.44-1.23,2.74-2.3,3.8-.54.41-1.21.59-1.88.5-.31-.03-.59-.19-.78-.44-.26-.53-.31-1.14-.14-1.71.4-2.05,1.74-3.82,3.16-5.7.71-.94,1.44-1.91,2.08-2.95,1.48-2.36,1.99-5.2,1.42-7.93-.38-1.57-1.39-2.91-2.81-3.7-1.06-.55-2.24-.83-3.43-.79-.58,0-1.15.04-1.73.12,1.81-.81,3.45-1.95,4.85-3.36.53-.54,1.03-1.12,1.5-1.67.82-1.08,1.81-2.03,2.93-2.79.84-.47,1.82-.58,2.74-.32l.11.04c-2.13,1.56-3.78,3.69-4.76,6.14-.66,2.06-.42,4.3.68,6.17"/>
</svg>