<?xml version="1.0" encoding="UTF-8"?>
<svg id="Layer_1" data-name="Layer 1" xmlns="http://www.w3.org/2000/svg" viewBox="0 0 82 82">
  <defs>
    <style>
      .cls-1 {
        fill: #939393;
        stroke-width: 0px;
      }
    </style>
  </defs>
  <path class="cls-1" d="m41,.93C18.91.93.93,18.91.93,41s17.97,40.07,40.07,40.07,40.07-17.97,40.07-40.07S63.09.93,41,.93Zm-2.54,22.65h0c-3.67.34-6.92-2.35-7.26-6.01-.35-3.67,2.35-6.92,6.01-7.26,3.67-.35,6.92,2.35,7.26,6.01.35,3.67-2.35,6.92-6.01,7.26Zm9.65,17.68c-.15,3.92-3.44,6.99-7.37,6.84-3.92-.14-6.99-3.44-6.84-7.37,0,0,0,0,0,0,.15-3.92,3.44-6.99,7.37-6.84,3.92.15,6.99,3.44,6.84,7.37Zm-26.12,24.12c-2.84-2.35-3.23-6.55-.89-9.39s6.55-3.23,9.39-.89c0,0,0,0,0,0,2.84,2.35,3.23,6.55.88,9.38h0c-2.35,2.84-6.55,3.23-9.39.89Zm-5.37-43.4c2.35-2.84,6.55-3.23,9.39-.88,2.84,2.35,3.23,6.55.88,9.39-2.35,2.84-6.55,3.23-9.38.88-2.84-2.35-3.23-6.55-.89-9.39,0,0,0,0,0,0Zm-.29,15.55c3.67-.35,6.92,2.35,7.26,6.01.35,3.67-2.35,6.92-6.01,7.26h0c-3.67.34-6.92-2.35-7.26-6.01-.35-3.67,2.35-6.92,6.01-7.26Zm21.21,28.14c-.35-3.67,2.35-6.92,6.01-7.26,3.67-.35,6.92,2.35,7.26,6.01h0c.35,3.67-2.35,6.92-6.01,7.26-3.67.35-6.92-2.35-7.26-6.01Zm13.1-48.17c2.35-2.84,6.55-3.23,9.39-.89,2.84,2.35,3.23,6.55.89,9.39s-6.55,3.23-9.39.89c0,0,0,0,0,0-2.83-2.35-3.23-6.55-.88-9.39Zm4.48,34.01c2.35-2.83,6.55-3.23,9.38-.88,2.84,2.35,3.23,6.55.88,9.39-2.35,2.84-6.55,3.23-9.38.88-2.84-2.35-3.23-6.55-.88-9.38Zm10.56-7.05c-3.67.35-6.92-2.35-7.26-6.01s2.35-6.92,6.01-7.26c3.67-.35,6.92,2.35,7.26,6.01h0c.35,3.67-2.35,6.92-6.01,7.26Z"/>
</svg>