<?xml version="1.0" encoding="UTF-8"?>
<svg id="Layer_1" data-name="Layer 1" xmlns="http://www.w3.org/2000/svg" viewBox="0 0 80.14 80.14">
  <defs>
    <style>
      .cls-1 {
        fill: #fff;
        stroke-width: 0px;
      }
    </style>
  </defs>
  <path id="Path_6430" data-name="Path 6430" class="cls-1" d="m40.07,0C17.94,0,0,17.94,0,40.07s17.94,40.07,40.07,40.07,40.07-17.94,40.07-40.07C80.11,17.95,62.19.03,40.07,0m1.74,75.09l-1.08-1.12.61-.67c.16-.18.32-.36.5-.53.3-.26.74-.28,1.05-.04l.1.06,1.1.52-2.28,1.78Zm-20.6-5.48l.56-.33.52.91s.04.09.07.13c-.39-.23-.77-.46-1.15-.71m-11.24-11.56c.11-.09.23-.18.35-.26.07-.05.14-.09.2-.14l.58-.47.47.58,1.46-1.12,1.03,1.33-1.68,1.44-.43-.63-.27.21c.05.27-.01.54-.17.76.1.14.16.31.19.48l.15.65c-.67-.91-1.3-1.85-1.89-2.83M15.24,15.67c.13.01.26.04.39.07,0-.01-.01-.02-.02-.03-.06-.15-.11-.31-.14-.48l-.03-.11c.57-.56,1.15-1.09,1.75-1.61.45.4.69.98.68,1.57l.39.55h-.21l.53.69c.21.2.34.48.35.78,0,.13-.03.25-.06.37l.18.22s.02.03.04.05c.06-.06.11-.12.17-.18s.12-.12.18-.19l.6-.67,1.34,1.75-.05.32c-.04.29-.14.57-.31.81.03.04.05.09.07.14l.57-.5c.09-.07.19-.14.29-.2.04-.02.08-.04.12-.06.3-.43.86-.59,1.35-.38l-.08-.42v-.02l-.02.05-.76-.32c-.18-.06-.35-.15-.5-.25-.25-.2-.37-.52-.3-.83-.02-.04-.04-.08-.06-.12l-.66-1.55.5.17c.15-.3.45-.5.78-.52.05,0,.1-.02.15-.03l1.11-.27-.21,1.3s-.02.1-.02.14l1.11.38s.07-.03.11-.04c.26-.04.52.03.72.2h0c.12.11.21.25.27.4l1.18-.11.19,1.21-.71.74c.1.26.11.54.01.8-.02.06-.03.13-.05.2l-.08.41c.23-.08.47-.13.72-.17.09-.01.19-.03.28-.05l.58-.12.04.09.43-.54,1.22,1.35-2.23,2.02c-.03.2-.1.39-.2.57l.57,1.79.62.65c.19.17.32.4.37.66.01.15,0,.3-.04.44,1.7-1.59,3.7-2.83,5.87-3.66-.03-.11-.05-.22-.04-.33.01-.21.05-.43.11-.63l.09-.42-.65-1.05,1.38.02c.41,0,.8.16,1.1.44.33-.08.67-.02.95.16.13.03.19.04.25.06l.78.25.07.49c4.14-.6,8.37.28,11.92,2.5l.16-.03c.33-.14.71-.06.96.2.2.22.32.51.33.81,2.44,1.83,4.37,4.25,5.63,7.03.16-.32.44-.57.78-.68.21-.06.44-.08.66-.05l.88.02-.06,1.31-.35.23v.28s.08.19.08.19l.37-.35,1.04.94-.79,1.76c.31.13.54.4.61.73h0c.06.39,0,1.08-1.03,1.31l-.29.06-.38-.19c.05.48.07.98.08,1.47.2,0,.41,0,.61,0h.42s.3.39.3.39c.16.29.17.64.02.94-.11.19-.26.35-.45.46l.02.25-.68.14c-.08.03-.17.04-.25.04-.02,0-.04,0-.06,0-.57,5.79-3.89,10.95-8.91,13.88h.01c.24.12.46.29.64.49.05.05.1.09.15.14l.64.56-.64.56c-.05.05-.11.11-.17.18-.26.28-.65.7-1.2.54-.2-.06-.3-.06-.71.42l-.55.65-.58-.62c-.28-.24-.43-.6-.39-.97.08-.34.31-.62.62-.76.07-.03.14-.08.2-.13,0-.02-.01-.03-.02-.05-1.21.52-2.47.9-3.77,1.14l.02.7-1.55.21-.13-.67c-.57.05-1.14.09-1.72.09-.39,0-.76-.03-1.15-.06,0,.05-.01.1-.02.15l-.15.45-.54.13c-.22.03-.44.04-.66.04-.33,0-.66-.05-.97-.17-.36-.15-.62-.48-.68-.86,0-.06-.01-.12-.01-.19-.54-.13-1.08-.28-1.6-.45-.26.75-.87,1.32-1.63,1.55l-2.62.78.28.44-1.87,1.19-.03-.04-.46.63-.5.59-1.36-1.21.59-.64c.13-.14.27-.28.41-.42.14-.14.33-.21.52-.2l-.12-.19,1.88-1.17.63,1,1.86-1.99c.16-.18.31-.38.44-.59.04-.05.08-.11.12-.17l-.76.63-.78-.81.05-.49.06-.19-1.72.04h-.17c-.66.14-1.31-.28-1.45-.94-.06-.26-.02-.53.09-.77l.17-.73c-.97-.87-1.84-1.84-2.6-2.89l-.56.42-.32-1c-.09-.27-.11-.55-.03-.83-1.43-2.43-2.28-5.16-2.46-7.98-.01.03-.02.06-.03.09l-.27.57.1,1.41-.84-.04.02-.54h-.02s-.07.54-.07.54h-.32s-.15-.14-.15-.14l-.43.31.53,1.91-1.52.5-.3-.91c-.05-.15-.09-.29-.15-.43h0c-.03-.07-.06-.14-.1-.22-.08-.16-.15-.32-.2-.48-.06-.21-.11-.43-.15-.65l-.08-.37c-.11-.13-.2-.26-.29-.41l-.33-.57.62-.48c.15-.13.32-.25.5-.34.26-.15.58-.12.8.07.2-.05.4-.06.6-.03l.18-.16.09.19h.09s-.04-.05-.06-.08c-.12-.17-.19-.37-.21-.58l-.27-1.12,1.13.15c.29,0,.58.1.79.3.12.12.22.26.3.41,0-.04,0-.08,0-.12,0-1.12.11-2.23.32-3.32-.02-.03-.04-.06-.05-.09-.11-.32-.04-.67.18-.92.03-.04.06-.08.09-.13l.08-.13c.78-2.98,2.3-5.71,4.43-7.93-.12.03-.25.06-.38.07l-.14.02-1.59.28.9-1.55c.07-.13.14-.25.22-.36.07-.1.14-.19.23-.28l.43-.5-.62.12c-.08.02-.17.02-.26.02-.25,0-.5-.09-.67-.27-.28-.35-.37-.81-.24-1.24l-.2-.84c-.04-.15-.08-.31-.1-.47-.02-.16-.04-.32-.05-.48l-.45-.17.38-.85s.05-.09.07-.14c.03-.06.07-.12.11-.19l-1.04-1.51c.09.17.13.35.13.54-.02.22-.07.43-.13.63l-.43,1.8-.52.06c-.06,0-.11.01-.17.01-.17,0-.33-.04-.48-.11l-.63.12s.05.01.08.02c.22.08.42.22.58.39.23.26.28.63.12.93l-.19.46-.53.06c-.24.02-.47-.03-.68-.15-.1.07-.2.13-.31.18l-.07.04c.24.34.36.75.34,1.17v.56s-.51.17-.51.17c-.16.06-.33.09-.5.1-.18,0-.35-.05-.5-.15-.4-.27-.43-.68-.48-1.35l-.05-.73h0l-1.06-1.06.94-.59c.1-.07.2-.12.3-.18l-.42-.3.75-.7-.32-.27c-.23.02-.46-.05-.63-.2-.25-.21-.39-.52-.38-.84v-.26c-.06,0-.1,0-.15-.02h0c-.44-.1-.77-.46-.82-.91l-.1.04-.94,1.06-.78-.85-.04-.24-.55-.08-.98,1.73-1.42-.73.43-.87c.07-.14.14-.27.2-.41.03-.07.06-.15.08-.22.05-.17.12-.33.2-.48.11-.19.22-.38.35-.56l.21-.32c.01-.12.03-.24.06-.35.22-.24.45-.48.68-.72l.29.04Zm9.06-6.91l.02,1.46c.02.32-.11.64-.33.87-.22.2-.5.31-.8.31h-.07c-.47-.03-.89-.3-1.1-.73-.09-.18-.14-.37-.15-.57.79-.48,1.61-.93,2.44-1.35m12.11-3.57c-.12.13-.25.24-.41.32-.05.03-.12.07-.17.1l-.34.23c.22.11.43.24.63.39.08.06.15.12.23.17l.49.33-.44,1.22h-.25s0,.82,0,.82c0,.08,0,.16,0,.23.04.28,0,.56-.09.82-.2.37-.6.59-1.02.56-.05,0-.1,0-.14,0-.24,0-.48-.08-.67-.23l-.25-.22-.03-.36c-.01-.29.1-.58.3-.79.12-.12.25-.23.42-.38l.61-.52c-.13,0-.27-.01-.4-.03-.22.39-.59.68-1.02.81l-.86,1.67h0l-.03.9c.02.25-.05.51-.2.72h0c-.19.22-.45.37-.73.43l-1.52,3.31-.72-1.31c-.24-.36-.28-.81-.1-1.2.2-.37.57-.61.98-.64l1.1-.17c-.07,0-.14-.02-.21-.04-.2-.08-.38-.19-.55-.33l-1.43-1,1.72-.46c.15-.04.29-.08.42-.11.12-.02.23-.03.35-.04l.66-.05-.52-.35c-.3-.17-.48-.49-.49-.83.02-.36.22-.7.52-.9l-.06-.42c-.2-.76.25-1.55,1.01-1.75.01,0,.02,0,.03,0l-.03-.07.93-.18c.05-.01.11-.03.16-.05.06-.02.14-.04.21-.06l.05-.3c.61-.1,1.22-.18,1.84-.24m34.1,41.54c-.07-.3,0-.62.18-.88.22-.31.53-.55.88-.69.32-.09.66-.13,1-.11l.85-.05-.05.85c0,.07,0,.16,0,.24.11.47-.08.95-.46,1.23-.18.1-.26.17-.2.8l.07.85-.85-.03c-.37.03-.73-.13-.96-.41-.18-.29-.22-.65-.1-.98.03-.07.05-.15.04-.23-.23-.11-.39-.33-.41-.58m-5.65,5.06l-.16-2.24-.13.18v.24c.04.2.03.39-.04.58-.14.38-.29.76-.43,1.13l-.41,1.06-1.47-.4.24-1.13c.09-.42.18-.85.29-1.26.1-.3.32-.53.62-.65l.88-.56-.04-.78c0-.07-.01-.13-.02-.18-.05-.26-.02-.53.1-.76.11-.19.26-.36.43-.5l.1-.09.89-.88.35,1.19c.1.2.13.42.1.64l.53-.62.96.79v.35c.01.76-.59,1.39-1.36,1.41l-1.45,2.47Zm1.44,2.93l-.29.47c-.32.45-.74.82-1.24,1.07-.13.06-.28.09-.43.09-.24,0-.47-.08-.67-.22-.39-.26-.62-.7-.61-1.17-.06-.84.55-1.58,1.39-1.68.66.09,1.25.46,1.63,1.02l.21.42Zm-7.93-32.88c.07-.27.24-.49.48-.63.59-.31,1.32-.1,1.65.48l.09.11,1.13,1.28-1.93-.04c-.2,0-.38,0-.56-.02-.17-.02-.33-.07-.47-.16l-.62-.34.23-.68Zm0-9.14c.13-.21.29-.39.49-.54.35-.25.83-.18,1.1.15l.45.39-.22.59c-.08.14-.17.27-.28.4l-.63.82-.69-.77c-.33-.24-.42-.69-.21-1.05m5.17,10.75c.25-.06.51-.08.76-.04.22.03.61.18.67.83.08.38-.13.77-.5.9-.17.05-.33.08-.51.1l-1,.13-.03.16-.99-.51c-.51-.24-.71-.57-.6-.99.05-.17.12-.34.21-.5l.34-.7,1.46.49-.04.23c.07-.05.15-.09.24-.11m3.6-5.63l-.3.19c-.21.15-.45.23-.71.24-.1,0-.2-.02-.29-.05-.42-.19-.74-.56-.85-1.01l-.16-.4.65-.84c.57.6,1.13,1.22,1.66,1.86m1.5,10.44l-.4.57c-.07.12-.16.22-.28.29.02.22,0,.45-.06.67l-.02.12.58-.18.64,1.06-1.23,1.41,1.2.39-.74,1.32.78.33-.16.57.68-.35.25,2.49h-.14s.41.4.41.4l-.14.06c.26.23.43.54.49.88l.18.81-2.64.28.12-.63-.11-.08c-.13-.1-.24-.22-.33-.36l-1.31.48.84-1.47h0s.35-.63.35-.63c0-.02,0-.04-.01-.06l-.34-.08c-.07-.02-.14-.04-.21-.05-.11-.01-.22-.02-.33-.03l-1.15-.09v-.04c-.09.04-.21.06-.32.06-.07,0-.14,0-.21-.02l-1.01-.19.62-1.13c.12-.22.24-.44.36-.65.15-.27.41-.46.71-.53.47-.06.92.24,1.04.7h0s.01.08.02.12c.1,0,.2,0,.3.03l.37-.68-1.42-1.09.83-.99.22.03-.75-1.59.39-.12-1.44-2.1.78.06c.02-.15.07-.29.17-.4.24-.28.5-.55.78-.8l.31-.29.47.06c.32.09.58.34.68.65.06.21.06.43,0,.64l.22.17Zm6.45,10.11s-.08-.08-.12-.12c-.19-.31-.2-.7-.02-1.01.02-.04.03-.08.05-.13.04.42.07.84.09,1.26m-1.07-7.06l-.98,1.81-.56-.9c-.25.14-.51.25-.78.34-.11.04-.21.08-.32.12l-.81.33-.2-.85c-.21-.62.12-1.3.74-1.51.05-.02.1-.03.15-.04.23-.06.45-.15.66-.27.52-.34,1.16-.43,1.76-.24.12.41.24.81.35,1.22m-1.68-4.93c.14.33.27.67.4,1.01-.11.36-.35.66-.68.86-.05.03-.09.06-.13.1l-.44.44.33.35-.98.43c-.2.09-.41.15-.63.16-.19,0-.38-.05-.54-.16-.37-.33-.54-.83-.45-1.31l.07-1.78,1.07,1.14,1.39-1.63.57.41Zm-9.36,15.38l-.88-.81.08-.5c.02-.63.47-1.17,1.09-1.28l.03-.03c.1-.09.21-.17.33-.24.2-.1.41-.16.63-.18.37-.03.71.18.85.51l.15.3c.29-.28.71-.38,1.1-.25l1.1.3-.71.89c-.37.46-.66.83-1.11.83-.17,0-.34-.04-.49-.12l-.91-.4.1-.12-1.37,1.1Zm-1.64-16.2c-.12.29-.38.51-.69.57l-.95.39-.17-1.13c-.02-.15-.02-.3,0-.44.02-.14.06-.29.11-.42l.32-1.01.82.5c.3.1.53.35.62.65.07.3.05.61-.05.9m.1,3.82l-1.95,1.48-2.52-4.6,4.47,3.12Zm.17,8.26c.06-.03.12-.06.18-.1.07-.04.14-.08.21-.12l.43-.22,1.15.93-2.47,2.48-.47-.92c-.2-.38-.22-.84-.04-1.24.19-.41.56-.71,1.01-.81m-.04,3.27l-.11,3.67-.99-.38c-.4-.11-.71-.43-.82-.83-.03-.49.2-.96.61-1.25l1.31-1.21Zm-1.16,15.45l.09-1.15,1.14,1.02c.76.75.92,1.91.39,2.84l-1.33,2.44-.08-2.78c-.02-.24-.05-.49-.11-.72-.01-.06-.02-.14-.04-.21l-.09.97h-1.23s-1.2-2.19-1.2-2.19l2.46-.22Zm7.51-6.47l1.11.92.49.47-.95,1.24-1.8-1.2,1.14-1.43Zm1.2-5.87l.2-2.33,1.16-.28,1.6,2.34-2.96.27Zm4.89,2.48l.37-1.81c.07-.37.27-.7.56-.93-.08.78-.2,1.56-.33,2.33l-.6.41Zm-3.8-24.32l-.21.15.22-.12c.42.7.81,1.42,1.18,2.15l-.28.11v-.15s-.21,1.75-.21,1.75l-1.12.04-.36-.41c-.44-.46-.49-1.16-.13-1.68v-.05c0-.1.02-.2.05-.3-.19-.07-.36-.2-.49-.35l-.08-.08v3.33l-.98-.32c-.41-.13-.75-.44-.9-.85-.15-.43-.1-.9.14-1.29.02-.06.04-.13.06-.19.02-.08.04-.16.07-.23l.15-.46,1.33-.15-.49-.53,1.68-1c.13.21.26.41.38.62m-1.29-1.73l-.02-.04c-.08.17-.2.31-.36.42l-.85.57-.37-1.25c-.07-.24-.14-.47-.2-.7-.08-.3-.03-.61.13-.87.07-.11.17-.2.28-.26.52.66,1.03,1.34,1.51,2.03l-.12.11Zm-21.49-2.78c.02-.23.15-.44.35-.55h0c.19-.11.38-.2.58-.28l.81-.34.64,1.26-1.54,1.34-.12,1.5-1.03-.59c-.31-.1-.56-.34-.68-.64h0c-.21-.68.16-1.4.84-1.62l.14-.07Zm0-6.31c.08-.23.18-.44.29-.66l.35-.73.52.04c.69.06,1.08.49,1.13,1.3,0,.06.01.13.02.19l.55,1.75-1.33-.7-.03.18-1.45.08-.06-.72c-.06-.24-.06-.5,0-.74m2.44,11.45c.14-.33.46-.54.82-.53.68.02,1.22.59,1.2,1.27,0,.02,0,.04,0,.06l.03,1.35-2.52-1.49.47-.67Zm2.03-1.99l-1.15.97-.3-1.15c-.15-.29-.16-.64-.03-.93.21-.4.62-.66,1.07-.68l-.19-.34,1.38-.57.53.55c.11.13.21.27.31.42.04.07.06.15.08.23l.76.31-.42,1.28-.6.02-1.45-.1Zm-.1-8.1l.21-.5c.06-.37.31-.67.66-.8h0c.23-.05.46-.06.69-.02l.73.06.16,1.34-.86.39-.08.03h.08l-2.81,3.58-.12-2.21c-.03-.23-.02-.47.04-.7h0c.16-.59.75-.59,1.03-.59h.23l.65-.03-.61-.55Zm2.07,11.55c.05-.21.11-.4.17-.6l.29-.97,1.38.57v.59l-.02.16c-.02.17-.04.34-.08.51-.07.28-.26.52-.52.65l-.42.25-.86-.62.06-.55Zm1.53-9.17c-.14.14-.26.26-.39.36-.13.1-.29.18-.45.22l-.68.2-.32-.65c-.14-.24-.18-.52-.1-.79.2-.63.86-1,1.51-.83l.15.02,1.72.11-1.42,1.35Zm-10.9-9.8l.07,1.43-1.47-1.16c-.06-.05-.12-.09-.19-.14l-1.17.43.24-.8c.85.05,1.69.13,2.52.24m-4.52,12.71c.45-.4,1.08-.51,1.64-.3l1.25.49-1.29.98c-.2.16-.4.3-.61.44-.13.08-.28.12-.44.12-.14,0-.28-.03-.41-.08l-.88-.2.33-.84c.05-.22.18-.42.36-.57h0s.4.54.4.54h0s-.35-.58-.35-.58Zm2.09-1.38l-.64-.56-.42,1.01-1.52-.35.03-.28-.61-.35c-.21-.13-.39-.31-.51-.52-.1-.22-.19-.44-.26-.67l-.27-.77.4-.34c.29-.27.7-.36,1.08-.24v-.02c.17-.14.35-.27.54-.38l.36-.23.28-1.21.96.99c.29.29.46.68.47,1.09.21.12.38.3.47.53.08-.12.17-.22.27-.32.05-.05.11-.11.16-.16l.44-.48-.82.05-.2-.5c-.22-.3-.26-.69-.1-1.03.12-.2.29-.37.48-.5l.56-.48,1.13.89-.45.91.06-.07.56,4.6-1.59-1.48-.85.87Zm-1.24-8.33l2.12-.89.06,1.06c.1.35-.04.73-.34.94-.15.09-.31.16-.48.22l-.87.34-.49-1.66Zm-.77-3.29c.33,0,.66.02.99.03,0,.06,0,.11-.02.17-.07.22-.23.4-.44.5l-.84.55-.52-1.23c.28,0,.55-.02.83-.02m-8.84,13.07c-.21,0-.41-.08-.57-.22-.32-.19-.47-.58-.36-.93.06-.18.14-.36.23-.52l.47-.95,1.08.77v-.03l.28-.03.1-.23.22.19.17-.02c.32-.09.66,0,.9.24.13.16.23.34.28.54l.48,1.27-1.04-.09-.37.84-1.53-.84.04-.1c-.12.08-.26.12-.41.12m-3.38-10.42l.19-.15h0s.39.63.39.63l-.39-.64c.49-.39,1.15-.5,1.75-.3l1.32.47-1.37,1.02c-.23.17-.42.32-.64.45-.04.02-.08.04-.12.05l.49.56-1.08.23-.16.28c.16.25.18.57.05.84-.15.25-.36.45-.62.59-.05.03-.1.06-.16.1l-.16.11.53,1.26.23-.1c-.36-.59-.17-1.35.41-1.72l.35-.32,1.3.53-.38.79c.07.16.09.34.06.52-.07.34-.31.62-.64.74h0c.25.37.37.82.31,1.27l.02.04c.04.08.07.15.1.23.21.3.26.68.11,1.02h0c-.22.35-.59.57-1.01.59-.06,0-.13,0-.2,0-.44.05-.86-.17-1.06-.56-.12-.32-.21-.66-.25-1l-.02-.14c-.05-.33.09-.65.36-.84-.01-.06-.02-.12-.03-.18h-.43c-.39,0-.76-.14-1.02-.42-.18-.23-.25-.53-.2-.82l-.63-.57,1.2-.53-.08-.31c-.02-.08-.05-.15-.08-.22-.09-.22-.15-.45-.16-.69l-.48.1.71-1.48-.15-1.18v-.02c.62-.28,1.26-.53,1.91-.77l-.19.2-.2.18c.05.05.09.11.14.17m-4.93,4.9l-.44.67c-.13.31-.43.51-.76.54-.1,0-.19-.02-.28-.06-.16-.07-.31-.14-.46-.22l-.78-.41.88-1.55,1.84,1.03Zm31.03,44.08l-.18,2.05c.02.24-.03.47-.12.69-.19.4-.42.78-.68,1.15-.2.32-.53.54-.9.61-.04,0-.08,0-.12,0-.35-.02-.68-.17-.94-.42l-.62-.53,3.57-3.57Zm-9.89,10.33l1.12.64c.14.08.27.17.39.25.07.05.16.11.23.15.05-.04.11-.08.16-.12.11-.08.22-.17.33-.24l.43-.26,1.12.79-1.55,2.26-1.04-.75-1.19,1.02v-3.74Zm-.08-4.39c-.09,0-.17-.01-.26-.03-.38-.15-.68-.47-.79-.86l-.46-1.13,2.72.21-.08,1.26-.29.21c-.24.2-.54.32-.85.35m-8.71,9.93l1.78-.85.26.91.78.28-.42.99c-.11.29-.24.57-.38.84-.07.13-.18.24-.32.32-.55-.05-1.1-.11-1.64-.18l.23-.66c.04-.14.1-.27.17-.4.03-.04.05-.08.08-.13l-.54-1.11Zm-2.72-2.49l-.8.11c-.1.02-.2.03-.3.03-.32.03-.62-.16-.74-.45-.08-.2-.15-.41-.21-.58l-.29-.86.89-.25c-.05-.06-.1-.12-.13-.16-.22-.33-.21-.77.02-1.09h0c.25-.36.72-.47,1.11-.27.11.05.22.1.38.17l.22.1.39-.96c.07-.24.2-.45.38-.62.23-.2.53-.29.83-.25.39.09.72.34.92.69l.56.86-1.13.32c-.14.05-.28.08-.43.1-.05,0-.1,0-.15,0-.1,0-.19,0-.29-.02l-1-.09,1,.47,2.11-.59-3.47,2.64.15.7Zm-10.45-5.63l-.08,1.22-.74.03-1.04-.05.06-.88s.01-.09.01-.14c-.09.02-.19.04-.28.06l-2.66.38,1.84-1.51c-.25-.26-.33-.63-.23-.97l-.82.66-.59.42-1.27-1.63.76-.42c.24-.21.57-.29.89-.22.21.07.4.19.56.35l.2.17.48-.03v-.05s.13.04.13.04l1.94-.11c0-.06,0-.12,0-.17l-.46-.3.89-.91-.55.26-.53-1.22.31-.43c.09-.14.19-.27.31-.38.14-.13.31-.21.49-.26l1.03-.3.03,1.03c.01.13,0,.27-.02.4l.09-.03s.07-.02.1-.03l.55-.2.19.26.41-.48.75,2.08-.64,1.01-.47-.25c0,.06,0,.11-.01.16l.41.13-.03.73s-.02.08-.02.12c-.03.29-.14.56-.33.78h0c-.17.17-.38.27-.62.3h0s0,0,0,0c-.1.01-.2.02-.29.02-.28.02-.5.03-.74.04v.3Zm-7.91-5.89l.48-.21.9-1.06.13.62,1.77-.76v3.04l-1.48-.73c0,.06,0,.12,0,.18h0c-.07.48-.39.88-.84,1.04-.07.02-.14.03-.21.03-.26-.01-.51-.11-.71-.26l-.09-.06-.94-.5.8-.72.41-.49-.22-.11Zm-5.13-6.12c-.05.46-.4.82-.85.91-.15.02-.3.03-.45.03h-.17c-.21-.51-.4-1.02-.59-1.53.16-.16.34-.3.54-.39.29-.15.64-.16.94-.03,0,0,0,0,.01,0v-.04c-.11-.29-.08-.62.08-.88.13-.18.28-.34.44-.49l.66-.67.95.98-.22.61c-.06.2-.14.39-.23.58-.14.25-.38.42-.66.47l-.49.19c.02.09.02.17.02.26m-3.42-5.66l.35.26c.16.1.31.22.44.36.16.19.25.43.25.67l.16.93-.7-.02c-.19-.72-.35-1.46-.49-2.2m2.24-20.02c.32,0,.63.16.81.43l.64.61-.68.57c-.17.17-.38.3-.62.37h0c-.07.02-.14.03-.21.03-.23-.01-.45-.1-.63-.25-.04-.03-.08-.06-.14-.09l-.03-.02c.19-.53.39-1.06.61-1.59.08-.03.17-.06.25-.07m.71,10.4v-.05s-.76.12-.76.12l-.77.07-.11-1.82.9-.03c.18,0,.37-.01.55,0h0c.19,0,.38.08.51.23l.05-.22,2.16.5-.38,1.69-2.16-.48Zm1.15,8.95l-1.72,4.68-.73-1.81c-.47-1.17-.29-1.65.83-2.15l1.62-.73Zm-.79-13.47l-.36-.79c-.08-.15-.14-.31-.19-.47h0c-.1-.39.11-.79.49-.94l.71-.4.65,1.18.31.68-1.62.73Zm-2.11-1.35l-.8.52-.05.04c.11-.45.23-.89.35-1.33l.5.77Zm3.72,13.19l.49-1.79-.25-.29.53-.45c-.09-.16-.15-.33-.15-.52,0-.32.15-.63.4-.83l.52-.48.51.5c.56.39.82,1.09.64,1.75-.12.29-.34.54-.6.71l-.17,1.88-1.91-.48Zm7.43-17.9c-.18.26-.46.43-.77.47l-.85.29-.2-.87-.28-1.9,1.03.19.12.02,1.11-.45v1.09c.11.39.06.82-.16,1.17m6.58.6l-.6.93.09.31c.29.06.53.28.63.56.07.28.07.57-.02.85,0,.03-.01.07-.02.1l.17-.03.07.86c.08.34-.02.69-.26.94-.17.15-.38.25-.6.31l-.58.23-.66-.73.06-.55c.05-.22.15-.43.3-.6-.17-.08-.32-.18-.46-.3l-.3.47-1.12-3.58.67.05.04-.39.73.17-.73-.18s.01-.06.02-.09l-.76-.1,2.16-2.48.33.87.53-.25-.25,1.7c-.04.28-.07.52-.13.76-.02.04-.03.08-.06.12l.75.05Zm-2.93,8.49c-.14.06-.28.11-.43.15l-.85.27-.48-1.71,1.97-.56.22.77c.2.8-.29,1.04-.44,1.09m-.38-4.52c.46.4.51,1.11.1,1.57-.04.04-.08.08-.12.12-.24.21-.55.33-.87.33-.15,0-.29-.02-.43-.07-.45-.14-.8-.5-.93-.95l-.09-.02-1.78-.42,2.88-1.75,1.22,1.19Zm-1.59-2.74c-.15.17-.34.3-.55.38l-.6.32-.53-.63-.29-.42.86-1.32,1.13.14.1.54c.14.32.1.7-.11.98m-3.67,12.1c.11.18.2.37.27.57.06.22.06.44,0,.66l-.12,1.09-.99-.43c-.24-.08-.46-.22-.64-.4-.14-.17-.24-.36-.3-.56l-.28-.67,1.52-1.27.54,1.01Zm-.23-13.63v.88s-2.61-.37-2.61-.37l.29-.57-.62-.55.62-.61c.18-.23.45-.37.74-.38.26,0,.52.11.7.3.03.02.06.05.11.08l.88.62-.15.1c.05.16.07.33.05.5m-2.76,4.88l1.15-.7v4.2s-1.28-1.2-1.28-1.2c-.42-.29-.66-.77-.67-1.28.09-.45.39-.82.8-1.01m2.05,20l.34,1.24c.04.15.07.31.1.46.02.08.03.19.06.27.06,0,.14.02.2.03.13.02.27.04.4.07l.49.11.21,1.22-.7.27-1.96.36-.2-1.27-1.57-.12,2.63-2.64Zm6.12-2.81c0-.07-.02-.13-.03-.2l-.63-1.6,1.6.62c.75.16,1.23.9,1.07,1.65-.02.1-.05.2-.1.29l-.21.62-.65-.13c-.35-.05-.66-.26-.85-.56.02.05.04.1.06.15.07.36-.09.72-.4.91l-.38.29-.5-.19c-.15-.08-.29-.19-.41-.31l-.58-.49.73-.99.68-.79.62,1.04s.04.08.07.11c-.05-.15-.08-.31-.1-.46m2.82,15.42l.6.45-.57-.49c.31-.59,1.05-.82,1.64-.51.03.02.06.03.09.05h.02s.03-.39.03-.39l1.22.91c.25.17.77.51.56,1.1-.15.4-.42.75-.76,1l-1.33,1.01.17-2.14c-.2.19-.47.3-.75.3-.24,0-.48-.08-.68-.2l-.75-.41.51-.69Zm2.09,4l1.2,3.01-3.4-.34,2.2-2.66Zm1.15.58l-.12-.8,1.38-.2.72-.05.18,1.66-.71.11c-.27.04-.45.07-.63.08-.02,0-.04,0-.06,0-.2,0-.65-.08-.76-.79m.86,2.51c.09-.32.34-.58.65-.69.14-.05.28-.08.42-.11l.92-.22.16.97,2.04.74-2.1.75c-.12.05-.25.09-.39.1-.14.01-.27.02-.41.02-.12,0-.23-.01-.35-.04-.34-.06-.64-.24-.86-.51-.2-.31-.23-.69-.08-1.03m9.32-7.42l-1.7,1.02-.91-1.6-.39-.03.05-.71c-.18-.04-.34-.13-.47-.26-.22-.23-.33-.55-.3-.87l.03-.71h.71c.67-.13,1.35.19,1.69.78.12.3.15.62.07.93l1.21,1.45Zm.97,7.27l-1.8-.76c-1.15-.49-1.37-.98-.94-2.1l.63-1.66,2.1,4.52Zm-1.29,3.74l.61-.72.35.8c-.32-.02-.64-.05-.97-.07m1.98-.78l-.49-.84c-.21-.41-.23-.89-.07-1.32.1-.31.34-.57.65-.69.41-.12.85,0,1.12.33.28.36.3.86.04,1.24-.13.16-.27.32-.43.46l-.83.83Zm.03-13.82l.25-.17,1.21.2-.39,2.15-1.21-.19-.18-.3c-.38-.53-.26-1.26.26-1.65.02-.01.04-.03.05-.04m1.15,6.71c-.24-.44-.12-.99.29-1.29.3-.18.68-.21,1-.07.3.15.5.46.5.8l-.3.05v.02s.3-.04.3-.04c.01.12.03.24.04.4l.25,2.67-1.7-2.04c-.14-.16-.27-.32-.39-.5M14.05,16.58l-.05.16h0c-.05.18-.15.35-.28.49-.11.1-.23.19-.36.28l-.32.24c.33-.4.66-.79,1.01-1.17m-3.81,5.36l1.51-.11-.3,1.17s-.02.08-.03.13c.07-.14.16-.28.26-.4.04-.05.08-.1.12-.16l.69-1.57.69,1.57c.42.65.24,1.51-.41,1.93-.09.06-.18.1-.28.14l-.59.29-.37-.54c-.21-.29-.29-.65-.2-1-.02.05-.04.1-.07.15h0c-.16.25-.44.39-.74.37-.06,0-.13,0-.19-.01l-.48-.07-.22-.49c-.05-.16-.07-.33-.07-.5v-.02c.16-.28.32-.57.49-.85l.2-.04Zm-2.17,32.46l.58-.15c.25-.02.49-.02.74-.02.37,0,.63.25.77.72l.03.11.41,1.14-1.76-.22c-.27-.52-.52-1.06-.77-1.59m6.33,9.54l.52-.35.97,1.09-.31.46c-.4-.39-.79-.8-1.18-1.21m2.66,2.5l-.02.05-.06-.05h.08Zm1.02.93l.42-.81.83.67c.55.33.84.97.72,1.61-.67-.47-1.32-.96-1.96-1.47m14.38,6.35c.14-.11.3-.2.47-.26.16-.05.33-.1.49-.13l1.92-.45-.72,1.25c.23.15.38.38.43.65-1.08-.15-2.14-.36-3.19-.61l.59-.45Zm13.37.25l.27-2.08,1.41.19.45-1.57.37.08v-.06s.13.09.13.09l1.54.33-.2.54c.19.1.35.23.47.4.11.16.18.34.23.53l1-1.82.64,1.26c.19.33.25.71.17,1.08-.84.31-1.69.59-2.56.84l.07-.13c-.09.03-.17.05-.24.06l-.1.02-1.03.32.07-1.16-.03-.38-.73-.31-.16,2.13h-.01l-1.76-.34Zm8.74-1.99s-.06-.08-.09-.12l-.18-.33-.59.17.42-.47-.02-.04.11-.06,1.29-1.45c-.35-.35-.59-.8-.67-1.29l-.21.58-1.24-.49-.02-.1c-.16.17-.38.26-.61.27h-.02c-.45-.02-.85-.29-1.03-.71-.17-.43-.08-.91.22-1.26h0c.24-.23.49-.43.76-.63l2.02-1.58-.44.03s-.09,0-.13.02c-.11.02-.22.03-.34.03-.19,0-.38-.05-.54-.15-.33-.22-.57-.53-.71-.9-.11-.37,0-.78.27-1.05.19-.26.52-.38.83-.31.08.03.17.02.25-.01l.39-.19.37.25c.31.22.49.57.48.95-.03.21-.08.41-.15.61l-.18.64.23-.18-.75,2.13.38.36h0c.1.09.2.19.28.3l.05-.08.29-.6.32.05-.05-.64,2,.93.25,1.17-.49.15s.08.08.1.13l.39-.19.49.54s.04.07.07.1c.09.11.16.24.22.36l1.4-1.22-.05-.06,1.52-.21c.18-.04.36-.06.55-.04-2.28,1.83-4.78,3.38-7.44,4.59m8.77-5.72l-.16-.18-.05.36c-.12.11-.25.22-.38.33l-.42-.06c-.35.03-.69-.13-.88-.42-.11-.2-.16-.44-.14-.67l-.06-.91,1.33.11.19.03.51-.13v-.14c.04-.65.4-.83.61-.89.17-.04.35-.08.53-.1l.93-.15.08.75.06-.02c-.68.72-1.4,1.42-2.14,2.08m2.65-3l-.03-.75.93-.12h.19c-.35.43-.72.84-1.09,1.25-.02-.13-.02-.25-.01-.38m4.67-7.43l-.4-.31c-.24.24-.58.35-.92.32-.17,0-.36-.01-.57-.03l.74,1.09-.93.67-.41-.03c-.26-.06-.49-.2-.67-.39.03.16.05.33.05.49l.14,1.76-1.26-.77c-.06-.03-.11-.06-.17-.09-.35-.12-.6-.42-.65-.79-.01-.25.03-.49.11-.72l.26-1.09.86.46c.13.05.25.11.36.2-.03-.16-.03-.32,0-.47l.06-.3.65-.46-.14-.98.76-.19,1.6-.16-.44-.18,2.07-1.77.83.94-.02.12c-.4,1.01-.85,1.99-1.35,2.95-.21-.03-.41-.11-.58-.25"/>
</svg>