<?xml version="1.0" encoding="UTF-8"?>
<svg id="Layer_1" data-name="Layer 1" xmlns="http://www.w3.org/2000/svg" viewBox="0 0 82 82">
  <defs>
    <style>
      .cls-1 {
        fill: #939393;
        stroke-width: 0px;
      }
    </style>
  </defs>
  <path class="cls-1" d="m41,.93C18.91.93.93,18.91.93,41s17.97,40.07,40.07,40.07,40.07-17.97,40.07-40.07S63.09.93,41,.93Zm35.07,40.07c0,.98-.05,1.94-.13,2.89l-12.38,23.87-1.2-54.55c8.33,6.42,13.71,16.48,13.71,27.78Zm-16.61-29.8l-23.61,58.31L45.56,6.24c5.05.66,9.76,2.39,13.9,4.96Zm-16.5-5.21L9.55,44.28,28.17,8.37c3.98-1.57,8.3-2.44,12.83-2.44.66,0,1.31.02,1.96.06Zm-17.72,3.7L6.32,46.18c-.25-1.69-.38-3.42-.38-5.18,0-13.67,7.87-25.53,19.31-31.31ZM7.13,50.09L43.14,8.82l-10.18,66.31c-12.54-2.95-22.5-12.65-25.83-25.03Zm28.39,25.54L60.38,14.24l1.21,55.12c-5.79,4.21-12.9,6.71-20.59,6.71-1.86,0-3.69-.15-5.47-.43Zm32.76-12.64l6.45-12.43c-1.31,4.59-3.52,8.81-6.45,12.43Z"/>
</svg>