<?xml version="1.0" encoding="UTF-8"?>
<svg id="Layer_1" data-name="Layer 1" xmlns="http://www.w3.org/2000/svg" viewBox="0 0 650 470">
  <defs>
    <style>
      .cls-1 {
        stroke-dasharray: 0 0 12.42 12.42;
      }

      .cls-1, .cls-2, .cls-3 {
        fill: none;
        stroke: #fff;
        stroke-linecap: square;
        stroke-miterlimit: 10;
      }

      .cls-4 {
        fill: #fff;
        stroke-width: 0px;
      }

      .cls-2 {
        stroke-dasharray: 0 0 11.97 11.97;
      }
    </style>
  </defs>
  <line id="Line_331-2" data-name="Line 331-2" class="cls-3" x1="235.16" y1="352.76" x2="237.43" y2="347.69"/>
  <line id="Line_332-2" data-name="Line 332-2" class="cls-1" x1="242.14" y1="337.2" x2="343.4" y2="111.68"/>
  <line id="Line_333-2" data-name="Line 333-2" class="cls-3" x1="345.76" y1="106.44" x2="348.04" y2="101.37"/>
  <line id="Line_334-2" data-name="Line 334-2" class="cls-3" x1="94.46" y1="430.18" x2="93.56" y2="424.7"/>
  <line id="Line_335-2" data-name="Line 335-2" class="cls-2" x1="91.75" y1="413.77" x2="63.74" y2="244.35"/>
  <line id="Line_336-2" data-name="Line 336-2" class="cls-3" x1="62.84" y1="238.89" x2="61.93" y2="233.41"/>
  <g>
    <path id="Path_14050-2" data-name="Path 14050-2" class="cls-4" d="m341.37,30.26c-10.9-21.93-30.89-34.26-44.57-27.46l.62,1.24-.65-1.23L37.74,139.53h0c-10.45,5.23-11.49,23.67-2.38,42.02,4.28,8.62,10.19,15.82,16.63,20.27,3.37,2.52,7.37,4.07,11.55,4.51,2.33.18,4.67-.27,6.77-1.3.45-.23.88-.48,1.3-.76l264.68-121.89-.58-1.26.62,1.24c13.68-6.79,15.94-30.17,5.04-52.1M53.76,145.04l-16.42,21.23,9.56-24.66-1.25-.48c3.21.62,6.24,1.94,8.87,3.87,3.08,2.18,5.85,4.76,8.24,7.68l-.64-.08-11.05,38.61,4.09-45.62-1.41-.55Zm-14.75-3.04c1.99-.95,4.23-1.26,6.41-.9l-11.42,29.44c-3.9-13.16-2.16-24.98,5.01-28.54m-1.16,38.31c-1.52-3.05-2.78-6.22-3.77-9.49l1.19.67,18.09-23.38-4.28,47.74c-4.62-4.49-8.42-9.75-11.23-15.55m15.72,19.22c-.9-.62-1.79-1.31-2.67-2.04l11.33-39.59,1.26,44.21,1.52.26,7.75-19.97-1.46-.57-6.35,16.35-1.26-44.37c2.54,3.23,4.73,6.72,6.55,10.41,8.29,16.69,7.77,33.88-1.15,38.32-4.19,2.08-9.69,1.01-15.51-3m281.53-119.67L76.27,199.07c4.43-8.22,3.36-22.18-3.54-36.08-4.28-8.62-10.19-15.82-16.63-20.27-3.02-2.21-6.51-3.7-10.2-4.35L298.05,5.28c12.31-6.1,30.62,5.65,40.83,26.21s8.52,42.26-3.78,48.38"/>
    <path id="Path_14051-2" data-name="Path 14051-2" class="cls-4" d="m243.86,379.13c-5.71-9.88-15.36-15.03-21.52-11.47l.32.56-.34-.55-116.46,71.1h0c-2.3,1.34-3.53,4.15-3.46,7.93.6,8.33,4.98,15.93,11.9,20.62,1.64,1.07,3.54,1.68,5.5,1.76,1.09.01,2.16-.26,3.11-.8.2-.12.4-.25.58-.39l119.51-64.38-.31-.57.32.56c6.16-3.56,6.53-14.49.83-24.37m-128.87,87.09c-6.54-4.45-10.69-11.64-11.28-19.53-.06-3.29.94-5.7,2.83-6.79s4.48-.75,7.3.95c3.28,2.13,5.99,5.05,7.87,8.48,4.34,7.52,4.6,15.52.58,17.85-1.89,1.09-4.48.75-7.3-.95m127.42-63.83l-116.88,62.95c1.82-3.95.92-10.41-2.7-16.67-1.99-3.62-4.85-6.69-8.33-8.94-1.47-.94-3.14-1.53-4.87-1.73l113.37-69.21c5.54-3.19,14.4,1.74,19.75,11s5.19,19.4-.35,22.6"/>
    <g>
      <path id="Path_14052-2" data-name="Path 14052-2" class="cls-4" d="m594.84,177.25c-.25-.29-.52-.56-.82-.8-.28-.24-.57-.46-.85-.69-.1.04-.21.08-.31.12.04.34.08.69.1,1.04-.01.17-.04.34-.07.51.61,1.08,1.17,2.19,1.69,3.31.12.03.25.08.36.13.34.11.65.3.91.54.19-.18.4-.34.62-.47-.38-.92-.67-1.88-1.1-2.78-.14-.32-.32-.63-.52-.91"/>
      <path id="Path_14053-2" data-name="Path 14053-2" class="cls-4" d="m609.18,161.39c.03-.32.06-.64.11-.96.01-.08.03-.16.04-.24l10.27-10.83,1.24-1.99-.68-.92-2.94,2.16-2.41,1.77-2.23,1.64-11.54,7.6c-3.86-.36-7.68-1-11.45-1.9-2.19-.44-4.54-1.42-6.74-1.93-1.02-.02-2.03-.09-3.04-.15l-.73-.05c-.71.15-1.36.47-1.92.94-.16.13-.53-.03-.82-.16-.92-.42-1.87-.76-2.84-1.02h-.63s-3.01.08-3.05.09c-2.57.29-2.35.66-4.66,1.74-1.64.79-3.14,1.84-4.45,3.1l-289.99,178.51h0c-6.29,3.65-6.66,14.82-.83,24.91,4.58,7.93,11.65,12.88,17.52,12.88,1.57.02,3.12-.38,4.48-1.15.2-.11.39-.24.58-.36l306.79-167.37c.15-.04.29-.12.41-.22.27-.19.52-.41.73-.67,2.04-5.11,3.82-10.31,5.32-15.6.06-.21.19-.4.37-.52.06-.35.11-.7.17-1.05.88-5.24,1.67-10.48,2.21-15.77.33-3.2.61-6.4.87-9.6-.19-.91-.25-1.84-.17-2.76v-.13Zm-317.95,212.9c-1.18.67-2.53,1.02-3.89,1-5.37,0-11.97-4.73-16.31-12.24-5.47-9.47-5.31-19.84.36-23.11,1.18-.67,2.53-1.02,3.89-1,5.37,0,11.97,4.73,16.31,12.24,5.47,9.47,5.31,19.84-.36,23.11m310.27-175.14c-.15,1.12-.56,2.11-.75,3.22-.15.61-.37,1.2-.66,1.75-.14.55-.37,1.07-.68,1.55-.28.34-.59.65-.92.93h0l-303.34,165.5c2.92-5.09,2.17-13.67-2.41-21.59-4.6-7.98-11.72-12.93-17.62-12.88l292.65-180.14c1.29-.15,2.6-.13,3.89.07,2.47.45,4.83,1.39,6.94,2.75h0l.11.07c.66.41,1.3.85,1.91,1.3,2.47,1.75,4.61,3.93,6.33,6.43.09.02.17.05.26.06-.28-1.19-.49-2.39-.64-3.6-1.05-1.04-2.17-2.05-3.34-3.01-1.05-.87-2.17-1.66-3.34-2.38.12-.11.25-.22.39-.31-.03-.09-.04-.18-.04-.28,0-.53.44-.96.97-.97,1.67.13,3.32.47,4.91,1.01,1.52.54,3.05,1.55,4.72,1.48.48-.04.9.32.93.8,0,.06,0,.11,0,.17.07.01.15.02.22.03-.76,1.61-1.49,3.17-2.22,4.7l.06-.02c1.03-1.18,2.22-2.21,3.54-3.07.17-.12.38-.17.58-.13.16-.11.33-.21.5-.3.15-.09.32-.13.49-.13l.26.04s.07.02.11.04c.38-.26.77-.49,1.18-.69-.39,4.74-.73,9.01-1.07,13.14.18-.83.38-1.65.6-2.47.27-1.01.58-2,.95-2.98,0-.73.05-1.46.14-2.18.13-1.11.54-2.17,1.21-3.07.01-.06.03-.12.04-.17.08-.39.41-.67.8-.69.21-.17.42-.33.65-.47.19-.13.43-.17.65-.13.21-.11.43-.21.65-.31.24-.11.52-.13.77-.06.06-.03.1-.06.16-.09,0,.05-.01.1-.02.14.4.2.61.66.5,1.09-.29,1.57-.45,3.15-.46,4.75-.06,2.38.04,4.82-.03,7.22.35-2.05.82-4.07,1.4-6.07.27-2.15.58-4.29,1.93-6.07.28-.45.86-.6,1.33-.35.12.07.23.17.3.29.12-.1.23-.21.35-.3.34,12.38-1.65,24.71-5.86,36.36"/>
    </g>
  </g>
</svg>