<?xml version="1.0" encoding="UTF-8"?>
<svg id="Layer_1" data-name="Layer 1" xmlns="http://www.w3.org/2000/svg" viewBox="0 0 97 97">
  <defs>
    <style>
      .cls-1 {
        fill: #ec0819;
        stroke-width: 0px;
      }
    </style>
  </defs>
  <path id="Path_7341" data-name="Path 7341" class="cls-1" d="m16.55,27.43c-1.61-5.66-.18-10.55,3.55-14.9,1.98-2.53,5.27-3.65,8.38-2.84,2.4.72,4.99-.03,6.62-1.93,3.01-3.35,6.8-4.88,11.3-3.6,4.64,1.32,6.67,4.95,7.74,9.19.11.42.18.85.34,1.61,4.8-5.05,10.61-6.67,17.16-6.1,5.44.47,8.45,3.23,8.85,8.45.24,3.12,1.56,4.63,4.79,5.31,5.78,1.22,7.25,3.21,6.4,8.84-.53,3.49-1.9,6.85-2.79,9.93,1.73,2.17,4.2,4.16,5.15,6.68,2.07,5.51,0,10.55-3.5,15.08-.36.57-.85,1.06-1.41,1.42-3.36,1.7-4.94,4.71-6.72,7.73-1.38,2.19-3.12,4.13-5.15,5.75-4.71,3.9-8.62,4.12-14.12,1.11-1.03,2-1.98,4.05-3.12,5.99-3.38,6.2-10.5,9.35-17.36,7.69-1.57-.44-2.96-1.37-3.97-2.65-2.05-2.55-4.65-2.93-7.57-2.38-3.89.74-7.78,1.72-10.97-1.63-3.47-3.63-5.1-8.63-4.43-13.61.12-1.3.45-2.58.68-3.87-2.69-.09-5.37-.35-8.03-.79-4.29-.96-5.9-2.99-6.14-7.15-.43-4.26.35-8.55,2.25-12.38.73-1.4-.02-3.79-.66-5.53-2.38-6.51,1.13-13.63,7.71-15.04,1.66-.24,3.33-.37,5-.38m30.79,30.72l-.44.07c-.9,3.85-1.8,7.71-2.7,11.56l-.43-.09c.61-4.07,1.21-8.14,1.82-12.21l-1.1-.25-2.4,5.47-.22-.08c.36-2.08.72-4.16,1.08-6.24l-.55-.1c-1.06,1.61-2.11,3.23-3.17,4.84l-.48-.22,2.62-5.7-.8-.59-4.45,4.77c-.1-.09-.2-.18-.31-.27l3.72-5.03c-5.73,3.11-11.19,6.68-16.35,10.66-6.31,4.99-7.01,12.24-2.45,18.72,1.36,2.22,3.95,3.37,6.51,2.9,2.13-.32,4.24-1.03,6.35-.99,1.68.03,4.15.44,4.86,1.54,1.75,2.67,3.93,3.94,7,3.63,2.76-.28,5.92-.27,8.14-1.59,6.18-3.8,8.53-11.62,5.47-18.19-1.6-3.54-3.17-7.09-4.85-10.59-.66-1.18-1.4-2.32-2.22-3.41l-.51.28c.34,5.02.68,10.05,1.03,15.07-1.75-4.87.05-10.39-3.55-15.48-.47,6.33-.89,12-1.32,17.67l-.32-.02v-16.11Zm8.83.29l-.8.67c1.47,3.57,2.81,7.2,4.47,10.68,1,2.16,2.31,4.16,3.88,5.95,4.09,4.51,9.74,4.58,13.64-.07,1.94-2.44,3.41-5.21,4.34-8.19.47-2.05,2.02-3.69,4.04-4.27,5.11-1.7,7.35-6.26,6.11-11.9-.98-5.05-5.54-8.59-10.67-8.3-5.76.36-11.52.72-17.26,1.21-2.11.18-4.19.75-6.28,1.14.03.39.07.77.1,1.15l14.72,1.09c0,.15,0,.3-.01.45h-13.94c-.02.25-.04.49-.06.74l12.1,1.87c-.03.1-.06.19-.08.29l-12.1-.95-.13.68,8.49,2.58-.1.28-9.61-1.42c-.08.25-.15.5-.23.76l5.33,2.83-.13.31-6.19-1.78,8.31,6.91-.36.37-7.96-5.55-.47.57,4.37,5.44-.25.23-3.28-3.8m2.29-15.51c3.04-.21,5.56-.43,8.08-.54,4.7-.22,9.4-.26,14.09-.6,4.89-.35,6.89-2.27,7.75-6.98.23-1.21.39-2.42.47-3.65.23-4.47-.09-5.37-4.52-6.57-3.86-1.04-5.98-3.09-6.82-6.74-.79-3.48-3.55-5.12-6.77-6.01-7.74-2.12-16.91,3.84-17.79,11.58-.57,5.07-.89,10.16-1.28,15.24.04.9.15,1.8.33,2.69,1.18-3.08,2.05-5.33,2.92-7.59l.41.13c-.5,2.01-.99,4.03-1.49,6.05l.39.1,4.05-8.32.48.21c-1.27,3.06-2.54,6.12-3.81,9.18l.59.31,3.58-4.03.34.25-3.15,4.99,4.6-1.97c.07.14.14.28.21.41-.76.53-1.53,1.06-2.66,1.86m-18.1,4.72c-.18-.25-.36-.51-.54-.76l-13.81-1.03c.02-.23.04-.47.06-.7h12.03c.02-.15.04-.29.06-.44l-9.48-4.12c1.95.18,3.87.62,5.71,1.3,1.79.57,3.59,1.11,5.39,1.67l.78-.99c-.77-.42-1.56-.81-2.29-1.27-4.26-2.67-8.39-5.54-12.79-7.97-2.41-1.27-5-2.16-7.68-2.63-6.78-1.27-11.84,3.41-11.03,10.01.18,1.49.79,2.93.93,4.42.06,1.11-.07,2.23-.38,3.3-.64,2.53-1.77,5-2.04,7.56-.37,3.6.27,7.42,4.2,8.89,4.34,1.77,9.28,1.25,13.16-1.38,3.75-2.55,7.33-5.33,10.96-8.03,1.75-1.3,3.44-2.68,5.15-4.03l-.45-.58c-2.24,1.11-4.42,2.34-6.73,3.28-2.22.9-4.57,1.5-6.86,2.24,5.69-2.33,11.3-4.49,15.66-8.73m6.33-21.17l.4-.05c.27,4.23.49,8.46.84,12.69.05.58.67,1.11,1.03,1.66.37-.52.98-1.01,1.07-1.58.49-2.7.82-5.42.99-8.15.32-5.54.34-11.09.08-16.64-.24-3.7-2.85-6.81-6.45-7.7-3.68-1.1-6.16.92-8.42,3.33-.26.28-.51.67-.84.78-1.75.54-3.7,1.73-5.26,1.37-5.3-1.22-9.7,1.66-11.07,6.74-1.14,4.21.47,9.54,3.18,11.08,6.04,3.45,12,7.02,18.01,10.52.97.56,2.01,1.02,3.01,1.53.13-.21.25-.42.38-.63l-10.17-8.67.39-.38,11.46,8.85c-1.65-3.78-2.96-6.77-4.27-9.76l.69-.28c1.45,3.11,2.91,6.22,4.36,9.33l.58-.09v-13.97Zm2.29,15.87c-4.39.06-7.79,2.95-7.73,6.58s3.17,6.87,6.52,6.81c4.13-.26,7.34-3.7,7.31-7.83-.04-3.12-2.59-5.61-5.71-5.58-.13,0-.26,0-.38.02"/>
</svg>