<?xml version="1.0" encoding="UTF-8"?>
<svg id="Layer_1" data-name="Layer 1" xmlns="http://www.w3.org/2000/svg" viewBox="0 0 97 97">
  <defs>
    <style>
      .cls-1 {
        fill: #bababa;
        stroke-width: 0px;
      }

      .cls-2 {
        fill: none;
        stroke: #fff;
        stroke-miterlimit: 10;
        stroke-width: 2px;
      }
    </style>
  </defs>
  <path id="Path_7342" data-name="Path 7342" class="cls-1" d="m23.59,58.14c4.71-3.64,9.71-6.9,14.94-9.74l-3.4,4.6.28.24,4.07-4.36.73.53-.34.74,2.08-2.07c-1.14-1.17-1.8-2.73-1.85-4.37-.05-3.31,3.05-5.96,7.06-6.01,1.4-.06,2.78.41,3.85,1.32l5.67-5.67-.25-.18-3.27,3.68-.54-.28c1.16-2.8,2.32-5.59,3.48-8.39l-.44-.19-3.7,7.6-.35-.09c.45-1.84.91-3.68,1.36-5.52l-.38-.12c-.79,2.06-1.59,4.12-2.67,6.93-.16-.81-.26-1.63-.3-2.45.36-4.64.65-9.3,1.17-13.92.8-7.07,9.17-12.52,16.24-10.58,2.94.81,5.47,2.31,6.19,5.49.09.39.2.78.33,1.16l2.31-2.31c-.56-4.34-3.27-6.65-8-7.06-5.98-.52-11.29.96-15.68,5.57-.15-.7-.21-1.09-.31-1.47-.98-3.88-2.84-7.19-7.08-8.4-4.11-1.16-7.58.23-10.32,3.29-1.49,1.73-3.86,2.42-6.05,1.76-2.84-.74-5.85.28-7.65,2.59-3.4,3.97-4.7,8.44-3.24,13.61-1.53.01-3.06.13-4.57.35-6.01,1.29-9.22,7.79-7.04,13.73.58,1.59,1.27,3.78.6,5.05-1.73,3.5-2.44,7.42-2.05,11.31.22,3.81,1.69,5.65,5.61,6.53,2.43.4,4.88.64,7.34.72-.21,1.17-.51,2.35-.62,3.53-.27,2.42,0,4.87.77,7.17l1.62-1.62c-1.38-4.62.05-9.26,4.41-12.71m-3.78-41.82c.95-4.4,5.29-7.2,9.69-6.26.14.03.28.06.42.1,1.42.33,3.21-.76,4.8-1.25.3-.1.53-.45.77-.71,2.06-2.2,4.33-4.05,7.69-3.04,3.28.81,5.67,3.66,5.89,7.03.24,5.06.22,10.14-.07,15.2-.15,2.5-.45,4.99-.9,7.45-.08.51-.64.96-.98,1.44-.33-.51-.9-.99-.94-1.52-.31-3.86-.53-7.73-.77-11.59l-.36.04v12.75l-.53.08-3.98-8.53-.63.26c1.19,2.73,2.39,5.46,3.9,8.91l-10.47-8.09-.35.34c3.1,2.64,6.19,5.28,9.29,7.92l-.35.57c-.92-.46-1.87-.88-2.75-1.4-5.49-3.2-10.94-6.46-16.46-9.61-2.47-1.41-3.94-6.28-2.9-10.12m-8.76,41.96c-3.59-1.34-4.18-4.83-3.84-8.12.24-2.34,1.27-4.59,1.86-6.9.29-.98.41-2,.35-3.01-.13-1.36-.68-2.68-.85-4.04-.74-6.02,3.89-10.3,10.07-9.14,2.45.43,4.82,1.24,7.01,2.4,4.02,2.22,7.8,4.84,11.69,7.28.67.42,1.4.78,2.1,1.16l-.71.91c-1.64-.51-3.28-1-4.92-1.53-1.68-.62-3.44-1.02-5.22-1.19l8.65,3.77-.05.4h-10.99c-.02.21-.03.42-.05.63l12.61.94.49.7c-3.99,3.87-9.11,5.84-14.31,7.97,2.09-.67,4.24-1.22,6.27-2.04,2.11-.86,4.1-1.99,6.14-3l.42.53c-1.57,1.23-3.11,2.49-4.71,3.68-3.32,2.47-6.59,5.01-10.01,7.34-3.55,2.4-8.06,2.87-12.02,1.25"/>
  <path id="Path_7343" data-name="Path 7343" class="cls-1" d="m80.42,44.35c-1.38-2.36-2.81-4.72-4.22-7.03l-1.49,1.49c.29.48.58.97.87,1.45,2.05,3.42,4.17,6.96,6.17,10.48,3.61,6.34,5.46,11.92,5.8,17.57.58,9.62-3.4,16.63-11.84,20.84-8.9,4.64-19.47,4.77-28.48.34-5.67-2.62-9.51-6.7-11.36-11.84l-1.51,1.51c2.12,5.03,5.97,9.13,10.85,11.58,4.8,2.57,10.16,3.9,15.6,3.87,2.54,0,5.06-.26,7.55-.76,7.87-1.54,13.93-5.34,17.53-10.99,3.62-5.68,4.51-12.83,2.56-20.68-1.61-6.5-4.86-12.36-8.06-17.81"/>
  <path id="Path_7344" data-name="Path 7344" class="cls-1" d="m75,68.81c-.49,2.48-1.22,4.96-1.93,7.36l-.46,1.58c-.82,2.83-.12,5.1,1.83,5.9.44.18.91.28,1.39.28,1.91-.15,3.58-1.34,4.34-3.1.12-.23.22-.48.32-.72l.04-.09c2.71-6.13,2.94-13.07.63-19.36-2.45-6.63-5.56-13-9.29-19l-2.71,2.71c1.33,3.06,2.66,6.18,3.85,9.31,2.27,5.98,2.89,10.65,2.01,15.13"/>
  <line id="Line_266" data-name="Line 266" class="cls-2" x1="91.93" y1="10.23" x2="13.71" y2="88.45"/>
</svg>