<?xml version="1.0" encoding="UTF-8"?>
<svg id="Layer_1" data-name="Layer 1" xmlns="http://www.w3.org/2000/svg" viewBox="0 0 97 97">
  <defs>
    <style>
      .cls-1 {
        fill: #bababa;
        stroke-width: 0px;
      }
    </style>
  </defs>
  <path id="Path_7274" data-name="Path 7274" class="cls-1" d="m74.39,57.73c-1.53-6.16-4.6-11.7-7.62-16.85-1.51-2.58-3.09-5.17-4.61-7.68-4.48-7.36-9.11-14.97-12.59-23.04-.11-.21-.25-.41-.42-.58-.11-.12-.25-.28-.42-.49l-.41-.51-.7,1.42c-.23.46-.41.84-.6,1.21-.49.97-.95,1.95-1.43,2.92-1.02,2.11-2.07,4.3-3.26,6.36-1.86,3.23-3.8,6.48-5.67,9.62-2.94,4.93-5.98,10.03-8.78,15.15-2.25,4.06-4,8.37-5.21,12.85-3.06,11.62.87,21.32,10.8,26.63,4.54,2.43,9.61,3.69,14.76,3.66,2.4,0,4.79-.25,7.14-.72,7.44-1.46,13.18-5.06,16.59-10.4,3.42-5.38,4.26-12.14,2.43-19.56m-12.07,25.52c-8.42,4.39-18.42,4.51-26.94.32-9.67-4.46-13.75-13.43-11.18-24.61,1.43-6.24,4.53-11.77,7.84-17.35,1.12-1.89,2.26-3.77,3.41-5.64,1.78-2.93,3.62-5.96,5.36-8.98,1.94-3.39,3.82-6.88,5.64-10.26.69-1.28,1.38-2.56,2.07-3.84.77,1.4,1.54,2.8,2.31,4.21,1.97,3.62,4.01,7.35,6.11,10.99,1.72,2.99,3.52,6,5.26,8.91,1.94,3.24,3.94,6.58,5.84,9.91,3.42,6,5.16,11.28,5.49,16.62.55,9.1-3.21,15.73-11.2,19.71"/>
  <path id="Path_7275" data-name="Path 7275" class="cls-1" d="m54.27,31.73c-.24-.31-.5-.61-.79-.88-.12-.12-.24-.24-.35-.36l-.24-.25-1.08.68.43,1.03c.22.52.43,1.03.65,1.55.71,1.65,1.43,3.3,2.15,4.94,1.61,3.67,3.28,7.47,4.72,11.27,2.15,5.66,2.73,10.07,1.9,14.31-.46,2.35-1.15,4.69-1.82,6.97l-.44,1.5c-.78,2.68-.11,4.82,1.73,5.58.42.17.86.26,1.31.26,1.81-.14,3.39-1.28,4.1-2.94.12-.22.21-.45.31-.68l.03-.08c2.57-5.8,2.78-12.36.59-18.31-3.25-8.76-7.69-17.04-13.2-24.58"/>
</svg>