<?xml version="1.0" encoding="UTF-8"?>
<svg id="Layer_1" data-name="Layer 1" xmlns="http://www.w3.org/2000/svg" viewBox="0 0 97 97">
  <defs>
    <style>
      .cls-1 {
        fill: #bababa;
        stroke-width: 0px;
      }
    </style>
  </defs>
  <path id="Path_7345" data-name="Path 7345" class="cls-1" d="m75.56,69.49l.28.14c.14.07.24.12.35.18l1.45.84c2.42,1.4,4.93,2.84,7.39,4.28.2.15.46.17.68.04,1.4-.69,2.84-1.36,4.18-1.98.37-.12.59-.5.52-.88l-.03-.38c-.12-1.42-.25-2.9-.35-4.35,0-.21-.13-.4-.33-.48-2.4-1.37-4.83-2.78-7.18-4.14l-1.72-.99c-.1-.06-.2-.12-.31-.18l-.54-.32.36-.23.2-.13c.13-.08.24-.16.35-.23l1.16-.72c1.36-.84,2.76-1.71,4.15-2.55.21-.11.35-.33.36-.56.12-1.03.25-2.08.38-3.08l.14-1.08c.11-.38-.12-.78-.5-.89-.02,0-.03,0-.05-.01-.42-.15-.83-.29-1.25-.43-.89-.31-1.81-.63-2.71-.96-.23-.1-.51-.07-.71.08-1.6,1-3.23,2.01-4.81,2.98-1.51.93-3.07,1.9-4.6,2.85-.32.24-.77.25-1.1.02-1.13-.67-2.3-1.34-3.42-1.98l-1.37-.79c-.09-.05-.18-.11-.28-.18l-.16-.1-.36-.23.36-.23.17-.1c.1-.07.2-.12.29-.18.47-.27.94-.55,1.41-.83,1.17-.69,2.37-1.39,3.59-2.03.62-.21.99-.84.89-1.49-.03-.3-.06-.4-.26-.51-.77-.42-1.54-.87-2.29-1.31l-.75-.43c-.71-.41-1.41-.82-2.13-1.24l-1.32-.77.38-.24.2-.12c.13-.08.24-.15.36-.22.45-.26.89-.51,1.34-.77,1.07-.62,2.19-1.25,3.26-1.9.36-.25.84-.24,1.19.02,3.18,1.99,6.37,3.95,9.47,5.84.17.09.37.12.55.07,1.07-.35,2.15-.72,3.2-1.09l.86-.3c.38-.08.63-.45.55-.83,0,0,0-.02,0-.02-.04-.29-.07-.58-.11-.86-.14-1.12-.28-2.27-.44-3.4-.04-.19-.15-.36-.31-.47-1.04-.67-2.11-1.32-3.14-1.96-.37-.23-.73-.45-1.1-.68-.37-.23-.74-.46-1.13-.7l-.94-.58.61-.36.38-.22,1.97-1.14c2.21-1.28,4.49-2.6,6.75-3.88.26-.11.43-.36.43-.65.07-1.08.17-2.18.26-3.24.04-.42.08-.85.11-1.27.05-.56-.04-.72-.55-.96l-1.2-.57c-.96-.45-1.95-.92-2.92-1.41-.22-.14-.51-.13-.73.03-2.33,1.36-4.7,2.73-6.99,4.05l-1.8,1.04c-.11.06-.22.12-.35.19l-.2.11-.38.21v-.44c-.03-.53-.05-1.06-.06-1.59-.06-1.83-.11-3.56-.18-5.32-.02-.19-.1-.37-.24-.5-.9-.72-1.84-1.43-2.75-2.11-.22-.17-.44-.33-.66-.5-.29-.28-.74-.27-1.02.02-.01.01-.02.03-.03.04-.3.26-.61.52-.91.79-.71.62-1.45,1.26-2.2,1.88-.25.18-.38.48-.35.79.06,1.82.12,3.67.18,5.46.06,1.81.11,3.67.18,5.51.05.42-.18.82-.57,1-1.1.62-2.21,1.26-3.28,1.88l-1.42.82c-.1.06-.21.11-.33.17l-.19.1-.39.2v-.44c0-.62,0-1.24,0-1.85,0-1.54-.02-2.99.03-4.48.11-.6-.21-1.2-.78-1.44-.23-.16-.53-.16-.76,0-1.44.85-2.91,1.69-4.33,2.51l-1.16.67c-.1.06-.21.11-.33.17-.06.03-.12.06-.19.1l-.39.19v-2.04c0-1.5,0-2.91-.01-4.34-.03-.44.22-.85.62-1.02,1.89-1.01,3.8-2.04,5.65-3.03,1.37-.73,2.73-1.47,4.1-2.2.22-.09.37-.29.4-.53.17-.97.36-1.95.54-2.9.08-.42.17-.85.25-1.27.12-.37-.07-.76-.44-.89-.01,0-.03,0-.04-.01-.45-.19-.91-.38-1.36-.57-.85-.36-1.74-.73-2.6-1.1-.18-.1-.39-.09-.56.02-1.52.83-3.07,1.66-4.57,2.47l-1.02.55c-.12.06-.23.12-.37.18l-.23.11-.39.19v-1.15c0-.78,0-1.55,0-2.33,0-2.53,0-5.16,0-7.74.03-.27-.11-.52-.34-.65-1.3-.87-2.58-1.76-3.77-2.6-.29-.25-.73-.25-1.02,0-1.29.9-2.56,1.78-3.82,2.62-.23.13-.36.39-.33.65.01,2.79,0,5.64,0,8.38v1.73c0,.13,0,.26-.02.4,0,.07,0,.15-.01.23l-.02.41-.37-.19-.24-.12c-.15-.07-.28-.14-.4-.21-.46-.25-.92-.49-1.37-.74-1.33-.72-2.71-1.46-4.07-2.18-.14-.08-.3-.1-.45-.07-1.38.55-2.73,1.12-4.11,1.72-.35.09-.56.44-.47.79,0,.02.01.05.02.07.08.41.16.83.24,1.24.19.96.39,1.95.56,2.94.03.25.19.47.43.57,1.18.63,2.35,1.26,3.52,1.89,1.93,1.04,3.93,2.12,5.91,3.16.61.22.98.85.88,1.49-.03.35-.04.69-.02,1.04,0,.16,0,.33,0,.49v4.59l-.4-.21-.22-.12c-.13-.07-.25-.13-.36-.19-.46-.27-.92-.53-1.39-.79-1.16-.66-2.35-1.33-3.5-2.06-.49-.43-1.22-.44-1.73-.03-.26.17-.32.28-.32.53.01,1.09.01,2.19.01,3.26v4.16l-.39-.19-.21-.1c-.12-.06-.22-.1-.31-.16l-1.39-.81c-1.07-.62-2.17-1.26-3.27-1.88-.4-.18-.64-.6-.59-1.04.07-1.97.13-3.97.19-5.91.05-1.68.1-3.41.16-5.12.04-.27-.08-.54-.29-.7-.75-.62-1.49-1.26-2.2-1.89l-.98-.85c-.27-.29-.72-.31-1.01-.04,0,0,0,0,0,0l-.66.5c-.91.68-1.85,1.39-2.75,2.11-.14.13-.23.31-.25.5-.07,1.49-.11,2.95-.14,4.56-.01.52,0,1.05,0,1.61v1.28l-.4-.22-.31-.17c-.16-.08-.27-.14-.37-.21l-1.57-.9c-2.39-1.38-4.85-2.8-7.28-4.21-.15-.12-.36-.13-.53-.03-1.51.72-3.01,1.43-4.28,2.01-.35.12-.56.47-.5.84.03.33.06.66.09.99.1,1.2.21,2.45.29,3.68,0,.27.16.51.41.6,1.19.67,2.39,1.36,3.55,2.03l1.12.65,3.14,1.82,1.88,1.09-.36.24-.19.13c-.12.08-.23.16-.35.23l-1.15.71c-1.36.84-2.77,1.71-4.16,2.56-.21.1-.36.32-.37.55-.12,1-.24,2.01-.37,2.99-.05.41-.1.82-.16,1.23-.1.38.13.76.51.86,0,0,.02,0,.02,0,.43.15.87.3,1.3.45.87.3,1.78.61,2.66.94.25.11.54.08.76-.08,2.75-1.72,5.73-3.56,9.38-5.8.06-.03.55-.33.88-.14,1.45.81,2.85,1.62,4.34,2.49l1.11.64.39.22-.38.24c-.07.04-.14.09-.2.12-.13.08-.24.15-.35.22-.46.27-.92.54-1.39.81-1.17.69-2.39,1.4-3.61,2.05-.56.21-.91.78-.82,1.37.02.36.08.48.34.62,1.44.81,2.88,1.65,4.28,2.46l1.26.73c.1.06.2.12.31.2l.17.11.37.24-.38.22-1.37.79c-1.31.75-2.55,1.47-3.8,2.21-.35.24-.8.22-1.14-.03-1.67-1.04-3.38-2.1-5.03-3.12-1.48-.91-2.96-1.83-4.43-2.74-.17-.14-.41-.17-.61-.08-.94.34-1.9.67-2.83,1l-1.18.41c-.4.08-.66.46-.58.86,0,.03.01.06.02.08.04.27.07.54.11.82.14,1.06.28,2.16.4,3.24.01.29.18.55.44.68,1.4.85,2.81,1.72,4.18,2.57.39.24.79.49,1.18.73.1.06.2.13.3.2l.16.11.34.24-.56.34c-.13.08-.24.15-.35.21l-1.64.94c-2.35,1.36-4.78,2.76-7.17,4.13-.21.09-.35.3-.35.53-.08,1.21-.19,2.44-.3,3.62l-.08.94c-.05.58.04.74.53.98l1.26.6c.97.46,1.98.94,2.96,1.42.18.11.41.1.58-.03,2.44-1.43,4.94-2.86,7.35-4.25l1.54-.89c.11-.06.22-.12.33-.17l.18-.09.36-.19.03.4c0,.05,0,.1.01.14,0,.08.02.16.02.24l.04,1.39c.05,1.68.11,3.41.15,5.12-.02.22.08.43.27.55.74.54,1.49,1.11,2.2,1.66.4.3.8.6,1.19.9.28.28.74.28,1.03,0,.01-.01.02-.02.03-.03.34-.3.69-.59,1.03-.89.7-.61,1.43-1.24,2.16-1.85.21-.15.31-.4.28-.66-.06-1.82-.12-3.68-.17-5.48-.06-1.82-.11-3.7-.17-5.55-.05-.42.17-.83.55-1.01,1.11-.62,2.23-1.27,3.32-1.9.48-.28.95-.55,1.43-.83.1-.06.19-.1.31-.16l.19-.09.39-.19v1.08c0,.55,0,1.09,0,1.64.01,1.32.02,2.68-.03,4.02-.12.62.22,1.24.81,1.46.31.15.43.15.67.01,1.42-.84,2.88-1.67,4.28-2.48l1.21-.7c.11-.07.23-.12.36-.19l.22-.11.39-.21v2.49c0,1.26,0,2.56.01,3.84.04.47-.22.92-.66,1.11-1.83.98-3.69,1.98-5.49,2.94-1.42.76-2.84,1.53-4.27,2.29-.2.08-.34.27-.36.49-.17.99-.37,1.99-.56,2.96-.08.41-.16.81-.24,1.22-.13.37.06.77.43.9.03,0,.05.02.08.02l.78.33c1.04.44,2.11.9,3.18,1.32.17.05.35.04.5-.03.75-.38,1.5-.79,2.22-1.18.32-.17.63-.35.95-.51.66-.36,1.33-.71,2.03-1.08l1.39-.75v3.51c0,2.54,0,5.16,0,7.74-.04.26.09.52.32.66,1.21.8,2.42,1.64,3.58,2.46l.24.16c.28.24.7.24.97,0,1.28-.89,2.54-1.76,3.82-2.62.24-.12.37-.38.35-.64-.01-2.59-.01-5.22,0-7.76v-3.43l.39.19c.09.04.17.08.24.11.14.07.26.12.38.19l1.5.81c1.32.71,2.69,1.45,4.04,2.16.12.07.26.09.4.07,1.39-.56,2.79-1.15,4.15-1.75.34-.1.54-.46.45-.8,0,0,0,0,0-.01-.26-1.25-.56-2.72-.8-4.18-.03-.27-.21-.5-.46-.6-1.57-.84-3.16-1.69-4.7-2.52-1.64-.88-3.34-1.79-5.01-2.68-.37-.16-.6-.54-.57-.94.01-1.31.01-2.64.01-3.92v-1.67c0-.1,0-.19.02-.31,0-.05.01-.11.02-.18l.03-.43.37.21c.53.31,1.07.61,1.6.91,1.33.76,2.59,1.48,3.85,2.26.48.41,1.18.43,1.68.04.28-.19.34-.3.34-.57-.01-1.58-.01-3.18-.01-4.74,0-.54,0-1.08,0-1.62v-1.11l.4.23,1.41.81c1.29.75,2.5,1.45,3.74,2.14.42.19.67.62.62,1.08-.07,2.04-.13,4.11-.19,6.11-.05,1.61-.1,3.28-.15,4.91-.04.25.07.51.27.66.73.61,1.47,1.25,2.18,1.86.35.3.7.61,1.05.91.26.27.69.29.97.04l.53-.4c.97-.73,1.97-1.48,2.93-2.24.13-.12.21-.28.23-.46.07-1.49.11-3,.14-4.4.01-.57,0-1.13,0-1.74v-1.32l.39.2Zm-1.52-2.64c-.06-.03-.11-.06-.18-.1l-.04,1.16c-.03,1.1-.06,2.18-.1,3.26-.01.36-.02.72-.03,1.08-.03,1.11-.07,2.25-.09,3.38.01.43-.2.83-.56,1.06-.46.33-.9.67-1.38,1.03-.19.15-.39.3-.59.45l-.17.13-.16-.14-.53-.46c-.53-.46-1.09-.94-1.62-1.42-.16-.19-.24-.45-.2-.7.11-3.85.22-7.62.35-11.4.01-.32-.04-.43-.28-.57-2.36-1.35-4.67-2.68-7.11-4.09l-1.74-1v9.12l-7.93-4.57v2.82c0,2.46,0,5,0,7.5-.03.2.08.4.28.47,1.7.91,3.42,1.83,5.08,2.73,1.61.86,3.27,1.76,4.91,2.64.37.16.63.51.68.91.09.57.2,1.13.31,1.72.05.24.1.49.14.74l.04.21-.2.08-.66.28c-.65.28-1.32.56-1.98.82-.26.06-.54,0-.76-.16-1.96-1.05-3.96-2.12-5.88-3.16l-1.74-.94-.22-.12v2.87c0,3.22,0,6.56,0,9.84.03.41-.18.8-.54,1.01-.59.38-1.15.77-1.75,1.19-.24.17-.48.33-.72.5l-.15.11-.15-.11-.66-.45c-.67-.46-1.36-.93-2.03-1.42-.2-.21-.31-.49-.3-.78,0-3.51,0-7.08,0-10.54v-2.23l-.17.09-1.53.83c-2.01,1.08-4.09,2.2-6.13,3.31-.34.22-.77.24-1.13.05-.52-.24-1.05-.46-1.6-.69l-.69-.29-.2-.08.04-.21c.04-.24.09-.48.13-.71.12-.68.25-1.37.41-2.05.05-.21.24-.4.57-.59,2.95-1.6,6.45-3.49,9.99-5.38.23-.08.37-.3.34-.54-.01-2.46-.01-4.97-.01-7.39v-2.83l-7.88,4.54v-9.12s-.07.03-.1.05l-2.4,1.38c-2.1,1.21-4.27,2.47-6.41,3.69-.24.1-.37.35-.31.61.14,3.83.25,7.72.35,11.35.02.27-.07.53-.25.73-.5.46-1.01.9-1.55,1.36l-.56.47-.17.14-.17-.13c-.2-.15-.39-.3-.59-.44-.55-.41-1.11-.83-1.64-1.27-.21-.22-.31-.53-.28-.83-.07-2.16-.13-4.36-.19-6.49l-.06-2.11c0-.07,0-.14,0-.21l-.42.24c-.54.31-1.06.61-1.58.91l-1.58.91c-2.44,1.41-4.96,2.86-7.44,4.31-.32.23-.75.25-1.09.06-.39-.2-.79-.39-1.18-.58s-.79-.37-1.18-.57c-.28-.15-.46-.43-.48-.75.05-1.05.12-2.01.24-2.92.05-.38.5-.66.59-.71,2.8-1.63,5.65-3.27,8.41-4.86l2.16-1.24.44-.26c-.06-.04-.12-.08-.18-.11l-1.4-.86c-1.95-1.21-3.97-2.46-5.97-3.68-.38-.19-.63-.58-.65-1-.05-.67-.14-1.34-.26-2-.11-.38.11-.79.5-.9.03,0,.05-.01.08-.02.69-.21,1.32-.43,1.91-.66.37-.16.8-.12,1.14.12,1.39.87,2.81,1.74,4.18,2.59,1.78,1.1,3.61,2.23,5.41,3.36.21.17.52.17.73,0,2.16-1.26,4.37-2.54,6.5-3.77l2.2-1.27.09-.05-7.89-4.56,7.89-4.56s-.03-.02-.05-.03l-2.5-1.44c-2.08-1.2-4.23-2.44-6.34-3.67-.19-.15-.45-.14-.64.02-1.55.97-3.14,1.95-4.67,2.89-1.6.99-3.26,2.01-4.89,3.03-.36.26-.83.31-1.24.13-.31-.12-.63-.23-.94-.33-.34-.12-.69-.24-1.04-.37-.27-.14-.45-.42-.45-.72.08-.89.18-1.66.31-2.37.09-.3.29-.56.56-.72,1.87-1.17,3.77-2.34,5.62-3.48l1.79-1.1.13-.09-.17-.1-1.9-1.1c-2.92-1.69-5.93-3.43-8.91-5.13-.39-.19-.64-.58-.64-1.01-.02-.41-.05-.83-.09-1.24-.04-.45-.08-.92-.09-1.39,0-.31.18-.6.44-.76.41-.21.83-.41,1.23-.6.36-.17.73-.34,1.09-.53.37-.22.83-.2,1.19.04,2.94,1.71,5.94,3.44,8.83,5.11l2.01,1.16c.06.03.11.06.17.09,0-.06,0-.12,0-.18.02-.65.04-1.29.06-1.94.06-2.18.13-4.44.18-6.66-.02-.48.21-.94.62-1.2.45-.31.88-.64,1.33-.99.19-.15.38-.3.58-.45l.17-.13.17.14c.18.16.37.32.55.47.52.45,1.06.91,1.57,1.38.18.22.27.51.23.79-.1,3.59-.21,7.45-.34,11.35-.05.24.08.47.3.56,2.2,1.25,4.42,2.54,6.58,3.78.74.43,1.49.86,2.23,1.29l.04.03v-9.12l7.92,4.56v-2.46c0-2.56,0-5.21.01-7.82.03-.24-.11-.46-.34-.53-1.79-.96-3.61-1.93-5.37-2.88-1.5-.81-3.05-1.64-4.58-2.46-.35-.16-.6-.49-.65-.87-.09-.57-.2-1.14-.32-1.73-.05-.25-.1-.5-.15-.76l-.04-.21.2-.09.64-.27c.66-.28,1.34-.57,2.02-.84.24-.05.5,0,.7.15,1.92,1.02,3.83,2.05,5.73,3.07l2,1.08.15.08v-2.82c0-3.25,0-6.61,0-9.91-.03-.39.17-.77.52-.96.6-.39,1.17-.79,1.78-1.21.24-.16.47-.33.71-.49l.15-.11.15.11c.23.16.46.31.69.47.65.45,1.33.91,1.97,1.39.22.23.34.55.33.87.01,3.22.01,6.5.01,9.68v3.02l.57-.31c.67-.36,1.33-.71,1.98-1.06.47-.25.93-.5,1.39-.75,1.3-.7,2.64-1.42,3.97-2.12.3-.14.64-.16.94-.05.59.22,1.17.47,1.74.72.22.09.44.19.66.28l.2.09-.04.21c-.05.25-.09.49-.14.73-.12.67-.24,1.31-.4,1.95-.11.3-.33.54-.61.67-3.71,2.01-6.96,3.76-9.94,5.35-.24.08-.39.33-.36.58.02,2.55.01,5.14.01,7.65,0,.79,0,1.57,0,2.36v.18l7.89-4.55v9.12s.05-.03.07-.04l2.56-1.48c2.08-1.2,4.22-2.44,6.34-3.65.21-.12.25-.21.24-.49-.12-3.33-.22-6.84-.35-11.4-.02-.27.06-.53.23-.73.51-.47,1.05-.93,1.58-1.38l.54-.47.17-.14.17.13c.2.15.4.3.6.45.55.41,1.07.8,1.58,1.22.22.23.34.54.33.85.08,2.42.15,4.89.22,7.27l.04,1.33v.24c.06-.03.11-.06.16-.09l1.66-.96c3.01-1.74,6.12-3.53,9.18-5.31.34-.24.78-.26,1.14-.05.68.36,1.41.71,2.31,1.1.39.13.62.53.53.93-.11.99-.18,1.8-.21,2.56,0,.4-.24.76-.6.92-2.91,1.67-5.86,3.38-8.72,5.02l-2,1.15c-.11.06-.21.12-.33.19l.16.1,1.66,1.03c1.87,1.14,3.79,2.33,5.68,3.48.43.22.71.65.72,1.13.05.65.14,1.3.26,1.94.1.37-.11.76-.49.86-.02,0-.05.01-.07.02-.26.09-.51.19-.76.3-.53.28-1.13.43-1.73.43-.62-.12-1.19-.41-1.67-.82-.2-.14-.39-.28-.58-.4-2.41-1.48-5.22-3.21-7.96-4.92-.18-.16-.44-.18-.64-.03-2.16,1.26-4.37,2.53-6.5,3.76l-2.25,1.3-.11.06,7.89,4.56-7.89,4.56,1.49.86,1.78,1.02c1.86,1.07,3.78,2.18,5.67,3.28.16.13.39.12.54-.01,1.53-.95,3.08-1.91,4.58-2.84,1.64-1.02,3.35-2.07,5.02-3.11.36-.26.83-.31,1.24-.13.31.12.63.23.94.34.34.12.69.23,1.03.37.27.14.45.41.45.72-.08.89-.18,1.68-.31,2.42-.09.28-.29.52-.55.67-1.87,1.16-3.77,2.34-5.61,3.47l-1.8,1.11-.14.09.76.44c.81.47,1.6.93,2.39,1.38l1.79,1.04c2.01,1.16,4.08,2.35,6.11,3.55.28.18.47.47.52.81.1.81.17,1.68.22,2.81,0,.28-.16.55-.4.69-1,.5-1.84.9-2.64,1.25-.29.08-.6.04-.86-.12-2.79-1.6-5.63-3.24-8.38-4.83l-2.52-1.46Z"/>
</svg>