<?xml version="1.0" encoding="UTF-8"?>
<svg id="Layer_1" data-name="Layer 1" xmlns="http://www.w3.org/2000/svg" viewBox="0 0 154.87 48.19">
  <defs>
    <style>
      .cls-1 {
        fill: #ec0819;
        stroke-width: 0px;
      }
    </style>
  </defs>
  <path id="Path_3197" data-name="Path 3197" class="cls-1" d="m142.81,16.36c2.82.78,5.57,1.52,8.3,2.31.8.24,1.58.54,2.34.9,1.72.8,1.9,1.83.4,2.97-1.91,1.44-3.95,2.7-5.9,4.1-1.05.74-2.33,1.12-3.62,1.06-21.16-.05-42.32-.07-63.47-.08-.93,0-1.44.2-1.72,1.16-.38,1.3-.93,2.54-1.47,3.99,3.32-.33,6.41-.64,9.51-.95,5.56-.56,11.12-1.4,16.69-1.59,3.03-.24,6.03.64,8.46,2.46,3.37,2.73,6.85,5.32,10.25,8.02.37.43.67.91.88,1.44-.42.33-.9.59-1.4.78-9.42,1.78-18.84,3.53-28.26,5.25-.59.07-1.19-.02-1.73-.28-6.56-2.84-13.11-5.7-19.65-8.59-.6-.32-1.33-.27-1.86.15-.66.36-1.39.58-2.14.64-3.09.4-6.19.78-9.29,1.09-.63.04-1.26-.11-1.81-.43-5.71-3.26-11.41-6.55-17.09-9.87-.52-.39-1.22-.43-1.79-.12-1.01.51-2.14.83-3.12,1.4-4.38,2.5-9.19,2.62-13.97,2.34-6.64-.4-13.27-1.11-19.89-1.74-.5-.05-.97-.53-1.46-.81.32-.46.55-1.08.99-1.35,7.3-4.54,14.63-9.03,21.93-13.56.56-.41,1.31-.43,1.89-.06,3.33,1.76,6.69,3.46,10,5.24.57.39,1.33.34,1.85-.11,1.11-.8,2.37-1.41,3.41-2.29,1.32-1.13,3.13-1.52,4.8-1.04,1.08.31,2.24,0,3.01-.82,3.41-3.36,6.8-6.74,10.23-10.08.63-.59,1.31-1.13,2.03-1.6.6-.4,1.3-.65,1.89-1.05,2.9-1.97,6.12-2.55,9.57-2.77,10.97-.7,21.92-1.76,32.9-2.35,5.14-.37,10.31.22,15.23,1.73,1.08.36,2.12.85,3.09,1.44,3.44,2.03,6.81,4.17,10.26,6.18,1.06.56,2.18,1.01,3.34,1.34,1.3.42,2.66.65,3.96,1.09,2.76.93,3.14,1.7,2.42,4.49m-93.11,3.07c.09.04.18.07.27.09,7.78,1.61,15.56,3.22,23.34,4.83,2.38.49,4.77,1.3,7.15,1.31,21.46.11,42.92.07,64.39.07.34.04.68-.01.99-.14,2.18-1.37,4.33-2.78,6.7-4.32-.66-.27-1.03-.46-1.43-.57-2.75-.75-5.5-1.5-8.25-2.22-1.98-.51-2.48-1.31-1.8-3.2.25-.7.11-1.1-.57-1.3-1.45-.44-2.89-.96-4.38-1.25-1.45-.28-2.84-.83-4.09-1.62-3.35-2.09-6.73-4.16-10.15-6.14-1.18-.69-2.44-1.22-3.76-1.59-4.65-1.23-9.47-1.67-14.26-1.32-10.37.63-20.71,1.64-31.08,2.21-4.03.1-7.95,1.29-11.34,3.46-.54.28-1.04.61-1.51.99-3.43,3.55-6.83,7.13-10.24,10.71m-14.82,6.12c7.89,4.56,15.55,8.99,23.24,13.4.44.21.93.29,1.41.23,2.04-.2,4.08-.6,6.12-.67,2.52-.07,4.93-1.04,6.8-2.73.86-.75,2.19-1.17,2.67-2.08.98-2.1,1.84-4.25,2.57-6.45-7.31-1.51-14.41-3.02-21.53-4.45-4.1-.82-8.23-1.49-12.34-2.2-.47-.12-.97-.09-1.42.1-2.47,1.54-4.9,3.16-7.5,4.86m85.33,15.74c-2.91-2.26-5.66-4.3-8.29-6.47-2.67-2.13-6.1-3.07-9.49-2.6-8.11.72-16.2,1.61-24.29,2.44-.45,0-.9.1-1.31.3-1.16.78-2.26,1.65-3.43,2.53.12.11.26.21.4.3,6.34,2.77,12.68,5.54,19.02,8.29.39.14.8.16,1.2.08,6.77-1.24,13.54-2.48,20.3-3.75,1.89-.35,3.77-.72,5.89-1.12M3.99,31.06c.48.08.73.13.98.16,2.91.29,5.83.68,8.75.84,4.33.23,8.66.26,12.99.44,3.8.15,6.92-1.8,10.21-3.22.04-.02.04-.13.07-.25-1.4-.81-2.83-1.6-4.22-2.45-.89-.54-.9-1.27-.06-1.9.34-.25.7-.48,1.15-.79-3.26-1.7-6.32-3.33-9.4-4.88-.4-.12-.84-.06-1.2.16-6.07,3.71-12.13,7.43-18.18,11.18-.31.19-.59.4-1.08.73"/>
  <path id="Path_3198" data-name="Path 3198" class="cls-1" d="m69.01,20.69c-.21-.22-.77-.57-.74-.86.09-.48.4-.89.84-1.1,2.37-.68,4.78-1.24,7.18-1.84,12.75-3.19,25.51-6.38,38.26-9.56.18-.05.38-.07.56-.12.71-.23,1.44-.31,1.65.61.2.84-.46,1.09-1.13,1.26-15.23,3.8-30.45,7.6-45.68,11.42-.22.06-.44.1-.93.22"/>
  <path id="Path_3199" data-name="Path 3199" class="cls-1" d="m59.38,16.12c-.2-.22-.76-.61-.7-.81.12-.5.45-.92.91-1.17,2.22-.65,4.48-1.17,6.73-1.73l25.31-6.36c.07-.02.14-.05.22-.06.74-.16,1.64-.52,1.91.53.27,1.06-.71,1.18-1.43,1.36-10.57,2.66-21.15,5.32-31.72,7.97-.33.08-.67.15-1.23.27"/>
  <path id="Path_3200" data-name="Path 3200" class="cls-1" d="m94.86,23.25h-12.67c-.34,0-.76.1-1.01-.06-.36-.21-.63-.56-.74-.97-.02-.26.42-.67.74-.82.37-.1.75-.12,1.12-.07,8.49.03,16.97.06,25.46.09.23,0,.52-.08.67.03.35.26.89.63.88.94s-.52.72-.89.93c-.26.15-.67.04-1.01.04h-12.56v-.12Z"/>
  <path id="Path_3201" data-name="Path 3201" class="cls-1" d="m119.57,23.25h-4.33c-.7,0-1.32-.28-1.19-1,.22-.47.66-.8,1.18-.88,2.92-.05,5.85-.01,8.77.1.39.01.75.63,1.13.97-.37.31-.72.85-1.12.88-1.47.1-2.96.04-4.44.04v-.12"/>
  <path id="Path_3202" data-name="Path 3202" class="cls-1" d="m59.8,36.64c-.89-.24-1.77-.55-2.62-.93-1.55-.79-3.02-1.76-4.54-2.62-.62-.35-1.14-.8-.74-1.53.45-.83,1.12-.51,1.76-.14,1.44.85,2.91,1.65,4.31,2.55.83.55,1.84.76,2.82.59,1.32-.19,2.64-.33,3.96-.51.69-.1,1.28.03,1.41.78s-.41,1.07-1.1,1.16l-5.26.65"/>
  <path id="Path_3203" data-name="Path 3203" class="cls-1" d="m44.41,26.31c.39.17.67.27.93.42,1.12.65,2.22,1.33,3.33,1.98.59.34,1.01.8.63,1.48-.38.68-.97.6-1.57.23-1.2-.73-2.45-1.39-3.6-2.19-.32-.33-.49-.77-.48-1.23,0-.23.48-.46.75-.69"/>
  <path id="Path_3204" data-name="Path 3204" class="cls-1" d="m93.55,43.57c-.55-.1-1.1-.25-1.63-.43-2.53-1.03-5.04-2.12-7.57-3.16-.66-.27-1.26-.62-.95-1.4.33-.85,1.04-.68,1.73-.38,2.17.92,4.37,1.76,6.5,2.76,1.2.59,2.56.75,3.87.46,3.08-.65,6.17-1.3,9.25-1.97.71-.15,1.45-.32,1.67.6s-.49,1.13-1.22,1.28c-3.42.7-6.84,1.41-10.26,2.11-.37.08-.75.08-1.38.15"/>
</svg>