<?xml version="1.0" encoding="UTF-8"?>
<svg id="Layer_1" data-name="Layer 1" xmlns="http://www.w3.org/2000/svg" viewBox="0 0 138.6 84.39">
  <defs>
    <style>
      .cls-1 {
        fill: #bababa;
        stroke-width: 0px;
      }
    </style>
  </defs>
  <path id="Path_7276" data-name="Path 7276" class="cls-1" d="m138.24,46.62c-.04-.15-.06-.31-.08-.47-.02-.21-.06-.41-.12-.62-.32-1.13-.64-2.26-.99-3.37-.09-.26-.2-.52-.32-.76-.1-.19-.19-.39-.26-.6-.21-.82-.93-1.41-1.78-1.44-.47-.05-.94-.16-1.39-.33-.61-.21-1.21-.44-1.81-.66-.64-.24-1.28-.48-1.92-.7-3.31-1.12-6.73-1.85-10.21-2.17-3.5-.47-6.92-1.42-10.16-2.83-1.14-.26-1.85-1.39-1.59-2.53,0-.04.02-.09.03-.13.16-1.3-.16-2.61-.91-3.68-.39-.54-.71-1.12-.95-1.74-.63-1.78-1.97-3.21-3.71-3.94-.39-.18-.78-.38-1.16-.58s-.76-.39-1.14-.58c-.35-.16-.71-.3-1.07-.44-.23-.09-.45-.17-.67-.26l-.44-.18c-.43-.16-.85-.35-1.26-.57-.56-.33-1.1-.67-1.64-1.02-.79-.5-1.6-1.02-2.44-1.47-1.28-.69-2.62-1.32-3.9-1.93-.55-.26-1.1-.52-1.7-.81-.12-.06-.24-.11-.36-.16-2.42-.84-4.7-2.03-6.76-3.55-.9-.67-1.88-1.2-2.93-1.59-.49-.11-.9-.42-1.17-.84-1.36-2.43-3.86-3.43-5.87-4.23-.87-.3-1.7-.73-2.45-1.26-1.54-1.23-3.63-1.53-5.45-.76-1.13.44-2.23.96-3.3,1.53-.65.33-1.3.66-1.96.97-1.07.52-2.19.95-3.33,1.3-1.19.29-2.3.85-3.24,1.64-.36.28-.74.52-1.15.71-1.02.53-2.04,1.05-3.06,1.56l-.56.28c-.07.03-.13.07-.2.11-.09.06-.18.1-.28.14-1.45.09-2.86.48-4.14,1.16-.46.2-.91.41-1.38.59-.6.28-1.1.72-1.46,1.27-.05.07-.09.11-.09.12-.05-.01-.11-.03-.16-.05-.96-.49-2.14-.2-2.76.69-.27.29-.63.51-1.01.61-2.78.67-5.46,1.77-6.25,5.24-.36,1.12-.32,2.33.09,3.43.06.12.1.25.13.39-.52,1.05-.58,2.27-.15,3.36.32.99-.06,2.07-.93,2.63-.32.21-.65.4-.99.56-.3.16-.61.32-.9.5l-.28.18c-.88.53-1.72,1.11-2.53,1.73-.63.57-1.41.94-2.25,1.08-1.9.21-3.67,1.1-4.95,2.52-1.92,2.19-4.35,3.87-7.08,4.9-.91.33-1.61,1.06-1.9,1.98-.25.66-.64,1.25-1.15,1.74-2.77,2.6-4.18,5.98-4.43,10.61v.06c.09,2.39.99,4.69,2.57,6.49,1.48,1.86,3.34,3.39,5.45,4.48,2.03.91,4.14,1.72,6.18,2.5l1.46.57c.54.2,1.1.36,1.66.49l.42.1c.6.15,1.21.3,1.81.45.96.23,1.91.47,2.86.72.8.22,1.59.46,2.38.7.45.14.9.28,1.34.41s.87.25,1.31.38c.56.16,1.12.32,1.68.49.46.14.92.29,1.39.44.48.16.96.31,1.44.46,1.77.53,3.55,1.07,5.33,1.57,1.03.29,2.13.56,3.36.83.66.14,1.32.28,1.99.41.79.15,1.57.31,2.35.49.47.11.93.25,1.39.39s.92.28,1.38.39c.58.14,1.16.25,1.74.37.81.16,1.64.33,2.43.55,1.73.54,3.54.77,5.35.66.58-.07,1.17-.02,1.72.15,1.27.42,2.65.32,3.85-.29.32-.14.68-.15,1.02-.04.82.44,1.75.63,2.68.55.52,0,1.03.02,1.55.1.32.04.63.09.94.15s.64.11.97.15c.27.03.54.05.81.06.25.01.5.02.74.06.46.06.91.13,1.36.21.89.17,1.8.28,2.71.32,2.04.14,4.06.55,5.99,1.23.99.3,2.01.6,3.04.84.12.04.24.09.35.17,1.45.8,3.08,1.23,4.74,1.23.65.03,1.28.13,1.96.23.42.06.84.12,1.26.17.58.06,1.16.12,1.74.17s1.17.11,1.75.17c.43.05.87.12,1.3.18.38.06.75.12,1.13.16l.21.03c.3.05.61.08.92.08.13,0,.26,0,.39-.02,1.39-.26,2.71-.83,3.86-1.65l.37-.23c.36-.22.73-.46,1.09-.69.83-.57,1.71-1.07,2.62-1.5,1.09-.45,2.09-1.1,2.94-1.92.41-.41.82-.82,1.22-1.25,1.13-1.19,2.47-2.16,3.94-2.89l.53-.26c2.4-1.2,4.88-2.44,6.47-4.89.82-1.28,2.07-2.22,3.52-2.67,1.77-.45,3.28-1.6,4.2-3.18.09-.13.19-.25.31-.36,1.7-1.58,3.17-3.39,4.38-5.37,1.89-3.22,3.48-6.77,2.39-10.89m-114.14-13.88c.26-.34.59-.61.96-.82.72-.4,1.46-.76,2.2-1.13.45-.22.9-.44,1.34-.67h0c.29,1.93,1.69,2.86,2.93,3.68.38.25.75.49,1.09.77.22.18.44.36.66.54.44.38.89.74,1.37,1.07.37.22.76.4,1.18.51.13.04.26.08.38.13.15.05.29.09.45.12.12.02.24.05.35.1,1.51,1.35,3.22,2.44,5.08,3.26.36.18.73.36,1.08.55.08.04.15.07.23.1.05.02.1.04.14.06.32.31.65.6.98.9.84.74,1.64,1.53,2.38,2.37,1.17,1.42,2.95,2.19,4.79,2.06.29-.01.29.03.32.18.3,1.53,1.35,2.81,2.79,3.42,1.07.58,2.07,1.28,3,2.07.52.49.93,1.07,1.2,1.73.97,2.39,3.47,3.78,6.01,3.35.87-.14,1.76.05,2.49.54,1.63,1.06,2.73,1.01,4.36-.19.28-.2.55-.42.82-.64.65-.59,1.4-1.07,2.21-1.42,1.15-.47,2.14-1.24,2.89-2.23l.23-.26c.13-.13.27-.25.43-.35.08-.06.16-.12.24-.17.31-.24.63-.49.95-.72.71-.54,1.44-1.09,2.13-1.7l.34-.3c.74-.76,1.63-1.36,2.61-1.77.49-.2.93-.49,1.31-.85.14-.12.27-.23.41-.34.14-.11.28-.23.41-.35.16-.16.34-.3.53-.41,1-.42,1.69-1.37,1.77-2.45.08-1.12.92-2.04,2.02-2.23,1.44-.6,3.02-.75,4.54-.45.75.14,1.52.05,2.21-.27,2.17-.61,4.16-1.77,5.75-3.37.53-.55,1.13-1.03,1.78-1.43.22-.15.45-.3.67-.46.11-.05.24-.07.36-.05l.36.05c.74.08,1.48.2,2.2.37.64.17,1.26.37,1.88.58.53.18,1.06.35,1.6.51.96.27,1.94.47,2.7.6.33.06.66.09.99.13.47.03.94.11,1.4.24,1.77.55,3.59.91,5.44,1.08l.87.11c1.48.24,2.95.57,4.39,1.01.44.12.87.24,1.31.36.84.22,1.68.51,2.5.78l.83.28h.04c-.44.21-.83.51-1.12.9-.85,1.18-2.09,2.03-3.5,2.39-.38.15-.73.36-1.04.62-.18.14-.36.26-.55.37-.64.35-1.3.67-1.96.99l-.24.12c-.09.04-.18.07-.28.1-.21.05-.4.14-.58.25-.83.53-1.7,1.02-2.59,1.45-1.32.61-2.57,1.37-3.71,2.27-.55.37-1.16.61-1.81.73l-.31.08c-.73.08-1.38.5-1.76,1.13-.08.08-.18.15-.28.21-.77.46-1.53.92-2.3,1.37l-1.78,1.06c-.22.11-.42.27-.58.45-.81.96-1.93,1.6-3.17,1.79-1.27.36-2.39,1.13-3.17,2.19-1.07,1.21-2.2,2.49-3.37,3.67-.28.27-.64.45-1.03.5-.8.01-1.59-.06-2.37-.21-.52-.08-1.04-.21-1.56-.33-.33-.08-.66-.15-.99-.22-.22-.05-.45-.08-.68-.11-.32-.03-.63-.1-.94-.19-2.15-.63-4.37-.99-6.61-1.09-1.2-.1-2.45-.2-3.65-.4-.96-.12-1.9-.37-2.8-.73-1.05-.5-2.2-.76-3.37-.77-.48,0-.95.05-1.42.15-1.2.19-2.42.14-3.6-.17-4.55-1.16-9.23-1.69-13.92-1.58-.97.08-1.95-.15-2.79-.64-.78-.49-1.73-.65-2.62-.43-.15,0-.29-.05-.41-.15-.63-.71-1.56-1.08-2.5-1-1.56.07-3.11-.31-4.46-1.1-1.37-.72-2.89-1.11-4.43-1.13-1.51-.03-2.99-.36-4.37-.97-.47-.19-.96-.33-1.46-.41-.22-.04-.44-.09-.65-.14-.2-.05-.4-.1-.6-.14-.47-.1-.93-.23-1.38-.39-1.58-.64-3.29-.89-4.99-.73-.76.11-1.52-.12-2.1-.62-1.24-.95-2.67-1.61-4.2-1.93-1.53-.43-3.07-.97-4.56-1.49-.67-.24-1.35-.47-2.02-.7-.24-.08-.48-.16-.72-.23-.38-.12-.75-.24-1.12-.38-1.8-.71-3.82-.55-5.49.41.34-.51.78-.94,1.28-1.29.74-.4,1.27-1.09,1.49-1.9.12-.18.3-.32.5-.39,2.99-1.1,5.2-3.25,7.22-5.36,1.45-1.72,3.53-2.77,5.78-2.92,1.11-.02,2.14-.58,2.77-1.49m6.76-13l.1.05-.77.27,1.31.66c.22.11.44.23.66.32.17.07.34.13.52.18.13.04.26.08.37.12-.1.04-.19.09-.29.14l-.7.35.35.48c.37.55.95.93,1.6,1.05.29.04.58-.05.79-.24.04-.04.1-.08.15-.12.22-.15.4-.35.53-.58.39.27.85.45,1.32.52.12.02.37.32.5.46l.07.08c.26.3.5.62.74.95l.19.26-.03.12c-.12.41-.24.86-.36,1.33-.04.25.02.51.18.72l.18.2.26-.03c.5-.04,1-.12,1.49-.23l.23-.06.1-.2c.09-.38.07-.78-.06-1.14,0-.02-.02-.04-.03-.06l.92-.04c.29.16.59.28.9.39.42.24.74.63.88,1.09.37,1.51,1.75,2.55,3.3,2.49,1.77.03,3.44.84,4.56,2.22.5.85,1.58,1.16,2.45.69,1.58-.82,3.52-.25,4.41,1.29.13.19.25.39.38.59.39.64.82,1.26,1.3,1.84.4.44.85.85,1.33,1.22.2.16.4.32.59.49l.58.51c.44.39.88.78,1.33,1.14.38.35.84.61,1.35.73.25.03.5-.03.7-.17l.18,1.03,1.64-.84-.2-.38.46.06c.02-.12.03-.24.03-.36l.04-.61-.19.1s-.04-.06-.06-.08c-.2-.25-.5-.39-.81-.4-.11,0-.22-.02-.33-.05v-.08s-.11.06-.11.06c-.65-.25-1.23-.67-1.66-1.22-.56-.57-1.18-1.07-1.85-1.49-.99-.69-1.78-1.62-2.29-2.71-.71-1.33-1.84-2.38-3.22-2.99-1.29-.65-2.79-.69-4.12-.12-.09.02-.18.03-.28.01-1.59-1.69-3.77-2.71-6.08-2.85-.58,0-1.08-.4-1.19-.97-.3-1.27-1.29-2.26-2.56-2.58-.59-.14-1.08-.54-1.34-1.08-.65-1.37-1.88-2.39-3.36-2.76-.4-.15-.76-.37-1.07-.66-.32-.27-.62-.55-.92-.84-.92-1-2.07-1.78-3.34-2.26.49-.17.99-.31,1.5-.4.93-.06,1.78-.53,2.33-1.28.07-.01.14-.02.21,0,1.54.45,2.07.27,2.98-1.05.09-.15.2-.29.34-.4.53-.18,1.04-.41,1.53-.64.96-.52,2.02-.84,3.11-.92.42-.03.84-.16,1.21-.37l.22-.1c.27-.12.53-.26.8-.4.4-.23.82-.42,1.26-.57,1.3-.37,2.5-1.01,3.54-1.87.84-.8,1.97-1.24,3.13-1.21.54-.02,1.08-.14,1.59-.34l.32-.11c.71-.24,1.45-.51,2.29-.86.33-.14.64-.34.92-.58.09-.08.18-.17.26-.26.07-.08.18-.2.16-.22.06.04.12.09.17.15.29.26.73.27,1.04.03.43-.33.85-.67,1.26-1.01l.76-.61c.48-.39,1.18-.38,1.65.03.68.48,1.35.96,2.01,1.47.97.74,2.1,1.24,3.3,1.48,1.26.2,2.34,1.03,2.83,2.22.32.96,1.07,1.72,2.04,2.03,1.62.53,3.14,1.35,4.48,2.4.49.34.98.68,1.48.99,1.08.78,2.34,1.28,3.66,1.47.28.05.55.14.79.27l1.04.49c1.55.73,3.15,1.49,4.71,2.28.95.46,1.86,1.02,2.71,1.65.94.84,2.09,1.42,3.33,1.66.08.01.16.03.24.06l-1.08.64c-1.6.95-3.11,1.85-4.61,2.8-.47.32-.91.68-1.31,1.07-.24.22-.48.45-.74.65-.34.27-.71.5-1.1.68-.26.09-.54.13-.82.12-2.21.09-4.18,1.39-5.14,3.38-.27.47-.51.95-.73,1.44-.24.76-.87,1.34-1.65,1.52-.51.13-.97.42-1.31.83-1.26,1.47-2.49,2.95-3.63,4.4-.17.25-.27.53-.3.83-.01.1-.04.2-.06.3-.03.04-.06.07-.09.1-.05.05-.1.09-.14.14l-.4.45.52.31c.6.42,1.43.27,1.85-.33,0,0,0,0,0-.01,1.34-1.56,2.67-3.08,3.95-4.49.2-.21.46-.37.74-.45,1.11-.32,2.01-1.13,2.45-2.19.41-.87.89-1.7,1.42-2.5.58-.84,1.53-1.34,2.54-1.35,1.64.12,3.21-.7,4.06-2.11.21-.26.48-.46.78-.6.11-.07.22-.13.33-.2,1.16-.73,2.33-1.45,3.51-2.15.93-.55,1.98-1.16,3.04-1.69.57-.26,1.24-.16,1.71.25.96.58,1.67,1.49,2,2.56.21.63.54,1.22.98,1.72.55.82.8,1.81.71,2.79-.03,2.02-1.19,3.38-2.59,4.82-1.61,1.57-3.57,2.73-5.73,3.37-.39.11-.79.13-1.18.04-2.8-.59-5.23.44-7.23,1.52-.71.53-1.21,1.29-1.42,2.15-.22.89-.74,1.69-1.47,2.24-.98.82-2.06,1.51-3.22,2.04-.04-.11-.07-.21-.11-.32l-.32-.92-.55.43c-.08.07-.18.13-.26.19-.25.16-.48.36-.69.58-.39.37-.62.88-.62,1.42.03.25.12.48.28.67l-.5.36c-.77.55-1.49,1.06-2.2,1.63-.39.33-.77.67-1.12,1.04-.27.27-.54.53-.82.78-.29.23-.59.44-.91.63l-.28.17c-.16.1-.32.19-.49.28s-.35.19-.51.3c-.29.19-.58.37-.88.56-.59.38-1.2.78-1.82,1.12-.16.06-.34.07-.51.02-.96-.43-2.01-.65-3.06-.62-.58,0-1.16.04-1.73.11-2.34.25-3.38-.35-4.27-2.46-.15-.35-.31-.69-.48-1.03-.12-.25-.24-.5-.36-.76-.33-1.02-1.25-1.74-2.33-1.81-.12-.05-.23-.12-.33-.2-.08-.06-.16-.12-.24-.16-.08-.06-.17-.12-.24-.18-.22-.2-.48-.34-.76-.42-1.06-.23-1.38-.98-1.82-2.19l-.05-.15c-.08-.25-.15-.5-.2-.76v-.04c.84-.63,1.26-1.69,1.06-2.74,0-.41.04-.82.1-1.22.04-.35.08-.71.1-1.07,0-.3-.06-.59-.16-.87-.03-.1-.06-.19-.08-.29l-.29-1.23-.78,1.36c-.11.19-.22.38-.32.57-.28-.11-.57-.16-.87-.14-.66.03-1.27.35-1.67.87-.17.22-.29.27-.65.26-.54-.04-1.08.04-1.58.22-.4.17-.53.13-.77-.22-.18-.23-.42-.39-.69-.48-.07-.03-.14-.06-.2-.09l-.79-.44.05.9c0,.08,0,.16,0,.24-1.03-1.17-2.37-2.01-3.87-2.42-1.48-.45-2.84-1.24-3.96-2.31-.38-.33-.8-.61-1.25-.85-.17-.1-.34-.2-.51-.3-.08-.05-.17-.09-.26-.13l-1.19-.81c-1.19-.81-2.42-1.65-3.59-2.51-.2-.22-.36-.48-.45-.76l-.08-.18c-.13-.29-.25-.59-.36-.89-.17-.48-.38-.95-.61-1.4-.28-.53-.38-.81-.23-1.2.42-1.07.43-2.26.03-3.34-.02-.05-.04-.2.1-.63.26-.64.11-1.38-.39-1.86-.61-.62-.8-.94-.54-1.66.05.08.12.14.19.19.37.23.75.43,1.14.63m19.55,23.65l-.29-.18-.32-.2c.28-.01.57-.07.83-.18.09-.03.17-.06.26-.09l.2-.06c.06.04.12.07.18.1-.33.13-.62.33-.86.59m-43.06,4.49c1.63-.06,3.24.26,4.72.95.8.33,1.62.62,2.45.87.47.15.94.3,1.41.47.7.25,1.39.53,2.21.89.66.28,1.32.57,1.98.86.6.26,1.21.53,1.81.79.15.06.31.11.47.15.12.02.23.06.34.11,1.68.71,3.49,1.09,5.32,1.13,1.45.16,2.89.46,4.28.91.62.18,1.24.35,1.87.5l2.24.55c1.26.31,2.51.62,3.77.92.21.04.43.06.65.05.11,0,.22,0,.33.01.14.02.28.03.42.04.29,0,.57.06.84.16,1.59.8,3.34,1.22,5.12,1.23.38.05.74.22,1.03.48.58.55,1.38.8,2.17.68.45-.08.92-.03,1.35.14,1.22.61,2.57.9,3.94.87,2.93-.2,5.86.03,8.72.68,1.81.47,3.66.8,5.52,1.01,1.2.14,2.42.14,3.62-.02,1.15-.19,2.32-.02,3.37.49,1.29.64,2.71.97,4.15.96.48.02.95.06,1.43.14.26.04.52.07.78.1.4.04.8.08,1.21.11.8.05,1.61.14,2.4.28l1.14.21c2.11.35,4.19.81,6.25,1.38,2.12.77,4.5.28,6.15-1.26.49-.5.96-1.01,1.44-1.53.71-.78,1.45-1.58,2.23-2.3.59-.54,1.3-.95,2.06-1.19,1.3-.45,2.51-1.13,3.57-2.02,1.85-1.47,3.85-2.73,5.97-3.76,1.33-.6,2.63-1.29,3.86-2.07,1.36-.85,2.77-1.61,4.23-2.28.58-.28,1.16-.56,1.73-.85.15-.07.3-.13.45-.19.29-.09.56-.22.81-.38,1.3-.97,2.74-1.73,4.27-2.27.44-.19.82-.49,1.11-.87.12-.14.25-.27.38-.4l.23-.2c.51-.46,1.02-.91,1.52-1.39.03.03.05.07.06.11,1.91,5.02,1.74,9.02-.52,12.61-.52.78-1.17,1.46-1.91,2.03-1.17.85-2.1,2-2.69,3.33-.56,1.53-1.83,2.69-3.4,3.12-1.85.5-3.45,1.68-4.48,3.29-1.4,2.22-3.73,3.38-5.99,4.49l-.26.13c-1.75.85-3.33,2-4.67,3.41-1.11,1.26-2.48,2.27-4.01,2.94-.92.41-1.8.92-2.62,1.52-.4.27-.79.54-1.2.79-.63.38-1.31.79-2,1.12-.67.36-1.46.38-2.15.06-.42-.15-.86-.24-1.31-.25-.17-.01-.34-.02-.5-.05l-1.28-.18c-1.07-.15-2.13-.3-3.2-.44l-.39-.05c-.55-.09-1.1-.14-1.65-.15h-.13c-1.52-.05-3.03-.38-4.43-.98-3.28-1.34-6.75-2.18-10.29-2.49-.82-.05-1.64-.15-2.44-.29-.38-.06-.76-.12-1.14-.17-.46-.06-.92-.12-1.38-.19-.27-.04-.53-.08-.8-.13-.55-.09-1.11-.18-1.66-.25-.28-.03-.57-.03-.85-.02-.23.01-.47,0-.71-.01l-.32-.03c-.44,0-.87-.1-1.28-.26-.89-.54-2-.57-2.92-.1-.83.49-1.85.56-2.73.18-.7-.21-1.43-.27-2.16-.16-1.73.13-3.47-.11-5.1-.72-.63-.21-1.28-.37-1.94-.48-.36-.07-.72-.14-1.07-.23-1.08-.27-2.23-.56-3.35-.9-.53-.16-1.06-.34-1.59-.52-1.91-.76-3.94-1.17-6-1.21-.34,0-.67-.06-.99-.17-1.35-.39-2.68-.81-4.02-1.22-.12-.04-.25-.07-.37-.1-.25-.04-.49-.13-.71-.26-1.6-1.09-3.45-1.75-5.38-1.92l-.34-.06c-2.08-.31-4.11-.88-6.04-1.7-.51-.24-1.06-.41-1.62-.51-1.49-.18-2.9-.81-4.03-1.8-.43-.32-.94-.51-1.48-.54-2.21-.34-4.5-.69-6.18-2.39-.81-.82-1.6-1.7-2.36-2.55l-.9-1c-.7-.92-1.08-2.04-1.09-3.19-.03-.25-.06-.5-.09-.74,0-2.62,2.54-5.72,4.79-5.84"/>
</svg>