<?xml version="1.0" encoding="UTF-8"?>
<svg id="Layer_1" data-name="Layer 1" xmlns="http://www.w3.org/2000/svg" viewBox="0 0 157.74 62.9">
  <defs>
    <style>
      .cls-1 {
        fill: #bababa;
        stroke-width: 0px;
      }
    </style>
  </defs>
  <path id="Path_7277" data-name="Path 7277" class="cls-1" d="m155.85,42.68c-2.51-5.3-6.36-10.14-12.13-15.23l-.18-.15c-2.36-2.08-4.8-4.24-7.95-4.94-4.7-1.21-9.26-2.89-13.63-5.01l-.32-.14c-9.02-4.01-17.54-4.59-26.03-1.75-.9.3-1.32.13-2.1-.54-.93-.8-1.85-1.61-2.78-2.42-2.86-2.63-5.89-5.07-9.07-7.31-8.61-5.79-17.6-6.74-26.73-2.83-3.42,1.49-6.63,3.41-9.57,5.7-4.7,3.65-9.27,7.63-13.69,11.47l-2,1.74c-.71.67-1.61,1.11-2.58,1.23-5.2.57-10.22,2.27-14.71,4.97C5.38,31.8,1.41,37.22.27,44.04c-1.05,6.26.9,9.88,6.5,12.1,1.08.43,2.19.78,3.32,1.05,4.29.87,8.67,1.18,13.04.92.83,0,1.65.21,2.37.63,2.16,1.43,4.64,2.33,7.22,2.61,1.42.11,2.84.23,4.27.35,4.73.4,9.62.81,14.44.94,8.33.22,16.74.27,24.43.27,2.04,0,4.03,0,5.95,0h1.99c13.88-.03,28.24-.06,42.31-1.59.45-.05.91-.1,1.36-.14,3.3-.33,6.72-.67,9.78-2.53.18-.06.37-.08.56-.06h.11c.97-.01,1.93-.01,2.9,0h1.06l.48-.06h.53c.75.02,1.52.03,2.29-.01,2.85-.15,5.85-.41,8.55-1.9,2.51-1.24,4.08-3.83,4.02-6.63-.07-2.54-.72-5.03-1.89-7.29m-8.12,13.58c-.24-.03-.46-.06-.68-.1-1-.31-2.09-.09-2.87.6-.3.05-.61.05-.91,0-.12-.01-.24-.03-.35-.04l-.16-1.41h-1.04s-.23,1.56-.23,1.56l-.94.07-.9-1.03c.26-.49.41-1.03.43-1.58.11-.92.21-1.5.97-1.9l.76-.4-.72-.47c-.87-.56-.92-1.36-1-2.38-.02-.54-.1-1.07-.24-1.59l1.11-.57-.16-1.12-1.05.14-.73-1.43c-.84-1.65-1.71-3.36-2.51-5.05-.05-.2-.05-.42,0-.62.01-.07.02-.14.02-.21v-.29l-.25-.14c-.3-.18-.59-.33-.85-.47-.43-.2-.83-.45-1.2-.74-.4-.35-.82-.69-1.26-1.03.68-.2,1.25-.64,1.62-1.24l.61-.85-4.06.21.03.63c-1.54-.96-3.16-1.8-4.84-2.5l1.1-.09-.14-.57c-.04-.15-.06-.28-.08-.41-.02-.32-.14-.63-.34-.88-.27-.25-.57-.46-.89-.63-.11-.06-.22-.12-.33-.19l-.49-.31-.38.88c-.14.29-.26.58-.36.88-.04.12-.06.24-.08.36-.06-.01-.11-.03-.17-.04-.51-.08-1.01-.22-1.48-.43-.12-.39-.15-.8-.08-1.2.04-.32.12-.64.24-.94.06-.17.12-.33.17-.5l.14-.49-1.34-.37-.81,2.9c-2.43-.27-4.55-1.47-4.56-1.89v-.73s-.67.25-.67.25c-.58.22-1.21.29-1.82.21h.06s.88-.92.88-.92l-2.37-2.25-.32.54c-.04.06-.08.12-.13.18-.24.23-.35.55-.32.88.07.39.22.76.46,1.08-.26-.11-.52-.23-.77-.35-.56-.28-1.13-.51-1.72-.69-.05-.17-.08-.34-.12-.5-.15-.64-.26-1.15-.72-1.3-.63-.11-1.28.11-1.72.58-.47-.42-1.03-.73-1.64-.9-.35-.11-.69-.26-1-.45l-.36-.24c-.84-.57-1.71-1.16-2.53-1.78-.1-.07-.2-.14-.3-.21-.56-.39-.85-.62-.78-1.19.06-.52-.57-1.03-.69-1.12-.2-.19-.48-.26-.75-.19-.64.25-.91,0-1.43-.57-.19-.22-.4-.42-.62-.6-.33-.26-.64-.53-.94-.83,2.31-.85,4.71-1.4,7.16-1.65,5.37-.63,10.76.24,16.94,2.76,4.85,1.98,9.22,3.56,13.35,4.84,4,1.34,7.58,3.68,10.42,6.8,3.82,3.9,8.07,8.72,10.6,14.87.69,1.77,1.11,3.63,1.23,5.52.24,2.06-.98,4.01-2.93,4.7-1.59.78-3.35,1.18-5.12,1.15m-28.39,4.18c-.7.04-1.4.09-2.1.14l-.96-2.94-.76,2.98-3.45.16-.25-1.21-1.09-.33-.6,1.55h-3.38c-.2-.14-.38-.28-.54-.41-.55-.73-1.59-.87-2.32-.31-.11.08-.21.18-.29.28-.13.1-.26.21-.4.29l-.29.19.04.22-.17-.03c-.78-.15-1.58-.3-2.38-.4-.3-.01-.61.04-.89.15-.13.05-.28.09-.42.11-.27.03-.54.08-.79.16-.71.2-.98.27-1.28-.46-.18-.46-.6-.78-1.09-.84-.07,0-.13-.01-.2-.01-.63.02-1.22.33-1.6.84-.19.22-.42.42-.66.59v-2.23l-1.53-.15-.36,2.35h-1.54c-.19-.17-.36-.33-.52-.47-.42-.46-.93-.83-1.49-1.1-.07-.03-.14-.04-.22-.04l-.57-2.31-1.78.44.87,2.99.29-.08c-.15.19-.31.4-.49.6h-3.33l-1.17-2.22-1.42,2.22h-17.43l.06-.06c.1-.1.2-.19.31-.28l.4-.31-1.57-2.02-.3.27.1-2.28-1.2-.05-.16.22c-.08.11-.14.21-.2.31l-.6-.45c-.28-.21-.52-.42-.73-.6-.36-.41-.85-.69-1.38-.79-.52.05-1,.3-1.35.69-.13.12-.27.23-.4.33l-.48.33.41.42c.13.13.25.28.37.43.3.45.73.82,1.22,1.05.09.03.18.05.27.05.44-.07.86-.27,1.2-.56.24-.16.5-.34.81-.51l.64-.36c-.65,1.05-.52,1.74.46,2.67l-.82.72.43.37c.1.09.2.2.29.3l.1.11h-.52l-2.1-2.57-.64,2.36h-3.88c.09-.12.14-.27.14-.42-.04-.36-.2-.71-.44-.98-.06-.08-.12-.17-.18-.26l-.07-.11-1.37-.8-.19.6c-.03.1-.08.21-.12.31-.18.33-.25.72-.21,1.09.05.2.15.39.29.56h-.15c-.74,0-1.49-.05-2.23-.09-.43-.02-.87-.05-1.3-.07-.13,0-.27,0-.41,0-.78.04-1.07-.03-1.2-.72-.09-.47-.59-.66-1.07-.84-.14-.05-.28-.11-.41-.17l-.54-.28-.53,1.9-1.97-.19-.74-2.75-1.89.21-.5-1.32-1.11.35v.37c0,.27-.03.59-.06.91-.12.6-.1,1.22.08,1.81l-4.94-.49.03-.06-.17-.24c-.11-.16-.22-.33-.32-.5-.28-.52-.65-.97-1.1-1.35-.41-.3-.84,0-1.54.51-.15.11-.32.23-.48.34-2.18-.77-4.02-2.27-5.2-4.26-.11-.21-.14-.46-.08-.69.34-.65.62-1.28.36-1.8-.29-.42-.75-.67-1.26-.7-.03-.15-.07-.3-.11-.45-.2-.76-.27-1.18.23-1.65.15-.16.22-.38.17-.6-.05-.45-.28-.86-.64-1.14-.48-.26-.46-.5-.33-1.16.09-.35.11-.7.07-1.06.07-.11.16-.22.24-.32.12-.15.26-.32.38-.5l.2-.3-.22-.28c-.75-.96-.55-2.06-.33-3.35.05-.31.11-.63.15-.96l1.48.72.18-.55c.03-.08.06-.16.1-.24.14-.31.31-.71.07-1.04-.33-.41-.69-.8-1.08-1.16l-.27-.26,1.48-2.06-.83-.33,2.07-4.42h.02c.38.14.77.25,1.16.32l.28.02.18-.17c.26-.29.4-.66.4-1.05-.05-.35-.14-.69-.27-1.02-.04-.12-.08-.24-.12-.36l-.05-.18.31-.38c1.1-1.34,2.23-2.72,3.41-3.96.2-.04.39-.05.59-.04.41.02.82-.03,1.22-.13l1.08-.36-1.58-.88.63-.59c.8-.75,1.56-1.47,2.36-2.14,1.1-.92,2.2-1.85,3.29-2.78,3.16-2.67,6.43-5.44,9.75-8.01C58.41.24,70.69-.17,81.19,6.97c4.6,3.22,8.93,6.83,12.92,10.78,6.86,6.79,15.39,11.65,24.73,14.06,3.7,1,7.29,2.38,10.7,4.12,5.63,2.78,9.75,10.63,9,17.13-.3,2.59-1.52,4.18-3.63,4.72-3.63.94-6.93,1.64-10.08,2.15-1.8.29-3.68.41-5.49.52m-104.44-4.63l-.14-.09h-.17c-.32.02-.64.06-.95.09-.58.1-1.17.11-1.75.02-.66-.16-1.28-.32-1.87-.48l.18-.44c.02-.06.06-.14.1-.21.16-.35.34-.74-.03-1s-.76-.49-1.15-.71l-.77-.45-.88,1.75,2.24.97c-1.25-.34-2.49-.76-3.69-1.25q-1.09-.45-1.33-2.33l-.17-1.31-1.28,1c-.43-.72-.73-1.52-.87-2.36l.26.42.43-.28c.07-.04.14-.08.21-.11.29-.15.65-.33.68-.72.02-.23,0-.47-.04-.7l1.6.93.94-1.61-.82-.41c-.46-.23-.93-.47-1.39-.66-.43-.18-.66.2-.87.53-.03.05-.06.1-.1.15-.27-.2-.6-.32-.93-.35l-.17-.02-.07.04c0-.22.01-.45.04-.66l.8.27.73-.86-1.31-1.4.07-.2c.05.06.09.13.13.2.2.33.43.69.85.73h.1c.27-.02.53-.1.76-.24-.07.2-.04.5.47,1.04.16.2.39.34.64.38.07,0,.14-.02.21-.04.4-.2.78-.44,1.12-.72.15-.12.32-.24.5-.37l.52-.36-.5-.41c-.2-.16-.39-.33-.55-.48-.55-.48-.85-.75-1.22-.46-.08.07-.18.15-.27.23l-.06-.04c-.19-.13-.34-.27-.48-.38-.26-.28-.6-.46-.98-.5-.35.04-.68.21-.92.47.22-.67.45-1.36.66-2.07.18-.59.48-.76,1.24-.67.23.02.45.02.68-.01-.32.18-.6.41-.83.7l-.35.42.46.31c.42.32.93.5,1.45.53.66-.03,1.26-.38,1.62-.93l.33-.42-.44-.3c-.44-.33-.97-.52-1.52-.51.19-.16.3-.4.28-.65.01-.36-.03-.78-.39-.93-.34-.12-.7-.18-1.06-.19h-.05l.79-1.3,2.01.67-.17-.49.66.15.19-.14c.86-.56,1.09-1.71.53-2.57-.03-.05-.07-.1-.11-.15l-.12-.19-.61-.09c.2-.21.4-.44.61-.64l.53.36c.1.07.2.15.3.23.29.29.66.48,1.06.55h.07c.38-.05.73-.22.99-.5.09-.08.18-.15.27-.21l.54-.35-1.9-1.71-1.78,1.55c4.62-4.46,10.5-7.22,18.22-8.58-3.86,4.85-5.89,9.44-6.37,14.35l-.08.77c-.51,5.17-1.03,10.52,1.09,15.52l-.71,1.59c-.68-.06-1.37-.06-2.05,0-1.34.23-2.71,0-3.9-.65m-7.84-20.47l-.2-.58c.12-.13.24-.25.36-.38l-.16.96Z"/>
  <path id="Path_7278" data-name="Path 7278" class="cls-1" d="m29.92,46.43c.44,0,.81-.32,1.26-.72.2-.18.43-.38.7-.57l.58-.43-.61-.39c-.27-.17-.51-.35-.71-.51-.36-.37-.84-.59-1.36-.63-.44.09-.84.34-1.11.71-.24.25-.37.59-.37.94.16.78.75,1.39,1.51,1.6.03,0,.07,0,.1,0"/>
  <path id="Path_7279" data-name="Path 7279" class="cls-1" d="m43.86,21.6l-.36-.42-.38.4c-.09.1-.21.19-.33.29-.4.33-.8.67-.73,1.15.11.49.33.95.64,1.34.1.14.2.28.28.43l.14.25h1.07s.15-.23.15-.23c.07-.11.16-.23.26-.35.31-.4.63-.81.48-1.26-.2-.46-.49-.88-.87-1.21-.12-.12-.24-.25-.35-.38"/>
  <path id="Path_7280" data-name="Path 7280" class="cls-1" d="m67.13,52.16l-.14-.26h-1.17s-.14.29-.14.29c-.06.13-.14.25-.22.38-.27.36-.43.8-.45,1.26.08.44.33.84.7,1.1.1.09.2.19.29.29l.4.46.38-.48c.09-.11.19-.22.3-.33.34-.3.59-.7.72-1.14.02-.45-.14-.89-.45-1.22-.08-.11-.16-.23-.22-.35"/>
  <path id="Path_7281" data-name="Path 7281" class="cls-1" d="m25.63,35.92c-.37.04-.72.2-1,.44-.09.07-.19.13-.29.19l-.58.33.49.47c.08.08.16.17.25.25.21.24.45.46.72.63.36.21.73.4,1.12.56.15.07.31.14.46.21l.48.23.2-.49c.37-.66.36-1.46-.02-2.12-.44-.55-1.13-.82-1.82-.71"/>
  <path id="Path_7282" data-name="Path 7282" class="cls-1" d="m32.92,49.12l-.53-.38c-.22-.16-.42-.32-.59-.47-.44-.37-.8-.67-1.24-.56-.57.14-1.41.84-1.4,1.51.11.76.66,1.39,1.41,1.58.03,0,.06,0,.09,0,.43,0,.78-.34,1.17-.73.17-.17.37-.36.59-.55l.5-.42Z"/>
  <path id="Path_7283" data-name="Path 7283" class="cls-1" d="m46.9,46.3c-.36-.29-.78-.51-1.22-.65-.43-.1-.79.21-1.11.48-.1.08-.19.17-.28.23l-.5.34.43.43c.11.11.22.23.32.35.28.37.65.68,1.06.9.1.05.21.07.32.07.32-.03.63-.14.9-.32.12-.06.23-.13.34-.17l.28-.11.13-1.11-.27-.17c-.13-.08-.27-.18-.4-.27"/>
  <path id="Path_7284" data-name="Path 7284" class="cls-1" d="m36.07,19.24l-.35.42c-.08.09-.18.19-.28.29-.35.34-.71.69-.61,1.15.14.45.37.87.69,1.22.1.13.2.25.29.38l.32.47,2.07-1.84-2.13-2.11Z"/>
  <path id="Path_7285" data-name="Path 7285" class="cls-1" d="m35.93,52.59l-.4-.58-.42.57c-.18.24-.35.44-.5.62-.35.32-.6.75-.69,1.22,0,.3.14.58.37.77.31.32.71.53,1.15.59h.06c.69-.15,1.25-.67,1.44-1.36.09-.43-.21-.8-.55-1.22-.14-.17-.3-.38-.46-.61"/>
  <path id="Path_7286" data-name="Path 7286" class="cls-1" d="m44.14,34.96c-.4-.28-.84-.49-1.3-.63-.44-.1-.73.27-1.04.68-.08.11-.16.21-.23.3l-.35.39.4.33c.12.1.24.2.35.31.33.33.7.6,1.12.81.08.03.16.05.24.05.3,0,.58-.24.93-.55.17-.15.35-.31.57-.48l.6-.46-.66-.37c-.24-.13-.45-.26-.64-.38"/>
  <path id="Path_7287" data-name="Path 7287" class="cls-1" d="m34.04,39.3c-.57.32-1.01.83-1.24,1.44-.05.28.03.56.22.76.02.03.59.74,1.16.74h.04c.45-.09.85-.33,1.14-.69.15-.14.32-.3.52-.46l.49-.4-.5-.39c-.21-.16-.41-.34-.59-.49-.49-.43-.84-.74-1.25-.52"/>
  <path id="Path_7288" data-name="Path 7288" class="cls-1" d="m80.42,50.05c-.09.1-.18.2-.28.3-.36.27-.59.68-.65,1.12.07.7.51,1.3,1.15,1.58.07.02.15.04.23.04.4-.07.76-.27,1.04-.57.18-.14.37-.3.59-.45l.51-.35-2.26-2.1-.34.42Z"/>
  <path id="Path_7289" data-name="Path 7289" class="cls-1" d="m103.93,55.16c-.25-.06-.51,0-.71.16-.41.26-.7.66-.82,1.12,0,.43.15.85.43,1.19.07.11.15.23.21.34l.13.25,1.08.06.16-.23c.08-.11.17-.21.26-.31.35-.29.55-.72.57-1.17-.16-.66-.66-1.19-1.31-1.41"/>
  <path id="Path_7290" data-name="Path 7290" class="cls-1" d="m33.51,36.57c.1.13.2.26.3.39l.34.47,1.79-1.76-2.11-2.19-.35.48c-.06.09-.15.18-.24.28-.31.35-.63.7-.48,1.13.18.44.44.84.75,1.2"/>
  <path id="Path_7291" data-name="Path 7291" class="cls-1" d="m24.74,46.39c.09.15.18.29.27.44l.3.51,1.8-1.55-1.96-2.48-.39.48c-.07.08-.15.16-.23.24-.31.31-.63.64-.49,1.05.18.46.41.9.69,1.31"/>
  <path id="Path_7292" data-name="Path 7292" class="cls-1" d="m49.92,36.79c.09-.09.17-.19.27-.27.35-.25.58-.63.66-1.05-.04-.44-.25-.84-.58-1.13-.13-.15-.28-.32-.42-.51l-.42-.57-.4.58c-.14.2-.28.38-.41.54-.33.41-.62.76-.53,1.19.14.42.42.77.8,1,.11.08.22.17.31.26l.38.37.34-.41Z"/>
  <path id="Path_7293" data-name="Path 7293" class="cls-1" d="m28.6,31.53l.17-.48-.47-.17c-1.82-.63-2.33.67-2.63,1.45l-.05.13c-.08.26-.02.55.15.76.16.29.44.49.76.56h.1c1.33,0,1.61-1.01,1.82-1.75.05-.17.09-.34.15-.51"/>
  <path id="Path_7294" data-name="Path 7294" class="cls-1" d="m41.17,46.82c-.1-.08-.19-.16-.28-.24-.27-.34-.69-.54-1.12-.53-.42.12-.81.35-1.13.65-.11.09-.23.19-.34.27l-.47.33,1.66,1.76,2.21-1.88-.52-.37Z"/>
  <path id="Path_7295" data-name="Path 7295" class="cls-1" d="m38.66,43.97c.09.05.19.08.29.08.27-.03.52-.14.73-.31.48-.34.67-.63.61-.94-.12-.44-.31-.86-.58-1.23-.11-.18-.23-.38-.35-.6l-.37-.66-.47.6c-.16.21-.33.39-.47.55-.37.41-.66.73-.54,1.14.21.58.61,1.07,1.15,1.38"/>
  <path id="Path_7296" data-name="Path 7296" class="cls-1" d="m76.03,54.97c-.67.65-.94,1.21-.84,1.73.09.36.33.65.66.82l-2.78.25.4.68c.26.57.75,1,1.34,1.19.09.02.18.03.27.03.44-.03.85-.2,1.18-.48.24-.22.37-.54.35-.87,0-.07.01-.15.02-.22l.06-.29c.21,0,.42-.04.62-.1.1-.03.2-.05.3-.06l.78-.11-1.93-2.97-.43.42Z"/>
  <path id="Path_7297" data-name="Path 7297" class="cls-1" d="m113.07,56.5l-.38-.67-.45.62c-.16.22-.31.4-.45.56-.33.39-.6.7-.51,1.11.12.39.36.72.68.97.09.08.18.17.26.26l.35.39.37-.36c.08-.07.17-.15.26-.22.36-.2.61-.55.7-.95-.02-.42-.18-.81-.46-1.13-.11-.17-.24-.35-.36-.57"/>
  <path id="Path_7298" data-name="Path 7298" class="cls-1" d="m42.44,16.53h.08c.42-.07.8-.29,1.06-.62.16-.15.34-.32.55-.48l.57-.46-.64-.37c-.22-.13-.42-.26-.58-.37-.31-.28-.71-.45-1.13-.46-.37.08-.69.3-.91.61-.2.22-.3.52-.28.82.14.65.63,1.16,1.28,1.32"/>
  <path id="Path_7299" data-name="Path 7299" class="cls-1" d="m26.35,50.09c-.35-.28-.72-.52-1.13-.71-.41-.18-.75.21-.93.42s-.54.6-.32.99c.28.5.67.92,1.15,1.22.09.06.19.09.3.08.31-.05.59-.18.83-.38.17-.11.37-.24.61-.38l.69-.39-.65-.45c-.21-.15-.39-.28-.56-.4"/>
  <path id="Path_7300" data-name="Path 7300" class="cls-1" d="m29.11,28.54c.65-.1,1.17-.59,1.31-1.23-.02-.42-.21-.8-.53-1.07-.12-.14-.25-.28-.38-.46l-.4-.55-.4.55c-.13.17-.26.33-.38.46-.31.36-.58.67-.53,1.08.15.64.67,1.12,1.32,1.22"/>
  <path id="Path_7301" data-name="Path 7301" class="cls-1" d="m56.85,46.83c-.57.07-1.08.41-1.36.91l-.25.34.3.3c.39.5.97.82,1.6.89h.09c.54-.07,1.02-.38,1.31-.84l.25-.33-.27-.31c-.38-.56-.99-.91-1.66-.97"/>
  <path id="Path_7302" data-name="Path 7302" class="cls-1" d="m30.09,38.13c-.34.22-.56.57-.63.97.04.41.23.79.53,1.06.12.15.26.32.4.52l.5.71.37-.78c.1-.21.2-.39.28-.55.22-.31.34-.68.35-1.06-.07-.36-.29-.68-.6-.89-.08-.06-.15-.13-.22-.2l-.37-.4-.36.4c-.07.08-.16.15-.24.23"/>
  <path id="Path_7303" data-name="Path 7303" class="cls-1" d="m51.25,43.62c-.11-.15-.23-.31-.36-.49l-.46-.64-.38.69c-.11.2-.22.37-.32.52-.25.38-.46.71-.27,1.06.28.45.65.84,1.11,1.12.08.05.18.08.28.08.27-.04.52-.17.71-.38.21-.19.57-.5.39-.9-.19-.38-.42-.73-.69-1.06"/>
  <path id="Path_7304" data-name="Path 7304" class="cls-1" d="m40.86,57.72l3.02,1.46.76-1.56-3.01-1.49-.78,1.59Z"/>
  <path id="Path_7305" data-name="Path 7305" class="cls-1" d="m101.32,55.28c-.25-.25-.56-.41-.91-.47-.34.02-.67.18-.89.44-.21.18-.32.44-.31.72.08.35.26.66.53.9.1.11.21.23.32.37l.4.51,1.53-1.98-.43-.3c-.08-.05-.15-.12-.23-.18"/>
  <path id="Path_7306" data-name="Path 7306" class="cls-1" d="m34.58,57.54c-.25-.28-.59-.47-.96-.53-.61.08-1.1.54-1.22,1.14.06.59.47,1.09,1.04,1.27.05.01.1.02.16.02.33-.04.63-.18.88-.4.13-.09.29-.2.46-.31l.63-.37-.56-.45c-.16-.13-.3-.26-.42-.37"/>
  <path id="Path_7307" data-name="Path 7307" class="cls-1" d="m147.96,52.23c-.43-.47-.77-.83-1.24-.78-.74.18-1.32.76-1.5,1.5,0,.48.18.94.51,1.29.18.26.47.43.78.47h.03c.49-.06.95-.28,1.3-.63.19-.14.4-.3.64-.46l.54-.35-.47-.44c-.22-.21-.41-.42-.59-.6"/>
  <path id="Path_7308" data-name="Path 7308" class="cls-1" d="m141.19,51.51l.46.32c.12.08.24.18.36.28.33.32.74.55,1.18.65.04,0,.08,0,.11,0,.41-.07.78-.29,1.02-.62.09-.1.19-.19.29-.28l.44-.36-2.11-2-1.76,2.01Z"/>
  <path id="Path_7309" data-name="Path 7309" class="cls-1" d="m118.17,25.05l-.43-.53-.38.57c-.12.18-.23.34-.34.48-.25.3-.44.64-.57,1.01-.12.41.21.71.5.97.07.07.15.14.21.2l.36.4.64-.66c.3-.27.56-.58.79-.91.24-.37-.04-.68-.39-1.08-.12-.13-.26-.29-.39-.45"/>
  <path id="Path_7310" data-name="Path 7310" class="cls-1" d="m142.94,44.57c-.12.22-.24.4-.34.56-.24.3-.39.67-.45,1.05.03.37.19.72.46.97.07.07.13.15.19.23l.38.55.42-.51c.07-.09.15-.17.24-.25.29-.25.5-.57.62-.93.04-.39-.08-.78-.33-1.08-.09-.16-.2-.34-.31-.56l-.42-.87-.46.85Z"/>
  <path id="Path_7311" data-name="Path 7311" class="cls-1" d="m124.86,26.15c-.41-.17-.67.17-.92.51-.06.08-.11.15-.16.21l-.34.4.41.32c.1.08.21.17.31.25.3.26.62.49.97.69.08.04.18.07.27.07.26-.04.51-.15.72-.32.13-.09.3-.2.49-.31l.77-.43-1.3-.75c-.39-.24-.8-.46-1.22-.64"/>
  <path id="Path_7312" data-name="Path 7312" class="cls-1" d="m143.46,39.47v-.22c.04-.56-.16-1.11-.56-1.51-.59-.4-1.32-.53-2.01-.35l-.93.13,2.57,2.83.93-.9Z"/>
  <path id="Path_7313" data-name="Path 7313" class="cls-1" d="m127.49,28.14l2.18,1.23.94-1.22-1.89-1.85-1.23,1.84Z"/>
  <path id="Path_7314" data-name="Path 7314" class="cls-1" d="m138.35,36.56c-.51.65-.92,1.23-.81,1.83s.66.96,1.32,1.34l.91.54-.71-4.61-.71.9Z"/>
  <path id="Path_7315" data-name="Path 7315" class="cls-1" d="m12.27,48.31c-.38-.31-.79-.57-1.23-.8-.37-.18-.65.13-.79.28-.77.82-.59,1.15-.52,1.28.31.55.77,1.01,1.33,1.32.08.05.18.07.27.07.29,0,.57-.24.92-.55.15-.14.33-.29.52-.44l.53-.41-.54-.39c-.18-.13-.34-.25-.49-.36"/>
  <path id="Path_7316" data-name="Path 7316" class="cls-1" d="m19.53,52.5c-.2-.14-.38-.29-.54-.42-.44-.36-.78-.64-1.19-.45-.37.2-.68.49-.91.84-.08.1-.17.21-.25.31l-.35.38.4.33c.08.07.16.16.25.24.22.32.57.53.95.59.03,0,.06,0,.09,0,.41-.09.78-.3,1.07-.6.15-.12.31-.26.5-.4l.57-.41-.58-.4Z"/>
  <path id="Path_7317" data-name="Path 7317" class="cls-1" d="m10.38,50.23c-.26-.31-.57-.57-.91-.79-.35-.21-.69,0-1.08.26-.14.09-.31.2-.5.3l-.67.36.59.47c.18.15.34.28.48.41.28.3.62.53,1,.67.06.02.13.03.19.03.33-.05.63-.21.86-.45.08-.07.16-.14.25-.2l.51-.34-.44-.43c-.1-.09-.19-.19-.28-.29"/>
  <path id="Path_7318" data-name="Path 7318" class="cls-1" d="m16.31,50.74c-.15-.39-.36-.76-.6-1.1-.11-.17-.23-.37-.37-.59l-.45-.75-.41.77c-.12.23-.24.42-.34.58-.24.38-.43.68-.26,1.03.18.33.41.63.68.88.09.09.17.18.25.27l.33.38.38-.33c.06-.06.15-.12.23-.18.35-.26.71-.53.57-.95"/>
  <path id="Path_7319" data-name="Path 7319" class="cls-1" d="m17.54,48.51c.08.14.22.22.38.22.26-.04.51-.14.72-.29l.72-.39-1.35-2.37-1.57.93.37.67c.22.41.45.83.72,1.22"/>
</svg>